<?xml version="1.0" encoding="utf-8" ?><svg xmlns="http://www.w3.org/2000/svg" xmlns:xlink="http://www.w3.org/1999/xlink" width="1024" height="1024" viewBox="0 0 1024 1024"><path fill="#FCBA4E" transform="scale(2 2)" d="M200.739 203.183C202.511 202.233 204.91 200.069 206.48 198.708C235.093 174.671 256.051 145.477 291.736 129.316C296.155 127.315 300.658 124.786 305.356 123.626C301.082 129.394 283.827 144.226 285.671 151.161C283.789 152.619 280.909 168.224 280.445 171.34C296.364 166.999 326.416 145.744 339.977 136.449C333.152 157.863 325.78 179.55 315.924 199.808C314.964 201.782 309.981 211.243 310.56 212.705C307.678 216.1 305.226 220.846 302.968 224.777C297.502 234.292 290.821 242.147 285.671 250.858C295.218 246.614 306.972 240.071 315.876 234.691C305.592 252.825 280.963 276.691 265.15 289.413C263.503 290.739 262.097 291.971 260.633 293.491C269.442 291.724 275.457 288.24 283.323 285.153C281.903 287.647 279.69 290.066 277.861 292.306C261.105 312.818 239.793 332.342 215.466 343.43C212.29 344.879 208.938 346.114 205.794 347.581C221.72 346.439 233.79 338.688 247.526 335.497C240.107 344.269 220.883 360.567 209.846 364.997C209.207 367.574 208.787 370.259 208.094 372.906C191.115 437.782 105.028 448.766 65.2201 397.274C31.019 353.035 50.4363 284.675 102.777 265.728C106.871 264.248 109.874 263.113 114.297 262.421C116.002 251.659 132.701 228.449 140.09 221.34C136.503 231.106 137.21 236.451 135.096 245.167C137.016 242.868 138.429 240.031 140.214 237.591C155.575 216.59 190.52 184.703 215.737 175.122C208.772 184.795 201.877 189.222 200.739 203.183Z"/><path fill="#D9DBDB" transform="scale(2 2)" d="M209.846 364.997C209.207 367.574 208.787 370.259 208.094 372.906C191.115 437.782 105.028 448.766 65.2201 397.274C31.019 353.035 50.4363 284.675 102.777 265.728C106.871 264.248 109.874 263.113 114.297 262.421C111.026 268.865 109.311 277.457 107.924 284.57C107.466 286.92 108.164 295.974 105.621 294.948C106.326 297.448 106.954 297.075 107.44 300.117C108.563 299.204 110.307 297.698 111.443 296.913L111.764 296.961C112.585 296.377 113.502 295.592 114.297 294.948C127.559 285.274 142.95 283.086 158.862 286.61C196.792 299.825 205.398 335.552 181.315 368.083C177.317 371.174 174.554 374.503 170.082 377.753C171.695 377.818 179.771 375.679 182.184 375.19C192.8 371.928 199.802 369.342 209.846 364.997Z"/><defs><linearGradient id="gradient_0" gradientUnits="userSpaceOnUse" x1="100.437" y1="360.73529" x2="187.68071" y2="308.88342"><stop offset="0" stop-color="#E75D1D"/><stop offset="1" stop-color="#F98123"/></linearGradient></defs><path fill="url(#gradient_0)" transform="scale(2 2)" d="M102.89 278.355C104.186 282.979 104.527 289.836 105.621 294.948C106.326 297.448 106.954 297.075 107.44 300.117C108.563 299.204 110.307 297.698 111.443 296.913L111.764 296.961C112.585 296.377 113.502 295.592 114.297 294.948C127.559 285.274 142.95 283.086 158.862 286.61C196.792 299.825 205.398 335.552 181.315 368.083C177.317 371.174 174.554 374.503 170.082 377.753C168.694 378.196 166.432 379.278 165.042 379.939C132.47 395.515 100.842 375.828 93.0075 341.87C87.986 329.59 91.8484 313.802 94.402 301.198C97.4888 293.95 99.2991 286.377 102.89 278.355Z"/><path fill="#F8A41A" transform="scale(2 2)" d="M102.89 278.355C104.186 282.979 104.527 289.836 105.621 294.948C106.326 297.448 106.954 297.075 107.44 300.117C108.563 299.204 110.307 297.698 111.443 296.913L111.764 296.961C110.941 298.204 108.11 300.57 106.934 301.802C95.391 313.889 92.8981 325.888 93.0075 341.87C87.986 329.59 91.8484 313.802 94.402 301.198C97.4888 293.95 99.2991 286.377 102.89 278.355Z"/><path fill="#F8A41A" transform="scale(2 2)" d="M158.862 293.491C182.217 290.536 205.78 334.696 177.302 347.581C175.208 347.792 174.662 348.231 173.007 349.414C173.073 341.596 173.411 339.924 167.609 334.017C159.153 325.408 141.698 314.642 149.397 300.478C151.557 296.503 154.717 294.689 158.862 293.491Z"/><path fill="#F8A41A" transform="scale(2 2)" d="M152.899 343.067C162.714 342.162 163.646 357.272 151.45 358.593C150.507 358.623 149.472 358.597 148.521 358.593C146.613 357.507 144.746 355.467 143.175 353.873C144.397 347.352 145.85 344.244 152.899 343.067Z"/><defs><linearGradient id="gradient_1" gradientUnits="userSpaceOnUse" x1="118.55537" y1="352.53906" x2="111.64382" y2="359.8342"><stop offset="0" stop-color="#FFA803"/><stop offset="1" stop-color="#F1840F"/></linearGradient></defs><path fill="url(#gradient_1)" transform="scale(2 2)" d="M127.114 368.083C121.512 360.301 119.118 356.958 109.323 353.273C105.565 351.86 104.431 352.033 101.274 349.487L101.496 349.56C104.155 350.399 107.129 350.035 109.915 350.555C113.679 351.258 117.074 352.669 120.676 353.873C125.925 355.9 130.144 362.871 129.754 368.348L129.604 368.425L129.406 367.855L128.326 368.383L128.267 368.06C130.373 366.01 128.505 364.717 127.114 362.803C126.988 363.609 127.098 367.118 127.114 368.083Z"/><path fill="#F87A13" transform="scale(2 2)" d="M120.676 353.873C125.925 355.9 130.144 362.871 129.754 368.348L129.604 368.425L129.406 367.855L128.326 368.383L128.267 368.06C130.373 366.01 128.505 364.717 127.114 362.803C126.633 358.286 122.027 356.263 120.676 353.873Z"/><path fill="#C8C9C8" transform="scale(2 2)" d="M182.184 375.19C180.771 380.176 174.02 387.021 169.881 389.809C122.453 421.76 62.3139 378.139 81.1167 323.01C83.0949 317.21 89.6034 304.618 94.402 301.198C91.8484 313.802 87.986 329.59 93.0075 341.87C100.842 375.828 132.47 395.515 165.042 379.939C166.432 379.278 168.694 378.196 170.082 377.753C171.695 377.818 179.771 375.679 182.184 375.19Z"/><path fill="#C8C9C8" transform="scale(2 2)" d="M182.184 398.971C182.746 399.016 182.463 398.941 183.022 399.236L183.04 399.829C178.939 407.763 148.861 423.272 140.656 420.828C137.547 418.643 138.248 416.304 140.09 413.445C141.975 412.299 145.168 412.023 147.345 411.799C165.221 409.958 168.278 404.545 181.714 399.157L182.184 398.971Z"/><path fill="#FAD584" transform="scale(2 2)" d="M258.606 188.561C257.951 191.181 252.806 205.597 253.834 207.024C257.544 206.926 289.511 182.036 301.814 177.749L302.228 177.607C299.688 182.069 295.521 187.938 292.626 192.363L271.032 224.836C268.319 228.851 252.573 255.034 249.151 254.5C243.814 268.534 228.25 294.449 219.169 305.202C216.616 308.225 214.032 310.582 211.696 313.271C215.327 313.101 224.065 313.148 227.845 313.271C217.011 333.941 206.865 340.726 192.392 357.031C198.67 356.634 204.42 357.488 210.87 357.031C205.867 360.418 186.669 369.471 181.315 368.083C205.398 335.552 196.792 299.825 158.862 286.61C142.95 283.086 127.559 285.274 114.297 294.948C112.423 292.061 123.278 269.715 125 265.375C127.303 271.479 128.039 275.637 131.445 281.864C134.802 276.856 137.954 269.329 141.424 263.925C149.102 251.968 160.489 237.05 171.134 227.579C168.986 235.425 166.185 248.528 165.735 256.557C167.375 255.126 169.001 253.4 170.561 251.897C179.399 243.38 196.225 234.036 207.808 228.654C225.878 221.014 244.436 202.053 258.606 188.561Z"/><defs><linearGradient id="gradient_2" gradientUnits="userSpaceOnUse" x1="451.17575" y1="101.46552" x2="279.41901" y2="166.31248"><stop offset="0" stop-color="#EF5E33"/><stop offset="1" stop-color="#F4834E"/></linearGradient></defs><path fill="url(#gradient_2)" transform="scale(2 2)" d="M354.062 108.265C365.875 95.1875 373.936 95.8531 389.586 92.3137C408.483 88.0398 426.312 72.4207 431.573 53.6507C431.984 52.1834 432.339 50.3965 432.83 48.9958C433.327 73.7028 423.617 90.9423 404.232 106.544C394.608 114.29 376.162 121.896 376.767 136.449C384.255 145.379 396.887 134.026 402.089 127.998C397.994 153.2 376.231 155.328 358.581 167.279C340.426 179.573 325.481 196.842 310.56 212.705C309.981 211.243 314.964 201.782 315.924 199.808C325.78 179.55 333.152 157.863 339.977 136.449C326.416 145.744 296.364 166.999 280.445 171.34C280.909 168.224 283.789 152.619 285.671 151.161C310.64 146.116 314.987 133.063 324.686 114.127C335.812 92.4051 354.781 77.5824 380.056 77.8726C366.384 85.1039 357.067 92.6725 354.062 108.265Z"/></svg>