<?xml version="1.0" encoding="utf-8" ?><svg xmlns="http://www.w3.org/2000/svg" xmlns:xlink="http://www.w3.org/1999/xlink" width="1024" height="1024" viewBox="0 0 1024 1024"><path fill="#B350EF" transform="scale(2 2)" d="M159.116 329.761C129.121 298.556 114.961 263.703 117.255 220.116C121.633 136.916 199.72 75.9348 281.405 92.8859C386.649 113.656 430.89 239.177 361.19 320.377C359.657 322.16 353.37 328.066 352.686 329.761C354.308 331.034 358.133 355.903 357.646 360.117C364.561 366.339 367.889 369.101 368.545 378.597C375.827 381.111 382.6 387.428 385.974 394.231C403.052 428.846 348.275 445.637 324.42 451.044C283.52 460.314 239.574 460.463 198.29 453.403C175.815 449.56 117.809 434.456 122.757 402.709C126.491 392.168 131.074 383.541 141.989 378.597L141.989 377.726C145.04 370.31 142.866 365.62 154.266 360.117C154.649 359.157 154.755 356.239 154.826 355.123L154.825 349.41C154.857 343.313 154.534 334.294 159.116 329.761Z"/><path fill="#420F84" transform="scale(2 2)" d="M154.826 355.123L154.825 349.41C154.857 343.313 154.534 334.294 159.116 329.761C183.453 351.383 242.197 352.961 273.034 351.156C295.104 349.865 316.851 346.079 337.532 338.098C341.93 336.127 349.396 332.955 352.686 329.761C354.308 331.034 358.133 355.903 357.646 360.117C364.561 366.339 367.889 369.101 368.545 378.597C375.827 381.111 382.6 387.428 385.974 394.231C403.052 428.846 348.275 445.637 324.42 451.044C283.52 460.314 239.574 460.463 198.29 453.403C175.815 449.56 117.809 434.456 122.757 402.709C126.491 392.168 131.074 383.541 141.989 378.597L141.989 377.726C145.04 370.31 142.866 365.62 154.266 360.117C154.649 359.157 154.755 356.239 154.826 355.123Z"/><path fill="#F39503" transform="scale(2 2)" d="M154.826 355.123L154.825 349.41C154.857 343.313 154.534 334.294 159.116 329.761C183.453 351.383 242.197 352.961 273.034 351.156C295.104 349.865 316.851 346.079 337.532 338.098C341.93 336.127 349.396 332.955 352.686 329.761C354.308 331.034 358.133 355.903 357.646 360.117C344.976 370.297 338.735 371.365 326.895 378.597C323.327 379.243 319.604 380.779 316.046 381.765C274.233 393.352 206.863 392.515 167.573 371.32C164.285 369.546 155.339 363.83 154.266 360.117C154.649 359.157 154.755 356.239 154.826 355.123Z"/><path fill="#DB7105" transform="scale(2 2)" d="M352.686 329.761C354.308 331.034 358.133 355.903 357.646 360.117C344.976 370.297 338.735 371.365 326.895 378.597C323.327 379.243 319.604 380.779 316.046 381.765C274.233 393.352 206.863 392.515 167.573 371.32C164.285 369.546 155.339 363.83 154.266 360.117C154.649 359.157 154.755 356.239 154.826 355.123C159.568 357.013 165.881 362.892 173.408 365.909C217.905 383.741 312.418 389.783 337.532 338.098C341.93 336.127 349.396 332.955 352.686 329.761Z"/><path fill="#6B22B7" transform="scale(2 2)" d="M141.989 377.726C145.04 370.31 142.866 365.62 154.266 360.117C155.339 363.83 164.285 369.546 167.573 371.32C206.863 392.515 274.233 393.352 316.046 381.765C319.604 380.779 323.327 379.243 326.895 378.597C329.667 383.513 346.504 380.605 340.275 402.709C337.983 402.725 331.064 405.652 328.315 406.53C282.694 421.087 224.123 420.503 179.51 404.865C164.731 399.684 149.249 392.867 142.268 377.903C142.175 377.844 142.082 377.785 141.989 377.726Z"/><path fill="#8C7DD6" transform="scale(2 2)" d="M182.091 380.828C195.531 379.938 198.143 398.191 184.159 401C169.893 401.548 167.789 382.934 182.091 380.828Z"/><path fill="#6B22B7" transform="scale(2 2)" d="M122.757 402.709C126.491 392.168 131.074 383.541 141.989 378.597C136.3 404.16 178.223 416.813 196.72 420.431C241.769 429.242 295.483 429.295 338.82 413.416C349.917 417.2 354.854 422.065 347.889 433.55C325.548 444.48 281.04 448.475 256.878 448.012C236.552 447.977 185.033 444.965 167.052 434.956C164.124 434.011 160.831 432.571 157.957 431.382C150.213 429.736 137.386 420.421 132.145 415.037C128.487 411.279 125.369 402.773 122.757 402.709Z"/><path fill="#8C7DD6" transform="scale(2 2)" d="M157.957 431.382C149.096 409.786 183.878 413.643 174.549 430.077C172.873 433.03 170.091 434.153 167.052 434.956C164.124 434.011 160.831 432.571 157.957 431.382Z"/><path fill="#CE83F5" transform="scale(2 2)" d="M203.488 113.697C216.158 104.513 246.652 102.724 261.016 105.045C334.809 116.97 366.447 200.676 320.073 260.094C316.74 264.364 312.803 267.891 309.694 271.83C312.143 278.302 320.23 278.971 325.896 280.573C313.199 282.843 307.871 285.642 306.659 299.941C303.897 291.482 304.442 285.73 295.007 281.551C274.998 296.401 250.402 304.757 225.261 301.223C222.101 300.779 218.258 299.697 215.259 299.511C212.808 302.58 206.096 293.353 198.752 318.101C196.963 307.249 193.726 301.278 182.091 299.511C186.508 297.918 190.268 296.406 193.429 292.833C183.445 287.9 174.9 282.715 166.695 275.217C137.238 248.303 128.798 202.27 146.347 166.567C156.336 146.243 171.742 126.896 192.828 117.443C195.363 116.307 198.462 114.744 201.301 114.614L203.488 113.697Z"/><path fill="#FEC022" transform="scale(2 2)" d="M233.724 123.305C241.317 123.711 263.912 126.756 264.495 138.324C264.893 146.21 236.29 161.221 230.652 164.685C210.485 177.027 191.959 193.723 177.946 212.782C175.095 216.66 166.993 232.23 161.219 222.979C153.648 210.85 159.51 186.264 165.347 174.102C166.309 172.096 169.668 166.802 170.13 165.49C172.297 162.872 172.293 161.984 175.193 159.305L175.193 159.305C180.452 154.304 201.109 142.458 207.225 139.944C215.719 136.454 233.246 135.39 233.724 125.211C233.484 124.028 233.294 124.132 233.724 123.305Z"/><path fill="#FEEB6C" transform="scale(2 2)" d="M233.724 125.211C242.363 131.989 238.01 142.404 231.954 149.559C223.032 160.098 207.915 170.461 193.971 171.902C177.669 173.588 178.185 161.008 175.193 159.305L175.193 159.305C180.452 154.304 201.109 142.458 207.225 139.944C215.719 136.454 233.246 135.39 233.724 125.211Z"/><path fill="#FEEB6C" transform="scale(2 2)" d="M176.928 171.79C187.102 171.311 181.797 189.883 172.081 191.658C161.986 191.006 167.192 174.849 176.928 171.79Z"/><defs><linearGradient id="gradient_0" gradientUnits="userSpaceOnUse" x1="210.78859" y1="148.31747" x2="194.86288" y2="130.19023"><stop offset="0" stop-color="#FFEFA6"/><stop offset="1" stop-color="#FFEAE8"/></linearGradient></defs><path fill="url(#gradient_0)" transform="scale(2 2)" d="M175.193 159.305C176.752 137.147 203.165 121.592 223.785 122.115C227.098 122.199 230.465 122.612 233.724 122.946C233.731 123.066 233.778 123.198 233.724 123.305C233.294 124.132 233.484 124.028 233.724 125.211C233.246 135.39 215.719 136.454 207.225 139.944C201.109 142.458 180.452 154.304 175.193 159.305Z"/><defs><linearGradient id="gradient_1" gradientUnits="userSpaceOnUse" x1="209.97014" y1="139.56105" x2="192.69647" y2="117.32932"><stop offset="0" stop-color="#ECAFFC"/><stop offset="1" stop-color="#F7CDFC"/></linearGradient></defs><path fill="url(#gradient_1)" transform="scale(2 2)" d="M203.488 113.697C206.103 113.735 208.481 112.766 211.029 112.589C220.972 111.9 228.298 114.809 233.724 122.946C230.465 122.612 227.098 122.199 223.785 122.115C203.165 121.592 176.752 137.147 175.193 159.305L175.193 159.305C172.293 161.984 172.297 162.872 170.13 165.49C170.962 161.393 174.862 160.3 174.774 157.527C174.645 153.466 177.864 148.51 179.754 144.983C181.671 141.403 182.478 142.262 177.256 142.71C176.767 142.12 176.833 142.071 176.696 141.293L176.928 141.571C169.573 137.813 175.642 133.804 171.97 133.074L172.223 132.583C175.366 131.508 183.961 123.694 189.314 120.891C193.319 118.794 197.33 116.761 201.301 114.614L203.488 113.697Z"/><path fill="#AC0AF2" transform="scale(2 2)" d="M305.654 259.961C306.49 264.381 306.812 268.295 309.694 271.83C312.143 278.302 320.23 278.971 325.896 280.573C313.199 282.843 307.871 285.642 306.659 299.941C303.897 291.482 304.442 285.73 295.007 281.551C292.82 280.823 289.65 280.159 287.273 279.467C301.127 276.113 302.975 275.471 305.654 259.961Z"/><path fill="#AC0AF2" transform="scale(2 2)" d="M198.752 281.551C201.681 294.992 203.506 294.539 215.259 299.511C212.808 302.58 206.096 293.353 198.752 318.101C196.963 307.249 193.726 301.278 182.091 299.511C186.508 297.918 190.268 296.406 193.429 292.833C196.505 289.289 197.866 286.203 198.752 281.551Z"/><path fill="#CE83F5" transform="scale(2 2)" d="M363.101 243.284C365.951 243.114 366.834 243.834 368.545 246.03C368.361 249.981 365.835 258.188 364.218 261.994C354.786 284.193 332.599 310.998 309.694 320.71C302.972 321.519 302.613 315.508 308.967 311.815C331.95 298.457 349.522 279.242 358.043 253.638C359.164 250.271 359.309 244.456 363.101 243.284Z"/><path fill="#FEC022" transform="scale(2 2)" d="M154.266 59.7209C156.268 59.8299 178.596 80.9438 167.052 86.899C160.086 88.995 151.562 67.8226 150.705 63.6032C151.469 61.0735 151.782 60.6262 154.266 59.7209Z"/><path fill="#FEC022" transform="scale(2 2)" d="M357.646 59.7209C366.545 60.0396 354.15 85.7803 346.828 88.0346C335.744 84.496 353.512 61.8381 357.646 59.7209Z"/><path fill="#FEC022" transform="scale(2 2)" d="M133.216 92.776C139.501 93.9307 156.722 102.131 143.779 106.519C134.279 107.713 121.814 96.0722 133.216 92.776Z"/><path fill="#FEC022" transform="scale(2 2)" d="M378.741 92.776C382.799 91.5063 384.748 95.759 383.707 98.1392C382.147 101.709 371.92 105.111 368.545 106.519C356.556 105.244 368.306 93.4051 378.741 92.776Z"/></svg>