<?xml version="1.0" encoding="utf-8" ?><svg xmlns="http://www.w3.org/2000/svg" xmlns:xlink="http://www.w3.org/1999/xlink" width="1024" height="1024" viewBox="0 0 1024 1024"><path fill="#545F63" transform="scale(2 2)" d="M87.7342 236.933C89.5686 223.729 99.3948 208.138 103.833 195.338C104.359 193.821 107.163 188.587 107.254 187.539C107.904 180.035 107.359 172.189 107.438 164.627C107.485 160.195 105.93 157.582 110.207 157.263C110.206 158.98 109.899 168.961 110.207 169.984C110.316 175.205 109.924 181.813 110.503 186.849C110.939 190.633 121.928 215.493 123.849 220.149C125.957 225.259 129.633 231.789 131.069 236.933L133.249 236.933L133.249 228.193C136.358 228.17 139.516 228.112 142.62 228.193C151.891 227.368 149.523 231.323 149.523 240.086L149.507 258.005C146.551 257.867 144.212 257.744 141.234 258.005L141.234 294.045C143.435 294.124 145.08 294.152 147.271 294.045L147.271 301.057L157.74 301.057C157.67 298.595 157.605 296.516 157.74 294.045C160.792 294.033 164.696 293.908 167.678 294.045L167.678 301.057C171.466 301.137 174.958 301.181 178.745 301.057L178.745 294.045C182.19 293.942 184.982 293.892 188.417 294.045C188.406 296.383 188.387 298.719 188.417 301.057C190.601 301.108 192.701 301.186 194.887 301.057C195.137 296.275 194.859 290.274 194.887 285.351C194.734 282.906 194.877 278.864 194.878 276.306L194.882 238.612C194.874 235.486 194.725 231.234 194.887 228.193C195.353 228.392 212.334 228.282 213.794 228.193C213.912 226.034 213.899 224.664 213.794 222.497C217.075 222.493 227.977 222.019 230.4 222.497C230.146 217.087 230.392 210.152 230.393 204.571L230.4 168.756C234.494 168.113 247.473 168.653 251.913 168.756C255.05 168.756 279.644 168.535 280.615 169.065L280.729 169.443L280.729 171.95C281.885 186.181 281.157 208.234 280.729 222.497C286.165 222.184 291.375 222.502 296.759 222.497L298.823 222.497C298.992 224.476 299.134 226.211 298.823 228.193C305.001 228.288 311.586 228.661 317.745 228.193L317.745 287.114L317.745 289.212L317.745 301.057L324.064 301.057C323.82 297.471 322.88 296.839 323.036 292.864C326.796 292.981 330.03 292.861 333.725 292.864C333.834 295.74 331.418 301.127 333.901 301.133C337.427 301.141 341.115 301.062 344.637 301.057C343.257 297.388 342.921 296.814 343.142 292.864C353.928 292.812 355.488 290.812 352.062 301.057C357.022 301.031 367.331 303.178 362.51 296.984C362.501 295.631 362.468 294.21 362.51 292.864C365.407 292.779 367.841 292.779 370.738 292.864C370.624 288.667 370.076 275.892 370.738 272.03L370.738 261.762L392.067 261.762L437.283 261.762L437.283 436.825L366.335 436.849C364.759 436.854 359.756 436.982 358.413 436.825C351.351 437.017 343.126 436.892 336.024 436.825C334.481 437.015 327.286 436.85 325.257 436.849L231.614 436.834C228.554 436.853 224.735 436.989 221.733 436.825L218.527 436.825L74.7091 436.825L74.7091 424.623L74.7091 413.509L74.7091 401.03C74.6753 398.013 74.7068 394.942 74.7091 391.92C74.9034 385.671 74.7103 378.317 74.7091 371.978C74.7926 369.782 74.7184 367.203 74.7091 364.978L74.7091 357.965C74.5061 356.172 74.6723 347.432 74.7091 345.389L74.7091 331.308L74.7091 261.762C74.719 256.411 71.0095 258.21 66.3468 258.005C66.1539 255.707 66.3229 250.583 66.3275 248.113L66.3468 227.74L71.7514 227.74L81.9033 227.74C81.9088 230.787 81.9437 233.892 81.9033 236.933C83.8088 236.72 85.8102 236.858 87.7342 236.933Z"/><path fill="#464F53" transform="scale(2 2)" d="M230.4 168.756C234.494 168.113 247.473 168.653 251.913 168.756C255.05 168.756 279.644 168.535 280.615 169.065L280.729 169.443L280.729 171.95C281.885 186.181 281.157 208.234 280.729 222.497C286.165 222.184 291.375 222.502 296.759 222.497L298.823 222.497C298.992 224.476 299.134 226.211 298.823 228.193C305.001 228.288 311.586 228.661 317.745 228.193L317.745 287.114L317.745 289.212C304.952 289.47 290.877 288.433 278.322 289.212C270.927 288.12 257.054 289.537 248.823 289.212C248.766 288.316 248.81 287.247 248.823 286.337C245.219 286.168 240.106 286.328 236.323 286.327L212.092 286.337C207.706 286.845 201.317 286.244 196.527 286.337C196.059 286.12 196.052 286.147 195.544 286.128L194.887 285.351C194.734 282.906 194.877 278.864 194.878 276.306L194.882 238.612C194.874 235.486 194.725 231.234 194.887 228.193C195.353 228.392 212.334 228.282 213.794 228.193C213.912 226.034 213.899 224.664 213.794 222.497C217.075 222.493 227.977 222.019 230.4 222.497C230.146 217.087 230.392 210.152 230.393 204.571L230.4 168.756Z"/><path fill="#5F686D" transform="scale(2 2)" d="M213.794 222.497C217.075 222.493 227.977 222.019 230.4 222.497C237.555 223.238 247.55 222.492 254.984 222.497L254.984 248.994C256.675 249.167 259.434 248.834 256.591 249.736L256.467 250.164L257.302 251.572L256.599 251.724L256.505 252.057L256.505 265.22C258.534 265.503 264.171 263.95 263.318 267.28C261.577 267.14 258.475 266.799 256.843 266.919L256.505 267.28C256.181 269.98 257.449 281.174 255.87 282.28L255.36 282.139C254.642 281.143 255.135 269.818 255.001 267.533L254.984 267.28C254.781 269.622 254.816 279.488 254.984 281.832C252.476 281.904 250.395 281.945 247.871 281.832C248.755 282.574 248.842 285.156 248.823 286.337C245.219 286.168 240.106 286.328 236.323 286.327L212.092 286.337C207.706 286.845 201.317 286.244 196.527 286.337C196.059 286.12 196.052 286.147 195.544 286.128L194.887 285.351C194.734 282.906 194.877 278.864 194.878 276.306L194.882 238.612C194.874 235.486 194.725 231.234 194.887 228.193C195.353 228.392 212.334 228.282 213.794 228.193C213.912 226.034 213.899 224.664 213.794 222.497Z"/><path fill="#717B7F" transform="scale(2 2)" d="M214.419 281.832L214.391 267.261C214.388 262.424 213.699 255.403 217.27 251.671C223.105 245.573 233.576 248.695 235.175 257.033C235.765 260.109 235.427 263.262 235.424 266.392L235.437 282.518C238.965 282.761 241.423 282.854 244.931 282.518L244.92 267.023C244.919 258.659 243.783 249.531 254.984 248.994C256.675 249.167 259.434 248.834 256.591 249.736L256.467 250.164L257.302 251.572L256.599 251.724L256.505 252.057L256.505 265.22C258.534 265.503 264.171 263.95 263.318 267.28C261.577 267.14 258.475 266.799 256.843 266.919L256.505 267.28C256.181 269.98 257.449 281.174 255.87 282.28L255.36 282.139C254.642 281.143 255.135 269.818 255.001 267.533L254.984 267.28C254.781 269.622 254.816 279.488 254.984 281.832C252.476 281.904 250.395 281.945 247.871 281.832C248.755 282.574 248.842 285.156 248.823 286.337C245.219 286.168 240.106 286.328 236.323 286.327L212.092 286.337C211.536 283.354 211.376 282.698 214.419 281.832Z"/><path fill="#1F252D" transform="scale(2 2)" d="M247.871 267.28C250.665 267.063 252.202 267.061 254.984 267.28C254.781 269.622 254.816 279.488 254.984 281.832C252.476 281.904 250.395 281.945 247.871 281.832C247.599 281.138 247.863 269.207 247.871 267.28Z"/><path fill="#1F252D" transform="scale(2 2)" d="M225.63 267.28L232.262 267.28L232.262 281.832L225.63 281.832L225.63 267.28Z"/><path fill="#1F252D" transform="scale(2 2)" d="M217.289 267.28C219.405 267.187 221.764 267.26 223.9 267.28L223.9 281.832L217.289 281.832L217.289 267.28Z"/><path fill="#1F252D" transform="scale(2 2)" d="M252.979 252.057C257.022 251.61 255.001 261.028 254.984 265.22C253.563 265.161 251.755 265.217 250.303 265.22L247.871 265.22C247.745 259.343 246.79 254.994 252.979 252.057Z"/><path fill="#1F252D" transform="scale(2 2)" d="M225.63 252.057C232.87 252.946 232.437 259.709 232.262 265.22C230.075 265.263 227.823 265.227 225.63 265.22C225.649 260.884 225.472 256.368 225.63 252.057Z"/><path fill="#1F252D" transform="scale(2 2)" d="M223.9 252.057C224.048 256.055 223.899 261.136 223.9 265.22C221.817 265.323 219.398 265.241 217.289 265.22C215.527 260.862 217.331 252.995 223.9 252.057Z"/><path fill="#3A4249" transform="scale(2 2)" d="M251.913 168.756C255.05 168.756 279.644 168.535 280.615 169.065L280.729 169.443L280.729 171.95C280.394 175.417 280.737 184.607 280.736 188.637L280.729 222.497L254.984 222.497C255.221 217.761 255.438 214.667 254.984 209.939L242.211 209.939C242.31 207.741 242.592 200.268 243.749 198.844L243.749 198.844C244.112 194.814 244.623 189.783 246.06 186.088L244.931 185.175C246.339 182.551 248.229 179.844 250.303 177.705L250.238 177.291C251.518 175.111 259.545 170.13 252.129 168.797L251.913 168.756Z"/><path fill="#A4302F" transform="scale(2 2)" d="M254.984 177.705L256.505 177.705C268.069 180.939 265.619 198.313 268.189 207.692L256.505 207.692L254.984 207.692L254.984 177.705Z"/><path fill="#3F181A" transform="scale(2 2)" d="M254.984 177.705L256.505 177.705C256.342 187.576 256.512 197.781 256.505 207.692L254.984 207.692L254.984 177.705Z"/><path fill="#D13D3D" transform="scale(2 2)" d="M246.06 186.088C247.688 181.587 249.608 177.648 254.984 177.705L254.984 207.692L243.749 207.692L243.749 198.844C244.112 194.814 244.623 189.783 246.06 186.088Z"/><defs><linearGradient id="gradient_0" gradientUnits="userSpaceOnUse" x1="267.4335" y1="181.71638" x2="246.26031" y2="211.88876"><stop offset="0" stop-color="#162128"/><stop offset="1" stop-color="#203B47"/></linearGradient></defs><path fill="url(#gradient_0)" transform="scale(2 2)" d="M250.303 177.705C251.177 176.77 254.022 173.196 255.324 173.596C269.394 177.918 267.851 198.916 268.858 209.939L254.984 209.939L242.211 209.939C242.31 207.741 242.592 200.268 243.749 198.844L243.749 198.844L243.749 207.692L254.984 207.692L256.505 207.692L268.189 207.692C265.619 198.313 268.069 180.939 256.505 177.705L254.984 177.705C249.608 177.648 247.688 181.587 246.06 186.088L244.931 185.175C246.339 182.551 248.229 179.844 250.303 177.705Z"/><path fill="#5F686D" transform="scale(2 2)" d="M275.45 286.337C279.631 274.525 272.706 256.759 280.938 250.351C287.098 245.555 298.304 250.231 297.991 258.006C297.635 266.83 298.827 277.688 298.075 286.337L275.45 286.337Z"/><path fill="#1F252D" transform="scale(2 2)" d="M286.724 254.012C286.758 251.916 287.624 250.096 288.006 253.152C288.603 250.101 291.291 252.463 292.848 253.786C296.181 256.62 295.567 261.261 295.471 265.22C293.718 265.208 289.565 265.061 288.006 265.22C286.451 265.8 286.763 263.951 286.724 262.92C286.533 266.644 282.863 265.26 279.536 265.22C279.462 260.538 278.805 256.041 282.752 253.019C285.425 250.973 286.319 250.487 286.724 254.012Z"/><path fill="#1F252D" transform="scale(2 2)" d="M279.536 265.22C279.462 260.538 278.805 256.041 282.752 253.019C285.425 250.973 286.319 250.487 286.724 254.012L286.724 262.92C286.533 266.644 282.863 265.26 279.536 265.22Z"/><path fill="#9C9999" transform="scale(2 2)" d="M286.724 254.012C286.758 251.916 287.624 250.096 288.006 253.152L288.006 265.22C286.451 265.8 286.763 263.951 286.724 262.92L286.724 254.012Z"/><path fill="#1F252D" transform="scale(2 2)" d="M286.724 268.643C286.861 267.611 286.629 267.927 287.166 267.273L288.006 267.28L288.006 268.643C287.777 270.041 288.696 282.788 286.724 281.832C286.596 281.874 280.318 281.798 279.536 281.832C279.46 277.081 279.535 272.049 279.536 267.28C281.508 267.421 286.059 266.441 286.724 268.643Z"/><path fill="#9C9999" transform="scale(2 2)" d="M286.724 268.643C286.861 267.611 286.629 267.927 287.166 267.273L288.006 267.28L288.006 268.643C287.777 270.041 288.696 282.788 286.724 281.832C286.633 277.553 286.722 272.949 286.724 268.643Z"/><path fill="#1F252D" transform="scale(2 2)" d="M288.006 267.28C290.988 267.651 292.466 267.581 295.471 267.28L295.471 281.832C292.754 281.731 290.706 281.742 288.006 281.832C288.025 277.504 288.116 272.954 288.006 268.643L288.006 267.28Z"/><path fill="#3A4249" transform="scale(2 2)" d="M248.823 286.337L275.45 286.337L298.075 286.337C301.94 287.936 313.511 286.622 317.745 287.114L317.745 289.212C304.952 289.47 290.877 288.433 278.322 289.212C270.927 288.12 257.054 289.537 248.823 289.212C248.766 288.316 248.81 287.247 248.823 286.337Z"/><path fill="#1F252D" transform="scale(2 2)" d="M256.505 267.28L256.843 266.919C258.475 266.799 261.577 267.14 263.318 267.28C263.008 270.816 263.328 277.972 263.318 281.832C261.051 281.858 258.768 281.908 256.505 281.832C256.512 277.914 256.843 270.847 256.505 267.28Z"/><path fill="#1F252D" transform="scale(2 2)" d="M256.505 252.057C262.654 249.908 263.288 261.935 263.318 265.22C261.366 265.162 258.354 264.997 256.505 265.22L256.505 252.057Z"/><path fill="#010101" transform="scale(2 2)" d="M244.931 185.175L246.06 186.088C244.623 189.783 244.112 194.814 243.749 198.844L243.749 198.844C243.472 192.86 244.238 190.917 244.931 185.175Z"/><path fill="#464F53" transform="scale(2 2)" d="M317.745 309.295C320.301 308.992 321.509 309.074 324.064 309.295L324.064 320.834C339.478 320.714 355.433 320.199 370.738 320.252C370.722 324.09 370.58 328.221 371.312 331.978C371.306 336.274 371.02 345.022 371.312 348.965L371.312 349.902C371.158 354.857 370.598 366.6 371.312 371.261L371.312 371.261C370.516 383.882 371.167 399.319 371.312 412.11C371.365 415.9 371.329 419.709 371.312 423.5C371.324 426.554 371.584 433.991 371.312 436.825C369.266 436.818 359.894 436.591 358.413 436.825C351.351 437.017 343.126 436.892 336.024 436.825C334.645 436.605 330.774 436.776 329.215 436.793L317.745 436.825L317.745 309.295Z"/><path fill="#5F686D" transform="scale(2 2)" d="M345.956 343.821C360.826 344.028 359.98 351.745 359.939 363.927L359.971 377.967L352.062 377.967L337.419 377.967C336.886 367.13 334.299 347.383 345.956 343.821Z"/><path fill="#1F252D" transform="scale(2 2)" d="M340.751 359.452C340.86 357.405 340.791 355.277 340.862 353.227C341.059 346.438 356.411 338.407 357.258 359.452L349.953 359.452C349.929 355.664 350.205 350.352 349.953 346.731C347.119 346.713 347.922 349.219 347.878 351.423C347.725 352.932 347.868 357.613 347.878 359.452C345.543 359.492 343.096 359.453 340.751 359.452Z"/><path fill="#1F252D" transform="scale(2 2)" d="M349.953 361.958C352.432 361.894 354.784 361.922 357.258 361.958L357.258 374.982L349.953 374.982L349.953 361.958Z"/><path fill="#1F252D" transform="scale(2 2)" d="M340.751 361.958L347.878 361.958C347.787 366.183 347.876 370.73 347.878 374.982C345.541 374.937 343.097 374.978 340.751 374.982L340.751 361.958Z"/><path fill="#717B7F" transform="scale(2 2)" d="M347.878 351.423C347.922 349.219 347.119 346.713 349.953 346.731C349.69 348.779 351.208 359.892 348.235 359.556C347.948 358.29 348.08 353.357 347.878 351.423Z"/><path fill="#1F252D" transform="scale(2 2)" d="M256.505 355.336C263.597 358.526 278.088 373.411 281.839 381.094C282.497 382.442 282.244 392.787 282.239 395.065L282.224 422.718C282.22 426.882 281.974 432.887 282.23 436.825L228.935 436.825C228.619 434.194 228.927 426.021 228.933 422.866L228.933 403.064C228.92 390.935 228.347 379.325 236.761 369.532C240.572 365.096 251.063 357.242 256.505 355.336Z"/><path fill="#3A4249" transform="scale(2 2)" d="M254.195 343.821C256.015 343.479 256.866 343.38 258.661 343.821C258.71 343.873 258.759 343.925 258.808 343.978C271.259 353.811 284.487 365.521 291.541 379.975C292.403 381.742 292.018 394.553 292.018 397.585L292.014 423.5C292.224 425.831 292.268 427.428 292.014 429.783C291.996 432.14 291.986 434.467 292.014 436.825L282.23 436.825C281.974 432.887 282.22 426.882 282.224 422.718L282.239 395.065C282.244 392.787 282.497 382.442 281.839 381.094C278.088 373.411 263.597 358.526 256.505 355.336C251.063 357.242 240.572 365.096 236.761 369.532C228.347 379.325 228.92 390.935 228.933 403.064L228.933 422.866C228.927 426.021 228.619 434.194 228.935 436.825C226.568 436.687 224.086 436.573 221.733 436.825L218.527 436.825L218.518 406.056C218.515 385.692 217.747 368.142 237.46 354.949C242.223 351.762 250.226 347.585 254.195 343.821Z"/><path fill="#3A4249" transform="scale(2 2)" d="M87.7342 236.933C89.5686 223.729 99.3948 208.138 103.833 195.338C104.359 193.821 107.163 188.587 107.254 187.539C107.904 180.035 107.359 172.189 107.438 164.627C107.485 160.195 105.93 157.582 110.207 157.263C110.206 158.98 109.899 168.961 110.207 169.984C110.316 175.205 109.924 181.813 110.503 186.849C110.939 190.633 121.928 215.493 123.849 220.149C125.957 225.259 129.633 231.789 131.069 236.933L131.048 236.984C130.521 237.335 124.517 236.987 123.628 236.933C123.761 234.127 123.503 231.178 123.628 228.193C121.035 228.111 118.184 228.27 115.805 228.193C115.389 227.825 106.954 228.16 105.761 228.193C102.553 228.088 98.0534 228.085 94.7902 228.193C94.2029 232.23 94.2194 232.9 94.7902 236.933C92.059 236.864 83.2715 237.535 81.9033 236.933C83.8088 236.72 85.8102 236.858 87.7342 236.933Z"/><path fill="#464F53" transform="scale(2 2)" d="M248.823 289.212C257.054 289.537 270.927 288.12 278.322 289.212C277.229 289.262 276.532 289.31 275.45 289.212C275.451 295.7 275.541 302.54 275.336 308.995C276.134 309.226 276.251 309.224 277.047 309.295C274.287 309.512 271.617 309.458 268.858 309.295C268.867 310.922 269.042 319.187 268.858 320.252C268.644 318.366 268.845 311.466 268.858 309.295L265.667 309.295C261.145 310.67 256.671 307.245 256.505 311.268C256.346 308.764 255.175 309.177 252.979 309.295L252.979 320.252L244.931 320.252L244.931 309.295L248.823 309.295C248.916 302.64 248.842 295.877 248.823 289.212L248.823 289.212Z"/><path fill="#717B7F" transform="scale(2 2)" d="M74.7091 261.762C79.6439 261.267 90.8116 261.404 95.7028 261.762C95.4118 265.401 95.4046 267.064 95.7028 270.675C88.9004 270.67 81.4554 270.507 74.7091 270.675L74.7091 320.252C79.2936 319.889 90.0504 319.981 94.7902 320.252C95.0262 323.966 95.0278 326.753 94.7902 330.5C90.4234 330.661 77.6578 329.864 74.7091 331.308L74.7091 261.762Z"/><path fill="#717B7F" transform="scale(2 2)" d="M388 296.984L401.288 296.959C419.112 296.948 408.687 300.707 413.304 305.207C409.979 304.248 413.677 298.626 410.695 297.845C405.312 296.434 393.339 296.968 388 296.984C387.977 298.657 387.789 302.821 388.18 304.147C393.051 305.764 396.168 302.234 393.422 306.819C390.926 310.987 393.459 329.236 391.801 331.631C388.427 332.185 375.37 331.985 371.312 331.978C371.378 328.088 371.33 324.147 371.312 320.252C378.064 320.265 385.36 320.417 392.067 320.252C392.03 314.871 391.09 308.612 394.763 304.72C392.636 304.727 390.093 304.803 388 304.72C387.593 301.201 387.5 300.409 388 296.984Z"/><path fill="#717B7F" transform="scale(2 2)" d="M371.312 412.11C372.174 411.627 391.148 412.113 393.092 412.11L393.092 423.5C386.478 423.494 377.741 423.212 371.312 423.5C371.329 419.709 371.365 415.9 371.312 412.11Z"/><path fill="#717B7F" transform="scale(2 2)" d="M74.7091 413.509C81.4918 413.713 88.8458 413.49 95.7028 413.509C95.7167 416.836 95.8745 421.396 95.7028 424.623C89.6504 424.844 80.0492 423.788 74.7091 424.623L74.7091 413.509Z"/><path fill="#717B7F" transform="scale(2 2)" d="M370.738 261.762L392.067 261.762L392.067 272.03C385.439 272.024 377.228 271.777 370.738 272.03L370.738 261.762Z"/><path fill="#717B7F" transform="scale(2 2)" d="M370.738 272.03C371.014 274.523 370.714 280.611 370.738 283.419C374.465 283.134 379.713 283.451 383.618 283.419C383.651 287.631 383.453 292.152 383.618 296.279C379.108 296.269 375.75 296.089 371.312 296.984C371.237 295.996 371.19 293.577 370.738 292.864C370.624 288.667 370.076 275.892 370.738 272.03Z"/><path fill="#464F53" transform="scale(2 2)" d="M212.092 286.337L236.323 286.327C240.106 286.328 245.219 286.168 248.823 286.337C248.81 287.247 248.766 288.316 248.823 289.212L248.823 289.212C247.607 288.914 241.009 289.197 239.269 289.199L202.963 289.242C202.188 289.24 190.744 289.814 196.527 286.337C201.317 286.244 207.706 286.845 212.092 286.337Z"/><path fill="#717B7F" transform="scale(2 2)" d="M74.7091 345.389C75.5076 348.056 86.4077 346.708 89.4148 346.731L89.4148 356.831C86.6744 356.769 76.7632 356.352 75.01 357.336L74.7091 357.965C74.5061 356.172 74.6723 347.432 74.7091 345.389Z"/><path fill="#717B7F" transform="scale(2 2)" d="M371.312 348.965C375.991 348.886 380.766 348.949 385.452 348.965L385.452 356.831C380.727 356.893 376.035 356.861 371.312 356.831C371.401 354.508 371.554 352.215 371.312 349.902L371.312 348.965Z"/><path fill="#EF1517" transform="scale(2 2)" d="M258.661 331.308C260.2 332.169 262.59 333.574 263.998 334.591C259.796 339.543 264.694 344.277 258.661 343.821C256.866 343.38 256.015 343.479 254.195 343.821L251.913 343.821C252.105 342.262 252.559 340.86 254.195 340.406L253.862 340.33C253.497 339.911 253.354 337.239 252.979 335.915C254.685 334.602 255.449 332.442 256.505 331.978C257.131 331.46 257.834 331.448 258.661 331.308Z"/><path fill="#E67466" transform="scale(2 2)" d="M252.979 335.915C254.685 334.602 255.449 332.442 256.505 331.978C257.7 333.605 258.352 334.631 259.885 335.915C259.046 337.656 258.857 338.626 259.885 340.406C257.894 340.312 256.18 340.169 254.195 340.406L253.862 340.33C253.497 339.911 253.354 337.239 252.979 335.915Z"/><path fill="#3A4249" transform="scale(2 2)" d="M256.505 311.268C256.671 307.245 261.145 310.67 265.667 309.295L265.667 320.252C262.6 320.28 259.572 320.312 256.505 320.252C256.5 317.405 256.411 314.078 256.505 311.268Z"/><path fill="#D13D3D" transform="scale(2 2)" d="M105.761 228.193C106.954 228.16 115.389 227.825 115.805 228.193C116.139 232.003 116.172 233.082 115.805 236.933C112.115 237.171 109.391 237.119 105.761 236.933L105.761 228.193Z"/><path fill="#3A4249" transform="scale(2 2)" d="M277.047 309.295C277.705 311.165 277.27 318.208 277.047 320.252C274.45 320.276 271.421 320.378 268.858 320.252C269.042 319.187 268.867 310.922 268.858 309.295C271.617 309.458 274.287 309.512 277.047 309.295Z"/><path fill="#D13D3D" transform="scale(2 2)" d="M71.7514 227.74L81.9033 227.74C81.9088 230.787 81.9437 233.892 81.9033 236.933C79.179 236.443 74.5984 236.777 71.7514 236.933C71.6618 234.025 71.7458 230.681 71.7514 227.74Z"/><path fill="#717B7F" transform="scale(2 2)" d="M292.014 423.5C293.026 423.284 304.17 423.366 305.82 423.5C305.802 425.331 305.694 428.019 305.82 429.783C301.516 429.791 296.234 429.951 292.014 429.783C292.268 427.428 292.224 425.831 292.014 423.5Z"/><path fill="#D13D3D" transform="scale(2 2)" d="M133.249 228.193C136.358 228.17 139.516 228.112 142.62 228.193C142.478 231.063 142.577 234.053 142.62 236.933C139.563 236.96 136.284 237.048 133.249 236.933L133.249 228.193Z"/><path fill="#717B7F" transform="scale(2 2)" d="M74.7091 391.92L84.0427 391.92L84.0427 400.195C81.521 400.167 76.6449 399.754 74.7091 401.03C74.6753 398.013 74.7068 394.942 74.7091 391.92Z"/><path fill="#717B7F" transform="scale(2 2)" d="M74.7091 364.978L84.0427 364.978C83.8539 367.77 83.7939 369.21 84.0427 371.978C79.7353 372.533 78.998 372.523 74.7091 371.978C74.7926 369.782 74.7184 367.203 74.7091 364.978Z"/><path fill="#D13D3D" transform="scale(2 2)" d="M248.823 334.591C251.318 332.834 255.977 329.261 258.661 331.308C257.834 331.448 257.131 331.46 256.505 331.978C255.449 332.442 254.685 334.602 252.979 335.915C253.354 337.239 253.497 339.911 253.862 340.33L254.195 340.406C252.559 340.86 252.105 342.262 251.913 343.821L251.084 343.784C250.211 343.249 250.286 337.531 248.823 334.591Z"/><path fill="#717B7F" transform="scale(2 2)" d="M371.312 364.978C373.062 365.004 374.803 365.051 376.552 364.978L376.552 371.261C374.845 371.262 373.008 371.299 371.312 371.261L371.312 371.261C371.463 368.966 371.399 367.259 371.312 364.978Z"/><path fill="#5F686D" transform="scale(2 2)" d="M94.7902 296.984C101.119 296.424 109.858 297 116.574 296.984L125.795 296.984C125.822 298.818 126.769 305.029 124.991 305.207C123.263 305.483 120.772 305.285 118.957 305.207C120.913 309.853 120.484 315.737 120.451 320.834C123.687 320.983 125.674 320.872 128.823 320.834C129.453 321.83 129.305 327.056 129.294 328.583C128.236 328.656 125.962 328.814 124.991 328.583C123.442 328.74 122.524 328.668 120.992 328.583C120.699 334.26 122.485 338.586 122.373 341.358C121.293 342.255 109.317 341.48 106.743 341.766L94.7902 341.766C92.8499 340.428 95.8846 337.64 96.6984 336.468C96.9465 329.063 94.8917 310.246 98.4937 305.207L94.7902 305.207C94.7437 302.441 94.6749 299.751 94.7902 296.984Z"/><path fill="#717B7F" transform="scale(2 2)" d="M116.574 296.984L125.795 296.984C125.822 298.818 126.769 305.029 124.991 305.207C123.327 305.004 120.707 305.159 118.957 305.207C116.469 302.443 110.841 297.878 116.574 296.984Z"/><path fill="#717B7F" transform="scale(2 2)" d="M128.823 320.834C129.453 321.83 129.305 327.056 129.294 328.583C128.236 328.656 125.962 328.814 124.991 328.583C123.549 328.461 121.913 328.549 120.451 328.583C120.317 325.956 120.304 323.465 120.451 320.834C123.364 321.327 125.902 321.602 128.823 320.834Z"/><path fill="#1F252D" transform="scale(2 2)" d="M108.871 305.839C117.193 306.583 115.828 315.358 115.826 321.369L115.805 338.088C113.474 338.173 111.2 338.123 108.871 338.088C106.311 338.152 104.037 338.142 101.488 338.088L101.466 321.357C101.459 313.911 99.6634 307.378 108.871 305.839Z"/><path fill="#5F686D" transform="scale(2 2)" d="M162.501 338.088C174.638 338.959 175.194 348.628 175.187 357.952L175.174 377.258C178.048 377.836 177.455 378.938 176.967 381.529C174.855 381.846 166.812 381.66 164.251 381.651C161.805 381.662 151 381.91 149.266 381.339C149.265 379.56 150.439 377.82 150.59 375.976C151.736 361.966 144.901 342.283 162.501 338.088Z"/><path fill="#1F252D" transform="scale(2 2)" d="M154.67 361.958L162.501 361.958L162.501 377.258L154.67 377.258C154.78 372.356 154.673 366.898 154.67 361.958Z"/><path fill="#1F252D" transform="scale(2 2)" d="M164.251 361.958C166.763 362.208 169.422 362.043 171.955 361.958L171.955 377.258C170.751 377.401 165.72 377.271 164.251 377.258L164.251 361.958Z"/><path fill="#1F252D" transform="scale(2 2)" d="M164.251 344.753C173.417 345.313 172.028 353.477 171.955 360.218L164.251 360.218C164.267 355.124 164.103 349.819 164.251 344.753Z"/><path fill="#1F252D" transform="scale(2 2)" d="M161.696 344.753L162.149 344.817C162.754 345.804 162.506 358.213 162.501 360.218C160.294 360.145 157.678 360.216 155.438 360.218L154.884 360.145C152.223 355.013 155.379 346.991 161.696 344.753Z"/><path fill="#1F252D" transform="scale(2 2)" d="M403.246 305.207L403.516 305.201C413.484 305.082 412.306 314.493 412.246 321.126L412.239 338.088L405.564 338.088L395.751 338.088L395.732 321.893C395.665 314.597 394.087 307.52 403.246 305.207Z"/><path fill="#717B7F" transform="scale(2 2)" d="M382.328 373.221L404.801 373.221C404.341 376.484 405.812 384.798 403.246 385.499C395.594 385.607 387.688 385.501 380.015 385.499C380.168 380.599 377.912 373.493 382.328 373.221Z"/><path fill="#717B7F" transform="scale(2 2)" d="M398.486 394.716C405.665 394.806 413.038 394.717 420.234 394.716C420.451 398.473 420.25 404.067 420.234 407.961C418.643 407.765 414.796 407.928 413.003 407.937L398.486 407.961L398.486 394.716Z"/><path fill="#717B7F" transform="scale(2 2)" d="M86.6998 373.221L107.5 373.221C107.428 377.072 108.016 382.017 107.5 385.499C100.964 385.706 93.3231 385.505 86.6998 385.499L86.6998 373.221Z"/><path fill="#717B7F" transform="scale(2 2)" d="M102.421 396.01L121.524 396.01L121.524 407.961L102.421 407.961C102.433 403.959 102.307 400.023 102.421 396.01Z"/><path fill="#717B7F" transform="scale(2 2)" d="M414.948 371.978L429.54 371.978L429.54 383.522C424.694 383.492 419.772 383.735 414.948 383.522C414.948 379.662 414.851 375.845 414.948 371.978Z"/><path fill="#717B7F" transform="scale(2 2)" d="M124.991 345.389L138.016 345.389C141.517 345.762 140.035 353.094 139.65 353.817C137.391 354.838 131.373 354.174 128.823 353.58L124.991 353.58L124.991 345.389Z"/><path fill="#5F686D" transform="scale(2 2)" d="M138.016 345.389C141.517 345.762 140.035 353.094 139.65 353.817C137.391 354.838 131.373 354.174 128.823 353.58C133.066 353.634 132.904 354.207 138.016 353.58C137.985 350.868 138.013 348.105 138.016 345.389Z"/><path fill="#717B7F" transform="scale(2 2)" d="M200.928 417.929L216.259 417.929C216.314 420.483 216.462 423.551 216.259 426.055C211.965 425.85 205.377 426.048 200.928 426.055L200.928 417.929Z"/><path fill="#717B7F" transform="scale(2 2)" d="M295.471 331.308C300.487 331.3 306.667 331.539 311.556 331.308L311.556 339.053C311.256 339.237 297.138 339.054 295.471 339.053C296.005 335.495 295.975 334.929 295.471 331.308Z"/><path fill="#717B7F" transform="scale(2 2)" d="M118.957 373.221L130.596 373.221C130.725 376.627 130.637 380.108 130.596 383.522L118.957 383.522L118.957 373.221Z"/><path fill="#717B7F" transform="scale(2 2)" d="M300.029 363.074L311.556 363.074L311.556 370.515L308.058 370.515L296.759 370.515C297.186 367.244 297.086 366.391 296.759 363.074L300.029 363.074Z"/><path fill="#717B7F" transform="scale(2 2)" d="M208.105 391.92C210.638 391.805 213.688 391.903 216.259 391.92C215.862 394.867 215.865 395.822 216.259 398.772L209.875 398.772C206.891 398.791 203.911 398.824 200.928 398.772L200.928 391.92C203.305 391.891 205.725 391.918 208.105 391.92Z"/><path fill="#3A4249" transform="scale(2 2)" d="M208.105 309.295L217.289 309.295L217.289 320.252L208.105 320.252L208.105 309.295Z"/><path fill="#717B7F" transform="scale(2 2)" d="M420.234 413.509C424.871 413.013 427.865 413.183 432.462 413.509C432.342 416.035 432.429 418.733 432.462 421.275L420.234 421.275C419.967 418.11 419.987 416.712 420.234 413.509Z"/><path fill="#717B7F" transform="scale(2 2)" d="M201.517 367.017C205.858 367.278 208.867 367.45 213.252 367.017C213.229 369.277 213.252 371.575 213.252 373.839L209.875 373.839L198.207 373.839L198.207 367.017L201.517 367.017Z"/><path fill="#464F53" transform="scale(2 2)" d="M288.006 309.295C291.473 309.166 289.822 316.58 289.792 320.252C287.637 320.172 285.295 320.236 283.125 320.252C278.811 320.328 280.717 313.956 280.729 309.295C283.44 309.404 285.311 309.395 288.006 309.295Z"/><path fill="#464F53" transform="scale(2 2)" d="M232.262 309.295L241.235 309.295L241.235 320.252C238.241 320.185 235.256 320.227 232.262 320.252L232.262 309.295Z"/><path fill="#717B7F" transform="scale(2 2)" d="M118.957 275.749C122.34 275.688 125.896 275.747 129.294 275.749C129.477 277.523 130.108 282.473 129.543 283.876L128.823 284.004L117.761 284.004C117.783 281.302 116.47 276.296 118.957 275.749Z"/><path fill="#3A4249" transform="scale(2 2)" d="M310.245 309.295L314.137 309.295C313.953 312.653 314.094 316.831 314.137 320.252C312.534 320.099 310.786 320.128 309.181 320.252L305.034 320.252L305.034 309.295C306.807 309.382 308.472 309.333 310.245 309.295Z"/><path fill="#3A4249" transform="scale(2 2)" d="M293.167 309.295C296.208 309.359 298.953 309.412 301.995 309.295L301.995 320.252C299.051 320.315 296.111 320.275 293.167 320.252C293.123 316.63 293.165 312.925 293.167 309.295Z"/><path fill="#464F53" transform="scale(2 2)" d="M220.285 309.295C223.148 309.507 226.061 309.368 228.935 309.295L228.935 320.252C225.939 320.321 223.279 320.339 220.285 320.252C220.307 317.808 220.023 311.312 220.285 309.295Z"/><path fill="#3A4249" transform="scale(2 2)" d="M196.527 309.295L204.934 309.295L204.934 320.252L196.527 320.252L196.527 309.295Z"/><path fill="#717B7F" transform="scale(2 2)" d="M296.759 381.651C298.01 381.294 305.921 381.656 308.058 381.651C308.019 383.689 309.242 387.515 306.563 387.816C302.557 387.791 298.719 387.932 294.682 387.816C294.703 385.41 293.397 381.531 296.759 381.651Z"/><path fill="#717B7F" transform="scale(2 2)" d="M97.4001 275.749C99.8677 275.98 106.232 275.766 108.871 275.749C108.815 278.23 108.867 280.92 108.871 283.419C106.003 283.683 100.511 283.439 97.4001 283.419C97.3492 280.799 97.3011 278.376 97.4001 275.749Z"/><path fill="#717B7F" transform="scale(2 2)" d="M308.058 407.961C310.95 408.12 313.457 408.038 316.347 407.961L316.347 414.567L311.556 414.567L303.185 414.567C303.064 412.046 302.984 410.461 303.185 407.961C304.641 408.023 306.566 407.963 308.058 407.961Z"/><path fill="#717B7F" transform="scale(2 2)" d="M423.01 343.821L433.08 343.821C433.122 346.611 433.086 349.479 433.08 352.276L423.01 352.276L423.01 343.821Z"/><path fill="#717B7F" transform="scale(2 2)" d="M418.237 275.005L429.54 275.005C429.452 277.547 429.499 279.979 429.54 282.518L418.237 282.518L418.237 275.005Z"/><path fill="#717B7F" transform="scale(2 2)" d="M199.272 335.915L212.092 335.915L212.092 342.468L199.272 342.468C199.033 339.901 198.928 338.455 199.272 335.915Z"/><path fill="#717B7F" transform="scale(2 2)" d="M395.751 275.749L408.237 275.749L408.237 282.518L395.751 282.518C396.206 279.551 396.104 278.715 395.751 275.749Z"/><path fill="#717B7F" transform="scale(2 2)" d="M294.682 322.25C297.331 322.051 302.213 322.237 305.034 322.25C305.099 324.38 305.063 326.456 305.034 328.583L301.995 328.583L292.014 328.583C292.409 326.376 292.173 324.475 292.014 322.25L294.682 322.25Z"/><path fill="#464F53" transform="scale(2 2)" d="M413.304 342.468C414.666 342.386 416.815 342.462 418.237 342.468L418.237 345.389C410.829 345.401 403.108 345.23 395.751 345.389L391.137 345.389C390.896 344.268 390.784 343.966 390.843 342.846C391.56 342.206 410.917 342.482 413.304 342.468Z"/><path fill="#717B7F" transform="scale(2 2)" d="M286.724 347.483L298.823 347.483L298.823 353.58L286.724 353.58C286.44 351.105 286.366 349.926 286.724 347.483Z"/><path fill="#717B7F" transform="scale(2 2)" d="M418.237 297.566C421.091 297.476 424.374 297.557 427.261 297.566C427.23 298.931 427.572 304.6 427.261 305.207C424.254 305.228 421.243 305.269 418.237 305.207C417.788 303.355 416.928 298.991 418.237 297.566Z"/><path fill="#717B7F" transform="scale(2 2)" d="M131.069 309.295C132.993 309.104 134.97 309.202 136.895 309.295L136.895 316.903L133.249 316.903L127.723 316.903C127.548 314.009 127.604 312.172 127.723 309.295L131.069 309.295Z"/><path fill="#717B7F" transform="scale(2 2)" d="M416.975 358.72L426.012 358.72L426.012 366.098C422.964 366.148 420.024 366.137 416.975 366.098L416.975 358.72Z"/><path fill="#717B7F" transform="scale(2 2)" d="M122.515 412.11C126.129 412.484 127.386 412.431 131.069 412.11C131.205 415.05 131.184 417.096 131.069 420.026C128.969 420.17 124.765 420.031 122.515 420.026L122.515 412.11Z"/><path fill="#717B7F" transform="scale(2 2)" d="M120.992 358.72L128.823 358.72C128.884 361.397 128.827 364.321 128.823 367.017C126.221 366.912 123.597 366.98 120.992 367.017L120.992 358.72Z"/><path fill="#717B7F" transform="scale(2 2)" d="M217.289 348.965L227.024 348.965C227.071 351.172 227.097 353.131 227.024 355.336C224.015 355.448 220.348 355.343 217.289 355.336C216.995 352.88 217.059 351.398 217.289 348.965Z"/><path fill="#3A4249" transform="scale(2 2)" d="M94.7902 341.766L106.743 341.766C109.695 342.199 119.913 341.116 121.687 342.488L121.671 343.212C120.511 344.036 97.0886 344.12 95.1356 343.534C94.7188 342.959 94.8024 342.49 94.7902 341.766Z"/><path fill="#717B7F" transform="scale(2 2)" d="M427.261 307.965C429.665 307.887 431.611 307.874 434.012 307.965C434.235 310.778 434.241 312.451 434.012 315.247C432.438 315.382 428.977 315.256 427.261 315.247L427.261 307.965Z"/><path fill="#717B7F" transform="scale(2 2)" d="M418.541 322.25C420.127 322.1 421.423 322.184 423.01 322.25C423.037 323.672 423.452 327.733 422.517 328.67L421.551 328.583C420.083 328.823 418.443 328.818 416.975 328.583C416.805 326.87 416.087 323.581 417.236 322.266L418.541 322.25Z"/><path fill="#717B7F" transform="scale(2 2)" d="M193.553 404.432L200.928 404.432C200.8 406.043 200.901 408.365 200.928 410.038C198.478 410.099 196.057 409.959 193.553 410.038C193.491 408.161 193.529 406.31 193.553 404.432Z"/><path fill="#717B7F" transform="scale(2 2)" d="M193.553 379.161L200.055 379.161L200.055 384.075L193.553 384.075L193.553 379.161Z"/><path fill="#3A4249" transform="scale(2 2)" d="M384.501 229.726C385.125 227.012 388.433 219.732 389.728 216.671L398.26 196.206C401.806 187.843 402.175 187.951 402.175 178.858L402.169 163.197C402.168 159.017 400.904 156.943 404.801 157.263C404.788 159.993 404.551 166.991 404.801 169.443C404.815 173.59 404.459 184.567 405.174 188.242C406.437 194.724 422.23 224.676 421.551 229.726C422.945 229.973 427.836 229.75 429.54 229.726L429.9 229.385C431.425 227.968 432.002 227.65 434.012 227.74L445.846 227.74L445.861 247.946C445.864 250.935 446.006 255.124 445.846 258.005L437.283 258.005L437.283 261.762L392.067 261.762L370.738 261.762L370.738 258.005C368.09 257.907 365.178 257.986 362.51 258.005C362.338 254.94 362.49 250.673 362.494 247.483L362.51 227.019C368.393 227.045 375.524 224.604 376.552 229.726C379.482 229.421 381.578 229.594 384.501 229.726Z"/><path fill="#D13D3D" transform="scale(2 2)" d="M429.54 229.726L429.9 229.385C431.425 227.968 432.002 227.65 434.012 227.74L434.012 236.933L421.551 236.933C421.473 235.525 420.999 230.676 421.551 229.726C422.945 229.973 427.836 229.75 429.54 229.726Z"/><path fill="#D13D3D" transform="scale(2 2)" d="M384.501 229.726C385.968 230.85 385.365 235.122 385.452 236.933L372.551 236.933L372.551 229.726L376.552 229.726C379.482 229.421 381.578 229.594 384.501 229.726Z"/><path fill="#A4302F" transform="scale(2 2)" d="M398.486 228.193C400.07 228.17 401.661 228.187 403.246 228.193L409.467 228.193L409.467 236.933C408.012 236.937 399.444 237.086 398.486 236.933C397.766 232.904 397.736 232.216 398.486 228.193Z"/><path fill="#D13D3D" transform="scale(2 2)" d="M398.486 228.193C400.07 228.17 401.661 228.187 403.246 228.193L403.246 236.933C401.627 236.866 400.092 236.738 398.486 236.933C397.766 232.904 397.736 232.216 398.486 228.193Z"/><defs><linearGradient id="gradient_1" gradientUnits="userSpaceOnUse" x1="293.90237" y1="153.78308" x2="224.52399" y2="142.26219"><stop offset="0" stop-color="#5D686D"/><stop offset="1" stop-color="#6F7D83"/></linearGradient></defs><path fill="url(#gradient_1)" transform="scale(2 2)" d="M254.984 83.1083C254.474 78.3151 253.251 75.1836 257.714 75.251C257.821 79.1085 257.713 82.9782 257.714 86.8375L257.714 120.624C257.996 124.311 264.803 132.016 267.206 135.159L281.063 153.153C284.427 157.528 289.657 165.292 293.167 168.756C291.662 168.863 281.088 169.035 280.898 169.097L280.729 169.443L280.615 169.065C279.644 168.535 255.05 168.756 251.913 168.756C247.473 168.653 234.494 168.113 230.4 168.756C227.114 168.964 221.9 168.777 218.527 168.756C227.569 161.266 246.684 131.202 254.984 120.624C254.788 116.97 254.971 111.381 254.97 107.596L254.984 83.1083Z"/><defs><linearGradient id="gradient_2" gradientUnits="userSpaceOnUse" x1="250.48776" y1="96.538948" x2="261.82999" y2="99.1688"><stop offset="0" stop-color="#46414B"/><stop offset="1" stop-color="#555954"/></linearGradient></defs><path fill="url(#gradient_2)" transform="scale(2 2)" d="M254.984 83.1083C254.474 78.3151 253.251 75.1836 257.714 75.251C257.821 79.1085 257.713 82.9782 257.714 86.8375L257.714 120.624L254.984 120.624L254.992 93.9727C254.995 91.8266 255.233 84.5959 254.984 83.1083Z"/><path fill="#3A4249" transform="scale(2 2)" d="M202.585 186.68C204.473 186.668 213.179 185.869 213.794 187.732C213.616 191.446 213.78 196.068 213.786 199.86L213.794 222.497C213.899 224.664 213.912 226.034 213.794 228.193C212.334 228.282 195.353 228.392 194.887 228.193C195.025 226.541 194.919 224.211 194.887 222.497C192.761 222.605 191.485 222.623 189.369 222.497C188.522 217.996 189.175 192.885 189.369 187.732C189.368 185.819 200.77 186.766 202.585 186.68Z"/><path fill="#464F53" transform="scale(2 2)" d="M189.369 187.732C189.69 189.117 189.474 190.556 189.369 191.998C192.516 191.997 198.455 191.835 201.391 192.409L201.732 192.781C201.661 193.311 201.67 193.387 201.517 193.894L202.585 193.894L202.585 209.939L201.517 209.939C201.695 213.034 201.787 214.995 201.517 218.127C192.823 218.53 190.439 215.246 189.369 222.497C188.522 217.996 189.175 192.885 189.369 187.732Z"/><path fill="#D13D3D" transform="scale(2 2)" d="M201.517 193.894L202.585 193.894L202.585 209.939L201.517 209.939L201.517 209.939C199.365 209.739 198.329 208.862 196.527 207.692C196.073 202.153 195.809 196.919 201.517 193.894L201.517 193.894Z"/><path fill="#7B0305" transform="scale(2 2)" d="M201.517 193.894L202.585 193.894L202.585 209.939L201.517 209.939L201.517 209.939C201.563 204.738 201.294 198.999 201.517 193.894L201.517 193.894Z"/><path fill="#D13D3D" transform="scale(2 2)" d="M202.585 193.894C209.443 197.081 212.455 210.015 202.585 209.939L202.585 193.894Z"/><defs><linearGradient id="gradient_3" gradientUnits="userSpaceOnUse" x1="308.06772" y1="228.94762" x2="313.5921" y2="190.57935"><stop offset="0" stop-color="#34363C"/><stop offset="1" stop-color="#404B50"/></linearGradient></defs><path fill="url(#gradient_3)" transform="scale(2 2)" d="M309.181 190.776C309.758 191.089 319.465 191.25 322.331 191.998C322.338 201.65 322.65 212.972 322.331 222.497C321.141 222.483 318.835 222.399 317.745 222.497L317.745 228.193C311.586 228.661 305.001 228.288 298.823 228.193C299.134 226.211 298.992 224.476 298.823 222.497L296.759 222.497L296.759 216.238L296.759 191.998C301.121 191.79 304.337 190.503 309.181 190.776Z"/><path fill="#464F53" transform="scale(2 2)" d="M296.759 191.998C301.121 191.79 304.337 190.503 309.181 190.776C309.118 191.724 308.946 193.012 309.181 193.894L309.181 193.894C309.135 198.497 309.161 203.09 309.181 207.692C309.224 210.593 309.249 213.334 309.181 216.238C305.983 216.221 299.832 215.998 296.759 216.238L296.759 191.998Z"/><path fill="#D13D3D" transform="scale(2 2)" d="M304.406 207.692C304.121 202.663 303.385 195.886 309.181 193.894C309.135 198.497 309.161 203.09 309.181 207.692C307.501 207.814 306.087 207.748 304.406 207.692Z"/><path fill="#D13D3D" transform="scale(2 2)" d="M309.181 193.894L310.245 193.894C317.211 196.537 315.202 201.566 315.394 207.692C313.741 207.782 311.872 207.946 310.245 207.692L309.181 207.692C309.161 203.09 309.135 198.497 309.181 193.894L309.181 193.894Z"/><path fill="#7B0305" transform="scale(2 2)" d="M309.181 193.894L310.245 193.894C310.173 198.47 310.229 203.111 310.245 207.692L309.181 207.692C309.161 203.09 309.135 198.497 309.181 193.894L309.181 193.894Z"/><defs><linearGradient id="gradient_4" gradientUnits="userSpaceOnUse" x1="326.06131" y1="167.2321" x2="298.75098" y2="163.08595"><stop offset="0" stop-color="#586268"/><stop offset="1" stop-color="#77828A"/></linearGradient></defs><path fill="url(#gradient_4)" transform="scale(2 2)" d="M292.014 186.088C293.064 186.014 293.582 185.982 294.601 185.764C299.49 170.537 305.029 154.99 310.245 139.816C312.442 145.831 322.771 185.254 324.927 186.088C323.941 186.135 323.261 186.292 322.331 186.68L322.331 187.732L322.331 191.998C319.465 191.25 309.758 191.089 309.181 190.776C304.337 190.503 301.121 191.79 296.759 191.998C296.827 190.484 296.932 189.246 296.759 187.732C295.342 187.87 292.33 188.046 291.137 187.345L291.01 186.814C291.462 186.094 291.151 186.344 292.014 186.088Z"/><path fill="#3A4249" transform="scale(2 2)" d="M296.759 186.68C304.227 187.38 314.511 186.621 322.331 186.68L322.331 187.732L322.331 191.998C319.465 191.25 309.758 191.089 309.181 190.776C304.337 190.503 301.121 191.79 296.759 191.998C296.827 190.484 296.932 189.246 296.759 187.732L296.759 186.68Z"/><path fill="#464F53" transform="scale(2 2)" d="M296.759 187.732C295.342 187.87 292.33 188.046 291.137 187.345L291.01 186.814C291.462 186.094 291.151 186.344 292.014 186.088C293.834 186.161 294.991 186.137 296.759 186.68L296.759 187.732Z"/><defs><linearGradient id="gradient_5" gradientUnits="userSpaceOnUse" x1="220.20341" y1="166.18782" x2="188.75043" y2="163.61349"><stop offset="0" stop-color="#505B61"/><stop offset="1" stop-color="#7E878E"/></linearGradient></defs><path fill="url(#gradient_5)" transform="scale(2 2)" d="M186.372 186.088C187.106 182.494 189.337 176.999 190.693 173.353C193.731 165.18 199.821 149.525 201.517 141.168C206.577 154.88 209.971 173.509 216.259 186.088C217.442 186.108 218.22 185.996 219.236 186.569L219.408 186.86C218.358 188.142 215.336 187.803 213.794 187.732C213.179 185.869 204.473 186.668 202.585 186.68C200.77 186.766 189.368 185.819 189.369 187.732C183.743 188.456 181.651 186.134 186.372 186.088Z"/><path fill="#545F63" transform="scale(2 2)" d="M186.372 186.088C189.062 186.728 199.328 186.735 202.299 186.448L202.585 186.68C200.77 186.766 189.368 185.819 189.369 187.732C183.743 188.456 181.651 186.134 186.372 186.088Z"/><path fill="#D13D3D" transform="scale(2 2)" d="M110.207 157.263C114.503 157.262 133.74 158.051 136.895 157.263C134.395 160.943 133.174 161.003 130.596 163.828C133.039 166.869 134.689 167.883 138.016 169.984C134.171 170.276 130.394 170.036 126.537 169.998L110.207 169.984C109.899 168.961 110.206 158.98 110.207 157.263Z"/><path fill="#D13D3D" transform="scale(2 2)" d="M404.801 157.263L431.301 157.263C428.065 160.16 426.93 160.312 423.975 163.828C425.944 165.132 429.612 167.784 431.301 169.443C423.675 169.826 412.652 169.434 404.801 169.443C404.551 166.991 404.788 159.993 404.801 157.263Z"/><path fill="#D13D3D" transform="scale(2 2)" d="M257.714 75.251C265.665 75.2416 274.348 75.0573 282.23 75.251C280.293 77.4518 277.621 79.4538 275.45 81.4848C277.975 83.7278 279.455 84.8939 282.23 86.8375L257.714 86.8375C257.713 82.9782 257.821 79.1085 257.714 75.251Z"/><path fill="#464F53" transform="scale(2 2)" d="M324.927 186.088C326.229 186.11 326.465 186.034 327.577 186.606L327.627 186.896L327.418 186.525L327.573 187.039C326.488 188.031 324.908 187.881 323.552 187.805L322.331 187.732L322.331 186.68C323.261 186.292 323.941 186.135 324.927 186.088Z"/></svg>