<?xml version="1.0" encoding="utf-8" ?><svg xmlns="http://www.w3.org/2000/svg" xmlns:xlink="http://www.w3.org/1999/xlink" width="1024" height="1024" viewBox="0 0 1024 1024"><path fill="#F1C373" d="M541.216 427.626C548.302 429.097 564.147 427.366 571.784 426.335C575.004 425.9 580.397 424.76 583.411 425.096C561.664 448.645 535.927 472.295 513.247 495.283C495.333 513.516 477.243 531.575 458.98 549.458C451.141 557.212 438.329 570.583 430.397 577.38C428.844 568.58 428.522 561.748 429.287 552.737C429.64 548.585 430.567 543.592 430.668 539.564L430.675 539.138C438.523 532.862 445.017 525.975 452.067 518.861L478.308 492.374C498.966 471.629 522.447 449.993 541.216 427.626Z"/><path fill="#EFB643" d="M421.033 391.987C412.378 369.611 410.632 348.71 420.639 326.082C420.896 325.501 421.157 324.922 421.422 324.345C422.348 333.484 422.563 340.959 426.461 349.679C431.206 360.295 438.398 369.799 445.301 379.106C461.993 401.611 479.771 423.209 497.079 445.232C498.669 447.256 500.68 449.475 502.028 451.602C499.134 454.664 496.451 457.458 493.415 460.372C489.686 464.314 486.764 467.416 482.648 471.003C477.823 466.856 469.737 457.762 465.153 452.866C447.633 434.154 430.167 416.454 421.033 391.987Z"/><path fill="#F1C373" d="M421.033 391.987C433.657 392.317 460.733 432.557 471.076 441.536C477.676 447.266 487.053 454.642 493.415 460.372C489.686 464.314 486.764 467.416 482.648 471.003C477.823 466.856 469.737 457.762 465.153 452.866C447.633 434.154 430.167 416.454 421.033 391.987Z"/><path fill="#EFB643" d="M327.395 418.661C344.544 410.65 363.575 410.93 381.472 416.065C400.221 422.592 413.004 430.771 427.905 443.721C442.497 456.403 457.85 468.808 472.293 481.666C469.653 484.512 467.423 486.756 464.605 489.426C461.191 492.386 456.175 497.568 452.832 500.843C446.284 497.843 436.435 487.433 430.253 482.696C404.875 463.248 380.465 440.846 351.944 426.115C347.865 424.008 340.145 422.651 335.613 421.587C331.403 421.47 327.644 421.21 323.475 420.979C324.773 420.192 326.079 419.419 327.395 418.661Z"/><path fill="#F1C373" d="M381.472 416.065C400.221 422.592 413.004 430.771 427.905 443.721C442.497 456.403 457.85 468.808 472.293 481.666C469.653 484.512 467.423 486.756 464.605 489.426C462.651 488.201 458.926 486.895 456.63 485.677C435.6 474.521 408.542 456.77 393.624 438.141C388.313 431.55 384.2 424.078 381.472 416.065Z"/><path fill="#EFB643" d="M327.395 418.661C330.16 420.987 331.735 419.83 335.613 421.587C331.403 421.47 327.644 421.21 323.475 420.979C324.773 420.192 326.079 419.419 327.395 418.661Z"/><path fill="#DEA636" d="M541.866 552.497C562.201 576.423 588.124 597.203 601.405 626.069C603.435 630.481 604.806 634.973 606.455 639.521C612.219 659.384 612.038 679.415 603.99 698.703C601.17 677.088 596.689 667.297 583.698 649.578C564.689 623.649 544.771 596.188 523.519 572.092C525.14 569.615 526.925 567.952 528.977 565.833L541.866 552.497Z"/><path fill="#F1C373" d="M541.866 552.497C562.201 576.423 588.124 597.203 601.405 626.069C603.435 630.481 604.806 634.973 606.455 639.521C590.592 656.223 587.059 638.381 579.994 625.205C575.329 616.431 570.144 607.944 564.467 599.789C558.544 591.192 539.244 567.721 528.977 565.833L541.866 552.497Z"/><path fill="#DEA636" d="M560.895 533.646C563.336 531.163 569.595 524.17 572.524 523.384C591.527 536.12 609.729 555.821 629.898 568.969C657.962 587.264 667.703 602.357 703.79 602.213C682.433 612.17 657.964 613.098 635.914 604.787C634.978 604.433 632.333 603.378 631.532 602.915C611.717 594.504 592.837 576.886 576.787 562.774C568.912 555.85 560.554 548.817 552.836 541.785C555.301 538.853 558.066 536.217 560.895 533.646Z"/><path fill="#F1C373" d="M552.836 541.785C555.301 538.853 558.066 536.217 560.895 533.646C565.134 537.219 574.025 540.539 579.118 543.486C601.207 556.264 626.954 572.117 631.396 599.506C631.544 600.432 631.605 601.982 631.532 602.915C611.717 594.504 592.837 576.886 576.787 562.774C568.912 555.85 560.554 548.817 552.836 541.785Z"/><path fill="#EFB643" d="M322.295 602.545C330.983 602.333 339.887 602.133 348.168 599.203C369.323 591.72 412.279 555.052 430.675 539.138L430.668 539.564C430.567 543.592 429.64 548.585 429.287 552.737C428.522 561.748 428.844 568.58 430.397 577.38C400.975 606.745 361.56 619.79 322.295 602.545Z"/><path fill="#DEA636" d="M605.051 330.69C606.022 329.965 606.185 329.743 607.34 329.489C609.553 339.153 613.063 361.732 609.756 371.349C606.9 388.348 600.418 402.128 590.627 416.168C589.268 418.116 585.202 423.64 583.411 425.096C580.397 424.76 575.004 425.9 571.784 426.335C564.147 427.366 548.302 429.097 541.216 427.626C551.496 415.972 560.925 402.666 570.702 391.628C583.958 373.87 601.222 352.614 605.051 330.69Z"/><path fill="#BE8A24" d="M605.051 330.69C606.022 329.965 606.185 329.743 607.34 329.489C609.553 339.153 613.063 361.732 609.756 371.349L609.156 370.707C600.1 381.542 584.951 390.597 570.702 391.628C583.958 373.87 601.222 352.614 605.051 330.69Z"/><path fill="#EFB643" d="M502.329 538.381C521.689 519.507 540.482 499.27 560.049 480.701C569.688 483.837 574.8 489.845 582.338 495.86C562.558 515.162 541.382 535.018 522.358 555.073C512.926 552.346 507.032 546.606 502.329 538.381Z"/><path fill="#DEA636" d="M601.816 440.004C613.15 430.723 622.185 423.936 636.246 418.743C652.762 412.643 675.21 409.313 691.812 416.827C696.644 418.231 698.81 419.301 703.211 421.322C700.243 421.373 695.389 421.65 692.627 421.323C669.95 424.201 656.459 435.733 638.423 448.589C629.712 454.798 621.639 461.349 613.309 468.023C605.479 459.448 602.305 451.618 601.816 440.004Z"/><path fill="#BE8A24" d="M691.812 416.827C696.644 418.231 698.81 419.301 703.211 421.322C700.243 421.373 695.389 421.65 692.627 421.323C692.843 419.139 693.604 421.126 695.587 419.491C695.593 419.421 695.599 419.352 695.605 419.283C695.484 419.116 693.063 418.104 691.812 416.827Z"/><path fill="#EFB643" d="M439.507 601.867C448.684 602.188 463.922 599.364 472.947 596.253C476.356 595.078 485.688 589.921 488.407 590.589C485.696 593.828 482.948 597.074 480.148 600.235C465.45 616.832 452.901 635.094 439.383 652.548C435.062 652.016 418.73 658.532 413.895 660.488C415.197 640.926 425.783 615.679 439.507 601.867Z"/><path fill="#F1C373" d="M502.329 538.381C507.032 546.606 512.926 552.346 522.358 555.073C510.616 566.902 499.825 578.941 488.407 590.589C485.688 589.921 476.356 595.078 472.947 596.253C463.922 599.364 448.684 602.188 439.507 601.867C449.372 590.535 459.429 580.827 470.127 570.295C480.871 559.717 491.401 548.76 502.329 538.381Z"/><path fill="#F1C373" d="M601.816 440.004C602.305 451.618 605.479 459.448 613.309 468.023C603.236 476.419 591.51 486.441 582.338 495.86C574.8 489.845 569.688 483.837 560.049 480.701C574.364 467.055 586.922 453.527 601.816 440.004Z"/><path fill="#DEA636" d="M413.895 660.488C418.73 658.532 435.062 652.016 439.383 652.548C425.546 674.811 425.053 672.702 419.147 699.057C415.22 685.227 413.363 674.996 413.895 660.488Z"/><path fill="#BE8A24" fill-opacity="0.98431373" d="M605.051 330.69C605.65 326.387 605.429 324.904 607.34 329.489C606.185 329.743 606.022 329.965 605.051 330.69Z"/><defs><linearGradient id="gradient_0" gradientUnits="userSpaceOnUse" x1="485.0365" y1="665.50885" x2="179.48927" y2="706.00598"><stop offset="0" stop-color="#E7AF3F"/><stop offset="1" stop-color="#F9CE83"/></linearGradient></defs><path fill="url(#gradient_0)" d="M310.01 514.108C312.791 516.568 316.504 515.823 320.23 515.306L322.998 514.933C324.03 514.803 325.395 514.415 326.441 514.169C322.358 516.867 317.321 518.933 313.066 521.661C285.62 539.26 280.981 575.769 298.233 602.325C309.308 619.373 323.888 627.654 343.496 632.414C356.889 635.575 371.229 633.928 384.413 630.613C388.38 629.616 393.368 627.827 397.125 627.025C392.45 644.55 388.953 658.382 391.609 676.685C394.036 695.292 402.962 712.532 417.893 724.141C431.044 734.34 447.707 738.898 464.217 736.814C481.516 734.559 495.478 725.401 504.407 710.34C505.645 708.252 508.232 702.304 509.413 701.057L509.879 701.385C509.873 703.317 509.571 705.095 509.763 706.899C507.552 721.742 503.019 742.334 496.363 755.631C486.35 778.821 473.379 796.489 454.41 813.2C440.769 825.123 424.457 835.764 407.567 842.466C399.368 846.41 379.059 852.464 370.293 854.2C383.608 822.852 393.602 800.329 374.229 768.604C363.963 755.746 358.934 750.865 343.329 746.119C339.721 740.512 329.593 721.941 326.669 715.946C325.062 714.021 322.726 707.697 320.58 705.62C317.561 702.698 313.376 701.003 309.877 698.805C299.165 692.078 289.143 686.676 277.855 681.027C272.203 663.397 264.163 654.397 247.919 645.277C219.277 629.198 197.859 643.238 170.613 651.507C176.535 626.283 184.904 606.096 199.671 584.73C206.975 572.849 228.118 553.234 239.398 545.077C254.35 534.347 271.151 526.06 288.811 520.752C293.054 519.477 306.995 516.772 309.833 515.417L310.01 514.108ZM236.159 613.217C241.413 605.39 247.029 595.103 253.647 588.568C253.748 591.641 253.854 596.724 254.505 599.684C258.117 615.207 268.84 628.749 279.747 639.929C281.614 641.843 288.809 647.227 289.836 648.808C301.391 666.609 318.192 676.775 341.54 675.804C343.865 675.689 346.186 675.51 348.501 675.267C347.75 695.689 346.791 706.407 361.659 723.396C367.197 729.725 372.282 731.638 378.051 736.939C380.719 739.391 385.028 745.385 388.166 748.479C402.209 762.328 416.259 768.538 435.21 772.042C429.444 778.052 419.266 784.462 412.047 789.111C411.991 799.295 410.28 806.53 407.993 816.389C413.045 814.632 419.569 810.648 424.148 807.793C445.29 794.61 454.437 781.977 467.348 761.222C464.413 761.194 457.861 761.308 455.211 760.974C447.071 760.916 440.185 759.457 432.488 757.064C397.629 746.228 376.353 719.749 368.48 684.887C367.298 675.076 366.418 667.608 366.96 657.568C336.162 657.115 312.121 650.87 289.747 627.983C275.885 613.803 268.046 597.052 264.775 577.301C263.822 571.547 264.376 562.84 264.045 556.725C238.636 572.302 222.036 588.275 209.111 615.798C221.335 613.514 224.201 613.748 236.159 613.217Z"/><path fill="#DEA636" d="M368.48 684.887C371.825 684.916 386.816 678.283 391.609 676.685C394.036 695.292 402.962 712.532 417.893 724.141C431.044 734.34 447.707 738.898 464.217 736.814C481.516 734.559 495.478 725.401 504.407 710.34C505.645 708.252 508.232 702.304 509.413 701.057L509.879 701.385C509.873 703.317 509.571 705.095 509.763 706.899C507.552 721.742 503.019 742.334 496.363 755.631L496.337 755.151C496.279 753.942 496.123 753.345 496.669 752.279C489.345 753.381 488.44 752.113 481.419 749.858C476.691 748.328 471.829 747.252 466.897 746.644C459.807 745.791 450.832 749.164 443.444 747.934C434.867 746.506 439.283 756.162 429.753 750.098C427.66 750.456 425.688 752.21 426.416 754.48C428.638 755.367 430.519 753.932 433.324 756.203C437.121 759.277 452.446 758.915 455.211 760.974C447.071 760.916 440.185 759.457 432.488 757.064C397.629 746.228 376.353 719.749 368.48 684.887Z"/><path fill="#EFB643" d="M239.398 545.077C239.889 545.926 240.725 547.115 240.213 548.123C236.142 556.127 231.747 570.379 222.777 574.262C216.068 577.166 210.178 578.585 204.191 583.88C202.59 585.297 201.651 585.245 199.671 584.73C206.975 572.849 228.118 553.234 239.398 545.077Z"/><path fill="#EFB643" d="M407.567 842.466C407.704 838.764 411.436 835.403 413.741 832.517C421.692 822.562 430.243 817.1 442.77 814.838C446.605 814.145 451.462 810.68 454.41 813.2C440.769 825.123 424.457 835.764 407.567 842.466Z"/><path fill="#DEA636" d="M326.669 715.946C329.79 718.581 337.969 734.441 340.105 738.757C346.241 732.405 349.813 738.552 353.406 742.313C357.321 746.412 360.829 743.793 359.601 751.787C360.156 753.344 374.323 763.157 374.229 768.604C363.963 755.746 358.934 750.865 343.329 746.119C339.721 740.512 329.593 721.941 326.669 715.946Z"/><path fill="#DEA636" d="M359.66 730.361C364.327 731.099 363.009 735.94 358.657 738.04C353.083 735.034 357.096 734.265 359.66 730.361Z"/><defs><linearGradient id="gradient_1" gradientUnits="userSpaceOnUse" x1="750.59076" y1="791.00891" x2="613.18689" y2="570.70459"><stop offset="0" stop-color="#A07421"/><stop offset="1" stop-color="#DBA331"/></linearGradient></defs><path fill="url(#gradient_1)" d="M697.733 510.601C699.493 510.139 702.722 511.021 705.551 510.695C710.03 512.114 713.218 512.655 717.014 515.36C717.218 515.659 717.422 515.959 717.625 516.258C788.64 531.204 836.596 580.098 854.462 651.966C849.368 649.194 843.336 647.248 837.878 645.367C821.79 639.841 805.012 635.23 788.186 640.478C776.737 644.049 767.299 650.179 759.137 658.981C752.887 665.721 748.783 672.598 747.692 681.891C733.877 688.673 718.18 699.412 705.204 705.027C702.495 709.805 700.154 714.666 697.451 719.47C692.531 728.214 687.361 736.683 683.035 745.748C658.721 752.797 640.137 775.391 638.759 801.091C637.845 818.113 647.696 838.575 653.86 854.296C644.145 851.624 634.372 848.897 625.093 845.56C569.462 825.553 528.372 780.063 517.726 721.419C516.941 717.096 516.231 712.041 515.311 707.741C515.281 706.158 515.23 704.575 515.16 702.993L515.507 702.792C516.693 703.597 520.09 711.262 521.396 713.26C535.965 735.544 564.128 742.529 588.489 734.127C605.128 728.366 618.749 716.151 626.281 700.235C637.633 676.728 636.268 651.679 627.937 627.542C652.58 634.414 671.758 638.266 696.857 627.636C713.258 620.668 726.235 607.493 732.952 590.989C740.753 571.304 738.24 549.544 725.331 532.643C718.137 523.224 708.714 518.637 697.931 514.443C697.422 512.483 697.441 512.613 697.733 510.601ZM658.19 657.411C658.504 687.34 651.542 712.753 629.909 734.704C612.958 751.79 589.928 761.462 565.861 761.604C563.097 761.618 560.179 761.5 557.413 761.396C571.303 782.217 579.072 795.007 601.633 808.444C606.657 811.436 611.496 814.782 617.239 816.529C614.962 805.913 613.723 799.642 613.386 788.589C610.209 786.743 605.278 783.905 602.26 781.841C597.816 778.546 593.055 775.165 588.909 771.54C614.256 768.415 630.183 757.308 645.908 737.202C648.313 734.127 652.412 732.783 655.475 730.589C674.696 716.822 677.644 696.995 675.847 675.412C694.329 676.384 710.213 674.654 724.854 661.771C730.667 656.654 731.299 653.534 735.836 647.852C737.228 646.108 744.03 641.311 746.364 638.915C761.043 623.838 769.023 609.297 771.994 588.718C778.227 595.036 784.421 605.023 788.304 613.031C799.612 613.171 804.938 613.63 816.164 615.927C806.558 595.668 792.572 577.56 774.132 564.864C770.155 562.125 765.276 558.381 760.894 556.542C765.314 609.795 725.19 652.552 672.692 656.679C667.865 657.051 663.03 657.296 658.19 657.411Z"/><path fill="#FEFEFE" d="M697.733 510.601C699.493 510.139 702.722 511.021 705.551 510.695C710.03 512.114 713.218 512.655 717.014 515.36C715.075 516.605 702.114 514.287 697.931 514.443C697.422 512.483 697.441 512.613 697.733 510.601Z"/><defs><linearGradient id="gradient_2" gradientUnits="userSpaceOnUse" x1="809.84058" y1="461.7272" x2="594.90973" y2="327.71066"><stop offset="0" stop-color="#AB7D22"/><stop offset="1" stop-color="#E2A934"/></linearGradient></defs><path fill="url(#gradient_2)" d="M648.192 251.507C657.18 264.681 667.194 274.661 683.248 277.953C685.528 282.941 703.1 316.7 705.363 318.138C713.026 323.008 738.422 337.364 747.466 341.716C750.483 356.079 759.743 367.983 772.008 375.747C789.347 386.723 802.073 387.716 821.314 383.597C828.104 382.117 834.786 380.18 841.315 377.801C845.166 376.434 850.856 374.165 854.669 373.222C845.547 416.222 816.965 458.37 780.373 482.178C759.37 495.844 728.101 508.32 702.896 509.027C701.249 509.014 699.803 509.238 698.155 509.134C698.984 507.766 705.661 505.312 707.674 504.243C731.657 491.495 742.191 464.276 734.204 437.649C729.14 421.24 717.824 407.481 702.7 399.347C677.552 386.034 653.466 388.384 627.489 396.522C640.602 360.103 636.81 325.349 606.704 299.167C608.854 299.287 609.394 300.149 611.169 301.626C614.801 296.778 623.523 293.125 627.55 289.021C626.697 286.378 622.714 285.68 622.077 282.702C646.159 298.569 661.065 338.325 657.673 366.331C659.615 366.248 661.558 366.196 663.502 366.176C690.151 365.784 715.807 376.279 734.542 395.236C755.536 416.197 761.139 439.071 761.182 467.685C766.247 465.214 771.036 461.595 775.573 458.308C794.829 444.356 804.36 429.114 815.741 408.996C806.424 410.626 798.45 410.684 789.054 410.895C785.029 417.386 776.803 430.571 771.582 435.527C768.568 408.725 755.769 393.008 735.805 375.904C734.403 374.161 732.534 371.885 731.369 370.012C720.731 352.908 695.163 345.882 675.829 349.043C678.432 327.631 675.115 310.618 658.245 295.622C655.901 293.538 650.273 291.069 648.481 288.941C642.017 281.265 636.507 274.868 628.919 268.274C633.391 268.19 637.39 276.669 641.333 277.612C644.206 275.659 644.985 273.138 647.342 271.362C650.055 269.319 654.338 266.861 656.52 264.28C655.307 260.39 648.216 256.424 648.192 251.507Z"/><path fill="#DEA636" d="M369.985 170.433C400.874 179.183 422.747 186.158 448.818 206.309C447.388 208.93 446.842 213.838 445.947 217.375C444.74 222.145 442.645 225.388 441.601 229.357C432.067 221.158 419.407 212.565 407.61 207.884C410.423 216.775 411.746 226.07 411.526 235.394C421.985 241.442 427.283 244.961 436.42 253.348C416.854 252.92 402.175 263.639 387.983 276.321C383.124 280.663 381.29 284.956 377.333 288.859C374.902 291.256 368.703 294.758 365.7 297.494C352.26 309.743 349.396 321.94 348.345 339.112C347.408 340.17 346.625 341.19 345.568 342.139C344.795 343.588 343.005 345.848 341.906 347.268C327.136 346.113 312.518 350.914 301.308 360.601C295.121 365.85 294.129 368.722 289.863 375.177C288.123 377.809 280.532 382.552 278.383 385.474C265.601 398.869 255.073 413.522 253.575 432.367C253.492 433.427 253.435 434.488 253.402 435.551C248.22 429.254 240.323 418.873 236.744 411.73C227.073 411.124 218.339 410.721 208.842 408.456C216.522 423.154 226.069 438.591 238.607 449.612C234.903 458.075 232.575 463.415 229.99 472.287C200.385 447.004 179.469 410.993 170.506 373.246C173.672 374.073 177.042 375.334 180.107 376.422C203.92 384.872 228.254 391.964 251.096 376.677C264.891 367.445 273.574 358.508 277.3 342.106C285.039 338.239 296.455 331.17 302.994 328.235C308.167 324.527 314.614 322.428 319.492 318.393C323.666 314.941 338.891 285.378 342.236 278.505C345.386 277.483 349.194 276.279 352.178 274.792C372.662 264.729 388.592 238.133 385.264 215.168C383.084 200.127 376.459 184.122 369.985 170.433Z"/><defs><linearGradient id="gradient_3" gradientUnits="userSpaceOnUse" x1="411.45963" y1="182.35406" x2="382.8436" y2="287.70493"><stop offset="0" stop-color="#976E22"/><stop offset="1" stop-color="#B98928"/></linearGradient></defs><path fill="url(#gradient_3)" d="M369.985 170.433C400.874 179.183 422.747 186.158 448.818 206.309C447.388 208.93 446.842 213.838 445.947 217.375C444.74 222.145 442.645 225.388 441.601 229.357C432.067 221.158 419.407 212.565 407.61 207.884C410.423 216.775 411.746 226.07 411.526 235.394C421.985 241.442 427.283 244.961 436.42 253.348C416.854 252.92 402.175 263.639 387.983 276.321C383.124 280.663 381.29 284.956 377.333 288.859C374.902 291.256 368.703 294.758 365.7 297.494C352.26 309.743 349.396 321.94 348.345 339.112C347.408 340.17 346.625 341.19 345.568 342.139L345.532 341.508C348.89 336.8 347.641 335.475 348.167 330.095C348.867 322.923 351.053 315.975 354.585 309.694C358.154 303.294 363.061 297.737 368.972 293.403C371.841 291.327 375.882 290.181 377.644 287.089C378.426 285.716 378.822 285.25 379.944 284.206C378.088 283.238 374.843 285.263 374.377 285.1C371.856 284.217 366.744 280.366 364.045 281.494C362.235 282.25 361.796 282.49 359.97 281.827C359.588 281.094 358.738 279.407 358.208 278.921C355.598 276.528 357.341 276.52 357.154 273.846C356.832 273.881 344.53 278.706 343.027 279.191C336.519 290.677 328.532 307.836 320.616 318.739C319.626 320.103 305.026 328.363 302.994 328.235C308.167 324.527 314.614 322.428 319.492 318.393C323.666 314.941 338.891 285.378 342.236 278.505C345.386 277.483 349.194 276.279 352.178 274.792C372.662 264.729 388.592 238.133 385.264 215.168C383.084 200.127 376.459 184.122 369.985 170.433Z"/><path fill="#EFB643" d="M147.973 854.683C152.764 830.714 153.495 818.876 146.364 795.188C143.221 784.747 143.005 765.173 145.27 754.494C150.606 761.988 151.381 766.871 158.713 773.972C169.548 784.465 182.606 788.41 197.501 785.296C204.048 783.836 208.945 780.292 214.291 776.308C220.583 794.675 227.998 804.12 247.237 810.187C239.699 819.581 236.56 827.782 237.663 840.144C238.653 851.245 245.912 861.935 254.411 868.797C258.368 871.993 265.996 875.849 270.735 878.631C244.203 884.377 229.728 877.675 204.477 873.594C194.494 871.98 178.701 874.663 168.688 877.127C156.874 879.609 150.131 882.904 139.425 886.552C141.702 875.959 145.567 865.355 147.973 854.683Z"/><path fill="#DEA636" d="M147.973 854.683L148.798 855.288C150.363 856.39 151.141 857.353 152.109 858.983C156.451 866.297 163.05 871.125 168.688 877.127C156.874 879.609 150.131 882.904 139.425 886.552C141.702 875.959 145.567 865.355 147.973 854.683Z"/><path fill="#F1C373" d="M152.144 780.243C161.63 800.284 170.169 808.299 193.493 801.832C194.929 804.904 195.852 808.007 197.576 811.201C204.101 823.294 211.389 827.736 222.945 833.598C217.482 851.036 224.86 862.441 239.706 870.799L240.693 872.331C236.073 870.594 230.775 869.574 226.095 867.777C189.422 853.702 158.578 819.207 152.144 780.243Z"/><path fill="#EFB643" d="M239.706 870.799L241.578 871.413C244.753 872.468 243.093 872.73 240.693 872.331L239.706 870.799Z"/><path fill="#BE8A24" d="M879.24 755.382C881.465 757.831 881.618 773.27 881.48 776.62C880.626 797.375 871.939 812.27 873.585 833.84C875.073 853.35 879.691 868.346 885.871 886.613C881.205 885.393 874.523 882.331 869.484 880.747C854.184 876.11 832.554 871.19 816.741 874.004C796.818 877.548 785.761 881.431 764.878 879.906C760.875 879.581 757.57 879.262 753.607 878.661C757.76 875.977 762.435 874.083 766.678 871.219C787.598 857.097 795.779 830.325 777.079 810.309C795.204 802.818 805.003 796.335 811.519 777.12C837.019 798.12 866.202 781.734 879.24 755.382ZM801.346 828.275C798.607 829.06 800.573 831.286 801.687 833.335C802.298 829.354 807.008 831.613 801.346 828.275Z"/><path fill="#F1C373" d="M829.592 797.408L830.261 797.719C845.833 804.827 863.671 798.97 870.563 783.08C871.289 781.406 872.761 776.218 873.663 775.338C873.528 778.304 872.139 782.308 871.337 785.285C865.592 806.627 848.905 828.183 832.749 842.961C821.267 853.464 805.295 864.395 790.367 868.696C787.362 869.562 784.951 870.683 781.755 870.808L781.232 870.541C786.865 868.236 789.878 867.647 794.825 863.38C803.02 856.312 805.426 843.374 801.687 833.335C802.298 829.354 807.008 831.613 801.346 828.275C815.958 822.291 825.492 812.912 829.592 797.408Z"/><path fill="#F1C373" fill-opacity="0.97254902" d="M801.687 833.335C800.573 831.286 798.607 829.06 801.346 828.275C807.008 831.613 802.298 829.354 801.687 833.335Z"/><defs><linearGradient id="gradient_4" gradientUnits="userSpaceOnUse" x1="903.16174" y1="224.50836" x2="765.39343" y2="146.17018"><stop offset="0" stop-color="#B68117"/><stop offset="1" stop-color="#FCC046"/></linearGradient></defs><path fill="url(#gradient_4)" d="M784.734 144.466L785.22 144.502C795.341 145.349 805.128 148.461 815.105 149.981C842.658 154.179 861.669 145.856 886.43 138.041C879.649 157.104 871.373 184.356 873.78 204.353C876.789 229.363 885.38 242.854 879.386 269.834C875.643 261.363 872.937 256.93 866.306 250.358C851.137 235.32 826.703 232.931 810.858 248.265C805.684 230.092 796.23 219.121 777.441 214.593C782.136 207.787 785.535 203.128 786.844 194.725C789.746 176.107 779.652 163.647 766.108 152.56C761.492 150.235 759.967 148.778 754.114 146.203C762.671 144.01 775.977 143.101 784.734 144.466Z"/><path fill="#EFB643" d="M754.114 146.203C762.671 144.01 775.977 143.101 784.734 144.466L784.299 145.133C783.191 146.919 782.763 145.589 781.515 146.738C780.979 147.231 781.317 150.54 780.57 150.632C777.841 150.968 773.864 151.198 771.201 150.441C769.454 149.995 769.263 150.739 768.012 149.229C767.802 148.976 765.244 150.153 764.727 149.709C764.609 149.68 763.936 149.713 763.789 149.824C764.314 150.876 766.377 150.314 766.108 152.56C761.492 150.235 759.967 148.778 754.114 146.203Z"/><path fill="#F1C373" d="M785.951 153.607C792.632 155.795 806.318 160.91 811.98 164.415C840.194 181.881 864.544 206.523 873.303 239.035L872.301 239.662C867.322 222.188 844.944 215.88 829.97 224.117C829.641 222.121 829.134 220.158 828.456 218.252C823.141 203.454 813.016 197.912 799.89 191.665C809.127 174.169 800.809 162.713 785.951 153.607Z"/><path fill="#DEA636" d="M873.303 239.035C873.76 239.975 874.116 241.966 874.2 242.998C874.81 250.493 872.774 241.393 872.301 239.662L873.303 239.035Z"/><defs><linearGradient id="gradient_5" gradientUnits="userSpaceOnUse" x1="255.15739" y1="215.9922" x2="144.68109" y2="195.57547"><stop offset="0" stop-color="#C8942F"/><stop offset="1" stop-color="#FAC154"/></linearGradient></defs><path fill="url(#gradient_5)" d="M139.373 138.551C150.213 142.234 159.547 145.182 170.671 148.03C182.25 151.078 204.087 152.31 215.397 149.417C236.268 144.077 248.993 142.108 270.663 146.067C242.752 158.201 225.639 187.723 246.8 214.22C228.268 220.823 219.87 228.629 213.609 247.571C205.421 240.576 197.582 236.794 186.61 237.73C166.285 239.464 153.977 253.176 145.661 270.39C139.111 247.053 149.12 224.391 151.541 201.795C152.471 193.125 150.271 179.752 148.65 170.907C145.862 159.825 142.442 149.443 139.373 138.551Z"/><path fill="#DEA636" d="M139.373 138.551C150.213 142.234 159.547 145.182 170.671 148.03C168.997 149.308 165.918 151.365 164.483 152.55C161.268 155.206 149.029 167.433 148.65 170.907C145.862 159.825 142.442 149.443 139.373 138.551Z"/><path fill="#DEA636" d="M240.111 152.744C241.426 152.465 241.756 152.6 243.129 152.776C241.77 153.265 240.765 154.151 240.111 152.744Z"/><path fill="#BE8A24" d="M448.818 206.309C471.504 225.645 487.239 245.37 498.513 273.286C503.439 285.682 506.925 298.603 508.903 311.794C509.174 313.641 509.427 318.361 510.7 319.19L510.882 319.171C509.791 320.269 509.835 320.368 509.497 321.907L509.433 322.183L508.824 322.167C508.333 321.406 507.906 320.716 507.553 319.888C490.922 280.876 439.84 276.441 411.453 305.244C407.033 309.728 403.826 314.653 400.427 319.704C394.872 321.205 378.834 323.617 373.072 322.685C377.015 311.757 387.789 295.721 396.325 287.922C418.868 267.328 438.384 262.866 467.208 263.018C460.622 250.858 451.957 238.496 441.601 229.357C442.645 225.388 444.74 222.145 445.947 217.375C446.842 213.838 447.388 208.93 448.818 206.309Z"/><path fill="#F1C373" d="M588.63 197.109C605.268 186.294 634.793 173.93 654.506 170.783C653.007 176.513 649.467 183.903 647.191 189.586C640.862 205.388 636.913 221.815 642.263 238.535C643.37 242.041 646.585 247.842 648.192 251.507C648.216 256.424 655.307 260.39 656.52 264.28C654.338 266.861 650.055 269.319 647.342 271.362C644.985 273.138 644.206 275.659 641.333 277.612C637.39 276.669 633.391 268.19 628.919 268.274C627.649 267.713 623.263 264.682 621.783 263.729C610.692 256.593 601.849 253.428 588.696 252.358C596.464 245.168 605.003 240.648 613.58 234.475C613.77 223.365 614.962 218.03 618.123 207.532C603.154 212.243 585.458 226.981 574.821 238.536C573.03 229.816 583.955 208.214 588.661 200.615C589.57 199.146 589.155 198.597 588.63 197.109Z"/><path fill="#F1C373" d="M273.719 416.668L275.045 417.889C275.352 417.907 275.659 417.925 275.967 417.943C279.667 414.754 284.911 410.558 288.812 408.04C293.097 405.267 297.684 402.991 302.485 401.257C307.163 399.568 316.724 397.054 321.443 399.256C304.715 409.775 293.995 423.651 289.51 442.718C283.655 467.607 295.646 496.043 319.886 505.725C321.453 506.351 325.318 508.228 326.391 509.341C324.383 509.435 316.902 508.407 316.622 509.805C314.69 508.754 297.951 505.743 294.019 504.701C268.974 498.065 250.06 488.456 229.99 472.287C232.575 463.415 234.903 458.075 238.607 449.612C245.921 456.161 255.544 462.911 263.957 467.962C264.521 462.986 264.231 456.55 264.557 451.353C265.368 438.426 268.547 428.317 273.719 416.668Z"/><path fill="#EFB643" d="M373.072 322.685C378.834 323.617 394.872 321.205 400.427 319.704C387.963 345.061 387.721 367.977 396.72 394.407L397.634 397.062C392.51 395.528 386.97 393.542 381.835 392.42C360.081 387.666 341.349 389.758 321.443 399.256C316.724 397.054 307.163 399.568 302.485 401.257C297.684 402.991 293.097 405.267 288.812 408.04C284.911 410.558 279.667 414.754 275.967 417.943C275.659 417.925 275.352 417.907 275.045 417.889L273.719 416.668C279.116 406.783 286.259 397.96 294.804 390.625C313.876 374.016 341.863 364.706 367.059 366.415C366.893 348.659 367.266 339.565 373.072 322.685Z"/><path fill="#DEA636" d="M515.47 319.508C515.559 314.973 516.84 307.852 517.78 303.227C527.064 257.581 550.097 222.938 588.63 197.109C589.155 198.597 589.57 199.146 588.661 200.615C583.955 208.214 573.03 229.816 574.821 238.536C571.055 243.613 561.236 257.444 559.037 262.915C557.782 270.202 556.644 273.655 553.459 280.455C552.456 282.597 549.852 287.914 549.408 289.825C538.134 295.33 527.999 301.034 521.629 312.254C520.643 313.991 516.798 321.759 515.989 322.276L515.594 321.916L515.47 319.508Z"/><path fill="#DEA636" d="M710.065 262.699C714.577 262.208 726.158 262.52 731.137 262.622C741.19 262.829 752.552 262.569 762.473 263.158L762.346 298.222C762.223 314.893 763.485 325.504 753.676 339.875C753.919 333.76 753.797 330.938 752.543 324.971C749.57 317.116 745.193 311.85 739.286 305.907C728.649 295.206 718.717 283.475 706.12 275.009C698.028 269.57 693.253 270.6 684.399 272.533C691.575 264.346 699.846 263.663 710.065 262.699Z"/><path fill="#BE8A24" d="M263.965 262.415C272.471 262.26 281.752 262.249 290.265 262.369C307.039 262.606 326.88 259.286 340.694 270.568C339.499 270.517 338.304 270.487 337.108 270.479C319.393 270.408 308.42 282.838 296.449 294.75L291.182 300.101C276.719 314.843 271.859 317.998 272.062 339.27C262.398 326.696 263.964 311.015 263.98 296.085L263.965 262.415Z"/><defs><linearGradient id="gradient_6" gradientUnits="userSpaceOnUse" x1="768.07709" y1="696.17554" x2="712.79388" y2="771.95306"><stop offset="0" stop-color="#AC7D24"/><stop offset="1" stop-color="#C89732"/></linearGradient></defs><path fill="url(#gradient_6)" d="M753.952 684.34C762.885 691.941 762.164 713.258 762.214 723.686C762.266 735.971 762.228 748.256 762.099 760.541C751.295 760.485 740.491 760.486 729.688 760.546C718.115 760.563 706.069 761.34 694.986 758.129C691.266 756.511 687.985 755.363 685.261 752.301C687.403 751.17 698.482 754.84 706.592 748.787C720.953 738.07 733.256 725.101 745.036 711.645C752.429 703.2 755.211 695.456 753.952 684.34Z"/><defs><linearGradient id="gradient_7" gradientUnits="userSpaceOnUse" x1="316.33871" y1="755.60321" x2="253.04901" y2="712.13904"><stop offset="0" stop-color="#E0AA40"/><stop offset="1" stop-color="#FCCE7E"/></linearGradient></defs><path fill="url(#gradient_7)" d="M264.642 760.57C264.579 748.924 264.587 737.279 264.665 725.633C264.755 711.968 264.177 695.823 272.528 684.129C272.381 688.291 272.295 693.188 273.008 697.201C275.53 711.382 309.269 741.435 320.147 748.739L320 749.591C319.702 751.374 319.008 752.894 317.247 753.905C314.324 755.583 316.254 755.762 313.773 757.698C312.008 759.075 310.985 759.296 309.306 760.402C294.703 760.745 279.427 760.364 264.642 760.57Z"/><path fill="#DEA636" d="M775.947 727.444C783.215 733.324 790.848 741.884 794.982 750.325C798.961 758.415 799.505 767.769 796.492 776.266C791.009 791.824 773.663 799.103 758.253 795.335C755.173 794.582 752.601 793.686 749.619 792.581C742.269 789.159 732.019 781.594 727.427 774.868C735.337 777.569 744.304 779.231 752.393 776.581C775.437 769.032 782.257 749.015 775.947 727.444Z"/><path fill="#BE8A24" d="M251.495 228.091C269.934 225.985 285.559 235.787 297.788 248.847C287.222 246.012 277.915 244.164 267.617 249.155C257.192 254.208 251.528 261.589 247.699 272.185C245.492 283.175 246.535 286.875 250.498 297.223C235.332 282.408 217.95 263.97 231.301 241.825C236.178 233.737 242.742 230.33 251.495 228.091Z"/><path fill="#DEA636" d="M763.45 228.646C782.031 226.6 798.603 239.953 798.214 259.25C797.92 273.822 785.95 288.214 775.841 297.804C777.681 291.197 778.443 288.71 778.555 281.96C778.501 279.08 778.123 275.202 777.335 272.466C774.644 263.417 768.486 255.798 760.204 251.269C748.596 244.86 740.027 245.722 727.998 249.188C736.614 239.808 750.636 230.847 763.45 228.646Z"/><path fill="#EFB643" d="M296.707 775.441C290.443 784.078 271.654 795.408 260.486 796.088C251.945 796.608 243.367 794.226 236.918 788.48C231.193 783.446 227.719 776.333 227.269 768.723C226.577 754.833 237.779 740.436 246.465 730.657C248.244 733.988 245.255 740.252 247.321 742.307C247.85 764.544 265.439 779.366 287.551 776.919C290.646 776.577 293.645 776.002 296.707 775.441Z"/><path fill="#EFB643" d="M559.037 262.915C577.369 262.149 594.58 265.427 610.584 274.645C613.775 276.483 619.616 280.115 622.077 282.702C622.714 285.68 626.697 286.378 627.55 289.021C623.523 293.125 614.801 296.778 611.169 301.626C609.394 300.149 608.854 299.287 606.704 299.167C604.252 297.364 601.678 295.732 599.001 294.282C581.975 285.07 567.515 284.328 549.408 289.825C549.852 287.914 552.456 282.597 553.459 280.455C556.644 273.655 557.782 270.202 559.037 262.915Z"/><path fill="#DEA636" d="M320.147 748.739C323.412 750.632 325.545 751.601 329.248 752.173L330.25 752.335C333.087 752.767 338.962 752.348 341.843 752.12C331.031 760.451 322.416 760.367 309.306 760.402C310.985 759.296 312.008 759.075 313.773 757.698C316.254 755.762 314.324 755.583 317.247 753.905C319.008 752.894 319.702 751.374 320 749.591L320.147 748.739Z"/><path fill="#FEFEFE" fill-opacity="0.98431373" d="M316.032 512.287C319.791 511.812 323.069 510.597 326.562 510.076C326.893 511.904 327.071 512.41 326.441 514.169C325.395 514.415 324.03 514.803 322.998 514.933L320.23 515.306C316.504 515.823 312.791 516.568 310.01 514.108C312.127 512.807 313.501 512.517 316.032 512.287Z"/><path fill="#EFB643" d="M345.568 342.139C346.625 341.19 347.408 340.17 348.345 339.112C348.906 342.225 349.652 345.282 350.279 348.369C347.263 348.047 344.876 347.676 341.906 347.268C343.005 345.848 344.795 343.588 345.568 342.139Z"/><path fill="#FEFEFE" fill-opacity="0.83529413" d="M509.879 701.385L510.333 701.523C512.128 702.055 513.318 702.328 515.16 702.993C515.23 704.575 515.281 706.158 515.311 707.741C511.695 707.785 512.888 707.953 509.763 706.899C509.571 705.095 509.873 703.317 509.879 701.385Z"/><path fill="#FEFEFE" fill-opacity="0.87058824" d="M316.622 509.805C316.902 508.407 324.383 509.435 326.391 509.341L326.562 510.076C323.069 510.597 319.791 511.812 316.032 512.287L316.622 509.805Z"/><path fill="#F1C373" fill-opacity="0.98431373" d="M250.311 727.02C247.38 733.721 248.114 735.796 247.321 742.307C245.255 740.252 248.244 733.988 246.465 730.657C247.616 729.379 249.031 728.201 250.311 727.02Z"/><path fill="#FEFEFE" fill-opacity="0.91764706" d="M510.882 319.171L513.408 320.216C513.993 320.809 514.379 321.256 514.924 321.891L513.991 322.028C511.772 322.374 511.689 322.386 509.433 322.183L509.497 321.907C509.835 320.368 509.791 320.269 510.882 319.171Z"/><path fill="#FEFEFE" fill-opacity="0.51372552" d="M698.155 509.134C699.803 509.238 701.249 509.014 702.896 509.027L702.235 509.324C701.917 509.436 701.479 509.524 701.321 509.857C701.498 510.539 704.463 510.31 705.551 510.695C702.722 511.021 699.493 510.139 697.733 510.601C697.882 510.123 698.055 509.624 698.155 509.134Z"/><path fill="#FEFEFE" fill-opacity="0.25490198" d="M513.408 320.216C514.33 320.322 514.651 320.695 515.161 319.941L515.47 319.508L515.594 321.916L514.924 321.891C514.379 321.256 513.993 320.809 513.408 320.216Z"/></svg>