<?xml version="1.0" encoding="utf-8" ?><svg xmlns="http://www.w3.org/2000/svg" xmlns:xlink="http://www.w3.org/1999/xlink" width="1024" height="1024" viewBox="0 0 1024 1024"><path fill="#FBD69B" transform="scale(2 2)" d="M233.496 165.98L278.487 165.98C278.835 171.638 278.5 176.004 278.49 181.583L278.477 212.544C278.474 217.892 276.179 223.884 280.87 224.244L282.046 224.172C282.147 224.015 281.718 214.771 281.727 213.511L294.195 213.511C294.369 216.562 294.209 221.083 294.195 224.244L302.596 224.244L302.596 213.511C304.289 213.682 305.874 213.576 307.572 213.511L307.598 227.067C307.605 228.628 307.736 232.473 307.572 233.75C308.123 236.981 318.876 250.817 321.387 254.956C322.542 253.03 324.585 249.615 326.034 248.039C326.829 251.518 326.6 262.051 326.601 266.039L326.59 297.146C326.59 300.583 326.411 307.746 327.128 310.775C329.605 310.931 331.044 310.961 333.516 310.775L333.516 301.747C337.507 301.696 341.377 301.692 345.368 301.747L345.368 310.775L354.14 310.775C354.145 307.862 354.066 304.623 354.14 301.747C358.203 301.489 360.894 301.328 364.996 301.747C364.863 304.703 364.624 307.849 364.996 310.775C365.955 310.793 367.053 310.843 367.998 310.775L367.998 310.775C367.972 305.407 367.902 300.128 367.998 294.756L417.78 294.756L439.245 294.756L439.245 300.244L439.245 418.096L418.291 418.096L367.998 418.096L327.128 418.096C316.287 418.245 305.062 418.106 294.195 418.096L285.23 418.096L226.253 418.096C222.845 418.222 219.77 418.168 216.356 418.096L185.637 418.096C185.119 417.242 185.636 402.797 185.636 400.486L185.637 322.177C185.72 320.515 185.655 318.577 185.637 316.889C185.6 312.306 185.943 306.716 185.637 302.285C185.782 300.083 185.65 296.977 185.646 294.706L185.635 259.097C185.651 255.047 186.083 251.029 186.141 246.945C188.059 248.573 190.446 252.754 191.653 254.956C194.1 251.949 204.464 236.9 205.344 233.75C205.068 232.768 205.335 225.768 205.344 224.244C205.526 221.782 205.021 215.082 206.024 213.511C210.019 213.755 208.024 219.914 208.068 224.244L217.602 224.244C217.9 220.308 217.882 217.512 217.602 213.511L228.519 213.511C229.093 218.243 228.836 219.577 228.519 224.244C230.027 224.236 232.03 224.167 233.496 224.244C233.215 207.52 233.749 190.667 233.463 173.932C233.419 171.393 233.227 168.459 233.496 165.98Z"/><path fill="#AEA7A5" transform="scale(2 2)" d="M367.998 294.756L417.78 294.756L439.245 294.756L439.245 300.244L439.245 418.096L418.291 418.096L367.998 418.096L367.998 322.609L367.998 316.889C367.952 314.814 368.146 312.888 367.998 310.775L367.998 310.775C367.972 305.407 367.902 300.128 367.998 294.756Z"/><path fill="#99918F" transform="scale(2 2)" d="M367.998 294.756L417.78 294.756L439.245 294.756L439.245 300.244L439.245 418.096L418.291 418.096L418.291 376.235C415.821 376.45 413.9 376.524 411.448 376.235C414.418 376.151 417.806 376.234 420.809 376.235C420.771 374.427 421.551 372.477 419.556 371.932C418.53 370.349 420.082 348.548 417.78 340.503C418.304 337.362 418.081 313.973 417.78 310.775C404.203 311.612 388.485 310.702 374.681 310.841C372.465 310.863 370.202 310.989 367.998 310.775C367.972 305.407 367.902 300.128 367.998 294.756Z"/><path fill="#8E8382" transform="scale(2 2)" d="M417.78 294.756L439.245 294.756L439.245 300.244C438.76 303.327 438.838 307.67 439.245 310.775L417.78 310.775C417.813 309.883 417.914 308.545 417.78 307.699C417.757 304.04 417.512 298.228 417.78 294.756Z"/><path fill="#955229" transform="scale(2 2)" d="M404.969 327.152C410.599 331.006 413.805 335.171 417.78 340.503C420.082 348.548 418.53 370.349 419.556 371.932C421.551 372.477 420.771 374.427 420.809 376.235C417.806 376.234 414.418 376.151 411.448 376.235L388.729 376.235C388.59 371.573 390.598 372.134 390.637 369.314C390.927 347.839 386.863 341.382 404.969 327.152Z"/><path fill="#393B4F" transform="scale(2 2)" d="M404.969 332.67C418.251 340.523 414.735 358.884 414.709 371.821L404.969 371.821L394.765 371.821C394.794 355.212 391.133 344.381 404.969 332.67Z"/><path fill="#6F4237" transform="scale(2 2)" d="M256.183 329.408C264.162 331.992 268.865 335.48 274.983 341.017C287.785 352.605 285.239 367.357 285.235 383.287L285.23 418.096L226.253 418.096C226.649 402.462 224.35 375.102 226.63 360.71C229.163 344.727 241.692 334.17 256.183 329.408Z"/><path fill="#767480" transform="scale(2 2)" d="M354.14 301.747C358.203 301.489 360.894 301.328 364.996 301.747C364.863 304.703 364.624 307.849 364.996 310.775C365.955 310.793 367.053 310.843 367.998 310.775C368.146 312.888 367.952 314.814 367.998 316.889L367.998 322.609L367.998 418.096L327.128 418.096L327.128 322.609C327.023 320.616 327.074 318.889 327.128 316.889C326.952 314.89 327.067 312.789 327.128 310.775C329.605 310.931 331.044 310.961 333.516 310.775L333.516 301.747C337.507 301.696 341.377 301.692 345.368 301.747L345.368 310.775L354.14 310.775C354.145 307.862 354.066 304.623 354.14 301.747Z"/><path fill="#393B4F" transform="scale(2 2)" d="M354.14 301.747C358.203 301.489 360.894 301.328 364.996 301.747C364.863 304.703 364.624 307.849 364.996 310.775C365.955 310.793 367.053 310.843 367.998 310.775C368.146 312.888 367.952 314.814 367.998 316.889L367.998 322.609L327.128 322.609C327.023 320.616 327.074 318.889 327.128 316.889C326.952 314.89 327.067 312.789 327.128 310.775C329.605 310.931 331.044 310.961 333.516 310.775L333.516 301.747C337.507 301.696 341.377 301.692 345.368 301.747L345.368 310.775L354.14 310.775C354.145 307.862 354.066 304.623 354.14 301.747Z"/><path fill="#615F6F" transform="scale(2 2)" d="M327.128 316.889C340.39 316.889 354.824 317.195 367.998 316.889L367.998 322.609L327.128 322.609C327.023 320.616 327.074 318.889 327.128 316.889Z"/><path fill="#AEA7A5" transform="scale(2 2)" d="M348.003 376.235C353.881 375.263 364.22 374.013 363.227 382.051C362.963 384.184 362.022 385.178 360.034 385.916C356.044 386.034 345.701 387.143 344.71 382.473C344.054 379.382 344.904 377.081 348.003 376.235Z"/><path fill="#AEA7A5" transform="scale(2 2)" d="M343.177 340.503C346.732 340.133 350.91 339.958 354.475 340.119C360.352 340.384 360.812 346.852 356.576 350.146C352.797 350.504 347.224 350.137 343.418 349.891C340.815 349.724 339.463 342.5 343.177 340.503Z"/><path fill="#FBD69B" transform="scale(2 2)" d="M233.496 165.98L278.487 165.98C278.835 171.638 278.5 176.004 278.49 181.583L278.477 212.544C278.474 217.892 276.179 223.884 280.87 224.244C278.301 224.401 274.184 224.256 271.499 224.244L271.499 213.511C268.954 213.742 262.753 213.528 260.023 213.511L260.023 224.244C256.495 224.271 253.003 224.297 249.475 224.244L249.475 213.511L237.841 213.511L237.841 224.244L233.496 224.244C233.215 207.52 233.749 190.667 233.463 173.932C233.419 171.393 233.227 168.459 233.496 165.98Z"/><path fill="#CA7E45" transform="scale(2 2)" d="M254.987 171.772C265.765 172.574 263.021 191.1 262.995 198.036L256.183 198.036L247.792 198.036C247.758 188.085 244.894 176.415 254.987 171.772Z"/><path fill="#393B4F" transform="scale(2 2)" d="M254.987 174.966C261.997 175.922 260.057 189.197 260.023 194.726L256.183 194.726L250.792 194.726C250.84 188.133 248.774 178.52 254.987 174.966Z"/><path fill="#CA7E45" transform="scale(2 2)" d="M256.183 320.343C284.765 329.799 294.218 345.682 294.209 373.619L294.215 408.45C294.22 411.268 294.353 415.404 294.195 418.096L285.23 418.096L285.235 383.287C285.239 367.357 287.785 352.605 274.983 341.017C268.865 335.48 264.162 331.992 256.183 329.408C241.692 334.17 229.163 344.727 226.63 360.71C224.35 375.102 226.649 402.462 226.253 418.096C222.845 418.222 219.77 418.168 216.356 418.096C219.022 417.955 217.548 413.976 217.572 411.116L217.593 388.499C217.582 384.818 217.433 380.591 217.602 376.975C219.448 374.918 219.047 372.626 217.602 370.51C216.694 344.164 232.106 328.173 256.183 320.343Z"/><path fill="#C7603F" transform="scale(2 2)" d="M237.841 213.511L249.475 213.511L249.475 224.244C253.003 224.297 256.495 224.271 260.023 224.244L260.023 213.511C262.753 213.528 268.954 213.742 271.499 213.511L271.499 224.244C274.184 224.256 278.301 224.401 280.87 224.244L282.046 224.172C282.147 224.015 281.718 214.771 281.727 213.511L294.195 213.511C294.369 216.562 294.209 221.083 294.195 224.244L302.596 224.244L302.596 213.511C304.289 213.682 305.874 213.576 307.572 213.511L307.598 227.067C307.605 228.628 307.736 232.473 307.572 233.75C300.204 233.944 291.879 233.756 284.445 233.753L231.792 233.749C223.149 233.748 213.92 233.558 205.344 233.75C205.068 232.768 205.335 225.768 205.344 224.244C205.526 221.782 205.021 215.082 206.024 213.511C210.019 213.755 208.024 219.914 208.068 224.244L217.602 224.244C217.9 220.308 217.882 217.512 217.602 213.511L228.519 213.511C229.093 218.243 228.836 219.577 228.519 224.244C230.027 224.236 232.03 224.167 233.496 224.244L237.841 224.244L237.841 213.511Z"/><path fill="#AC866E" transform="scale(2 2)" d="M217.602 376.975C214.401 376.567 199.005 379.086 204.419 370.937C205.51 370.054 215.684 370.5 217.602 370.51C219.047 372.626 219.448 374.918 217.602 376.975Z"/><path fill="#393B4F" transform="scale(2 2)" d="M256.183 242.435C268.993 251.459 268.909 251.69 268.764 266.105L268.76 283.23C270.769 284.312 271.267 285.716 269.96 287.66C269.018 288.331 231.95 291.23 243.497 283.23C243.294 276.23 243.707 269 243.38 262.082C242.931 252.562 248.094 246.518 256.183 242.435Z"/><path fill="#CA7E45" transform="scale(2 2)" d="M256.183 242.435C268.993 251.459 268.909 251.69 268.764 266.105L268.76 283.23C265.669 283.269 266.628 281.423 266.495 278.918C266.377 264.985 270.402 253.362 255.751 245.884C240.963 254.899 245.32 268.005 245.244 283.23L243.497 283.23C243.294 276.23 243.707 269 243.38 262.082C242.931 252.562 248.094 246.518 256.183 242.435Z"/><path fill="#C7603F" transform="scale(2 2)" d="M266.495 283.23C266.422 281.609 266.414 280.537 266.495 278.918C266.628 281.423 265.669 283.269 268.76 283.23C270.769 284.312 271.267 285.716 269.96 287.66C269.018 288.331 231.95 291.23 243.497 283.23L245.244 283.23C251.587 282.943 260.02 283.22 266.495 283.23Z"/><path fill="#393B4F" transform="scale(2 2)" d="M294.195 242.435C317.275 255.843 301.439 274.893 307.406 283.176L307.572 283.23C309.105 284.204 308.774 287.453 307.416 288.466C305.155 288.684 273.031 291.568 281.727 283.23C281.283 265.899 277.685 251.545 294.195 242.435Z"/><path fill="#CA7E45" transform="scale(2 2)" d="M294.195 242.435C317.275 255.843 301.439 274.893 307.406 283.176L307.572 283.23C306.184 283.437 305.902 283.4 304.498 283.23L304.519 267.702C304.534 255.616 304.809 252.961 294.195 245.884C279.388 252.73 283.754 269.318 283.756 283.23C283.028 283.456 282.489 283.319 281.727 283.23C281.283 265.899 277.685 251.545 294.195 242.435Z"/><path fill="#C7603F" transform="scale(2 2)" d="M283.756 283.23C284.411 283.466 302.541 283.227 304.498 283.23C305.902 283.4 306.184 283.437 307.572 283.23C309.105 284.204 308.774 287.453 307.416 288.466C305.155 288.684 273.031 291.568 281.727 283.23C282.489 283.319 283.028 283.456 283.756 283.23Z"/><path fill="#393B4F" transform="scale(2 2)" d="M218.52 242.435C229.614 250.161 231.48 253.556 230.673 267.256C230.365 272.477 230.99 277.442 230.209 282.923L230.646 283.23C232.69 284.025 232.767 286.741 231.436 287.986C228.768 288.672 206.775 288.771 204.96 287.708C202.601 284.218 205.466 284.39 206.024 282.77C205.474 275.959 206.415 268.168 206.014 261.313C205.41 250.994 211.219 247.896 218.52 242.435Z"/><path fill="#CA7E45" transform="scale(2 2)" d="M218.52 242.435C229.614 250.161 231.48 253.556 230.673 267.256C230.365 272.477 230.99 277.442 230.209 282.923L230.646 283.23C229.981 283.274 229.196 283.239 228.519 283.23L228.548 267.676C228.565 254.541 228.747 254.113 218.52 245.884C203.209 257.863 208.03 262.769 208.068 282.77C207.435 283.033 207.101 283.232 206.41 283.232L206.024 282.77C205.474 275.959 206.415 268.168 206.014 261.313C205.41 250.994 211.219 247.896 218.52 242.435Z"/><path fill="#C7603F" transform="scale(2 2)" d="M206.024 282.77L206.41 283.232C207.101 283.232 207.435 283.033 208.068 282.77C209.205 284.033 225.779 283.237 228.519 283.23C229.196 283.239 229.981 283.274 230.646 283.23C232.69 284.025 232.767 286.741 231.436 287.986C228.768 288.672 206.775 288.771 204.96 287.708C202.601 284.218 205.466 284.39 206.024 282.77Z"/><path fill="#AC866E" transform="scale(2 2)" d="M299.714 346.295C305.378 346.115 311.998 346.286 317.752 346.295C317.923 348.253 318.521 351.459 317.113 352.938C313.001 352.949 290.611 355.638 299.714 346.295Z"/><path fill="#AC866E" transform="scale(2 2)" d="M290.594 334.177C299.034 334.12 310.148 330.7 307.572 340.503C303.68 341.178 295.527 340.258 291.333 340.274C289.611 340.28 290.181 335.373 290.594 334.177Z"/><path fill="#AC866E" transform="scale(2 2)" d="M214.226 300.244C217.521 300.186 232.516 298.456 226.253 306.283C223.398 306.299 208.003 308.059 214.226 300.244Z"/><path fill="#AC866E" transform="scale(2 2)" d="M209.743 309.12C210.824 309.111 217.353 308.871 218.199 309.533C220.209 311.108 220.118 315.239 215.275 315.21C209.49 315.22 204.335 317.196 206.024 309.12L209.743 309.12Z"/><path fill="#AC866E" transform="scale(2 2)" d="M190.332 380.277C193.89 380.195 202.194 378.94 199.713 384.919C199.479 385.483 198.57 385.751 198.058 385.916C187.813 387.864 185.962 382.222 190.332 380.277Z"/><path fill="#AC866E" transform="scale(2 2)" d="M299.714 396.229C303.461 396.201 313.875 394.822 308.885 401.779C304.801 402.237 296.257 403.021 299.714 396.229Z"/><path fill="#AC866E" transform="scale(2 2)" d="M314.038 384.349C317.381 384.237 324.377 382.983 322.591 388.536C322.36 389.252 322.009 389.407 321.387 389.731C317.584 389.867 310.405 391.106 312.939 384.87C313.087 384.505 313.634 384.476 314.038 384.349Z"/><path fill="#AEA7A5" transform="scale(2 2)" d="M72.5543 294.756C72.7837 294.683 140.614 294.479 144.014 294.756L144.014 310.119C145.207 310.108 146.823 310.044 147.98 310.119C148.157 309.519 147.967 302.855 147.98 301.747L158.949 301.747C159.003 304.474 158.914 307.345 158.949 310.119C161.363 310.284 164.689 310.282 167.073 310.119C167.171 307.572 166.961 304.957 167.073 302.285C177.422 299.925 178.456 300.61 178.066 310.119L185.241 310.119C185.224 307.49 185.24 304.884 185.637 302.285C185.943 306.716 185.6 312.306 185.637 316.889C185.655 318.577 185.72 320.515 185.637 322.177L185.636 400.486C185.636 402.797 185.119 417.242 185.637 418.096L87.0623 418.106C83.8557 418.113 78.5033 418.342 75.5535 418.096L72.5543 418.096C72.7988 414.293 72.565 410.458 72.5603 406.63L72.5543 310.775L72.5543 294.756Z"/><path fill="#767480" transform="scale(2 2)" d="M147.98 301.747L158.949 301.747C159.003 304.474 158.914 307.345 158.949 310.119C161.363 310.284 164.689 310.282 167.073 310.119C167.171 307.572 166.961 304.957 167.073 302.285C177.422 299.925 178.456 300.61 178.066 310.119L185.241 310.119C185.224 307.49 185.24 304.884 185.637 302.285C185.943 306.716 185.6 312.306 185.637 316.889C185.655 318.577 185.72 320.515 185.637 322.177L185.636 400.486C185.636 402.797 185.119 417.242 185.637 418.096L87.0623 418.106C83.8557 418.113 78.5033 418.342 75.5535 418.096C80.5863 417.941 86.187 418.089 91.2702 418.092L121.408 418.096L144.014 418.096L144.014 322.177C144.131 319.054 143.845 315.869 144.014 312.894C144.138 309.874 145.355 310.506 147.98 310.119C148.157 309.519 147.967 302.855 147.98 301.747Z"/><path fill="#393B4F" transform="scale(2 2)" d="M147.98 301.747L158.949 301.747C159.003 304.474 158.914 307.345 158.949 310.119C161.363 310.284 164.689 310.282 167.073 310.119C167.171 307.572 166.961 304.957 167.073 302.285C177.422 299.925 178.456 300.61 178.066 310.119L185.241 310.119C185.224 307.49 185.24 304.884 185.637 302.285C185.943 306.716 185.6 312.306 185.637 316.889C185.655 318.577 185.72 320.515 185.637 322.177L160.945 322.184C155.437 322.192 149.469 322.324 144.014 322.177C144.131 319.054 143.845 315.869 144.014 312.894C144.138 309.874 145.355 310.506 147.98 310.119C148.157 309.519 147.967 302.855 147.98 301.747Z"/><path fill="#615F6F" transform="scale(2 2)" d="M144.014 322.177C144.131 319.054 143.845 315.869 144.014 312.894C144.042 314.261 144.07 315.517 144.014 316.889L185.637 316.889C185.655 318.577 185.72 320.515 185.637 322.177L160.945 322.184C155.437 322.192 149.469 322.324 144.014 322.177Z"/><path fill="#A49E9E" transform="scale(2 2)" d="M155.757 352.938L170.725 352.938L170.725 363.115L155.757 363.115C155.675 359.826 155.749 356.248 155.757 352.938Z"/><path fill="#A49E9E" transform="scale(2 2)" d="M164.947 367.001L178.066 367.001L178.066 376.975C175.202 377.223 168.13 376.984 164.947 376.975L164.947 367.001Z"/><path fill="#99918F" transform="scale(2 2)" d="M72.5543 294.756C72.7837 294.683 140.614 294.479 144.014 294.756L144.014 310.119C145.207 310.108 146.823 310.044 147.98 310.119C145.355 310.506 144.138 309.874 144.014 312.894C143.845 315.869 144.131 319.054 144.014 322.177L144.014 418.096L121.408 418.096C121.241 414.617 121.388 410.308 121.39 406.743L121.416 386.663C121.445 382.694 121.603 379.068 121.408 375.089C118.171 375.088 94.7149 375.39 94.0428 375.089C89.6078 375.022 87.6784 369.337 94.0428 369.506C95.3127 369.523 96.5302 369.543 97.802 369.506C104.089 370.221 111.609 369.496 118.019 369.506C121.315 369.469 125.641 369.652 128.743 369.506C126.639 369.195 123.583 369.395 121.408 369.506L121.467 368.781C121.59 367.283 121.655 344.136 121.408 343.227L121.396 321.248C121.387 318.169 121.091 313.609 121.408 310.775L88.0497 310.775C84.073 310.772 75.9846 310.456 72.5543 310.775L72.5543 294.756Z"/><path fill="#955229" transform="scale(2 2)" d="M118.019 369.506C121.315 369.469 125.641 369.652 128.743 369.506C128.727 371.372 128.704 373.224 128.743 375.089L105.364 375.076C102.298 375.074 96.871 374.904 94.0428 375.089C89.6078 375.022 87.6784 369.337 94.0428 369.506C95.3127 369.523 96.5302 369.543 97.802 369.506C104.089 370.221 111.609 369.496 118.019 369.506Z"/><path fill="#393B4F" transform="scale(2 2)" d="M107.793 325.052C111.233 330.393 117.479 338.104 121.408 343.227C121.655 344.136 121.59 367.283 121.467 368.781L121.408 369.506C123.583 369.395 126.639 369.195 128.743 369.506C125.641 369.652 121.315 369.469 118.019 369.506C111.609 369.496 104.089 370.221 97.802 369.506C96.5302 369.543 95.3127 369.523 94.0428 369.506C94.021 354.745 90.5426 347.871 99.0425 336.666L107.793 325.052Z"/><path fill="#CA7E45" transform="scale(2 2)" d="M107.793 325.052C111.233 330.393 117.479 338.104 121.408 343.227C121.655 344.136 121.59 367.283 121.467 368.781L121.408 369.506C123.583 369.395 126.639 369.195 128.743 369.506C125.641 369.652 121.315 369.469 118.019 369.506C117.908 345.41 121.626 349.703 107.793 331.325C104.845 335.822 100.36 341.126 97.802 345.583C97.574 353.118 97.7994 361.871 97.802 369.506C96.5302 369.543 95.3127 369.523 94.0428 369.506C94.021 354.745 90.5426 347.871 99.0425 336.666L107.793 325.052Z"/><path fill="#EFBE81" transform="scale(2 2)" d="M94.0428 241.698C94.0393 244.953 93.9249 248.885 94.0428 252.082L97.802 252.082C106.982 251.853 103.676 255.426 103.75 265.762L116.504 265.762C116.495 261.446 116.347 256.332 116.504 252.082C133.222 251.939 132.459 248.252 132.43 265.762C135.098 265.768 143.091 266.053 145.24 265.762C145.196 249.953 142.74 251.386 160.373 252.082C160.759 266.131 159.792 280.784 160.373 294.756L149.455 294.796C148.37 294.807 144.931 294.915 144.014 294.756C140.614 294.479 72.7837 294.683 72.5543 294.756C71.8583 294.473 60.955 294.755 59.2604 294.756L59.2604 252.082C64.1115 252.28 70.5851 252.089 75.5535 252.082L75.5535 265.762L88.6493 265.762C88.6675 261.266 88.4854 256.548 88.6493 252.082C90.1175 251.956 92.4986 252.058 94.0428 252.082C93.7508 248.226 93.6868 245.567 94.0428 241.698Z"/><path fill="#FBD69B" transform="scale(2 2)" d="M391.251 252.082C392.166 252.053 392.871 252.029 393.782 252.082L393.782 261.477C393.934 262.704 393.818 264.487 393.782 265.762C398.082 265.657 402.209 265.703 406.503 265.762C406.481 261.205 406.44 256.638 406.503 252.082C409.316 252.318 415.332 252.1 418.291 252.082C418.369 257.856 419.115 291.492 417.78 294.756L367.998 294.756L351.115 294.756L351.115 252.082L364.996 252.082L364.996 265.762C369.235 265.83 373.594 265.771 377.843 265.762L377.843 252.082L387.748 252.082L390.634 252.082L391.251 252.082Z"/><path fill="#EFBE81" transform="scale(2 2)" d="M391.251 252.082C392.166 252.053 392.871 252.029 393.782 252.082L393.782 261.477C393.657 262.651 393.755 264.53 393.782 265.762L390.634 265.762C390.682 261.865 390.199 255.389 390.634 252.082L391.251 252.082Z"/><path fill="#393B4F" transform="scale(2 2)" d="M72.5543 418.096L75.5535 418.096C78.5033 418.342 83.8557 418.113 87.0623 418.106L185.637 418.096L216.356 418.096C219.77 418.168 222.845 418.222 226.253 418.096L285.23 418.096L294.195 418.096C305.062 418.106 316.287 418.245 327.128 418.096L367.998 418.096L418.291 418.096L439.245 418.096C443.136 418.092 476.362 414.674 469.664 422.557C467.105 423.208 459.278 423.076 456.314 423.077L46.4659 423.103C43.7658 423.105 40.1501 421.973 42.8211 418.61C44.8708 417.688 68.652 418.091 72.5543 418.096Z"/><defs><linearGradient id="gradient_0" gradientUnits="userSpaceOnUse" x1="290.67706" y1="148.90167" x2="238.52917" y2="124.46339"><stop offset="0" stop-color="#242848"/><stop offset="1" stop-color="#62637D"/></linearGradient></defs><path fill="url(#gradient_0)" transform="scale(2 2)" d="M233.496 165.98C223.21 166.085 228.591 161.397 232.517 154.639C239.816 142.171 247.659 130.152 254.588 117.46C256.96 113.115 251.482 85.2404 257.991 87.6939C259.692 87.9403 261.285 87.8396 262.995 87.6939C262.558 93.5773 265.38 99.1969 265.544 105.962C262.899 106.374 260.679 106.752 257.991 106.873C257.975 108.7 257.629 117.157 258.177 118.137C266.39 132.811 275.164 147.271 283.28 162.009C285.622 166.262 281.595 165.978 278.487 165.98L233.496 165.98Z"/><defs><linearGradient id="gradient_1" gradientUnits="userSpaceOnUse" x1="256.92157" y1="97.745415" x2="263.53769" y2="96.680672"><stop offset="0" stop-color="#EF772E"/><stop offset="1" stop-color="#FF9E3B"/></linearGradient></defs><path fill="url(#gradient_1)" transform="scale(2 2)" d="M257.991 87.6939C259.692 87.9403 261.285 87.8396 262.995 87.6939C262.558 93.5773 265.38 99.1969 265.544 105.962C262.899 106.374 260.679 106.752 257.991 106.873L257.991 87.6939Z"/><path fill="#AEA7A5" transform="scale(2 2)" d="M198.058 195.26C201.231 195.373 203.012 195.575 206.024 194.726C206.126 197.303 206.571 211.822 206.024 213.511C205.021 215.082 205.526 221.782 205.344 224.244C205.335 225.768 205.068 232.768 205.344 233.75C204.464 236.9 194.1 251.949 191.653 254.956C190.446 252.754 188.059 248.573 186.141 246.945C184.123 241.952 179.508 238.238 177.782 233.409C176.642 230.218 177.574 200.73 177.361 194.726C182.892 195.646 192.214 195.14 198.058 195.26Z"/><path fill="#A49E9E" transform="scale(2 2)" d="M198.058 195.26C201.231 195.373 203.012 195.575 206.024 194.726C206.126 197.303 206.571 211.822 206.024 213.511C205.021 215.082 205.526 221.782 205.344 224.244C201.845 224.407 198.371 221.734 198.058 218.238C198.257 216.486 198.152 215.269 198.058 213.511C199.05 213.477 199.124 213.653 199.737 213.154C198.819 207.477 198.066 201.005 198.058 195.26Z"/><path fill="#C7603F" transform="scale(2 2)" d="M198.058 218.238C192.553 219.207 194.024 210.757 198.058 213.511C198.152 215.269 198.257 216.486 198.058 218.238Z"/><path fill="#A49E9E" transform="scale(2 2)" d="M326.602 195.26C329.66 195.423 332.298 195.757 335.212 194.726L335.212 210.311C335.287 237.541 338.03 227.821 326.034 248.039C324.585 249.615 322.542 253.03 321.387 254.956C318.876 250.817 308.123 236.981 307.572 233.75C307.736 232.473 307.605 228.628 307.598 227.067L307.572 213.511C305.874 213.576 304.289 213.682 302.596 213.511C303.897 213.418 306.196 213.503 307.572 213.511C307.55 207.508 307.747 201.218 307.572 195.26C313.316 195.221 321.143 195.588 326.602 195.26Z"/><path fill="#99918F" transform="scale(2 2)" d="M326.602 195.26C329.66 195.423 332.298 195.757 335.212 194.726L335.212 210.311C334.948 210.732 335.214 219.964 335.212 221.315C332.529 221.324 322.697 222.079 321.761 219.042L321.881 218.471C322.699 218.042 324.257 218.156 325.206 218.238C321.392 212.629 323.124 202.359 326.602 196.997L326.602 195.26Z"/><path fill="#AEA7A5" transform="scale(2 2)" d="M326.602 196.997C327.746 203.404 329.038 208.426 330.687 214.712C329.554 215.776 326.657 217.419 325.206 218.238C321.392 212.629 323.124 202.359 326.602 196.997Z"/><path fill="#99918F" transform="scale(2 2)" d="M191.653 162.76L194.395 162.76L196.013 162.76L199.264 162.76L199.264 171.273L204.084 171.273L204.084 162.76L216.356 162.76C216.365 168.623 216.666 177.103 216.356 182.748C214.052 185.449 208.258 192.726 206.024 194.726C203.012 195.575 201.231 195.373 198.058 195.26C192.214 195.14 182.892 195.646 177.361 194.726C176.562 191.823 172.502 187.494 170.725 184.038C167.651 181.764 168.993 167.281 169.009 163.255C171.784 162.5 179.912 162.748 183.218 162.76L183.218 171.273L187.771 171.273C187.749 168.423 187.731 165.61 187.771 162.76L191.653 162.76Z"/><path fill="#AEA7A5" transform="scale(2 2)" d="M191.653 162.76L194.395 162.76L196.013 162.76L195.132 163.201C194.427 169.699 195.489 178.065 195.099 184.862C192.2 184.867 171.301 183.824 170.725 184.038C167.651 181.764 168.993 167.281 169.009 163.255C171.784 162.5 179.912 162.748 183.218 162.76L183.218 171.273L187.771 171.273C187.749 168.423 187.731 165.61 187.771 162.76L191.653 162.76Z"/><path fill="#99918F" transform="scale(2 2)" d="M315.017 157.176C315.302 159.085 315.112 161.3 315.017 163.255L317.752 163.255L327.989 163.255C327.85 166.267 327.907 168.761 327.989 171.772C329.798 171.777 331.718 171.814 333.516 171.772C333.506 168.958 333.459 166.061 333.516 163.255L345.368 163.255L345.391 175.994C345.395 177.751 345.521 181.144 345.368 182.748C345.03 183.186 343.46 185.289 343.177 185.556C340.5 188.454 338.034 192.039 335.212 194.726C332.298 195.757 329.66 195.423 326.602 195.26C321.143 195.588 313.316 195.221 307.572 195.26C304.978 191.494 302.82 188.812 299.714 185.556C299.069 184.882 297.409 182.642 296.751 181.803C296.563 176.005 296.746 169.136 296.751 163.255C300.12 163.311 303.284 163.361 306.651 163.255C306.214 167.108 306.206 167.889 306.651 171.772L311.991 171.772C312.143 168.656 311.769 166.311 312.628 163.255C316.459 163.793 314.89 159.978 315.017 157.176Z"/><path fill="#AEA7A5" transform="scale(2 2)" d="M315.017 157.176C315.302 159.085 315.112 161.3 315.017 163.255L317.752 163.255C317.514 169.742 317.751 178.229 317.752 184.862C315.192 184.804 309.103 184.564 306.651 184.862C305.169 184.905 300.782 184.882 299.714 185.556C299.069 184.882 297.409 182.642 296.751 181.803C296.563 176.005 296.746 169.136 296.751 163.255C300.12 163.311 303.284 163.361 306.651 163.255C306.214 167.108 306.206 167.889 306.651 171.772L311.991 171.772C312.143 168.656 311.769 166.311 312.628 163.255C316.459 163.793 314.89 159.978 315.017 157.176Z"/><path fill="#8E8382" transform="scale(2 2)" d="M306.651 184.862C311.035 185.168 341.054 183.846 343.177 185.556C340.5 188.454 338.034 192.039 335.212 194.726C332.298 195.757 329.66 195.423 326.602 195.26C321.143 195.588 313.316 195.221 307.572 195.26C304.978 191.494 302.82 188.812 299.714 185.556C300.782 184.882 305.169 184.905 306.651 184.862Z"/><path fill="#EFBE81" transform="scale(2 2)" d="M418.291 252.082L423.45 252.082L423.45 265.762C428.078 265.761 432.805 265.708 437.425 265.762C437.512 261.298 437.185 256.327 437.425 252.082L453.084 252.082L453.087 279.236C453.093 284.099 453.292 289.994 453.084 294.756C448.462 294.729 443.867 294.691 439.245 294.756L417.78 294.756C419.115 291.492 418.369 257.856 418.291 252.082Z"/><path fill="#767480" transform="scale(2 2)" d="M396.973 204.802C409.964 202.134 406.27 207.596 409.046 210.311C409.239 211.623 409.132 223.055 409.046 224.862C404.056 224.23 402.625 222.58 396.973 224.862C395.157 225.632 393.215 226.571 391.251 226.769C391.254 234.999 391.44 243.913 391.251 252.082L390.634 252.082L387.748 252.082L387.747 220.924C387.745 218.132 385.655 201.945 390.634 205.706C392.305 205.915 395.263 205.207 396.973 204.802Z"/><defs><linearGradient id="gradient_2" gradientUnits="userSpaceOnUse" x1="396.84448" y1="214.68388" x2="408.52957" y2="214.16121"><stop offset="0" stop-color="#FFBE38"/><stop offset="1" stop-color="#FFDB48"/></linearGradient></defs><path fill="url(#gradient_2)" transform="scale(2 2)" d="M396.973 204.802C409.964 202.134 406.27 207.596 409.046 210.311C409.239 211.623 409.132 223.055 409.046 224.862C404.056 224.23 402.625 222.58 396.973 224.862C396.962 218.503 397.232 211.018 396.973 204.802Z"/><path fill="#EB602E" transform="scale(2 2)" d="M390.634 205.706C392.305 205.915 395.263 205.207 396.973 204.802C397.232 211.018 396.962 218.503 396.973 224.862C395.157 225.632 393.215 226.571 391.251 226.769C390.345 223.453 390.622 209.865 390.634 205.706Z"/><path fill="#FBD69B" transform="scale(2 2)" d="M100.236 205.706C102.537 205.502 113.474 205.456 115.274 206.192C115.905 207.45 114.607 209.058 115.309 210.311C115.421 214.859 115.327 219.677 115.309 224.244C112.111 224.393 106.927 224.375 103.75 224.244C101.841 224.298 99.7278 224.248 97.802 224.244C97.8024 233.167 98.0464 243.272 97.802 252.082L94.0428 252.082C93.9249 248.885 94.0393 244.953 94.0428 241.698L94.0428 205.706L97.802 205.706L100.236 205.706Z"/><path fill="#615F6F" transform="scale(2 2)" d="M94.0428 205.706L97.802 205.706C97.8122 210.228 98.1497 220.08 97.802 224.244C97.8024 233.167 98.0464 243.272 97.802 252.082L94.0428 252.082C93.9249 248.885 94.0393 244.953 94.0428 241.698L94.0428 205.706Z"/><path fill="#FA8C2D" transform="scale(2 2)" d="M97.802 205.706L100.236 205.706C101.182 205.766 102.251 205.868 103.185 205.843L101.123 205.706C101.083 212.366 101.025 217.035 101.67 223.622C103.159 223.701 102.859 223.454 103.75 224.244C101.841 224.298 99.7278 224.248 97.802 224.244C98.1497 220.08 97.8122 210.228 97.802 205.706Z"/><defs><linearGradient id="gradient_3" gradientUnits="userSpaceOnUse" x1="264.02582" y1="97.946968" x2="274.96085" y2="96.657158"><stop offset="0" stop-color="#FDBC37"/><stop offset="1" stop-color="#FFE24A"/></linearGradient></defs><path fill="url(#gradient_3)" transform="scale(2 2)" d="M262.995 87.6939C266.295 87.684 269.982 87.535 273.22 87.6939C273.173 89.8016 272.473 92.274 275.237 92.125C279.302 92.126 283.758 91.9283 287.745 92.125C280.773 97.447 279.878 101.697 287.745 107.882C285.987 108.295 275.351 110.973 275.237 108.772C274.667 105.295 268.201 105.706 265.544 105.962C265.38 99.1969 262.558 93.5773 262.995 87.6939Z"/><path fill="#C7603F" transform="scale(2 2)" d="M275.237 92.125C279.302 92.126 283.758 91.9283 287.745 92.125C280.773 97.447 279.878 101.697 287.745 107.882C285.987 108.295 275.351 110.973 275.237 108.772L275.237 92.125Z"/><path fill="#FBD69B" transform="scale(2 2)" d="M198.058 124.284C201.197 124.274 204.576 124.204 207.695 124.284C207.695 125.169 207.526 127.19 208.068 127.759C208.662 131.063 208.785 134.924 208.068 138.213C205.055 138.341 202.577 137.923 199.264 138.213C198.06 138.231 195.343 138.114 194.395 138.213L194.395 162.76L191.653 162.76L191.652 136.889C191.647 131.718 189.276 123.727 194.395 124.284C195.586 124.297 196.876 124.339 198.058 124.284Z"/><defs><linearGradient id="gradient_4" gradientUnits="userSpaceOnUse" x1="197.85332" y1="144.42363" x2="188.15311" y2="142.29701"><stop offset="0" stop-color="#757674"/><stop offset="1" stop-color="#635E7C"/></linearGradient></defs><path fill="url(#gradient_4)" transform="scale(2 2)" d="M191.653 162.76L191.652 136.889C191.647 131.718 189.276 123.727 194.395 124.284C194.368 127.871 194.114 134.883 194.395 138.213L194.395 162.76L191.653 162.76Z"/><path fill="#FA8C2D" transform="scale(2 2)" d="M194.395 124.284C195.586 124.297 196.876 124.339 198.058 124.284C197.365 127.684 198.255 134.791 199.264 138.213C198.06 138.231 195.343 138.114 194.395 138.213C194.114 134.883 194.368 127.871 194.395 124.284Z"/><path fill="#C7603F" transform="scale(2 2)" d="M115.309 210.311C119.622 210.613 124.333 210.189 128.743 210.311C120.527 222.314 123.526 217.577 128.743 228.809L115.309 228.809L115.309 224.244C115.327 219.677 115.421 214.859 115.309 210.311Z"/><path fill="#AA3C3A" transform="scale(2 2)" d="M409.046 210.311C413.901 210.217 416.829 209.152 422.259 209.249C413.64 216.283 414.871 220.972 423.45 226.769C421.241 227.293 409.461 230.352 407.935 229.493C408.084 227.994 408.627 226.329 409.046 224.862C409.132 223.055 409.239 211.623 409.046 210.311Z"/><defs><linearGradient id="gradient_5" gradientUnits="userSpaceOnUse" x1="319.13034" y1="134.84009" x2="328.39615" y2="132.79364"><stop offset="0" stop-color="#FDC02F"/><stop offset="1" stop-color="#FFE245"/></linearGradient></defs><path fill="url(#gradient_5)" transform="scale(2 2)" d="M317.752 126.916C319.393 126.536 324.111 126.199 326.034 126.008C325.937 128.999 325.684 130.1 328.945 129.777L336.315 129.777C330.881 133.597 330.786 136.683 336.315 140.786C333.369 140.93 331.719 141.005 328.945 141.94C326.073 141.197 327.11 138.504 319.156 138.213C318.624 134.29 318.609 130.962 318.195 127.251L317.752 126.916Z"/><path fill="#EB602E" transform="scale(2 2)" d="M328.945 129.777L336.315 129.777C330.881 133.597 330.786 136.683 336.315 140.786C333.369 140.93 331.719 141.005 328.945 141.94C328.826 137.798 328.618 133.908 328.945 129.777Z"/><defs><linearGradient id="gradient_6" gradientUnits="userSpaceOnUse" x1="317.70694" y1="145.79575" x2="309.82144" y2="144.3042"><stop offset="0" stop-color="#636561"/><stop offset="1" stop-color="#60566E"/></linearGradient></defs><path fill="url(#gradient_6)" transform="scale(2 2)" d="M312.628 163.255C312.933 158.538 312.033 128.655 313.064 126.954C313.83 126.567 314.166 126.738 315.017 126.916C316.175 126.992 316.613 127.03 317.752 126.916L318.195 127.251C318.609 130.962 318.624 134.29 319.156 138.213C317.588 138.538 316.389 138.894 315.017 139.759C315.382 144.311 314.99 152.266 315.017 157.176C314.89 159.978 316.459 163.793 312.628 163.255Z"/><path fill="#FA8C2D" transform="scale(2 2)" d="M315.017 126.916C316.175 126.992 316.613 127.03 317.752 126.916L318.195 127.251C318.609 130.962 318.624 134.29 319.156 138.213C317.588 138.538 316.389 138.894 315.017 139.759C314.722 138.635 314.792 128.384 315.017 126.916Z"/><path fill="#C7603F" transform="scale(2 2)" d="M208.068 127.759C212.442 127.766 214.115 127.686 218.52 126.916C212.269 132.921 211.764 135.27 219.196 140.786C214.88 140.8 212.129 141.496 208.068 141.94C208.061 140.717 208.03 139.43 208.068 138.213C208.785 134.924 208.662 131.063 208.068 127.759Z"/></svg>