<?xml version="1.0" encoding="utf-8" ?><svg xmlns="http://www.w3.org/2000/svg" xmlns:xlink="http://www.w3.org/1999/xlink" width="1024" height="1024" viewBox="0 0 1024 1024"><path fill="#F0AF4A" transform="scale(2 2)" d="M241.427 185.667C244.516 189.352 247.814 192.786 251.031 196.356L269.744 216.832C266.871 220.298 260.832 227.496 258.399 231.099C258.278 233.471 247.18 244.754 246.728 246.434C245.099 252.496 243.308 264.909 243.33 270.929C242.847 271.414 242.698 271.507 242.366 272.095L243.33 273.23C249.939 273.011 258.418 270.047 265.53 269.447L265.53 269.447C283.993 267.679 285.319 257.413 299.689 246.085C308.952 254.845 310.896 256.426 322.157 258.969C326.825 259.856 334.096 261.179 338.618 262.411C329.394 274.477 314.452 294.83 304.253 305.432C300.334 304.444 296.533 304.109 292.867 303.259C289.001 302.641 282.885 301.811 279.268 300.833C261.332 319.843 241.428 343.03 224.567 363.005C206.524 384.382 161.304 396.943 133.221 400.904C132.274 401.205 130.78 401.81 129.866 401.467L129.659 400.904C130.507 384.801 132.251 364.991 137.436 349.659L150.446 312.201C153.911 301.847 152.946 302.602 160.367 294.849L202.967 250.433C207.338 245.966 213.463 239.026 218.15 235.204C215.875 230.821 213.907 225.648 211.932 221.039C212.856 219.727 214.66 217.774 215.741 216.484L222.833 208.011C229.265 200.481 235.223 193.373 241.427 185.667Z"/><defs><linearGradient id="gradient_0" gradientUnits="userSpaceOnUse" x1="231.61859" y1="321.11951" x2="167.42854" y2="281.24335"><stop offset="0" stop-color="#FEB62E"/><stop offset="1" stop-color="#FFDA76"/></linearGradient></defs><path fill="url(#gradient_0)" transform="scale(2 2)" d="M241.427 185.667C244.516 189.352 247.814 192.786 251.031 196.356L269.744 216.832C266.871 220.298 260.832 227.496 258.399 231.099C258.278 233.471 247.18 244.754 246.728 246.434C245.099 252.496 243.308 264.909 243.33 270.929C242.847 271.414 242.698 271.507 242.366 272.095L243.33 273.23L241.427 273.23C240.524 273.777 237.133 278.215 236.46 279.216C244.532 277.162 250.12 276.56 258.399 275.539C261.528 281.043 237.637 283.104 233.684 283.873C232.172 284.167 225.273 292.642 223.739 294.391L160.126 364.991C155.796 369.826 149.697 378.896 144.902 382.201C140.021 385.565 133.917 397.231 129.659 400.904C130.507 384.801 132.251 364.991 137.436 349.659L150.446 312.201C153.911 301.847 152.946 302.602 160.367 294.849L202.967 250.433C207.338 245.966 213.463 239.026 218.15 235.204C215.875 230.821 213.907 225.648 211.932 221.039C212.856 219.727 214.66 217.774 215.741 216.484L222.833 208.011C229.265 200.481 235.223 193.373 241.427 185.667Z"/><path fill="#FEFEFE" transform="scale(2 2)" d="M258.399 231.099C258.278 233.471 247.18 244.754 246.728 246.434C245.099 252.496 243.308 264.909 243.33 270.929C242.847 271.414 242.698 271.507 242.366 272.095L243.33 273.23L241.427 273.23C241.198 266.678 244.22 251.8 245.732 245.186C246.049 243.804 256.48 232.971 258.399 231.099Z"/><path fill="#F9CB72" transform="scale(2 2)" d="M248.244 233.474C249.511 234.702 242.909 239.298 242.221 240.414C240.048 243.935 235.981 272.12 234.072 279.486C233.537 281.55 231.759 283.252 229.889 284.211C229.145 282.863 238.215 244.258 239.139 239.143C239.224 238.676 246.957 234.322 248.244 233.474Z"/><path fill="#E0A545" transform="scale(2 2)" d="M323.397 260.266C325.514 260.349 336.171 261.767 337.29 262.966C336.696 264.227 304.271 304.549 303.942 304.729C300.877 303.977 296.128 303.253 292.94 302.761L292.867 303.259C289.001 302.641 282.885 301.811 279.268 300.833C261.332 319.843 241.428 343.03 224.567 363.005C206.524 384.382 161.304 396.943 133.221 400.904C133.752 398.363 146.025 392.995 148.735 391.69L168.162 382.225C170.167 381.227 174.872 379.017 176.428 377.775C178.524 377.302 210.909 361.255 212.964 359.521C216.681 356.387 221.509 349.822 224.848 345.974L273.458 290.296C277.361 285.854 299.63 295.679 302.334 291.823C305.877 286.07 310.543 280.902 314.292 275.345C317.46 270.649 320.025 265.218 323.228 260.511L323.397 260.266Z"/><path fill="#D48F36" transform="scale(2 2)" d="M322.157 258.969C326.825 259.856 334.096 261.179 338.618 262.411C329.394 274.477 314.452 294.83 304.253 305.432C300.334 304.444 296.533 304.109 292.867 303.259L292.94 302.761C296.128 303.253 300.877 303.977 303.942 304.729C304.271 304.549 336.696 264.227 337.29 262.966C336.171 261.767 325.514 260.349 323.397 260.266L323.228 260.511C320.025 265.218 317.46 270.649 314.292 275.345C310.543 280.902 305.877 286.07 302.334 291.823C299.63 295.679 277.361 285.854 273.458 290.296L224.848 345.974C221.509 349.822 216.681 356.387 212.964 359.521C210.909 361.255 178.524 377.302 176.428 377.775C165.67 381.36 144.62 393.296 133.86 398.643C132.806 399.167 132.419 400.897 130.781 400.976L130.68 400.73C133.535 395.436 142.403 385.137 146.798 381.455C147.143 381.166 157.156 376.949 159.089 375.902C174.144 367.746 190.242 360.164 204.806 351.711C207.542 349.618 210.133 346.577 212.343 344.008C227.004 326.97 242.042 310.334 256.617 293.211C271.477 275.753 262.788 281.023 283.602 277.061C285.793 273.598 293.048 264.799 295.987 261.537C300.25 263.61 310.777 270.404 314.986 273.23C316.532 270.727 323.451 261.075 322.157 258.969Z"/><path fill="#C0C3CD" transform="scale(2 2)" d="M283.602 160.315C290.902 152.297 297.8 148.797 308.35 153.31C309.692 153.884 312.577 155.359 313.914 155.434C314.34 155.586 318.767 155.161 320.801 155.434C326.924 158.145 327.855 157.952 334.075 161.859C337.581 164.458 344.454 165.795 345.475 166.859L345.475 167.776C345.524 174.008 348.62 182.221 351.712 187.512C353.32 190.412 354.294 192.078 356.457 194.565C356.563 196.703 358.681 199.505 359.568 201.591C371.108 228.738 348.456 238.42 346.33 232.611C346.536 227.834 361.007 220.582 344.109 205.906C342.105 207.306 341.779 207.654 340.162 209.62C333.754 213.517 301.263 243.394 299.689 246.085C285.319 257.413 283.993 267.679 265.53 269.447L265.53 269.447C258.418 270.047 249.939 273.011 243.33 273.23L242.366 272.095C242.698 271.507 242.847 271.414 243.33 270.929C243.308 264.909 245.099 252.496 246.728 246.434C247.18 244.754 258.278 233.471 258.399 231.099C260.832 227.496 266.871 220.298 269.744 216.832C275.147 208.907 297.633 176.341 304.253 171.186C302.516 168.545 294.343 166.084 291.096 166.122C285.751 166.184 272.625 171.388 283.602 160.315Z"/><path fill="#DFDFDF" transform="scale(2 2)" d="M283.602 160.315C290.902 152.297 297.8 148.797 308.35 153.31C309.692 153.884 312.577 155.359 313.914 155.434C314.34 155.586 318.767 155.161 320.801 155.434C326.924 158.145 327.855 157.952 334.075 161.859C337.581 164.458 344.454 165.795 345.475 166.859L345.475 167.776L344.109 168.629C332.403 179.71 320.19 191.628 308.734 203.065L256.111 256.519C250.727 261.881 247.878 265.563 243.33 270.929C243.308 264.909 245.099 252.496 246.728 246.434C247.18 244.754 258.278 233.471 258.399 231.099C260.832 227.496 266.871 220.298 269.744 216.832C275.147 208.907 297.633 176.341 304.253 171.186C302.516 168.545 294.343 166.084 291.096 166.122C285.751 166.184 272.625 171.388 283.602 160.315Z"/><path fill="#C0C3CD" transform="scale(2 2)" d="M283.602 160.315C283.774 160.563 283.987 161.046 284.282 160.991C299.692 158.115 302.237 165.819 313.914 174.318C313.596 176.816 312.898 180.95 312.876 183.294C310.422 176.683 306.102 176.27 304.253 171.186C302.516 168.545 294.343 166.084 291.096 166.122C285.751 166.184 272.625 171.388 283.602 160.315Z"/><path fill="#AFB9C7" transform="scale(2 2)" d="M344.109 168.629L345.475 167.776C345.524 174.008 348.62 182.221 351.712 187.512C353.32 190.412 354.294 192.078 356.457 194.565C356.563 196.703 358.681 199.505 359.568 201.591C371.108 228.738 348.456 238.42 346.33 232.611C346.536 227.834 361.007 220.582 344.109 205.906C342.105 207.306 341.779 207.654 340.162 209.62C332.996 205.039 326.557 199.487 319.753 195.336C325.612 188.449 334.245 183.211 339.962 176.172C340.719 175.24 348.836 171.556 344.109 168.629Z"/><path fill="#F9CB72" transform="scale(2 2)" d="M242.366 272.095C248.41 272.146 256.261 269.117 265.53 269.447L265.53 269.447C258.418 270.047 249.939 273.011 243.33 273.23L242.366 272.095Z"/><path fill="#F9CB72" transform="scale(2 2)" d="M409.828 49.7563C412.711 51.7961 415.646 54.1935 418.347 56.4657C426.927 62.5384 445.229 78.4838 449.718 87.6386C451.317 89.9527 454.404 96.4836 454.23 99.639C454.106 101.9 438.708 115.614 435.457 117.198L435.198 117.326C432.471 115.697 430.625 113.436 428.193 111.376C426.115 112.646 421.784 116.506 419.769 118.222L402.439 133.282C392.738 141.823 382.759 149.736 373.296 158.709C372.518 158.208 370.63 156.207 369.867 155.434L366.975 152.598L363.705 149.696C361.443 147.716 358.799 145.633 356.457 143.709C357.192 141.85 358.996 139.379 360.224 137.722C373.081 120.361 384.792 101.569 397.34 84.072L399.28 82.3111L399.28 81.2235C396.092 79.8047 392.926 76.0449 391.292 72.976C392.014 71.3663 406.748 52.729 409.828 49.7563Z"/><path fill="#F0AF4A" transform="scale(2 2)" d="M409.828 49.7563C412.711 51.7961 415.646 54.1935 418.347 56.4657C426.927 62.5384 445.229 78.4838 449.718 87.6386C442.744 94.9254 434.211 101.786 426.865 109.243C421.393 103.446 408.629 89.5339 402.006 85.4522L401.429 85.4522C400.4 84.3958 398.908 83.8013 399.28 82.3111L399.28 82.3111L399.28 81.2235C396.092 79.8047 392.926 76.0449 391.292 72.976C392.014 71.3663 406.748 52.729 409.828 49.7563Z"/><path fill="#F9CB72" transform="scale(2 2)" d="M409.828 49.7563C412.711 51.7961 415.646 54.1935 418.347 56.4657C415.693 59.217 400.798 78.4499 399.28 81.2235C396.092 79.8047 392.926 76.0449 391.292 72.976C392.014 71.3663 406.748 52.729 409.828 49.7563Z"/><path fill="#AC5C06" transform="scale(2 2)" d="M399.28 82.3111C400.357 83.2251 401.144 84.3367 402.006 85.4522L401.429 85.4522C400.4 84.3958 398.908 83.8013 399.28 82.3111Z"/><defs><linearGradient id="gradient_1" gradientUnits="userSpaceOnUse" x1="409.20538" y1="84.505341" x2="413.88623" y2="155.05379"><stop offset="0" stop-color="#B66718"/><stop offset="1" stop-color="#C8872C"/></linearGradient></defs><path fill="url(#gradient_1)" transform="scale(2 2)" d="M399.28 82.3111L399.28 82.3111C398.908 83.8013 400.4 84.3958 401.429 85.4522L402.006 85.4522C408.629 89.5339 421.393 103.446 426.865 109.243C434.211 101.786 442.744 94.9254 449.718 87.6386C451.317 89.9527 454.404 96.4836 454.23 99.639C454.106 101.9 438.708 115.614 435.457 117.198L435.198 117.326C432.471 115.697 430.625 113.436 428.193 111.376C426.115 112.646 421.784 116.506 419.769 118.222L402.439 133.282C392.738 141.823 382.759 149.736 373.296 158.709C372.518 158.208 370.63 156.207 369.867 155.434C374.616 149.642 379.8 145.951 384.31 140.382C387.208 138.789 403.414 121.725 403.427 121.685L402.847 121.327L402.847 121.327C400.346 119.862 399.864 120.021 397.34 119.026C409.557 103.264 404.095 100.273 397.34 84.072L399.28 82.3111Z"/><path fill="#E0A545" transform="scale(2 2)" d="M399.28 82.3111L399.28 82.3111C398.908 83.8013 400.4 84.3958 401.429 85.4522L413.687 98.7829C415.389 100.661 418.246 103.492 419.411 105.579C417.626 107.739 404.617 121.975 402.847 121.327C400.346 119.862 399.864 120.021 397.34 119.026C409.557 103.264 404.095 100.273 397.34 84.072L399.28 82.3111Z"/><path fill="#F0AF4A" transform="scale(2 2)" d="M397.34 119.026C399.188 120.024 400.774 120.848 402.847 121.327L403.427 121.685C403.414 121.725 387.208 138.789 384.31 140.382L382.777 140.382L380.394 139.03C385.19 132.612 392.247 125.768 397.34 119.026Z"/><path fill="#E0A545" transform="scale(2 2)" d="M380.394 139.03C381.253 139.526 381.855 139.918 382.668 140.487L382.777 140.382L384.31 140.382C379.8 145.951 374.616 149.642 369.867 155.434L366.975 152.598C370.502 148.472 376.465 142.614 380.394 139.03Z"/><path fill="#AC5C06" transform="scale(2 2)" d="M397.34 119.026C394.861 118.552 380.843 113.881 379.909 112.397C384.191 113.443 394.003 117.074 397.34 119.026C399.864 120.021 400.346 119.862 402.847 121.327L402.847 121.327C400.774 120.848 399.188 120.024 397.34 119.026Z"/><path fill="#AC5C06" transform="scale(2 2)" d="M380.394 139.03C377.001 137.91 370.331 134.976 367.247 132.964C369.639 133.576 378.274 137.547 380.394 139.03L382.777 140.382L382.668 140.487C381.855 139.918 381.253 139.526 380.394 139.03Z"/><path fill="#4D5054" transform="scale(2 2)" d="M362.403 175.596C373.095 186.193 385.138 198.892 396.363 208.663C405.386 204.093 416.526 204.044 421.555 214.325C423.516 218.332 430.13 250.581 429.097 252.865C428.279 254.675 411.058 249.744 409.16 249.388C404.463 248.504 393.286 247.919 389.8 244.873C384.828 240.53 382.813 233.053 384.393 226.66C384.71 225.376 385.705 223.486 385.663 222.247C376.907 214.743 364.265 203.279 356.457 194.565C354.294 192.078 353.32 190.412 351.712 187.512L354.535 184.627C356.963 181.848 360.322 178.433 362.403 175.596Z"/><path fill="#2B2B2F" transform="scale(2 2)" d="M354.535 184.627C357.85 189.199 367.671 197.661 371.976 201.527C377.48 206.47 382.648 212.043 388.228 216.832C387.135 218.817 386.543 220.145 385.663 222.247C376.907 214.743 364.265 203.279 356.457 194.565C354.294 192.078 353.32 190.412 351.712 187.512L354.535 184.627Z"/><path fill="#5F6D76" transform="scale(2 2)" d="M402.847 212.336C407.672 211.894 411.766 213.617 415.265 216.832C417.788 225.447 408.984 233.056 401.429 235.204C381.889 238.992 382.95 214.496 402.847 212.336Z"/><path fill="#4D5054" transform="scale(2 2)" d="M265.53 97.8545C264.245 94.178 262.461 90.9303 267.804 92.9645C274.23 93.3403 287.299 97.268 294.605 98.7068C309.476 102.557 312.462 109.447 307.261 124.635C311.352 128.84 335.632 152.693 340.162 155.434C338.184 157.618 336.118 159.735 334.075 161.859C327.855 157.952 326.924 158.145 320.801 155.434C318.767 155.161 314.34 155.586 313.914 155.434C308.072 149.145 300.008 142.928 294.605 136.897C286.105 139.118 275.721 137.225 269.744 130.368L266.932 112.282C266.278 107.993 265.087 102.057 265.53 97.8545Z"/><path fill="#5F6D76" transform="scale(2 2)" d="M286.612 103.459L286.612 103.459C317.15 118.524 293.731 133.622 281.458 127.262C279.454 126.223 274.625 121.768 275.424 119.026C277.388 113.987 281.96 106.372 286.612 103.459Z"/><path fill="#788C99" transform="scale(2 2)" d="M267.804 92.9645C274.23 93.3403 287.299 97.268 294.605 98.7068C292.586 100.405 288.588 101.454 286.612 103.459L286.612 103.459C281.96 106.372 277.388 113.987 275.424 119.026C272.119 114.168 268.498 102.608 266.756 96.6623C266.671 95.0127 265.272 94.5757 266.756 92.9645C267.288 93.096 267.218 93.0322 267.804 92.9645Z"/><path fill="#5F6D76" transform="scale(2 2)" d="M267.804 92.9645C274.23 93.3403 287.299 97.268 294.605 98.7068C292.586 100.405 288.588 101.454 286.612 103.459L286.612 103.459C279.854 100.197 273.132 96.9439 266.756 92.9645C267.288 93.096 267.218 93.0322 267.804 92.9645Z"/><path fill="#2B2B2F" transform="scale(2 2)" d="M299.689 133.575C302.865 137.616 320.737 153.435 320.801 155.434C318.767 155.161 314.34 155.586 313.914 155.434C308.072 149.145 300.008 142.928 294.605 136.897C296.288 135.641 297.975 134.728 299.689 133.575Z"/><path fill="#797A84" transform="scale(2 2)" d="M265.53 97.8545C264.245 94.178 262.461 90.9303 267.804 92.9645C267.218 93.0322 267.288 93.096 266.756 92.9645C265.272 94.5757 266.671 95.0127 266.756 96.6623L266.339 96.5537L265.601 94.5113L265.34 94.451C265.07 95.5098 266.071 96.0667 265.53 97.8545Z"/><path fill="#F9CB72" transform="scale(2 2)" d="M59.3138 312.176C60.1876 309.994 67.5949 292.782 68.2549 292.265L68.7648 292.579C72.8768 293.305 86.3266 297.065 89.7573 298.722C93.9259 313.122 96.0333 328.761 99.8854 343.301C100.826 346.852 101.616 350.262 102.198 353.887C101.719 353.311 98.5712 349.696 98.4461 349.485C88.3028 337.753 70.9018 323.46 59.3138 312.176Z"/><path fill="#F0AF4A" transform="scale(2 2)" d="M59.3138 312.176C60.1876 309.994 67.5949 292.782 68.2549 292.265L68.7648 292.579C69.328 294.545 73.6438 302.35 74.8177 304.543L91.9323 336.242C93.3529 338.9 98.662 347.342 98.4461 349.485C88.3028 337.753 70.9018 323.46 59.3138 312.176Z"/><path fill="#F0AF4A" transform="scale(2 2)" d="M67.7323 400.904C70.6536 400.67 110.296 407.656 112.948 408.918L113.184 409.326C112.78 409.744 112.954 409.662 112.457 409.871C103.155 417.143 89.6224 422.692 79.71 429.555C78.57 430.344 76.5606 431.63 75.3176 432.234C69.8625 428.275 63.323 421.819 57.1804 417.223C59.3135 413.416 64.9493 404.135 67.7323 400.904Z"/><path fill="#D48F36" transform="scale(2 2)" d="M57.1804 417.223C59.3135 413.416 64.9493 404.135 67.7323 400.904C68.4591 402.295 73.2801 409.525 74.3902 410.828C75.0834 415.876 75.5612 427.195 75.3176 432.234C69.8625 428.275 63.323 421.819 57.1804 417.223Z"/><path fill="#F9CB72" transform="scale(2 2)" d="M67.7323 400.904C70.6536 400.67 110.296 407.656 112.948 408.918L113.184 409.326C112.78 409.744 112.954 409.662 112.457 409.871C111.108 409.232 102.866 411.452 100.507 411.483C91.868 411.596 82.9637 411.66 74.3902 410.828C73.2801 409.525 68.4591 402.295 67.7323 400.904Z"/><path fill="#5F6D76" transform="scale(2 2)" d="M354.535 142.099L356.457 143.709C358.799 145.633 361.443 147.716 363.705 149.696L366.975 152.598L369.867 155.434C370.63 156.207 372.518 158.208 373.296 158.709C374.331 159.842 374.976 160.638 375.902 161.859C373.713 163.348 363.793 173.415 362.403 175.596C360.322 178.433 356.963 181.848 354.535 184.627L351.712 187.512C348.62 182.221 345.524 174.008 345.475 167.776L345.475 166.859C344.454 165.795 337.581 164.458 334.075 161.859C336.118 159.735 338.184 157.618 340.162 155.434C344.918 150.771 348.97 145.734 354.535 142.099Z"/><path fill="#788C99" transform="scale(2 2)" d="M354.535 142.099L356.457 143.709C358.799 145.633 361.443 147.716 363.705 149.696C361.254 152.023 347.414 166.756 345.475 166.859C344.454 165.795 337.581 164.458 334.075 161.859C336.118 159.735 338.184 157.618 340.162 155.434C344.918 150.771 348.97 145.734 354.535 142.099Z"/><path fill="#F0AF4A" transform="scale(2 2)" d="M153.791 419.966C164.373 422.102 176.581 425.634 187.089 428.346L198.944 431.329C201.025 431.846 205.72 432.551 206.902 434.232C207.948 437.153 208.247 443.167 208.532 446.539C204.361 448.758 193.941 452.449 189.462 453.642C187.569 452.386 183.078 447.937 181.316 446.239L168.778 434.076C165.15 430.508 161.27 426.488 157.23 423.45C156.112 422.309 154.936 421.065 153.791 419.966Z"/><path fill="#F9CB72" transform="scale(2 2)" d="M153.791 419.966C164.373 422.102 176.581 425.634 187.089 428.346L198.944 431.329C201.025 431.846 205.72 432.551 206.902 434.232C203.341 436.766 199.067 439.294 195.138 442.087C190.997 439.464 159.413 420.641 157.23 423.45C156.112 422.309 154.936 421.065 153.791 419.966Z"/><path fill="#F9CB72" transform="scale(2 2)" d="M275.424 375.216C279.695 378.301 283.823 381.726 288.057 384.886C290.414 386.968 280.562 393.711 278.401 395.329C270.896 393.584 258.835 391.938 251.005 390.727C250.387 390.794 250.357 390.761 249.735 390.648L249.578 390.241C250.348 389.127 272.706 376.58 275.424 375.216Z"/><path fill="#F0AF4A" transform="scale(2 2)" d="M251.005 390.727C254.205 388.938 282.073 385.947 288.057 384.886C290.414 386.968 280.562 393.711 278.401 395.329C270.896 393.584 258.835 391.938 251.005 390.727Z"/><path fill="#D48F36" transform="scale(2 2)" d="M135.958 244.79C137.968 248.84 141.164 255.864 140.054 260.266C139.4 261.854 138.685 265.117 137.84 267.32C135.054 263.67 131.182 259.1 129.659 254.874C130.271 253.153 130.532 252.273 131.646 250.803C132.574 248.868 134.545 246.417 135.958 244.79Z"/><path fill="#F9CB72" transform="scale(2 2)" d="M135.958 244.79C137.968 248.84 141.164 255.864 140.054 260.266C136.68 258.409 134.682 253.556 131.646 250.803C132.574 248.868 134.545 246.417 135.958 244.79Z"/><path fill="#F0AF4A" transform="scale(2 2)" d="M76.7346 349.485C78.8065 350.867 87.4464 358.322 80.109 357.627C75.9569 356.841 74.9427 355.434 72.5186 352.019C74.1879 350.655 74.8189 350.28 76.7346 349.485Z"/><path fill="#F0AF4A" transform="scale(2 2)" d="M121.151 423.45L122.131 423.427C126.89 425.399 120.978 430.794 118.259 432.234C112.139 429.29 117.087 425.882 121.151 423.45Z"/><path fill="#D48F36" transform="scale(2 2)" d="M236.46 395.329C238.236 395.426 242.373 397.198 240.61 399.35C237.294 400.288 232.818 398.704 236.46 395.329Z"/></svg>