<?xml version="1.0" encoding="utf-8" ?><svg xmlns="http://www.w3.org/2000/svg" xmlns:xlink="http://www.w3.org/1999/xlink" width="1024" height="1024" viewBox="0 0 1024 1024"><path fill="#61D6EE" transform="scale(2 2)" d="M197.768 184.532C197.111 178.808 195.867 149.867 199.925 145.633C206.248 139.197 213.085 133.45 219.762 127.431L274.397 78.3346C277.532 75.5789 281.834 71.3987 285.24 69.1624L321.996 121.347C326.345 127.44 334.009 139.043 338.892 144.366L338.892 145.271C333.174 156.028 334.532 177.577 334.213 189.551L334.381 189.644C335.704 189.636 353.831 176.308 356.866 174.399L357.393 177.759C358.199 181.051 366.453 215.304 366.273 216.054C361.989 227.473 358.504 244.259 355.597 256.211C354.203 261.535 353.166 267.118 351.558 272.363C349.348 276.735 341.768 282.004 338.892 287.2C341.732 288.109 344.455 286.073 347.635 289.209C353.704 294.772 364.342 305.022 369.343 311.48C376.979 320.52 375.789 321.113 379.056 331.54C382.724 333.18 403.641 341.555 406.297 341.623C406.988 341.862 407.714 341.993 408.113 342.55C407.652 344.414 392.154 356.223 389.604 358.905C399.437 365.872 415.124 380.371 423.966 389.038C424.934 389.775 425.683 390.57 426.544 391.425C423.52 391.619 418.481 391.444 415.283 391.442L394.385 391.41C380.061 391.268 370.682 393.916 357.393 401.553C360.666 405.245 363.23 408.431 366.273 412.34C342.809 411.34 316.26 404.85 292.792 401.497C289.115 400.972 285.302 401.473 281.616 401.636C265.003 402.63 248.363 403.556 231.727 403.99C225.66 404.148 222.009 399.562 216.539 398.311C214.386 397.819 197.483 399.909 193.451 400.028C191.12 399.391 186.88 397.208 184.409 396.107L166.954 388.457C163.593 389.609 153.32 394.097 150.679 395.891C146.519 390.454 140.439 382.152 135.736 377.27C130.787 374.339 123.547 373.346 117.992 371.759C107.193 368.674 93.5545 365.62 83.225 361.846C84.7319 360.944 85.4913 360.811 87.1593 360.459C96.2892 353.903 116.564 344.531 127.259 339.857C126.922 337.603 126.211 331.061 126.445 328.951C126.583 328.971 167.872 317.05 170.833 316.323C172.956 315.615 174.092 315.506 176.252 315.474C175.388 309.956 152.573 279.8 147.868 273.581C146.255 271.369 145.604 255.355 145.235 251.676L143.541 234.621C143.116 230.686 142.503 226.69 142.2 222.759C143.171 219.052 159.254 195.056 162.111 190.586L168.821 180.1C169.916 178.392 172.239 173.92 174.187 173.795L174.739 174.399C180.097 181.603 193.058 198.676 199.44 204.823C197.823 198.512 197.716 191.055 197.768 184.532Z"/><path fill="#61D6EE" transform="scale(2 2)" d="M338.892 287.2C341.732 288.109 344.455 286.073 347.635 289.209C353.704 294.772 364.342 305.022 369.343 311.48C376.979 320.52 375.789 321.113 379.056 331.54C382.724 333.18 403.641 341.555 406.297 341.623C406.988 341.862 407.714 341.993 408.113 342.55C407.652 344.414 392.154 356.223 389.604 358.905C399.437 365.872 415.124 380.371 423.966 389.038C424.934 389.775 425.683 390.57 426.544 391.425C423.52 391.619 418.481 391.444 415.283 391.442L394.385 391.41C380.061 391.268 370.682 393.916 357.393 401.553C360.666 405.245 363.23 408.431 366.273 412.34C342.809 411.34 316.26 404.85 292.792 401.497C289.115 400.972 285.302 401.473 281.616 401.636C265.003 402.63 248.363 403.556 231.727 403.99C225.66 404.148 222.009 399.562 216.539 398.311C214.386 397.819 197.483 399.909 193.451 400.028C191.12 399.391 186.88 397.208 184.409 396.107L166.954 388.457C163.593 389.609 153.32 394.097 150.679 395.891C146.519 390.454 140.439 382.152 135.736 377.27C130.787 374.339 123.547 373.346 117.992 371.759C107.193 368.674 93.5545 365.62 83.225 361.846C84.7319 360.944 85.4913 360.811 87.1593 360.459C96.2892 353.903 116.564 344.531 127.259 339.857C126.922 337.603 126.211 331.061 126.445 328.951C126.583 328.971 167.872 317.05 170.833 316.323C172.956 315.615 174.092 315.506 176.252 315.474L177.095 316.323C181.627 321.1 208.704 335.797 215.336 339.719C216.379 340.336 217.516 341.18 218.636 341.623C224.734 347.04 230.311 363.045 236.941 368.645C238.635 370.178 240.876 371.538 242.843 372.742C244.12 373.656 244.538 373.918 245.929 374.635C247.05 375.255 248.548 376.195 249.744 376.485L250.252 376.317C251.175 375.806 251.542 375.374 252.315 374.635C256.769 372.171 262.442 368.065 266.93 365.178C276.582 361.045 285.899 352.441 294.153 349.221C294.921 347.179 296.102 341.266 296.833 338.581C297.104 337.603 297.749 336.034 298.123 335.036C298.231 334.019 298.329 332.323 298.868 331.54L299.63 330.403L299.756 330.243C302.743 326.552 310.972 321.019 315.029 317.881C317.507 315.881 324.814 310.327 327.554 309.375C329.066 307.943 329.942 306.784 330.914 304.976C332.055 301.157 336.134 292.757 337.876 288.698L338.892 287.2Z"/><path fill="#6DA1B6" transform="scale(2 2)" d="M335.117 303.439L335.654 303.51C336.945 309.005 337.371 315.204 338.892 320.816C343.875 325.614 368.191 340.478 375.296 344.83C364.091 353.499 340.082 360.274 330.186 369.637C327.752 377.814 324.668 379.035 317.089 382.309C299.957 389.711 293.103 381.778 277.448 381.028C270.358 380.689 264.283 385.059 258.664 385.563C235.494 387.641 214.974 355.25 196.751 346.39C186.852 341.556 171.477 342.801 163.635 337.631C159.372 334.82 174.82 318.343 177.095 316.323C181.627 321.1 208.704 335.797 215.336 339.719C216.379 340.336 217.516 341.18 218.636 341.623C224.734 347.04 230.311 363.045 236.941 368.645C238.635 370.178 240.876 371.538 242.843 372.742C244.12 373.656 244.538 373.918 245.929 374.635C247.05 375.255 248.548 376.195 249.744 376.485L250.252 376.317C251.175 375.806 251.542 375.374 252.315 374.635C256.769 372.171 262.442 368.065 266.93 365.178C276.582 361.045 285.899 352.441 294.153 349.221C294.921 347.179 296.102 341.266 296.833 338.581C297.104 337.603 297.749 336.034 298.123 335.036C298.231 334.019 298.329 332.323 298.868 331.54L299.63 330.403L299.756 330.243C302.743 326.552 310.972 321.019 315.029 317.881C317.507 315.881 324.814 310.327 327.554 309.375C329.066 307.943 329.942 306.784 330.914 304.976L331.612 305.647L332.01 305.599C332.53 304.999 332.828 304.751 333.417 304.244C334.166 303.752 334.228 303.646 335.117 303.439Z"/><defs><linearGradient id="gradient_0" gradientUnits="userSpaceOnUse" x1="316.1077" y1="369.06961" x2="309.12491" y2="359.30453"><stop offset="0" stop-color="#009BF4"/><stop offset="1" stop-color="#03D2FF"/></linearGradient></defs><path fill="url(#gradient_0)" transform="scale(2 2)" d="M335.117 303.439L335.654 303.51C336.945 309.005 337.371 315.204 338.892 320.816C339.366 323.558 340.542 330.763 341.705 332.977C339.802 336.111 335.491 343.275 333.417 346.03C322.273 372.105 314.944 368.652 291.507 381.603C289.711 382.595 289.347 378.914 289.427 377.88C289.41 374.74 290.363 369.918 290.932 366.684L294.153 349.221C294.921 347.179 296.102 341.266 296.833 338.581C297.104 337.603 297.749 336.034 298.123 335.036C298.231 334.019 298.329 332.323 298.868 331.54L299.63 330.403L299.756 330.243C302.743 326.552 310.972 321.019 315.029 317.881C317.507 315.881 324.814 310.327 327.554 309.375C329.066 307.943 329.942 306.784 330.914 304.976L331.612 305.647L332.01 305.599C332.53 304.999 332.828 304.751 333.417 304.244C334.166 303.752 334.228 303.646 335.117 303.439Z"/><path fill="#15C4F9" transform="scale(2 2)" d="M335.117 303.439L335.654 303.51C336.945 309.005 337.371 315.204 338.892 320.816C339.366 323.558 340.542 330.763 341.705 332.977C334.417 334.882 321.864 338.779 315.029 339.857L315.029 339.857C310.708 338.657 305.183 332.264 298.868 331.54L299.63 330.403L299.756 330.243C302.743 326.552 310.972 321.019 315.029 317.881C317.507 315.881 324.814 310.327 327.554 309.375C329.066 307.943 329.942 306.784 330.914 304.976L331.612 305.647L332.01 305.599C332.53 304.999 332.828 304.751 333.417 304.244C334.166 303.752 334.228 303.646 335.117 303.439Z"/><path fill="#6BF3F9" transform="scale(2 2)" d="M299.63 330.403L299.756 330.243C302.743 326.552 310.972 321.019 315.029 317.881C316.669 320.89 316.65 329.498 319.328 331.54C318.023 334.314 316.364 337.04 315.029 339.857L315.029 339.857C310.708 338.657 305.183 332.264 298.868 331.54L299.63 330.403Z"/><path fill="#ADF7F8" transform="scale(2 2)" d="M333.417 304.244C334.166 303.752 334.228 303.646 335.117 303.439C330.305 313.105 324.366 322.053 319.328 331.54C316.65 329.498 316.669 320.89 315.029 317.881C317.507 315.881 324.814 310.327 327.554 309.375C329.066 307.943 329.942 306.784 330.914 304.976L331.612 305.647L332.01 305.599C332.53 304.999 332.828 304.751 333.417 304.244Z"/><path fill="#ADF7F8" transform="scale(2 2)" d="M333.417 304.244C332.577 306.534 330.77 311.398 327.554 309.375C329.066 307.943 329.942 306.784 330.914 304.976L331.612 305.647L332.01 305.599C332.53 304.999 332.828 304.751 333.417 304.244Z"/><path fill="#3BE8FA" transform="scale(2 2)" d="M298.868 331.54C305.183 332.264 310.708 338.657 315.029 339.857C312.936 343.801 309.711 350.184 307.069 353.729L306.673 353.714C304.207 357.342 292.616 379.848 290.416 380.681C289.733 379.472 289.864 378.59 289.427 377.88C289.41 374.74 290.363 369.918 290.932 366.684L294.153 349.221C294.921 347.179 296.102 341.266 296.833 338.581C297.104 337.603 297.749 336.034 298.123 335.036C298.231 334.019 298.329 332.323 298.868 331.54Z"/><path fill="#069EE8" transform="scale(2 2)" d="M315.029 339.857C321.864 338.779 334.417 334.882 341.705 332.977C339.802 336.111 335.491 343.275 333.417 346.03C331.757 346.401 327.798 348.96 326.14 349.756C314.135 355.524 307.343 358.838 299.291 369.426C298.373 370.633 297.924 371.628 296.833 372.742C298.852 368.533 306.004 357.062 307.069 353.729C309.711 350.184 312.936 343.801 315.029 339.857L315.029 339.857Z"/><defs><linearGradient id="gradient_1" gradientUnits="userSpaceOnUse" x1="266.99179" y1="319.02716" x2="252.55571" y2="405.28766"><stop offset="0" stop-color="#6697B1"/><stop offset="1" stop-color="#84CAD4"/></linearGradient></defs><path fill="url(#gradient_1)" transform="scale(2 2)" d="M391.955 361.846C388.788 361.302 375.778 357.842 375.558 354.155C376.6 352.545 391.653 345.327 394.488 344.216C397.292 343.117 403.353 342.916 406.297 341.623C406.988 341.862 407.714 341.993 408.113 342.55C407.652 344.414 392.154 356.223 389.604 358.905C399.437 365.872 415.124 380.371 423.966 389.038C424.934 389.775 425.683 390.57 426.544 391.425C423.52 391.619 418.481 391.444 415.283 391.442L394.385 391.41C380.061 391.268 370.682 393.916 357.393 401.553C360.666 405.245 363.23 408.431 366.273 412.34C342.809 411.34 316.26 404.85 292.792 401.497C289.115 400.972 285.302 401.473 281.616 401.636C265.003 402.63 248.363 403.556 231.727 403.99C225.66 404.148 222.009 399.562 216.539 398.311C214.386 397.819 197.483 399.909 193.451 400.028C191.12 399.391 186.88 397.208 184.409 396.107L166.954 388.457C163.593 389.609 153.32 394.097 150.679 395.891C146.519 390.454 140.439 382.152 135.736 377.27C130.787 374.339 123.547 373.346 117.992 371.759C107.193 368.674 93.5545 365.62 83.225 361.846C84.7319 360.944 85.4913 360.811 87.1593 360.459C88.7671 360.69 89.8148 360.567 91.431 360.459C94.0563 359.675 98.6336 359.27 101.507 358.905C104.981 360.999 136.583 364.965 141.075 364.359C142.169 363.996 143.457 364.505 144.415 365.097C157.806 373.369 187.583 384.449 203.117 387.364C204.14 387.556 210.217 388.211 210.646 388.457C212.245 388.371 213.371 388.273 214.965 388.457C220.44 387.128 267.086 390.168 274.004 390.652C281.001 391.142 287.968 392.544 294.972 392.673C311.069 392.971 329.501 392.429 345.735 391.425C350.079 387.036 373.731 380.56 380.655 377.941C382.123 377.386 390.085 376.509 391.955 376.317C406.466 381.432 410.03 383.007 397.143 371.05C394.908 367.635 393.632 365.616 391.955 361.846Z"/><path fill="#6DA1B6" transform="scale(2 2)" d="M87.1593 360.459C88.7671 360.69 89.8148 360.567 91.431 360.459C95.4635 361.685 101.177 362.086 105.431 362.918C115.31 364.851 131.104 368.443 141.075 368.645C141.771 371.663 148.866 386.186 150.679 389.038C154.058 387.101 164.382 383.316 168.581 381.496C170.274 382.962 190.765 393.813 193.451 394.912C200.104 393.781 208.742 393.121 214.965 391.425C228.114 398.288 230.787 397.307 244.895 397.342C261.011 397.382 277.292 396.735 293.302 399.017C314.731 403.129 335.731 400.5 355.597 405.64C354.527 400.59 352.108 397.639 351.558 392.525C355.223 390.241 360.909 388.673 365.122 387.06C377.675 382.256 383.126 378.623 396.737 381.187C402.13 382.202 419.597 389.003 423.966 389.038C424.934 389.775 425.683 390.57 426.544 391.425C423.52 391.619 418.481 391.444 415.283 391.442L394.385 391.41C380.061 391.268 370.682 393.916 357.393 401.553C360.666 405.245 363.23 408.431 366.273 412.34C342.809 411.34 316.26 404.85 292.792 401.497C289.115 400.972 285.302 401.473 281.616 401.636C265.003 402.63 248.363 403.556 231.727 403.99C225.66 404.148 222.009 399.562 216.539 398.311C214.386 397.819 197.483 399.909 193.451 400.028C191.12 399.391 186.88 397.208 184.409 396.107L166.954 388.457C163.593 389.609 153.32 394.097 150.679 395.891C146.519 390.454 140.439 382.152 135.736 377.27C130.787 374.339 123.547 373.346 117.992 371.759C107.193 368.674 93.5545 365.62 83.225 361.846C84.7319 360.944 85.4913 360.811 87.1593 360.459Z"/><path fill="#ADF7F8" transform="scale(2 2)" d="M214.965 388.457C220.44 387.128 267.086 390.168 274.004 390.652C281.001 391.142 287.968 392.544 294.972 392.673C311.069 392.971 329.501 392.429 345.735 391.425C345.917 392.738 345.782 394.53 345.735 395.891C326.462 407.272 294.498 393.775 272.266 392.966C267.828 392.804 263.413 393.592 258.992 393.873C240.778 395.031 231.489 395.752 214.965 388.457Z"/><path fill="#ADF7F8" transform="scale(2 2)" d="M141.075 364.359C142.169 363.996 143.457 364.505 144.415 365.097C157.806 373.369 187.583 384.449 203.117 387.364C204.14 387.556 210.217 388.211 210.646 388.457C191.772 392.311 185.171 386.169 169.475 377.27C163.618 378.814 158.111 381.102 151.84 382.652C148.689 377.77 144.314 367.308 141.075 364.359Z"/><path fill="#ADF7F8" transform="scale(2 2)" d="M126.445 328.951C126.583 328.971 167.872 317.05 170.833 316.323C170.912 316.919 171.161 317.583 170.615 318.032C156.473 329.665 145.222 337.724 132.678 351.342C129.709 354.565 106.32 358.048 101.507 358.905C98.6336 359.27 94.0563 359.675 91.431 360.459C89.8148 360.567 88.7671 360.69 87.1593 360.459C96.2892 353.903 116.564 344.531 127.259 339.857C126.922 337.603 126.211 331.061 126.445 328.951Z"/><path fill="#6DA1B6" transform="scale(2 2)" d="M126.445 328.951C128.154 329.759 134.056 333.83 135.736 335.036C132.335 336.613 130.391 337.785 127.259 339.857C126.922 337.603 126.211 331.061 126.445 328.951Z"/><path fill="#6DA1B6" transform="scale(2 2)" d="M375.296 330.403C373.208 326.544 368.297 315.602 369.343 311.48C376.979 320.52 375.789 321.113 379.056 331.54C377.66 331.435 376.523 331.04 375.296 330.403Z"/><path fill="#ADF7F8" transform="scale(2 2)" d="M364.35 371.05C368.466 371.296 369.444 371.845 372.324 374.635C370.971 377.152 369.784 378.357 367.693 380.209C366.098 380.498 364.571 380.307 362.942 380.209C360.589 378.122 360.401 377.786 360.512 374.635C361.624 372.57 362.138 371.739 364.35 371.05Z"/><path fill="#ADF7F8" transform="scale(2 2)" d="M381.601 365.178L381.853 365.121C387.525 363.87 388.265 373.599 381.601 374.635C374.748 372.919 372.66 366.688 381.601 365.178Z"/><path fill="#ADF7F8" transform="scale(2 2)" d="M354.42 308.007C358.351 308.39 363.13 313.713 364.35 317.329C361.853 316.09 354.949 310.852 354.42 308.007Z"/><defs><linearGradient id="gradient_2" gradientUnits="userSpaceOnUse" x1="281.13971" y1="302.36728" x2="304.94983" y2="325.98563"><stop offset="0" stop-color="#00AAF5"/><stop offset="1" stop-color="#02D1FF"/></linearGradient></defs><path fill="url(#gradient_2)" transform="scale(2 2)" d="M334.213 189.551L334.381 189.644C335.704 189.636 353.831 176.308 356.866 174.399L357.393 177.759C358.199 181.051 366.453 215.304 366.273 216.054C361.989 227.473 358.504 244.259 355.597 256.211C354.203 261.535 353.166 267.118 351.558 272.363C349.348 276.735 341.768 282.004 338.892 287.2L337.876 288.698C336.134 292.757 332.055 301.157 330.914 304.976C329.942 306.784 329.066 307.943 327.554 309.375C324.814 310.327 317.507 315.881 315.029 317.881C310.972 321.019 302.743 326.552 299.756 330.243L299.63 330.403L298.868 331.54C298.329 332.323 298.231 334.019 298.123 335.036C297.749 336.034 297.104 337.603 296.833 338.581C296.102 341.266 294.921 347.179 294.153 349.221C285.899 352.441 276.582 361.045 266.93 365.178C262.442 368.065 256.769 372.171 252.315 374.635C251.542 375.374 251.175 375.806 250.252 376.317L250.252 374.635C250.229 372.409 250.509 371.557 250.963 369.427C253.501 357.514 258.109 326.994 263.578 317.329L263.37 317.435C262.238 317.996 262.46 317.972 261.174 317.881C259.473 314.6 253.278 306.188 250.252 304.976C252.622 301.983 255.889 299.482 257.887 295.965C262.557 291.875 267.575 284.43 272.448 280.11C273.392 278.845 274.577 277.705 275.821 276.74L276.317 276.135L276.791 276.135C277.282 277.025 277.271 277.086 277.395 278.116C281.054 273.665 283.409 263.496 287.717 257.308C288.068 259.202 288.231 261.073 289.427 262.564C289.955 261.327 290.509 259.916 291.146 258.748C292.07 255.552 292.809 253.359 294.153 250.321C295.435 246.161 297.063 241.587 298.123 237.453C299.558 234.043 305.694 213.743 306.64 212.457C308.73 209.735 330.737 192.762 334.213 191.604C334.46 190.62 334.427 190.569 334.213 189.551Z"/><path fill="#ADF7F8" transform="scale(2 2)" d="M334.213 189.551L334.381 189.644C335.704 189.636 353.831 176.308 356.866 174.399L357.393 177.759C358.199 181.051 366.453 215.304 366.273 216.054C363.519 216.693 349.087 228.581 344.868 230.973C344.577 231.278 344.112 231.735 343.862 232.047C342.794 231.668 333.728 226.651 332.321 225.863C331.139 229.076 332.726 229.957 329.777 233.985C328.634 235.545 330.14 236.837 330.914 238.412C326.056 246.24 318.367 254.543 312.359 261.51C308.962 259.472 299.193 256.912 295.179 257.493C293.997 257.664 293.334 256.315 292.221 256.299L292.123 256.638C291.816 257.671 291.806 257.957 291.146 258.748C292.07 255.552 292.809 253.359 294.153 250.321C295.435 246.161 297.063 241.587 298.123 237.453C299.558 234.043 305.694 213.743 306.64 212.457C308.73 209.735 330.737 192.762 334.213 191.604C334.46 190.62 334.427 190.569 334.213 189.551Z"/><path fill="#6BF3F9" transform="scale(2 2)" d="M334.213 189.551L334.381 189.644C335.704 189.636 353.831 176.308 356.866 174.399L357.393 177.759L357.015 177.861L356.866 177.759C353.662 176.159 349.321 182.356 346.974 184.028C337.604 190.702 326.609 199.046 317.497 206.303C315.017 208.278 311.962 211.441 309.668 213.119C312.561 214.163 318.265 216.868 320.935 218.622C322.768 220.236 332.096 225.333 332.321 225.863C331.139 229.076 332.726 229.957 329.777 233.985C328.634 235.545 330.14 236.837 330.914 238.412C326.056 246.24 318.367 254.543 312.359 261.51C308.962 259.472 299.193 256.912 295.179 257.493C293.997 257.664 293.334 256.315 292.221 256.299L292.123 256.638C291.816 257.671 291.806 257.957 291.146 258.748C292.07 255.552 292.809 253.359 294.153 250.321C295.435 246.161 297.063 241.587 298.123 237.453C299.558 234.043 305.694 213.743 306.64 212.457C308.73 209.735 330.737 192.762 334.213 191.604C334.46 190.62 334.427 190.569 334.213 189.551Z"/><path fill="#ADF7F8" transform="scale(2 2)" d="M312.359 222.759C316.647 223.894 328.424 234.414 330.914 238.412C325.967 237.101 324.5 238.168 319.959 240.125C315.086 242.632 311.297 244.385 306.149 246.174C306.734 240.539 309.361 227.299 312.359 222.759Z"/><path fill="#6BF3F9" transform="scale(2 2)" d="M357.393 177.759C358.199 181.051 366.453 215.304 366.273 216.054C363.519 216.693 349.087 228.581 344.868 230.973C346.194 221.994 356.583 184.009 354.42 180.609C355.249 179.526 355.784 179.455 356.866 177.759L357.015 177.861L357.393 177.759Z"/><path fill="#89FEFA" transform="scale(2 2)" d="M336.939 222.759C338.193 215.404 350.375 187.021 354.42 180.609C356.583 184.009 346.194 221.994 344.868 230.973C344.577 231.278 344.112 231.735 343.862 232.047C342.794 231.668 333.728 226.651 332.321 225.863C332.096 225.333 322.768 220.236 320.935 218.622C322.377 218.046 333.928 222.228 336.939 222.759Z"/><path fill="#3BE8FA" transform="scale(2 2)" d="M332.321 225.863C333.728 226.651 342.794 231.668 343.862 232.047C341.84 239.267 339.037 246.748 336.939 254.187C334.89 256.274 332.537 257.926 330.237 259.774C317.161 270.277 292.064 288.843 282.136 301.295C281.992 302.818 282.012 304.486 282.136 306.013C281.391 307.465 280.969 308.058 280.029 309.375C275.24 309.855 267.363 316.033 264.35 316.323L263.578 317.329L263.37 317.435C262.238 317.996 262.46 317.972 261.174 317.881C259.473 314.6 253.278 306.188 250.252 304.976C252.622 301.983 255.889 299.482 257.887 295.965C262.557 291.875 267.575 284.43 272.448 280.11C273.392 278.845 274.577 277.705 275.821 276.74L276.317 276.135L276.791 276.135C277.282 277.025 277.271 277.086 277.395 278.116C281.054 273.665 283.409 263.496 287.717 257.308C288.068 259.202 288.231 261.073 289.427 262.564C289.955 261.327 290.509 259.916 291.146 258.748C291.806 257.957 291.816 257.671 292.123 256.638L292.221 256.299C293.334 256.315 293.997 257.664 295.179 257.493C299.193 256.912 308.962 259.472 312.359 261.51C318.367 254.543 326.056 246.24 330.914 238.412C330.14 236.837 328.634 235.545 329.777 233.985C332.726 229.957 331.139 229.076 332.321 225.863Z"/><path fill="#ADF7F8" transform="scale(2 2)" d="M272.448 280.11C274.859 279.728 274.229 280.652 274.197 282.683L274.197 284.859C270.917 295.496 267.803 305.717 264.35 316.323L263.578 317.329L263.37 317.435C262.238 317.996 262.46 317.972 261.174 317.881C259.473 314.6 253.278 306.188 250.252 304.976C252.622 301.983 255.889 299.482 257.887 295.965C262.557 291.875 267.575 284.43 272.448 280.11Z"/><path fill="#89FEFA" transform="scale(2 2)" d="M261.174 317.881C262.18 315.102 263.416 312.723 264.462 309.597L268.922 296.124C269.935 293.063 271.621 286.513 274.197 284.859C270.917 295.496 267.803 305.717 264.35 316.323L263.578 317.329L263.37 317.435C262.238 317.996 262.46 317.972 261.174 317.881Z"/><path fill="#15C4F9" transform="scale(2 2)" d="M287.717 257.308C288.068 259.202 288.231 261.073 289.427 262.564C288.308 267.362 282.378 287.798 280.029 291.07C279.488 286.009 278.457 282.978 277.395 278.116C281.054 273.665 283.409 263.496 287.717 257.308Z"/><path fill="#ADF7F8" transform="scale(2 2)" d="M275.821 276.74C276.308 278.384 274.851 280.843 274.197 282.683C274.229 280.652 274.859 279.728 272.448 280.11C273.392 278.845 274.577 277.705 275.821 276.74Z"/><path fill="#15C4F9" transform="scale(2 2)" d="M344.868 230.973C349.087 228.581 363.519 216.693 366.273 216.054C361.989 227.473 358.504 244.259 355.597 256.211C354.203 261.535 353.166 267.118 351.558 272.363L351.558 272.363L320.921 284.102C313.054 287.143 306.396 291.785 299.018 295.767C296.864 296.929 295.138 299.352 293.072 300.435L292.842 300.263C307.033 286.006 322.995 272.555 336.749 257.894C337.942 256.623 337.864 255.614 336.939 254.187C339.037 246.748 341.84 239.267 343.862 232.047C344.112 231.735 344.577 231.278 344.868 230.973Z"/><path fill="#3BE8FA" transform="scale(2 2)" d="M346.947 246.174C357.892 242.724 351.285 252.754 355.597 256.211C354.203 261.535 353.166 267.118 351.558 272.363L351.558 272.363C348.796 269.978 344.662 265.924 343.297 262.459C342.427 260.251 345.697 248.623 346.947 246.174Z"/><path fill="#15C4F9" transform="scale(2 2)" d="M298.123 335.036C297.749 336.034 297.104 337.603 296.833 338.581C296.102 341.266 294.921 347.179 294.153 349.221C285.899 352.441 276.582 361.045 266.93 365.178C262.442 368.065 256.769 372.171 252.315 374.635C253.591 366.15 272.992 349.126 279.261 342.909C280.869 341.314 285.639 341.992 287.591 341.3C291.678 339.406 293.635 336.521 298.123 335.036Z"/><path fill="#069EE8" transform="scale(2 2)" d="M266.93 365.178C272.975 358.796 284.315 350.727 291.373 344.209C292.744 342.943 295.773 338.809 296.833 338.581C296.102 341.266 294.921 347.179 294.153 349.221C285.899 352.441 276.582 361.045 266.93 365.178Z"/><path fill="#3BE8FA" transform="scale(2 2)" d="M264.35 316.323C267.363 316.033 275.24 309.855 280.029 309.375C271.222 326.754 263.343 344.659 255.661 362.552C253.797 366.895 252.841 370.564 250.252 374.635C250.229 372.409 250.509 371.557 250.963 369.427C253.501 357.514 258.109 326.994 263.578 317.329L264.35 316.323Z"/><path fill="#069EE8" transform="scale(2 2)" d="M299.63 330.403C297.797 326.659 334.004 291.651 337.876 288.698C336.134 292.757 332.055 301.157 330.914 304.976C329.942 306.784 329.066 307.943 327.554 309.375C324.814 310.327 317.507 315.881 315.029 317.881C310.972 321.019 302.743 326.552 299.756 330.243L299.63 330.403Z"/><path fill="#ADF7F8" transform="scale(2 2)" d="M197.768 184.532C197.111 178.808 195.867 149.867 199.925 145.633C206.248 139.197 213.085 133.45 219.762 127.431L274.397 78.3346C277.532 75.5789 281.834 71.3987 285.24 69.1624L321.996 121.347C326.345 127.44 334.009 139.043 338.892 144.366C334.972 144.187 303.601 139.12 301.118 137.696C299.615 140.409 296.867 143.83 294.954 146.397L283.729 161.324C280.654 163.467 272.371 176.536 268.062 180.609C268.271 179.072 268.59 177.707 268.147 176.231L267.97 176.159C268.261 178.87 268.471 188.742 268.062 191.604C265.012 189.513 261.123 187.36 257.887 185.363C254.327 182.311 235.109 173.226 231.224 172.206C227.176 174.5 226.559 174.7 223.794 178.487L223.052 180.609L223.052 180.609C222.28 179.354 222.931 178.774 222.613 178.305C216.893 169.867 217.554 171.453 210.406 175.619L211.05 175.75C209.461 177.02 201.848 181.43 201.453 182.585C200.455 183.137 198.769 184.138 197.768 184.532Z"/><path fill="#069EE8" transform="scale(2 2)" d="M285.24 69.1624L321.996 121.347C326.345 127.44 334.009 139.043 338.892 144.366C334.972 144.187 303.601 139.12 301.118 137.696C299.651 134.119 297.351 122.919 296.263 118.477L290.448 94.2035C288.866 87.7853 285.801 75.6113 285.24 69.1624Z"/><path fill="#FCFEFE" transform="scale(2 2)" d="M234.371 149.045C235.357 148.794 235.673 149.064 236.172 149.999L236.16 150.314C234.462 153.007 233.671 156.434 233.859 159.599C234.587 160.592 236.303 160.163 236.068 161.127C235.141 164.935 228.969 167.194 229.551 170.951L229.922 171.429C230.703 171.482 230.97 171.362 231.711 171.158L231.65 171.134L231.783 171.368C229.315 171.389 224.621 175.781 223.794 178.487L223.052 180.609C222.829 178.487 224.407 177.605 223.863 176.232C223.735 176.175 214.24 167.23 213.499 166.089C213.779 165.29 226.284 153.088 227.995 152.157C230.448 150.823 231.956 151.027 234.371 149.045Z"/><path fill="#DAFDFD" transform="scale(2 2)" d="M234.371 149.045C231.603 143.836 229.78 138.117 229.04 132.274C229.016 133.314 231.878 142.903 232.358 144.366C236.908 142.393 241.13 150.412 242.843 153.22L242.708 153.189C243.493 153.602 249.922 156.679 249.934 156.696C248.195 156.324 237.557 151.5 236.16 150.314L236.172 149.999C235.673 149.064 235.357 148.794 234.371 149.045Z"/><path fill="#6BF3F9" transform="scale(2 2)" d="M142.2 222.759C143.171 219.052 159.254 195.056 162.111 190.586L168.821 180.1C169.916 178.392 172.239 173.92 174.187 173.795L174.739 174.399C173.722 176.196 175.709 181.531 176.252 183.677C180.581 189.601 186.831 213.539 190.7 223.789C186.573 226.865 173.014 235.99 170.833 239.285C169.468 243.541 168.982 249.69 168.423 254.253L166.022 273.483C165.881 274.649 165.548 279.437 165.162 280.11C161.489 278.555 151.564 274.42 147.868 273.581C146.255 271.369 145.604 255.355 145.235 251.676L143.541 234.621C143.116 230.686 142.503 226.69 142.2 222.759Z"/><path fill="#ADF7F8" transform="scale(2 2)" d="M142.2 222.759C143.171 219.052 159.254 195.056 162.111 190.586L168.821 180.1C169.916 178.392 172.239 173.92 174.187 173.795L174.739 174.399C173.722 176.196 175.709 181.531 176.252 183.677C175.421 191.503 180.064 212.459 181.909 220.693C177.773 226.623 170.933 230.873 166.954 237.453C158.407 233.451 150.206 227.85 142.2 222.759Z"/><path fill="#DAFDFD" transform="scale(2 2)" d="M166.954 200.716C169.53 203.512 164.436 220.137 160.992 221.049L160.56 220.693C158.006 212.111 158.518 205.659 166.954 200.716Z"/><path fill="#15C4F9" transform="scale(2 2)" d="M301.118 137.696C303.601 139.12 334.972 144.187 338.892 144.366L338.892 145.271C333.174 156.028 334.532 177.577 334.213 189.551C334.427 190.569 334.46 190.62 334.213 191.604C330.737 192.762 308.73 209.735 306.64 212.457C305.694 213.743 299.558 234.043 298.123 237.453C297.399 236.767 299.829 231.849 299.783 230.826C299.485 228.353 297.776 226.189 297.031 223.725C296.039 220.443 291.866 205.889 291.895 202.626L292.651 202.614C293.628 203.554 302.772 219.687 303.026 220.846L303.228 220.927C305.47 217.411 304.354 213.985 307.655 210.388C310.125 207.697 325.253 197.896 325.765 196.373C326.161 195.197 322.386 187.904 321.873 186.42C321.089 184.15 316.893 169.455 315.882 168.686C314.904 168.756 310.748 171.497 309.208 172.256C304.127 174.759 269.337 190.393 268.336 193.093L268.114 193L268.062 191.604L268.062 191.604C268.471 188.742 268.261 178.87 267.97 176.159L268.147 176.231C268.59 177.707 268.271 179.072 268.062 180.609C272.371 176.536 280.654 163.467 283.729 161.324L294.954 146.397C296.867 143.83 299.615 140.409 301.118 137.696Z"/><path fill="#61D6EE" transform="scale(2 2)" d="M301.118 137.696C303.601 139.12 334.972 144.187 338.892 144.366L338.892 145.271C336.337 146.482 321.667 161.191 319.959 164.511L319.959 164.511C317.012 163.198 281.728 171.021 275.821 172.206C278.232 168.589 281.215 165.29 283.729 161.324L294.954 146.397C296.867 143.83 299.615 140.409 301.118 137.696Z"/><path fill="#56FAFA" transform="scale(2 2)" d="M268.062 180.609C272.371 176.536 280.654 163.467 283.729 161.324C281.215 165.29 278.232 168.589 275.821 172.206C281.728 171.021 317.012 163.198 319.959 164.511C313.138 170.553 279.506 187.247 268.062 191.604L268.062 191.604C268.471 188.742 268.261 178.87 267.97 176.159L268.147 176.231C268.59 177.707 268.271 179.072 268.062 180.609Z"/><path fill="#069EE8" transform="scale(2 2)" d="M319.959 164.511C321.667 161.191 336.337 146.482 338.892 145.271C333.174 156.028 334.532 177.577 334.213 189.551C334.427 190.569 334.46 190.62 334.213 191.604C328.596 186.906 324.464 168.872 319.959 164.511Z"/><defs><linearGradient id="gradient_3" gradientUnits="userSpaceOnUse" x1="175.86101" y1="314.71301" x2="189.75529" y2="300.19894"><stop offset="0" stop-color="#00ABF9"/><stop offset="1" stop-color="#01D2FF"/></linearGradient></defs><path fill="url(#gradient_3)" transform="scale(2 2)" d="M147.868 273.581C151.564 274.42 161.489 278.555 165.162 280.11L165.162 280.11C166.237 280.531 172.915 284.897 174.513 285.859L197.106 299.748C199.59 301.284 204.439 303.917 206.554 305.48L206.709 306.013L206.709 315.474C206.505 317.711 205.39 322.257 207.554 323.716C208.706 324.692 217.7 339.582 218.636 341.623C217.516 341.18 216.379 340.336 215.336 339.719C208.704 335.797 181.627 321.1 177.095 316.323L176.252 315.474C175.388 309.956 152.573 279.8 147.868 273.581Z"/><path fill="#069EE8" transform="scale(2 2)" d="M165.162 280.11C166.237 280.531 172.915 284.897 174.513 285.859L197.106 299.748C199.59 301.284 204.439 303.917 206.554 305.48L206.709 306.013L206.709 315.474C203.591 315.214 188.892 302.445 185.237 299.646C178.865 294.766 167.561 288.065 165.162 280.11Z"/><path fill="#3BE8FA" transform="scale(2 2)" d="M257.887 295.965C256.566 292.517 270.935 237.837 272.348 232.142C273.672 226.804 277.481 215.585 277.819 210.668L278.128 210.412C282.006 213.279 291.472 247.503 294.153 250.321C292.809 253.359 292.07 255.552 291.146 258.748C290.509 259.916 289.955 261.327 289.427 262.564C288.231 261.073 288.068 259.202 287.717 257.308C283.409 263.496 281.054 273.665 277.395 278.116C277.271 277.086 277.282 277.025 276.791 276.135L276.317 276.135L275.821 276.74C274.577 277.705 273.392 278.845 272.448 280.11C267.575 284.43 262.557 291.875 257.887 295.965Z"/><path fill="#15C4F9" transform="scale(2 2)" d="M230.308 304.244L230.308 304.976C233.138 322.397 237.745 338.04 240.762 355.018C241.802 361.3 243.007 366.247 242.843 372.742C240.876 371.538 238.635 370.178 236.941 368.645C230.311 363.045 224.734 347.04 218.636 341.623C217.7 339.582 208.706 324.692 207.554 323.716L208.049 323.638C210.013 323.307 215.165 322.416 216.295 320.816L216.875 320.816C219.351 319.902 228.502 307.465 230.308 304.244Z"/><path fill="#56FAFA" transform="scale(2 2)" d="M216.295 320.816L216.875 320.816C216.814 322.396 233.941 361.436 236.941 368.645C230.311 363.045 224.734 347.04 218.636 341.623C217.7 339.582 208.706 324.692 207.554 323.716L208.049 323.638C210.013 323.307 215.165 322.416 216.295 320.816Z"/><defs><linearGradient id="gradient_4" gradientUnits="userSpaceOnUse" x1="243.29005" y1="324.98599" x2="227.04237" y2="336.38153"><stop offset="0" stop-color="#049ED5"/><stop offset="1" stop-color="#00B8FF"/></linearGradient></defs><path fill="url(#gradient_4)" transform="scale(2 2)" d="M240.762 355.018C240.607 355.428 240.72 355.207 240.374 355.653C238.53 354.055 228.774 308.564 230.308 304.976C233.138 322.397 237.745 338.04 240.762 355.018Z"/><path fill="#15C4F9" transform="scale(2 2)" d="M202.591 211.516C206.186 229.306 210.445 246.835 214.709 264.484C216.091 270.203 218.076 279.674 219.904 284.859C220.126 268.229 222.612 250.791 224.769 234.333L226.472 220.368C227.446 211.717 227.169 216.014 226.834 221.573L226.106 235.636C225.215 250.301 224.242 265.009 223.029 279.646C222.725 283.31 223.495 288.579 223.052 291.979C218.785 289.051 215.094 285.824 211.05 282.683L210.646 281.828C205.686 262.197 196.491 243.602 192.294 223.789C193.582 221.358 200.359 213.838 202.591 211.516Z"/><path fill="#3BE8FA" transform="scale(2 2)" d="M210.646 281.828L211.05 282.683C215.094 285.824 218.785 289.051 223.052 291.979L223.326 292.308C229.779 299.985 226.873 298.296 230.308 304.244C228.502 307.465 219.351 319.902 216.875 320.816L216.295 320.816C215.165 322.416 210.013 323.307 208.049 323.638L207.554 323.716C205.39 322.257 206.505 317.711 206.709 315.474L206.709 306.013C208.233 298.208 209.226 289.805 210.646 281.828Z"/><path fill="#DAFDFD" transform="scale(2 2)" d="M210.646 281.828L211.05 282.683C210.65 290.611 214.478 303.9 215.717 311.765C216.008 313.614 215.996 319.831 216.295 320.816C215.165 322.416 210.013 323.307 208.049 323.638L207.554 323.716C205.39 322.257 206.505 317.711 206.709 315.474L206.709 306.013C208.233 298.208 209.226 289.805 210.646 281.828Z"/><path fill="#6BF3F9" transform="scale(2 2)" d="M211.05 175.75L210.406 175.619C217.554 171.453 216.893 169.867 222.613 178.305C222.931 178.774 222.28 179.354 223.052 180.609L223.052 180.609L223.794 178.487C226.559 174.7 227.176 174.5 231.224 172.206C235.109 173.226 254.327 182.311 257.887 185.363C255.297 185.428 249.4 180.248 247.429 180.557C243.371 187.682 231.125 190.431 223.551 190.624C219.421 190.729 220.543 195.935 218.625 198.611L218.285 198.534C217.876 197.033 218.628 192.498 219.173 191.002C214.02 189.968 211.154 191.65 205.979 185.393C203.543 182.448 205.633 180.098 201.748 182.739L201.453 182.585C201.848 181.43 209.461 177.02 211.05 175.75Z"/><path fill="#ADF7F8" transform="scale(2 2)" d="M216.875 172.206C218.703 174.427 220.589 177.115 223.052 178.487C222.7 180.07 222.441 181.049 221.93 182.585C221.616 179.348 219.533 180.428 216.875 180.609C213.543 179.386 213.248 176.051 211.05 175.75C212.754 174.611 215.073 173.233 216.875 172.206Z"/><path fill="#DAFDFD" transform="scale(2 2)" d="M211.05 175.75L210.406 175.619C217.554 171.453 216.893 169.867 222.613 178.305C222.931 178.774 222.28 179.354 223.052 180.609C222.722 183.198 219.811 195.307 218.627 197.353C218.479 195.396 220.913 184.534 221.93 182.585C222.441 181.049 222.7 180.07 223.052 178.487C220.589 177.115 218.703 174.427 216.875 172.206C215.073 173.233 212.754 174.611 211.05 175.75Z"/><path fill="#56FAFA" transform="scale(2 2)" d="M245.929 374.635C247.468 370.866 251.138 310.282 250.252 304.976C253.278 306.188 259.473 314.6 261.174 317.881C262.46 317.972 262.238 317.996 263.37 317.435L263.578 317.329C258.109 326.994 253.501 357.514 250.963 369.427C250.509 371.557 250.229 372.409 250.252 374.635L250.252 376.317L249.744 376.485C248.548 376.195 247.05 375.255 245.929 374.635Z"/><path fill="#56FAFA" transform="scale(2 2)" d="M188.869 225.863C191.219 230.478 191.576 235.709 193.145 240.536C196.533 250.956 207.569 288.979 201.453 298.697C192.455 296.689 180.111 281.076 174.739 273.581C174.425 268.968 174.845 265.872 174.739 261.51C174.67 247.227 175.634 241.544 185.203 230.973C186.528 228.904 187.316 227.746 188.869 225.863Z"/><path fill="#3BE8FA" transform="scale(2 2)" d="M174.739 261.51C174.67 247.227 175.634 241.544 185.203 230.973C185.375 232.533 186.041 246.795 185.778 247.524L185.203 247.733C181.845 251.067 180.143 250.712 178.592 256.211C177.805 258.54 176.667 256.909 175.23 257.972C174.885 259.385 175.033 260.407 174.739 261.51Z"/><path fill="#89FEFA" transform="scale(2 2)" d="M186.565 254.187C190.462 255.51 190.071 256.267 190.065 260.209C191.581 261.491 194.52 263.364 191.347 264.756C189.206 264.417 189.504 261.572 187.758 260.104C184.61 259.524 186.068 262.593 187.195 263.802L187.65 264.29C188.048 265.638 188.437 266.997 188.869 268.333C188.169 268.736 187.191 269.262 186.565 269.719C185.642 264.01 184.417 261.033 180.162 267.546L180.162 262.564C180.733 261.682 181.144 260.939 181.909 260.209C182.53 258.388 182.865 258.267 184.585 257.308C184.34 256.008 184.184 255.44 183.755 254.187C184.243 253.601 185.813 254.072 186.565 254.187Z"/><path fill="#6BF3F9" transform="scale(2 2)" d="M180.162 262.564C180.733 261.682 181.144 260.939 181.909 260.209C182.607 261.177 183.164 260.682 184.255 261.739L184.308 262.184C182.954 262.835 181.51 262.161 180.162 262.564Z"/><path fill="#6BF3F9" transform="scale(2 2)" d="M185.203 247.733C186.405 250.214 185.406 251.464 186.565 254.187C185.813 254.072 184.243 253.601 183.755 254.187C180.238 253.701 180.644 255.917 178.592 256.211C180.143 250.712 181.845 251.067 185.203 247.733Z"/><path fill="#6BF3F9" transform="scale(2 2)" d="M180.162 269.719C182.8 269.788 184.429 272.167 183.755 274.763C182.516 273.577 180.154 271.422 180.162 269.719Z"/><path fill="#89FEFA" transform="scale(2 2)" d="M190.065 272.363C192.703 272.477 192.046 273.672 191.55 275.891C189.938 275.954 190.017 273.448 190.065 272.363Z"/><path fill="#89FEFA" transform="scale(2 2)" d="M191.55 256.211C193.619 256.162 194.1 256.96 193.451 258.748C191.618 258.288 190.89 258.137 191.55 256.211Z"/><path fill="#89FEFA" transform="scale(2 2)" d="M190.7 265.423C192.189 266.122 192.428 267.026 191.55 268.333C190.044 267.607 189.642 266.724 190.7 265.423Z"/><path fill="#56FAFA" transform="scale(2 2)" d="M154.196 410.295C161.477 409.198 178.425 405.135 184.585 405.64C185.747 406.541 189.303 409.922 190.065 411.08C191.901 412.979 199.978 422.737 201.453 424.869C198.489 425.952 176.311 434.873 174.5 434.674C168.575 433.806 136.635 426.16 135.495 424.811C136.447 423.401 152.001 411.629 154.196 410.295Z"/><path fill="#15C4F9" transform="scale(2 2)" d="M201.453 424.869C198.489 425.952 176.311 434.873 174.5 434.674C168.575 433.806 136.635 426.16 135.495 424.811C136.447 423.401 152.001 411.629 154.196 410.295C153.537 413.475 150.562 420.979 149.431 424.869C152.255 425.196 174.753 427.882 175.813 428.59C176.197 429.297 176.207 429.444 176.416 430.203L176.821 430.344C181.243 427.897 187.203 424.077 191.55 421.328C191.261 419.842 189.609 412.092 190.065 411.08C191.901 412.979 199.978 422.737 201.453 424.869Z"/><path fill="#ADF7F8" transform="scale(2 2)" d="M181.909 410.295C184.357 409.38 187.496 417.105 188.869 419.321C185.993 420.553 182.913 421.785 180.658 424.036C175.192 429.492 176.135 425.859 167.426 423.445L166.954 423.317C164.268 421.781 158.978 419.912 155.903 419.321C161.099 416.461 176.045 410.625 181.909 410.295Z"/><path fill="#56FAFA" transform="scale(2 2)" d="M234.371 429.642C246.999 417.363 254.465 413.192 271.618 412.34C273.325 413.667 274.421 414.674 275.821 416.294C278.933 419.471 286.908 427.295 289.427 430.648C281.26 433.649 268.289 438.746 259.835 440.469C252.355 437.629 241.126 433.797 234.239 430.091L234.217 429.769L234.371 429.642Z"/><path fill="#89FEFA" transform="scale(2 2)" d="M269.598 417.879C271.869 419.046 276.07 423.046 278.606 424.869L278.606 425.962C277.353 426.043 275.501 425.975 274.197 425.962C270.918 428.603 267.3 430.87 263.898 433.41C261.234 435.4 246.635 426.498 244.519 424.869C252.282 423.619 258.587 419.278 269.598 417.879Z"/><defs><linearGradient id="gradient_5" gradientUnits="userSpaceOnUse" x1="262.26715" y1="439.65674" x2="261.38077" y2="418.11172"><stop offset="0" stop-color="#0D9FF1"/><stop offset="1" stop-color="#1EBCF7"/></linearGradient></defs><path fill="url(#gradient_5)" transform="scale(2 2)" d="M278.606 423.317C277.784 421.898 275.491 417.77 275.821 416.294C278.933 419.471 286.908 427.295 289.427 430.648C281.26 433.649 268.289 438.746 259.835 440.469C252.355 437.629 241.126 433.797 234.239 430.091L234.217 429.769L234.371 429.642C257.703 430.61 255.152 443.189 280.029 428.697C279.58 427.708 279.247 426.839 278.606 425.962L278.606 424.869L278.606 423.317Z"/><path fill="#61D6EE" transform="scale(2 2)" d="M278.606 423.317C279.835 424.216 281.65 426.641 280.78 428.204L280.029 428.697C279.58 427.708 279.247 426.839 278.606 425.962L278.606 424.869L278.606 423.317Z"/><path fill="#ADF7F8" transform="scale(2 2)" d="M422.277 295.965C436.486 293.008 432.51 311.389 411.023 314.258C390.356 316.636 411.732 295.958 422.277 295.965Z"/><path fill="#ADF7F8" transform="scale(2 2)" d="M114.039 287.2C121.693 286.707 131.375 302.863 121.187 303.439C108.652 301.911 104.05 288.383 114.039 287.2Z"/><path fill="#ADF7F8" transform="scale(2 2)" d="M89.015 316.323C99.6517 315.537 108.848 328.54 96.1371 327.609C89.5257 326.457 72.7958 319.944 89.015 316.323Z"/><path fill="#ADF7F8" transform="scale(2 2)" d="M416.94 352.803C424.68 352.064 425.202 357.51 416.94 361.846C406.903 362.801 409.035 355.653 416.94 352.803Z"/><path fill="#ADF7F8" transform="scale(2 2)" d="M390.296 287.2C395.824 288.485 394.629 294.387 389.604 295.965C384.476 293.288 385.311 289.141 390.296 287.2Z"/></svg>