<?xml version="1.0" encoding="utf-8" ?><svg xmlns="http://www.w3.org/2000/svg" xmlns:xlink="http://www.w3.org/1999/xlink" width="1024" height="1024" viewBox="0 0 1024 1024"><defs><linearGradient id="gradient_0" gradientUnits="userSpaceOnUse" x1="370.74005" y1="339.76532" x2="194.85744" y2="162.84006"><stop offset="0" stop-color="#A0A2A6"/><stop offset="1" stop-color="#DBD9D8"/></linearGradient></defs><path fill="url(#gradient_0)" transform="scale(2 2)" d="M292.609 105.02C301.145 84.7512 324.737 74.7528 345.497 81.0494C355.515 84.9723 362.301 91.6981 366.819 101.472C371.099 110.731 369.048 115.499 369.748 124.026C382.843 134.9 387.036 143.886 386.718 161.474C403.796 166.035 412.996 189.532 407.123 206.098C410.202 206.158 413.34 205.821 416.306 205.874C445.318 206.388 452.507 243.822 432.76 261.155C429.609 263.921 427.043 265.42 423.71 267.703C423.618 270.776 423.922 273.683 423.851 276.708C423.251 302.57 393.72 314.45 373.265 298.569C373.286 329.656 338.15 336.053 327.798 316.771C316.043 329.592 306.668 330.505 292.609 319.133C289.107 337.952 268.248 343.676 255.191 330.52C253.687 329.004 252.481 327.553 251.179 325.926C244.241 327.814 232.068 327.733 225.575 325.045C217.07 342.574 193.742 336.007 181.87 325.045C177.625 320.65 175.057 313.758 175.025 307.632L175.025 306.614C169.364 309.67 167.047 312.859 160.226 314.691C139.308 320.308 116.09 310.066 110.253 288.365C98.5748 295.208 82.169 292.545 75.5723 280.054C67.032 270.162 68.6898 251.006 77.8821 241.686C86.1343 233.319 91.3957 233.446 102.423 233.504C94.3625 207.441 123.342 193.994 145.45 204.789C146.269 183.795 163.509 176.666 182.254 176.66C182.224 166.914 181.737 157.01 185.387 147.789C194.033 125.949 224.195 116.671 244.882 124.787C253.978 104.93 271.816 95.5392 292.609 105.02Z"/><path fill="#DFDFE0" transform="scale(2 2)" d="M292.609 105.02C301.145 84.7512 324.737 74.7528 345.497 81.0494C355.487 94.7479 358.408 101.223 358.231 119.207C354.411 119.151 350.057 119.363 346.363 119.207C364.182 135.286 367.325 149.425 353.745 171.261C341.274 156.032 323.704 150.818 308.588 166.495C293.694 162.333 277.466 170.11 273.46 185.517C271.035 194.844 272.722 201.942 275.715 210.777C261.218 203.193 247.451 212.132 239.771 224.783C227.697 215.854 213.845 221.986 205.796 233.267C197.23 245.275 198.474 259.455 202.615 272.836C195.893 270.469 194.191 268.557 189.815 263.035C176.888 271.007 161.025 270.307 151.504 257.314C150.271 255.631 149.027 253.316 147.76 251.76C153.478 269.813 161.976 277.458 181.87 275.34C177.805 281.812 174.054 286.719 167.691 291.107C148.628 304.252 125.455 291.835 115.768 272.836C111.898 274.415 110.738 276.58 107.538 278.56C97.9583 284.486 86.2998 285.318 76.249 279.971L75.5723 280.054C67.032 270.162 68.6898 251.006 77.8821 241.686C86.1343 233.319 91.3957 233.446 102.423 233.504C94.3625 207.441 123.342 193.994 145.45 204.789C146.269 183.795 163.509 176.666 182.254 176.66C182.224 166.914 181.737 157.01 185.387 147.789C194.033 125.949 224.195 116.671 244.882 124.787C253.978 104.93 271.816 95.5392 292.609 105.02Z"/><path fill="#DADADC" transform="scale(2 2)" d="M223.448 134.007C235.769 133.428 249.491 136.904 258.33 145.963C235.731 135.11 212.218 138.304 199.498 161.474C195.45 173.473 195.273 180.738 198.578 192.821C184.219 169.815 193.17 137.894 223.448 134.007Z"/><path fill="#DADADC" transform="scale(2 2)" d="M177.168 192.821C184.192 191.84 191.323 194.626 197.505 197.549C179.137 196.774 166.381 201.059 155.734 216.589C151.705 222.05 150.875 225.466 147.76 230.367C151.212 214.223 159.217 196.16 177.168 192.821Z"/><path fill="#DADADC" transform="scale(2 2)" d="M330.402 83.9019C332.23 83.8363 337.807 83.8822 339.289 84.5753C318.873 85.8349 303.653 97.0352 295.246 115.958C293.832 119.281 293.691 120.844 292.609 124.026C294.113 100.171 303.562 84.7259 330.402 83.9019Z"/><path fill="#DADADC" transform="scale(2 2)" d="M129.296 208.095C134.806 207.188 143.008 208.81 147.76 211.75C135.241 210.951 124.076 213.165 115.768 223.15C111.524 228.859 111.321 230.187 110.253 236.848C107.508 222.374 113.748 209.775 129.296 208.095Z"/><path fill="#DADADC" transform="scale(2 2)" d="M98.1109 236.848C101.358 236.678 96.8426 238.161 95.9298 238.496C81.2245 243.892 71.4168 259.42 77.3144 274.823L77.2294 274.972L76.5098 273.892C74.9665 269.978 72.3064 266.474 71.9772 262.128C70.7792 246.312 84.6668 238.49 98.1109 236.848Z"/><path fill="#A3A7AC" transform="scale(2 2)" d="M214.147 320.774C215.369 321.072 224.531 324.411 225.575 325.045C217.07 342.574 193.742 336.007 181.87 325.045C184.071 324.567 186.585 325.552 188.833 325.924C200.694 327.886 204.437 325.392 214.147 320.774Z"/><path fill="#A3A7AC" transform="scale(2 2)" d="M177.168 302.519C182.022 305.077 185.485 306.306 190.926 306.614C185.89 309.429 180.382 309.094 175.025 307.632L175.025 306.614C175.638 304.994 176.089 303.954 177.168 302.519Z"/><path fill="#A3A7AC" transform="scale(2 2)" d="M273.533 300.467C270.877 302.488 267.619 306.2 264.725 308.456C234.135 332.298 184.858 320.581 183.049 280.054C189.451 301.976 214.448 308.559 234.473 301.56C238.131 300.282 241.526 298.371 245.231 297.128L245.69 296.977C242.322 296.166 237.33 294.59 234.334 293.012C245.888 293.199 255.116 293.375 265.074 286.442C266.452 285.483 268.296 284.019 269.808 283.414C270.52 284.467 270.522 289.178 272.499 292.877C269.263 291.202 272.746 298.629 273.533 300.467Z"/><path fill="#969BA0" transform="scale(2 2)" d="M245.69 296.977C242.322 296.166 237.33 294.59 234.334 293.012C245.888 293.199 255.116 293.375 265.074 286.442C266.452 285.483 268.296 284.019 269.808 283.414C270.034 286.41 270.108 288.373 271.028 291.27C259.393 297.904 256.838 296.026 245.69 296.977Z"/><path fill="#969BA0" transform="scale(2 2)" d="M355.505 247.236L356.012 247.387L355.768 247.471L356.298 247.874C371.342 259.551 376.511 277.062 365.061 293.226C356.546 305.249 334.843 307.26 323.809 298.569C320.436 296.659 312.787 291.226 312.296 287.291L312.569 286.924C312.098 285.353 315.696 288.281 316.359 288.657C338.786 301.39 370.022 277.775 354.267 247.994L354.381 247.641L355.505 247.236Z"/><path fill="#969BA0" transform="scale(2 2)" d="M273.533 300.467C272.746 298.629 269.263 291.202 272.499 292.877C280.076 305.516 297.199 307.727 310.082 302.519C298.517 313.267 283.348 315.565 273.533 300.467Z"/><path fill="#DFDFE0" transform="scale(2 2)" d="M193.94 340.846C207.125 340.429 215.215 348.397 216.056 361.268C228.179 368.404 228.365 373.486 228.232 386.617C248.134 383.922 250.029 407.989 236.698 415.496C231.529 418.407 227.607 417.177 222.483 415.759C215.057 435.138 198.501 429.736 188.869 415.759C186.476 419.229 182.857 421.257 179.115 423.005C169.178 427.13 161.391 425.768 153.245 419.492C141.54 417.817 138.131 416.02 133.765 403.468C120.361 400.227 110.234 388.289 121.671 376.657C126.774 371.466 132.737 370.48 139.739 370.26C147.655 355.321 156.087 349.224 173.867 355.498C177.692 345.513 183.471 341.374 193.94 340.846Z"/><path fill="#DADADC" transform="scale(2 2)" d="M157.423 361.268C164.65 360.199 168.19 363.461 172.849 368.315C166.291 364.742 161.37 363.315 154.614 367.642C150.408 368.424 147.84 372.301 145.45 375.54C144.997 367.493 149.147 361.916 157.423 361.268Z"/><path fill="#DADADC" transform="scale(2 2)" d="M133.765 372.304C135.436 372.156 141.576 372.196 142.097 374.129C139.924 376.099 130.992 373.045 123.447 383.654C121.709 386.488 121.89 386.648 121.054 389.605L120.699 389.689C118.056 382.488 126.257 373.623 133.765 372.304Z"/><path fill="#DADADC" transform="scale(2 2)" d="M369.748 332.369C384.993 330.318 391.776 340.46 391.871 353.968C399.206 356.011 402.607 360.181 403.653 367.642C419.359 366.726 425.605 380.703 415.42 391.192C410.54 396.218 404.857 395.812 398.327 395.868C394.722 411.068 381.74 412.2 369.748 403.468C363.911 403.364 362.447 404.223 356.388 402.874C355.722 403.213 355.025 403.676 354.386 404.074C347.478 409.034 340.857 407.946 336.415 400.668C326.349 401.824 322.393 395.98 321.943 386.617C298.555 394.406 296.005 360.271 315.484 357.888C318.104 357.568 321.043 357.611 323.809 357.622C327.424 344.688 341.734 339.996 353.745 344.112C357.826 337.425 361.953 333.96 369.748 332.369Z"/><path fill="#DFDFE0" transform="scale(2 2)" d="M343.876 347.804C353.055 347.043 364.399 353.506 345.764 354.094C336.391 354.389 335.879 360.076 330.402 364.947C322.399 363.839 317.534 362.705 310.967 368.315C309.271 369.794 308.152 371.577 306.459 373.159C301.729 372.806 307.698 353.532 327.798 362.119C331.104 354.217 335.276 349.579 343.876 347.804Z"/><path fill="#DADADC" transform="scale(2 2)" d="M265.686 357.622C267.955 357.408 284.244 357.756 279.664 362.946C276.059 367.031 265.369 366.966 259.506 368.315C256.239 368.595 248.361 366.457 243.137 366.436C248.183 360.78 258.371 357.847 265.686 357.622Z"/></svg>