<?xml version="1.0" encoding="utf-8" ?><svg xmlns="http://www.w3.org/2000/svg" xmlns:xlink="http://www.w3.org/1999/xlink" width="1024" height="1024" viewBox="0 0 1024 1024"><path fill="#2058B2" transform="scale(2 2)" d="M182.085 213.499C190.505 213.707 199.295 212.661 207.865 212.377C268.572 210.368 330.666 210.394 390.481 222.018C394.863 222.87 402.575 224.609 406.378 226.551L406.755 226.741L406.755 237.463C409.375 237.822 415.193 238.82 417.589 239.848C422.422 241.273 426.404 243.635 429.491 247.637C429.215 249.46 428.276 260.743 429.491 261.526C432.067 261.973 436.518 263.31 439.005 264.212C450.804 267.354 461.282 269.912 472.35 263.552C468.991 272.542 460.677 282.291 452.741 287.562C458.55 298.163 463.561 309.827 467.572 321.25C468.134 321.981 468.491 322.845 468.907 323.686C457.298 312.123 441.485 308.048 425.343 311.097C418.43 312.403 408.859 319.151 408.488 309.773C408.33 308.378 408.237 306.798 408.488 305.423L408.488 304.03C408.213 301.127 408.247 299.746 406.079 297.702C403.489 298.566 402.527 298.815 400.005 297.702C395.243 296.005 380.429 292.053 382.514 286.345C382.365 285.114 382.16 283.204 382.514 282.041C382.857 281.033 383.103 279.697 383.333 278.633C383.543 277.46 384.237 275.41 384.61 274.209C384.478 273.356 384.556 273.012 384.61 272.15C363.958 266.857 333.711 267.233 311.732 265.305C294.566 263.986 277.511 264.573 260.295 264.472C225.656 264.269 190.691 265.337 156.265 269.344C148.066 270.298 135.156 271.429 127.685 274.209C128.307 276.055 128.858 277.553 129.6 279.352L129.6 280.82C130.201 282.862 131.624 286.881 131.293 288.78C122.831 294.007 112.628 297.204 102.711 295.873L102.711 296.948C100.961 297.168 99.4939 297.037 97.744 296.948L95.1135 296.948C95.0142 296.424 95.0406 296.563 94.7998 296.073L94.0219 295.873L92.3267 294.597L92.3267 294.597L92.9843 293.4C92.9488 292.428 92.9667 292.737 92.3267 291.808L90.3832 291.808C89.7041 291.869 89.4485 291.839 88.7775 291.808L87.6706 291.808C86.2854 292.445 85.3199 293 84.0045 293.76C83.212 293.693 83.0233 293.644 82.225 293.76C82.1308 293.356 82.219 288.361 82.225 287.562C82.3735 285.808 82.2571 281.563 82.2693 279.65L82.225 259.978L82.225 247.637C87.7645 244.839 99.9535 238.108 105.565 237.463L105.565 226.741C124.897 222.517 139.43 218.46 160.038 215.889C165.639 215.19 174.032 215.121 179.226 213.499L179.952 213.499C180.679 213.526 181.362 213.578 182.085 213.499ZM431.679 295.873C431.752 293.682 431.766 292.707 430.204 291.148C429.132 289.931 428.238 289.422 426.775 288.78C424.625 289.366 422.953 289.372 424.076 291.808C427.798 292.85 429.047 292.922 431.679 295.873ZM113.264 281.366C114.648 281.91 115.554 282.111 116.98 282.451C117.393 281.629 117.384 281.275 118.257 280.82C118.037 280.068 118.061 280.119 118.257 279.352C118.347 278.974 118.315 279.212 118.257 278.633C116.244 279.59 115.08 280.12 113.264 281.366ZM421.782 307.481C421.867 306.702 421.813 306.201 421.782 305.423L421.782 303.06C420.901 303.409 420.092 303.732 419.193 304.03C418.701 304.46 418.087 305.026 417.589 305.423C418.79 306.72 420.093 306.958 421.782 307.481ZM395.401 278.633L396.261 279.027L396.426 279.538L395.986 280.372C396.241 280.981 398.117 281.144 400.005 282.041L400.687 282.041C402.491 278.078 398.271 277.471 395.401 278.633Z"/><defs><linearGradient id="gradient_0" gradientUnits="userSpaceOnUse" x1="436.22998" y1="285.698" x2="468.03052" y2="290.02115"><stop offset="0" stop-color="#1E4392"/><stop offset="1" stop-color="#346BBB"/></linearGradient></defs><path fill="url(#gradient_0)" transform="scale(2 2)" d="M429.491 261.526C432.067 261.973 436.518 263.31 439.005 264.212C450.804 267.354 461.282 269.912 472.35 263.552C468.991 272.542 460.677 282.291 452.741 287.562C458.55 298.163 463.561 309.827 467.572 321.25C468.134 321.981 468.491 322.845 468.907 323.686C457.298 312.123 441.485 308.048 425.343 311.097C418.43 312.403 408.859 319.151 408.488 309.773C408.33 308.378 408.237 306.798 408.488 305.423C409.773 304.835 410.611 304.815 411.727 305.827C412.662 305.385 413.597 304.643 414.449 304.03C414.989 304.543 415.782 305.23 416.164 305.827C416.863 305.502 416.825 305.504 417.589 305.423C418.79 306.72 420.093 306.958 421.782 307.481C421.867 306.702 421.813 306.201 421.782 305.423C422.307 303.898 431.678 299.25 431.679 295.873C431.752 293.682 431.766 292.707 430.204 291.148C430.111 285.382 427.329 263.119 429.491 261.526Z"/><path fill="#193E8C" transform="scale(2 2)" d="M429.491 261.526C432.067 261.973 436.518 263.31 439.005 264.212L439.11 264.696L439.568 264.891C438.51 273.662 433.653 300.114 436.807 305.423L435.378 305.423C432.014 304.915 425.005 306.38 421.782 307.481C421.867 306.702 421.813 306.201 421.782 305.423C422.307 303.898 431.678 299.25 431.679 295.873C431.752 293.682 431.766 292.707 430.204 291.148C430.111 285.382 427.329 263.119 429.491 261.526Z"/><path fill="#2058B2" transform="scale(2 2)" d="M411.727 305.827C412.662 305.385 413.597 304.643 414.449 304.03C414.989 304.543 415.782 305.23 416.164 305.827C416.863 305.502 416.825 305.504 417.589 305.423C418.79 306.72 420.093 306.958 421.782 307.481C425.005 306.38 432.014 304.915 435.378 305.423L436.807 305.423C442.564 304.407 459.934 308.388 462.417 313.882L462.409 314.36C462.415 314.446 467.225 320.99 467.572 321.25C468.134 321.981 468.491 322.845 468.907 323.686C457.298 312.123 441.485 308.048 425.343 311.097C418.43 312.403 408.859 319.151 408.488 309.773C408.33 308.378 408.237 306.798 408.488 305.423C409.773 304.835 410.611 304.815 411.727 305.827Z"/><path fill="#6B89A0" transform="scale(2 2)" d="M436.807 305.423C442.564 304.407 459.934 308.388 462.417 313.882L462.409 314.36C453.142 307.538 445.968 306.608 435.378 305.423L436.807 305.423Z"/><path fill="#B49341" transform="scale(2 2)" d="M408.488 305.423C409.773 304.835 410.611 304.815 411.727 305.827C411.446 306.635 411.296 306.568 411.727 307.481C410.322 308.203 409.574 308.544 408.488 309.773C408.33 308.378 408.237 306.798 408.488 305.423Z"/><path fill="#CDA547" transform="scale(2 2)" d="M411.727 305.827C412.662 305.385 413.597 304.643 414.449 304.03C414.989 304.543 415.782 305.23 416.164 305.827C414.525 306.559 413.444 306.928 411.727 307.481C411.296 306.568 411.446 306.635 411.727 305.827Z"/><defs><linearGradient id="gradient_1" gradientUnits="userSpaceOnUse" x1="247.24434" y1="280.58533" x2="247.2572" y2="260.22156"><stop offset="0" stop-color="#1A235F"/><stop offset="1" stop-color="#146BDA"/></linearGradient></defs><path fill="url(#gradient_1)" transform="scale(2 2)" d="M183.07 261.526C195.874 262.3 208.736 259.452 221.611 259.621C249.637 259.989 277.748 259.542 305.819 260.274C310.067 260.385 314.278 261.131 318.516 261.369C335.841 262.205 353.462 263.087 370.661 265.427L370.889 265.458C376.619 266.187 384.781 265.911 390.1 268.419L389.961 268.716L390.179 268.796C388.799 269.897 387.05 271.029 385.829 272.15L384.61 272.15C363.958 266.857 333.711 267.233 311.732 265.305C294.566 263.986 277.511 264.573 260.295 264.472C225.656 264.269 190.691 265.337 156.265 269.344C148.066 270.298 135.156 271.429 127.685 274.209C127.107 274.5 126.056 274.994 125.539 275.309C124.22 276.704 123.885 277.332 122.046 277.875L122.046 277.875C120.859 278.815 119.802 279.311 118.257 279.352C118.347 278.974 118.315 279.212 118.257 278.633C116.244 279.59 115.08 280.12 113.264 281.366L112.923 281.56C110.672 280.656 104.037 276.695 103.827 274.209L103.942 273.256C106.347 270.212 137.653 265.955 143.506 264.484C153.816 264.136 167.753 262.191 178.316 260.558L178.891 260.892C175.117 263.238 178.589 260.671 184.666 261.298L183.07 261.526Z"/><defs><linearGradient id="gradient_2" gradientUnits="userSpaceOnUse" x1="125.12833" y1="272.88309" x2="122.2002" y2="265.69604"><stop offset="0" stop-color="#9D8D82"/><stop offset="1" stop-color="#5067A4"/></linearGradient></defs><path fill="url(#gradient_2)" transform="scale(2 2)" d="M103.827 274.209L103.942 273.256C106.347 270.212 137.653 265.955 143.506 264.484L143.454 265.191C143.939 265.452 144.325 265.618 144.827 265.839C129.464 268.35 119.172 270.008 103.827 274.209Z"/><path fill="#A19085" transform="scale(2 2)" d="M143.506 264.484C153.816 264.136 167.753 262.191 178.316 260.558L178.891 260.892C175.117 263.238 178.589 260.671 184.666 261.298L183.07 261.526C175.347 262.141 165.81 263.072 158.091 264.062C153.981 264.589 148.888 265.651 144.827 265.839C144.325 265.618 143.939 265.452 143.454 265.191L143.506 264.484Z"/><path fill="#F2DA7E" transform="scale(2 2)" d="M121.219 276.788L122.046 277.875L122.046 277.875C120.859 278.815 119.802 279.311 118.257 279.352C118.347 278.974 118.315 279.212 118.257 278.633C119.339 277.765 120.018 277.432 121.219 276.788Z"/><path fill="#D5B753" transform="scale(2 2)" d="M121.219 276.788C122.43 275.971 124.111 275.656 125.539 275.309C124.22 276.704 123.885 277.332 122.046 277.875L121.219 276.788Z"/><defs><linearGradient id="gradient_3" gradientUnits="userSpaceOnUse" x1="278.23837" y1="263.82642" x2="278.33279" y2="258.1286"><stop offset="0" stop-color="#937F7D"/><stop offset="1" stop-color="#72748C"/></linearGradient></defs><path fill="url(#gradient_3)" transform="scale(2 2)" d="M178.316 260.558C189.713 260.631 200.634 258.405 211.879 258.325C247.92 258.15 282.762 257.307 318.636 260.007C332.399 261.043 348.065 261.098 361.701 262.673C367.605 263.227 372.931 264.558 379.058 264.484L379.719 265.148C379.043 265.841 372.572 265.072 370.661 265.427C353.462 263.087 335.841 262.205 318.516 261.369C314.278 261.131 310.067 260.385 305.819 260.274C277.748 259.542 249.637 259.989 221.611 259.621C208.736 259.452 195.874 262.3 183.07 261.526L184.666 261.298C178.589 260.671 175.117 263.238 178.891 260.892L178.316 260.558Z"/><path fill="#142461" transform="scale(2 2)" d="M414.449 293.76C418.523 291.696 419.696 291.606 424.076 291.808C427.798 292.85 429.047 292.922 431.679 295.873C431.678 299.25 422.307 303.898 421.782 305.423L421.782 303.06C420.901 303.409 420.092 303.732 419.193 304.03C418.701 304.46 418.087 305.026 417.589 305.423C416.825 305.504 416.863 305.502 416.164 305.827C415.782 305.23 414.989 304.543 414.449 304.03C413.597 304.643 412.662 305.385 411.727 305.827C410.611 304.815 409.773 304.835 408.488 305.423L408.488 304.03C408.213 301.127 408.247 299.746 406.079 297.702L406.079 296.948C409.147 295.921 411.285 294.375 414.449 293.76Z"/><path fill="#9F7541" transform="scale(2 2)" d="M420.627 298.869C420.998 300.204 421.43 301.728 421.782 303.06C420.901 303.409 420.092 303.732 419.193 304.03C418.701 304.46 418.087 305.026 417.589 305.423C416.825 305.504 416.863 305.502 416.164 305.827C415.782 305.23 414.989 304.543 414.449 304.03C413.597 304.643 412.662 305.385 411.727 305.827C410.611 304.815 409.773 304.835 408.488 305.423L408.488 304.03L408.961 303.945C410.38 301.55 411.107 300.679 413.447 299.409L413.447 298.869C415.396 298.776 415.773 298.723 417.589 299.409C418.972 299.773 419.424 299.518 420.627 298.869Z"/><path fill="#89622F" transform="scale(2 2)" d="M420.627 298.869C420.998 300.204 421.43 301.728 421.782 303.06C420.901 303.409 420.092 303.732 419.193 304.03C418.701 304.46 418.087 305.026 417.589 305.423C416.825 305.504 416.863 305.502 416.164 305.827C415.782 305.23 414.989 304.543 414.449 304.03L414.449 304.03C416.224 303.39 417.601 303.202 414.449 303.06C414.644 302.582 414.993 301.927 415.229 301.447L415.229 300.908C416.187 300.458 416.938 300.226 417.589 299.409C418.972 299.773 419.424 299.518 420.627 298.869Z"/><path fill="#D5B753" transform="scale(2 2)" d="M415.229 301.447C416.71 301.698 418.18 301.946 419.665 302.174L419.809 302.482L419.056 303.393C419.089 303.573 419.127 303.878 419.193 304.03C418.701 304.46 418.087 305.026 417.589 305.423C416.825 305.504 416.863 305.502 416.164 305.827C415.782 305.23 414.989 304.543 414.449 304.03L414.449 304.03C416.224 303.39 417.601 303.202 414.449 303.06C414.644 302.582 414.993 301.927 415.229 301.447Z"/><path fill="#CDA547" transform="scale(2 2)" d="M414.449 304.03C412.789 303.745 412.542 304.794 411.004 305.005L409.913 303.833C410.318 302.194 412.827 303.045 414.142 303.059L414.449 303.06C417.601 303.202 416.224 303.39 414.449 304.03Z"/><path fill="#DBBE61" transform="scale(2 2)" d="M413.447 298.869C415.396 298.776 415.773 298.723 417.589 299.409C416.938 300.226 416.187 300.458 415.229 300.908C414.618 301.378 414.291 301.666 413.611 302.078L412.903 301.838L412.768 301.526C413.965 300.58 414.821 300.754 413.447 299.409L413.447 298.869Z"/><path fill="#A2661E" transform="scale(2 2)" d="M414.449 297.702C416.895 295.078 418.344 294.649 420.627 297.702C420.521 298.409 420.511 298.161 420.627 298.869C419.424 299.518 418.972 299.773 417.589 299.409C415.773 298.723 415.396 298.776 413.447 298.869L414.449 297.702Z"/><path fill="#673B25" transform="scale(2 2)" d="M414.449 297.702C415.448 297.96 419.521 297.814 420.627 297.702C420.521 298.409 420.511 298.161 420.627 298.869C419.424 299.518 418.972 299.773 417.589 299.409C415.773 298.723 415.396 298.776 413.447 298.869L414.449 297.702Z"/><path fill="#142461" transform="scale(2 2)" d="M390.1 268.419C394.656 269.57 402.701 272.5 406.755 273.136L407.022 271.963C407.494 274.591 402.992 281.559 400.687 282.041C402.491 278.078 398.271 277.471 395.401 278.633L394.019 279.352C393.276 280.098 392.397 280.658 391.334 280.82L391.334 280.82C389.603 280.852 389.478 280.86 388.207 282.041L386.747 283.03C385.32 281.141 384.66 281.615 382.514 282.041C382.857 281.033 383.103 279.697 383.333 278.633C383.543 277.46 384.237 275.41 384.61 274.209C384.478 273.356 384.556 273.012 384.61 272.15L385.829 272.15C387.05 271.029 388.799 269.897 390.179 268.796L389.961 268.716L390.1 268.419Z"/><path fill="#E4CD74" transform="scale(2 2)" d="M384.61 274.209C384.417 276.545 386.036 275.353 386.747 276.788C387.63 277.543 388.161 277.773 388.958 278.633L388.958 278.633L390.1 279.352L389.761 280.122L390.1 280.82L391.334 280.82L391.334 280.82C389.603 280.852 389.478 280.86 388.207 282.041L386.747 283.03C385.32 281.141 384.66 281.615 382.514 282.041C382.857 281.033 383.103 279.697 383.333 278.633C383.543 277.46 384.237 275.41 384.61 274.209Z"/><path fill="#D5B753" transform="scale(2 2)" d="M384.61 274.209C384.417 276.545 386.036 275.353 386.747 276.788C387.63 277.543 388.161 277.773 388.958 278.633L388.207 278.633C387.187 278.761 385.157 280.069 384.61 279.352L383.333 278.633C383.543 277.46 384.237 275.41 384.61 274.209Z"/><path fill="#B49341" transform="scale(2 2)" d="M384.61 279.352C385.494 277.544 386.774 277.464 388.207 278.633C387.187 278.761 385.157 280.069 384.61 279.352Z"/><path fill="#DBBE61" transform="scale(2 2)" d="M388.958 278.633L390.1 279.352L389.761 280.122L390.1 280.82L391.334 280.82L391.334 280.82C389.603 280.852 389.478 280.86 388.207 282.041C386.906 280.377 387.104 279.947 388.958 278.633Z"/><path fill="#A2661E" transform="scale(2 2)" d="M390.1 274.209C393.611 276.724 392.901 275.891 394.019 279.352C393.276 280.098 392.397 280.658 391.334 280.82L390.1 280.82L389.761 280.122L390.1 279.352L388.958 278.633L388.958 278.633C388.161 277.773 387.63 277.543 386.747 276.788C386.801 276.167 386.65 274.439 386.747 274.209L388.207 275.309L390.1 274.209Z"/><path fill="#C5A849" transform="scale(2 2)" d="M386.747 276.788C386.801 276.167 386.65 274.439 386.747 274.209L388.207 275.309C389.058 276.089 389.88 276.851 390.71 277.657L390.663 277.967L389.628 278.294C389.976 278.599 389.807 278.505 390.1 278.633C390.204 279.18 390.236 278.943 390.1 279.352L388.958 278.633L388.958 278.633C388.161 277.773 387.63 277.543 386.747 276.788Z"/><path fill="#E4CD74" transform="scale(2 2)" d="M390.1 278.633C390.855 278.335 391.013 278.185 391.81 278.3L391.988 278.685C391.546 279.762 391.014 280.061 390.1 280.82L389.761 280.122L390.1 279.352C390.236 278.943 390.204 279.18 390.1 278.633Z"/><path fill="#CDA547" transform="scale(2 2)" d="M384.61 272.15L385.829 272.15L388.207 273.136C387.676 273.488 387.18 273.757 386.747 274.209C386.65 274.439 386.801 276.167 386.747 276.788C386.036 275.353 384.417 276.545 384.61 274.209C384.478 273.356 384.556 273.012 384.61 272.15Z"/><path fill="#9F7541" transform="scale(2 2)" d="M388.207 273.136C388.848 273.473 389.51 273.793 390.1 274.209L388.207 275.309L386.747 274.209C387.18 273.757 387.676 273.488 388.207 273.136Z"/><path fill="#F2DA7E" transform="scale(2 2)" d="M127.685 274.209C128.307 276.055 128.858 277.553 129.6 279.352L129.6 280.82C128.948 281.258 128.372 281.653 127.685 282.041C127.626 283.804 126.215 284.151 124.861 285.368C122.625 284.342 120.624 283.654 118.257 283.03L116.98 282.451C117.393 281.629 117.384 281.275 118.257 280.82C118.037 280.068 118.061 280.119 118.257 279.352C119.802 279.311 120.859 278.815 122.046 277.875L122.046 277.875C123.885 277.332 124.22 276.704 125.539 275.309C126.056 274.994 127.107 274.5 127.685 274.209Z"/><path fill="#E4CD74" transform="scale(2 2)" d="M121.219 282.041C122.875 281.53 123.263 279.903 124.126 282.648L124.56 282.795C125.099 282.481 125.1 282.484 125.539 282.041L127.685 282.041C127.626 283.804 126.215 284.151 124.861 285.368C122.625 284.342 120.624 283.654 118.257 283.03C119.361 282.829 120.179 282.451 121.219 282.041Z"/><path fill="#DBBE61" transform="scale(2 2)" d="M127.685 274.209C128.307 276.055 128.858 277.553 129.6 279.352C127.921 279.015 127.248 278.346 125.539 278.633L125.539 277.875C124.547 278.12 123.853 278.306 122.887 278.633L122.046 277.875L122.046 277.875C123.885 277.332 124.22 276.704 125.539 275.309C126.056 274.994 127.107 274.5 127.685 274.209Z"/><path fill="#F2E296" transform="scale(2 2)" d="M122.046 277.875L122.887 278.633C123.853 278.306 124.547 278.12 125.539 277.875C124.839 279.632 123.136 278.906 121.219 282.041C120.179 282.451 119.361 282.829 118.257 283.03L116.98 282.451C117.393 281.629 117.384 281.275 118.257 280.82C118.037 280.068 118.061 280.119 118.257 279.352C119.802 279.311 120.859 278.815 122.046 277.875Z"/><path fill="#E4CD74" transform="scale(2 2)" d="M122.046 277.875L122.887 278.633C121.896 279.064 118.978 280.241 118.257 280.82C118.037 280.068 118.061 280.119 118.257 279.352C119.802 279.311 120.859 278.815 122.046 277.875Z"/><path fill="#D5B753" transform="scale(2 2)" d="M125.539 278.633C127.248 278.346 127.921 279.015 129.6 279.352L129.6 280.82C128.948 281.258 128.372 281.653 127.685 282.041L125.539 282.041C126.802 279.283 127.228 281.68 125.539 278.633Z"/><defs><linearGradient id="gradient_4" gradientUnits="userSpaceOnUse" x1="388.47794" y1="273.45145" x2="397.53207" y2="263.51315"><stop offset="0" stop-color="#6B6D8A"/><stop offset="1" stop-color="#3361BD"/></linearGradient></defs><path fill="url(#gradient_4)" transform="scale(2 2)" d="M379.058 264.484C383.98 265.104 406.219 268.189 406.755 273.136C402.701 272.5 394.656 269.57 390.1 268.419C384.781 265.911 376.619 266.187 370.889 265.458L370.661 265.427C372.572 265.072 379.043 265.841 379.719 265.148L379.058 264.484Z"/><path fill="#D5B753" transform="scale(2 2)" d="M85.6248 287.562C86.1315 285.514 88.7086 286.114 90.3832 286.345C91.5019 286.23 91.802 286.231 92.9211 286.345C92.178 288.435 92.2633 289.647 92.3267 291.808L90.3832 291.808C89.7041 291.869 89.4485 291.839 88.7775 291.808L87.6706 291.808C86.2854 292.445 85.3199 293 84.0045 293.76C83.212 293.693 83.0233 293.644 82.225 293.76C82.1308 293.356 82.219 288.361 82.225 287.562C83.5141 287.391 84.4221 287.004 85.6248 287.562Z"/><path fill="#DBBE61" transform="scale(2 2)" d="M82.225 287.562C83.5141 287.391 84.4221 287.004 85.6248 287.562L85.6248 288.78C84.4452 288.967 84.4278 289.289 84.0045 290.361C84.1688 291.899 83.9852 292.38 84.0045 293.76C83.212 293.693 83.0233 293.644 82.225 293.76C82.1308 293.356 82.219 288.361 82.225 287.562Z"/><path fill="#6C6423" transform="scale(2 2)" d="M88.7775 291.808L89.1232 291.599C89.532 290.394 89.1641 288.914 89.3496 287.39L89.675 287.562C89.9422 289.01 90.1841 290.347 90.3832 291.808C89.7041 291.869 89.4485 291.839 88.7775 291.808Z"/><path fill="#B49341" transform="scale(2 2)" d="M86.1098 288.78C86.9046 289.178 87.6338 290.032 87.8426 290.903L87.6706 291.148C86.5987 290.372 86.3902 290 86.1098 288.78Z"/><defs><linearGradient id="gradient_5" gradientUnits="userSpaceOnUse" x1="417.90363" y1="293.8364" x2="421.3092" y2="286.52975"><stop offset="0" stop-color="#FBD877"/><stop offset="1" stop-color="#FFF39A"/></linearGradient></defs><path fill="url(#gradient_5)" transform="scale(2 2)" d="M416.164 288.78C419.771 287.529 423.258 286.878 426.775 288.78C424.625 289.366 422.953 289.372 424.076 291.808C419.696 291.606 418.523 291.696 414.449 293.76C414.28 293.074 414.406 291.904 414.449 291.148C415.558 290.777 417.377 290.55 417.425 289.313L416.164 288.78Z"/><path fill="#F2DA7E" transform="scale(2 2)" d="M394.019 279.352L395.401 278.633L396.261 279.027L396.426 279.538L395.986 280.372C396.241 280.981 398.117 281.144 400.005 282.041C398.255 283.701 394.013 282.925 391.334 283.03L388.958 283.03C388.068 283.085 387.639 283.082 386.747 283.03L388.207 282.041C389.478 280.86 389.603 280.852 391.334 280.82L391.334 280.82C392.397 280.658 393.276 280.098 394.019 279.352Z"/><path fill="#F2DA7E" transform="scale(2 2)" d="M129.6 280.82C130.201 282.862 131.624 286.881 131.293 288.78C130.292 288.393 126.704 286.205 124.861 285.368C126.215 284.151 127.626 283.804 127.685 282.041C128.372 281.653 128.948 281.258 129.6 280.82Z"/><path fill="#D5B753" transform="scale(2 2)" d="M410.512 291.808C412.077 291.88 412.956 291.554 414.449 291.148C414.406 291.904 414.28 293.074 414.449 293.76C411.285 294.375 409.147 295.921 406.079 296.948C406.204 294.803 406.27 296.157 404.157 295.873C406.018 294.732 408.766 292.7 410.512 291.808Z"/><path fill="#D5B753" transform="scale(2 2)" d="M92.9211 286.345L92.9211 286.345C93.85 286.768 94.3314 286.928 95.1135 287.562L96.416 288.78C95.3241 289.85 94.7354 291.176 94.0219 291.808C92.9811 291.47 93.5231 291.53 92.3267 291.808C92.2633 289.647 92.178 288.435 92.9211 286.345Z"/><path fill="#6C6423" transform="scale(2 2)" d="M92.9211 286.345L92.9211 286.345C92.5406 291.898 94.4121 293.651 95.1135 287.562L96.416 288.78C95.3241 289.85 94.7354 291.176 94.0219 291.808C92.9811 291.47 93.5231 291.53 92.3267 291.808C92.2633 289.647 92.178 288.435 92.9211 286.345Z"/><path fill="#CDA547" transform="scale(2 2)" d="M382.514 282.041C384.66 281.615 385.32 281.141 386.747 283.03C387.639 283.082 388.068 283.085 388.958 283.03C385.056 283.971 385.296 284.464 382.514 286.345C382.365 285.114 382.16 283.204 382.514 282.041Z"/><path fill="#673B25" transform="scale(2 2)" d="M92.3267 291.808C93.5231 291.53 92.9811 291.47 94.0219 291.808C94.4772 292.948 94.8123 292.936 95.8795 293.76C96.633 294.051 96.273 293.937 97.2429 293.76L97.744 294.597C96.9452 295.788 96.9157 295.637 97.744 296.948L95.1135 296.948C95.0142 296.424 95.0406 296.563 94.7998 296.073L94.0219 295.873L92.3267 294.597L92.3267 294.597L92.9843 293.4C92.9488 292.428 92.9667 292.737 92.3267 291.808Z"/><path fill="#CDA547" transform="scale(2 2)" d="M94.0219 291.808C94.7354 291.176 95.3241 289.85 96.416 288.78C96.8876 289.283 97.4033 289.769 97.744 290.361L98.6922 291.148C98.2602 291.885 97.5569 293.002 97.2429 293.76C96.273 293.937 96.633 294.051 95.8795 293.76C94.8123 292.936 94.4772 292.948 94.0219 291.808Z"/><path fill="#5A4D38" transform="scale(2 2)" d="M97.744 290.361L98.6922 291.148C98.2602 291.885 97.5569 293.002 97.2429 293.76C96.273 293.937 96.633 294.051 95.8795 293.76C96.5545 292.331 96.8697 291.702 97.744 290.361Z"/><path fill="#9F7541" transform="scale(2 2)" d="M97.744 294.597C98.9266 294.59 99.2465 294.375 100.218 293.76C100.959 294.784 101.583 295.238 102.711 295.873L102.711 296.948C100.961 297.168 99.4939 297.037 97.744 296.948C96.9157 295.637 96.9452 295.788 97.744 294.597Z"/><path fill="#A19085" transform="scale(2 2)" d="M404.157 295.873C406.27 296.157 406.204 294.803 406.079 296.948L406.079 297.702C403.489 298.566 402.527 298.815 400.005 297.702C401.558 297.159 402.681 296.593 404.157 295.873Z"/><path fill="#FAF6B5" transform="scale(2 2)" d="M416.164 288.78L416.164 288.78L417.425 289.313C417.377 290.55 415.558 290.777 414.449 291.148C412.956 291.554 412.077 291.88 410.512 291.808C412.387 290.778 414.273 289.782 416.164 288.78Z"/><path fill="#C5A849" transform="scale(2 2)" d="M98.6922 291.148C99.4747 292.232 99.712 292.537 100.218 293.76C99.2465 294.375 98.9266 294.59 97.744 294.597L97.2429 293.76C97.5569 293.002 98.2602 291.885 98.6922 291.148Z"/><defs><linearGradient id="gradient_6" gradientUnits="userSpaceOnUse" x1="92.025467" y1="284.28555" x2="41.527569" y2="288.60803"><stop offset="0" stop-color="#0F2F7D"/><stop offset="1" stop-color="#3671C6"/></linearGradient></defs><path fill="url(#gradient_6)" transform="scale(2 2)" d="M77.8374 262.461C79.1131 261.384 80.7201 260.693 82.225 259.978L82.2693 279.65C82.2571 281.563 82.3735 285.808 82.225 287.562C82.219 288.361 82.1308 293.356 82.225 293.76C83.0233 293.644 83.212 293.693 84.0045 293.76C85.3199 293 86.2854 292.445 87.6706 291.808L88.7775 291.808C89.4485 291.839 89.7041 291.869 90.3832 291.808L92.3267 291.808C92.9667 292.737 92.9488 292.428 92.9843 293.4L92.3267 294.597L92.3267 294.597L94.0219 295.873L94.7998 296.073C95.0406 296.563 95.0142 296.424 95.1135 296.948L97.744 296.948C99.4939 297.037 100.961 297.168 102.711 296.948C103.028 297.728 103.728 299.283 103.827 300.044C103.8 302.543 103.775 304.98 103.827 307.481L103.827 311.576C105.24 316.502 90.1165 311.331 86.3828 310.928C71.1932 309.292 54.0426 312.879 42.8364 323.686C43.0612 323.243 43.8658 321.572 44.0828 321.25C45.5886 317.859 46.633 315.971 47.9429 312.391C51.2362 305.471 57.0395 294.44 62.2392 288.78C52.7563 278.318 46.6373 276.943 38.9475 261.526C54.0671 272.26 62.7529 268.041 77.8374 262.461Z"/><path fill="#2058B2" transform="scale(2 2)" d="M95.8795 303.592L97.2429 304.03L97.744 304.03C98.5605 304.832 98.6842 304.935 99.7163 305.423L100.218 305.423L100.979 305.423C101.691 305.909 103.289 307.32 103.827 307.481L103.827 311.576C105.24 316.502 90.1165 311.331 86.3828 310.928C71.1932 309.292 54.0426 312.879 42.8364 323.686C43.0612 323.243 43.8658 321.572 44.0828 321.25C45.5886 317.859 46.633 315.971 47.9429 312.391C48.627 314.381 49.6635 313.449 49.2909 315.333C50.5146 315.077 51.7332 314.044 52.4848 313.402C56.058 310.349 72.0891 305.466 76.3251 305.827C80.5688 305.965 91.0806 307.392 94.0219 305.827L94.0219 305.827C93.7691 304.689 95.3418 305.26 95.8795 305.423C95.6486 304.725 95.7931 304.376 95.8795 303.592Z"/><path fill="#F2DA7E" transform="scale(2 2)" d="M95.8795 303.592L97.2429 304.03L97.744 304.03C98.5605 304.832 98.6842 304.935 99.7163 305.423L100.218 305.423L100.979 305.423C99.6575 305.924 100.175 307.274 100.218 308.62C97.0666 307.442 97.087 307.698 94.0219 305.827C93.7691 304.689 95.3418 305.26 95.8795 305.423C95.6486 304.725 95.7931 304.376 95.8795 303.592Z"/><path fill="#F2E296" transform="scale(2 2)" d="M95.8795 303.592L97.2429 304.03L97.744 304.03C98.5605 304.832 98.6842 304.935 99.7163 305.423C98.9513 306.809 97.0239 305.909 95.8795 305.423C95.6486 304.725 95.7931 304.376 95.8795 303.592Z"/><path fill="#D5B753" transform="scale(2 2)" d="M100.979 305.423C101.691 305.909 103.289 307.32 103.827 307.481L103.827 311.576C102.625 310.448 101.656 309.434 100.218 308.62C100.175 307.274 99.6575 305.924 100.979 305.423Z"/><path fill="#4B70A4" transform="scale(2 2)" d="M47.9429 312.391C48.627 314.381 49.6635 313.449 49.2909 315.333C48.5875 316.13 47.701 317.745 47.1281 316.199C46.1612 317.789 45.3378 320.23 44.0828 321.25C45.5886 317.859 46.633 315.971 47.9429 312.391Z"/><path fill="#89622F" transform="scale(2 2)" d="M94.0219 295.873L94.7998 296.073C95.0406 296.563 95.0142 296.424 95.1135 296.948L97.744 296.948C99.4939 297.037 100.961 297.168 102.711 296.948C103.028 297.728 103.728 299.283 103.827 300.044C103.8 302.543 103.775 304.98 103.827 307.481C103.289 307.32 101.691 305.909 100.979 305.423L100.218 305.423L99.7163 305.423C98.6842 304.935 98.5605 304.832 97.744 304.03L97.2429 304.03L95.8795 303.592L95.8795 303.592C94.819 302.934 94.1102 302.134 92.9211 301.447C91.907 301.987 92.4673 299.664 92.36 299.07L92.9211 298.869L92.9211 298.869C92.8566 298.156 92.8972 297.659 92.9211 296.948L94.0219 295.873Z"/><path fill="#9F7541" transform="scale(2 2)" d="M102.711 300.044L103.827 300.044C103.8 302.543 103.775 304.98 103.827 307.481C103.289 307.32 101.691 305.909 100.979 305.423L100.218 305.423L100.218 304.03C100.248 302.705 101.609 301.917 102.711 301.447L102.801 301.331C102.86 300.718 102.82 300.659 102.711 300.044Z"/><path fill="#5A4D38" transform="scale(2 2)" d="M100.218 304.03C100.248 302.705 101.609 301.917 102.711 301.447C102.342 303.381 102.316 303.916 100.979 305.423L100.218 305.423L100.218 304.03Z"/><defs><linearGradient id="gradient_7" gradientUnits="userSpaceOnUse" x1="99.227348" y1="296.85751" x2="98.695709" y2="298.58136"><stop offset="0" stop-color="#603A1E"/><stop offset="1" stop-color="#53322E"/></linearGradient></defs><path fill="url(#gradient_7)" transform="scale(2 2)" d="M97.744 296.948C99.4939 297.037 100.961 297.168 102.711 296.948C103.028 297.728 103.728 299.283 103.827 300.044L102.711 300.044C100.382 299.02 95.2385 297.788 95.1135 296.948L97.744 296.948Z"/><path fill="#5A4D38" transform="scale(2 2)" d="M98.6922 299.409C99.3261 300.271 99.7825 300.688 99.9122 301.702L99.7163 302.298L100.218 304.03L100.218 305.423L99.7163 305.423C98.6842 304.935 98.5605 304.832 97.744 304.03L97.2429 304.03C97.0133 301.463 96.8547 301.279 98.6922 299.409Z"/><path fill="#CDA547" transform="scale(2 2)" d="M97.744 304.03C98.0402 302.611 98.2963 302.433 99.7163 302.298L100.218 304.03L100.218 305.423L99.7163 305.423C98.6842 304.935 98.5605 304.832 97.744 304.03Z"/><path fill="#B49341" transform="scale(2 2)" d="M95.8795 303.592C95.9571 302.514 93.9351 301.086 95.2604 300.359C97.2334 299.277 96.7754 298.748 98.8088 299.043L98.6922 299.409C96.8547 301.279 97.0133 301.463 97.2429 304.03L95.8795 303.592L95.8795 303.592Z"/><path fill="#CDA547" transform="scale(2 2)" d="M92.9211 301.447C91.907 301.987 92.4673 299.664 92.36 299.07L92.9211 298.869C94.238 299.776 94.5656 300.352 92.9764 301.226L92.9211 301.447Z"/><path fill="#193E8C" transform="scale(2 2)" d="M77.8374 262.461C79.1131 261.384 80.7201 260.693 82.225 259.978L82.2693 279.65C82.2571 281.563 82.3735 285.808 82.225 287.562C82.219 288.361 82.1308 293.356 82.225 293.76L82.12 293.871C81.983 293.205 82.0688 293.227 82.225 292.5C82.5442 290.602 81.5183 290.541 81.3726 288.289C82.5922 287.27 82.0988 273.559 81.9061 271.486L81.6677 272.808C79.8762 268.624 80.4997 269.012 77.6938 264.257L76.8492 264.159L76.7061 263.786L77.8374 262.461Z"/><path fill="#E4CD74" transform="scale(2 2)" d="M90.3832 296.948C91.5464 297.082 91.8004 297.164 92.9211 296.948C92.8972 297.659 92.8566 298.156 92.9211 298.869L92.9211 298.869L92.36 299.07C92.4673 299.664 91.907 301.987 92.9211 301.447C94.1102 302.134 94.819 302.934 95.8795 303.592L95.8795 303.592C95.7931 304.376 95.6486 304.725 95.8795 305.423C95.3418 305.26 93.7691 304.689 94.0219 305.827L94.0219 305.827C93.1981 305.463 91.2846 305.373 90.3832 305.423C88.8818 303.992 89.0083 303.518 88.7775 301.447L88.7775 301.447C88.764 300.029 89.1013 298.982 89.675 297.702L90.3832 296.948Z"/><path fill="#A2661E" transform="scale(2 2)" d="M90.3832 296.948C91.5464 297.082 91.8004 297.164 92.9211 296.948C92.8972 297.659 92.8566 298.156 92.9211 298.869L92.4079 298.459C90.8378 299.238 90.5196 299.267 89.675 297.702L90.3832 296.948Z"/><path fill="#4B70A4" transform="scale(2 2)" d="M90.3832 305.423C91.2846 305.373 93.1981 305.463 94.0219 305.827C91.0806 307.392 80.5688 305.965 76.3251 305.827L76.583 305.367C70.4143 305.392 51.5129 312.127 51.3275 312.078C67.7274 303.056 89.0186 306.143 90.3832 305.423Z"/><path fill="#142461" transform="scale(2 2)" d="M88.7775 301.447C87.5936 296.578 81.6693 295.061 92.3267 294.597L92.3267 294.597L94.0219 295.873L92.9211 296.948C91.8004 297.164 91.5464 297.082 90.3832 296.948L89.675 297.702C89.1013 298.982 88.764 300.029 88.7775 301.447Z"/><path fill="#9F7541" transform="scale(2 2)" d="M92.3267 294.597L94.0219 295.873L92.9211 296.948C91.8004 297.164 91.5464 297.082 90.3832 296.948C91.2488 296.037 91.6092 295.624 92.3267 294.597Z"/><path fill="#D5B753" transform="scale(2 2)" d="M334.079 175.032C335.584 179.826 336.494 179.205 334.669 184.133C336.401 183.006 338.218 182.352 340.275 182.821C340.305 184.798 339.788 185.869 339.631 187.648C342.862 188.36 344.464 184.98 346.479 186.712C347.283 189.155 347.023 191.228 344.728 192.539C345.846 194.078 345.98 194.673 347.79 195.06L348.209 195.295C349.065 195.233 351.076 194.568 351.99 194.295C352.659 194.344 353.883 194.697 354.15 194.667L354.174 194.355C354.606 189.163 362.294 194.952 362.677 195.753L362.677 196.862C362.348 197.591 362.213 198.125 361.558 198.557C360.93 199.909 360.361 201.159 359.791 202.54C360.405 203.43 360.552 203.439 361.558 203.945C361.025 204.318 360.278 204.81 359.791 205.204C360.428 205.99 360.815 206.503 361.558 207.179C362.338 206.757 362.694 206.759 363.548 207.179L364.409 208.559C363.368 209.204 360.57 210.789 359.791 211.372L359.019 210.828C358.122 210.02 357.112 210.113 355.879 210.018C354.676 210.267 354.068 210.363 352.924 210.828C350.853 210.066 348.842 209.223 347.79 207.179C346.255 204.042 341.305 210.889 338.535 211.797C332.688 213.553 327.415 211.875 323.079 207.774C321.779 206.905 321.131 206.681 319.709 206.113C319.997 205.724 320.418 204.981 320.686 204.542L321.175 204.832L321.601 204.542C322.3 204.071 322.259 204.025 323.079 203.945C323.122 203.045 322.981 202.456 323.079 201.31L323.079 201.31L323.079 200.527L323.079 200.011L322.412 199.374C321.786 197.768 321.874 197.745 320.686 196.428C320.68 196.729 320.7 196.532 320.532 196.999L319.709 196.428C320.727 193.657 321.263 194.602 322.789 192.61L322.739 192.266L321.601 192.039L321.601 192.039C321.413 192.108 321.063 192.157 320.851 192.197L320.531 191.854C318.724 180.395 325.23 187.947 327.519 187.326C328.711 185.495 323.855 181.054 328.682 182.821C330.09 182.959 330.597 182.803 331.281 184.133C332.149 178.877 331.475 180.59 334.079 175.032ZM328.157 200.527C331.63 200.585 330.523 198.952 330.07 196.428L328.157 196.862C327.571 197.264 327.598 197.22 326.879 197.271C327.209 198.663 327.547 199.251 328.157 200.527ZM339.631 205.204L339.631 204.542L337.497 203.389C336.846 203.688 336.654 204.003 336.19 204.542C336.877 206.812 337.796 206.182 339.631 205.204ZM337.497 192.539C336.954 191.65 335.839 189.794 334.669 190.248C334.455 191.609 334.257 192.927 334.079 194.295C334.954 193.851 336.717 193.013 337.497 192.539ZM332.174 191.459C329.783 187.688 329.048 193.324 332.174 194.295C332.282 193.185 332.417 192.544 332.174 191.459Z"/><path fill="#FDFDEC" transform="scale(2 2)" d="M351.99 194.295C352.659 194.344 353.883 194.697 354.15 194.667L354.174 194.355C354.606 189.163 362.294 194.952 362.677 195.753L362.677 196.862C362.348 197.591 362.213 198.125 361.558 198.557C360.93 199.909 360.361 201.159 359.791 202.54C360.405 203.43 360.552 203.439 361.558 203.945C361.025 204.318 360.278 204.81 359.791 205.204C360.428 205.99 360.815 206.503 361.558 207.179C362.338 206.757 362.694 206.759 363.548 207.179L364.409 208.559C363.368 209.204 360.57 210.789 359.791 211.372L359.019 210.828C358.122 210.02 357.112 210.113 355.879 210.018C354.676 210.267 354.068 210.363 352.924 210.828C350.853 210.066 348.842 209.223 347.79 207.179C348.788 207.022 349.752 207.127 350.766 207.179C350.23 206.668 349.192 205.2 348.696 204.542L347.79 203.945C346.444 199.766 346.816 202.105 345.451 201.756L345.893 201.31L344.728 200.527C344.143 199.209 343.402 198.807 342.272 197.985C343.402 197.506 343.216 197.356 344.408 198.021L344.728 197.985L344.728 197.985C345.003 197.533 345.553 196.868 345.893 196.428C346.26 195.518 346.941 195.368 347.79 195.06L348.209 195.295C349.065 195.233 351.076 194.568 351.99 194.295Z"/><path fill="#FAF6B5" transform="scale(2 2)" d="M349.623 202.54C351.228 203.531 353.253 203.808 355.119 203.945L355.119 203.945C355.417 202.982 355.441 203.434 355.119 202.54C356.066 202.813 355.618 202.833 356.511 202.54L356.511 202.54C357.497 202.817 358.074 203 359.019 203.389C359.746 203.036 359.493 203.306 359.791 202.54C360.405 203.43 360.552 203.439 361.558 203.945C361.025 204.318 360.278 204.81 359.791 205.204C360.428 205.99 360.815 206.503 361.558 207.179C362.338 206.757 362.694 206.759 363.548 207.179L364.409 208.559C363.368 209.204 360.57 210.789 359.791 211.372L359.019 210.828C358.122 210.02 357.112 210.113 355.879 210.018C354.676 210.267 354.068 210.363 352.924 210.828C350.853 210.066 348.842 209.223 347.79 207.179C348.788 207.022 349.752 207.127 350.766 207.179C350.23 206.668 349.192 205.2 348.696 204.542L349.764 204.225C350.107 203.513 349.917 203.549 349.623 202.54Z"/><defs><linearGradient id="gradient_8" gradientUnits="userSpaceOnUse" x1="353.56714" y1="206.53177" x2="350.92636" y2="209.6378"><stop offset="0" stop-color="#B3852E"/><stop offset="1" stop-color="#C5A554"/></linearGradient></defs><path fill="url(#gradient_8)" transform="scale(2 2)" d="M347.79 207.179C348.788 207.022 349.752 207.127 350.766 207.179L350.766 207.179C352.214 207.26 353.708 207.434 355.119 207.179L356.511 208.559L355.879 210.018C354.676 210.267 354.068 210.363 352.924 210.828C350.853 210.066 348.842 209.223 347.79 207.179Z"/><path fill="#DBBE61" transform="scale(2 2)" d="M361.558 207.179C362.338 206.757 362.694 206.759 363.548 207.179L364.409 208.559C363.368 209.204 360.57 210.789 359.791 211.372L359.019 210.828C361.013 210.394 360.381 209.392 359.019 208.559L359.019 208.559C360.303 208.058 360.519 208.027 361.558 207.179Z"/><path fill="#D5B753" transform="scale(2 2)" d="M357.024 206.113C357.426 206.749 357.712 207.17 358.16 207.774C358.608 208.293 358.463 208.231 359.019 208.559L359.019 208.559C360.381 209.392 361.013 210.394 359.019 210.828C358.122 210.02 357.112 210.113 355.879 210.018L356.511 208.559L355.119 207.179C355.677 207.03 356.219 206.881 356.774 206.721L357.024 206.113Z"/><path fill="#E4CD74" transform="scale(2 2)" d="M357.024 206.113C357.426 206.749 357.712 207.17 358.16 207.774C358.608 208.293 358.463 208.231 359.019 208.559L359.019 208.559C358.186 208.603 357.347 208.572 356.511 208.559L355.119 207.179C355.677 207.03 356.219 206.881 356.774 206.721L357.024 206.113Z"/><path fill="#F2E296" transform="scale(2 2)" d="M349.623 202.54C351.228 203.531 353.253 203.808 355.119 203.945C354.068 204.359 353.034 204.771 351.99 205.204C350.191 205.512 351.25 205.677 350.766 207.179L350.766 207.179C350.23 206.668 349.192 205.2 348.696 204.542L349.764 204.225C350.107 203.513 349.917 203.549 349.623 202.54Z"/><path fill="#D5B753" transform="scale(2 2)" d="M350.766 207.179C351.25 205.677 350.191 205.512 351.99 205.204C353.794 206.075 354.67 205.829 356.675 205.828L357.024 206.113L356.774 206.721C356.219 206.881 355.677 207.03 355.119 207.179C353.708 207.434 352.214 207.26 350.766 207.179Z"/><path fill="#F2E296" transform="scale(2 2)" d="M355.119 203.945C356.216 204.073 358.673 205.834 358.648 206.986L358.16 207.774C357.712 207.17 357.426 206.749 357.024 206.113L356.675 205.828C354.67 205.829 353.794 206.075 351.99 205.204C353.034 204.771 354.068 204.359 355.119 203.945L355.119 203.945Z"/><path fill="#E4CD74" transform="scale(2 2)" d="M359.791 202.54C360.405 203.43 360.552 203.439 361.558 203.945C361.025 204.318 360.278 204.81 359.791 205.204C359.202 204.447 359.063 204.362 359.019 203.389C359.746 203.036 359.493 203.306 359.791 202.54Z"/><path fill="#DBBE61" transform="scale(2 2)" d="M351.99 194.295C352.659 194.344 353.883 194.697 354.15 194.667L354.174 194.355C354.606 189.163 362.294 194.952 362.677 195.753L362.677 196.862C362.348 197.591 362.213 198.125 361.558 198.557C360.93 199.909 360.361 201.159 359.791 202.54C359.493 203.306 359.746 203.036 359.019 203.389C358.074 203 357.497 202.817 356.511 202.54L356.511 202.54C355.528 201.951 354.428 199.644 353.943 198.557L353.943 198.557L351.99 197.985C353.384 196.852 353.31 195.492 351.99 194.295Z"/><path fill="#C5A849" transform="scale(2 2)" d="M353.943 198.557L354.545 196.764C355.295 196.21 354.873 196.348 355.879 196.428L356.857 196.499C357.907 197.807 356.636 198.369 358.16 199.374C359.053 199.481 359.05 199.432 359.791 200.011C360.128 199.536 361.04 198.94 361.558 198.557C360.93 199.909 360.361 201.159 359.791 202.54C359.493 203.306 359.746 203.036 359.019 203.389C358.074 203 357.497 202.817 356.511 202.54L356.511 202.54C355.528 201.951 354.428 199.644 353.943 198.557Z"/><path fill="#F2DA7E" transform="scale(2 2)" d="M359.791 200.011C360.128 199.536 361.04 198.94 361.558 198.557C360.93 199.909 360.361 201.159 359.791 202.54C359.493 203.306 359.746 203.036 359.019 203.389C358.074 203 357.497 202.817 356.511 202.54C357.475 201.68 358.667 201 359.791 200.011Z"/><path fill="#E4CD74" transform="scale(2 2)" d="M355.879 196.428L356.857 196.499C357.907 197.807 356.636 198.369 358.16 199.374L356.511 201.31C356.406 199.774 356.371 197.849 355.879 196.428Z"/><path fill="#FAF6B5" transform="scale(2 2)" d="M353.943 198.557L353.943 198.557C354.428 199.644 355.528 201.951 356.511 202.54C355.618 202.833 356.066 202.813 355.119 202.54C355.441 203.434 355.417 202.982 355.119 203.945L355.119 203.945C353.253 203.808 351.228 203.531 349.623 202.54C348.669 201.323 348.095 202.582 347.75 200.879L348.196 200.363C349.606 199.82 350.495 199.773 351.99 200.011L353.943 198.557Z"/><path fill="#E4CD74" transform="scale(2 2)" d="M353.943 198.557L353.943 198.557C354.428 199.644 355.528 201.951 356.511 202.54C355.618 202.833 356.066 202.813 355.119 202.54C353.008 202.246 348.921 202.669 351.99 200.011L353.943 198.557Z"/><path fill="#C5A849" transform="scale(2 2)" d="M351.99 194.295C353.31 195.492 353.384 196.852 351.99 197.985C350.358 197.258 349.81 196.499 348.696 197.985C347.442 197.981 345.51 198.377 344.728 197.985C345.003 197.533 345.553 196.868 345.893 196.428C346.26 195.518 346.941 195.368 347.79 195.06L348.209 195.295C349.065 195.233 351.076 194.568 351.99 194.295Z"/><path fill="#D5B753" transform="scale(2 2)" d="M342.272 197.985C343.402 197.506 343.216 197.356 344.408 198.021L344.728 197.985L344.728 197.985C345.51 198.377 347.442 197.981 348.696 197.985C347.845 199.15 346.851 200.228 345.893 201.31L345.893 201.31L344.728 200.527C344.143 199.209 343.402 198.807 342.272 197.985Z"/><path fill="#E4CD74" transform="scale(2 2)" d="M342.272 197.985C343.402 197.506 343.216 197.356 344.408 198.021L344.728 197.985C344.692 199.742 344.483 200.21 345.893 201.31L345.893 201.31L344.728 200.527C344.143 199.209 343.402 198.807 342.272 197.985Z"/><path fill="#DBBE61" transform="scale(2 2)" d="M344.728 200.527L345.893 201.31L345.451 201.756C346.816 202.105 346.444 199.766 347.79 203.945L348.696 204.542C349.192 205.2 350.23 206.668 350.766 207.179C349.752 207.127 348.788 207.022 347.79 207.179C346.255 204.042 341.305 210.889 338.535 211.797C332.688 213.553 327.415 211.875 323.079 207.774C321.779 206.905 321.131 206.681 319.709 206.113C319.997 205.724 320.418 204.981 320.686 204.542L321.175 204.832L321.601 204.542C322.3 204.071 322.259 204.025 323.079 203.945C323.122 203.045 322.981 202.456 323.079 201.31L323.386 202.085C323.863 201.95 323.687 202.043 323.948 201.877L326.879 201.31C327.914 201.56 327.947 201.691 328.682 202.54C327.666 203.608 327.279 203.826 326.879 205.204C327.976 204.851 328.532 204.748 329.677 204.542L332.174 203.945C333.177 203.397 333.498 202.967 334.278 202.115L334.707 202.13C335.322 203.005 335.672 203.771 336.19 204.542C336.877 206.812 337.796 206.182 339.631 205.204L339.631 204.542C339.824 204.325 340.124 203.682 340.275 203.389C340.953 202.737 340.851 203.491 341.558 202.54C342.039 201.991 342.004 201.999 342.272 201.31L342.272 201.31C342.965 201.019 343.933 200.83 344.728 200.527Z"/><path fill="#D5B753" transform="scale(2 2)" d="M344.728 200.527L345.893 201.31L345.451 201.756C346.816 202.105 346.444 199.766 347.79 203.945L348.696 204.542C349.192 205.2 350.23 206.668 350.766 207.179C349.752 207.127 348.788 207.022 347.79 207.179C346.255 204.042 341.305 210.889 338.535 211.797C337.049 210.55 336.029 210.797 334.079 210.828C336.489 209.034 335.598 207.747 338.535 207.179L338.872 207.401L339.292 207.303L339.631 206.113L339.631 205.204L339.631 204.542C339.824 204.325 340.124 203.682 340.275 203.389C340.953 202.737 340.851 203.491 341.558 202.54C342.039 201.991 342.004 201.999 342.272 201.31L342.272 201.31C342.965 201.019 343.933 200.83 344.728 200.527Z"/><path fill="#E4CD74" transform="scale(2 2)" d="M344.728 200.527L345.893 201.31L345.451 201.756C346.816 202.105 346.444 199.766 347.79 203.945C346.172 203.61 345.774 203.671 344.134 203.945L342.272 203.945C341.299 203.457 342.072 202.732 342.272 201.877L342.272 201.31C342.965 201.019 343.933 200.83 344.728 200.527Z"/><path fill="#F2DA7E" transform="scale(2 2)" d="M342.272 201.877C343.789 202.379 343.859 202.242 344.134 203.945L342.272 203.945C341.299 203.457 342.072 202.732 342.272 201.877Z"/><path fill="#DBBE61" transform="scale(2 2)" d="M342.272 201.31L342.272 201.31L342.272 201.877C342.072 202.732 341.299 203.457 342.272 203.945L339.631 206.113L339.631 205.204L339.631 204.542C339.824 204.325 340.124 203.682 340.275 203.389C340.953 202.737 340.851 203.491 341.558 202.54C342.039 201.991 342.004 201.999 342.272 201.31Z"/><defs><linearGradient id="gradient_9" gradientUnits="userSpaceOnUse" x1="331.01151" y1="212.83919" x2="328.44614" y2="201.36754"><stop offset="0" stop-color="#A88F4E"/><stop offset="1" stop-color="#D8BD5C"/></linearGradient></defs><path fill="url(#gradient_9)" transform="scale(2 2)" d="M323.079 203.945C323.122 203.045 322.981 202.456 323.079 201.31L323.386 202.085C323.863 201.95 323.687 202.043 323.948 201.877L326.879 201.31C327.914 201.56 327.947 201.691 328.682 202.54C327.666 203.608 327.279 203.826 326.879 205.204L326.879 205.204C326.578 209.844 329.744 212.222 334.079 210.828C336.029 210.797 337.049 210.55 338.535 211.797C332.688 213.553 327.415 211.875 323.079 207.774C321.779 206.905 321.131 206.681 319.709 206.113C319.997 205.724 320.418 204.981 320.686 204.542L321.175 204.832L321.601 204.542C322.3 204.071 322.259 204.025 323.079 203.945Z"/><path fill="#DBBE61" transform="scale(2 2)" d="M320.686 204.542L321.175 204.832L321.601 204.542C323.393 205.959 322.73 205.692 323.079 207.774C321.779 206.905 321.131 206.681 319.709 206.113C319.997 205.724 320.418 204.981 320.686 204.542Z"/><path fill="#E4CD74" transform="scale(2 2)" d="M323.079 203.945C323.122 203.045 322.981 202.456 323.079 201.31L323.386 202.085C323.863 201.95 323.687 202.043 323.948 201.877C325.484 203.774 324.568 206.467 323.079 203.945Z"/><path fill="#F2DA7E" transform="scale(2 2)" d="M332.174 203.945C333.177 203.397 333.498 202.967 334.278 202.115L334.707 202.13C335.322 203.005 335.672 203.771 336.19 204.542C336.877 206.812 337.796 206.182 339.631 205.204L339.631 206.113L339.292 207.303L338.872 207.401L338.535 207.179C335.766 205.821 336.642 207.467 334.669 207.179C333.349 208.406 332.874 208.733 331.281 207.774L331.281 207.179C331.704 206.546 332.262 205.827 332.722 205.204C332.46 204.72 332.369 204.463 332.174 203.945Z"/><path fill="#FDFDEC" transform="scale(2 2)" d="M332.722 205.204L333.375 204.465C334.057 204.896 334.688 206.407 334.669 207.179C333.349 208.406 332.874 208.733 331.281 207.774L331.281 207.179C331.704 206.546 332.262 205.827 332.722 205.204Z"/><path fill="#F2DA7E" transform="scale(2 2)" d="M329.677 204.542L332.174 203.945C332.369 204.463 332.46 204.72 332.722 205.204C332.262 205.827 331.704 206.546 331.281 207.179L331.281 207.774C328.726 207.753 328.247 207.369 326.879 205.204L326.879 205.204C327.976 204.851 328.532 204.748 329.677 204.542Z"/><path fill="#F2E296" transform="scale(2 2)" d="M329.677 204.542L332.174 203.945C332.369 204.463 332.46 204.72 332.722 205.204C332.262 205.827 331.704 206.546 331.281 207.179L330.941 207.185C329.648 206.483 329.238 205.944 329.677 204.542Z"/><path fill="#FDFDEC" transform="scale(2 2)" d="M334.079 201.31C334.75 199.226 334.376 199.202 336.049 197.718L336.325 197.478L336.207 196.367L336.257 196.341L336.251 196.629L336.759 196.626C337.313 197.158 338.889 198.073 339.631 198.557C340.525 199.14 340.508 199.108 341.558 199.374C342.281 200.409 341.93 200.518 342.272 201.31C342.004 201.999 342.039 201.991 341.558 202.54C340.851 203.491 340.953 202.737 340.275 203.389C340.124 203.682 339.824 204.325 339.631 204.542L337.497 203.389C336.846 203.688 336.654 204.003 336.19 204.542C335.672 203.771 335.322 203.005 334.707 202.13L334.278 202.115C333.498 202.967 333.177 203.397 332.174 203.945L329.677 204.542C328.532 204.748 327.976 204.851 326.879 205.204C327.279 203.826 327.666 203.608 328.682 202.54L329.677 201.877C331.674 201.907 332.558 202.455 334.079 201.31Z"/><path fill="#E4CD74" transform="scale(2 2)" d="M339.631 198.557C340.525 199.14 340.508 199.108 341.558 199.374C342.281 200.409 341.93 200.518 342.272 201.31C342.004 201.999 342.039 201.991 341.558 202.54C340.851 203.491 340.953 202.737 340.275 203.389C338.584 203.016 338.618 202.784 337.497 201.31C338.143 200.603 338.887 199.973 339.631 199.374L339.631 198.557Z"/><path fill="#D5B753" transform="scale(2 2)" d="M339.631 198.557C340.525 199.14 340.508 199.108 341.558 199.374C342.281 200.409 341.93 200.518 342.272 201.31C342.004 201.999 342.039 201.991 341.558 202.54C340.788 201.304 340.267 200.716 339.631 199.374L339.631 198.557Z"/><path fill="#F2DA7E" transform="scale(2 2)" d="M337.497 203.389C336.586 202.3 335.99 201.643 334.978 200.628L335.036 199.876L335.327 199.796C336.138 200.335 336.622 201.079 337.497 201.31C338.618 202.784 338.584 203.016 340.275 203.389C340.124 203.682 339.824 204.325 339.631 204.542L337.497 203.389Z"/><path fill="#E4CD74" transform="scale(2 2)" d="M320.686 196.428C321.494 195.613 321.848 196.061 323.079 195.06C323.339 195.649 323.437 196.041 323.948 196.428C325.744 197.012 326.985 196.546 328.157 196.862C327.571 197.264 327.598 197.22 326.879 197.271C327.209 198.663 327.547 199.251 328.157 200.527C328.839 201.433 329.086 201.286 329.677 201.877L328.682 202.54C327.947 201.691 327.914 201.56 326.879 201.31L323.948 201.877C323.687 202.043 323.863 201.95 323.386 202.085L323.079 201.31L323.079 201.31L323.079 200.527L323.079 200.011L322.412 199.374C321.786 197.768 321.874 197.745 320.686 196.428Z"/><path fill="#DBBE61" transform="scale(2 2)" d="M320.686 196.428C321.494 195.613 321.848 196.061 323.079 195.06C323.339 195.649 323.437 196.041 323.948 196.428C321.256 196.646 323.78 197.539 323.948 198.557L323.079 200.011L322.412 199.374C321.786 197.768 321.874 197.745 320.686 196.428Z"/><path fill="#F2DA7E" transform="scale(2 2)" d="M323.079 201.31C324.611 200.696 325.539 200.059 326.879 201.31L323.948 201.877C323.687 202.043 323.863 201.95 323.386 202.085L323.079 201.31L323.079 201.31Z"/><path fill="#F2E296" transform="scale(2 2)" d="M323.948 198.557C324.553 198.835 324.808 198.887 325.257 199.374C324.341 200.019 324.126 200.119 323.079 200.527L323.079 200.011L323.948 198.557Z"/><path fill="#F2E296" transform="scale(2 2)" d="M342.272 194.295C343.175 193.168 343.4 192.907 344.728 192.539C345.846 194.078 345.98 194.673 347.79 195.06C346.941 195.368 346.26 195.518 345.893 196.428C345.553 196.868 345.003 197.533 344.728 197.985L344.728 197.985L344.408 198.021C343.216 197.356 343.402 197.506 342.272 197.985C341.94 196.471 342.74 196.59 342.272 195.06L342.272 194.295Z"/><path fill="#DBBE61" transform="scale(2 2)" d="M342.272 194.295C343.175 193.168 343.4 192.907 344.728 192.539C345.846 194.078 345.98 194.673 347.79 195.06C346.941 195.368 346.26 195.518 345.893 196.428C344.857 195.262 343.689 194.895 342.272 194.295Z"/><path fill="#F2E296" transform="scale(2 2)" d="M330.07 196.428C332.34 197.33 331.911 197.801 331.281 200.011C332.315 200.55 332.996 200.883 334.079 201.31C332.558 202.455 331.674 201.907 329.677 201.877C329.086 201.286 328.839 201.433 328.157 200.527C331.63 200.585 330.523 198.952 330.07 196.428Z"/><path fill="#F2E296" transform="scale(2 2)" d="M323.079 192.039L323.948 192.039C325.041 193.582 324.322 193.867 323.079 195.06C321.848 196.061 321.494 195.613 320.686 196.428C320.68 196.729 320.7 196.532 320.532 196.999L319.709 196.428C320.727 193.657 321.263 194.602 322.789 192.61L322.739 192.266L321.601 192.039L323.079 192.039Z"/><path fill="#F2DA7E" transform="scale(2 2)" d="M340.275 182.821C340.305 184.798 339.788 185.869 339.631 187.648C338.536 187.585 337.297 187.632 336.19 187.648C337.56 185.879 339.441 184.849 340.275 182.821Z"/><path fill="#DBBE61" transform="scale(2 2)" d="M341.558 199.374C342.262 197.703 341.654 196.587 342.272 195.06C342.74 196.59 341.94 196.471 342.272 197.985C343.402 198.807 344.143 199.209 344.728 200.527C343.933 200.83 342.965 201.019 342.272 201.31L342.272 201.31C341.93 200.518 342.281 200.409 341.558 199.374Z"/><path fill="#CDA547" transform="scale(2 2)" d="M321.601 192.039C320.323 188.51 326.073 189.163 323.079 192.039L321.601 192.039L321.601 192.039Z"/><path fill="#DBBE61" transform="scale(2 2)" d="M328.682 182.821C330.09 182.959 330.597 182.803 331.281 184.133C330.255 187.04 329.114 184.877 328.682 182.821Z"/><path fill="#E4CD74" transform="scale(2 2)" d="M332.174 191.459C333.143 190.667 333.44 190.648 334.669 190.248C334.455 191.609 334.257 192.927 334.079 194.295C334.954 193.851 336.717 193.013 337.497 192.539L337.556 192.899C336.22 194.149 333.898 195.4 332.174 194.295C332.282 193.185 332.417 192.544 332.174 191.459Z"/><defs><linearGradient id="gradient_10" gradientUnits="userSpaceOnUse" x1="178.80104" y1="183.99696" x2="187.37973" y2="198.13486"><stop offset="0" stop-color="#C3A035"/><stop offset="1" stop-color="#E0CB56"/></linearGradient></defs><path fill="url(#gradient_10)" transform="scale(2 2)" d="M179.952 177.745C181.003 180.506 181.594 181.593 183.07 184.133C185.666 183.542 186.422 183.213 187.168 185.946C188.006 187.735 188.029 187.431 190.033 187.648C194.539 187.43 189.033 195.492 187.984 196.862C188.904 196.264 189.732 195.745 190.594 195.06L191.248 195.591C191.023 196.48 190.771 196.493 190.033 197.271L190.033 198.557C190.136 199.746 190.171 200.134 190.033 201.31C189.257 201.971 189.212 201.825 187.984 201.877L187.168 201.877C186.13 202.011 185.064 202.449 184.126 202.54C183.479 203.138 183.459 203.106 183.07 203.945C181.62 203.449 181.506 203.4 179.952 203.389C179.349 203.635 178.965 203.819 178.316 203.945C177.259 202.958 176.555 203.764 175.455 204.542C174.742 203.812 175.14 203.945 174.298 203.928L173.821 204.542L173.821 204.542L172.307 204.542L171.873 203.945C172.35 202.974 172.09 202.257 173.154 201.877L173.821 201.31C173.209 201.216 172.458 200.808 171.873 200.527C170.972 200.162 171.268 200.311 170.633 199.374C170.043 199.39 169.407 199.376 168.812 199.374C167.937 198.3 167.754 198.032 166.615 197.271C166.788 197.117 167.741 195.988 167.946 195.753L169.624 197.271C169.848 196.129 170.203 195.367 170.633 194.295C168.551 191.776 165.994 189.015 170.633 188.289L173.154 187.648C173.215 186.617 173.161 185.196 173.154 184.133C174.453 184.203 175.251 184.201 176.55 184.133C177.905 182.214 179.001 179.893 179.952 177.745Z"/><path fill="#F2DA7E" transform="scale(2 2)" d="M174.801 187.648C176.919 189.313 174.104 189.349 174.801 191.459C175.846 191.779 175.794 191.748 176.55 192.539C177.644 193.445 177.987 193.649 178.316 195.06C178.517 195.975 178.418 196.353 178.316 197.271L178.316 197.271C174.493 198.234 174.542 195.808 173.821 201.31C173.209 201.216 172.458 200.808 171.873 200.527C170.972 200.162 171.268 200.311 170.633 199.374C170.043 199.39 169.407 199.376 168.812 199.374C167.937 198.3 167.754 198.032 166.615 197.271C166.788 197.117 167.741 195.988 167.946 195.753L169.624 197.271C169.848 196.129 170.203 195.367 170.633 194.295C168.551 191.776 165.994 189.015 170.633 188.289L173.154 187.648C173.975 187.768 173.971 187.754 174.801 187.648Z"/><path fill="#C5A849" transform="scale(2 2)" d="M174.801 187.648C176.919 189.313 174.104 189.349 174.801 191.459L173.821 192.039C172.56 191.933 171.891 191.812 170.633 192.039C170.108 190.629 170.394 189.747 170.633 188.289L173.154 187.648C173.975 187.768 173.971 187.754 174.801 187.648Z"/><path fill="#E4CD74" transform="scale(2 2)" d="M174.801 191.459C175.846 191.779 175.794 191.748 176.55 192.539C177.644 193.445 177.987 193.649 178.316 195.06C178.517 195.975 178.418 196.353 178.316 197.271L178.316 197.271C178.064 195.809 175.912 196.56 174.801 196.428C176.761 195.366 174.875 193.952 173.821 192.039L174.801 191.459Z"/><path fill="#CDA547" transform="scale(2 2)" d="M170.633 192.039C171.891 191.812 172.56 191.933 173.821 192.039C174.875 193.952 176.761 195.366 174.801 196.428C173.253 194.515 171.259 193.823 170.633 192.039Z"/><path fill="#DBBE61" transform="scale(2 2)" d="M167.946 195.753L169.624 197.271C170.01 197.93 170.033 198.069 170.633 198.557C170.636 198.712 170.66 199.246 170.633 199.374C170.043 199.39 169.407 199.376 168.812 199.374C167.937 198.3 167.754 198.032 166.615 197.271C166.788 197.117 167.741 195.988 167.946 195.753Z"/><path fill="#C5A849" transform="scale(2 2)" d="M171.873 196.428C172.761 197.992 172.682 198.875 171.873 200.527C170.972 200.162 171.268 200.311 170.633 199.374C170.66 199.246 170.636 198.712 170.633 198.557C171.105 197.482 171.149 197.322 171.873 196.428Z"/><path fill="#F2E296" transform="scale(2 2)" d="M170.633 194.295C171.215 195.103 171.962 195.416 171.992 196.246L171.873 196.428C171.149 197.322 171.105 197.482 170.633 198.557C170.033 198.069 170.01 197.93 169.624 197.271C169.848 196.129 170.203 195.367 170.633 194.295Z"/><path fill="#C5A849" transform="scale(2 2)" d="M179.952 177.745C181.003 180.506 181.594 181.593 183.07 184.133C185.666 183.542 186.422 183.213 187.168 185.946C186.613 187.357 184.187 191.208 183.07 192.039C181.983 190.936 183.763 188.747 183.166 186.71C183.154 186.714 179.489 189.951 179.226 190.248C178.492 187.866 178.198 186.07 176.55 184.133C177.905 182.214 179.001 179.893 179.952 177.745Z"/><path fill="#D5B753" transform="scale(2 2)" d="M173.154 184.133C174.453 184.203 175.251 184.201 176.55 184.133C178.198 186.07 178.492 187.866 179.226 190.248C179.489 189.951 183.154 186.714 183.166 186.71C183.763 188.747 181.983 190.936 183.07 192.039C184.187 191.208 186.613 187.357 187.168 185.946C188.006 187.735 188.029 187.431 190.033 187.648C189.571 188.414 189.558 188.626 188.877 189.153C188.455 190.066 188.172 191.169 187.168 191.459L187.168 192.039C186.034 191.539 186.212 191.388 185.289 191.641L184.937 192.039L184.937 193.406C182.67 193.356 182.382 193.258 180.904 195.06L180.742 195.41L180.366 195.519C179.435 193.63 178.769 192.886 177.315 191.459C177.27 189.748 177.047 187.113 175.79 185.818L175.289 185.822C174.801 186.55 174.853 186.783 174.801 187.648C173.971 187.754 173.975 187.768 173.154 187.648C173.215 186.617 173.161 185.196 173.154 184.133Z"/><path fill="#E4CD74" transform="scale(2 2)" d="M180.904 195.06C180.702 193.346 181.157 191.987 183.07 192.039L184.937 192.039L184.937 193.406C182.67 193.356 182.382 193.258 180.904 195.06Z"/><path fill="#C5A849" transform="scale(2 2)" d="M187.168 191.459C186.481 190.665 184.457 188.872 188.017 188.403L188.877 189.153C188.455 190.066 188.172 191.169 187.168 191.459Z"/><path fill="#E4CD74" transform="scale(2 2)" d="M178.316 197.271L178.316 197.271C178.62 198.339 178.957 199.455 179.226 200.527L179.374 201.091C180.695 201.539 181.666 199.544 182.085 198.557L182.085 200.527C182.757 201.176 183.493 201.86 184.126 202.54C183.479 203.138 183.459 203.106 183.07 203.945C181.62 203.449 181.506 203.4 179.952 203.389C179.349 203.635 178.965 203.819 178.316 203.945C177.259 202.958 176.555 203.764 175.455 204.542C174.742 203.812 175.14 203.945 174.298 203.928L173.821 204.542L173.821 204.542L172.307 204.542L171.873 203.945C172.35 202.974 172.09 202.257 173.154 201.877L173.821 201.31C174.542 195.808 174.493 198.234 178.316 197.271Z"/><path fill="#FDFDEC" transform="scale(2 2)" d="M178.316 197.271L178.316 197.271C178.62 198.339 178.957 199.455 179.226 200.527L178.876 201.275C177.473 201.669 173.471 204.606 173.154 201.877L173.821 201.31C174.542 195.808 174.493 198.234 178.316 197.271Z"/><path fill="#FDFDEC" transform="scale(2 2)" d="M182.085 198.557C182.343 196.811 183.48 197.118 184.937 197.271C185.556 197.667 186.817 200.931 187.168 201.877C186.13 202.011 185.064 202.449 184.126 202.54C183.493 201.86 182.757 201.176 182.085 200.527L182.085 198.557Z"/><path fill="#F2E296" transform="scale(2 2)" d="M184.937 197.271C186.356 196.792 187.204 196.522 187.984 197.985C188.577 196.943 188.973 196.504 190.033 197.271L190.033 198.557C190.136 199.746 190.171 200.134 190.033 201.31C189.257 201.971 189.212 201.825 187.984 201.877L187.168 201.877C186.817 200.931 185.556 197.667 184.937 197.271Z"/><path fill="#C5A849" transform="scale(2 2)" d="M187.984 197.985C188.577 196.943 188.973 196.504 190.033 197.271L190.033 198.557C190.136 199.746 190.171 200.134 190.033 201.31C188.618 199.997 188.011 199.875 187.984 197.985Z"/><path fill="#D5B753" transform="scale(2 2)" d="M184.937 192.039L185.289 191.641C186.212 191.388 186.034 191.539 187.168 192.039C186.704 193.093 186.147 194.116 184.937 193.406L184.937 192.039Z"/><path fill="#F2E296" transform="scale(2 2)" d="M196.86 194.295C198.927 193.044 198.928 192.17 201.581 192.039C203.752 192.422 203.725 193.136 204.441 195.06C204.603 195.389 204.956 196.156 205.134 196.428C204.795 196.947 204.898 196.907 204.441 197.271C205.095 197.521 205.775 197.805 206.448 197.985C206.697 197.811 207.311 197.666 207.698 197.463L207.801 196.862C208.614 198.61 210.411 201.07 208.391 202.54L206.448 203.389L205.813 203.389L204.441 203.389L203.73 202.54L203.463 202.028L202.496 201.877C201.897 202.603 200.581 203.391 199.756 203.945C198.986 204.287 198.853 204.423 198.027 204.542L198.027 204.542C198.799 205.155 199.085 205.398 199.756 206.113C198.207 206.535 198.069 205.932 196.86 206.113C196.026 206.582 195.444 206.96 194.886 207.774C194.158 207.423 192.813 206.558 192.07 206.113C190.596 207.267 189.649 207.706 187.984 208.559C186.479 209.779 183.311 212.206 182.085 213.499C181.362 213.578 180.679 213.526 179.952 213.499L179.226 213.499C176.961 211.249 174.864 210.162 172.307 208.559L173.154 207.774L173.154 207.179C173.334 206.242 173.563 205.461 173.821 204.542L173.821 204.542L174.298 203.928C175.14 203.945 174.742 203.812 175.455 204.542C176.555 203.764 177.259 202.958 178.316 203.945C178.965 203.819 179.349 203.635 179.952 203.389C181.506 203.4 181.62 203.449 183.07 203.945C183.459 203.106 183.479 203.138 184.126 202.54C185.064 202.449 186.13 202.011 187.168 201.877L187.984 201.877C189.212 201.825 189.257 201.971 190.033 201.31C190.171 200.134 190.136 199.746 190.033 198.557L192.07 200.011L191.418 198.557C191.404 197.867 191.867 196.472 192.07 195.753L193.227 194.295C194.705 192.735 195.284 192.885 196.86 194.295Z"/><path fill="#B49341" transform="scale(2 2)" d="M175.455 204.542C176.555 203.764 177.259 202.958 178.316 203.945C178.965 203.819 179.349 203.635 179.952 203.389C181.506 203.4 181.62 203.449 183.07 203.945L183.07 204.542L184.937 203.945L184.937 203.389C186.27 204.204 186.062 204.461 187.525 203.836L187.984 203.945C188.048 204.824 188.16 205.265 187.984 206.113L187.984 207.179L187.984 208.559C186.479 209.779 183.311 212.206 182.085 213.499C181.362 213.578 180.679 213.526 179.952 213.499L179.226 213.499C176.961 211.249 174.864 210.162 172.307 208.559L173.154 207.774L173.154 207.179C173.334 206.242 173.563 205.461 173.821 204.542L173.821 204.542L174.298 203.928C175.14 203.945 174.742 203.812 175.455 204.542Z"/><path fill="#F2DA7E" transform="scale(2 2)" d="M175.455 204.542C176.555 203.764 177.259 202.958 178.316 203.945C178.965 203.819 179.349 203.635 179.952 203.389C181.506 203.4 181.62 203.449 183.07 203.945L183.07 204.542L184.937 203.945C182.645 209.957 181.829 206.448 178.316 207.774C177.977 207.227 176.072 205.287 175.455 204.542Z"/><path fill="#FDFCD4" transform="scale(2 2)" d="M179.952 203.389C181.506 203.4 181.62 203.449 183.07 203.945L183.07 204.542C181.546 206.608 177.8 207.235 178.316 203.945C178.965 203.819 179.349 203.635 179.952 203.389Z"/><path fill="#DBBE61" transform="scale(2 2)" d="M184.937 203.389C186.27 204.204 186.062 204.461 187.525 203.836L187.984 203.945C188.048 204.824 188.16 205.265 187.984 206.113C184.985 205.156 185.688 209.31 179.952 208.559C179.08 208.317 179.057 208.357 178.316 207.774C181.829 206.448 182.645 209.957 184.937 203.945L184.937 203.389Z"/><path fill="#CDA547" transform="scale(2 2)" d="M173.821 204.542L174.298 203.928C175.14 203.945 174.742 203.812 175.455 204.542C176.072 205.287 177.977 207.227 178.316 207.774C179.057 208.357 179.08 208.317 179.952 208.559C178.419 208.665 177.947 208.895 176.55 209.424L175.455 209.424C175.235 208.789 174.993 207.847 174.801 207.179C174.414 206.723 173.641 207.062 173.154 207.179C173.334 206.242 173.563 205.461 173.821 204.542L173.821 204.542Z"/><path fill="#C5A849" transform="scale(2 2)" d="M173.821 204.542L173.821 204.542C175.124 205.187 174.957 205.804 174.801 207.179C174.414 206.723 173.641 207.062 173.154 207.179C173.334 206.242 173.563 205.461 173.821 204.542Z"/><path fill="#C5A849" transform="scale(2 2)" d="M173.154 207.179C173.641 207.062 174.414 206.723 174.801 207.179C174.993 207.847 175.235 208.789 175.455 209.424L176.55 209.424C177.851 210.697 179.744 211.975 179.952 213.499L179.226 213.499C176.961 211.249 174.864 210.162 172.307 208.559L173.154 207.774L173.154 207.179Z"/><path fill="#B49341" transform="scale(2 2)" d="M173.154 207.179C173.641 207.062 174.414 206.723 174.801 207.179C174.993 207.847 175.235 208.789 175.455 209.424C174.156 209.231 173.918 208.786 173.154 207.774L173.154 207.179Z"/><path fill="#F2E296" transform="scale(2 2)" d="M196.86 194.295C198.927 193.044 198.928 192.17 201.581 192.039C203.752 192.422 203.725 193.136 204.441 195.06C204.603 195.389 204.956 196.156 205.134 196.428C204.795 196.947 204.898 196.907 204.441 197.271C205.095 197.521 205.775 197.805 206.448 197.985C206.697 197.811 207.311 197.666 207.698 197.463L207.801 196.862C208.614 198.61 210.411 201.07 208.391 202.54L206.448 203.389L205.813 203.389L204.441 203.389L203.73 202.54L203.463 202.028L202.496 201.877C201.115 200.87 200.719 200.744 199.016 200.527C197.92 201.396 198.053 199.134 198.027 198.557C197.305 197.678 197.284 197.514 196.86 196.428L198.027 195.753L198.027 195.06L196.86 194.295Z"/><path fill="#C5A849" transform="scale(2 2)" d="M206.448 197.985C206.697 197.811 207.311 197.666 207.698 197.463L207.801 196.862C208.614 198.61 210.411 201.07 208.391 202.54L206.448 203.389L205.813 203.389L204.441 203.389L203.73 202.54L203.463 202.028L202.496 201.877C201.115 200.87 200.719 200.744 199.016 200.527C200.595 200.215 200.31 200.786 201.581 200.011L202.029 199.828L202.365 198.847C203.013 198.298 202.617 198.489 203.73 198.557L203.73 197.985L204.441 197.271C205.095 197.521 205.775 197.805 206.448 197.985Z"/><path fill="#F2E296" transform="scale(2 2)" d="M206.448 197.985C206.697 197.811 207.311 197.666 207.698 197.463L207.801 196.862C208.614 198.61 210.411 201.07 208.391 202.54L206.448 203.389C206.987 201.116 207.064 200.797 206.448 198.557L206.448 197.985Z"/><path fill="#D5B753" transform="scale(2 2)" d="M201.581 200.011L202.029 199.828L202.365 198.847C203.013 198.298 202.617 198.489 203.73 198.557C203.387 199.722 203.2 200.186 203.73 201.31L203.73 202.54L203.463 202.028L202.496 201.877C201.115 200.87 200.719 200.744 199.016 200.527C200.595 200.215 200.31 200.786 201.581 200.011Z"/><path fill="#B49341" transform="scale(2 2)" d="M204.441 197.271C205.095 197.521 205.775 197.805 206.448 197.985L206.448 198.557C206.113 199.687 204.779 200.831 203.73 201.31C203.2 200.186 203.387 199.722 203.73 198.557L203.73 197.985L204.441 197.271Z"/><path fill="#DBBE61" transform="scale(2 2)" d="M196.86 194.295C198.927 193.044 198.928 192.17 201.581 192.039C203.752 192.422 203.725 193.136 204.441 195.06L204.23 195.701C203.575 195.949 203.894 195.913 203.253 195.753C199.675 196.185 200.212 194.577 198.027 195.06L196.86 194.295Z"/><path fill="#CDA547" transform="scale(2 2)" d="M201.581 192.039C203.752 192.422 203.725 193.136 204.441 195.06L204.23 195.701C203.575 195.949 203.894 195.913 203.253 195.753C201.662 194.243 200.61 194.003 201.581 192.039Z"/><path fill="#C5A849" transform="scale(2 2)" d="M198.027 195.753L199.016 196.428C199.594 198.696 200.472 197.511 201.581 200.011C200.31 200.786 200.595 200.215 199.016 200.527C197.92 201.396 198.053 199.134 198.027 198.557C197.305 197.678 197.284 197.514 196.86 196.428L198.027 195.753Z"/><path fill="#E4CD74" transform="scale(2 2)" d="M199.016 196.428C201.289 196.784 202.071 197.629 203.73 197.985L203.73 198.557C202.617 198.489 203.013 198.298 202.365 198.847L202.029 199.828L201.581 200.011C200.472 197.511 199.594 198.696 199.016 196.428Z"/><path fill="#FDFDF1" transform="scale(2 2)" d="M193.227 194.295C194.705 192.735 195.284 192.885 196.86 194.295L198.027 195.06L198.027 195.753L196.86 196.428C197.284 197.514 197.305 197.678 198.027 198.557C197.361 199.189 197.341 199.173 196.86 200.011C196.393 201.741 195.336 201.031 193.821 201.31L192.07 200.527L192.07 200.011L191.418 198.557C191.404 197.867 191.867 196.472 192.07 195.753L193.227 194.295Z"/><path fill="#D5B753" transform="scale(2 2)" d="M193.227 194.295C194.705 192.735 195.284 192.885 196.86 194.295L198.027 195.06L198.027 195.753L196.86 196.428L196.445 196.262C195.592 196.659 195.599 196.656 194.886 197.271C194.105 196.997 192.831 196.196 192.07 195.753L193.227 194.295Z"/><path fill="#F2E296" transform="scale(2 2)" d="M194.886 197.271C195.599 196.656 195.592 196.659 196.445 196.262L196.86 196.428C197.284 197.514 197.305 197.678 198.027 198.557C197.361 199.189 197.341 199.173 196.86 200.011C196.334 199.409 195.366 197.959 194.886 197.271C193.687 197.753 192.66 198.169 191.418 198.557C191.404 197.867 191.867 196.472 192.07 195.753C192.831 196.196 194.105 196.997 194.886 197.271Z"/><path fill="#FDFCD4" transform="scale(2 2)" d="M196.86 200.011C197.341 199.173 197.361 199.189 198.027 198.557C198.053 199.134 197.92 201.396 199.016 200.527C200.719 200.744 201.115 200.87 202.496 201.877C201.897 202.603 200.581 203.391 199.756 203.945C198.986 204.287 198.853 204.423 198.027 204.542L198.027 204.542C196.541 205.198 195.48 204.711 193.821 205.204L193.821 203.389C192.938 203.825 192.862 203.757 192.07 203.389L192.07 203.389C192.097 202.473 192.072 201.453 192.07 200.527L193.821 201.31C195.336 201.031 196.393 201.741 196.86 200.011Z"/><path fill="#F2DA7E" transform="scale(2 2)" d="M193.821 203.389C195.575 201.806 196.388 203.482 198.027 204.542L198.027 204.542C196.541 205.198 195.48 204.711 193.821 205.204L193.821 203.389Z"/><path fill="#FDFDEC" transform="scale(2 2)" d="M192.07 200.527L193.821 201.31C193.708 202.046 193.463 202.979 192.872 203.474L192.07 203.389C192.097 202.473 192.072 201.453 192.07 200.527Z"/><path fill="#E4CD74" transform="scale(2 2)" d="M188.877 203.389L189.374 202.959C190.009 203.284 189.73 203.045 190.033 203.945C190.926 204.394 193.198 205.855 193.717 205.688L193.821 205.204C195.48 204.711 196.541 205.198 198.027 204.542C198.799 205.155 199.085 205.398 199.756 206.113C198.207 206.535 198.069 205.932 196.86 206.113C196.026 206.582 195.444 206.96 194.886 207.774C194.158 207.423 192.813 206.558 192.07 206.113C190.596 207.267 189.649 207.706 187.984 208.559L187.984 207.179L187.984 206.113C188.16 205.265 188.048 204.824 187.984 203.945L188.542 204.075L188.877 203.389Z"/><path fill="#D5B753" transform="scale(2 2)" d="M188.877 203.389L188.877 204.542C190.052 204.992 191.001 205.441 192.07 206.113C190.596 207.267 189.649 207.706 187.984 208.559L187.984 207.179L187.984 206.113C188.16 205.265 188.048 204.824 187.984 203.945L188.542 204.075L188.877 203.389Z"/><path fill="#F2DA7E" transform="scale(2 2)" d="M188.877 203.389L188.877 204.542C188.957 205.629 189.395 207.081 187.984 207.179L187.984 206.113C188.16 205.265 188.048 204.824 187.984 203.945L188.542 204.075L188.877 203.389Z"/><path fill="#FAF6B5" transform="scale(2 2)" d="M184.126 202.54C185.064 202.449 186.13 202.011 187.168 201.877L187.984 201.877C187.325 203.095 186.724 202.815 185.359 202.738L185.005 202.98L184.937 203.389L184.937 203.945L183.07 204.542L183.07 203.945C183.459 203.106 183.479 203.138 184.126 202.54Z"/><path fill="#E4CD74" transform="scale(2 2)" d="M307.012 196.428C308.175 193.568 308.294 191.151 312.188 192.039C312.821 192.795 314.035 194.02 314.982 194.295C316.069 193.756 316.379 193.758 317.506 194.295C318.089 194.901 319.059 195.984 319.709 196.428L320.532 196.999C320.7 196.532 320.68 196.729 320.686 196.428C321.874 197.745 321.786 197.768 322.412 199.374L323.079 200.011L323.079 200.527L323.079 201.31L323.079 201.31C322.981 202.456 323.122 203.045 323.079 203.945C322.259 204.025 322.3 204.071 321.601 204.542L321.175 204.832L320.686 204.542C320.418 204.981 319.997 205.724 319.709 206.113L316.976 207.774C313.371 209.988 310.395 211.071 306.23 209.424C301.646 208.663 298.358 201.579 298.716 197.271C298.925 196.625 298.81 196.474 298.716 195.753C299.867 192.731 302.599 191.389 304.95 194.295C304.488 194.91 304.464 194.873 303.796 195.285L303.728 195.753C301.814 196.797 300.151 196.897 300.894 199.374C301.456 198.924 302.408 198.38 303.054 197.985C304.39 198.154 305.207 200.081 304.95 197.271C305.868 197.157 306.08 197.089 307.012 197.271L307.012 196.428L307.012 196.428ZM303.054 203.945C304.117 203.588 304.174 203.42 304.95 202.54C304.526 201.695 304.13 200.866 303.728 200.011C302.584 200.301 302.808 200.074 302.087 200.807L301.793 201.877L303.054 203.945Z"/><path fill="#FDFDEC" transform="scale(2 2)" d="M307.012 196.428C308.175 193.568 308.294 191.151 312.188 192.039C312.821 192.795 314.035 194.02 314.982 194.295C316.069 193.756 316.379 193.758 317.506 194.295C318.089 194.901 319.059 195.984 319.709 196.428L320.532 196.999C320.7 196.532 320.68 196.729 320.686 196.428C321.874 197.745 321.786 197.768 322.412 199.374L323.079 200.011L323.079 200.527L323.079 201.31L323.079 201.31C322.981 202.456 323.122 203.045 323.079 203.945C322.259 204.025 322.3 204.071 321.601 204.542L321.175 204.832L320.686 204.542C320.418 204.981 319.997 205.724 319.709 206.113L316.976 207.774L316.976 207.179C317.3 206.561 317.31 206.563 317.459 205.886L316.976 205.204C315.636 204.789 315.587 204.592 314.982 203.389L314.982 203.389L313.444 203.389L313.444 203.945C312.659 203.695 311.271 202.46 310.625 201.877L310.625 201.31C309.813 201.782 309.537 201.95 308.816 202.54L307.749 201.31L307.749 201.31C307.344 200.836 306.881 200.775 306.23 200.527C306.254 199.36 306.655 198.392 307.012 197.271L307.012 196.428L307.012 196.428Z"/><path fill="#F2E296" transform="scale(2 2)" d="M307.012 196.428C308.175 193.568 308.294 191.151 312.188 192.039C312.821 192.795 314.035 194.02 314.982 194.295C316.069 193.756 316.379 193.758 317.506 194.295C317.398 195.126 317.256 195.627 317.506 196.428L316.976 196.862C316.297 198.133 315.94 198.904 314.982 200.011C313.12 200.746 312.636 200.346 310.625 201.31C309.813 201.782 309.537 201.95 308.816 202.54L307.749 201.31L307.749 201.31C307.344 200.836 306.881 200.775 306.23 200.527C306.254 199.36 306.655 198.392 307.012 197.271L307.012 196.428L307.012 196.428Z"/><path fill="#C5A849" transform="scale(2 2)" d="M307.012 196.428C308.175 193.568 308.294 191.151 312.188 192.039C312.118 192.73 312.046 192.766 312.188 193.406C311.513 193.937 310.889 194.278 310.625 195.06C311.062 196.342 311.049 196.524 312.188 197.271C311.576 197.773 311.634 197.804 311.332 198.557L311.332 198.557C308.63 200.21 311.513 201.021 307.749 201.31L307.749 201.31C307.344 200.836 306.881 200.775 306.23 200.527C306.254 199.36 306.655 198.392 307.012 197.271L307.012 196.428L307.012 196.428Z"/><path fill="#D5B753" transform="scale(2 2)" d="M307.012 196.428C308.175 193.568 308.294 191.151 312.188 192.039C312.118 192.73 312.046 192.766 312.188 193.406C311.513 193.937 310.889 194.278 310.625 195.06C310.068 195.75 309.4 196.631 308.816 197.271C308.075 196.763 307.912 196.582 307.012 196.428L307.012 196.428Z"/><path fill="#E4CD74" transform="scale(2 2)" d="M310.625 195.06C311.062 196.342 311.049 196.524 312.188 197.271C311.576 197.773 311.634 197.804 311.332 198.557L311.332 198.557L311.43 198.077C310.228 197.188 310.305 198.288 308.816 197.271C309.4 196.631 310.068 195.75 310.625 195.06Z"/><path fill="#D5B753" transform="scale(2 2)" d="M314.982 194.295C316.069 193.756 316.379 193.758 317.506 194.295C317.398 195.126 317.256 195.627 317.506 196.428L316.976 196.862C315.115 195.402 315.526 197.039 314.131 197.985L313.667 197.021C313.697 195.834 314.353 195.263 314.982 194.295Z"/><path fill="#C5A849" transform="scale(2 2)" d="M312.188 193.406C312.485 194.556 312.58 195.627 312.788 196.795L312.188 197.271C311.049 196.524 311.062 196.342 310.625 195.06C310.889 194.278 311.513 193.937 312.188 193.406Z"/><path fill="#E4CD74" transform="scale(2 2)" d="M317.506 196.428C317.256 195.627 317.398 195.126 317.506 194.295C318.089 194.901 319.059 195.984 319.709 196.428L320.532 196.999C320.7 196.532 320.68 196.729 320.686 196.428C321.874 197.745 321.786 197.768 322.412 199.374L323.079 200.011L323.079 200.527L323.079 201.31L323.079 201.31C322.981 202.456 323.122 203.045 323.079 203.945C322.259 204.025 322.3 204.071 321.601 204.542L321.175 204.832L320.686 204.542L320.686 203.389C320.372 202.646 320.2 202.522 319.709 201.877L320.686 201.31C320.345 200.547 320.125 200.098 319.709 199.374C318.611 198.319 318.022 197.853 317.506 196.428Z"/><path fill="#FAF6B5" transform="scale(2 2)" d="M314.982 203.389C315.008 200.395 317.89 201.433 319.709 201.877C320.2 202.522 320.372 202.646 320.686 203.389L320.686 204.542C320.418 204.981 319.997 205.724 319.709 206.113L316.976 207.774L316.976 207.179C317.3 206.561 317.31 206.563 317.459 205.886L316.976 205.204C315.636 204.789 315.587 204.592 314.982 203.389L314.982 203.389Z"/><path fill="#D5B753" transform="scale(2 2)" d="M318.793 203.389C319.711 203.207 319.767 203.127 320.686 203.389L320.686 204.542C320.418 204.981 319.997 205.724 319.709 206.113L316.976 207.774L316.976 207.179C317.3 206.561 317.31 206.563 317.459 205.886L316.976 205.204C317.44 204.513 318.161 203.947 318.793 203.389Z"/><path fill="#F2DA7E" transform="scale(2 2)" d="M314.982 203.389C316.46 202.896 317.253 203.06 318.793 203.389C318.161 203.947 317.44 204.513 316.976 205.204C315.636 204.789 315.587 204.592 314.982 203.389Z"/><path fill="#F2DA7E" transform="scale(2 2)" d="M319.709 199.374C320.125 200.098 320.345 200.547 320.686 201.31L319.709 201.877C317.89 201.433 315.008 200.395 314.982 203.389L313.444 203.389C314.315 202.042 314.795 201.284 316.209 200.527L319.709 199.374Z"/><path fill="#B49341" transform="scale(2 2)" d="M308.816 207.179C310.573 205.352 315.134 205.642 316.976 207.179L316.976 207.774C313.371 209.988 310.395 211.071 306.23 209.424C310.184 209.542 308.451 209.86 307.2 208.504L308.597 208.857C309.005 208.291 308.833 208.061 308.816 207.179Z"/><path fill="#F2DA7E" transform="scale(2 2)" d="M308.816 202.54C309.537 201.95 309.813 201.782 310.625 201.31L310.625 201.877C311.271 202.46 312.659 203.695 313.444 203.945C312.775 204.993 312.768 205.198 311.332 205.204L309.553 204.542C309.091 204.351 308.254 204.109 307.749 203.945L307.675 203.835C307.876 203.1 308.094 203.138 308.816 202.54Z"/><path fill="#FAF6B5" transform="scale(2 2)" d="M308.816 202.54C309.537 201.95 309.813 201.782 310.625 201.31L310.625 201.877L309.825 202.417C310.142 204.047 310.803 202.339 310.588 203.976L309.553 204.542C309.091 204.351 308.254 204.109 307.749 203.945L307.675 203.835C307.876 203.1 308.094 203.138 308.816 202.54Z"/><path fill="#F2DA7E" transform="scale(2 2)" d="M304.95 197.271C305.868 197.157 306.08 197.089 307.012 197.271C306.655 198.392 306.254 199.36 306.23 200.527C305.8 201.143 305.227 201.873 304.95 202.54L304.95 202.54C304.526 201.695 304.13 200.866 303.728 200.011L303.003 199.801C302.674 198.96 302.834 199.053 303.054 197.985C304.39 198.154 305.207 200.081 304.95 197.271Z"/><path fill="#FAF6B5" transform="scale(2 2)" d="M306.23 200.527C306.881 200.775 307.344 200.836 307.749 201.31L307.749 201.31L308.816 202.54C308.094 203.138 307.876 203.1 307.675 203.835L307.749 203.945C306.998 204.132 306.893 204.113 306.23 204.542C306.194 204.131 306.219 203.802 306.23 203.389L304.95 202.54C305.227 201.873 305.8 201.143 306.23 200.527Z"/><path fill="#F2E296" transform="scale(2 2)" d="M306.23 200.527C306.881 200.775 307.344 200.836 307.749 201.31L307.029 201.413C306.462 202.238 306.471 202.389 306.23 203.389L304.95 202.54C305.227 201.873 305.8 201.143 306.23 200.527Z"/><path fill="#FDFDEC" transform="scale(2 2)" d="M304.95 202.54L304.95 202.54L306.23 203.389C306.219 203.802 306.194 204.131 306.23 204.542C305 205.609 303.927 205.016 303.054 203.945C304.117 203.588 304.174 203.42 304.95 202.54Z"/><path fill="#FDFDEC" transform="scale(2 2)" d="M300.894 199.374C301.456 198.924 302.408 198.38 303.054 197.985C302.834 199.053 302.674 198.96 303.003 199.801L303.728 200.011C302.584 200.301 302.808 200.074 302.087 200.807L301.793 201.877C301.443 201.041 301.183 200.233 300.894 199.374Z"/><path fill="#D5B753" transform="scale(2 2)" d="M162.305 194.295C164.424 194.292 166.175 194.296 167.946 195.753C167.741 195.988 166.788 197.117 166.615 197.271C167.754 198.032 167.937 198.3 168.812 199.374C169.407 199.376 170.043 199.39 170.633 199.374C171.268 200.311 170.972 200.162 171.873 200.527C172.458 200.808 173.209 201.216 173.821 201.31L173.154 201.877C172.09 202.257 172.35 202.974 171.873 203.945L172.307 204.542C172.16 205.035 171.96 205.617 171.873 206.113L171.896 206.736C171.457 207.114 171.095 207.42 170.633 207.774C170.132 207.5 169.313 206.898 168.812 206.551C158.303 217.756 146.981 207.262 150.965 200.527C151.686 199.642 152.823 198.609 152.969 197.624L152.219 197.271C158.273 196.537 153.75 199.084 157.14 195.06C158.101 196.196 158.435 196.494 158.664 197.985L158.664 197.985C160.634 196.83 158.715 194.345 162.305 194.295Z"/><path fill="#F2E296" transform="scale(2 2)" d="M162.305 194.295C164.424 194.292 166.175 194.296 167.946 195.753C167.741 195.988 166.788 197.117 166.615 197.271C167.754 198.032 167.937 198.3 168.812 199.374C169.407 199.376 170.043 199.39 170.633 199.374C171.268 200.311 170.972 200.162 171.873 200.527C172.458 200.808 173.209 201.216 173.821 201.31L173.154 201.877C172.09 202.257 172.35 202.974 171.873 203.945L172.307 204.542C172.16 205.035 171.96 205.617 171.873 206.113C170.925 205.977 169.728 205.537 168.812 205.204L166.615 205.204C165.806 205.042 165.799 205.111 165.228 204.542L163.637 205.204C162.24 204.796 159.861 202.839 158.664 201.877L159.145 201.459C160.868 201.931 161.431 201.947 160.998 200.011L160.998 198.557C159.951 198.325 159.757 198.406 158.664 198.557L158.664 197.985C160.634 196.83 158.715 194.345 162.305 194.295Z"/><path fill="#D5B753" transform="scale(2 2)" d="M162.305 194.295C164.424 194.292 166.175 194.296 167.946 195.753C167.741 195.988 166.788 197.117 166.615 197.271L165.228 198.557C164.392 199.353 164.117 199.516 163.637 200.527C163.651 200.817 163.688 201.035 163.637 201.31C161.627 201.507 162.769 200.476 160.998 200.011L160.998 200.011L160.998 198.557C159.951 198.325 159.757 198.406 158.664 198.557L158.664 197.985C160.634 196.83 158.715 194.345 162.305 194.295Z"/><path fill="#B49341" transform="scale(2 2)" d="M162.305 194.295C164.424 194.292 166.175 194.296 167.946 195.753C167.741 195.988 166.788 197.117 166.615 197.271C164.508 197.441 162.878 197.361 162.305 195.06L162.305 194.295Z"/><path fill="#D5B753" transform="scale(2 2)" d="M158.664 197.985C160.634 196.83 158.715 194.345 162.305 194.295L162.305 195.06L162.305 196.428C161.271 197.079 161.132 197.272 160.998 198.557C159.951 198.325 159.757 198.406 158.664 198.557L158.664 197.985Z"/><path fill="#C5A849" transform="scale(2 2)" d="M162.305 196.428C162.794 198.162 162.606 199.037 160.998 200.011L160.998 200.011L160.998 198.557C161.132 197.272 161.271 197.079 162.305 196.428Z"/><path fill="#F2E296" transform="scale(2 2)" d="M168.812 199.374C169.407 199.376 170.043 199.39 170.633 199.374C171.268 200.311 170.972 200.162 171.873 200.527C172.458 200.808 173.209 201.216 173.821 201.31L173.154 201.877C172.09 202.257 172.35 202.974 171.873 203.945L172.307 204.542C172.16 205.035 171.96 205.617 171.873 206.113C170.925 205.977 169.728 205.537 168.812 205.204C168.97 204.475 168.888 204.12 168.812 203.389C168.756 203.18 168.802 202.783 168.812 202.54L167.946 201.877C168.791 200.769 168.853 200.683 168.812 199.374Z"/><path fill="#DBBE61" transform="scale(2 2)" d="M168.812 203.389C170.15 202.954 169.882 204.138 171.679 203.791L171.873 203.945L172.307 204.542C172.16 205.035 171.96 205.617 171.873 206.113C170.925 205.977 169.728 205.537 168.812 205.204C168.97 204.475 168.888 204.12 168.812 203.389Z"/><path fill="#FDFDF1" transform="scale(2 2)" d="M166.615 197.271C167.754 198.032 167.937 198.3 168.812 199.374C168.853 200.683 168.791 200.769 167.946 201.877C167.395 201.376 166.494 200.912 165.822 200.527L165.228 200.011C164.778 200.174 164.081 200.464 163.637 200.527C164.117 199.516 164.392 199.353 165.228 198.557L166.615 197.271Z"/><path fill="#FDFDEC" transform="scale(2 2)" d="M163.637 200.527C164.117 199.516 164.392 199.353 165.228 198.557C166.224 198.786 166.994 198.729 167.321 199.871L166.893 200.365C166.19 200.304 165.904 200.198 165.228 200.011C164.778 200.174 164.081 200.464 163.637 200.527Z"/><path fill="#F2DA7E" transform="scale(2 2)" d="M168.812 202.54C168.802 202.783 168.756 203.18 168.812 203.389C168.888 204.12 168.97 204.475 168.812 205.204L166.615 205.204C165.806 205.042 165.799 205.111 165.228 204.542L164.4 204.542C165.209 204.155 165.232 204.043 165.822 203.389C166.806 202.924 167.678 203.074 168.812 202.54Z"/><path fill="#FDFDEC" transform="scale(2 2)" d="M165.822 200.527C166.494 200.912 167.395 201.376 167.946 201.877L168.812 202.54C167.678 203.074 166.806 202.924 165.822 203.389L165.228 202.54L165.822 200.527Z"/><path fill="#F2E296" transform="scale(2 2)" d="M163.637 200.527C164.081 200.464 164.778 200.174 165.228 200.011L165.822 200.527L165.228 202.54L165.149 202.717L164.716 202.844L163.637 201.877L163.637 201.31C163.688 201.035 163.651 200.817 163.637 200.527Z"/><path fill="#FAF6B5" transform="scale(2 2)" d="M163.637 201.877L164.716 202.844L165.149 202.717L165.228 202.54L165.822 203.389C165.232 204.043 165.209 204.155 164.4 204.542C163.073 203.75 162.285 203.035 163.637 201.877Z"/><path fill="#E4CD74" transform="scale(2 2)" d="M157.14 195.06C158.101 196.196 158.435 196.494 158.664 197.985L158.664 197.985L158.664 198.557C159.757 198.406 159.951 198.325 160.998 198.557L160.998 200.011C161.431 201.947 160.868 201.931 159.145 201.459L158.664 201.877C159.861 202.839 162.24 204.796 163.637 205.204C163.005 206.224 162.858 206.564 162.43 207.689L162.305 207.774C163.219 202.968 161.619 207.962 158.664 207.774C156.466 208.402 156.126 207.645 154.585 206.113C153.754 204.692 154.23 203.462 154.585 201.877C153.82 200.262 152.517 200.632 150.965 200.527C151.686 199.642 152.823 198.609 152.969 197.624L152.219 197.271C158.273 196.537 153.75 199.084 157.14 195.06Z"/><path fill="#FAF6B5" transform="scale(2 2)" d="M155.489 201.31C155.929 202.215 155.59 203.424 155.489 204.542C157.211 204.923 157.9 204.108 160.692 204.979L161.155 205.44C160.939 206.839 159.831 207.156 158.664 207.774C156.466 208.402 156.126 207.645 154.585 206.113C153.754 204.692 154.23 203.462 154.585 201.877C154.787 201.633 155.169 201.484 155.489 201.31Z"/><path fill="#B49341" transform="scale(2 2)" d="M158.664 198.557C159.757 198.406 159.951 198.325 160.998 198.557L160.998 200.011C161.431 201.947 160.868 201.931 159.145 201.459L158.664 201.877C158.015 202.118 157.548 202.18 156.93 201.87L156.843 201.277C157.282 199.982 157.767 199.581 158.664 198.557Z"/><path fill="#B49341" transform="scale(2 2)" d="M155.489 201.31C155.266 200.349 155.151 199.86 155.404 198.943L155.788 198.849L156.247 199.374C156.467 200.312 156.849 201.354 155.489 201.31Z"/><path fill="#CDA547" transform="scale(2 2)" d="M165.228 204.542C165.799 205.111 165.806 205.042 166.615 205.204C166.601 205.987 165.314 209.805 164.889 207.009L163.699 206.348L163.362 206.452C162.838 207.607 162.735 207.942 161.957 208.907L161.794 208.781L162.305 207.774L162.43 207.689C162.858 206.564 163.005 206.224 163.637 205.204L165.228 204.542Z"/><path fill="#F2E296" transform="scale(2 2)" d="M245.812 192.039C243.157 190.855 237.175 191.465 238.392 194.316C239.937 197.935 241.069 194.272 242.735 193.793L243.336 194.152C244.011 196.085 240.291 198.392 238.759 197.645C237.101 196.836 237.291 192.386 238.326 191.231C247.118 181.426 258.165 207.196 234.28 208.002C223.35 208.37 220.841 202.718 214.011 196.428L214.011 195.06C214.804 195.478 219.312 197.723 219.675 197.985C225.874 201.01 230.634 201.576 236.993 198.557C232.574 203.748 226.621 202.142 220.823 200.011L220.967 200.609C229.954 210.855 254.556 205.399 245.812 192.039Z"/><path fill="#F2E296" transform="scale(2 2)" d="M264.291 193.406C269.234 185.787 280.621 192.667 273.251 197.271C273.112 196.806 273.163 196.961 273.251 196.428C276.292 193.205 272.186 190.276 268.902 191.048C260.192 193.587 266.423 210.294 283.237 205.381C285.141 204.774 289.581 202.504 290.726 200.961L290.604 200.615C289.983 200.531 289.723 200.463 289.097 200.527C287.106 201.866 279.648 202.993 277.896 200.715L278.163 200.38C279.787 200.019 286.834 200.086 289.097 200.011C293.061 197.892 294.275 196.968 298.716 195.753C298.81 196.474 298.925 196.625 298.716 197.271C293.896 198.328 290.493 206.058 281.635 207.829C270.504 210.054 263.415 204.711 264.291 193.406Z"/><defs><linearGradient id="gradient_11" gradientUnits="userSpaceOnUse" x1="385.56183" y1="216.40691" x2="380.70374" y2="198.09416"><stop offset="0" stop-color="#E0B870"/><stop offset="1" stop-color="#ECD97C"/></linearGradient></defs><path fill="url(#gradient_11)" transform="scale(2 2)" d="M370.661 200.011C372.776 202.109 374.285 204.512 376.216 206.738C382.331 213.787 395.131 219.043 400.005 207.774L400.022 207.576L400.005 208.559C398.812 219.714 377.225 216.164 370.661 201.31C368.992 203.753 367.038 207.348 364.409 208.559L363.548 207.179C363.781 205.319 366.112 205.454 366.59 202.54L367.202 202.785L367.651 202.54C368.736 201.3 369.34 200.935 370.661 200.011Z"/><path fill="#FAF6B5" transform="scale(2 2)" d="M366.59 202.54L367.202 202.785L367.651 202.54C366.922 204.435 366.104 207.577 363.548 207.179C363.781 205.319 366.112 205.454 366.59 202.54Z"/><path fill="#DBBE61" transform="scale(2 2)" d="M124.861 213.499C142.436 211.6 148.407 189.111 157.14 195.06C153.75 199.084 158.273 196.537 152.219 197.271C145.911 198.43 141.934 211.501 124.861 214.407L124.861 213.499Z"/><defs><linearGradient id="gradient_12" gradientUnits="userSpaceOnUse" x1="203.91327" y1="203.57257" x2="213.34352" y2="203.45007"><stop offset="0" stop-color="#CBB254"/><stop offset="1" stop-color="#FCE489"/></linearGradient></defs><path fill="url(#gradient_12)" transform="scale(2 2)" d="M214.011 195.06L214.011 195.06L214.011 196.428C214.067 203.526 212.42 211.926 203.253 211.372C203.485 210.38 203.469 210.431 203.253 209.424C204.06 209.136 204.396 208.952 205.134 208.559C206.038 207.919 206.805 207.879 207.801 207.179C210.94 205.104 214.598 199.262 209.729 197.271C209.819 196.8 209.728 197.043 210.056 196.567L211.198 196.419C212.783 196.202 213.083 196.282 214.011 195.06Z"/><path fill="#F2DA7E" transform="scale(2 2)" d="M362.677 195.753C367.129 195.368 368.61 196.609 367.025 201.248L366.59 202.54C366.112 205.454 363.781 205.319 363.548 207.179C362.694 206.759 362.338 206.757 361.558 207.179C360.815 206.503 360.428 205.99 359.791 205.204C360.278 204.81 361.025 204.318 361.558 203.945C363.54 203.321 364.09 202.68 365.618 201.31C365.029 200.319 363.439 197.335 362.677 196.862L362.677 195.753Z"/><path fill="#F2E296" transform="scale(2 2)" d="M202.496 201.877L203.463 202.028L203.73 202.54L204.441 203.389L205.813 203.389L206.448 203.389L208.391 202.54C208.037 203.732 207.243 206.101 207.801 207.179C206.805 207.879 206.038 207.919 205.134 208.559C204.396 208.952 204.06 209.136 203.253 209.424C202.875 209.106 202.803 208.954 202.496 208.559L203.253 207.179L201.581 206.551L200.846 206.113L201.581 205.204C200.908 204.576 200.537 204.4 199.756 203.945C200.581 203.391 201.897 202.603 202.496 201.877Z"/><path fill="#FAF6B5" transform="scale(2 2)" d="M202.496 201.877L203.463 202.028L203.73 202.54L204.441 203.389L203.73 204.542L201.581 205.204C200.908 204.576 200.537 204.4 199.756 203.945C200.581 203.391 201.897 202.603 202.496 201.877Z"/><path fill="#DBBE61" transform="scale(2 2)" d="M203.253 207.179C204.053 207.387 204.46 208.029 205.134 208.559C204.396 208.952 204.06 209.136 203.253 209.424C202.875 209.106 202.803 208.954 202.496 208.559L203.253 207.179Z"/><path fill="#E4CD74" transform="scale(2 2)" d="M203.73 204.542L204.441 205.204C203.282 205.94 202.883 206.077 201.581 206.551L200.846 206.113L201.581 205.204L203.73 204.542Z"/><path fill="#F2DA7E" transform="scale(2 2)" d="M204.441 203.389L205.813 203.389C205.299 204.159 205.065 204.534 204.441 205.204L203.73 204.542L204.441 203.389Z"/><path fill="#D5B753" transform="scale(2 2)" d="M124.861 214.407C106.25 218.512 112.138 195.125 119.354 202.001C120.181 202.79 119.811 204.984 119.677 206.113C118.633 206.026 116.494 205.923 115.701 205.369L115.812 205.103C122.215 205.128 118.968 198.329 114.251 203.469C112.359 205.53 113.154 207.478 113.264 210.018C116.384 214.205 120.103 214.494 124.861 213.499L124.861 214.407Z"/><path fill="#B49341" transform="scale(2 2)" d="M199.756 206.113L200.846 206.113L201.581 206.551L203.253 207.179L202.496 208.559C202.803 208.954 202.875 209.106 203.253 209.424C203.469 210.431 203.485 210.38 203.253 211.372C200.045 210.254 197.891 209.343 194.886 207.774C195.444 206.96 196.026 206.582 196.86 206.113C198.069 205.932 198.207 206.535 199.756 206.113Z"/><path fill="#C5A849" transform="scale(2 2)" d="M199.756 206.113L200.846 206.113L201.581 206.551L203.253 207.179L202.496 208.559C200.482 207.508 198.996 206.752 196.86 206.113C198.069 205.932 198.207 206.535 199.756 206.113Z"/><defs><linearGradient id="gradient_13" gradientUnits="userSpaceOnUse" x1="209.97197" y1="193.51707" x2="208.02266" y2="198.24597"><stop offset="0" stop-color="#E1BF60"/><stop offset="1" stop-color="#F1DF84"/></linearGradient></defs><path fill="url(#gradient_13)" transform="scale(2 2)" d="M205.134 196.428C208.948 194.607 208.674 191.484 214.011 195.06C213.083 196.282 212.783 196.202 211.198 196.419L210.056 196.567C209.728 197.043 209.819 196.8 209.729 197.271C209.112 196.934 208.509 196.939 207.801 196.862L207.698 197.463C207.311 197.666 206.697 197.811 206.448 197.985C205.775 197.805 205.095 197.521 204.441 197.271C204.898 196.907 204.795 196.947 205.134 196.428Z"/><path fill="#D5B753" transform="scale(2 2)" d="M400.005 207.774C399.308 204.954 396.813 202.115 394.11 204.571C393.387 206.788 395.995 206.521 396.048 207.629C392.622 208.672 391.562 203.089 395.832 202.552C399.17 202.132 400.57 205.796 400.005 208.559L400.022 207.576L400.005 207.774Z"/><path fill="#F2DA7E" transform="scale(2 2)" d="M273.251 197.271C271.395 198.709 269.058 196.433 269.083 194.529C270.266 193.257 272.252 195.558 273.251 196.428C273.163 196.961 273.112 196.806 273.251 197.271Z"/><path fill="#E4CD74" transform="scale(2 2)" d="M355.879 210.018C357.112 210.113 358.122 210.02 359.019 210.828L359.791 211.372C356.982 212.081 355.559 212.062 352.924 210.828C354.068 210.363 354.676 210.267 355.879 210.018Z"/><path fill="#FAF6B5" transform="scale(2 2)" d="M190.594 195.06C191.52 194.189 192.045 194.175 193.227 194.295L192.07 195.753C191.867 196.472 191.404 197.867 191.418 198.557L192.07 200.011L190.033 198.557L190.033 197.271C190.771 196.493 191.023 196.48 191.248 195.591L190.594 195.06Z"/><path fill="#E4CD74" transform="scale(2 2)" d="M304.95 194.295L307.012 196.428L307.012 196.428L307.012 197.271C306.08 197.089 305.868 197.157 304.95 197.271C304.332 196.741 304.169 196.42 303.728 195.753L303.796 195.285C304.464 194.873 304.488 194.91 304.95 194.295Z"/><path fill="#F2DA7E" transform="scale(2 2)" d="M172.307 204.542L173.821 204.542C173.563 205.461 173.334 206.242 173.154 207.179L173.154 207.774L172.307 208.559C171.748 208.286 171.197 208.034 170.633 207.774C171.095 207.42 171.457 207.114 171.896 206.736L171.873 206.113C171.96 205.617 172.16 205.035 172.307 204.542Z"/><path fill="#F2E296" transform="scale(2 2)" d="M199.756 203.945C200.537 204.4 200.908 204.576 201.581 205.204L200.846 206.113L199.756 206.113C199.085 205.398 198.799 205.155 198.027 204.542L198.027 204.542C198.853 204.423 198.986 204.287 199.756 203.945Z"/></svg>