<?xml version="1.0" encoding="utf-8" ?><svg xmlns="http://www.w3.org/2000/svg" xmlns:xlink="http://www.w3.org/1999/xlink" width="1024" height="1024" viewBox="0 0 1024 1024"><path transform="scale(2 2)" d="M439.741 71.2503C442.638 70.9501 447.597 71.2316 450.759 71.2503C450.847 75.2372 450.217 81.6569 449.98 85.8104L444.628 180.124C443.044 205.8 442.204 227.638 442.682 253.25L443.519 323.646C443.567 329.734 443.998 335.41 443.965 341.773L443.332 341.335C439.5 338.675 433.687 335.654 429.502 333.161L344.393 281.715C340.802 279.553 337.076 277.076 333.15 275.712C331.236 277.473 329.078 279.155 327.109 280.908L312.993 293.655C305.405 300.478 305.179 300.865 300.603 310.033L293.678 323.852C292.494 326.195 291.164 329.111 289.681 331.21L289.447 331.537C296.41 346.466 304.443 360.902 311.472 375.813C321.789 378.675 334.464 379.114 345.205 381.585C347.974 382.223 363.701 392.059 366.422 393.953C365.4 395.892 364.443 397.789 363.476 399.757C356.966 396.236 350.734 391.775 344.18 388.514C340.028 386.449 320.687 384.285 315.217 383.292C323.729 401.626 333.44 419.744 341.993 438.131L336.328 441.759C335.349 439.187 332.856 434.247 331.572 431.598L285.052 336.917C281.781 339.66 277.846 342.568 274.446 345.238L255.77 360.126C253.249 362.164 247.36 366.697 245.409 368.732C245.642 370.901 245.491 373.088 245.813 375.59L253.747 438.131C251.14 438.593 250.205 438.475 247.674 438.131C245.45 426.147 243.932 411.093 242.667 398.598C232.281 402.698 222.649 409.659 211.64 414.085C211.665 421.402 209.634 429.653 209.701 436.756C207.696 436.702 205.442 436.581 203.465 436.756C203.71 431.621 205.114 418.3 206.074 413.241C194.274 401.779 182.343 390.312 170.762 378.632C169.171 377.197 167.461 375.828 165.803 374.465L149.832 409.129C146.597 416.209 142.853 424.051 139.958 431.229C138.177 430.462 136.336 429.283 134.44 428.407C136.567 423.066 141.543 411.926 144.349 407.453C128.817 409.895 108.113 415.466 92.591 419.379C92.6821 417.101 92.7202 415.505 92.591 413.241C97.3065 411.483 103.782 410.289 108.839 409.118L134.526 403.049C137.847 402.267 144.344 400.902 147.282 399.757C150.889 392.606 153.898 385.54 157.187 378.307L166.295 358.698C169.532 351.601 174.251 342.534 177.013 335.418C173.364 332.028 170.254 328.633 166.285 325.602C161.247 327.362 134.647 338.644 133.143 341.042C125.484 353.256 125.837 355.822 113.131 364.216C115.002 359.921 127.036 337.416 129.756 334.19C141.204 329.893 152.104 324.14 163.491 319.749C163.609 307.508 164.167 289.101 165.803 277.669C156.683 280.94 146.567 286.088 137.648 289.94L61.262 323.426C61.3833 309.096 62.8296 294.375 63.5171 280.046C64.6623 256.18 65.5671 232.295 66.1681 208.409L68.3277 100.833C68.4045 96.2617 68.3786 91.0122 68.7629 86.4968C71.6305 86.4584 74.5414 86.5962 77.4046 86.7558C106.429 88.3743 138.597 88.7725 167.202 91.9983C169.487 87.861 177.633 76.3974 180.582 73.1344L414.619 71.3361C422.925 71.2189 431.439 71.1581 439.741 71.2503ZM184.476 79.3762C182.025 83.9298 173.344 95.3178 169.756 99.9227L90.6133 95.043C85.6877 94.7278 79.2874 94.1299 74.4833 94.3264L74.499 133.126C74.5369 137.62 73.6883 140.147 74.4833 144.741C76.5997 147.526 80.4822 150.317 83.1292 152.8C93.3416 162.38 104.867 170.73 114.763 180.613L136.211 161.589C140.116 158.115 144.518 154.357 148.175 150.663C141.786 142.393 134.17 133.59 127.475 125.421C129.161 124.034 130.246 123.348 132.115 122.181C139.538 131.094 148.594 141.587 155.625 150.663C159.015 151.193 160.961 151.651 164.262 152.572C171.821 154.384 179.96 156.52 187.512 158.072C183.963 147.036 179.047 134.599 176.274 123.586C178.533 123.271 179.961 123.242 182.256 123.586C186.618 131.798 188.475 143.739 192.495 152.572L209.349 133.298C211.414 130.936 216.053 125.343 218.222 123.586C217.764 117.687 218.252 108.428 218.222 102.093C220.252 102.079 222.27 102.062 224.301 102.093L224.33 116.23C224.338 118.315 224.467 121.623 224.301 123.586C231.251 128.319 238.16 132.544 245.409 136.822C252.226 124.522 258.695 109.743 265.883 98.1699C267.657 99.2571 269.334 100.225 271.152 101.238C267.757 108.943 261.277 120.926 256.872 128.224C262.206 129.546 270.232 131.772 275.488 132.419C277.111 148.836 279.083 151.347 283.88 165.282C302.288 151.722 316.216 132.969 333.15 118.705C336.21 121.026 340.308 124.061 342.766 126.909C348.326 124.088 381.475 110.302 384.333 107.385C392.872 98.6727 402.214 87.4142 410.107 78.2495C407.751 78.109 406.359 78.1179 403.999 78.2495L184.476 79.3762ZM355.356 205.375C347.33 205.756 338.224 207.024 329.906 207.549C332.352 218.792 327.863 228.53 326.322 239.757L329.906 246.917C351.462 234.144 357.254 232.93 381.688 232.989C381.51 235.047 381.489 237.209 381.688 239.265C375.953 239.327 361.715 239.784 356.611 240.614C355.046 240.868 333.043 251.872 331.391 252.963C333.016 257.636 334.685 265.983 336.328 269.653C343.856 274.515 355.599 281.936 363.476 285.525C364.979 286.967 370.505 290.088 372.513 291.293L422.967 321.482C427.59 324.246 432.576 327.466 437.253 330.076C437.502 325.821 437.339 321.496 437.3 317.237L435.837 226.43C435.797 223.677 435.544 219.227 435.799 216.568C430.769 211.906 420.813 205.042 415.011 200.526L394.408 184.578C390.868 181.833 385.419 177.35 381.688 175.134C374.071 184.101 363.617 197.542 355.356 205.375ZM119.549 290.939C127.028 286.954 136.531 283.708 144.349 279.624C140.697 275.026 132.035 264.007 129.756 259.455C110.645 254.579 90.6586 251.169 71.4234 246.917C69.6993 268.722 69.5079 291.501 68.2492 313.519L97.3369 300.599C103.865 297.672 113.039 293.389 119.549 290.939ZM226.949 214.074C228.003 209.517 235.168 180.769 234.834 177.324C228.1 181.68 218.862 190.581 211.64 195.997C214.025 199.824 216.746 203.23 219.824 206.521C222.122 209.115 224.581 211.542 226.949 214.074ZM315.217 283.478C319.418 279.566 323.42 276.089 327.618 272.289C317.795 266.727 294.307 252.965 283.88 249.44C283.893 253.52 284.291 260.068 283.988 263.75L283.88 265.151C280.506 268.791 277.172 270.735 273.81 274.83C273.805 273.116 273.781 271.364 273.81 269.653C274.945 268.599 276.761 267.006 277.754 265.907C277.965 259.784 277.373 251.761 277.754 246.137C266.591 241.006 246.525 229.842 234.834 228.243C247.125 244.731 259.186 262.526 267.306 281.413C273.593 296.036 281.157 310.345 285.901 325.602C297.023 302.306 296.462 299.483 315.217 283.478ZM141.715 212.354C135.315 221.483 121.998 239.744 117.174 249.44C121.321 250.685 127.865 251.685 131.771 253.054C133.973 253.826 147.569 272.998 150.4 277.669C153.869 275.254 162.758 271.594 167.134 269.48L211.64 248.287C214.923 246.765 218.174 245.313 221.487 243.858C207.815 235.964 195.547 228.138 179.506 225.081C173.146 240.528 170.972 245.193 174.67 261.52C172.256 256.773 168.02 249.434 166.285 244.752C167.901 238.67 171.932 229.533 172.938 223.882C163.602 220.009 151.516 215.058 141.715 212.354ZM243.728 361.568C250.688 356.363 257.763 349.945 264.885 344.9L281.964 331.537C280.345 327.145 272.115 305.415 269.96 303.066C262.472 294.901 243.842 287.804 234.834 280.14C234.487 285.118 235.085 289.082 235.611 294L237.641 311.386C239.616 328.216 241.292 344.736 243.728 361.568ZM328.669 265.907C327.186 258.813 325.391 250.983 321.988 244.584C319.744 240.366 320.632 238.452 321.533 234.054L324.058 221.511C324.726 218.123 327.261 207.766 321.803 208.287C309.103 210.446 295.737 210.342 283.168 212.354C285.946 214.721 288.416 217.431 290.973 220.042L300.384 229.495C300.3 232.428 300.19 235.105 300.384 238.044C294.395 232.695 280.356 219.394 275.488 213.048C267.177 217.048 255.129 220.492 247.674 225.081C250.123 226.316 252.239 227.199 254.765 228.243C272.3 236.423 288.834 244.813 306.016 253.634L319.731 260.708C322.768 262.313 325.934 263.844 328.669 265.907ZM174.67 324.353C176.412 326.202 178.123 327.927 179.506 330.076C184.57 319.005 218.246 252.767 218.222 252.035C213.276 254.264 172.587 272.895 172.036 274.379C170.948 277.304 169.782 313.329 169.756 319.749C171.295 321.128 173.218 322.886 174.67 324.353ZM225.173 252.963C220.334 261.432 207.592 283.861 204.774 292.57C206.911 302.077 211.311 312.037 213.83 321.585C215.304 327.167 215.872 332.695 217.292 338.201C211.036 327.677 204.932 311.786 200.624 300.024C195.764 308.811 190.245 321.823 185.733 331.357L175.065 354.227C172.956 358.822 170.417 363.978 168.813 368.732C176.538 374.23 190.503 389.104 197.579 396.159C201.845 400.216 205.726 403.943 209.701 408.304C220.483 403.026 230.748 396.743 241.538 391.552C240.221 378.958 238.156 366.099 236.496 353.485L234.914 341.318C234.486 337.932 234.341 334.771 233.276 331.537C227.347 338.239 215.517 347.499 208.532 353.249C207.232 351.726 205.859 350.202 204.774 348.524C209.726 343.87 227.67 327.266 233.276 324.353C231.742 316.552 226.302 254.974 225.173 252.963ZM257.475 275.712C255.334 277.73 252.248 280.502 250.336 282.638L260.927 289.433C262.583 290.471 264.245 291.504 265.883 292.57C264.513 289.885 258.726 276.968 257.475 275.712ZM194.408 160.085C199.29 169.221 203.306 182.899 208.532 190.989C210.211 189.722 211.539 188.468 213.133 187.189C220.718 180.825 230.176 173.981 237.2 167.45C239.526 159.401 240.825 150.732 243.728 142.9C239.397 140.7 225.302 132.36 221.487 129.166C213.805 136.364 201.18 151.439 194.408 160.085ZM317.503 142.9C320.658 145.516 326.093 152.17 328.669 155.488C329.492 156.542 330.659 157.965 331.391 159.043C333.372 151.263 336.856 140.028 339.745 132.419C337.741 130.666 335.272 128.423 333.15 126.909C328.552 131.759 320.984 137.943 317.503 142.9ZM245.409 279.624C247.184 277.31 247.961 276.52 250.336 274.83C251.6 273.422 253.771 271.144 254.765 269.653C252.471 265.601 233.557 235.188 230.311 232.989L232.128 259.118C232.416 263.011 232.666 268.538 233.276 272.289C236.758 273.668 242.043 277.648 245.409 279.624ZM110.083 248.287C113.819 243.46 116.587 237.865 120.523 232.989C125.508 224.519 131.404 216.092 137.333 208.287L84.6669 162.589C82.7857 160.947 75.1461 154.029 73.4995 153.33C73.5245 172.347 73.1406 190.57 72.6564 209.567L72.1743 228.913C72.112 232.858 71.9062 235.743 72.2498 239.757C75.3887 241.588 104.084 246.934 110.083 248.287ZM224.301 220.608C203.743 199.199 202.361 191.97 189.822 165.282C177.654 161.981 164.834 159.645 152.848 155.62C152.399 155.47 152.836 155.552 152.372 155.488C140.956 164.631 130.866 175.452 119.549 184.699C126.33 190.712 133.518 196.511 140.219 202.589C148.759 210.335 161.364 211.592 171.547 216.568C172.966 211.576 174.333 206.087 176.274 201.309C172.831 199.671 169.574 197.344 166.285 195.997C165.762 187.912 167.63 180.57 168.813 172.742C169.795 176.403 171.074 187.802 171.547 191.877C174.561 193.247 181.501 197.47 183.633 199.764C181.251 206.712 179.612 211.68 177.822 218.72C192.367 219.534 211.457 231.55 224.301 238.044C224.243 231.759 223.368 226.788 224.301 220.608ZM231.85 221.386C233.053 221.669 234.629 222.087 235.813 222.309C236.615 222.474 237.622 222.769 238.38 222.603C238.312 220.82 235.665 209.326 234.834 208.287C233.417 213.065 232.733 216.479 231.85 221.386ZM271.152 137.893C265.667 136.704 259.214 135.268 253.747 133.886C245.511 152.008 242.65 176.57 237.2 195.997L239.437 197.463C241.021 200.647 243.275 214.561 244.22 218.72C263.587 212.621 269.434 206.855 290.527 205.154L310.028 203.454C313.906 203.108 318.907 202.778 322.692 202.192C322.072 199.19 321.272 196.347 320.469 193.392C322.385 186.213 326.843 170.586 329.906 164.244C325.025 157.999 319.464 151.92 314.071 146.074C306.656 153.277 298.934 160.265 291.417 167.45C287.498 170.633 284.199 173.775 280.617 177.324C283.745 179.32 288.898 184.337 291.417 187.189C289.386 188.301 288.983 188.447 287.362 190.127C284.051 187.476 279.759 184.204 276.686 181.394C266.789 189.443 256.254 201.4 246.057 208.287C246.592 205.228 247.487 202.288 248.113 199.259C250.895 185.818 249.839 171.59 251.471 158.072C254.004 157.824 254.938 157.885 257.475 158.072C256.863 169.022 255.759 181.047 255.766 191.877C263.431 185.375 271.925 176.138 279.606 170.347C275.485 158.787 269.944 151.245 271.152 137.893ZM395.759 149.414C401.441 142.921 407.641 133.919 413.739 128.224C415.368 129.127 417.202 130.301 418.645 131.475C415.502 134.676 413.051 137.841 410.194 141.301L398.892 154.992C394.664 160.129 389.926 165.031 385.952 170.347C396.657 178.694 407.78 186.882 418.596 195.187L430.037 203.868C439.097 210.794 436.23 207.606 436.928 194.116L441.615 110.459C442.253 99.7624 442.591 88.8679 443.499 78.2495C440.161 78.0238 438.15 77.9474 434.782 78.2495C429.387 78.2865 424.041 78.3251 418.645 78.2495C414.488 82.491 390.19 111.735 387.397 113.184C375.077 119.573 356.849 125.817 345.972 132.419C342.202 143.634 338.828 155.239 335.182 166.485L329.888 183.034C326.935 192.49 326.337 192.508 328.669 202.192C335.108 200.987 345.838 199.659 352.322 199.764C365.234 182.873 382.084 166.334 395.759 149.414Z"/></svg>