<svg xmlns="http://www.w3.org/2000/svg" width="512" height="512" preserveAspectRatio="none" style="display:block" viewBox="0 0 2048 2048" id="a17db4b7-8057-41ea-9775-c4df57f13283">
  <defs>
    <linearGradient id="Gradient1" x1="1071.92" x2="1445.71" y1="1075.2" y2="1097.57" gradientUnits="userSpaceOnUse">
      <stop class="stop0" offset="0" stop-color="#D58D3E"></stop>
      <stop class="stop1" offset="1" stop-color="#EBBF6F"></stop>
    </linearGradient>
    <linearGradient id="Gradient2" x1="1040.44" x2="1372.61" y1="1061.64" y2="1058.34" gradientUnits="userSpaceOnUse">
      <stop class="stop0" offset="0" stop-color="#DC9D4A"></stop>
      <stop class="stop1" offset="1" stop-color="#EEC876"></stop>
    </linearGradient>
    <linearGradient id="Gradient3" x1="506.061" x2="743.181" y1="368.6" y2="335.12" gradientUnits="userSpaceOnUse">
      <stop class="stop0" offset="0" stop-color="#DD922E"></stop>
      <stop class="stop1" offset="1" stop-color="#FED65C"></stop>
    </linearGradient>
    <linearGradient id="Gradient4" x1="1581.36" x2="1199.52" y1="375.133" y2="441.135" gradientUnits="userSpaceOnUse">
      <stop class="stop0" offset="0" stop-color="#EFAD41"></stop>
      <stop class="stop1" offset="1" stop-color="#F9CC68"></stop>
    </linearGradient>
    <linearGradient id="Gradient5" x1="1041.51" x2="586.745" y1="878.947" y2="877.541" gradientUnits="userSpaceOnUse">
      <stop class="stop0" offset="0" stop-color="#F7CC71"></stop>
      <stop class="stop1" offset="1" stop-color="#F6DCB1"></stop>
    </linearGradient>
    <linearGradient id="Gradient6" x1="1589.56" x2="551.468" y1="1200.36" y2="956.773" gradientUnits="userSpaceOnUse">
      <stop class="stop0" offset="0" stop-color="#DF932B"></stop>
      <stop class="stop1" offset="1" stop-color="#FBD173"></stop>
    </linearGradient>
  </defs>
  <path fill="url(#Gradient6)" d="M 820.12 282.569 C 875.913 253.802 912.167 242.006 967.756 200.831 C 1041.49 149.41 1023.39 169.122 1091.9 213.67 C 1204.39 286.806 1313.67 314.469 1443.54 338.774 C 1452.27 340.407 1467.57 339.926 1477.54 341.092 L 1629.8 358.62 C 1643.07 404.225 1653.76 555.244 1653.21 604.279 C 1656.86 613.209 1657.18 660.95 1657.6 673.721 C 1663.47 853.086 1644.35 1032.42 1586.16 1202.87 C 1585.92 1203.59 1585.39 1204.43 1584.99 1205.11 C 1569.03 1258.3 1535.82 1329.24 1506.95 1378.88 C 1488.54 1410.43 1460.91 1457.26 1438.5 1485.69 C 1416.21 1526.75 1335.49 1612.26 1303.06 1645.16 C 1297.56 1650.74 1288.52 1659.14 1283.77 1665.07 C 1276.28 1674.45 1255.52 1692.33 1245.85 1701.48 C 1197.25 1747.46 1115.53 1818.92 1056.83 1853.58 L 1055.16 1854.7 C 1010.39 1884.25 958.18 1831.87 923.111 1804.14 C 797.14 1704.52 673.752 1590.35 585.967 1454.44 C 578.366 1447.38 547.205 1390.68 539.625 1376.88 C 427.312 1172.35 403.376 987.46 389.218 763.177 C 391.777 687.546 388.432 616.323 394.665 539.476 C 395.53 528.818 397.458 493.052 400.016 484.282 C 403.438 439.321 410.429 402.637 419.664 358.62 C 441.188 358.492 475.802 354.056 497.809 351.826 C 621.703 332.785 698.277 325.456 820.12 282.569 z"></path>
  <path fill="url(#Gradient5)" d="M 820.12 282.569 C 875.913 253.802 912.167 242.006 967.756 200.831 C 1041.49 149.41 1023.39 169.122 1091.9 213.67 C 1204.39 286.806 1313.67 314.469 1443.54 338.774 C 1452.27 340.407 1467.57 339.926 1477.54 341.092 L 1629.8 358.62 C 1623.95 366.829 1594.26 395.747 1591.93 400.58 C 1594.39 405.662 1594.74 408.932 1594.13 414.502 C 1593.41 409.861 1592.72 405.209 1591.93 400.58 C 1567.14 426.757 1526.54 484.122 1501.71 504.137 L 1501.71 504.137 C 1480.76 518.112 1462.47 534.107 1441.87 548.272 L 1441.87 548.272 C 1433.65 553.515 1370.31 594.186 1367 598.395 C 1342.71 614.948 1311.98 638.576 1289.32 656.94 L 1288.13 658.097 C 1275.7 669.997 1259.68 680.303 1247.21 691.992 C 1166.45 767.674 1113.34 836.914 1046.98 921.782 C 1045.06 924.711 1042.35 928.5 1041 931.633 C 968.45 1017.8 885.762 1166 833.077 1263.96 C 812.643 1301.96 793.874 1342.11 771.822 1378.88 L 771.822 1378.88 C 768.721 1382.17 747.704 1418.9 743.182 1425.98 C 658.573 1321.9 632.165 1252.12 582.021 1135.25 L 580.594 1134.96 C 574.757 1119.93 570.75 1102.04 564.996 1086.91 C 558.691 1070.34 555.442 1010.72 537.653 1031.63 L 537.41 1033.36 C 536.547 1039.25 536.567 1040.14 532.135 1044.16 C 524.938 1065.53 530.262 1175.87 511.443 1188.39 L 510.087 1188.43 C 524.56 1253.19 575.984 1350.44 610.792 1404.96 C 614.39 1410.56 617.31 1414.89 620.17 1420.85 C 598.779 1402.2 620.568 1405.11 595.686 1415.45 C 554.718 1432.46 572.67 1417.49 587.567 1453.94 L 585.967 1454.44 C 578.366 1447.38 547.205 1390.68 539.625 1376.88 C 427.312 1172.35 403.376 987.46 389.218 763.177 C 391.777 687.546 388.432 616.323 394.665 539.476 C 395.53 528.818 397.458 493.052 400.016 484.282 C 403.438 439.321 410.429 402.637 419.664 358.62 C 441.188 358.492 475.802 354.056 497.809 351.826 C 621.703 332.785 698.277 325.456 820.12 282.569 z"></path>
  <path fill="#FCDE88" d="M 820.12 282.569 C 875.913 253.802 912.167 242.006 967.756 200.831 C 1041.49 149.41 1023.39 169.122 1091.9 213.67 C 1204.39 286.806 1313.67 314.469 1443.54 338.774 C 1452.27 340.407 1467.57 339.926 1477.54 341.092 L 1629.8 358.62 C 1623.95 366.829 1594.26 395.747 1591.93 400.58 C 1594.39 405.662 1594.74 408.932 1594.13 414.502 C 1593.41 409.861 1592.72 405.209 1591.93 400.58 C 1567.14 426.757 1526.54 484.122 1501.71 504.137 L 1501.71 504.137 C 1480.76 518.112 1462.47 534.107 1441.87 548.272 L 1441.87 548.272 C 1416.09 543.128 1389.85 535.559 1364.02 531.763 C 1363.45 523.756 1363.92 512.397 1364.02 504.137 C 1364.78 498.41 1364.12 479.169 1364.02 472.432 C 1339.6 466.293 1203.63 427.838 1189.13 414.502 C 1171.75 401.229 1115.12 375.151 1092.54 363.239 C 1067.93 350.255 1046.96 331.739 1024.43 317.136 C 892.954 420.316 711.323 484.033 543.977 484.282 C 544.299 514.249 541.905 546.24 541.088 576.424 L 535.445 810.687 C 532.734 938.352 543.482 1016.47 582.021 1135.25 L 580.594 1134.96 C 574.757 1119.93 570.75 1102.04 564.996 1086.91 C 558.691 1070.34 555.442 1010.72 537.653 1031.63 L 537.41 1033.36 C 536.547 1039.25 536.567 1040.14 532.135 1044.16 C 524.938 1065.53 530.262 1175.87 511.443 1188.39 L 510.087 1188.43 C 524.56 1253.19 575.984 1350.44 610.792 1404.96 C 614.39 1410.56 617.31 1414.89 620.17 1420.85 C 598.779 1402.2 620.568 1405.11 595.686 1415.45 C 554.718 1432.46 572.67 1417.49 587.567 1453.94 L 585.967 1454.44 C 578.366 1447.38 547.205 1390.68 539.625 1376.88 C 427.312 1172.35 403.376 987.46 389.218 763.177 C 391.777 687.546 388.432 616.323 394.665 539.476 C 395.53 528.818 397.458 493.052 400.016 484.282 C 403.438 439.321 410.429 402.637 419.664 358.62 C 441.188 358.492 475.802 354.056 497.809 351.826 C 621.703 332.785 698.277 325.456 820.12 282.569 z"></path>
  <path fill="url(#Gradient4)" d="M 1189.13 414.502 C 1211.79 414.841 1215.63 343.67 1210.31 326.516 C 1205.27 322.8 1166.57 308.158 1156.01 302.94 C 1143.29 296.655 1021.63 222.078 1020.93 222.357 C 1003.49 229.643 949.725 271.409 938.018 272.944 C 937.908 269.954 972.885 250.572 978.69 246.138 C 984.392 242.277 1020.11 215.844 1024.71 219.042 C 1059.98 243.532 1092.94 266.269 1130.74 287.076 C 1241.35 347.949 1407.47 391.793 1530.31 398.265 C 1547.72 399.178 1575.06 402.098 1591.93 400.58 C 1594.39 405.662 1594.74 408.932 1594.13 414.502 C 1593.41 409.861 1592.72 405.209 1591.93 400.58 C 1567.14 426.757 1526.54 484.122 1501.71 504.137 L 1501.71 504.137 C 1480.76 518.112 1462.47 534.107 1441.87 548.272 L 1441.87 548.272 C 1416.09 543.128 1389.85 535.559 1364.02 531.763 C 1363.45 523.756 1363.92 512.397 1364.02 504.137 C 1364.78 498.41 1364.12 479.169 1364.02 472.432 C 1339.6 466.293 1203.63 427.838 1189.13 414.502 z"></path>
  <path fill="#DA9D54" d="M 1364.02 472.432 C 1380 476.227 1493.23 499.102 1501.71 504.137 C 1480.76 518.112 1462.47 534.107 1441.87 548.272 L 1441.87 548.272 C 1416.09 543.128 1389.85 535.559 1364.02 531.763 C 1363.45 523.756 1363.92 512.397 1364.02 504.137 C 1364.78 498.41 1364.12 479.169 1364.02 472.432 z"></path>
  <path fill="#E6B166" d="M 419.664 358.62 C 441.188 358.492 475.802 354.056 497.809 351.826 C 518.386 357.961 503.423 380.884 512.36 391.774 L 509.494 392.514 L 509.51 393.638 C 491.556 396.485 474.311 396.726 456.376 400.58 C 452.058 427.412 447.007 457.3 444.577 484.282 C 444.736 492.247 443.416 503.219 442.67 511.348 C 434.385 601.665 437.301 683.202 435.361 772.161 C 434.456 767.795 434.117 760.16 433.768 755.478 L 432.852 755.301 L 430.558 759.166 C 424.152 760.444 423.541 756.295 415.255 758.05 C 412.399 754.958 413.274 750.107 409.279 752.972 L 407.351 752.965 C 401.547 752.982 394.377 756.233 392.268 751.548 C 390.902 756.115 392.667 759.593 389.218 763.177 C 391.777 687.546 388.432 616.323 394.665 539.476 C 395.53 528.818 397.458 493.052 400.016 484.282 C 403.438 439.321 410.429 402.637 419.664 358.62 z"></path>
  <path fill="#CA8039" d="M 419.664 358.62 C 441.188 358.492 475.802 354.056 497.809 351.826 C 518.386 357.961 503.423 380.884 512.36 391.774 L 509.494 392.514 L 509.51 393.638 C 491.556 396.485 474.311 396.726 456.376 400.58 C 452.058 427.412 447.007 457.3 444.577 484.282 C 441.792 474.978 450.084 440.478 449.896 429.828 L 448.19 430.125 L 445.227 434.362 C 438.477 437.89 433.442 436.24 425.726 435.206 C 421.324 431.847 420.385 432.317 416.487 436.04 C 412.093 437.055 415.492 433.173 408.777 431.517 C 404.364 436.079 404.974 479.473 400.016 484.282 C 403.438 439.321 410.429 402.637 419.664 358.62 z"></path>
  <path fill="url(#Gradient3)" d="M 497.809 351.826 C 621.703 332.785 698.277 325.456 820.12 282.569 C 816.65 291.374 752.521 307.737 740.693 310.996 C 730.53 313.797 744.48 347.527 746.372 348.002 C 759.541 351.308 776.091 338.602 789.318 336.851 L 789.894 337.578 C 743.582 354.756 561.473 396.264 509.51 393.638 L 509.494 392.514 L 512.36 391.774 C 503.423 380.884 518.386 357.961 497.809 351.826 z"></path>
  <path fill="#E6B166" d="M 1024.43 317.136 C 1046.96 331.739 1067.93 350.255 1092.54 363.239 C 1115.12 375.151 1171.75 401.229 1189.13 414.502 C 1203.63 427.838 1339.6 466.293 1364.02 472.432 C 1364.12 479.169 1364.78 498.41 1364.02 504.137 C 1361.78 512.573 1364.4 519.106 1362.76 527.814 C 1351.75 530.147 1247.42 495.385 1233.11 490.418 C 1163.18 458.405 1115.8 439.504 1046.98 397.576 C 1039.47 391.991 1032.06 386.649 1024.43 381.231 C 932.402 449.053 711.955 541.221 591.995 531.763 C 592.113 565.257 590.274 594.712 589.433 627.508 L 585.824 850.352 C 581.639 1016.13 662.768 1247.6 771.193 1378.3 C 771.403 1378.5 771.612 1378.69 771.822 1378.88 L 771.822 1378.88 C 768.721 1382.17 747.704 1418.9 743.182 1425.98 C 658.573 1321.9 632.165 1252.12 582.021 1135.25 C 543.482 1016.47 532.734 938.352 535.445 810.687 L 541.088 576.424 C 541.905 546.24 544.299 514.249 543.977 484.282 C 711.323 484.033 892.954 420.316 1024.43 317.136 z"></path>
  <path fill="#F4C76B" d="M 1046.98 921.782 L 1043.71 923.47 L 1042.81 922.268 C 1041.37 913.314 1042.71 900.745 1042.72 891.23 C 1042.8 844.717 1036.41 414.887 1044.33 397.675 L 1046.98 397.576 C 1115.8 439.504 1163.18 458.405 1233.11 490.418 C 1247.42 495.385 1351.75 530.147 1362.76 527.814 C 1364.4 519.106 1361.78 512.573 1364.02 504.137 C 1363.92 512.397 1363.45 523.756 1364.02 531.763 C 1389.85 535.559 1416.09 543.128 1441.87 548.272 C 1433.65 553.515 1370.31 594.186 1367 598.395 C 1342.71 614.948 1311.98 638.576 1289.32 656.94 L 1288.13 658.097 C 1275.7 669.997 1259.68 680.303 1247.21 691.992 C 1166.45 767.674 1113.34 836.914 1046.98 921.782 z"></path>
  <path fill="#FCDE88" d="M 1289.32 656.94 C 1289.9 648.718 1357.12 606.82 1366.75 595.502 C 1368.68 587.538 1365.82 541.945 1364.03 532.999 C 1363.57 532.659 1245.42 496.697 1233.17 491.854 L 1233.11 490.418 C 1247.42 495.385 1351.75 530.147 1362.76 527.814 C 1364.4 519.106 1361.78 512.573 1364.02 504.137 C 1363.92 512.397 1363.45 523.756 1364.02 531.763 C 1389.85 535.559 1416.09 543.128 1441.87 548.272 C 1433.65 553.515 1370.31 594.186 1367 598.395 C 1342.71 614.948 1311.98 638.576 1289.32 656.94 z"></path>
  <path fill="url(#Gradient2)" d="M 1367 598.395 C 1372.2 614.561 1370.81 703.451 1370.81 724.716 C 1370.8 903.871 1376.62 1068.88 1290.24 1232.35 C 1236.79 1333.5 1139.46 1458 1042.68 1524.24 C 1042.65 1557.91 1040.25 1593.72 1046.98 1626.12 C 1041.99 1629.29 1037.11 1632.53 1032.19 1635.8 C 1010.7 1620.59 980.472 1589.31 961.488 1578.08 C 951.944 1585.54 926.245 1599.84 915.11 1605.32 C 868.439 1570.94 778.285 1470.29 743.182 1425.98 C 747.704 1418.9 768.721 1382.17 771.822 1378.88 L 771.822 1378.88 C 793.874 1342.11 812.643 1301.96 833.077 1263.96 C 885.762 1166 968.45 1017.8 1041 931.633 C 1042.35 928.5 1045.06 924.711 1046.98 921.782 C 1113.34 836.914 1166.45 767.674 1247.21 691.992 C 1259.68 680.303 1275.7 669.997 1288.13 658.097 L 1289.32 656.94 C 1311.98 638.576 1342.71 614.948 1367 598.395 z"></path>
  <path fill="#F4C76B" d="M 771.822 1378.88 C 793.874 1342.11 812.643 1301.96 833.077 1263.96 C 885.762 1166 968.45 1017.8 1041 931.633 C 1043.42 960.149 1042.71 987.527 1042.72 1016.1 L 1042.68 1505.5 C 1043.03 1512.61 1043.05 1517.14 1042.68 1524.24 C 1042.65 1557.91 1040.25 1593.72 1046.98 1626.12 C 1041.99 1629.29 1037.11 1632.53 1032.19 1635.8 C 1010.7 1620.59 980.472 1589.31 961.488 1578.08 C 951.944 1585.54 926.245 1599.84 915.11 1605.32 C 868.439 1570.94 778.285 1470.29 743.182 1425.98 C 747.704 1418.9 768.721 1382.17 771.822 1378.88 L 771.822 1378.88 z"></path>
  <path fill="#DA9D54" d="M 771.822 1378.88 C 810.264 1430.65 859.718 1481.03 904.609 1526.88 C 922.351 1545 944.395 1560.57 961.488 1578.08 L 961.488 1578.08 C 951.944 1585.54 926.245 1599.84 915.11 1605.32 C 868.439 1570.94 778.285 1470.29 743.182 1425.98 C 747.704 1418.9 768.721 1382.17 771.822 1378.88 z"></path>
  <path fill="#E6B166" d="M 1042.68 1524.24 C 1042.21 1517.83 1041.36 1511.77 1042.68 1505.5 C 1043.03 1512.61 1043.05 1517.14 1042.68 1524.24 C 1042.65 1557.91 1040.25 1593.72 1046.98 1626.12 C 1041.99 1629.29 1037.11 1632.53 1032.19 1635.8 C 1010.7 1620.59 980.472 1589.31 961.488 1578.08 L 961.488 1578.08 C 986.011 1569.3 1019.05 1540.48 1042.68 1524.24 z"></path>
  <path fill="url(#Gradient1)" d="M 1441.87 548.272 L 1441.87 548.272 L 1460.15 551.514 C 1457.02 573.121 1460.18 618.168 1460.21 642.735 L 1460.16 793.89 C 1460.17 811.016 1459.77 828.776 1460.15 845.667 C 1465.69 1087.81 1353.52 1318.57 1189.21 1491.71 C 1148.89 1534.19 1080.2 1586 1046.98 1626.12 C 1040.25 1593.72 1042.65 1557.91 1042.68 1524.24 C 1139.46 1458 1236.79 1333.5 1290.24 1232.35 C 1376.62 1068.88 1370.8 903.871 1370.81 724.716 C 1370.81 703.451 1372.2 614.561 1367 598.395 C 1370.31 594.186 1433.65 553.515 1441.87 548.272 z"></path>
  <path fill="#CA8039" d="M 1501.71 504.137 C 1500.48 515.793 1502.34 536.932 1503.35 548.946 C 1511.42 645.066 1508.99 741.269 1509.2 837.589 C 1512.18 1161.23 1337.15 1445.4 1091.1 1644.03 C 1070.76 1660.45 1047.73 1682.95 1024.43 1694.93 C 1000.87 1669.15 945.418 1634.56 915.11 1605.32 C 926.245 1599.84 951.944 1585.54 961.488 1578.08 C 980.472 1589.31 1010.7 1620.59 1032.19 1635.8 C 1037.11 1632.53 1041.99 1629.29 1046.98 1626.12 C 1080.2 1586 1148.89 1534.19 1189.21 1491.71 C 1353.52 1318.57 1465.69 1087.81 1460.15 845.667 C 1459.77 828.776 1460.17 811.016 1460.16 793.89 L 1460.21 642.735 C 1460.18 618.168 1457.02 573.121 1460.15 551.514 L 1441.87 548.272 C 1462.47 534.107 1480.76 518.112 1501.71 504.137 L 1501.71 504.137 z"></path>
  <path fill="#FCDE88" d="M 1629.8 358.62 C 1643.07 404.225 1653.76 555.244 1653.21 604.279 C 1656.86 613.209 1657.18 660.95 1657.6 673.721 C 1663.47 853.086 1644.35 1032.42 1586.16 1202.87 C 1585.92 1203.59 1585.39 1204.43 1584.99 1205.11 C 1582.41 1200.12 1607.85 1124.17 1611.05 1112.29 C 1612.81 1105.73 1584.88 1087.22 1578.35 1086.12 C 1569.17 1102.65 1567.67 1141.44 1557.49 1156.07 C 1556.64 1154.34 1559.65 1146.22 1560.43 1143.66 C 1593.72 1035.11 1613.81 906.648 1614.29 792.006 L 1614.27 678.558 C 1614.22 661.927 1612.84 639.21 1614.3 623.582 C 1610.54 612.442 1610.71 588.972 1609.67 576.315 C 1606.53 522.122 1599.65 468.437 1594.13 414.502 C 1594.74 408.932 1594.39 405.662 1591.93 400.58 C 1594.26 395.747 1623.95 366.829 1629.8 358.62 z"></path>
  <path fill="#E6B166" d="M 1629.8 358.62 C 1643.07 404.225 1653.76 555.244 1653.21 604.279 L 1652.55 606.143 C 1648.08 580.647 1649.2 540.666 1646.59 513.012 C 1645.39 500.337 1642.07 486.677 1642.59 474.092 C 1633.52 478.375 1612.07 488.441 1605.46 495.519 C 1604.88 514.237 1617.02 615.293 1614.3 623.582 C 1610.54 612.442 1610.71 588.972 1609.67 576.315 C 1606.53 522.122 1599.65 468.437 1594.13 414.502 C 1594.74 408.932 1594.39 405.662 1591.93 400.58 C 1594.26 395.747 1623.95 366.829 1629.8 358.62 z"></path>
  <path fill="#FCDE88" d="M 1056.83 1853.58 C 1062.88 1844.63 1115.67 1812.16 1112.33 1806.02 C 1104.96 1793.97 1107.41 1775.67 1105.13 1761.97 C 1099.57 1765.93 1088.36 1775.21 1083.89 1777.92 L 1082.86 1777.53 C 1129.73 1738.92 1173.78 1705.98 1218.92 1663.83 L 1219.69 1664.34 C 1217.63 1670.43 1206.06 1675.1 1203.42 1680.48 L 1204.57 1681.57 C 1217.14 1682.69 1232.48 1682.85 1244.75 1685.28 C 1275.43 1691.36 1262.56 1668.02 1283.77 1665.07 C 1276.28 1674.45 1255.52 1692.33 1245.85 1701.48 C 1197.25 1747.46 1115.53 1818.92 1056.83 1853.58 z"></path>
  <path fill="#CA8039" d="M1438.5 1485.69C1433.34 1475.09 1403.87 1479.47 1398.5 1468.66 1400.26 1462.17 1439.22 1414.41 1445 1402.08 1446.99 1397.84 1474.14 1353.55 1475.91 1351.8 1499.52 1359.56 1494.42 1378.95 1506.95 1378.88 1488.54 1410.43 1460.91 1457.26 1438.5 1485.69zM717.626 1551.16C717.219 1550.96 817.735 1654.76 817.837 1655.01L814.5 1652C808.45 1645.86 789.951 1626.14 783.874 1623.13 766.966 1615.66 727.366 1615.94 751.767 1590.36 749.664 1585.72 722.743 1560.43 717.626 1551.16z"></path>
</svg>
