<?xml version="1.0" encoding="utf-8" ?><svg xmlns="http://www.w3.org/2000/svg" xmlns:xlink="http://www.w3.org/1999/xlink" width="1024" height="1024" viewBox="0 0 1024 1024"><path fill="#D1782E" d="M207.655 114.829C215.444 113.993 235.326 114.492 243.925 114.503L326.369 115.051L449.742 114.873L488.343 114.818C497.089 114.735 507.025 114.266 515.658 114.58C554.954 115.538 596.204 115.024 635.553 114.738C666.576 114.515 697.601 114.454 728.625 114.555L785.095 114.627C795.149 114.672 807.883 114.398 817.736 115.142C834.435 130.507 851.916 148.747 868.236 164.852C904.482 200.838 940.942 236.608 977.613 272.161C987.321 281.604 996.946 291.13 1006.49 300.74C1011.34 305.59 1018.75 313.359 1024 317.42L1024 322.589C1017.15 329.047 1010.25 338.544 1004.11 346.021L974.619 381.511C972.666 383.901 962.201 396.947 960.367 398.225C957.938 401.629 949.224 411.994 946.177 415.003C939.776 424.338 922.355 443.861 914.687 452.768L863.376 512.882C840.959 539.251 818.357 565.462 795.57 591.511C789.299 598.612 779.247 611.516 773.163 617.509C764.428 628.217 754.195 639.346 745.091 650.255C726.02 673.517 705.996 695.431 686.508 718.251C680.831 724.637 675.519 731.265 669.763 737.536C668.507 738.905 664.675 743.549 663.416 744.611C653.564 755.687 643.839 766.877 634.243 778.176C624.306 789.645 613.771 801.455 604.108 813.089C596.073 821.42 588.027 832.298 580.033 840.865C578.199 842.83 574.452 847.637 572.889 849.116C566.605 856.793 558.75 865.113 552.818 872.722L552.148 872.581C549.89 872.123 535.198 867.581 534.092 866.419L533.796 866.749C531.243 865.662 520.018 862.548 517.514 862.347L517.421 862.083C517.643 856.354 518.48 840.119 518.076 835.073C517.722 832.32 517.802 831.203 517.8 828.389C514.295 827.041 510.967 825.517 507.38 824.466L507.195 823.1C506.812 806.652 506.571 790.2 506.474 773.748L506.157 773.13C500.837 772.089 485.521 762.737 478.413 761.179C477.593 752.445 477.014 742.338 476.442 733.501C473.325 733.498 471.217 733.222 468.748 733.084C462.876 732.754 460.128 729.674 456.127 729.484L454.472 726.858C453.529 727.3 452.951 727.604 451.83 727.157C436.156 720.895 420.742 715.15 404.426 710.678L403.69 709.434C398.033 707.885 385.329 701.834 380.094 701.671C379.676 701.086 379.361 700.446 378.894 699.896C374.686 700.162 359.269 692.678 353.982 691.67L350.496 688.152C339.203 688.45 302.629 667.109 291.022 666.705C289.184 665.13 283.381 658.299 281.57 656.212L264.06 635.979C244.425 613.48 224.956 590.836 205.655 568.049C202.239 564.541 197.715 558.792 194.411 554.872L173.182 529.59C168.792 524.856 162.87 517.37 158.637 512.273L126.06 472.616C101.246 442.662 75.45 412.759 50.982 382.664L19.3192 343.857C15.2673 338.91 4.52311 324.274 0 321.431L0 317.869C4.92751 314.183 9.83219 308.842 14.3106 304.488L44.6022 274.678L165.051 155.96L189.765 131.256C193.83 127.201 203.125 117.594 207.655 114.829Z"/><defs><linearGradient id="gradient_0" gradientUnits="userSpaceOnUse" x1="568.10779" y1="258.61353" x2="66.342957" y2="472.86121"><stop offset="0" stop-color="#F0932F"/><stop offset="1" stop-color="#FFCC39"/></linearGradient></defs><path fill="url(#gradient_0)" d="M207.655 114.829C215.444 113.993 235.326 114.492 243.925 114.503L326.369 115.051L449.742 114.873L488.343 114.818C497.089 114.735 507.025 114.266 515.658 114.58L512.405 115.585C509.467 115.787 447.953 147.454 439.989 151.259C441.683 153.005 445.27 154.041 447.555 155.298C454.715 159.235 461.533 162.739 468.117 167.61C466.757 169.04 446.724 179.329 443.055 181.773L442.926 182.387C460.478 182.689 479.597 182.564 497.195 182.399C498.956 185.389 528.483 204.281 530.917 204.819L531.32 204.957C536.427 210.435 546.107 214.949 551.685 221.083L545.366 221.161C543.869 222.104 510.593 221.708 506.354 221.706C506.828 226.402 507.578 242.335 508.625 245.412C511.495 249.69 517.069 256.771 519.17 260.815L519.387 260.938C523.752 274.646 550.307 279.842 561.732 288.146L562.187 287.969C568.761 291.207 587.779 300.73 594.18 302.579C571.209 325.959 545.512 347.855 521.96 370.776C518.669 373.979 514.846 377.506 511.323 380.451C510.188 378.997 508.135 377.286 506.712 376.007C507.216 378.04 509.312 379.547 510.901 381.202C506.009 379.49 495.298 370.685 491.842 372.085C489.096 375.655 489.954 380.715 488.568 383.226C487.189 381.795 485.273 379.287 483.598 378.964L483.105 379.141C485.321 381.504 486.776 382.827 489.229 384.943L426.273 384.985C415.203 385.002 402.144 385.338 391.242 384.922L383.064 385.001C383.92 390.655 387.169 398.746 388.321 404.54L388.521 404.995C393.084 421.676 399.746 434.222 408.617 449.01L409.57 449.357C419.105 449.818 434.867 451.157 443.912 451.026L444.175 451.325C449.912 451.505 455.647 451.74 461.38 452.029L461.515 460.028C461.31 479.15 464.449 504.497 465.126 524.291L465.456 524.951C465.631 532.003 466.159 539.306 466.619 546.367C461.756 545.449 456.971 544.159 452.306 542.509C450.549 535.474 448.763 523.831 446.698 517.84L445.738 517.563C444.361 517.304 443.672 517.632 442.348 518.295C416.522 531.239 389.858 542.588 364.076 555.52C363.922 555.628 363.768 555.736 363.614 555.843L363.263 555.494C351.652 560.888 339.216 565.909 328.027 571.158C340.136 593.421 356.548 620.991 367.357 643.071L368.674 645.101C379.79 666.48 392.151 688.228 403.69 709.434C398.033 707.885 385.329 701.834 380.094 701.671C379.676 701.086 379.361 700.446 378.894 699.896C374.686 700.162 359.269 692.678 353.982 691.67L350.496 688.152C339.203 688.45 302.629 667.109 291.022 666.705C289.184 665.13 283.381 658.299 281.57 656.212L264.06 635.979C244.425 613.48 224.956 590.836 205.655 568.049C202.239 564.541 197.715 558.792 194.411 554.872L173.182 529.59C168.792 524.856 162.87 517.37 158.637 512.273L126.06 472.616C101.246 442.662 75.45 412.759 50.982 382.664L19.3192 343.857C15.2673 338.91 4.52311 324.274 0 321.431L0 317.869C4.92751 314.183 9.83219 308.842 14.3106 304.488L44.6022 274.678L165.051 155.96L189.765 131.256C193.83 127.201 203.125 117.594 207.655 114.829Z"/><path fill="#131313" d="M301.79 384.884L353.896 384.974C362.22 384.975 374.773 385.369 382.564 384.833L383.064 385.001C383.92 390.655 387.169 398.746 388.321 404.54L388.521 404.995C393.084 421.676 399.746 434.222 408.617 449.01L409.57 449.357C419.105 449.818 434.867 451.157 443.912 451.026L444.175 451.325C449.912 451.505 455.647 451.74 461.38 452.029L461.515 460.028C461.31 479.15 464.449 504.497 465.126 524.291L465.456 524.951C465.631 532.003 466.159 539.306 466.619 546.367C461.756 545.449 456.971 544.159 452.306 542.509C450.549 535.474 448.763 523.831 446.698 517.84L445.738 517.563C444.361 517.304 443.672 517.632 442.348 518.295C416.522 531.239 389.858 542.588 364.076 555.52C363.922 555.628 363.768 555.736 363.614 555.843L363.263 555.494C351.652 560.888 339.216 565.909 328.027 571.158C323.12 563.222 317.169 551.592 312.524 543.21C304.641 529.033 296.637 514.924 288.514 500.884L252.724 437.67C246.639 426.912 239.492 415.004 233.833 404.158L260.863 404.108C261.031 398.33 261.936 390.755 262.517 384.931C274.712 384.937 289.843 385.377 301.79 384.884Z"/><path fill="#E68C2E" d="M305.523 443.606C316.464 444.509 328.285 444.798 339.38 445.41C362.452 446.737 385.532 447.937 408.617 449.01L409.57 449.357C419.105 449.818 434.867 451.157 443.912 451.026L444.175 451.325C449.912 451.505 455.647 451.74 461.38 452.029L461.515 460.028C461.31 479.15 464.449 504.497 465.126 524.291L465.456 524.951C465.631 532.003 466.159 539.306 466.619 546.367C461.756 545.449 456.971 544.159 452.306 542.509C450.549 535.474 448.763 523.831 446.698 517.84L445.738 517.563C444.361 517.304 443.672 517.632 442.348 518.295C416.522 531.239 389.858 542.588 364.076 555.52C363.922 555.628 363.768 555.736 363.614 555.843L363.263 555.494L328.106 486.972C322.132 475.409 315.72 464.32 310.156 452.471C309.004 450.741 306.584 445.685 305.523 443.606Z"/><path fill="#F7AF33" d="M310.156 452.471C310.598 452.389 311.039 452.308 311.481 452.226C348.738 468.946 385.28 487.798 422.252 505.062C426.831 507.201 443.65 515.68 446.059 515.654L446.33 515.607C446.608 516.016 446.886 516.426 447.163 516.836C452.137 518.737 460.254 522.675 465.126 524.291L465.456 524.951C465.631 532.003 466.159 539.306 466.619 546.367C461.756 545.449 456.971 544.159 452.306 542.509C450.549 535.474 448.763 523.831 446.698 517.84L445.738 517.563C444.361 517.304 443.672 517.632 442.348 518.295C416.522 531.239 389.858 542.588 364.076 555.52C363.922 555.628 363.768 555.736 363.614 555.843L363.263 555.494L328.106 486.972C322.132 475.409 315.72 464.32 310.156 452.471Z"/><defs><linearGradient id="gradient_1" gradientUnits="userSpaceOnUse" x1="435.09283" y1="477.90805" x2="475.19745" y2="492.7565"><stop offset="0" stop-color="#F6B132"/><stop offset="1" stop-color="#FFDF40"/></linearGradient></defs><path fill="url(#gradient_1)" d="M444.175 451.325C449.912 451.505 455.647 451.74 461.38 452.029L461.515 460.028C461.31 479.15 464.449 504.497 465.126 524.291C460.254 522.675 452.137 518.737 447.163 516.836C446.886 516.426 446.608 516.016 446.33 515.607C447.951 510.84 445.762 503.424 445.748 498.268C445.718 487.615 442.483 460.214 444.175 451.325Z"/><path fill="#F5A430" d="M409.57 449.357C419.105 449.818 434.867 451.157 443.912 451.026L444.175 451.325C442.483 460.214 445.718 487.615 445.748 498.268C445.762 503.424 447.951 510.84 446.33 515.607L446.059 515.654C445.341 513.14 440.021 505.207 438.445 502.285C432.378 491.035 425.865 479.594 419.717 468.445C417.984 465.303 410.373 451.953 409.57 449.357Z"/><path fill="#F5A430" d="M301.79 384.884L353.896 384.974C362.22 384.975 374.773 385.369 382.564 384.833L383.064 385.001C383.92 390.655 387.169 398.746 388.321 404.54L260.863 404.108C261.031 398.33 261.936 390.755 262.517 384.931C274.712 384.937 289.843 385.377 301.79 384.884Z"/><path fill="#60472A" d="M362.325 264.793C393.514 294.904 424.921 324.789 456.543 354.445L475.74 372.489C476.816 373.49 482.08 378.498 483.105 379.141C485.321 381.504 486.776 382.827 489.229 384.943L426.273 384.985C415.203 385.002 402.144 385.338 391.242 384.922L383.064 385.001L382.564 384.833C374.773 385.369 362.22 384.975 353.896 384.974L301.79 384.884C298.545 383.978 269.163 384.355 262.878 384.34C264.107 377.379 270.076 324.544 269.136 318.971L270.489 316.45C273.196 310.803 277.622 304.032 280.627 298.266C281.788 298.775 282.731 299.213 283.939 299.622C288.459 301.235 310.253 308.38 312.442 310.587C315.654 305.618 324.393 285.749 327.065 279.775L338.919 291.806C342.673 288.313 360.339 268.615 362.325 264.793Z"/><path fill="#131313" d="M280.627 298.266C281.788 298.775 282.731 299.213 283.939 299.622C288.459 301.235 310.253 308.38 312.442 310.587L302.637 332.354C298.531 340.241 294.265 348.621 290.758 356.805C295.149 357.493 311.2 357.042 316.246 357.086C336.031 357.26 356.042 356.772 375.824 357.046C376.718 363.611 380.774 377.82 382.564 384.833C374.773 385.369 362.22 384.975 353.896 384.974L301.79 384.884C298.545 383.978 269.163 384.355 262.878 384.34C264.107 377.379 270.076 324.544 269.136 318.971L270.489 316.45C273.196 310.803 277.622 304.032 280.627 298.266Z"/><path fill="#3B2D20" d="M280.627 298.266C281.788 298.775 282.731 299.213 283.939 299.622C283.143 301.368 283.656 318.332 283.615 321.34C279.598 319.671 275.521 318.151 271.392 316.782C271.091 316.671 270.79 316.561 270.489 316.45C273.196 310.803 277.622 304.032 280.627 298.266Z"/><path fill="#F5A430" d="M327.065 279.775L338.919 291.806C350.92 303.439 363.181 314.773 374.932 326.659C376.526 328.271 378.87 330.835 380.598 332.134C388.946 340.347 397.388 348.463 405.924 356.481C392.211 356.582 378.496 356.583 364.783 356.482C361.104 353.08 311.667 336.165 302.637 332.354L312.442 310.587C315.654 305.618 324.393 285.749 327.065 279.775Z"/><path fill="#3B2D20" d="M380.598 332.134C385.491 331.644 431.431 348.692 440.86 351.574C441.031 362.58 441.11 373.586 441.098 384.593C430.12 384.436 419.141 384.396 408.163 384.471C404.285 384.488 394.789 384.395 391.242 384.922L383.064 385.001L382.564 384.833C380.774 377.82 376.718 363.611 375.824 357.046C356.042 356.772 336.031 357.26 316.246 357.086C311.2 357.042 295.149 357.493 290.758 356.805C294.265 348.621 298.531 340.241 302.637 332.354C311.667 336.165 361.104 353.08 364.783 356.482C378.496 356.583 392.211 356.582 405.924 356.481C397.388 348.463 388.946 340.347 380.598 332.134Z"/><path fill="#E68C2E" d="M290.758 356.805C294.265 348.621 298.531 340.241 302.637 332.354C311.667 336.165 361.104 353.08 364.783 356.482L316.003 356.508C308.893 356.506 297.462 356.19 290.758 356.805Z"/><path fill="#3B2D20" d="M131.093 421.713C121.512 411.499 111.496 401.26 102.278 390.803C106.981 392.184 116.852 396.589 121.807 398.646L157.286 413.306C159.38 411.423 159.885 411.071 162.353 409.712C170.207 408.982 205.347 410.36 209.908 408.888C216.019 418.956 221.982 429.813 227.932 440.063L263.945 502.095C273.581 518.775 285.306 537.007 294.234 553.733C291.487 558.102 289.125 563.833 286.605 568.575L283.662 573.918C281.946 576.868 278.676 582.76 277.792 585.861C276.076 587.345 273.9 592.083 273.228 594.257C272.51 593.217 272.585 593.417 272.097 592.262L271.974 593.993C271.567 596.982 268.314 594.029 265.564 593.238C264.598 592.544 263.901 591.577 262.95 590.871C261.983 589.778 260.993 588.72 260.022 587.631C255.982 583.991 251.996 579.768 248.171 575.864L112.358 430.346C117.9 427.802 126.385 425.384 131.093 421.713Z"/><path fill="#F7AF33" d="M131.093 421.713C121.512 411.499 111.496 401.26 102.278 390.803C106.981 392.184 116.852 396.589 121.807 398.646L157.286 413.306C165.11 416.678 178.352 422.85 185.929 425.375C200.249 448.143 214.561 475.964 228.036 499.903C236.798 515.155 245.342 530.533 253.663 546.03C256.988 552.087 261.829 559.87 264.635 565.898C257.827 558.273 250.717 550.999 243.805 543.475C206.386 502.746 168.1 462.831 131.093 421.713Z"/><path fill="#60472A" d="M260.022 587.631C263.988 588.474 269.314 590.927 271.974 593.993C271.567 596.982 268.314 594.029 265.564 593.238C264.598 592.544 263.901 591.577 262.95 590.871C261.983 589.778 260.993 588.72 260.022 587.631Z"/><path fill="#4B3925" d="M492.679 260.414C496.786 255.56 503.611 249.052 508.625 245.412C511.495 249.69 517.069 256.771 519.17 260.815L519.387 260.938C523.752 274.646 550.307 279.842 561.732 288.146L562.187 287.969C568.761 291.207 587.779 300.73 594.18 302.579C571.209 325.959 545.512 347.855 521.96 370.776C518.669 373.979 514.846 377.506 511.323 380.451C510.188 378.997 508.135 377.286 506.712 376.007C504.153 372.839 492.231 362.274 488.841 358.953C472.822 343.266 454.945 328.321 438.864 312.879L438.843 311.63C439.863 310.692 439.875 310.79 440.262 309.48C443.786 304.559 459.675 292.226 462.003 288.291C451.584 278.948 440.723 270.078 430.104 260.983L438.629 260.784C440.468 259.816 486.573 260.473 492.679 260.414Z"/><path fill="#F5A430" d="M492.679 260.414C496.786 255.56 503.611 249.052 508.625 245.412C511.495 249.69 517.069 256.771 519.17 260.815L519.387 260.938C523.752 274.646 550.307 279.842 561.732 288.146C545.225 302.573 528.548 316.803 511.706 330.836C509.88 329.114 507.966 327.461 506.033 325.861C491.181 313.558 476.865 300.57 462.003 288.291C451.584 278.948 440.723 270.078 430.104 260.983L438.629 260.784C440.468 259.816 486.573 260.473 492.679 260.414Z"/><path fill="#3B2D20" d="M492.679 260.414C496.786 255.56 503.611 249.052 508.625 245.412C511.495 249.69 517.069 256.771 519.17 260.815C492.324 261.055 465.475 261.045 438.629 260.784C440.468 259.816 486.573 260.473 492.679 260.414Z"/><path fill="#251F1A" d="M145.639 280.663C157.554 275.903 173.005 271.074 185.491 266.618C187.752 268.325 198.356 271.388 201.91 272.546L239.646 285.042C243.69 286.377 257.609 290.863 260.812 292.518C243.154 322.705 223.737 353.087 206.768 383.46C193.073 378.643 169.577 370.507 156.652 364.827C157.256 364.266 157.333 364.4 157.248 363.561C154.498 336.179 149.269 308.926 146.401 281.498C146.147 281.22 145.893 280.941 145.639 280.663Z"/><path fill="#251F1A" d="M205.655 568.049C217.963 572.906 230.223 577.885 242.434 582.984C248.29 585.454 255.794 588.684 261.815 591.142C262.193 591.051 262.572 590.961 262.95 590.871C263.901 591.577 264.598 592.544 265.564 593.238C268.314 594.029 271.567 596.982 271.974 593.993L272.097 592.262C272.585 593.417 272.51 593.217 273.228 594.257C273.9 592.083 276.076 587.345 277.792 585.861C276.766 589.509 273.71 593.23 274.465 595.356L273.402 596.179C275.082 598.413 329.541 624.855 336.841 627.971L338.691 630.346C343.104 632.405 363.88 643.869 367.042 643.199C367.153 643.175 367.252 643.113 367.357 643.071L368.674 645.101C379.79 666.48 392.151 688.228 403.69 709.434C398.033 707.885 385.329 701.834 380.094 701.671C379.676 701.086 379.361 700.446 378.894 699.896C374.686 700.162 359.269 692.678 353.982 691.67L350.496 688.152C339.203 688.45 302.629 667.109 291.022 666.705C289.184 665.13 283.381 658.299 281.57 656.212L264.06 635.979C244.425 613.48 224.956 590.836 205.655 568.049Z"/><path fill="#E68C2E" d="M205.655 568.049C217.963 572.906 230.223 577.885 242.434 582.984C248.29 585.454 255.794 588.684 261.815 591.142C262.193 591.051 262.572 590.961 262.95 590.871C263.901 591.577 264.598 592.544 265.564 593.238L308.425 640.965C322.336 656.794 336.36 672.524 350.496 688.152C339.203 688.45 302.629 667.109 291.022 666.705C289.184 665.13 283.381 658.299 281.57 656.212L264.06 635.979C244.425 613.48 224.956 590.836 205.655 568.049Z"/><path fill="#F7AF33" d="M338.691 630.346C343.104 632.405 363.88 643.869 367.042 643.199C367.153 643.175 367.252 643.113 367.357 643.071L368.674 645.101C379.79 666.48 392.151 688.228 403.69 709.434C398.033 707.885 385.329 701.834 380.094 701.671C379.676 701.086 379.361 700.446 378.894 699.896C375.669 693.105 368.877 682.31 364.879 675.502C356.027 660.521 347.298 645.469 338.691 630.346Z"/><path fill="#131313" d="M10.2909 322.871C14.6635 324.47 19.3727 326.084 23.6638 327.867C68.7186 346.594 114.728 363.48 159.811 382.087C160.536 385.934 163.506 407.179 162.353 409.712C159.885 411.071 159.38 411.423 157.286 413.306L121.807 398.646C116.852 396.589 106.981 392.184 102.278 390.803C111.496 401.26 121.512 411.499 131.093 421.713C126.385 425.384 117.9 427.802 112.358 430.346C91.9903 408.335 71.4458 386.488 50.7264 364.807C40.0507 353.469 21.4486 332.693 10.2909 322.871Z"/><path fill="#131313" d="M34.1901 320.075C71.2381 306.652 108.389 293.515 145.639 280.663C145.893 280.941 146.147 281.22 146.401 281.498C149.269 308.926 154.498 336.179 157.248 363.561C157.333 364.4 157.256 364.266 156.652 364.827C150.1 362.347 143.521 359.901 136.905 357.595C102.542 345.616 68.705 331.562 34.1901 320.075Z"/><path fill="#251F1A" d="M337.725 202.795L439.989 151.259C441.683 153.005 445.27 154.041 447.555 155.298C454.715 159.235 461.533 162.739 468.117 167.61C466.757 169.04 446.724 179.329 443.055 181.773L442.926 182.387C460.478 182.689 479.597 182.564 497.195 182.399C498.956 185.389 528.483 204.281 530.917 204.819C521.281 204.96 511.372 204.756 501.714 204.737L338.992 205.047L337.725 202.795Z"/><path fill="#251F1A" d="M501.714 204.737C511.372 204.756 521.281 204.96 530.917 204.819L531.32 204.957C536.427 210.435 546.107 214.949 551.685 221.083L545.366 221.161C543.869 222.104 510.593 221.708 506.354 221.706C506.828 226.402 507.578 242.335 508.625 245.412C503.611 249.052 496.786 255.56 492.679 260.414C486.573 260.473 440.468 259.816 438.629 260.784L430.104 260.983L428.774 260.333C427.093 257.042 422.113 227.394 421.003 221.687C426.486 221.701 435.373 221.941 440.536 221.421C446.407 221.003 457.118 221.39 463.348 221.38L506.278 221.151C506.11 217.715 506.719 208.215 506.224 205.497C505.741 205.103 502.801 204.99 501.714 204.737Z"/><path fill="#F7AF33" d="M501.714 204.737C511.372 204.756 521.281 204.96 530.917 204.819L531.32 204.957C536.427 210.435 546.107 214.949 551.685 221.083L545.366 221.161C534.462 220.613 517.584 221.079 506.278 221.151C506.11 217.715 506.719 208.215 506.224 205.497C505.741 205.103 502.801 204.99 501.714 204.737Z"/><path fill="#4B3925" d="M404.861 221.162C410.128 221.226 415.395 221.236 420.662 221.192C426.595 221.189 434.831 220.977 440.536 221.421C435.373 221.941 426.486 221.701 421.003 221.687C422.113 227.394 427.093 257.042 428.774 260.333L430.104 260.983C440.723 270.078 451.584 278.948 462.003 288.291C459.675 292.226 443.786 304.559 440.262 309.48C439.875 310.79 439.863 310.692 438.843 311.63L438.864 312.879C431.256 306.472 421.65 296.877 414.287 289.899L374.826 252.514C383.285 242.284 394.481 232.062 403.396 221.75C401.419 221.755 395.501 222.062 394.136 221.157C397.711 221.132 401.286 221.134 404.861 221.162Z"/><path fill="#3B2D20" d="M428.774 260.333L430.104 260.983C440.723 270.078 451.584 278.948 462.003 288.291C459.675 292.226 443.786 304.559 440.262 309.48C438.866 310.123 438.19 311.364 437.994 309.014C437.645 305.769 436.827 302.44 436.1 299.242C434.42 291.857 433.199 284.441 431.862 277.005C430.849 271.368 429.326 266.132 428.774 260.333Z"/><path fill="#4B3925" d="M321.231 226.072C335.725 239.013 348.384 251.342 362.325 264.793C360.339 268.615 342.673 288.313 338.919 291.806L327.065 279.775C324.393 285.749 315.654 305.618 312.442 310.587C310.253 308.38 288.459 301.235 283.939 299.622C282.731 299.213 281.788 298.775 280.627 298.266L280.747 297.73C283.233 294.541 287.763 285.888 289.887 282.041C300.627 264.617 310.892 244.185 321.231 226.072Z"/><path fill="#3B2D20" d="M288.859 229.688C291.937 230.156 292.031 228.954 294.979 228.403C299.21 227.612 295.8 230.566 295.91 231.426C296.072 231.63 296.208 231.562 296.548 231.604L294.772 234.828C283.834 253.625 272.695 273.336 261.485 291.864L260.812 292.518C257.609 290.863 243.69 286.377 239.646 285.042L201.91 272.546C198.356 271.388 187.752 268.325 185.491 266.618C215.361 256.711 244.839 245.128 274.599 234.847C279.308 233.22 284.017 230.936 288.859 229.688Z"/><path fill="#4B3925" d="M277.792 585.861C278.676 582.76 281.946 576.868 283.662 573.918L286.605 568.575C289.125 563.833 291.487 558.102 294.234 553.733L294.741 554.599C299.396 562.388 304.791 571.438 309.084 579.413C317.399 593.701 329.614 613.537 336.841 627.971C329.541 624.855 275.082 598.413 273.402 596.179L274.465 595.356C273.71 593.23 276.766 589.509 277.792 585.861Z"/><path fill="#131313" d="M277.792 585.861C278.676 582.76 281.946 576.868 283.662 573.918L286.605 568.575C289.125 563.833 291.487 558.102 294.234 553.733L294.741 554.599C299.396 562.388 304.791 571.438 309.084 579.413C306.084 581.495 301.23 583.209 297.897 584.828C290.256 588.54 282.098 591.763 274.465 595.356C273.71 593.23 276.766 589.509 277.792 585.861Z"/><path fill="#251F1A" d="M269.136 318.971C270.076 324.544 264.107 377.379 262.878 384.34C269.163 384.355 298.545 383.978 301.79 384.884C289.843 385.377 274.712 384.937 262.517 384.931L232.034 384.866C243.82 363.376 256.918 340.302 269.136 318.971Z"/><path fill="#FDCA39" d="M173.182 529.59C176.51 528.971 200.41 545.119 204.371 547.834L233.255 567.65C237.779 570.711 242.848 575.536 248.171 575.864C251.996 579.768 255.982 583.991 260.022 587.631C260.993 588.72 261.983 589.778 262.95 590.871C262.572 590.961 262.193 591.051 261.815 591.142C255.794 588.684 248.29 585.454 242.434 582.984C230.223 577.885 217.963 572.906 205.655 568.049C202.239 564.541 197.715 558.792 194.411 554.872L173.182 529.59Z"/><path fill="#3B2D20" d="M340.926 221.039L394.136 221.157C395.501 222.062 401.419 221.755 403.396 221.75C394.481 232.062 383.285 242.284 374.826 252.514C364.543 242.278 351.703 231.173 340.926 221.039Z"/><path fill="#F7AF33" d="M261.485 291.864C272.695 273.336 283.834 253.625 294.772 234.828L300.404 236.398C298.368 244.274 289.529 276.167 289.887 282.041C287.763 285.888 283.233 294.541 280.747 297.73C277.063 297.26 264.04 294.43 261.485 291.864Z"/><path fill="#251F1A" d="M159.811 382.087C170.854 385.684 194.344 395.209 204.804 399.876C206.471 402.922 208.263 405.839 209.908 408.888C205.347 410.36 170.207 408.982 162.353 409.712C163.506 407.179 160.536 385.934 159.811 382.087Z"/><path fill="#F7AF33" d="M418.39 205.805C419.4 211.135 419.93 215.852 420.662 221.192C415.395 221.236 410.128 221.226 404.861 221.162C406.971 217.788 415.308 209.177 418.39 205.805Z"/><path fill="#2D150F" d="M288.859 229.688L290.475 228.949C293.25 227.705 297.104 226.61 300.044 225.517C298.873 227.592 297.916 229.439 296.624 231.482L296.548 231.604C296.208 231.562 296.072 231.63 295.91 231.426C295.8 230.566 299.21 227.612 294.979 228.403C292.031 228.954 291.937 230.156 288.859 229.688Z"/><path fill="#2D150F" d="M338.992 205.047C334.201 205.055 332.811 205.253 337.725 202.795L338.992 205.047Z"/><path fill="#F7AF33" d="M206.954 122.328C229.423 143.366 254.876 162.991 277.965 183.297C279.819 184.74 281.407 185.919 283.095 187.571C290.034 192.923 297.5 199.401 304.491 205.002C298.279 207.993 291.604 209.903 285.214 212.467C276.997 215.483 268.808 218.574 260.648 221.739C233.583 231.434 206.96 242.414 179.907 252.175C173.928 254.332 168.182 256.854 162.127 258.912C156.171 261.084 148.839 263.664 143.098 266.149C132.177 270.07 121.492 274.551 110.635 278.638L13.1479 316.084C20.5201 309.607 27.8675 302.28 35.0059 295.49C55.0281 276.356 74.755 256.916 94.1796 237.176C107.097 224.303 121.205 209.42 134.351 197.074C137.547 193.431 146.867 184.313 150.48 180.819C156.695 174.636 163.165 167.841 169.383 161.827L192.99 137.404C197.181 133.06 203.409 126.948 206.954 122.328Z"/><path fill="#F5A430" d="M206.954 122.328C229.423 143.366 254.876 162.991 277.965 183.297C279.819 184.74 281.407 185.919 283.095 187.571C290.034 192.923 297.5 199.401 304.491 205.002C298.279 207.993 291.604 209.903 285.214 212.467C276.997 215.483 268.808 218.574 260.648 221.739C254.616 218.144 234.759 213.081 229.502 208.834L227.147 209.83C225.246 207.916 202.171 200.378 197.372 198.719C192.294 196.964 178.172 191.029 174.007 190.367L174.008 190.133C169.623 188.516 153.624 182.943 150.48 180.819C156.695 174.636 163.165 167.841 169.383 161.827L192.99 137.404C197.181 133.06 203.409 126.948 206.954 122.328Z"/><path fill="#251F1A" d="M206.954 122.328C229.423 143.366 254.876 162.991 277.965 183.297C276.389 185.169 271.819 183.592 269.598 183.133C249.412 178.962 229.192 175.168 209.069 170.684C207.762 170.392 206.169 170.619 204.87 170.889C203.094 169.971 199.534 167.689 197.921 167.934C193.5 167.832 182.879 165.139 177.993 164.076L175.742 163.641C173.716 163.241 171.232 162.72 169.383 161.827L192.99 137.404C197.181 133.06 203.409 126.948 206.954 122.328Z"/><path fill="#3B2D20" d="M204.87 170.889C206.169 170.619 207.762 170.392 209.069 170.684C229.192 175.168 249.412 178.962 269.598 183.133C271.819 183.592 276.389 185.169 277.965 183.297C279.819 184.74 281.407 185.919 283.095 187.571C290.034 192.923 297.5 199.401 304.491 205.002C298.279 207.993 291.604 209.903 285.214 212.467C276.997 215.483 268.808 218.574 260.648 221.739C254.616 218.144 234.759 213.081 229.502 208.834C237.662 205.4 245.777 201.861 253.846 198.218C238.124 188.803 220.423 180.797 204.87 170.889Z"/><path fill="#251F1A" d="M285.214 212.467C284.289 209.402 281.623 189.46 283.095 187.571C290.034 192.923 297.5 199.401 304.491 205.002C298.279 207.993 291.604 209.903 285.214 212.467Z"/><path fill="#3B2D20" d="M150.48 180.819C156.695 174.636 163.165 167.841 169.383 161.827C171.232 162.72 173.716 163.241 175.742 163.641L177.993 164.076C182.879 165.139 193.5 167.832 197.921 167.934C190.374 174.783 181.661 183.846 174.008 190.133C169.623 188.516 153.624 182.943 150.48 180.819Z"/><path fill="#131313" d="M94.1796 237.176C97.3391 237.764 113.751 242.537 115.547 244.16C110.345 249.057 105.067 253.873 99.7143 258.606L101.237 259.564C107.105 256.481 123.259 250.76 130.011 248.15C133.337 246.905 137.099 245.661 140.302 244.206C141.251 246.731 141.397 249.432 141.556 252.126C142.344 256.646 142.842 261.569 143.098 266.149C132.177 270.07 121.492 274.551 110.635 278.638L13.1479 316.084C20.5201 309.607 27.8675 302.28 35.0059 295.49C55.0281 276.356 74.755 256.916 94.1796 237.176Z"/><path fill="#251F1A" d="M140.302 244.206C141.251 246.731 141.397 249.432 141.556 252.126C137.493 250.635 133.966 250.125 130.011 248.15C133.337 246.905 137.099 245.661 140.302 244.206Z"/><path fill="#E68C2E" d="M99.7143 258.606L101.237 259.564C98.6834 260.589 95.7831 262.09 99.7143 258.606Z"/><path fill="#60472A" d="M229.502 208.834C234.759 213.081 254.616 218.144 260.648 221.739C233.583 231.434 206.96 242.414 179.907 252.175C173.928 254.332 168.182 256.854 162.127 258.912C156.171 261.084 148.839 263.664 143.098 266.149C142.842 261.569 142.344 256.646 141.556 252.126C141.397 249.432 141.251 246.731 140.302 244.206C151.519 239.969 162.765 234.968 174.007 230.58C191.739 223.659 209.527 217.024 227.147 209.83L229.502 208.834Z"/><path fill="#251F1A" d="M141.556 252.126L142.407 252.339C144.507 252.801 160.744 258.134 162.127 258.912C156.171 261.084 148.839 263.664 143.098 266.149C142.842 261.569 142.344 256.646 141.556 252.126Z"/><path fill="#3B2D20" d="M134.351 197.074C136.244 201.214 136.76 217.738 137.962 223.831C133.008 228.618 120.791 240.027 115.547 244.16C113.751 242.537 97.3391 237.764 94.1796 237.176C107.097 224.303 121.205 209.42 134.351 197.074Z"/><path fill="#4B3925" d="M150.48 180.819C153.624 182.943 169.623 188.516 174.008 190.133L174.007 190.367C163.263 199.238 148.4 213.909 137.962 223.831C136.76 217.738 136.244 201.214 134.351 197.074C137.547 193.431 146.867 184.313 150.48 180.819Z"/><path fill="#3B2D20" d="M221.169 122.443C240.518 122.932 261.194 122.584 280.67 122.617L392.398 122.487L457.002 122.538C465.755 122.566 481.809 123.349 489.83 122.388C471.379 130.419 453.039 138.7 434.814 147.23L369.019 177.543C352.978 185.054 338.027 192.37 321.602 199.053C298.673 182.374 276.451 164.269 253.759 147.228C243.053 139.187 232.555 129.429 221.169 122.443Z"/><path fill="#F5A430" d="M407.801 131.965L409.609 132.175C405.833 134.534 391.378 140.717 386.889 142.734L336.498 165.058C327.15 161.326 312.79 153.866 303.642 149.28C293.673 144.283 279.214 137.567 269.774 131.971L407.801 131.965Z"/><path fill="#131313" d="M392.398 122.487L457.002 122.538C465.755 122.566 481.809 123.349 489.83 122.388C471.379 130.419 453.039 138.7 434.814 147.23C430.207 144.203 411.657 135.77 409.609 132.175L407.801 131.965C405.149 131.374 393.556 125.019 390.853 123.366L392.398 122.487Z"/><path fill="#F5A430" d="M483.105 379.141L483.598 378.964C485.273 379.287 487.189 381.795 488.568 383.226C489.954 380.715 489.096 375.655 491.842 372.085C495.298 370.685 506.009 379.49 510.901 381.202C509.312 379.547 507.216 378.04 506.712 376.007C508.135 377.286 510.188 378.997 511.323 380.451C512.252 384.273 541.108 400.49 546.058 404.37C543.789 404.388 529.222 404.246 528.102 404.723C525.54 404.872 525.672 404.43 524.142 405.749C523.039 409.155 523.707 413.021 523.872 416.811C542.348 424.74 560.11 433.093 578.428 441.161C584 443.61 589.585 446.03 595.182 448.421C597.174 449.268 601.997 451.075 603.528 451.973C609.648 451.921 620.907 451.833 626.68 451.056L630.084 450.983C631.046 446 633.757 438.084 635.366 433.111C638.413 423.544 641.6 414.021 644.928 404.548C647.196 399.044 649.063 390.843 650.88 384.944L711.588 385.007C721.426 385.008 735.006 385.412 744.573 384.927L751.706 385.074C754.587 385.571 790.414 401.11 791.494 402.6C791.586 402.727 791.649 402.872 791.727 403.009C792.62 403.107 793.935 403.17 794.721 403.468C797.464 403.911 810.545 410.527 813.915 412.19L726.208 562.179L700.585 605.397C697.66 610.345 690.974 621.01 688.851 625.789C696.289 628.974 713.427 635.759 719.806 639.218L719.637 639.679C724.235 640.85 740.394 647.966 745.091 650.255C726.02 673.517 705.996 695.431 686.508 718.251C680.831 724.637 675.519 731.265 669.763 737.536C668.507 738.905 664.675 743.549 663.416 744.611C653.564 755.687 643.839 766.877 634.243 778.176C624.306 789.645 613.771 801.455 604.108 813.089C596.073 821.42 588.027 832.298 580.033 840.865C578.199 842.83 574.452 847.637 572.889 849.116C566.605 856.793 558.75 865.113 552.818 872.722L552.148 872.581C549.89 872.123 535.198 867.581 534.092 866.419L533.796 866.749C531.243 865.662 520.018 862.548 517.514 862.347L517.421 862.083C517.643 856.354 518.48 840.119 518.076 835.073C517.722 832.32 517.802 831.203 517.8 828.389C514.295 827.041 510.967 825.517 507.38 824.466L507.195 823.1C506.812 806.652 506.571 790.2 506.474 773.748L506.157 773.13C500.837 772.089 485.521 762.737 478.413 761.179C477.593 752.445 477.014 742.338 476.442 733.501C473.325 733.498 471.217 733.222 468.748 733.084C462.876 732.754 460.128 729.674 456.127 729.484L454.472 726.858C453.529 727.3 452.951 727.604 451.83 727.157C436.156 720.895 420.742 715.15 404.426 710.678L403.69 709.434C392.151 688.228 379.79 666.48 368.674 645.101L367.357 643.071C356.548 620.991 340.136 593.421 328.027 571.158C339.216 565.909 351.652 560.888 363.263 555.494L363.614 555.843C363.768 555.736 363.922 555.628 364.076 555.52C389.858 542.588 416.522 531.239 442.348 518.295C443.672 517.632 444.361 517.304 445.738 517.563L446.698 517.84C448.763 523.831 450.549 535.474 452.306 542.509C456.971 544.159 461.756 545.449 466.619 546.367C466.159 539.306 465.631 532.003 465.456 524.951L465.126 524.291C464.449 504.497 461.31 479.15 461.515 460.028L461.38 452.029C455.647 451.74 449.912 451.505 444.175 451.325L443.912 451.026C434.867 451.157 419.105 449.818 409.57 449.357L408.617 449.01C399.746 434.222 393.084 421.676 388.521 404.995L388.321 404.54C387.169 398.746 383.92 390.655 383.064 385.001L391.242 384.922C402.144 385.338 415.203 385.002 426.273 384.985L489.229 384.943C486.776 382.827 485.321 381.504 483.105 379.141Z"/><path fill="#3B2D20" d="M363.614 555.843C363.768 555.736 363.922 555.628 364.076 555.52C389.858 542.588 416.522 531.239 442.348 518.295C443.672 517.632 444.361 517.304 445.738 517.563L446.698 517.84C448.763 523.831 450.549 535.474 452.306 542.509C456.971 544.159 461.756 545.449 466.619 546.367C467.914 563.2 469.328 584.398 469.642 601.136C469.756 602.299 469.893 603.494 469.965 604.657C474.407 607.611 499.531 621.765 503.959 623.508L504.034 623.862C508.561 626.984 517.776 629.157 521.944 632.149L522.044 632.685C525.73 633.821 533.733 637.53 537.505 639.274C542.494 641.582 548.939 644.08 553.712 646.427L552.38 669.68C554.845 671.374 562.873 676.191 565.621 676.952C573.13 680.011 583.982 687.259 590.851 689.591C605.933 661.266 621.648 633.016 636.444 604.571L636.763 604.116C643.663 607.614 663.379 615.648 670.631 618.17L670.622 618.473C673.364 619.23 686.759 624.671 688.393 626.179L688.851 625.789C696.289 628.974 713.427 635.759 719.806 639.218L719.637 639.679C724.235 640.85 740.394 647.966 745.091 650.255C726.02 673.517 705.996 695.431 686.508 718.251C680.831 724.637 675.519 731.265 669.763 737.536C668.507 738.905 664.675 743.549 663.416 744.611C653.564 755.687 643.839 766.877 634.243 778.176C624.306 789.645 613.771 801.455 604.108 813.089C596.073 821.42 588.027 832.298 580.033 840.865C578.199 842.83 574.452 847.637 572.889 849.116C566.605 856.793 558.75 865.113 552.818 872.722L552.148 872.581C549.89 872.123 535.198 867.581 534.092 866.419L533.796 866.749C531.243 865.662 520.018 862.548 517.514 862.347L517.421 862.083C517.643 856.354 518.48 840.119 518.076 835.073C517.722 832.32 517.802 831.203 517.8 828.389C514.295 827.041 510.967 825.517 507.38 824.466L507.195 823.1C506.812 806.652 506.571 790.2 506.474 773.748L506.157 773.13C500.837 772.089 485.521 762.737 478.413 761.179C477.593 752.445 477.014 742.338 476.442 733.501C473.325 733.498 471.217 733.222 468.748 733.084C462.876 732.754 460.128 729.674 456.127 729.484L454.472 726.858C453.529 727.3 452.951 727.604 451.83 727.157C436.156 720.895 420.742 715.15 404.426 710.678L403.69 709.434C392.151 688.228 379.79 666.48 368.674 645.101L367.357 643.071C356.548 620.991 340.136 593.421 328.027 571.158C339.216 565.909 351.652 560.888 363.263 555.494L363.614 555.843Z"/><path fill="#F5A430" d="M363.614 555.843C363.768 555.736 363.922 555.628 364.076 555.52C389.858 542.588 416.522 531.239 442.348 518.295C443.672 517.632 444.361 517.304 445.738 517.563L446.698 517.84C448.763 523.831 450.549 535.474 452.306 542.509C456.971 544.159 461.756 545.449 466.619 546.367C467.914 563.2 469.328 584.398 469.642 601.136C469.756 602.299 469.893 603.494 469.965 604.657C471.381 634.953 473.843 666.618 474.72 696.616L474.972 698.252C484.248 703.685 495.142 708.286 504.781 713.076L505.408 714.123C505.539 720.611 505.581 727.1 505.534 733.589C496.38 732.655 485.109 734.345 476.508 733.177L476.442 733.501C473.325 733.498 471.217 733.222 468.748 733.084C462.876 732.754 460.128 729.674 456.127 729.484L454.472 726.858C453.529 727.3 452.951 727.604 451.83 727.157C436.156 720.895 420.742 715.15 404.426 710.678L403.69 709.434C392.151 688.228 379.79 666.48 368.674 645.101L367.357 643.071C356.548 620.991 340.136 593.421 328.027 571.158C339.216 565.909 351.652 560.888 363.263 555.494L363.614 555.843Z"/><path fill="#251F1A" d="M368.674 645.101C373.841 647.286 380.933 651.164 386.076 653.775C394.22 657.817 402.343 661.901 410.445 666.027C413.031 667.362 423.495 673.048 425.368 673.673L426.214 675.102C431.931 675.227 469.504 698.227 474.22 697.843L474.72 696.616L474.972 698.252C484.248 703.685 495.142 708.286 504.781 713.076L505.408 714.123C505.539 720.611 505.581 727.1 505.534 733.589C496.38 732.655 485.109 734.345 476.508 733.177L476.442 733.501C473.325 733.498 471.217 733.222 468.748 733.084C462.876 732.754 460.128 729.674 456.127 729.484L454.472 726.858C453.529 727.3 452.951 727.604 451.83 727.157C436.156 720.895 420.742 715.15 404.426 710.678L403.69 709.434C392.151 688.228 379.79 666.48 368.674 645.101Z"/><path fill="#E68C2E" d="M426.214 675.102C431.931 675.227 469.504 698.227 474.22 697.843L474.72 696.616L474.972 698.252C484.248 703.685 495.142 708.286 504.781 713.076L505.408 714.123C505.539 720.611 505.581 727.1 505.534 733.589C496.38 732.655 485.109 734.345 476.508 733.177L476.442 733.501C473.325 733.498 471.217 733.222 468.748 733.084C462.876 732.754 460.128 729.674 456.127 729.484L454.472 726.858C445.37 709.38 435.597 692.415 426.214 675.102Z"/><path fill="#251F1A" d="M474.972 698.252C484.248 703.685 495.142 708.286 504.781 713.076L505.408 714.123C505.539 720.611 505.581 727.1 505.534 733.589C496.38 732.655 485.109 734.345 476.508 733.177C475.616 723.948 475.12 707.744 474.972 698.252Z"/><path fill="#4B3925" d="M363.263 555.494L363.614 555.843C374.718 576.709 384.684 597.397 396.206 618.193L416.627 656.922C419.406 662.226 422.896 668.34 425.368 673.673C423.495 673.048 413.031 667.362 410.445 666.027C402.343 661.901 394.22 657.817 386.076 653.775C380.933 651.164 373.841 647.286 368.674 645.101L367.357 643.071C356.548 620.991 340.136 593.421 328.027 571.158C339.216 565.909 351.652 560.888 363.263 555.494Z"/><path fill="#FDCA39" d="M363.614 555.843C363.768 555.736 363.922 555.628 364.076 555.52C389.858 542.588 416.522 531.239 442.348 518.295C443.672 517.632 444.361 517.304 445.738 517.563C438.14 535.652 427.298 555.255 418.56 573.308L405.899 599.352C403.571 604.209 399.063 614.192 396.206 618.193C384.684 597.397 374.718 576.709 363.614 555.843Z"/><path fill="#FDCA39" d="M452.306 542.509C456.971 544.159 461.756 545.449 466.619 546.367C467.914 563.2 469.328 584.398 469.642 601.136L469.286 601.636C467.694 600.505 464.016 585.65 463.318 582.788C460.014 569.24 456.176 555.904 452.306 542.509Z"/><path fill="#3B2D20" d="M636.763 604.116C643.663 607.614 663.379 615.648 670.631 618.17L670.622 618.473C673.364 619.23 686.759 624.671 688.393 626.179L688.851 625.789C696.289 628.974 713.427 635.759 719.806 639.218L719.637 639.679C724.235 640.85 740.394 647.966 745.091 650.255C726.02 673.517 705.996 695.431 686.508 718.251C680.831 724.637 675.519 731.265 669.763 737.536C668.507 738.905 664.675 743.549 663.416 744.611C659.813 742.771 644.897 741.633 640.517 741.434L636.524 740.904C633.428 741.114 631.141 740.766 628.067 740.419C625.645 740.445 624.508 740.395 622.094 740.227C625.805 733.669 634.518 717.53 638.438 711.873L638.458 711.594C633.384 709.151 627.488 707.523 622.626 704.953C622.464 705.085 622.576 705.009 622.245 705.182C620.598 702.975 595.067 691.663 590.862 689.914L590.851 689.591C605.933 661.266 621.648 633.016 636.444 604.571L636.763 604.116Z"/><path fill="#F7AF33" d="M719.637 639.679C724.235 640.85 740.394 647.966 745.091 650.255C726.02 673.517 705.996 695.431 686.508 718.251C680.831 724.637 675.519 731.265 669.763 737.536C668.507 738.905 664.675 743.549 663.416 744.611C659.813 742.771 644.897 741.633 640.517 741.434L636.524 740.904C633.428 741.114 631.141 740.766 628.067 740.419C625.645 740.445 624.508 740.395 622.094 740.227C625.805 733.669 634.518 717.53 638.438 711.873C641.261 713.215 647.282 714.666 650.425 715.443C673.665 690.344 696.737 665.089 719.637 639.679Z"/><path fill="#E68C2E" d="M658.098 715.869C666.994 716.523 677.69 717.314 686.508 718.251C680.831 724.637 675.519 731.265 669.763 737.536C668.507 738.905 664.675 743.549 663.416 744.611C659.813 742.771 644.897 741.633 640.517 741.434C640.733 740.64 640.751 740.647 641.216 739.997C646.571 732.512 653.727 723.731 658.098 715.869Z"/><path fill="#131313" d="M638.438 711.873C641.261 713.215 647.282 714.666 650.425 715.443C642.326 723.703 635.792 732.212 628.067 740.419C625.645 740.445 624.508 740.395 622.094 740.227C625.805 733.669 634.518 717.53 638.438 711.873Z"/><path fill="#4B3925" d="M636.763 604.116C643.663 607.614 663.379 615.648 670.631 618.17L670.622 618.473C659.716 638.437 648.664 658.321 637.469 678.124C633.132 685.913 626.269 697.333 622.626 704.953C622.464 705.085 622.576 705.009 622.245 705.182C620.598 702.975 595.067 691.663 590.862 689.914L590.851 689.591C605.933 661.266 621.648 633.016 636.444 604.571L636.763 604.116Z"/><path fill="#F5A430" d="M670.622 618.473C673.364 619.23 686.759 624.671 688.393 626.179C676.226 646.52 664.226 666.961 652.392 687.498C648.17 694.715 642.752 704.84 638.458 711.594C633.384 709.151 627.488 707.523 622.626 704.953C626.269 697.333 633.132 685.913 637.469 678.124C648.664 658.321 659.716 638.437 670.622 618.473Z"/><path fill="#60472A" d="M469.965 604.657C474.407 607.611 499.531 621.765 503.959 623.508L504.034 623.862C508.561 626.984 517.776 629.157 521.944 632.149L522.044 632.685C525.73 633.821 533.733 637.53 537.505 639.274C542.494 641.582 548.939 644.08 553.712 646.427L552.38 669.68C551.35 680.557 549.41 700.235 549.994 710.74C549.12 718.595 548.914 726.744 548.16 734.713C546.767 734.175 545.257 733.734 543.827 733.283C541.122 731.947 522.385 722.114 521.331 721.994C520.806 722.494 521.042 725.423 521.053 726.054L520.593 726.184C520.45 722.274 521.016 720.04 520.884 715.719C520.727 716.433 520.305 720.737 520.198 720.835C519.469 720.963 507.351 714.878 505.408 714.123L504.781 713.076C495.142 708.286 484.248 703.685 474.972 698.252L474.72 696.616C473.843 666.618 471.381 634.953 469.965 604.657Z"/><path fill="#60472A" d="M522.044 632.685C525.73 633.821 533.733 637.53 537.505 639.274C542.494 641.582 548.939 644.08 553.712 646.427L552.38 669.68C551.35 680.557 549.41 700.235 549.994 710.74C549.12 718.595 548.914 726.744 548.16 734.713C546.767 734.175 545.257 733.734 543.827 733.283C541.122 731.947 522.385 722.114 521.331 721.994C520.806 722.494 521.042 725.423 521.053 726.054L520.593 726.184C520.45 722.274 521.016 720.04 520.884 715.719C522.158 689.003 521.201 659.88 522.044 632.685Z"/><path fill="#F5A430" d="M504.034 623.862C508.561 626.984 517.776 629.157 521.944 632.149L522.044 632.685C521.201 659.88 522.158 689.003 520.884 715.719C520.727 716.433 520.305 720.737 520.198 720.835C519.469 720.963 507.351 714.878 505.408 714.123L504.781 713.076C505.199 709.682 504.552 687.799 504.476 683.101C504.126 663.356 503.979 643.609 504.034 623.862Z"/><path fill="#251F1A" d="M506.474 773.748C510.871 774.893 515.315 777.712 519.446 778.622L519.535 778.947C534.404 785.145 555.213 794.566 569.625 801.5L569.854 801.525C571.272 803.174 585.283 808.275 587.949 809.016C590.371 809.43 591.609 810.05 593.994 810.584L595.995 811.018C598.745 811.609 601.294 812.48 604.108 813.089C596.073 821.42 588.027 832.298 580.033 840.865C578.199 842.83 574.452 847.637 572.889 849.116C566.605 856.793 558.75 865.113 552.818 872.722L552.148 872.581C549.89 872.123 535.198 867.581 534.092 866.419L533.796 866.749C531.243 865.662 520.018 862.548 517.514 862.347L517.421 862.083C517.643 856.354 518.48 840.119 518.076 835.073C517.722 832.32 517.802 831.203 517.8 828.389C514.295 827.041 510.967 825.517 507.38 824.466L507.195 823.1C506.812 806.652 506.571 790.2 506.474 773.748Z"/><path fill="#3B2D20" d="M518.359 829.307C524.465 829.956 541.653 837.886 548.415 840.179C554.541 842.833 560.527 845.08 566.688 847.573C569.354 848.279 570.184 848.527 572.889 849.116C566.605 856.793 558.75 865.113 552.818 872.722L552.148 872.581C549.89 872.123 535.198 867.581 534.092 866.419L533.796 866.749C531.243 865.662 520.018 862.548 517.514 862.347L517.421 862.083C517.643 856.354 518.48 840.119 518.076 835.073C518.312 832.995 518.316 831.393 518.359 829.307Z"/><path fill="#F5A430" d="M548.415 840.179C554.541 842.833 560.527 845.08 566.688 847.573C569.354 848.279 570.184 848.527 572.889 849.116C566.605 856.793 558.75 865.113 552.818 872.722L552.148 872.581C549.89 872.123 535.198 867.581 534.092 866.419C538.42 857.661 543.936 848.864 548.415 840.179Z"/><path fill="#E68C2E" d="M569.625 801.5L569.854 801.525C571.272 803.174 585.283 808.275 587.949 809.016C590.371 809.43 591.609 810.05 593.994 810.584L595.995 811.018C598.745 811.609 601.294 812.48 604.108 813.089C596.073 821.42 588.027 832.298 580.033 840.865C578.199 842.83 574.452 847.637 572.889 849.116C570.184 848.527 569.354 848.279 566.688 847.573C560.527 845.08 554.541 842.833 548.415 840.179C555.067 828.571 563.688 813.338 569.625 801.5Z"/><path fill="#F7AF33" d="M587.949 809.016C590.371 809.43 591.609 810.05 593.994 810.584L595.995 811.018C598.745 811.609 601.294 812.48 604.108 813.089C596.073 821.42 588.027 832.298 580.033 840.865C578.199 842.83 574.452 847.637 572.889 849.116C570.184 848.527 569.354 848.279 566.688 847.573C569.059 841.466 573.284 836.383 576.145 830.956C579.117 825.318 586.523 814.455 587.949 809.016Z"/><path fill="#E68C2E" d="M506.474 773.748C510.871 774.893 515.315 777.712 519.446 778.622L519.535 778.947C519.146 795.627 518.551 812.65 518.359 829.307C518.316 831.393 518.312 832.995 518.076 835.073C517.722 832.32 517.802 831.203 517.8 828.389C514.295 827.041 510.967 825.517 507.38 824.466L507.195 823.1C506.812 806.652 506.571 790.2 506.474 773.748Z"/><path fill="#131313" d="M552.38 669.68C554.845 671.374 562.873 676.191 565.621 676.952C573.13 680.011 583.982 687.259 590.851 689.591L590.862 689.914C595.067 691.663 620.598 702.975 622.245 705.182C622.576 705.009 622.464 705.085 622.626 704.953C627.488 707.523 633.384 709.151 638.458 711.594L638.438 711.873C634.518 717.53 625.805 733.669 622.094 740.227L621.778 740.501C617.801 739.369 608.495 738.601 604.119 738.461L604.143 738.157C592.199 737.057 577.831 736.408 566.423 734.969L566.113 735.078C561.405 734.399 552.66 735.045 549.044 733.499C549.487 728.42 551.441 714.988 549.994 710.74C549.41 700.235 551.35 680.557 552.38 669.68Z"/><defs><linearGradient id="gradient_2" gradientUnits="userSpaceOnUse" x1="579.40863" y1="713.8277" x2="541.93207" y2="698.41882"><stop offset="0" stop-color="#DE7B2B"/><stop offset="1" stop-color="#FCB02F"/></linearGradient></defs><path fill="url(#gradient_2)" d="M552.38 669.68C554.845 671.374 562.873 676.191 565.621 676.952C573.13 680.011 583.982 687.259 590.851 689.591L590.862 689.914C583.003 702.849 573.924 721.208 566.423 734.969L566.113 735.078C561.405 734.399 552.66 735.045 549.044 733.499C549.487 728.42 551.441 714.988 549.994 710.74C549.41 700.235 551.35 680.557 552.38 669.68Z"/><path fill="#E68C2E" d="M622.245 705.182C622.576 705.009 622.464 705.085 622.626 704.953C627.488 707.523 633.384 709.151 638.458 711.594L638.438 711.873C634.518 717.53 625.805 733.669 622.094 740.227L621.778 740.501C617.801 739.369 608.495 738.601 604.119 738.461L604.143 738.157C605.686 736.232 608.66 730.171 609.932 727.823L622.245 705.182Z"/><path fill="#F7AF33" d="M604.119 738.461C608.495 738.601 617.801 739.369 621.778 740.501L622.094 740.227C624.508 740.395 625.645 740.445 628.067 740.419C631.141 740.766 633.428 741.114 636.524 740.904L640.517 741.434C644.897 741.633 659.813 742.771 663.416 744.611C653.564 755.687 643.839 766.877 634.243 778.176C624.306 789.645 613.771 801.455 604.108 813.089C601.294 812.48 598.745 811.609 595.995 811.018L593.994 810.584C591.609 810.05 590.371 809.43 587.949 809.016C585.283 808.275 571.272 803.174 569.854 801.525L570.109 800.792C573.808 794.213 577.38 787.561 580.82 780.842C588.645 767.578 596.653 752.135 604.119 738.461Z"/><path fill="#F5A430" d="M636.524 740.904L640.517 741.434C644.897 741.633 659.813 742.771 663.416 744.611C653.564 755.687 643.839 766.877 634.243 778.176C624.306 789.645 613.771 801.455 604.108 813.089C601.294 812.48 598.745 811.609 595.995 811.018L593.994 810.584C591.609 810.05 590.371 809.43 587.949 809.016C585.283 808.275 571.272 803.174 569.854 801.525L570.109 800.792C571.833 802.45 584.85 807.165 587.491 807.696C588.335 806.723 588.998 804.849 589.364 803.586C590.469 799.776 593.904 797.128 596.387 793.89C606.82 780.282 617.986 767.249 628.984 754.108C631.37 751.257 637.195 744.992 638.119 741.791L636.524 740.904Z"/><path fill="#251F1A" d="M622.094 740.227C624.508 740.395 625.645 740.445 628.067 740.419C623.418 745.49 616.29 753.285 612.134 758.573L611.262 758.078C614.748 752.638 618.27 747.106 621.3 741.395L621.778 740.501L622.094 740.227Z"/><path fill="#4B3925" d="M609.823 760.099C610.31 759.43 610.789 758.757 611.262 758.078L612.134 758.573C611.476 759.309 611.114 759.738 610.51 760.514L609.823 760.099Z"/><path fill="#D1782E" d="M609.823 760.099L610.51 760.514C610.216 760.894 609.416 762.231 608.783 762.231C608.392 761.69 609.516 760.509 609.823 760.099Z"/><path fill="#4B3925" d="M566.423 734.969C577.831 736.408 592.199 737.057 604.143 738.157L604.119 738.461C596.653 752.135 588.645 767.578 580.82 780.842C576.976 775.042 563.02 748.538 560.267 746.004C562.016 742.422 564.306 738.792 566.113 735.078L566.423 734.969Z"/><path fill="#3B2D20" d="M505.534 733.589C505.512 738.31 505.384 747.135 505.93 751.533C505.552 757.762 506.313 766.555 506.157 773.13C500.837 772.089 485.521 762.737 478.413 761.179C477.593 752.445 477.014 742.338 476.442 733.501L476.508 733.177C485.109 734.345 496.38 732.655 505.534 733.589Z"/><path fill="#F5A430" d="M505.408 714.123C507.351 714.878 519.469 720.963 520.198 720.835C520.305 720.737 520.727 716.433 520.884 715.719C521.016 720.04 520.45 722.274 520.593 726.184C520.541 728.477 520.522 730.77 520.537 733.062C520.427 748.254 520.064 763.442 519.446 778.622C515.315 777.712 510.871 774.893 506.474 773.748L506.157 773.13C506.313 766.555 505.552 757.762 505.93 751.533C505.384 747.135 505.512 738.31 505.534 733.589C505.581 727.1 505.539 720.611 505.408 714.123Z"/><path fill="#E68C2E" d="M505.408 714.123C507.351 714.878 519.469 720.963 520.198 720.835C520.305 720.737 520.727 716.433 520.884 715.719C521.016 720.04 520.45 722.274 520.593 726.184C520.541 728.477 520.522 730.77 520.537 733.062C515.702 733.018 510.867 733.022 506.032 733.074C506.035 738.304 506.454 746.546 505.93 751.533C505.384 747.135 505.512 738.31 505.534 733.589C505.581 727.1 505.539 720.611 505.408 714.123Z"/><path fill="#F5A430" d="M549.994 710.74C551.441 714.988 549.487 728.42 549.044 733.499C552.66 735.045 561.405 734.399 566.113 735.078C564.306 738.792 562.016 742.422 560.267 746.004C555.826 754.913 549.784 765.376 544.89 774.07C546.183 760.968 547.273 747.848 548.16 734.713C548.914 726.744 549.12 718.595 549.994 710.74Z"/><path fill="#131313" d="M521.053 726.054C521.042 725.423 520.806 722.494 521.331 721.994C522.385 722.114 541.122 731.947 543.827 733.283C541.673 733.573 525.005 733.009 521.063 733.022C521.091 730.693 521.148 728.381 521.053 726.054Z"/><path fill="#131313" d="M650.88 384.944L711.588 385.007C721.426 385.008 735.006 385.412 744.573 384.927L751.706 385.074C754.587 385.571 790.414 401.11 791.494 402.6C791.586 402.727 791.649 402.872 791.727 403.009C792.62 403.107 793.935 403.17 794.721 403.468C797.464 403.911 810.545 410.527 813.915 412.19L726.208 562.179L700.585 605.397C697.66 610.345 690.974 621.01 688.851 625.789L688.393 626.179C686.759 624.671 673.364 619.23 670.622 618.473L670.631 618.17C663.379 615.648 643.663 607.614 636.763 604.116L690.467 504.599C698.224 491.147 705.131 477.089 712.829 463.588C716.047 457.944 719.243 452.186 722.209 446.411C692.794 448.734 659.654 449.812 630.084 450.983C631.046 446 633.757 438.084 635.366 433.111C638.413 423.544 641.6 414.021 644.928 404.548C647.196 399.044 649.063 390.843 650.88 384.944Z"/><path fill="#E68C2E" d="M794.721 403.468C797.464 403.911 810.545 410.527 813.915 412.19L726.208 562.179L700.585 605.397C697.66 610.345 690.974 621.01 688.851 625.789L688.393 626.179C686.759 624.671 673.364 619.23 670.622 618.473L670.631 618.17C678.272 606.372 688.271 587.526 695.44 574.929L740.686 495.453C751.684 476.266 762.865 457.184 774.227 438.21C781.007 426.871 788.405 415.011 794.721 403.468Z"/><path fill="#E68C2E" d="M650.88 384.944L711.588 385.007C721.426 385.008 735.006 385.412 744.573 384.927L751.706 385.074C754.587 385.571 790.414 401.11 791.494 402.6C791.586 402.727 791.649 402.872 791.727 403.009C762.549 403.699 733.366 404.163 704.181 404.402C684.613 404.465 664.428 404.179 644.928 404.548C647.196 399.044 649.063 390.843 650.88 384.944Z"/><path fill="#8D6A33" d="M483.105 379.141L483.598 378.964C485.273 379.287 487.189 381.795 488.568 383.226C489.954 380.715 489.096 375.655 491.842 372.085C495.298 370.685 506.009 379.49 510.901 381.202C509.312 379.547 507.216 378.04 506.712 376.007C508.135 377.286 510.188 378.997 511.323 380.451C512.252 384.273 541.108 400.49 546.058 404.37C543.789 404.388 529.222 404.246 528.102 404.723C525.54 404.872 525.672 404.43 524.142 405.749C523.039 409.155 523.707 413.021 523.872 416.811C523.969 438.064 524.154 460.309 523.759 481.535C523.438 495.351 523.316 509.17 523.394 522.99C523.384 528.716 523.096 537.451 523.426 542.982C523.285 544.815 523.161 546.649 523.053 548.484C522.942 553.006 522.871 558.314 523.022 562.813L522.477 562.694C518.518 561.863 507.176 558.204 503.452 556.805C503.418 554.473 503.394 552.726 503.074 550.402C503.186 547.164 503.038 543.676 503.05 540.398C491.054 535.293 478.505 530.44 466.38 525.333L465.456 524.951L465.126 524.291C464.449 504.497 461.31 479.15 461.515 460.028L461.38 452.029C455.647 451.74 449.912 451.505 444.175 451.325L443.912 451.026C434.867 451.157 419.105 449.818 409.57 449.357L408.617 449.01C399.746 434.222 393.084 421.676 388.521 404.995L388.321 404.54C387.169 398.746 383.92 390.655 383.064 385.001L391.242 384.922C402.144 385.338 415.203 385.002 426.273 384.985L489.229 384.943C486.776 382.827 485.321 381.504 483.105 379.141Z"/><path fill="#F7AF33" d="M483.105 379.141L483.598 378.964C485.273 379.287 487.189 381.795 488.568 383.226C489.954 380.715 489.096 375.655 491.842 372.085C495.298 370.685 506.009 379.49 510.901 381.202C509.312 379.547 507.216 378.04 506.712 376.007C508.135 377.286 510.188 378.997 511.323 380.451C512.252 384.273 541.108 400.49 546.058 404.37C543.789 404.388 529.222 404.246 528.102 404.723C525.54 404.872 525.672 404.43 524.142 405.749C523.039 409.155 523.707 413.021 523.872 416.811C523.969 438.064 524.154 460.309 523.759 481.535C523.438 495.351 523.316 509.17 523.394 522.99C523.384 528.716 523.096 537.451 523.426 542.982C523.285 544.815 523.161 546.649 523.053 548.484C522.942 553.006 522.871 558.314 523.022 562.813L522.477 562.694C518.518 561.863 507.176 558.204 503.452 556.805C503.418 554.473 503.394 552.726 503.074 550.402C503.186 547.164 503.038 543.676 503.05 540.398L501.426 404.582C464.248 405.105 425.614 404.53 388.321 404.54C387.169 398.746 383.92 390.655 383.064 385.001L391.242 384.922C402.144 385.338 415.203 385.002 426.273 384.985L489.229 384.943C486.776 382.827 485.321 381.504 483.105 379.141Z"/><path fill="#F5A430" d="M503.05 540.398C508.498 542.561 518.321 545.901 523.053 548.484C522.942 553.006 522.871 558.314 523.022 562.813L522.477 562.694C518.518 561.863 507.176 558.204 503.452 556.805C503.418 554.473 503.394 552.726 503.074 550.402C503.186 547.164 503.038 543.676 503.05 540.398Z"/><path fill="#4B3925" d="M388.521 404.995L442.262 405.039C442.671 420.372 443.221 435.702 443.912 451.026C434.867 451.157 419.105 449.818 409.57 449.357L408.617 449.01C399.746 434.222 393.084 421.676 388.521 404.995Z"/><path fill="#60472A" d="M442.262 405.039L479.59 405.083C477.024 413.9 466.04 454.611 461.515 460.028L461.38 452.029C455.647 451.74 449.912 451.505 444.175 451.325L443.912 451.026C443.221 435.702 442.671 420.372 442.262 405.039Z"/><path fill="#E68C2E" d="M591.04 586.766C598.091 560.704 606.054 534.241 613.398 508.209C616.235 497.883 619.159 487.582 622.171 477.307C623.461 472.874 625.257 465.933 626.91 461.768C637.072 468.335 647.426 475.778 657.207 482.462C663.323 486.641 685.095 503.06 690.467 504.599L636.763 604.116L636.444 604.571C622.016 598.26 605.824 592.433 591.04 586.766Z"/><path fill="#7B5B31" d="M465.456 524.951L466.38 525.333C478.505 530.44 491.054 535.293 503.05 540.398C503.038 543.676 503.186 547.164 503.074 550.402C503.394 552.726 503.418 554.473 503.452 556.805C507.176 558.204 518.518 561.863 522.477 562.694L523.022 562.813C522.871 558.314 522.942 553.006 523.053 548.484C523.161 546.649 523.285 544.815 523.426 542.982C523.589 545.282 523.715 546.69 523.564 549.005C534.92 553.067 547.222 559.211 558.115 563.225L557.427 574.092L557.555 574.351C556.157 598.348 555.282 622.412 553.712 646.427C548.939 644.08 542.494 641.582 537.505 639.274C533.733 637.53 525.73 633.821 522.044 632.685L521.944 632.149C517.776 629.157 508.561 626.984 504.034 623.862L503.959 623.508C499.531 621.765 474.407 607.611 469.965 604.657C469.893 603.494 469.756 602.299 469.642 601.136C469.328 584.398 467.914 563.2 466.619 546.367C466.159 539.306 465.631 532.003 465.456 524.951Z"/><path fill="#8D6A33" d="M465.456 524.951L466.38 525.333C478.505 530.44 491.054 535.293 503.05 540.398C503.038 543.676 503.186 547.164 503.074 550.402C503.394 552.726 503.418 554.473 503.452 556.805C503.699 578.027 504.552 602.496 503.959 623.508C499.531 621.765 474.407 607.611 469.965 604.657C469.893 603.494 469.756 602.299 469.642 601.136C469.328 584.398 467.914 563.2 466.619 546.367C466.159 539.306 465.631 532.003 465.456 524.951Z"/><path fill="#60472A" d="M465.456 524.951L466.38 525.333C478.505 530.44 491.054 535.293 503.05 540.398C503.038 543.676 503.186 547.164 503.074 550.402C502.93 552.269 503.091 554.553 502.706 556.256C502.648 556.512 501.511 556.151 501.492 556.146C493.118 553.983 484.869 551.268 476.49 549.126C473.202 548.286 469.83 547.478 466.619 546.367C466.159 539.306 465.631 532.003 465.456 524.951Z"/><path fill="#F7AF33" d="M503.452 556.805C507.176 558.204 518.518 561.863 522.477 562.694L523.022 562.813C523.022 583.91 523.342 611.256 521.944 632.149C517.776 629.157 508.561 626.984 504.034 623.862L503.959 623.508C504.552 602.496 503.699 578.027 503.452 556.805Z"/><path fill="#3B2D20" d="M523.564 549.005C534.92 553.067 547.222 559.211 558.115 563.225L557.427 574.092C546.136 570.958 534.763 566.375 523.312 563.033C523.334 558.356 523.418 553.679 523.564 549.005Z"/><path fill="#60472A" d="M523.872 416.811C542.348 424.74 560.11 433.093 578.428 441.161C584 443.61 589.585 446.03 595.182 448.421C597.174 449.268 601.997 451.075 603.528 451.973C590.317 452.353 577.108 452.817 563.903 453.365C561.75 489.186 560.955 527.773 558.115 563.225C547.222 559.211 534.92 553.067 523.564 549.005C523.715 546.69 523.589 545.282 523.426 542.982C523.096 537.451 523.384 528.716 523.394 522.99C523.316 509.17 523.438 495.351 523.759 481.535C524.154 460.309 523.969 438.064 523.872 416.811Z"/><path fill="#FDCA39" d="M557.555 574.351C562.657 575.125 584.609 584.383 590.958 586.6C585.691 606.816 580.141 626.957 574.309 647.018C571.516 656.776 568.188 667.252 565.621 676.952C562.873 676.191 554.845 671.374 552.38 669.68L553.712 646.427C555.282 622.412 556.157 598.348 557.555 574.351Z"/><path fill="#131313" d="M656.056 270.186C661.164 265.378 666.225 260.514 671.164 255.533C681.22 245.393 692.027 235.937 702.083 225.813L768.443 343.3C775.208 355.367 782.562 367.095 789.342 379.155C790.428 381.086 791.575 383.027 792.452 385.064C779.018 385.063 765.096 384.866 751.706 385.074L744.573 384.927C735.006 385.412 721.426 385.008 711.588 385.007L650.88 384.944C649.063 390.843 647.196 399.044 644.928 404.548C641.6 414.021 638.413 423.544 635.366 433.111C633.757 438.084 631.046 446 630.084 450.983L626.68 451.056C620.907 451.833 609.648 451.921 603.528 451.973C601.997 451.075 597.174 449.268 595.182 448.421C589.585 446.03 584 443.61 578.428 441.161C560.11 433.093 542.348 424.74 523.872 416.811C523.707 413.021 523.039 409.155 524.142 405.749C525.672 404.43 525.54 404.872 528.102 404.723C529.222 404.246 543.789 404.388 546.058 404.37C541.108 400.49 512.252 384.273 511.323 380.451C514.846 377.506 518.669 373.979 521.96 370.776C545.512 347.855 571.209 325.959 594.18 302.579L594.567 302.379C597.813 303.357 610.459 309.505 611.824 312.147L612.551 311.589C627.211 297.956 641.714 284.154 656.056 270.186Z"/><path fill="#F5A430" d="M594.567 302.379C597.813 303.357 610.459 309.505 611.824 312.147L612.551 311.589C622.096 314.301 638.136 324.017 648.425 328.109L648.379 328.445C653.642 330.694 660.563 334.793 665.992 337.443C664.112 343.814 661.987 350.35 659.967 356.694C656.557 365.458 653.769 375.476 651.087 384.525L712.425 384.478C719.384 384.475 738.315 384.106 744.573 384.927C735.006 385.412 721.426 385.008 711.588 385.007L650.88 384.944C649.063 390.843 647.196 399.044 644.928 404.548C641.6 414.021 638.413 423.544 635.366 433.111C633.757 438.084 631.046 446 630.084 450.983L626.68 451.056C620.907 451.833 609.648 451.921 603.528 451.973C601.997 451.075 597.174 449.268 595.182 448.421C589.585 446.03 584 443.61 578.428 441.161C560.11 433.093 542.348 424.74 523.872 416.811C523.707 413.021 523.039 409.155 524.142 405.749C525.672 404.43 525.54 404.872 528.102 404.723C529.222 404.246 543.789 404.388 546.058 404.37C541.108 400.49 512.252 384.273 511.323 380.451C514.846 377.506 518.669 373.979 521.96 370.776C545.512 347.855 571.209 325.959 594.18 302.579L594.567 302.379Z"/><path fill="#3B2D20" d="M612.551 311.589C622.096 314.301 638.136 324.017 648.425 328.109L648.379 328.445C653.642 330.694 660.563 334.793 665.992 337.443C664.112 343.814 661.987 350.35 659.967 356.694C656.557 365.458 653.769 375.476 651.087 384.525L712.425 384.478C719.384 384.475 738.315 384.106 744.573 384.927C735.006 385.412 721.426 385.008 711.588 385.007L650.88 384.944C649.063 390.843 647.196 399.044 644.928 404.548C638.9 404.726 632.784 404.573 626.742 404.699C625.88 401.602 625.298 398.161 624.642 394.994L624.11 392.494C623.538 389.917 622.758 387.485 622.205 384.968C614.211 385.09 537.219 385.39 535.3 384.687L536.082 383.83C541.677 377.822 552.066 368.712 558.327 362.88C573.296 349.071 588.147 335.135 602.88 321.074C604.523 319.089 609.756 314.196 611.824 312.147L612.551 311.589Z"/><path fill="#251F1A" d="M602.88 321.074C606.503 326.875 618.936 375.134 621.164 384.468C611.879 384.424 539.09 385.042 536.082 383.83C541.677 377.822 552.066 368.712 558.327 362.88C573.296 349.071 588.147 335.135 602.88 321.074Z"/><path fill="#F5A430" d="M619.406 356.726C626.683 349.777 641.216 334.103 648.379 328.445C653.642 330.694 660.563 334.793 665.992 337.443C664.112 343.814 661.987 350.35 659.967 356.694C646.576 357.023 632.747 356.331 619.406 356.726Z"/><path fill="#F7AF33" d="M622.205 384.968C631.478 384.884 641.627 384.738 650.88 384.944C649.063 390.843 647.196 399.044 644.928 404.548C638.9 404.726 632.784 404.573 626.742 404.699C625.88 401.602 625.298 398.161 624.642 394.994L624.11 392.494C623.538 389.917 622.758 387.485 622.205 384.968Z"/><path fill="#4B3925" d="M644.928 404.548C641.6 414.021 638.413 423.544 635.366 433.111C633.757 438.084 631.046 446 630.084 450.983L626.68 451.056C620.907 451.833 609.648 451.921 603.528 451.973C601.997 451.075 597.174 449.268 595.182 448.421C589.585 446.03 584 443.61 578.428 441.161C560.11 433.093 542.348 424.74 523.872 416.811C523.707 413.021 523.039 409.155 524.142 405.749C525.672 404.43 525.54 404.872 528.102 404.723C534.194 405.319 541.268 404.637 547.37 404.922L626.742 404.699C632.784 404.573 638.9 404.726 644.928 404.548Z"/><path fill="#8D6A33" d="M528.102 404.723C534.194 405.319 541.268 404.637 547.37 404.922C555.044 410.831 569.28 419.081 578.077 424.603C591.106 432.781 606.964 443.77 620.348 451.065C622.33 451.056 624.738 450.976 626.68 451.056C620.907 451.833 609.648 451.921 603.528 451.973C601.997 451.075 597.174 449.268 595.182 448.421C589.585 446.03 584 443.61 578.428 441.161C560.11 433.093 542.348 424.74 523.872 416.811C523.707 413.021 523.039 409.155 524.142 405.749C525.672 404.43 525.54 404.872 528.102 404.723Z"/><path fill="#D1782E" d="M698.266 279.188C710.497 303.774 722.934 331.535 734.537 356.525L700.081 356.51C696.148 352.17 672.362 342.035 665.992 337.443C660.563 334.793 653.642 330.694 648.379 328.445L648.425 328.109C652.527 324.455 657.238 319.458 661.25 315.507L686.054 291.095C689.753 287.469 694.459 282.531 698.266 279.188Z"/><path fill="#F7AF33" d="M661.25 315.507C664.633 317.029 667.795 319.008 671.247 320.629C669.492 326.256 667.429 331.768 665.992 337.443C660.563 334.793 653.642 330.694 648.379 328.445L648.425 328.109C652.527 324.455 657.238 319.458 661.25 315.507Z"/><path fill="#E68C2E" d="M665.992 337.443C672.362 342.035 696.148 352.17 700.081 356.51C686.733 356.607 673.299 356.498 659.967 356.694C661.987 350.35 664.112 343.814 665.992 337.443Z"/><path fill="#131313" d="M822.257 398.956C835.904 394.736 857.475 385.072 871.557 379.469L981.336 335.801C990.935 332.077 1006.67 324.846 1015.54 322.13C1007.33 328.942 995.677 342.275 987.793 350.537L929.418 412.637L863.497 483.894C853.815 494.279 844.208 504.733 834.674 515.254C830.153 520.216 823.129 527.527 819.182 532.47L795.53 557.633C793.029 560.311 786.607 566.827 784.717 569.393C784.974 579.013 772.562 608.59 773.163 617.509C764.428 628.217 754.195 639.346 745.091 650.255C740.394 647.966 724.235 640.85 719.637 639.679L719.806 639.218C713.427 635.759 696.289 628.974 688.851 625.789C690.974 621.01 697.66 610.345 700.585 605.397L726.208 562.179L813.915 412.19C816.637 407.825 819.411 403.22 822.257 398.956Z"/><path fill="#E68C2E" d="M719.806 639.218C722.968 636.821 737.656 620.376 741.001 616.715C755.412 600.793 769.985 585.019 784.717 569.393C784.974 579.013 772.562 608.59 773.163 617.509C764.428 628.217 754.195 639.346 745.091 650.255C740.394 647.966 724.235 640.85 719.637 639.679L719.806 639.218Z"/><path fill="#D1782E" d="M838.424 425.765C846.21 422.068 855.546 418.488 863.6 415.171L899.819 399.87C907.127 396.855 915.067 394.011 922.248 390.842C883.854 431.667 845.817 472.826 808.142 514.315C798.625 524.824 789.012 535.246 779.304 545.58C774.739 550.46 767.578 557.586 763.568 562.478L762.075 562.148L838.424 425.765Z"/><path fill="#7B5B31" d="M763.568 562.478C763.039 563.093 762.027 564.454 761.292 564.678C760.491 564.466 761.97 562.333 762.075 562.148L763.568 562.478Z"/><path fill="#131313" d="M439.989 151.259C447.953 147.454 509.467 115.787 512.405 115.585C527.029 123.738 545.506 131.948 560.924 139.749L686.073 202.738L685.125 204.644C633.877 205.242 582.479 204.189 531.32 204.957L530.917 204.819C528.483 204.281 498.956 185.389 497.195 182.399C479.597 182.564 460.478 182.689 442.926 182.387L443.055 181.773C446.724 179.329 466.757 169.04 468.117 167.61C461.533 162.739 454.715 159.235 447.555 155.298C445.27 154.041 441.683 153.005 439.989 151.259Z"/><path fill="#D1782E" d="M511.985 143.556C535.532 157.033 559.321 168.899 582.936 181.877C554.674 182.57 525.592 182.056 497.195 182.399C479.597 182.564 460.478 182.689 442.926 182.387L443.055 181.773C446.724 179.329 466.757 169.04 468.117 167.61L469.234 167.342C483.51 159.292 497.782 151.79 511.985 143.556Z"/><path fill="#F5A430" d="M468.117 167.61L469.234 167.342C475.669 170.537 487.166 177.796 494.319 181.787C480.501 182.447 466.013 181.457 452.144 181.893C449.303 181.983 445.858 181.985 443.055 181.773C446.724 179.329 466.757 169.04 468.117 167.61Z"/><path fill="#131313" d="M551.685 221.083C564.316 221.217 576.948 221.267 589.58 221.232C594.77 221.241 602.486 221.035 607.464 221.409C620.91 223.247 662.024 220.283 677.858 221.917C678.009 221.933 679.029 222.939 679.26 223.222C666.311 234.776 651.799 247.803 639.664 260.084C644.775 264.195 650.355 267.074 656.056 270.186C641.714 284.154 627.211 297.956 612.551 311.589L611.824 312.147C610.459 309.505 597.813 303.357 594.567 302.379L594.18 302.579C587.779 300.73 568.761 291.207 562.187 287.969L561.732 288.146C550.307 279.842 523.752 274.646 519.387 260.938L519.17 260.815C517.069 256.771 511.495 249.69 508.625 245.412C507.578 242.335 506.828 226.402 506.354 221.706C510.593 221.708 543.869 222.104 545.366 221.161L551.685 221.083Z"/><path fill="#E68C2E" d="M639.664 260.084C644.775 264.195 650.355 267.074 656.056 270.186C641.714 284.154 627.211 297.956 612.551 311.589L611.824 312.147C610.459 309.505 597.813 303.357 594.567 302.379C596.643 299.914 606.216 291.265 609.058 288.595C619.198 279.025 629.4 269.521 639.664 260.084Z"/><path fill="#E68C2E" d="M519.387 260.938C542.614 260.542 571.415 260.291 594.497 260.829C583.769 269.91 572.829 278.821 562.187 287.969L561.732 288.146C550.307 279.842 523.752 274.646 519.387 260.938Z"/><path fill="#F7AF33" d="M946.362 411.662C947.821 409.609 957.622 398.697 960.367 398.225C957.938 401.629 949.224 411.994 946.177 415.003C939.776 424.338 922.355 443.861 914.687 452.768L863.376 512.882C840.959 539.251 818.357 565.462 795.57 591.511C789.299 598.612 779.247 611.516 773.163 617.509C772.562 608.59 784.974 579.013 784.717 569.393C786.607 566.827 793.029 560.311 795.53 557.633L819.182 532.47C824.605 532.186 869.478 490.088 878.071 482.647C902.355 461.618 922.826 434.146 946.362 411.662Z"/><path fill="#2D150F" d="M607.464 221.409C625.747 220.182 645.551 221.898 663.987 221.166C668.047 221.004 677.304 220.405 680.668 221.331L680.849 221.893L679.26 223.222C679.029 222.939 678.009 221.933 677.858 221.917C662.024 220.283 620.91 223.247 607.464 221.409Z"/><path fill="#2D150F" d="M686.073 202.738C689.197 204.238 690.229 204.928 686.035 204.688L685.125 204.644L686.073 202.738Z"/><path fill="#131313" d="M816.903 122.614C817.805 123.353 821.788 127.751 822.76 128.785L836.251 143.189C846.591 154.099 857.869 164.983 868.442 175.861C897.242 205.492 926.493 234.681 956.186 263.417C973.137 280.022 992.817 300.278 1010.7 315.438C1004.15 313.4 994.76 309.209 988.033 306.639C972.14 300.677 956.28 294.627 940.454 288.491C891.936 269.762 843.288 251.369 794.515 233.315C781.235 228.265 767.929 223.285 754.597 218.377C742.924 214.071 730.656 209.771 719.366 204.653C738.931 188.551 758.372 172.299 777.688 155.897C790.697 144.978 804.531 134.149 816.903 122.614Z"/><path fill="#D1782E" d="M826.774 167.323C843.646 181.848 861.036 198.788 877.234 214.033C893.178 228.895 909.201 243.673 925.302 258.365L924.305 259.196C922.441 258.072 911.728 254.037 909.152 253.025L874.694 239.648C839.791 226.279 805.085 212.401 770.588 198.017L826.774 167.323Z"/><path fill="#7B5B31" d="M925.302 258.365C928.451 260.273 927.558 261.003 924.305 259.196L925.302 258.365Z"/><path fill="#131313" d="M723.781 225.721C727.799 226.463 744.887 232.802 749.612 234.454L813.056 257.016L923.744 296.05C945.968 303.815 968.272 311.177 990.3 319.515C976.804 325.344 957.391 331.679 943.093 336.882C933.492 340.799 922.354 344.497 912.461 348.215L816.61 383.969C808.738 369.343 799.826 355.609 791.469 341.331C769.112 303.131 744.756 264.654 723.781 225.721Z"/><path fill="#131313" d="M535.518 122.656C544.727 122.154 557.208 122.492 566.609 122.479L623.52 122.416L801.934 122.506C787.496 133.275 772.541 145.319 758.296 156.45C739.622 170.318 721.774 186.165 702.546 199.144C696.487 196.875 688.757 193.04 682.758 190.268L652.769 176.586L535.518 122.656Z"/><path fill="#D1782E" d="M616.584 133.302C616.034 133.107 614.971 132.916 614.721 132.285C614.74 132.251 614.759 132.217 614.778 132.183C621.686 131.929 649.129 131.986 654.048 132.392C685.924 131.097 722.767 134.056 754.482 131.982L719.174 149.761C708.655 154.96 698.133 159.782 687.793 165.364C673.665 158.926 659.501 152.567 645.302 146.286C636.865 142.589 624.519 137.624 616.584 133.302Z"/><path fill="#E68C2E" d="M616.584 133.302C616.034 133.107 614.971 132.916 614.721 132.285C614.74 132.251 614.759 132.217 614.778 132.183C621.686 131.929 649.129 131.986 654.048 132.392C647.195 133.197 619.908 131.477 616.584 133.302Z"/><path fill="#E68C2E" d="M291.022 666.705C302.629 667.109 339.203 688.45 350.496 688.152L353.982 691.67C359.269 692.678 374.686 700.162 378.894 699.896C379.361 700.446 379.676 701.086 380.094 701.671C385.329 701.834 398.033 707.885 403.69 709.434L404.426 710.678C420.742 715.15 436.156 720.895 451.83 727.157C452.951 727.604 453.529 727.3 454.472 726.858L456.127 729.484C460.128 729.674 462.876 732.754 468.748 733.084C471.217 733.222 473.325 733.498 476.442 733.501C477.014 742.338 477.593 752.445 478.413 761.179C485.521 762.737 500.837 772.089 506.157 773.13L506.474 773.748C506.571 790.2 506.812 806.652 507.195 823.1L507.38 824.466C510.967 825.517 514.295 827.041 517.8 828.389C517.802 831.203 517.722 832.32 518.076 835.073C518.48 840.119 517.643 856.354 517.421 862.083C514.882 861.955 510.561 860.145 508.002 859.213C500.685 856.404 492.772 854.259 485.209 852.253C483.569 851.818 483.436 851.312 482.138 852.457L480.41 849.724C472.771 849.289 449.175 839.389 441.702 839.401C432.391 828.369 422.96 817.438 413.411 806.611C406.572 798.845 397.217 788.654 391.03 780.591C387.641 777.443 383.002 771.957 379.756 768.353C372.66 760.532 365.65 752.634 358.725 744.661C343.734 727.255 328.629 709.947 313.411 692.737C306.334 685.031 297.832 674.792 291.022 666.705Z"/><path fill="#251F1A" d="M404.426 710.678C420.742 715.15 436.156 720.895 451.83 727.157C452.951 727.604 453.529 727.3 454.472 726.858L456.127 729.484C460.128 729.674 462.876 732.754 468.748 733.084C471.217 733.222 473.325 733.498 476.442 733.501C477.014 742.338 477.593 752.445 478.413 761.179C485.521 762.737 500.837 772.089 506.157 773.13L506.474 773.748C506.571 790.2 506.812 806.652 507.195 823.1L507.38 824.466C510.967 825.517 514.295 827.041 517.8 828.389C517.802 831.203 517.722 832.32 518.076 835.073C518.48 840.119 517.643 856.354 517.421 862.083C514.882 861.955 510.561 860.145 508.002 859.213C500.685 856.404 492.772 854.259 485.209 852.253C483.569 851.818 483.436 851.312 482.138 852.457L480.41 849.724C473.946 836.551 463.467 819.135 456.251 805.693L455.19 804.308L417.649 735.407L415.876 732.539C412.641 725.629 408.133 717.524 404.426 710.678Z"/><path fill="#3B2D20" d="M456.251 805.693C472.858 810.39 488.482 817.445 504.784 823.04C505.722 823.362 506.287 823.44 507.195 823.1L507.38 824.466C510.967 825.517 514.295 827.041 517.8 828.389C517.802 831.203 517.722 832.32 518.076 835.073C518.48 840.119 517.643 856.354 517.421 862.083C514.882 861.955 510.561 860.145 508.002 859.213C500.685 856.404 492.772 854.259 485.209 852.253C483.569 851.818 483.436 851.312 482.138 852.457L480.41 849.724C473.946 836.551 463.467 819.135 456.251 805.693Z"/><path fill="#F7AF33" d="M507.38 824.466C510.967 825.517 514.295 827.041 517.8 828.389C517.802 831.203 517.722 832.32 518.076 835.073C518.48 840.119 517.643 856.354 517.421 862.083C514.882 861.955 510.561 860.145 508.002 859.213C507.801 847.564 507.421 836.181 507.38 824.466Z"/><path fill="#3B2D20" d="M404.426 710.678C420.742 715.15 436.156 720.895 451.83 727.157C452.951 727.604 453.529 727.3 454.472 726.858L456.127 729.484C460.128 729.674 462.876 732.754 468.748 733.084C471.217 733.222 473.325 733.498 476.442 733.501C477.014 742.338 477.593 752.445 478.413 761.179C478.463 762.365 478.497 763.26 478.46 764.455C477.127 767.703 479.085 767.499 477.766 770.41C475.581 766.164 472.151 759.289 469.835 755.311C454.373 751.69 436.217 740.197 420.747 735.347C419.113 734.835 419.183 734.894 417.649 735.407L415.876 732.539C412.641 725.629 408.133 717.524 404.426 710.678Z"/><path fill="#F5A430" d="M456.127 729.484C460.128 729.674 462.876 732.754 468.748 733.084C471.217 733.222 473.325 733.498 476.442 733.501C477.014 742.338 477.593 752.445 478.413 761.179C478.463 762.365 478.497 763.26 478.46 764.455C477.127 767.703 479.085 767.499 477.766 770.41C475.581 766.164 472.151 759.289 469.835 755.311C465.479 746.517 460.413 738.113 456.127 729.484Z"/><path fill="#F7AF33" d="M478.46 764.455C478.712 765.564 479.796 772.096 479.155 772.594C478.381 772.413 477.996 771.018 477.766 770.41C479.085 767.499 477.127 767.703 478.46 764.455Z"/><path fill="#F5A430" d="M391.03 780.591C395.964 780.486 442.883 801.278 455.19 804.308L456.251 805.693C463.467 819.135 473.946 836.551 480.41 849.724C472.771 849.289 449.175 839.389 441.702 839.401C432.391 828.369 422.96 817.438 413.411 806.611C406.572 798.845 397.217 788.654 391.03 780.591Z"/><path fill="#F5A430" d="M291.022 666.705C302.629 667.109 339.203 688.45 350.496 688.152L353.982 691.67C359.269 692.678 374.686 700.162 378.894 699.896C379.361 700.446 379.676 701.086 380.094 701.671C383.787 708.853 388.928 715.98 392.246 722.989C390.8 722.443 389.501 721.962 387.991 721.599C386.246 721.193 384.515 720.73 382.8 720.212C380.842 719.617 380.682 719.298 379.053 720.095C377.45 718.86 374.144 714.237 372.424 712.904C367.024 715.537 324.464 692.215 313.411 692.737C306.334 685.031 297.832 674.792 291.022 666.705Z"/><path fill="#3B2D20" d="M353.982 691.67C359.269 692.678 374.686 700.162 378.894 699.896C379.361 700.446 379.676 701.086 380.094 701.671C383.787 708.853 388.928 715.98 392.246 722.989C390.8 722.443 389.501 721.962 387.991 721.599C386.246 721.193 384.515 720.73 382.8 720.212C380.842 719.617 380.682 719.298 379.053 720.095C377.45 718.86 374.144 714.237 372.424 712.904C366.376 705.77 359.96 698.898 353.982 691.67Z"/><path fill="#F5A430" d="M380.094 701.671C385.329 701.834 398.033 707.885 403.69 709.434L404.426 710.678C408.133 717.524 412.641 725.629 415.876 732.539C411.316 732.364 398.682 725.041 392.68 723.295C392.535 723.193 392.39 723.091 392.246 722.989C388.928 715.98 383.787 708.853 380.094 701.671Z"/><path fill="#251F1A" d="M379.053 720.095C380.682 719.298 380.842 719.617 382.8 720.212C384.515 720.73 386.246 721.193 387.991 721.599C389.501 721.962 390.8 722.443 392.246 722.989C392.39 723.091 392.535 723.193 392.68 723.295C398.392 733.581 405.984 746.642 412.29 756.544L411.255 757.081C401.284 745.75 388.43 731.689 379.053 720.095Z"/><path fill="#4B3925" d="M412.29 756.544C413.72 758.665 414.709 760.327 415.898 762.61C414.301 760.76 412.685 759.063 411.255 757.081L412.29 756.544Z"/><path fill="#E68C2E" d="M441.702 839.401C449.175 839.389 472.771 849.289 480.41 849.724L482.138 852.457C483.436 851.312 483.569 851.818 485.209 852.253C492.772 854.259 500.685 856.404 508.002 859.213C510.561 860.145 514.882 861.955 517.421 862.083L517.514 862.347C520.018 862.548 531.243 865.662 533.796 866.749L534.092 866.419C535.198 867.581 549.89 872.123 552.148 872.581L552.818 872.722C545.193 881.273 537.621 889.87 530.101 898.512C524.571 904.975 517.776 913.543 511.908 919.421C488.377 893.249 465.208 865.88 441.702 839.401Z"/><path fill="#251F1A" d="M482.138 852.457C483.436 851.312 483.569 851.818 485.209 852.253C492.772 854.259 500.685 856.404 508.002 859.213C508.094 866.207 509.146 883.581 508.586 889.839C508.19 893.343 509.377 895.606 506.835 897.561C499.337 882.229 489.282 866.952 482.138 852.457Z"/><path fill="#251F1A" d="M517.514 862.347C520.018 862.548 531.243 865.662 533.796 866.749C528.162 877.226 521.435 890.171 516.321 900.806C516.316 889.086 516.804 874.138 517.514 862.347Z"/><path fill="#2D150F" d="M508.586 889.839C508.936 893.398 508.887 897.694 508.91 901.306C508.333 900.284 507.27 898.563 506.835 897.561C509.377 895.606 508.19 893.343 508.586 889.839Z"/></svg>