<?xml version="1.0" encoding="utf-8" ?><svg xmlns="http://www.w3.org/2000/svg" xmlns:xlink="http://www.w3.org/1999/xlink" width="1024" height="1024" viewBox="0 0 1024 1024"><path fill="#FEE20F" transform="scale(2 2)" d="M200.117 85.3346C202.294 83.7382 206.76 81.9585 209.42 81.0426C242.255 69.7391 292.461 72.2266 321.144 93.9561C324.534 91.2357 317.811 89.707 326.912 85.1863C357.696 70.2658 379.32 109.245 367.457 116.58C363.376 119.103 353.524 117.17 348.24 118.25C345.737 117.952 343.718 117.826 341.22 117.706C342.286 115.678 343.242 114.237 344.5 112.342L344.882 112.005C346.062 110.95 352.543 104.343 353.085 103.202C351.803 103.926 341.372 115.318 340.887 116.56C341.494 119.825 351.981 117.335 353.43 118.556C352.7 122.491 342.622 118.942 340.579 121.079C340.533 122.902 344.451 128.314 345.977 129.132L346.144 128.999C345.348 126.913 342.662 126.051 341.22 121.172C344.881 120.788 347.436 120.746 351.067 120.794C351.903 121.328 351.876 121.31 352.505 122.083C354.729 124.329 357.301 128.841 358.777 131.753C375.295 164.324 376.401 219.927 349.036 246.982C339.933 255.983 329.741 265.69 319.649 273.446C299.334 289.059 263.196 311.31 248.176 331.404C242.547 338.71 241.041 347.228 237.816 355.019L237.438 355.186C237.113 361.391 228.707 358.577 222.737 359.234C222.482 360.08 221.853 363.359 221.615 363.523L221.552 363.497C220.609 362.294 220.252 360.194 220.049 358.696L213.952 358.696L213.952 358.696L213.952 357.532L213.952 357.532C213.611 356.403 213.927 354.365 213.904 353.107C213.597 336.632 220.181 321.308 231.484 309.47C233.062 307.817 235.235 304.578 237.282 303.705L235.952 302.544C233.814 300.399 231.864 298.671 229.552 296.731C222.429 302.031 222.709 297.298 218.597 298.434C218.634 297.746 218.738 298.035 218.451 297.492C216.25 299.515 214.252 301.574 212.161 303.705L211.709 303.216C212.45 301.148 215.058 300.401 215.357 298.816C215.413 298.594 216.328 297.033 216.499 296.731C217.801 296.318 219.344 293.716 220.049 292.549C220.557 291.911 221.118 290.894 221.552 290.172C220.876 288.959 220.579 288.474 219.726 287.384C218.124 285.503 216.008 282.927 213.952 281.562C212.912 280.206 211.235 278.565 210.018 277.284C209.631 276.468 209.589 276.374 209.368 275.505L209.659 275.367C210.266 275.678 210.793 275.929 211.416 276.212L210.018 274.419C209.393 273.793 207.399 272.316 206.6 271.698C215.845 264.61 224.571 257.867 234.081 251.154C254.18 236.884 278.827 224.484 288.862 200.543C293.539 189.385 293.572 171.155 289.113 159.683C274.515 129.385 224.703 126.9 212.161 157.758C215.988 164.097 217.376 168.545 217.085 176.017C219.186 197.559 194.198 214.265 172.953 207.967C146.669 200.175 135.372 170.944 142.598 145.899C145.407 136.165 158.089 114.842 167.459 109.68C170.1 106.284 179.211 98.9734 182.958 96.0044L183.57 96.0044C186.034 93.2392 188.008 91.5082 191.418 89.8988C192.358 89.3701 192.74 89.2256 193.76 88.8441C196.162 87.0521 197.33 86.4752 200.117 85.3346Z"/><path fill="#FCCA1C" transform="scale(2 2)" d="M182.958 96.0044C183.498 97.3515 183.699 97.6582 184.527 98.8618C183.012 100.062 181.703 101.338 180.304 102.664C180.673 104.509 182.919 105.173 184.527 106.592C183.634 107.432 182.926 108.188 181.873 108.815C180.983 109.744 180.205 110.56 179.373 111.551C177.734 112.836 176.027 114.115 174.533 115.559C173.364 118.231 168.478 121.32 169.131 123.483C171.157 124.907 185.499 123.717 186.769 122.429L186.684 121.991L187.034 121.794C187.496 122.879 184.984 137.03 186.796 140.907L187.21 141.07C188.51 134.144 189.97 122.579 190.696 115.648C190.9 113.703 194.322 113.555 195.864 113.492C198.559 115.226 202.904 120.246 205.244 121.172C198.211 125.677 191.694 139.363 188.922 146.839C183.419 146.45 176.202 148.043 172.055 151.911C172.143 151.912 172.231 151.914 172.318 151.915C190.193 139.695 219.677 153.04 216.549 175.697C216.972 175.995 216.781 175.913 217.085 176.017C219.186 197.559 194.198 214.265 172.953 207.967C146.669 200.175 135.372 170.944 142.598 145.899C145.407 136.165 158.089 114.842 167.459 109.68C170.1 106.284 179.211 98.9734 182.958 96.0044Z"/><defs><linearGradient id="gradient_0" gradientUnits="userSpaceOnUse" x1="182.54646" y1="148.95476" x2="171.09351" y2="121.80067"><stop offset="0" stop-color="#FFF349"/><stop offset="1" stop-color="#FFFF9A"/></linearGradient></defs><path fill="url(#gradient_0)" transform="scale(2 2)" d="M174.533 115.559C173.364 118.231 168.478 121.32 169.131 123.483C171.157 124.907 185.499 123.717 186.769 122.429L186.684 121.991L187.034 121.794C187.496 122.879 184.984 137.03 186.796 140.907L187.21 141.07C188.51 134.144 189.97 122.579 190.696 115.648C190.9 113.703 194.322 113.555 195.864 113.492C198.559 115.226 202.904 120.246 205.244 121.172C198.211 125.677 191.694 139.363 188.922 146.839C183.419 146.45 176.202 148.043 172.055 151.911C160.387 159.141 166.024 171.506 164.463 175.321C163.312 165.122 162.674 163.747 168.398 154.864L168.04 154.758C165.167 156.887 157.679 158.752 154.044 159.584C152.482 163.302 157.678 174.945 159.873 177.741C161.236 179.478 162.925 180.504 164.373 182.111L164.206 182.155C143.149 167.184 156.967 131.558 172.769 117.706C173.369 116.996 173.947 116.282 174.533 115.559Z"/><path fill="#FEF576" transform="scale(2 2)" d="M177.741 105.532C178.688 104.556 179.147 103.697 180.304 102.664C180.673 104.509 182.919 105.173 184.527 106.592C183.634 107.432 182.926 108.188 181.873 108.815C180.983 109.744 180.205 110.56 179.373 111.551C177.734 112.836 176.027 114.115 174.533 115.559C173.947 116.282 173.369 116.996 172.769 117.706C172.427 115.67 177.348 113.993 177.449 110.704C174.384 105.497 169.723 113.13 168.318 113.179C168.773 112.276 173.391 108.011 174.533 107.364C175.018 107.065 175.122 106.958 175.565 106.592C176.259 106.148 176.986 105.864 177.741 105.532Z"/><path fill="#FCF1A8" transform="scale(2 2)" d="M177.741 105.532C178.688 104.556 179.147 103.697 180.304 102.664C180.673 104.509 182.919 105.173 184.527 106.592C183.634 107.432 182.926 108.188 181.873 108.815C180.196 106.604 177.594 108.857 177.741 105.532Z"/><path fill="#FEF576" transform="scale(2 2)" d="M175.565 106.592C176.259 106.148 176.986 105.864 177.741 105.532C177.594 108.857 180.196 106.604 181.873 108.815C180.983 109.744 180.205 110.56 179.373 111.551C177.636 109.894 176.902 108.572 175.565 106.592Z"/><defs><linearGradient id="gradient_1" gradientUnits="userSpaceOnUse" x1="175.20413" y1="104.25748" x2="183.41344" y2="98.222305"><stop offset="0" stop-color="#FFE657"/><stop offset="1" stop-color="#FFF9A3"/></linearGradient></defs><path fill="url(#gradient_1)" transform="scale(2 2)" d="M182.958 96.0044C183.498 97.3515 183.699 97.6582 184.527 98.8618C183.012 100.062 181.703 101.338 180.304 102.664C179.147 103.697 178.688 104.556 177.741 105.532C176.986 105.864 176.259 106.148 175.565 106.592C175.122 106.958 175.018 107.065 174.533 107.364C176.331 105.626 175.959 105.459 174.533 103.505C173.2 104.818 169.007 109.511 167.459 109.68C170.1 106.284 179.211 98.9734 182.958 96.0044Z"/><path fill="#FEF576" transform="scale(2 2)" d="M172.055 171.513C169.307 165.398 169.87 164.055 174.188 160.547C174.725 160.11 172.462 157.5 174.691 156.669C174.521 158.169 173.43 158.86 175.187 160.007L175.565 160.059C177.418 158.275 185.754 156.719 185.809 159.061C184.683 158.676 184.313 158.43 183.198 158.647L182.958 159.185L182.825 159.453C181.641 161.885 181.577 166.052 182.081 168.618C182.543 167.39 182.135 165.687 183.759 163.542C185.224 165.459 182.866 176.937 172.055 171.513Z"/><path fill="#FDFDF0" transform="scale(2 2)" d="M175.565 160.059C177.957 160.96 179.211 165.859 179.373 168.158C178.645 169.584 177.56 171.285 176.717 172.686C175.053 172.307 174.379 172.142 172.769 171.513C168.719 165.137 171.387 164.582 175.565 160.059Z"/><defs><linearGradient id="gradient_2" gradientUnits="userSpaceOnUse" x1="361.84335" y1="250.03114" x2="240.25253" y2="232.97916"><stop offset="0" stop-color="#FFD605"/><stop offset="1" stop-color="#DF7D11"/></linearGradient></defs><path fill="url(#gradient_2)" transform="scale(2 2)" d="M341.22 121.172C344.881 120.788 347.436 120.746 351.067 120.794C351.903 121.328 351.876 121.31 352.505 122.083C354.729 124.329 357.301 128.841 358.777 131.753C375.295 164.324 376.401 219.927 349.036 246.982C339.933 255.983 329.741 265.69 319.649 273.446C299.334 289.059 263.196 311.31 248.176 331.404C242.547 338.71 241.041 347.228 237.816 355.019L237.438 355.186C237.113 361.391 228.707 358.577 222.737 359.234C222.482 360.08 221.853 363.359 221.615 363.523L221.552 363.497C220.609 362.294 220.252 360.194 220.049 358.696L213.952 358.696L213.952 358.696L213.952 357.532L213.952 357.532C213.611 356.403 213.927 354.365 213.904 353.107C213.597 336.632 220.181 321.308 231.484 309.47C233.062 307.817 235.235 304.578 237.282 303.705L237.282 303.705C238.282 305.038 239.234 305.465 240.341 306.58L240.341 306.58C241.075 306.481 240.755 306.635 241.286 306.014C242.542 307.011 243.88 308.706 244.949 309.963C249.732 304.851 254.463 300.389 259.326 295.044C261.161 295.208 264.646 295.715 266.193 295.044C266.938 294.126 266.95 294.078 268.094 293.746L266.193 292.549C265.757 291.684 265.274 290.982 264.746 290.172C265.377 289.797 265.662 289.439 266.193 288.923L266.193 288.923C266.475 288.13 267.481 287.162 268.094 286.467L268.094 286.467C281.422 272.227 297.883 276.389 311.536 260.961L311.536 260.961C311.831 260.735 312.462 260.016 312.748 259.71L313.973 260.961C318.728 255.187 325.09 250.604 330.132 245.01C353.751 218.803 360.128 195.95 354.573 160.341C353.849 155.702 347.603 136.855 350.061 134.812L352.505 136.977C352.584 136.476 352.531 136.175 352.505 135.653C350.562 133.439 348.236 131.063 346.144 128.999L346.144 128.999C345.348 126.913 342.662 126.051 341.22 121.172Z"/><path fill="#F4B722" transform="scale(2 2)" d="M237.282 303.705L237.282 303.705C238.282 305.038 239.234 305.465 240.341 306.58L240.341 306.58C241.075 306.481 240.755 306.635 241.286 306.014C242.542 307.011 243.88 308.706 244.949 309.963L244.949 309.963L244.949 310.791L244.949 310.791C234.228 320.675 227.203 335.465 224.056 349.564C223.211 353.351 220.97 356.577 224.131 358.145L224.208 358.461C222.291 360.09 222.239 356.904 221.552 363.497C220.609 362.294 220.252 360.194 220.049 358.696L213.952 358.696L213.952 358.696L213.952 357.532L213.952 357.532C213.611 356.403 213.927 354.365 213.904 353.107C213.597 336.632 220.181 321.308 231.484 309.47C233.062 307.817 235.235 304.578 237.282 303.705Z"/><path fill="#E2860F" transform="scale(2 2)" d="M237.282 303.705L237.282 303.705C238.282 305.038 239.234 305.465 240.341 306.58C239.166 308.737 233.584 314.081 231.593 316.58C221.569 329.163 219.892 342.059 220.049 357.532C217.986 357.574 216.017 357.63 213.952 357.532C213.611 356.403 213.927 354.365 213.904 353.107C213.597 336.632 220.181 321.308 231.484 309.47C233.062 307.817 235.235 304.578 237.282 303.705Z"/><path fill="#FEF576" transform="scale(2 2)" d="M241.286 306.014C242.542 307.011 243.88 308.706 244.949 309.963L244.949 309.963L244.949 310.791C243.209 309.818 241.414 308.27 240.341 306.58C241.075 306.481 240.755 306.635 241.286 306.014Z"/><path fill="#FEF21C" transform="scale(2 2)" d="M341.22 121.172C344.881 120.788 347.436 120.746 351.067 120.794C351.903 121.328 351.876 121.31 352.505 122.083C351.297 122.135 351.324 121.204 349.845 120.961C348.346 121.246 343.95 125.177 346.148 128.357L346.144 128.999L346.144 128.999C345.348 126.913 342.662 126.051 341.22 121.172Z"/><path fill="#FEF576" transform="scale(2 2)" d="M266.193 288.923L266.193 288.923C266.978 289.937 268.266 291.686 269.095 292.549C271.662 295.457 275.359 299.35 277.282 302.544C274.301 300.092 270.954 296.524 268.094 293.746L266.193 292.549C265.757 291.684 265.274 290.982 264.746 290.172C265.377 289.797 265.662 289.439 266.193 288.923Z"/><path fill="#FEF576" transform="scale(2 2)" d="M312.748 259.71L313.973 260.961C316.2 263.542 319.808 267.459 321.463 270.221C319.624 269.777 313.109 262.651 311.536 260.961L311.536 260.961C311.831 260.735 312.462 260.016 312.748 259.71Z"/><path fill="#FEF576" transform="scale(2 2)" d="M352.505 135.653C354.927 137.491 358.614 141.795 360.495 144.278L360.438 144.647L360.888 144.957L360.752 144.649C360.867 144.839 360.816 144.725 360.881 145C359.891 144.302 353.002 137.771 352.505 136.977C352.584 136.476 352.531 136.175 352.505 135.653Z"/><path fill="#FEF21C" transform="scale(2 2)" d="M266.193 288.923C266.475 288.13 267.481 287.162 268.094 286.467L268.094 286.467C269.374 288.816 269.388 289.228 268.968 291.724L269.785 291.782L270.018 291.557C269.863 288.97 271.335 291.447 269.095 292.549C268.266 291.686 266.978 289.937 266.193 288.923Z"/><path fill="#F09E13" transform="scale(2 2)" d="M244.949 309.963C246.421 311.456 247.279 312.58 248.49 314.317C246.76 313.137 246.012 312.678 244.949 310.791L244.949 310.791L244.949 309.963Z"/><path fill="#FCCA1C" transform="scale(2 2)" d="M260.859 244.779L261.205 245.104C251.497 252.292 217.888 272.536 214.045 278.443L214.296 278.931C216.139 280.075 248.821 255.839 254.608 252.548C268.939 244.399 281.452 232.998 292.132 220.553C295.617 216.493 285.253 228.62 283.828 230.053C286.329 232.391 290.554 236.171 292.769 238.656C295.295 241.18 297.687 243.464 300.314 245.884C302.786 243.855 303.226 242.256 306.247 244.779C307.173 243.784 308.109 242.81 309.051 241.831L310.176 242.871C309.011 244.025 307.197 245.984 306.673 247.541C308.688 250.407 305.775 251.555 306.415 252.626C307.768 254.886 310.922 257.877 312.748 259.71C312.462 260.016 311.831 260.735 311.536 260.961L311.536 260.961C297.883 276.389 281.422 272.227 268.094 286.467L268.094 286.467C267.481 287.162 266.475 288.13 266.193 288.923L266.193 288.923C265.662 289.439 265.377 289.797 264.746 290.172C265.274 290.982 265.757 291.684 266.193 292.549L268.094 293.746C266.95 294.078 266.938 294.126 266.193 295.044C264.646 295.715 261.161 295.208 259.326 295.044C254.463 300.389 249.732 304.851 244.949 309.963C243.88 308.706 242.542 307.011 241.286 306.014C240.755 306.635 241.075 306.481 240.341 306.58L240.341 306.58C239.234 305.465 238.282 305.038 237.282 303.705L237.282 303.705L235.952 302.544C233.814 300.399 231.864 298.671 229.552 296.731C222.429 302.031 222.709 297.298 218.597 298.434C218.634 297.746 218.738 298.035 218.451 297.492C216.25 299.515 214.252 301.574 212.161 303.705L211.709 303.216C212.45 301.148 215.058 300.401 215.357 298.816C215.413 298.594 216.328 297.033 216.499 296.731C217.801 296.318 219.344 293.716 220.049 292.549C220.557 291.911 221.118 290.894 221.552 290.172C220.876 288.959 220.579 288.474 219.726 287.384C218.124 285.503 216.008 282.927 213.952 281.562C212.912 280.206 211.235 278.565 210.018 277.284C209.631 276.468 209.589 276.374 209.368 275.505L209.659 275.367C210.266 275.678 210.793 275.929 211.416 276.212C211.993 276.947 212.682 277.886 213.311 278.549C217.756 272.775 244.87 255.36 252.15 250.651C255.068 248.763 258.107 246.899 260.859 244.779Z"/><path fill="#FCCA1C" transform="scale(2 2)" d="M254.473 288.923C255.517 288.018 255.905 287.912 257.202 287.384C257.682 290.856 257.361 288.966 259.326 290.932L259.326 291.743C259.703 291.346 259.846 291.266 260.284 290.932L260.996 291.552C261.948 291.647 263.131 290.349 264.746 290.172C265.274 290.982 265.757 291.684 266.193 292.549L268.094 293.746C266.95 294.078 266.938 294.126 266.193 295.044C264.646 295.715 261.161 295.208 259.326 295.044C254.463 300.389 249.732 304.851 244.949 309.963C243.88 308.706 242.542 307.011 241.286 306.014C240.755 306.635 241.075 306.481 240.341 306.58L240.341 306.58C239.234 305.465 238.282 305.038 237.282 303.705C237.425 303.366 237.367 303.588 237.299 303.015L236.893 302.735L236.893 302.587L237.421 303.041L237.355 302.555L237.816 302.544L237.816 302.544C240.662 297.685 249.232 291.079 254.473 288.923Z"/><path fill="#F09E13" transform="scale(2 2)" d="M254.473 288.923L254.93 288.785C256.159 288.4 256.367 287.586 256.547 289.197C255.734 290.729 257.019 292.827 256.328 293.335C250.796 297.407 246.03 300.966 241.286 306.014L241.286 306.014C240.755 306.635 241.075 306.481 240.341 306.58L240.341 306.58C239.234 305.465 238.282 305.038 237.282 303.705C237.425 303.366 237.367 303.588 237.299 303.015L236.893 302.735L236.893 302.587L237.421 303.041L237.355 302.555L237.816 302.544L237.816 302.544C240.662 297.685 249.232 291.079 254.473 288.923Z"/><path fill="#FDF9C5" transform="scale(2 2)" d="M237.816 302.544C239.265 303.614 240.06 304.821 241.286 306.014L241.286 306.014C240.755 306.635 241.075 306.481 240.341 306.58L240.341 306.58C239.234 305.465 238.282 305.038 237.282 303.705C237.425 303.366 237.367 303.588 237.299 303.015L236.893 302.735L236.893 302.587L237.421 303.041L237.355 302.555L237.816 302.544Z"/><path fill="#FEF21C" transform="scale(2 2)" d="M264.746 290.172C265.274 290.982 265.757 291.684 266.193 292.549C264.2 292.918 261.065 292.877 259.326 291.743C259.703 291.346 259.846 291.266 260.284 290.932L260.996 291.552C261.948 291.647 263.131 290.349 264.746 290.172Z"/><path fill="#F4B722" transform="scale(2 2)" d="M259.326 295.044C262.596 292.267 262.271 294.365 266.193 295.044C264.646 295.715 261.161 295.208 259.326 295.044Z"/><path fill="#FDFDF0" transform="scale(2 2)" d="M210.018 277.284C209.631 276.468 209.589 276.374 209.368 275.505L209.659 275.367C210.266 275.678 210.793 275.929 211.416 276.212C211.993 276.947 212.682 277.886 213.311 278.549C214.957 280.193 215.526 280.3 217.085 281.562C218.359 283.047 218.977 283.995 220.049 285.655C221.925 286.43 223.099 286.937 224.864 287.913C225.559 287.558 226.858 286.97 227.385 286.467L228.173 285.655C228.888 286.092 229.418 286.512 229.552 287.384C225.663 290.701 229.78 294.275 232.369 296.731C234.552 298.557 235.971 300.398 237.816 302.544L237.816 302.544L237.355 302.555L237.421 303.041L236.893 302.587L236.893 302.735L237.299 303.015C237.367 303.588 237.425 303.366 237.282 303.705L237.282 303.705L235.952 302.544C233.814 300.399 231.864 298.671 229.552 296.731C222.429 302.031 222.709 297.298 218.597 298.434C218.634 297.746 218.738 298.035 218.451 297.492C216.25 299.515 214.252 301.574 212.161 303.705L211.709 303.216C212.45 301.148 215.058 300.401 215.357 298.816C215.413 298.594 216.328 297.033 216.499 296.731C217.801 296.318 219.344 293.716 220.049 292.549C220.557 291.911 221.118 290.894 221.552 290.172C220.876 288.959 220.579 288.474 219.726 287.384C218.124 285.503 216.008 282.927 213.952 281.562C212.912 280.206 211.235 278.565 210.018 277.284Z"/><path fill="#FEF576" transform="scale(2 2)" d="M218.451 297.492C221.525 292.848 225.943 292.991 229.552 296.731C222.429 302.031 222.709 297.298 218.597 298.434C218.634 297.746 218.738 298.035 218.451 297.492Z"/><path fill="#FDFDF0" transform="scale(2 2)" d="M292.289 240.003C288.755 234.226 288.175 237.056 292.769 238.656C295.295 241.18 297.687 243.464 300.314 245.884C302.786 243.855 303.226 242.256 306.247 244.779C307.173 243.784 308.109 242.81 309.051 241.831L310.176 242.871C309.011 244.025 307.197 245.984 306.673 247.541C308.688 250.407 305.775 251.555 306.415 252.626C307.768 254.886 310.922 257.877 312.748 259.71C312.462 260.016 311.831 260.735 311.536 260.961C308.285 257.959 305.935 255.35 301.75 253.81C297.388 255.425 294.548 259.098 291.118 262.229C290.406 261.381 291.81 260.639 292.289 259.71C293.39 257.535 295.814 255.353 297.644 253.81C295.543 250.506 295.313 250.069 297.644 246.794C295.795 244.412 293.622 242.719 292.289 240.003Z"/><path fill="#FEF576" transform="scale(2 2)" d="M297.644 246.794C298.533 247.699 299.496 248.637 300.314 249.599C299.434 250.96 298.453 252.419 297.644 253.81C295.543 250.506 295.313 250.069 297.644 246.794Z"/><path fill="#FEF576" transform="scale(2 2)" d="M300.314 245.884C302.786 243.855 303.226 242.256 306.247 244.779C304.499 245.842 304.005 246.166 302.52 247.671L300.314 245.884Z"/><path fill="#FEF576" transform="scale(2 2)" d="M217.085 281.562C220.429 280.746 220.136 278.661 220.354 280.425C222.48 280.385 226.131 280.053 227.706 281.506C229.441 285.864 229.496 282.441 232.369 281.562C231.6 282.363 228.357 285.293 228.173 285.655L227.385 286.467C226.858 286.97 225.559 287.558 224.864 287.913C223.099 286.937 221.925 286.43 220.049 285.655C218.977 283.995 218.359 283.047 217.085 281.562Z"/><path fill="#FCF1A8" transform="scale(2 2)" d="M220.049 285.655C222.931 283.366 224.997 284.064 227.385 286.467C226.858 286.97 225.559 287.558 224.864 287.913C223.099 286.937 221.925 286.43 220.049 285.655Z"/><path fill="#FEF576" transform="scale(2 2)" d="M229.552 287.384C230.171 286.581 231.5 284.883 232.369 284.456C232.112 285.932 230.766 285.804 230.748 287.054C234.036 289.684 233.572 293.141 232.369 296.731C229.78 294.275 225.663 290.701 229.552 287.384Z"/><path fill="#FDF9C5" transform="scale(2 2)" d="M234.664 279.516C235.173 279.828 235.486 279.995 235.952 280.377C234.361 281.815 233.511 282.569 232.369 284.456C231.5 284.883 230.171 286.581 229.552 287.384C229.418 286.512 228.888 286.092 228.173 285.655C228.357 285.293 231.6 282.363 232.369 281.562L234.664 279.516Z"/><path fill="#FDF9C5" transform="scale(2 2)" d="M262 287.384C263.727 286.377 263.688 286.609 265.569 287.384C265.852 287.93 266.107 288.314 266.193 288.923C265.662 289.439 265.377 289.797 264.746 290.172C263.131 290.349 261.948 291.647 260.996 291.552L260.284 290.932C261.322 289.97 261.576 288.728 262 287.384Z"/><path fill="#FEF576" transform="scale(2 2)" d="M283.828 230.053C286.329 232.391 290.554 236.171 292.769 238.656C288.175 237.056 288.755 234.226 292.289 240.003C290.891 238.993 283.999 232.018 283.145 230.725L283.828 230.053Z"/><path fill="#FEF21C" transform="scale(2 2)" d="M259.326 290.932C259.155 289.08 259.567 287.361 260.284 285.655C261.039 286.217 261.656 286.532 262 287.384C261.576 288.728 261.322 289.97 260.284 290.932C259.846 291.266 259.703 291.346 259.326 291.743L259.326 290.932Z"/><path fill="#FEF576" transform="scale(2 2)" d="M234.664 279.516C236.977 276.771 239.443 274.146 242.737 272.666C239.936 275.312 238.227 278.049 235.952 280.377C235.486 279.995 235.173 279.828 234.664 279.516Z"/><path fill="#FEF576" transform="scale(2 2)" d="M292.289 259.71C291.81 260.639 290.406 261.381 291.118 262.229C283.18 271.61 282.976 266.343 292.289 259.71Z"/><path fill="#FEF21C" transform="scale(2 2)" d="M266.193 285.655C266.78 285.094 267.724 284.315 268.525 284.125L268.981 284.45C269.059 285.468 268.467 285.677 268.094 286.467C267.481 287.162 266.475 288.13 266.193 288.923L266.193 288.923C266.107 288.314 265.852 287.93 265.569 287.384L265.335 286.574L264.746 286.467C265.304 286.091 265.598 285.953 266.193 285.655Z"/><path fill="#FEF576" transform="scale(2 2)" d="M259.326 284.456C259.922 283.895 260.049 283.678 260.859 283.538C261.061 283.708 261.82 284.378 262 284.456C262.67 285.327 263.465 286.925 264.746 286.467L265.335 286.574L265.569 287.384C263.688 286.609 263.727 286.377 262 287.384C261.656 286.532 261.039 286.217 260.284 285.655L259.326 284.456Z"/><path fill="#FEF21C" transform="scale(2 2)" d="M262 284.456C263.792 283.636 264.42 284.956 266.193 285.655C265.598 285.953 265.304 286.091 264.746 286.467C263.465 286.925 262.67 285.327 262 284.456Z"/><path fill="#FEF21C" transform="scale(2 2)" d="M257.202 280.377C258.982 281.436 259.459 282.04 260.859 283.538C260.049 283.678 259.922 283.895 259.326 284.456C258.6 282.906 258.062 281.854 257.202 280.377Z"/><path fill="#FEF21C" transform="scale(2 2)" d="M260.859 266.494L261.816 266.58C262.76 264.524 261.457 262.05 261.882 261.513C262.408 262.001 262.59 268.068 262.777 269.577L259.326 270.339C258.181 269.555 257.442 268.949 256.125 268.493L255.9 268.51L256.125 260.961L258.659 263.419C260.536 264.362 259.99 264.733 260.859 266.494Z"/><path fill="#FEF576" transform="scale(2 2)" d="M256.125 268.493L255.9 268.51L256.125 260.961L258.659 263.419C257.247 264.654 256.512 265.623 258.659 266.494C257.81 267.231 257.094 267.92 256.125 268.493Z"/><path fill="#FDF9C5" transform="scale(2 2)" d="M258.659 263.419C260.536 264.362 259.99 264.733 260.859 266.494L261.486 267.499L261.355 267.717C260.468 267.159 259.673 266.492 258.659 266.494C256.512 265.623 257.247 264.654 258.659 263.419Z"/><path fill="#F09E13" transform="scale(2 2)" d="M212.161 128.418C234.064 111.149 260.87 116.09 278.302 136.892C278.818 137.508 278.532 137.573 278.985 137.367C278.602 136.051 275.538 133.905 275.811 133.37C280.723 135.439 287.731 150.03 289.235 150.285C293.551 159.215 296.294 166.904 296.522 177.013L296.919 176.7C297.09 175.9 297.328 174.921 297.423 174.13C299.388 176.626 300.776 180.942 302.17 183.84C302.225 183.674 301.545 185.595 301.633 185.02C300.848 190.192 301.231 193.203 297.57 197.496C296.75 198.457 296.998 205.357 298.514 206.538C295.149 218.209 271.596 238.33 260.859 244.779C258.107 246.899 255.068 248.763 252.15 250.651C244.87 255.36 217.756 272.775 213.311 278.549C212.682 277.886 211.993 276.947 211.416 276.212L210.018 274.419C209.393 273.793 207.399 272.316 206.6 271.698C215.845 264.61 224.571 257.867 234.081 251.154C254.18 236.884 278.827 224.484 288.862 200.543C293.539 189.385 293.572 171.155 289.113 159.683C274.515 129.385 224.703 126.9 212.161 157.758C215.988 164.097 217.376 168.545 217.085 176.017C216.781 175.913 216.972 175.995 216.549 175.697C219.677 153.04 190.193 139.695 172.318 151.915C172.231 151.914 172.143 151.912 172.055 151.911C176.202 148.043 183.419 146.45 188.922 146.839C191.694 139.363 198.211 125.677 205.244 121.172L205.903 121.172C207.264 123.713 209.2 125.13 211.416 126.938C211.706 127.89 211.534 127.842 212.161 128.418Z"/><defs><linearGradient id="gradient_3" gradientUnits="userSpaceOnUse" x1="225.25415" y1="217.78006" x2="290.57498" y2="235.13589"><stop offset="0" stop-color="#FFD23A"/><stop offset="1" stop-color="#FFFD6F"/></linearGradient></defs><path fill="url(#gradient_3)" transform="scale(2 2)" d="M296.522 177.013L296.919 176.7C297.09 175.9 297.328 174.921 297.423 174.13C299.388 176.626 300.776 180.942 302.17 183.84C302.225 183.674 301.545 185.595 301.633 185.02C300.848 190.192 301.231 193.203 297.57 197.496C296.75 198.457 296.998 205.357 298.514 206.538C295.149 218.209 271.596 238.33 260.859 244.779C258.107 246.899 255.068 248.763 252.15 250.651C244.87 255.36 217.756 272.775 213.311 278.549C212.682 277.886 211.993 276.947 211.416 276.212L210.018 274.419L210.837 273.551C218.008 265.973 239.913 251.382 248.811 245.389C276.239 226.917 297.6 212.611 296.522 177.013Z"/><path fill="#FCCA1C" transform="scale(2 2)" d="M205.244 121.172L205.903 121.172C207.264 123.713 209.2 125.13 211.416 126.938C211.706 127.89 211.534 127.842 212.161 128.418C205.024 135.167 202.568 140.293 198.794 149.208C195.244 147.946 192.662 147.26 188.922 146.839C191.694 139.363 198.211 125.677 205.244 121.172Z"/><defs><linearGradient id="gradient_4" gradientUnits="userSpaceOnUse" x1="247.004" y1="129.2256" x2="207.2534" y2="77.126587"><stop offset="0" stop-color="#FEEF00"/><stop offset="1" stop-color="white"/></linearGradient></defs><path fill="url(#gradient_4)" transform="scale(2 2)" d="M205.903 91.0498C222.512 82.1958 237.692 82.345 255.453 82.048L258.659 82.048C268.723 83.8225 285.286 87.6133 293.685 93.7969L293.583 93.9828C288.946 92.3126 283.546 87.7325 277.919 87.0437L278.066 87.4891C279.085 90.637 257.552 102.26 253.411 108.836L253.577 109.222C257.046 109.487 260.586 110.779 263.853 111.983L263.609 112.163C245.773 107.178 229.714 106.076 212.733 116.052C211.547 116.749 207.145 119.229 206.6 120.247C206.307 121.081 206.571 120.818 205.903 121.172L205.244 121.172C202.904 120.246 198.559 115.226 195.864 113.492C194.322 113.555 190.9 113.703 190.696 115.648C189.97 122.579 188.51 134.144 187.21 141.07L186.796 140.907C184.984 137.03 187.496 122.879 187.034 121.794L186.684 121.991L186.769 122.429C185.499 123.717 171.157 124.907 169.131 123.483C168.478 121.32 173.364 118.231 174.533 115.559C176.027 114.115 177.734 112.836 179.373 111.551C180.205 110.56 180.983 109.744 181.873 108.815C182.926 108.188 183.634 107.432 184.527 106.592C182.919 105.173 180.673 104.509 180.304 102.664C181.703 101.338 183.012 100.062 184.527 98.8618C183.699 97.6582 183.498 97.3515 182.958 96.0044L183.57 96.0044C186.034 93.2392 188.008 91.5082 191.418 89.8988C192.358 89.3701 192.74 89.2256 193.76 88.8441C196.162 87.0521 197.33 86.4752 200.117 85.3346C199.306 86.7813 198.126 86.2939 197.529 87.4831C197.905 89.8014 199.693 88.4504 201.332 88.8441C201.652 88.2095 202.345 87.7482 202.914 87.278C203.99 89.634 205.017 89.4189 205.903 91.0498Z"/><path fill="#FEF576" transform="scale(2 2)" d="M193.76 88.8441C196.162 87.0521 197.33 86.4752 200.117 85.3346C199.306 86.7813 198.126 86.2939 197.529 87.4831C197.905 89.8014 199.693 88.4504 201.332 88.8441C201.652 88.2095 202.345 87.7482 202.914 87.278C203.99 89.634 205.017 89.4189 205.903 91.0498L205.244 91.0498C202.893 92.4241 197.779 95.3963 195.864 97.1885C192.78 95.1852 194.477 94.0125 193.466 92.1567L192.731 92.2718C190.642 91.7682 193.301 91.4713 193.621 91.1842L193.315 90.8643C192.844 90.7664 192.791 90.7798 192.325 90.8331L191.418 89.8988C192.358 89.3701 192.74 89.2256 193.76 88.8441Z"/><path fill="#FEF21C" transform="scale(2 2)" d="M193.76 88.8441C196.162 87.0521 197.33 86.4752 200.117 85.3346C199.306 86.7813 198.126 86.2939 197.529 87.4831C197.905 89.8014 199.693 88.4504 201.332 88.8441C198.709 89.4515 197.06 89.9863 194.589 91.0498C194.323 89.9524 194.281 89.8382 193.76 88.8441Z"/><path fill="#FDF9C5" transform="scale(2 2)" d="M183.57 96.0044C186.034 93.2392 188.008 91.5082 191.418 89.8988L192.325 90.8331C192.791 90.7798 192.844 90.7664 193.315 90.8643L193.621 91.1842C193.301 91.4713 190.642 91.7682 192.731 92.2718L193.466 92.1567C194.477 94.0125 192.78 95.1852 195.864 97.1885C192.185 100.984 190.559 100.641 187.054 97.1885C185.849 96.3646 185.001 96.2566 183.57 96.0044Z"/><path fill="#FCF1A8" transform="scale(2 2)" d="M183.57 96.0044C186.034 93.2392 188.008 91.5082 191.418 89.8988L192.325 90.8331C192.791 90.7798 192.844 90.7664 193.315 90.8643L193.621 91.1842C193.301 91.4713 190.642 91.7682 192.731 92.2718C189.303 94.4177 189.6 95.2287 187.054 97.1885C185.849 96.3646 185.001 96.2566 183.57 96.0044Z"/><path fill="#FDF9C5" transform="scale(2 2)" d="M184.527 98.8618L187.054 103.505C186.091 104.853 185.698 105.395 184.527 106.592C182.919 105.173 180.673 104.509 180.304 102.664C181.703 101.338 183.012 100.062 184.527 98.8618Z"/><path fill="#FDFDF0" transform="scale(2 2)" d="M255.453 82.048L258.659 82.048C260.363 92.7813 251.684 88.6276 255.453 82.048Z"/><path fill="#FDF9C5" transform="scale(2 2)" d="M321.144 93.9561C324.534 91.2357 317.811 89.707 326.912 85.1863C357.696 70.2658 379.32 109.245 367.457 116.58C363.376 119.103 353.524 117.17 348.24 118.25C345.737 117.952 343.718 117.826 341.22 117.706C342.286 115.678 343.242 114.237 344.5 112.342L344.882 112.005C346.062 110.95 352.543 104.343 353.085 103.202C351.803 103.926 341.372 115.318 340.887 116.56C341.494 119.825 351.981 117.335 353.43 118.556C352.7 122.491 342.622 118.942 340.579 121.079C340.533 122.902 344.451 128.314 345.977 129.132L346.144 128.999L346.144 128.999C348.236 131.063 350.562 133.439 352.505 135.653C352.531 136.175 352.584 136.476 352.505 136.977L350.061 134.812C347.936 133 345.315 130.379 343.241 128.418C341.701 127.154 339.648 125.578 338.357 124.127C338.639 129.127 337.791 131.471 337.768 135.653L337.768 136.977L337.731 137.211C337.552 138.401 337.787 139.784 337.383 140.427L337.103 140.432L336.681 139.997C336.606 136.916 336.23 133.726 336.164 130.377C335.721 129.096 335.59 128.243 335.343 126.923L335.18 127.26C334.021 127.325 333.158 126.299 332.625 126.503C331.521 126.925 331.554 128.185 329.883 128.418C328.241 129.629 326.702 131.441 325.524 132.314L325.221 132.28L325.191 132.003L326.361 130.926C325.698 130.973 325.423 131.237 324.796 131.584L324.336 131.418C326.367 129.059 331.159 124.068 331.777 121.17C330.663 120.322 315.007 120.119 312.748 120.247L312.54 119.972C311.884 119.844 310.464 119.474 309.972 119.077L310.212 119.211L310.542 118.861C311.913 118.856 313.958 118.57 315.294 118.302L315.542 118.25C320.631 118.127 326.192 118.018 331.253 117.706C327.321 112.507 324.834 109.916 320.047 105.532L321.144 104.539C320.506 103.811 318.74 102.101 318.445 101.431C317.818 100.122 317.209 100.604 316.789 99.4899C319.747 100.884 323.838 104.486 326.405 106.592C327.421 104.418 329.812 101.706 329.883 99.7401C327.223 97.6992 324.139 95.46 321.144 93.9561Z"/><defs><linearGradient id="gradient_5" gradientUnits="userSpaceOnUse" x1="320.03665" y1="96.08271" x2="335.97348" y2="112.57626"><stop offset="0" stop-color="#FFB008"/><stop offset="1" stop-color="#FFFF12"/></linearGradient></defs><path fill="url(#gradient_5)" transform="scale(2 2)" d="M318.445 101.431C317.818 100.122 317.209 100.604 316.789 99.4899C319.747 100.884 323.838 104.486 326.405 106.592C327.421 104.418 329.812 101.706 329.883 99.7401L336.164 104.539C336.067 107.781 335.724 112.357 335.19 115.559C329.525 112.072 326.213 108.477 321.144 104.539C320.506 103.811 318.74 102.101 318.445 101.431Z"/><path fill="#FEF21C" transform="scale(2 2)" d="M344.5 112.342C345.465 113.42 350.085 117.067 348.24 118.25C345.737 117.952 343.718 117.826 341.22 117.706C342.286 115.678 343.242 114.237 344.5 112.342Z"/><path fill="#FEF21C" transform="scale(2 2)" d="M329.883 128.418C331.853 126.214 333.56 124.925 336.164 123.47C335.941 126.403 336.041 127.504 336.164 130.377C335.721 129.096 335.59 128.243 335.343 126.923L335.18 127.26C334.021 127.325 333.158 126.299 332.625 126.503C331.521 126.925 331.554 128.185 329.883 128.418Z"/><path fill="#FEF21C" transform="scale(2 2)" d="M338.357 106.592C339.118 106.902 342.235 109.915 343.241 110.775C342.525 111.905 342.061 112.472 341.22 113.492C340.212 114.177 339.326 114.83 338.357 115.559C338.579 112.543 338.239 109.685 338.357 106.592Z"/><defs><linearGradient id="gradient_6" gradientUnits="userSpaceOnUse" x1="269.06717" y1="73.83754" x2="259.82172" y2="106.38316"><stop offset="0" stop-color="#FDAA07"/><stop offset="1" stop-color="#FFC61E"/></linearGradient></defs><path fill="url(#gradient_6)" transform="scale(2 2)" d="M200.117 85.3346C202.294 83.7382 206.76 81.9585 209.42 81.0426C242.255 69.7391 292.461 72.2266 321.144 93.9561C324.139 95.46 327.223 97.6992 329.883 99.7401C329.812 101.706 327.421 104.418 326.405 106.592C323.838 104.486 319.747 100.884 316.789 99.4899C317.209 100.604 317.818 100.122 318.445 101.431C317.403 100.875 316.544 100.356 315.542 99.7401C311.696 93.1799 286.252 83.5286 278.386 81.4997C259.521 76.634 220.6 76.7852 202.914 87.278C202.345 87.7482 201.652 88.2095 201.332 88.8441C199.693 88.4504 197.905 89.8014 197.529 87.4831C198.126 86.2939 199.306 86.7813 200.117 85.3346Z"/><path fill="#FEF576" transform="scale(2 2)" d="M289.235 150.285C290.631 150.259 295.96 153.573 296.722 154.498C306.617 166.499 305.583 194.093 298.514 206.538C296.998 205.357 296.75 198.457 297.57 197.496C301.231 193.203 300.848 190.192 301.633 185.02C301.545 185.595 302.225 183.674 302.17 183.84C300.776 180.942 299.388 176.626 297.423 174.13C297.328 174.921 297.09 175.9 296.919 176.7L296.522 177.013C296.294 166.904 293.551 159.215 289.235 150.285Z"/><path fill="#FEF576" transform="scale(2 2)" d="M324.336 131.418L324.796 131.584C325.423 131.237 325.698 130.973 326.361 130.926L325.191 132.003L325.221 132.28L325.524 132.314C322.74 135.939 318.834 138.741 316.399 141.665L315.542 141.665C316.836 139.885 322.832 132.613 324.336 131.418Z"/><path fill="#FEF21C" transform="scale(2 2)" d="M337.768 135.653C337.791 131.471 338.639 129.127 338.357 124.127C339.648 125.578 341.701 127.154 343.241 128.418C341.453 129.491 340.737 130.104 340.457 132.314L340.028 132.185C340.661 126.45 343.279 128.336 340.111 129.684C337.312 130.875 338.969 132.076 337.768 135.653Z"/><path fill="#FEF576" transform="scale(2 2)" d="M302.52 118.861C305.999 118.409 311.996 118.178 315.542 118.25L315.294 118.302C313.958 118.57 311.913 118.856 310.542 118.861L310.212 119.211L309.972 119.077C310.464 119.474 311.884 119.844 312.54 119.972L312.748 120.247C309.447 120.361 303.466 119.639 300.314 118.861C301.119 118.889 301.714 118.886 302.52 118.861Z"/><path fill="#FEF576" transform="scale(2 2)" d="M337.768 136.977C338.114 142.758 337.716 148.929 337.768 154.784C336.9 151.125 336.403 143.775 336.681 139.997L337.103 140.432L337.383 140.427C337.787 139.784 337.552 138.401 337.731 137.211L337.768 136.977Z"/><path fill="#FEF576" transform="scale(2 2)" d="M315.542 99.7401C316.544 100.356 317.403 100.875 318.445 101.431C318.74 102.101 320.506 103.811 321.144 104.539L320.047 105.532C319.06 104.923 315.372 101.364 314.941 100.251L315.542 99.7401Z"/><path fill="#FEF576" transform="scale(2 2)" d="M206.6 120.247C207.882 121.987 211.308 125.427 211.416 126.938C209.2 125.13 207.264 123.713 205.903 121.172C206.571 120.818 206.307 121.081 206.6 120.247Z"/><path fill="#FEF576" transform="scale(2 2)" d="M309.051 241.831C309.91 240.831 312.348 238.162 313.623 238.158L313.973 238.656C312.383 240.174 311.572 241.148 310.176 242.871L309.051 241.831Z"/><path fill="#FEF21C" transform="scale(2 2)" d="M309.051 148.215C311.378 145.781 312.73 143.574 315.542 141.665L316.399 141.665C314.484 143.81 311.517 146.895 309.051 148.215Z"/><path fill="#FEF21C" transform="scale(2 2)" d="M296.522 118.861C298.567 118.705 300.477 118.798 302.52 118.861C301.714 118.886 301.119 118.889 300.314 118.861C298.952 119.149 297.871 119.001 296.522 118.861Z"/><path fill="#FEF21C" transform="scale(2 2)" d="M321.144 165.742C324.683 165.587 324.398 167.978 327.107 169.341C327.681 169.63 330.154 169.417 331.462 169.791C331.349 177.453 335.813 173.883 329.883 177.013C328.6 177.696 324.427 176.572 325.415 174.155C324.276 172.332 322.682 173.715 324.731 171.112C325.137 170.596 321.793 167.517 321.144 165.742Z"/><path fill="#FDF9C5" transform="scale(2 2)" d="M326.405 169.333C328.011 170.225 329.443 170.318 331.253 170.542L330.703 172.686C331.346 173.568 332.553 175.123 333.053 176.017C331.6 175.504 330.089 175.004 328.676 174.402C327.952 174.917 327.637 175.238 326.757 175.38L326.439 175.078C326.435 174.157 326.894 173.522 327.332 172.686C326.852 172.045 326.062 171.175 325.524 170.542L326.405 169.333Z"/><path fill="#FCF1A8" transform="scale(2 2)" d="M327.332 172.686C327.868 173.566 327.927 173.728 328.676 174.402C327.952 174.917 327.637 175.238 326.757 175.38L326.439 175.078C326.435 174.157 326.894 173.522 327.332 172.686Z"/><path fill="#FEF576" transform="scale(2 2)" d="M321.144 165.742C322.922 166.571 324.988 167.963 326.405 169.333L325.524 170.542C324.505 169.945 321.849 166.814 321.144 165.742Z"/><path fill="#FDF9C5" transform="scale(2 2)" d="M308.496 194.276C310.336 194.257 312.133 194.249 313.973 194.276C313.575 195.813 313.348 196.417 312.748 197.86C310.666 200.65 308.876 195.742 308.496 194.276Z"/><path fill="#FDFDF0" transform="scale(2 2)" d="M273.575 93.9561C276.253 94.3002 278.186 96.3661 276.453 98.8618C272.755 98.919 271.617 97.4855 273.575 93.9561Z"/><path fill="#F4B722" transform="scale(2 2)" d="M205.903 272.666C206.617 273.529 207.418 274.456 208.099 275.333C208.873 276.252 209.097 276.547 210.018 277.284C211.235 278.565 212.912 280.206 213.952 281.562C216.008 282.927 218.124 285.503 219.726 287.384C220.579 288.474 220.876 288.959 221.552 290.172C221.118 290.894 220.557 291.911 220.049 292.549C219.344 293.716 217.801 296.318 216.499 296.731C216.328 297.033 215.413 298.594 215.357 298.816C215.058 300.401 212.45 301.148 211.709 303.216L212.161 303.705C214.252 301.574 216.25 299.515 218.451 297.492C218.738 298.035 218.634 297.746 218.597 298.434C222.709 297.298 222.429 302.031 229.552 296.731C231.864 298.671 233.814 300.399 235.952 302.544L237.282 303.705C235.235 304.578 233.062 307.817 231.484 309.47C220.181 321.308 213.597 336.632 213.904 353.107C213.927 354.365 213.611 356.403 213.952 357.532L213.952 357.532L213.952 358.696L213.952 358.696L220.049 358.696C220.252 360.194 220.609 362.294 221.552 363.497L221.615 363.523C221.853 363.359 222.482 360.08 222.737 359.234C228.707 358.577 237.113 361.391 237.438 355.186L237.816 355.019C237.77 358.606 240.027 356.812 244.057 356.766C246.935 356.733 306.998 363.976 307.738 364.574C308.125 364.221 308.635 363.833 309.051 363.497C322.945 358.54 329.202 358.249 339.091 344.688C341.309 341.648 343.592 337.8 345.873 334.996L346.144 334.666C348.849 328.176 350.169 334.999 351.557 338.991C356.035 351.867 359.712 396.384 348.554 405.997C346.717 407.581 342.555 409.217 340.457 410.877C337.719 416.05 335.7 427.049 333.894 433.226L320.047 433.226L215.357 433.226L181.723 433.228C169.919 433.233 165.004 437.063 161.929 426.803C160.154 421.772 158.785 415.922 156.993 411.212C154.998 411.343 153.98 411.44 152.014 411.212C151.814 408.863 151.971 405.473 152.014 403.045L152.014 394.378C151.729 393.08 151.692 391.535 151.607 390.189C150.795 390.489 149.568 390.817 148.708 391.077C146.602 395.463 136.131 390.507 132.829 389.094C122.421 384.641 116.284 371.909 113.995 361.313C113.636 360.207 113.57 358.385 113.536 357.262C112.964 338.39 122.785 320.898 141.009 314.546C144.783 313.23 157.584 311.708 160.962 313.372C166.565 313.736 164.284 316.897 167.459 319.63C174.272 302.912 190.845 282.726 205.903 272.666ZM163.75 426.803C166.507 426.076 172.988 419.137 175.565 416.791L175.565 415.873L174.533 416.791C171.056 420 167.123 423.537 163.75 426.803Z"/><defs><linearGradient id="gradient_7" gradientUnits="userSpaceOnUse" x1="155.10254" y1="353.1774" x2="114.17764" y2="350.69119"><stop offset="0" stop-color="#FBF1A4"/><stop offset="1" stop-color="#FCF3D3"/></linearGradient></defs><path fill="url(#gradient_7)" transform="scale(2 2)" d="M205.903 272.666C206.617 273.529 207.418 274.456 208.099 275.333C208.873 276.252 209.097 276.547 210.018 277.284C211.235 278.565 212.912 280.206 213.952 281.562C216.008 282.927 218.124 285.503 219.726 287.384C220.579 288.474 220.876 288.959 221.552 290.172C221.118 290.894 220.557 291.911 220.049 292.549C219.344 293.716 217.801 296.318 216.499 296.731C216.328 297.033 215.413 298.594 215.357 298.816C215.058 300.401 212.45 301.148 211.709 303.216L212.161 303.705C214.252 301.574 216.25 299.515 218.451 297.492C218.738 298.035 218.634 297.746 218.597 298.434C222.709 297.298 222.429 302.031 229.552 296.731C231.864 298.671 233.814 300.399 235.952 302.544L237.282 303.705C235.235 304.578 233.062 307.817 231.484 309.47C220.181 321.308 213.597 336.632 213.904 353.107C213.927 354.365 213.611 356.403 213.952 357.532L213.952 357.532L213.952 358.696C211.91 359.237 198.893 359.447 196.629 359.234C192.272 359.673 179.716 360.341 175.565 359.852C171.961 360.258 168.121 361.048 164.55 360.904C163.875 362.969 184.179 382.858 187.054 385.743L187.586 386.702L187.054 387.006C188.823 389.972 193.338 393.627 195.864 396.889C195.457 398.028 195.216 399.518 195.31 400.716L195.864 401.143C195.326 402.656 194.838 403.484 193.76 404.708C194.01 403.869 194.597 403.001 195.059 402.231L194.759 401.907C193.768 401.54 191.079 400.902 190.061 401.143C183.503 408.68 187.018 404.242 187.054 409.022C186.91 410.311 186.69 411.188 187.054 412.42C186.032 412.889 185.657 414.651 184.527 415.873C183.697 414.926 182.74 414.131 181.873 413.179C181.381 413.809 181.134 413.873 180.304 414.07L180.304 414.07C179.318 413.546 178.648 413.055 177.741 412.42C177.502 412.601 176.945 413.049 176.717 413.179C176.334 414.057 175.906 414.985 175.565 415.873L175.565 415.873L174.533 416.791C171.056 420 167.123 423.537 163.75 426.803C162.681 427.135 163.099 427.075 161.929 426.803C160.154 421.772 158.785 415.922 156.993 411.212C154.998 411.343 153.98 411.44 152.014 411.212C151.814 408.863 151.971 405.473 152.014 403.045L152.014 394.378C151.729 393.08 151.692 391.535 151.607 390.189C150.795 390.489 149.568 390.817 148.708 391.077C146.602 395.463 136.131 390.507 132.829 389.094C122.421 384.641 116.284 371.909 113.995 361.313C113.636 360.207 113.57 358.385 113.536 357.262C112.964 338.39 122.785 320.898 141.009 314.546C144.783 313.23 157.584 311.708 160.962 313.372C166.565 313.736 164.284 316.897 167.459 319.63C174.272 302.912 190.845 282.726 205.903 272.666Z"/><path fill="#F4B722" transform="scale(2 2)" d="M218.451 297.492C218.738 298.035 218.634 297.746 218.597 298.434C222.709 297.298 222.429 302.031 229.552 296.731C231.864 298.671 233.814 300.399 235.952 302.544L237.282 303.705C235.235 304.578 233.062 307.817 231.484 309.47C220.181 321.308 213.597 336.632 213.904 353.107C213.927 354.365 213.611 356.403 213.952 357.532L213.952 357.532L213.952 358.696C211.91 359.237 198.893 359.447 196.629 359.234C192.272 359.673 179.716 360.341 175.565 359.852C177.041 359.538 179.053 359.82 179.984 358.276L179.755 357.79C178.762 357.146 177.911 357.173 176.717 357.038L176.717 357.038C175.634 341.977 174.318 349.671 171.495 346.608L172.055 345.069C172.65 343.987 176.591 340.104 177.741 338.863C178.555 338.272 181.131 335.47 181.873 334.666C189.421 328.562 197.904 317.307 205.903 309.963C207.536 308.014 210.362 305.998 212.161 303.705C214.252 301.574 216.25 299.515 218.451 297.492Z"/><defs><linearGradient id="gradient_8" gradientUnits="userSpaceOnUse" x1="223.14972" y1="308.77167" x2="222.74219" y2="297.48499"><stop offset="0" stop-color="#F8BC26"/><stop offset="1" stop-color="#FFF068"/></linearGradient></defs><path fill="url(#gradient_8)" transform="scale(2 2)" d="M218.451 297.492C218.738 298.035 218.634 297.746 218.597 298.434C222.709 297.298 222.429 302.031 229.552 296.731C231.864 298.671 233.814 300.399 235.952 302.544C235.647 307.339 221.838 309.352 217.75 308.859C214.42 308.459 212.842 307.045 210.018 306.58C208.997 307.658 207.333 309.681 205.903 309.963C207.536 308.014 210.362 305.998 212.161 303.705C214.252 301.574 216.25 299.515 218.451 297.492Z"/><path fill="#FEF576" transform="scale(2 2)" d="M176.717 357.038C182.625 356.323 189.464 357.544 195.864 357.038L196.106 357.114C198.042 357.714 198.905 357.825 200.855 357.887L200.879 358.831C199.658 359.263 199.052 358.348 196.629 359.234C192.272 359.673 179.716 360.341 175.565 359.852C177.041 359.538 179.053 359.82 179.984 358.276L179.755 357.79C178.762 357.146 177.911 357.173 176.717 357.038Z"/><path fill="#FEF21C" transform="scale(2 2)" d="M195.864 357.038C200.355 357.236 210.182 356.957 213.952 357.532L213.952 358.696C211.91 359.237 198.893 359.447 196.629 359.234C199.052 358.348 199.658 359.263 200.879 358.831L200.855 357.887C198.905 357.825 198.042 357.714 196.106 357.114L195.864 357.038Z"/><path fill="#FCCA1C" transform="scale(2 2)" d="M206.6 324.795C207.965 326.035 208.894 326.818 210.018 328.282C210.357 337.367 204.123 333.166 203.997 331.712C203.752 329.379 203.419 328.313 205.244 326.633C205.767 325.811 205.95 325.503 206.6 324.795Z"/><path fill="#FCF1A8" transform="scale(2 2)" d="M205.244 326.633C205.854 327.27 206.201 327.513 206.6 328.282C209.644 329.823 208.518 331.77 205.244 331.712C204.852 331.667 204.394 331.702 203.997 331.712C203.752 329.379 203.419 328.313 205.244 326.633Z"/><path fill="#FEE20F" transform="scale(2 2)" d="M205.244 326.633C205.854 327.27 206.201 327.513 206.6 328.282C205.809 329.343 205.618 330.431 205.244 331.712C204.852 331.667 204.394 331.702 203.997 331.712C203.752 329.379 203.419 328.313 205.244 326.633Z"/><path fill="#F4B722" transform="scale(2 2)" d="M205.903 272.666C206.617 273.529 207.418 274.456 208.099 275.333C208.873 276.252 209.097 276.547 210.018 277.284C211.235 278.565 212.912 280.206 213.952 281.562C216.008 282.927 218.124 285.503 219.726 287.384C220.579 288.474 220.876 288.959 221.552 290.172C221.118 290.894 220.557 291.911 220.049 292.549C219.344 293.716 217.801 296.318 216.499 296.731C216.328 297.033 215.413 298.594 215.357 298.816C215.058 300.401 212.45 301.148 211.709 303.216L212.161 303.705C210.362 305.998 207.536 308.014 205.903 309.963C197.904 317.307 189.421 328.562 181.873 334.666C181.131 335.47 178.555 338.272 177.741 338.863C177.289 338.963 176.703 339.36 176.313 339.615L176.153 339.52C176.777 338.872 176.865 338.6 176.717 337.635C174.426 339.684 172.259 341.971 170.051 343.937C167.969 345.811 165.654 347.851 163.75 349.88C162.566 349.243 161.532 349.058 160.221 348.916L160.221 347.829C160.215 345 160.473 343.181 160.962 340.399C162.723 334.946 163.378 330.66 165.552 324.795L167.459 319.63C174.272 302.912 190.845 282.726 205.903 272.666Z"/><defs><linearGradient id="gradient_9" gradientUnits="userSpaceOnUse" x1="176.5332" y1="303.51532" x2="187.00778" y2="310.91019"><stop offset="0" stop-color="#ED8313"/><stop offset="1" stop-color="#FFB81C"/></linearGradient></defs><path fill="url(#gradient_9)" transform="scale(2 2)" d="M205.903 272.666C206.617 273.529 207.418 274.456 208.099 275.333C185.538 292.13 171.111 312.125 165.613 339.881C165.545 340.224 165.553 340.605 165.552 340.952C165.178 342.411 164.712 344.209 163.155 344.572C161.413 343.075 162.82 341.854 160.962 340.399C162.723 334.946 163.378 330.66 165.552 324.795L167.459 319.63C174.272 302.912 190.845 282.726 205.903 272.666Z"/><path fill="#FEF576" transform="scale(2 2)" d="M181.112 333.303C183.438 329.645 196.862 317.782 200.513 314.251C204.773 310.132 210.796 302.138 215.357 298.816C215.058 300.401 212.45 301.148 211.709 303.216L212.161 303.705C210.362 305.998 207.536 308.014 205.903 309.963C197.904 317.307 189.421 328.562 181.873 334.666C181.131 335.47 178.555 338.272 177.741 338.863C177.289 338.963 176.703 339.36 176.313 339.615L176.153 339.52C176.777 338.872 176.865 338.6 176.717 337.635C177.655 336.49 179.962 334.403 181.112 333.303Z"/><path fill="#FDFDF0" transform="scale(2 2)" d="M181.112 333.303C180.771 335.764 177.319 336.495 181.799 334.286L181.873 334.666C181.131 335.47 178.555 338.272 177.741 338.863C177.289 338.963 176.703 339.36 176.313 339.615L176.153 339.52C176.777 338.872 176.865 338.6 176.717 337.635C177.655 336.49 179.962 334.403 181.112 333.303Z"/><path fill="#FEF576" transform="scale(2 2)" d="M213.952 281.562C216.008 282.927 218.124 285.503 219.726 287.384C220.579 288.474 220.876 288.959 221.552 290.172C221.118 290.894 220.557 291.911 220.049 292.549C219.344 293.716 217.801 296.318 216.499 296.731C216.269 295.891 217.341 295.636 217.66 294.87C217.309 294.036 210.766 292.736 213.968 288.708C214.695 289.2 213.635 291.071 214.678 292.291L215.125 292.167C214.652 288.609 215.488 287.978 216.499 284.456C215.664 283.507 214.681 282.401 213.392 282.156L213.952 281.562Z"/><path fill="#FCF1A8" transform="scale(2 2)" d="M219.726 287.384C220.579 288.474 220.876 288.959 221.552 290.172C221.118 290.894 220.557 291.911 220.049 292.549C219.337 292.19 217.915 291.93 217.085 291.743C217.931 289.676 218.38 289.065 219.726 287.384Z"/><path fill="#FEF21C" transform="scale(2 2)" d="M160.962 340.399C162.82 341.854 161.413 343.075 163.155 344.572C164.712 344.209 165.178 342.411 165.552 340.952C165.86 342.144 165.699 342.73 165.552 343.937C163.004 345.522 163.271 346.057 165.552 347.829C166.77 346.192 167.985 344.838 169.668 343.648L170.051 343.937C167.969 345.811 165.654 347.851 163.75 349.88C162.566 349.243 161.532 349.058 160.221 348.916L160.221 347.829C160.215 345 160.473 343.181 160.962 340.399Z"/><path fill="#F09E13" transform="scale(2 2)" d="M160.221 362.49C163.23 365.174 167.311 368.655 170.051 371.518C175.912 376.367 181.124 382.398 187.054 387.006C188.823 389.972 193.338 393.627 195.864 396.889C195.457 398.028 195.216 399.518 195.31 400.716L195.864 401.143C195.326 402.656 194.838 403.484 193.76 404.708C194.01 403.869 194.597 403.001 195.059 402.231L194.759 401.907C193.768 401.54 191.079 400.902 190.061 401.143C183.503 408.68 187.018 404.242 187.054 409.022C186.91 410.311 186.69 411.188 187.054 412.42C186.032 412.889 185.657 414.651 184.527 415.873C183.697 414.926 182.74 414.131 181.873 413.179C181.381 413.809 181.134 413.873 180.304 414.07L180.304 414.07C179.318 413.546 178.648 413.055 177.741 412.42C177.502 412.601 176.945 413.049 176.717 413.179C176.334 414.057 175.906 414.985 175.565 415.873L175.565 415.873L174.533 416.791C171.056 420 167.123 423.537 163.75 426.803C162.681 427.135 163.099 427.075 161.929 426.803C160.154 421.772 158.785 415.922 156.993 411.212C154.998 411.343 153.98 411.44 152.014 411.212C151.814 408.863 151.971 405.473 152.014 403.045L152.014 394.378C151.909 386.777 151.686 382.21 153.106 374.627C153.097 372.348 154.111 369.365 154.09 365.809C154.528 364.722 154.602 364.471 155.263 363.531L155.72 363.497L155.941 363.301C156.396 366.229 158.404 364.951 158.84 368.569C159.119 367.64 159.622 367.134 160.221 366.367C159.98 364.84 160.1 364.005 160.221 362.49Z"/><path fill="#E2860F" transform="scale(2 2)" d="M154.09 365.809C154.528 364.722 154.602 364.471 155.263 363.531L155.72 363.497C155.91 365.918 156.309 371.377 155.72 373.602L155.72 373.602C154.937 378.308 156.534 383.095 153.413 384.137L153.636 384.356C157.168 384.301 156.302 395.88 156.194 399.301C156.103 401.315 156.022 402.711 156.194 404.708C157.717 403.623 159.593 402.361 160.962 401.143C163.255 400.732 166.121 400.967 168.441 401.143C169.282 401.959 172.606 405.276 173.473 405.528L174.533 406.89C172.98 408.584 172.529 409.635 170.755 411.212C171.817 411.898 172.516 412.324 173.473 413.179C174.211 414.09 174.878 414.916 175.565 415.873L175.565 415.873L174.533 416.791C171.056 420 167.123 423.537 163.75 426.803C162.681 427.135 163.099 427.075 161.929 426.803C160.154 421.772 158.785 415.922 156.993 411.212C154.998 411.343 153.98 411.44 152.014 411.212C151.814 408.863 151.971 405.473 152.014 403.045L152.014 394.378C151.909 386.777 151.686 382.21 153.106 374.627C153.097 372.348 154.111 369.365 154.09 365.809Z"/><path fill="#955117" transform="scale(2 2)" d="M156.993 411.212C161.408 411.212 165.607 411.297 170.051 411.212L170.755 411.212C171.817 411.898 172.516 412.324 173.473 413.179C174.211 414.09 174.878 414.916 175.565 415.873L175.565 415.873L174.533 416.791C171.056 420 167.123 423.537 163.75 426.803C162.681 427.135 163.099 427.075 161.929 426.803C160.154 421.772 158.785 415.922 156.993 411.212Z"/><path fill="#CD8019" transform="scale(2 2)" d="M170.051 411.212L170.755 411.212C171.817 411.898 172.516 412.324 173.473 413.179C174.211 414.09 174.878 414.916 175.565 415.873L175.565 415.873L174.533 416.791C172.287 414.392 170.86 415.868 170.051 411.212Z"/><path fill="#F09E13" transform="scale(2 2)" d="M154.09 365.809C154.528 364.722 154.602 364.471 155.263 363.531L155.72 363.497C155.91 365.918 156.309 371.377 155.72 373.602L155.72 373.602C154.937 378.308 156.534 383.095 153.413 384.137L153.636 384.356C157.168 384.301 156.302 395.88 156.194 399.301C156.121 398.996 155.614 396.605 155.566 396.542L155.604 396.649L155.334 396.872C155.723 399.433 155.345 402.679 155.857 404.847C157.284 404.945 159.706 402.546 160.539 402.488C160.33 402.896 158.8 406.603 158.794 406.636L159.375 407.646L159.115 407.933L158.653 407.624C155.964 409.242 157.936 407.746 155.74 407.685L155.371 408.054L154.719 407.583C151.165 409.835 152.546 398.43 152.446 396.989C152.396 398.337 152.337 401.954 152.014 403.045L152.014 394.378C151.909 386.777 151.686 382.21 153.106 374.627C153.097 372.348 154.111 369.365 154.09 365.809Z"/><path fill="#FEF576" transform="scale(2 2)" d="M154.09 365.809C154.528 364.722 154.602 364.471 155.263 363.531L155.72 363.497C155.91 365.918 156.309 371.377 155.72 373.602L155.72 373.602C155.137 370.508 156.055 369.03 155.72 366.367C154.064 369.941 154.319 372.187 153.363 374.564L153.106 374.627C153.097 372.348 154.111 369.365 154.09 365.809Z"/><path fill="#FEF21C" transform="scale(2 2)" d="M188.373 402.049C189.1 401.424 189.18 401.452 190.061 401.143C183.503 408.68 187.018 404.242 187.054 409.022C186.91 410.311 186.69 411.188 187.054 412.42C186.032 412.889 185.657 414.651 184.527 415.873C183.697 414.926 182.74 414.131 181.873 413.179C181.381 413.809 181.134 413.873 180.304 414.07L180.304 414.07C179.318 413.546 178.648 413.055 177.741 412.42C177.502 412.601 176.945 413.049 176.717 413.179C176.334 414.057 175.906 414.985 175.565 415.873C174.878 414.916 174.211 414.09 173.473 413.179C172.516 412.324 171.817 411.898 170.755 411.212C172.529 409.635 172.98 408.584 174.533 406.89L173.473 405.528L174.533 405.528L175.565 406.89C177.342 405.08 178.764 405.942 179.373 403.753L180.304 403.753C180.879 406.146 182.371 405.113 184.527 405.528L188.373 402.049Z"/><path fill="#FCFCF9" transform="scale(2 2)" d="M177.741 412.42L177.321 410.361C180.593 407.871 185.023 408.802 181.873 413.179C181.381 413.809 181.134 413.873 180.304 414.07L180.304 414.07C179.318 413.546 178.648 413.055 177.741 412.42Z"/><path fill="#FEE20F" transform="scale(2 2)" d="M179.373 403.753L180.304 403.753C180.879 406.146 182.371 405.113 184.527 405.528C184.189 406.038 183.954 406.407 183.57 406.89C178.428 406.797 180.751 409.393 175.565 406.89C177.342 405.08 178.764 405.942 179.373 403.753Z"/><path fill="#FCCA1C" transform="scale(2 2)" d="M174.533 406.89C175.21 407.852 175.478 408.188 176.306 409.022C175.531 409.618 173.935 410.596 173.473 411.212C173.729 411.875 173.566 412.456 173.473 413.179C172.516 412.324 171.817 411.898 170.755 411.212C172.529 409.635 172.98 408.584 174.533 406.89Z"/><path fill="#FEE20F" transform="scale(2 2)" d="M173.473 411.212C174.619 411.781 175.399 411.328 176.155 411.962L176.717 413.179C176.334 414.057 175.906 414.985 175.565 415.873C174.878 414.916 174.211 414.09 173.473 413.179C173.566 412.456 173.729 411.875 173.473 411.212Z"/><path fill="#FCCA1C" transform="scale(2 2)" d="M155.72 373.602L155.72 373.602C155.745 374.918 155.813 376.756 155.72 378.027C154.42 384.548 155.741 383.334 160.962 383.466C161.035 389.312 160.836 395.359 160.962 401.143C159.593 402.361 157.717 403.623 156.194 404.708C156.022 402.711 156.103 401.315 156.194 399.301C156.302 395.88 157.168 384.301 153.636 384.356L153.413 384.137C156.534 383.095 154.937 378.308 155.72 373.602Z"/><path fill="#FEF576" transform="scale(2 2)" d="M155.72 363.497L155.941 363.301C156.396 366.229 158.404 364.951 158.84 368.569C159.119 367.64 159.622 367.134 160.221 366.367L160.962 371.518C160.843 375.497 160.767 379.487 160.962 383.466C155.741 383.334 154.42 384.548 155.72 378.027C155.813 376.756 155.745 374.918 155.72 373.602C156.309 371.377 155.91 365.918 155.72 363.497Z"/><path fill="#FCFCF9" transform="scale(2 2)" d="M155.72 363.497L155.941 363.301C156.396 366.229 158.404 364.951 158.84 368.569C158.084 371.131 158.379 376.55 156.321 377.926L155.72 378.027C155.813 376.756 155.745 374.918 155.72 373.602C156.309 371.377 155.91 365.918 155.72 363.497Z"/><path fill="#E2860F" transform="scale(2 2)" d="M170.051 401.143C172.102 400.758 177.25 400.943 179.373 401.143C179.546 402.37 179.637 402.581 179.373 403.753C178.764 405.942 177.342 405.08 175.565 406.89L174.533 405.528C172.902 404.155 171.521 402.681 170.051 401.143Z"/><path fill="#E2860F" transform="scale(2 2)" d="M180.304 400.627C182.345 399.868 186.801 400.622 188.373 402.049L184.527 405.528C182.371 405.113 180.879 406.146 180.304 403.753C180.24 402.557 180.24 401.824 180.304 400.627Z"/><path fill="#FEF21C" transform="scale(2 2)" d="M160.221 362.49C163.23 365.174 167.311 368.655 170.051 371.518C168.609 373.18 169.297 375.231 168.503 376.549L168.199 376.522L168.15 376.105L168.453 375.979C169.705 371.796 167.798 367.211 163.322 367.51C160.299 367.713 160.518 370.568 163.098 371.614L162.888 371.849C162.238 371.744 161.61 371.637 160.962 371.518L160.221 366.367C159.98 364.84 160.1 364.005 160.221 362.49Z"/><defs><linearGradient id="gradient_10" gradientUnits="userSpaceOnUse" x1="183.53554" y1="390.49875" x2="137.73236" y2="341.87143"><stop offset="0" stop-color="#FEFBE5"/><stop offset="1" stop-color="#FEFEFF"/></linearGradient></defs><path fill="url(#gradient_10)" transform="scale(2 2)" d="M123.083 359.234C124.169 358.651 129.237 359.104 130.82 359.15C131.199 355.896 126.999 357.539 124.949 357.218C128.869 356.663 152.104 357.151 153.367 355.64C152.968 353.629 139.629 339.736 136.502 336.025L136.634 335.84C138.299 336.697 138.904 340.142 140.831 339.225C140.275 337.963 139.058 337.839 138.582 336.276C138.241 336.192 154.133 351.233 155.72 352.681C155.753 349.717 155.788 348.039 156.194 345.069C156.434 343.106 155.726 337.384 157.692 336.981C158.17 338.237 157.502 339.172 157.947 340.399C159.278 344.252 159.552 343.662 160.221 347.829L160.221 348.916C161.532 349.058 162.566 349.243 163.75 349.88C165.654 347.851 167.969 345.811 170.051 343.937C172.259 341.971 174.426 339.684 176.717 337.635C176.865 338.6 176.777 338.872 176.153 339.52L176.313 339.615C176.703 339.36 177.289 338.963 177.741 338.863C176.591 340.104 172.65 343.987 172.055 345.069L171.495 346.608C174.318 349.671 175.634 341.977 176.717 357.038L176.717 357.038C177.911 357.173 178.762 357.146 179.755 357.79L179.984 358.276C179.053 359.82 177.041 359.538 175.565 359.852C171.961 360.258 168.121 361.048 164.55 360.904C163.875 362.969 184.179 382.858 187.054 385.743L187.586 386.702L187.054 387.006C181.124 382.398 175.912 376.367 170.051 371.518C167.311 368.655 163.23 365.174 160.221 362.49C160.1 364.005 159.98 364.84 160.221 366.367C159.622 367.134 159.119 367.64 158.84 368.569C158.404 364.951 156.396 366.229 155.941 363.301L155.72 363.497L155.263 363.531C154.602 364.471 154.528 364.722 154.09 365.809C148.179 370.151 140.1 377.986 135.13 383.514L135.086 383.235C135.622 382.567 136.74 381.361 136.88 380.607L136.568 380.532C133.978 382.36 133.387 384.599 130.796 384.737L130.592 384.499C131.869 384.595 132.186 384.588 133.066 383.466L132.653 383.339C127.507 385.579 116.8 362.538 118.712 359.815C119.91 359.256 121.697 359.302 123.083 359.234Z"/><path fill="#FCF1A8" transform="scale(2 2)" d="M123.083 359.234C129.095 359.244 135.822 359.564 141.851 359.852C145.402 360.514 142.777 361.694 144.169 363.876C145.311 365.665 147.439 365.532 148.708 367.011C143.141 371.789 137.924 379.248 133.066 383.466L132.653 383.339C127.507 385.579 116.8 362.538 118.712 359.815C119.91 359.256 121.697 359.302 123.083 359.234Z"/><path fill="#FEF21C" transform="scale(2 2)" d="M172.055 345.069L171.495 346.608C174.318 349.671 175.634 341.977 176.717 357.038C173.328 356.777 171.853 356.742 168.441 357.038C167.775 355.26 167.171 353.357 166.462 351.63C168.269 349.386 170.021 347.107 172.055 345.069Z"/><path fill="#FDF9C5" transform="scale(2 2)" d="M141.851 359.852C143.409 359.865 152.339 359.81 153.23 360.058L153.613 360.489C153.437 361.916 149.866 365.434 148.708 367.011C147.439 365.532 145.311 365.665 144.169 363.876C142.777 361.694 145.402 360.514 141.851 359.852Z"/><path fill="#FCF1A8" transform="scale(2 2)" d="M161.929 357.038C163.408 355.575 164.989 353.321 166.462 351.63C167.171 353.357 167.775 355.26 168.441 357.038C167.011 357.19 163.918 356.938 161.929 357.038Z"/><path fill="#FEF576" transform="scale(2 2)" d="M160.221 348.916C161.532 349.058 162.566 349.243 163.75 349.88C162.561 351.08 161.393 352.306 160.221 353.524C160.175 352.022 160.211 350.428 160.221 348.916Z"/><path fill="#FCF1A8" transform="scale(2 2)" d="M160.962 313.372C166.565 313.736 164.284 316.897 167.459 319.63L165.552 324.795C163.378 330.66 162.723 334.946 160.962 340.399C160.473 343.181 160.215 345 160.221 347.829C159.552 343.662 159.278 344.252 157.947 340.399C159.249 333.351 156.965 322.595 158.488 314.154L158.168 313.84C157.603 315.005 157.072 315.338 156.199 314.123L156.3 313.552C157.066 313.187 159.934 313.346 160.962 313.372L160.962 313.372Z"/><path fill="#FDF9C5" transform="scale(2 2)" d="M160.962 313.372C166.565 313.736 164.284 316.897 167.459 319.63L165.552 324.795C158.409 322.923 167.192 319.232 164.903 315.96C163.677 314.208 163.078 313.732 160.962 313.372L160.962 313.372Z"/><path fill="#FDFDF0" transform="scale(2 2)" d="M113.995 361.313C113.636 360.207 113.57 358.385 113.536 357.262C112.964 338.39 122.785 320.898 141.009 314.546C144.783 313.23 157.584 311.708 160.962 313.372L160.962 313.372C159.934 313.346 157.066 313.187 156.3 313.552L156.199 314.123C157.072 315.338 157.603 315.005 158.168 313.84L158.488 314.154C156.965 322.595 159.249 333.351 157.947 340.399C157.502 339.172 158.17 338.237 157.692 336.981C155.726 337.384 156.434 343.106 156.194 345.069C155.916 337.214 155.147 320.981 155.72 313.372C146.475 313.309 141.19 314.03 133.2 319.126C120.85 326.952 113.726 342.096 114.18 356.59C114.226 358.081 114.419 359.785 113.995 361.313Z"/><path fill="#CD8019" transform="scale(2 2)" d="M331.253 410.877C333.788 411.029 337.727 410.864 340.457 410.877C337.719 416.05 335.7 427.049 333.894 433.226L320.047 433.226L215.357 433.226L181.723 433.228C169.919 433.233 165.004 437.063 161.929 426.803C163.099 427.075 162.681 427.135 163.75 426.803C166.507 426.076 172.988 419.137 175.565 416.791L175.565 415.873L175.565 415.873C175.906 414.985 176.334 414.057 176.717 413.179C176.945 413.049 177.502 412.601 177.741 412.42C178.648 413.055 179.318 413.546 180.304 414.07L180.304 414.07C181.134 413.873 181.381 413.809 181.873 413.179C182.74 414.131 183.697 414.926 184.527 415.873C185.657 414.651 186.032 412.889 187.054 412.42C188.065 411.97 188.832 411.4 190.061 410.877C190.887 411.342 191.766 411.221 192.731 411.212C194.915 411.345 197.914 411.318 200.117 411.212C217.008 410.439 234.659 411.749 251.675 411.212L293.648 411.424C298.625 411.486 305.351 412.15 309.549 412.098C313.296 412.051 320.437 410.468 324.017 411.402L324.046 411.811C324.197 413.813 324.673 416.523 325.524 418.348C325.195 415.846 324.666 413.602 324.336 410.877C326.727 411.003 328.867 410.937 331.253 410.877Z"/><path fill="#955117" transform="scale(2 2)" d="M187.054 412.42C188.065 411.97 188.832 411.4 190.061 410.877C190.887 411.342 191.766 411.221 192.731 411.212C194.915 411.345 197.914 411.318 200.117 411.212L200.431 411.26C213.017 413.102 196.602 411.69 193.76 411.212C194.348 415.449 194.25 419.69 192.731 423.739C194.11 425.107 195.764 426.524 196.234 428.447L196.083 428.639L196.169 428.331L196.116 428.613C194.827 428.158 194.746 427.63 193.76 426.803C190.948 429.284 190.256 429.366 188.373 432.627C191.96 432.676 213.289 432.239 215.357 433.226L181.723 433.228C169.919 433.233 165.004 437.063 161.929 426.803C163.099 427.075 162.681 427.135 163.75 426.803C166.507 426.076 172.988 419.137 175.565 416.791L175.565 415.873L175.565 415.873C175.906 414.985 176.334 414.057 176.717 413.179C176.945 413.049 177.502 412.601 177.741 412.42C178.648 413.055 179.318 413.546 180.304 414.07L180.304 414.07C181.134 413.873 181.381 413.809 181.873 413.179C182.74 414.131 183.697 414.926 184.527 415.873C185.657 414.651 186.032 412.889 187.054 412.42Z"/><path fill="#F4B722" transform="scale(2 2)" d="M177.741 412.42C178.648 413.055 179.318 413.546 180.304 414.07L180.304 414.07C181.602 414.649 181.892 414.973 182.958 415.873C183.567 416.476 184.021 416.864 184.527 417.557C183.62 418.539 182.427 418.756 181.112 419.185C180.866 420.237 180.597 421.215 180.304 422.256C179.727 420.831 180.094 419.804 178.521 419.034L177.462 419.439C176.411 418.962 176.03 417.863 175.565 416.791L175.565 416.791L175.565 415.873L175.565 415.873C175.906 414.985 176.334 414.057 176.717 413.179C176.945 413.049 177.502 412.601 177.741 412.42Z"/><path fill="#FEF21C" transform="scale(2 2)" d="M177.741 412.42C178.648 413.055 179.318 413.546 180.304 414.07L180.304 414.07C181.602 414.649 181.892 414.973 182.958 415.873C179.581 416.718 180.763 418.878 176.306 415.873L175.565 416.791L175.565 416.791L175.565 415.873L175.565 415.873C175.906 414.985 176.334 414.057 176.717 413.179C176.945 413.049 177.502 412.601 177.741 412.42Z"/><path fill="#FEF576" transform="scale(2 2)" d="M177.741 412.42C178.648 413.055 179.318 413.546 180.304 414.07C179.062 414.635 177.547 415.375 176.306 415.873L175.565 416.791L175.565 416.791L175.565 415.873L175.565 415.873C175.906 414.985 176.334 414.057 176.717 413.179C176.945 413.049 177.502 412.601 177.741 412.42Z"/><path fill="#CD8019" transform="scale(2 2)" d="M187.054 412.42C188.065 411.97 188.832 411.4 190.061 410.877C190.887 411.342 191.766 411.221 192.731 411.212C188.857 411.772 188.037 415.896 185.344 416.791L184.527 415.873C185.657 414.651 186.032 412.889 187.054 412.42Z"/><path fill="#FDFDF0" transform="scale(2 2)" d="M180.304 414.07C181.134 413.873 181.381 413.809 181.873 413.179C182.74 414.131 183.697 414.926 184.527 415.873L185.344 416.791C186.633 418.272 194.153 425.687 194.529 426.579C191.437 424.594 187.886 420.083 184.527 417.557C184.021 416.864 183.567 416.476 182.958 415.873C181.892 414.973 181.602 414.649 180.304 414.07Z"/><path fill="#FEF21C" transform="scale(2 2)" d="M331.253 410.877C333.788 411.029 337.727 410.864 340.457 410.877C337.719 416.05 335.7 427.049 333.894 433.226L320.047 433.226C322.716 431.719 333.587 434.018 332.349 432.001C329.9 428.012 326.44 423.043 325.524 418.348C325.195 415.846 324.666 413.602 324.336 410.877C326.727 411.003 328.867 410.937 331.253 410.877Z"/><path fill="#FCCA1C" transform="scale(2 2)" d="M346.144 334.666C348.849 328.176 350.169 334.999 351.557 338.991C356.035 351.867 359.712 396.384 348.554 405.997C346.717 407.581 342.555 409.217 340.457 410.877C337.727 410.864 333.788 411.029 331.253 410.877C332.63 408.566 337.405 404.145 339.637 401.143C340.215 400.634 341.973 397.725 342.332 396.889C341.862 396.56 340.989 396.107 340.457 395.811C339.514 394.781 337.48 393.45 336.164 392.231L336.164 391.077L336.191 390.615L336.681 390.189L335.19 387.963L333.894 387.006C331.87 385.413 330.183 383.576 328.676 381.497L328.676 381.497C328.499 382.521 328.38 383.004 327.332 383.466C325.788 382.433 324.684 381.645 323.231 380.492L323.222 380.119C321.023 380.06 320.971 376.758 318.967 379.455C319.194 377.638 319.241 377.097 318.445 375.464L317.089 373.602C314.294 370.74 311.115 367.517 308.496 364.574L307.738 364.574C308.125 364.221 308.635 363.833 309.051 363.497C322.945 358.54 329.202 358.249 339.091 344.688C341.309 341.648 343.592 337.8 345.873 334.996L346.144 334.666Z"/><path fill="#FEF21C" transform="scale(2 2)" d="M346.144 334.666C347.929 336.604 347.497 347.162 347.404 350.269C346.681 374.274 339.607 370.159 333.053 384.909C333.449 385.628 333.885 386.21 333.894 387.006C331.87 385.413 330.183 383.576 328.676 381.497L328.676 381.497C328.499 382.521 328.38 383.004 327.332 383.466C325.788 382.433 324.684 381.645 323.231 380.492L323.222 380.119C321.023 380.06 320.971 376.758 318.967 379.455C319.194 377.638 319.241 377.097 318.445 375.464L317.089 373.602C314.294 370.74 311.115 367.517 308.496 364.574L307.738 364.574C308.125 364.221 308.635 363.833 309.051 363.497C322.945 358.54 329.202 358.249 339.091 344.688C341.309 341.648 343.592 337.8 345.873 334.996L346.144 334.666Z"/><path fill="#FCFCF9" transform="scale(2 2)" d="M333.894 365.809L333.894 366.367C331.78 368.77 330.266 370.273 328.676 373.095L328.706 373.451C329.002 376.775 330.041 378.045 328.676 381.497L328.676 381.497C328.499 382.521 328.38 383.004 327.332 383.466C325.788 382.433 324.684 381.645 323.231 380.492L323.222 380.119C321.023 380.06 320.971 376.758 318.967 379.455C319.194 377.638 319.241 377.097 318.445 375.464L317.089 373.602C317.629 372.675 317.579 372.689 318.445 372.089L320.047 373.095C322.57 372.249 323.152 371.744 325.524 373.095C328.231 370.623 331.107 368.203 333.894 365.809Z"/><path fill="#FEF576" transform="scale(2 2)" d="M328.676 373.095L328.706 373.451C329.002 376.775 330.041 378.045 328.676 381.497L328.676 381.497C327.273 379.587 327.013 378.932 326.405 376.749C326.899 374.981 327.346 374.344 328.676 373.095Z"/><path fill="#FDF9C5" transform="scale(2 2)" d="M320.047 373.095C322.57 372.249 323.152 371.744 325.524 373.095C324.749 373.863 323.987 374.675 323.231 375.464C322.03 374.648 321.145 374.068 320.047 373.095Z"/><path fill="#FDF9C5" transform="scale(2 2)" d="M307.738 364.574C308.125 364.221 308.635 363.833 309.051 363.497C309.639 364.494 317.139 370.938 318.445 372.089C317.579 372.689 317.629 372.675 317.089 373.602C314.294 370.74 311.115 367.517 308.496 364.574L307.738 364.574Z"/><path fill="#FEF576" transform="scale(2 2)" d="M333.894 365.809C334.689 364.662 335.75 363.214 336.954 362.523L337.541 362.495C337.487 363.656 334.866 365.765 333.894 366.367L333.894 365.809Z"/><path fill="#F4B722" transform="scale(2 2)" d="M348.24 382.868C353.692 378.062 344.257 396.59 344.01 396.889L341.22 394.378C340.444 393.513 340.26 393.228 339.637 392.231C339.844 391.63 340.21 390.799 340.457 390.189L340.457 390.189C342.666 388.824 346.557 384.924 348.24 382.868Z"/><path fill="#FEF21C" transform="scale(2 2)" d="M340.457 390.189L340.457 390.189C341.83 391.66 344.206 393.218 341.22 394.378C340.444 393.513 340.26 393.228 339.637 392.231C339.844 391.63 340.21 390.799 340.457 390.189Z"/><path fill="#FDF9C5" transform="scale(2 2)" d="M338.357 388.737C339.438 389.136 339.805 389.205 340.457 390.189C340.21 390.799 339.844 391.63 339.637 392.231C340.26 393.228 340.444 393.513 341.22 394.378L344.01 396.889C345.739 398.594 348.619 401.217 349.673 403.276L349.57 403.592C347.754 403.08 343.529 398.378 342.332 396.889C341.862 396.56 340.989 396.107 340.457 395.811C339.514 394.781 337.48 393.45 336.164 392.231L336.164 391.077L336.191 390.615L336.681 390.189L337.768 390.189C337.968 389.425 338.003 389.456 338.357 388.737Z"/><path fill="#FEF576" transform="scale(2 2)" d="M338.357 388.737C339.438 389.136 339.805 389.205 340.457 390.189C340.21 390.799 339.844 391.63 339.637 392.231C339.209 391.852 338.2 390.668 337.768 390.189C337.968 389.425 338.003 389.456 338.357 388.737Z"/><path fill="#FEF21C" transform="scale(2 2)" d="M340.457 387.963C341.405 387.577 342.558 386.58 343.36 385.916L343.6 385.95L342.659 387.07L342.75 387.343C344.414 387.209 346.579 384.018 348.24 382.868C346.557 384.924 342.666 388.824 340.457 390.189L340.457 390.189C339.805 389.205 339.438 389.136 338.357 388.737C338.993 388.614 339.828 388.222 340.457 387.963Z"/><path fill="#FEF21C" transform="scale(2 2)" d="M335.19 387.963C337.02 387.613 338.725 387.222 340.457 387.963C339.828 388.222 338.993 388.614 338.357 388.737C338.003 389.456 337.968 389.425 337.768 390.189L336.681 390.189L335.19 387.963Z"/><path fill="#F09E13" transform="scale(2 2)" d="M336.164 392.231C337.48 393.45 339.514 394.781 340.457 395.811C340.989 396.107 341.862 396.56 342.332 396.889C341.973 397.725 340.215 400.634 339.637 401.143C337.405 404.145 332.63 408.566 331.253 410.877C328.867 410.937 326.727 411.003 324.336 410.877C324.666 413.602 325.195 415.846 325.524 418.348C324.673 416.523 324.197 413.813 324.046 411.811L324.017 411.402C320.437 410.468 313.296 412.051 309.549 412.098C305.351 412.15 298.625 411.486 293.648 411.424L251.675 411.212C234.659 411.749 217.008 410.439 200.117 411.212C197.914 411.318 194.915 411.345 192.731 411.212C191.766 411.221 190.887 411.342 190.061 410.877C188.832 411.4 188.065 411.97 187.054 412.42C186.69 411.188 186.91 410.311 187.054 409.022C187.018 404.242 183.503 408.68 190.061 401.143C191.079 400.902 193.768 401.54 194.759 401.907L195.059 402.231C194.597 403.001 194.01 403.869 193.76 404.708C194.838 403.484 195.326 402.656 195.864 401.143L196.629 401.143C197.472 401.275 200.867 401.777 201.332 402.049C201.845 402.212 203.579 402.205 203.997 402.049L203.574 401.484L203.725 401.177L205.244 401.143C213.429 399.887 225.706 401.134 234.286 401.139L248.762 401.066C250.954 401.041 253.178 400.918 255.36 400.995C258.016 401.09 261.13 405.348 263.612 403.045L263.612 403.045C265.718 403.058 266.419 401.426 268.865 401.252C278.193 400.587 288.424 401.8 297.644 401.143C297.039 401.866 296.03 402.905 295.789 403.753C294.774 404.815 291.872 407.498 292.022 408.941C294.141 408.662 299.8 402.141 301.756 401.146C302.417 400.81 308.836 401.138 310.176 401.143C314.531 401.274 322.321 401.74 326.405 401.143L326.384 400.962L326.144 400.822C326.788 400.647 327.09 400.503 327.696 400.212L327.945 400.091C329.621 398.648 334.831 392.778 336.164 392.231Z"/><path fill="#E2860F" transform="scale(2 2)" d="M196.629 401.143C197.472 401.275 200.867 401.777 201.332 402.049C201.845 402.212 203.579 402.205 203.997 402.049C204.71 402.552 204.842 402.98 205.244 403.753C205.838 404.007 211.015 409.791 212.161 410.877C216.639 410.876 250.438 410.404 251.675 411.212C234.659 411.749 217.008 410.439 200.117 411.212C197.914 411.318 194.915 411.345 192.731 411.212C191.766 411.221 190.887 411.342 190.061 410.877C188.832 411.4 188.065 411.97 187.054 412.42C186.69 411.188 186.91 410.311 187.054 409.022C187.018 404.242 183.503 408.68 190.061 401.143C191.079 400.902 193.768 401.54 194.759 401.907L195.059 402.231C194.597 403.001 194.01 403.869 193.76 404.708C194.838 403.484 195.326 402.656 195.864 401.143L196.629 401.143Z"/><path fill="#F4B722" transform="scale(2 2)" d="M196.629 401.143C197.472 401.275 200.867 401.777 201.332 402.049C201.845 402.212 203.579 402.205 203.997 402.049C204.71 402.552 204.842 402.98 205.244 403.753C206.134 404.908 210.404 409.901 210.779 410.646L210.523 410.295L210.334 410.347C208.291 408.597 205.984 406.307 203.997 404.708C200.907 405.225 198.567 406.129 196.307 403.516C194.646 403.926 195.798 404.474 193.76 404.708C194.838 403.484 195.326 402.656 195.864 401.143L196.629 401.143Z"/><path fill="#F09E13" transform="scale(2 2)" d="M187.054 409.022C188.526 409.465 189.273 409.526 190.061 410.877C188.832 411.4 188.065 411.97 187.054 412.42C186.69 411.188 186.91 410.311 187.054 409.022Z"/><path fill="#F4B722" transform="scale(2 2)" d="M336.164 392.231C337.48 393.45 339.514 394.781 340.457 395.811C340.989 396.107 341.862 396.56 342.332 396.889C341.973 397.725 340.215 400.634 339.637 401.143C338.899 400.89 330.658 401.847 329.418 402.049C327.208 402.98 325.396 406.718 323.89 406.815C321.847 405.165 325.06 402.264 326.405 401.143L326.384 400.962L326.144 400.822C326.788 400.647 327.09 400.503 327.696 400.212L327.945 400.091C329.621 398.648 334.831 392.778 336.164 392.231Z"/><path fill="#FEE20F" transform="scale(2 2)" d="M336.164 392.231C337.48 393.45 339.514 394.781 340.457 395.811L340.109 395.99C335.176 398.581 335.657 395.685 334.351 396.317C333.899 396.535 328.034 403.6 327.945 400.091C329.621 398.648 334.831 392.778 336.164 392.231Z"/><path fill="#E2860F" transform="scale(2 2)" d="M222.737 359.234C228.707 358.577 237.113 361.391 237.438 355.186L237.816 355.019C237.77 358.606 240.027 356.812 244.057 356.766C246.935 356.733 306.998 363.976 307.738 364.574L308.496 364.574C309.713 368.513 318.147 370.915 300.314 374.627C295.807 373.853 290.767 375.081 285.326 373.841C255.496 367.043 247.825 361.714 219.726 374.627C216.412 371.102 214.893 363.474 213.952 358.696L220.049 358.696C220.252 360.194 220.609 362.294 221.552 363.497L221.615 363.523C221.853 363.359 222.482 360.08 222.737 359.234Z"/><defs><linearGradient id="gradient_11" gradientUnits="userSpaceOnUse" x1="320.74387" y1="402.36407" x2="316.29861" y2="385.82285"><stop offset="0" stop-color="#FAB00A"/><stop offset="1" stop-color="#FF1"/></linearGradient></defs><path fill="url(#gradient_11)" transform="scale(2 2)" d="M318.967 379.455C320.971 376.758 321.023 380.06 323.222 380.119L323.231 380.492C324.684 381.645 325.788 382.433 327.332 383.466C328.38 383.004 328.499 382.521 328.676 381.497L328.676 381.497C330.183 383.576 331.87 385.413 333.894 387.006L335.19 387.963L336.681 390.189L336.191 390.615L336.164 391.077L336.164 392.231C334.831 392.778 329.621 398.648 327.945 400.091L327.696 400.212C327.09 400.503 326.788 400.647 326.144 400.822L326.384 400.962L326.405 401.143C322.321 401.74 314.531 401.274 310.176 401.143C308.879 400.016 303.486 401.3 301.75 400.091C303.16 398.901 305.132 397.229 306.247 395.811C305.635 395.589 305.099 395.378 304.5 395.132C305.385 394.505 306.42 393.115 307.11 392.231C310.537 389.168 313.52 385.871 317.089 382.868C317.697 381.681 318.231 380.572 318.967 379.455Z"/><path fill="#FDFDF0" transform="scale(2 2)" d="M318.967 379.455C320.971 376.758 321.023 380.06 323.222 380.119L323.231 380.492C321.749 381.48 319.513 382.894 318.445 384.321C316.162 385.849 307.732 393.541 306.247 395.811C305.635 395.589 305.099 395.378 304.5 395.132C305.385 394.505 306.42 393.115 307.11 392.231C310.537 389.168 313.52 385.871 317.089 382.868C317.697 381.681 318.231 380.572 318.967 379.455Z"/><path fill="#FEF576" transform="scale(2 2)" d="M323.231 380.492C324.684 381.645 325.788 382.433 327.332 383.466C324.221 385.158 321.903 385.652 318.445 384.321C319.513 382.894 321.749 381.48 323.231 380.492Z"/><path fill="#FDF9C5" transform="scale(2 2)" d="M328.676 381.497L328.676 381.497C330.183 383.576 331.87 385.413 333.894 387.006L335.19 387.963L336.681 390.189L336.191 390.615L336.164 391.077C334.586 390.305 328.691 384.904 327.332 383.466C328.38 383.004 328.499 382.521 328.676 381.497Z"/><path fill="#FEF21C" transform="scale(2 2)" d="M308.496 364.574C311.115 367.517 314.294 370.74 317.089 373.602L318.445 375.464C319.241 377.097 319.194 377.638 318.967 379.455C318.231 380.572 317.697 381.681 317.089 382.868C313.52 385.871 310.537 389.168 307.11 392.231L307.11 392.231C309.539 388.84 312.499 386.795 315.026 383.684C315.316 381.978 313.083 379.577 314.539 374.964C315.581 371.661 316.31 372.985 312.748 370.23C307.7 373.349 295.696 375.775 300.314 374.627C318.147 370.915 309.713 368.513 308.496 364.574Z"/><path fill="#FEF576" transform="scale(2 2)" d="M318.445 375.464C319.241 377.097 319.194 377.638 318.967 379.455C318.231 380.572 317.697 381.681 317.089 382.868C316.988 381.921 316.612 380.428 316.399 379.455C316.843 377.387 316.897 376.905 318.445 375.464Z"/><path fill="#FCCA1C" transform="scale(2 2)" d="M298.514 400.627C301.006 397.767 303.881 394.979 306.514 392.2C304.314 387.624 299.756 389.668 301.314 380.998L301.38 381.438L301.353 380.874C302.829 390.62 306.27 388.418 307.11 392.231L307.11 392.231C306.42 393.115 305.385 394.505 304.5 395.132C305.099 395.378 305.635 395.589 306.247 395.811C305.132 397.229 303.16 398.901 301.75 400.091C303.486 401.3 308.879 400.016 310.176 401.143C308.836 401.138 302.417 400.81 301.756 401.146C299.8 402.141 294.141 408.662 292.022 408.941C291.872 407.498 294.774 404.815 295.789 403.753C296.851 403.036 297.636 402.085 298.514 401.143C295.275 400.937 294.9 400.785 298.514 400.627Z"/><path fill="#FEF21C" transform="scale(2 2)" d="M304.5 395.132C305.099 395.378 305.635 395.589 306.247 395.811C305.132 397.229 303.16 398.901 301.75 400.091C300.967 400.866 300.573 401.371 299.617 401.422L299.284 401.056C299.644 399.418 303.149 396.373 304.5 395.132Z"/><path fill="#FEF576" transform="scale(2 2)" d="M187.054 385.743C190.26 388.833 194.587 393.343 197.31 396.889C199.475 399.008 199.828 396.274 202.092 397.976C202.009 399.041 201.923 400.951 201.712 401.924L201.332 402.049C200.867 401.777 197.472 401.275 196.629 401.143L195.864 401.143L195.31 400.716C195.216 399.518 195.457 398.028 195.864 396.889C193.338 393.627 188.823 389.972 187.054 387.006L187.586 386.702L187.054 385.743Z"/><path fill="#FCCA1C" transform="scale(2 2)" d="M195.864 396.889C197.836 398.505 198.017 398.967 196.629 401.143L195.864 401.143L195.31 400.716C195.216 399.518 195.457 398.028 195.864 396.889Z"/><path fill="#FEE20F" transform="scale(2 2)" d="M260.284 402.049C259.986 402.316 260.183 402.183 259.642 402.356L259.107 402.059C255.203 395.062 261.822 395.62 265.467 395.838L265.628 396.08C265.34 396.766 265.079 397.31 264.746 397.976C264.56 398.918 264.468 398.521 264.746 399.301C263.309 401.228 262.495 400.213 260.284 400.091C259.949 400.954 260.126 400.977 260.284 402.049Z"/><path fill="#FDF9C5" transform="scale(2 2)" d="M260.284 400.091C259.72 397.323 263.53 397.032 264.746 399.301C263.309 401.228 262.495 400.213 260.284 400.091Z"/><path fill="#FEF21C" transform="scale(2 2)" d="M264.746 399.301C264.468 398.521 264.56 398.918 264.746 397.976C265.17 399.774 264.742 401.586 263.612 403.045L263.612 403.045C261.808 403.296 261.743 403.023 260.284 402.049C260.126 400.977 259.949 400.954 260.284 400.091C262.495 400.213 263.309 401.228 264.746 399.301Z"/><path fill="#FEE20F" transform="scale(2 2)" d="M202.092 395.811C203.272 394.919 204.739 393.317 205.903 392.231C205.228 393.383 204.745 394.548 203.997 395.811C203.355 396.567 202.769 397.253 202.092 397.976C199.828 396.274 199.475 399.008 197.31 396.889C198.786 395.188 200.086 395.575 202.092 395.811Z"/><path fill="#FCCA1C" transform="scale(2 2)" d="M203.997 395.811C204.862 397.329 203.466 398.708 205.244 401.143L203.725 401.177L203.574 401.484L203.997 402.049C203.579 402.205 201.845 402.212 201.332 402.049L201.712 401.924C201.923 400.951 202.009 399.041 202.092 397.976C202.769 397.253 203.355 396.567 203.997 395.811Z"/><path fill="#FEE20F" transform="scale(2 2)" d="M250.032 383.466C251.316 382.339 251.871 382.03 253.5 381.497C253.796 382.386 254.12 383.471 254.473 384.321L254.192 385.643C253.335 386.639 250.326 386.659 248.49 387.006L250.032 383.466Z"/><path fill="#FCF1A8" transform="scale(2 2)" d="M250.032 383.466C251.316 382.339 251.871 382.03 253.5 381.497C253.796 382.386 254.12 383.471 254.473 384.321C252.725 384.252 251.655 384.097 250.032 383.466Z"/><path fill="#FEF576" transform="scale(2 2)" d="M205.903 272.666L206.6 271.698C207.399 272.316 209.393 273.793 210.018 274.419L211.416 276.212C210.793 275.929 210.266 275.678 209.659 275.367L209.368 275.505C209.589 276.374 209.631 276.468 210.018 277.284C209.097 276.547 208.873 276.252 208.099 275.333C207.418 274.456 206.617 273.529 205.903 272.666Z"/></svg>