<?xml version="1.0" encoding="utf-8" ?><svg xmlns="http://www.w3.org/2000/svg" xmlns:xlink="http://www.w3.org/1999/xlink" width="1024" height="1024" viewBox="0 0 1024 1024"><path fill="#FEE26D" transform="scale(2 2)" d="M117.795 175.227C123.096 187.304 128.395 198.404 133.948 210.257L151.926 249.1C154.514 254.637 165.339 275.559 165.902 280.085C166.668 280.049 167.297 279.992 168.063 280.085C174.677 280.575 174.553 285.765 172.816 290.808C171.096 294.069 168.64 295.973 164.81 295.538C159.236 337.861 105.298 354.034 72.7968 323.862C64.9852 317 60.4468 305.27 57.2733 295.538C54.3939 295.563 52.0737 292.392 51.5097 289.761C51.4255 284.891 50.984 280.225 57.2733 280.085C58.8322 275.498 61.4693 270.466 63.5689 266.001L97.2826 194.512C98.9923 190.937 105.046 177.294 107.129 175.227L107.129 175.227C109.961 176.431 110.871 176.908 114.055 176.679C115.345 176.419 116.581 175.775 117.795 175.227ZM159.252 280.085C156.381 274.793 153.375 267.453 150.757 261.789L119.948 196.021C117.906 191.548 116.364 187.583 114.055 183.172C114.294 187.044 114.086 191.393 114.064 195.327L114.055 280.085L144.383 280.071C148.612 280.069 155.283 279.838 159.252 280.085ZM107.765 280.085C107.988 267.838 107.77 254.938 107.768 242.609L107.765 187.811C104.585 193.889 102.213 199.3 99.3172 205.427L84.9061 236.085C78.099 250.749 70.8927 265.404 64.228 280.085L107.765 280.085Z"/><path fill="#BDBFD6" transform="scale(2 2)" d="M117.795 175.227C123.096 187.304 128.395 198.404 133.948 210.257L151.926 249.1C154.514 254.637 165.339 275.559 165.902 280.085L159.252 280.085C156.381 274.793 153.375 267.453 150.757 261.789L119.948 196.021C117.906 191.548 116.364 187.583 114.055 183.172C114.294 187.044 114.086 191.393 114.064 195.327L114.055 280.085C112.059 279.993 109.784 280.065 107.765 280.085C107.988 267.838 107.77 254.938 107.768 242.609L107.765 187.811C104.585 193.889 102.213 199.3 99.3172 205.427L84.9061 236.085C78.099 250.749 70.8927 265.404 64.228 280.085C61.9998 279.957 59.5125 280.032 57.2733 280.085C58.8322 275.498 61.4693 270.466 63.5689 266.001L97.2826 194.512C98.9923 190.937 105.046 177.294 107.129 175.227L107.129 175.227C109.961 176.431 110.871 176.908 114.055 176.679C115.345 176.419 116.581 175.775 117.795 175.227Z"/><path fill="#858DC3" transform="scale(2 2)" d="M107.129 175.227C109.961 176.431 110.871 176.908 114.055 176.679C114.046 178.1 114.422 180.885 113.264 181.61L112.92 181.296C112.547 176.247 108.278 186.731 107.765 187.811C107.23 183.724 107.848 179.519 107.129 175.227Z"/><path fill="#FEE26D" transform="scale(2 2)" d="M57.2733 280.085C59.5125 280.032 61.9998 279.957 64.228 280.085L107.765 280.085C109.784 280.065 112.059 279.993 114.055 280.085L144.383 280.071C148.612 280.069 155.283 279.838 159.252 280.085L165.902 280.085C166.668 280.049 167.297 279.992 168.063 280.085C174.677 280.575 174.553 285.765 172.816 290.808C171.096 294.069 168.64 295.973 164.81 295.538C162.161 294.962 157.031 295.642 154.234 295.538C153.641 295.716 153.142 295.861 152.561 296.091C146.688 295.215 135.11 295.538 128.707 295.537L66.4009 295.531C64.1361 295.527 59.1291 295.268 57.2733 295.538C54.3939 295.563 52.0737 292.392 51.5097 289.761C51.4255 284.891 50.984 280.225 57.2733 280.085Z"/><path fill="#FECA3F" transform="scale(2 2)" d="M51.5097 289.761L51.9387 289.133C52.5854 289.103 55.8168 289.705 57.6322 289.718L157.873 289.761C156.968 292.272 156.242 293.64 154.234 295.538C153.641 295.716 153.142 295.861 152.561 296.091C146.688 295.215 135.11 295.538 128.707 295.537L66.4009 295.531C64.1361 295.527 59.1291 295.268 57.2733 295.538C54.3939 295.563 52.0737 292.392 51.5097 289.761Z"/><path fill="#FECA3F" transform="scale(2 2)" d="M168.063 280.085C174.677 280.575 174.553 285.765 172.816 290.808C171.096 294.069 168.64 295.973 164.81 295.538C162.161 294.962 157.031 295.642 154.234 295.538C156.242 293.64 156.968 292.272 157.873 289.761L157.873 289.761C159.766 285.042 156.369 283.21 157.114 280.803C158.136 279.748 166.071 280.208 168.063 280.085Z"/><path fill="#FDB130" transform="scale(2 2)" d="M157.873 289.761C161.752 290.113 169.853 289.147 172.816 290.808C171.096 294.069 168.64 295.973 164.81 295.538C162.161 294.962 157.031 295.642 154.234 295.538C156.242 293.64 156.968 292.272 157.873 289.761L157.873 289.761Z"/><path fill="#FECA3F" transform="scale(2 2)" d="M152.561 296.091C153.142 295.861 153.641 295.716 154.234 295.538C157.031 295.642 162.161 294.962 164.81 295.538C159.236 337.861 105.298 354.034 72.7968 323.862L73.6042 323.437C75.1721 323.431 80.9001 326.19 82.696 326.989C106.197 337.451 134.406 329.475 147.743 307.215C149.753 303.86 151.044 299.765 152.561 296.091Z"/><path fill="#FED661" transform="scale(2 2)" d="M393.992 174.474C395.278 175.241 396.737 176.164 398.127 176.679C400.121 176.837 402.331 176.728 404.347 176.679C405.094 176.105 405.746 175.966 406.597 175.227C407.782 178.489 409.463 181.687 410.934 184.856L439.938 247.692C443.37 255.149 449.234 272.308 453.894 278.519C460.704 278.558 461.572 285.495 461.141 290.808C460.066 293.571 457.559 295.225 454.797 296.091L454.63 296.561C453.525 299.725 453.115 302.748 451.633 305.934C435.852 339.851 390.421 351.458 363.683 325.355C358.678 321.297 347.023 304.282 347.58 297.085C345.965 294.893 342.253 294.83 341.345 290.21C340.267 284.725 341.892 280.135 347.58 278.519C352.038 270.069 355.727 260.327 359.712 251.483L386.756 191.377C389.064 186.257 391.589 179.187 393.992 174.474ZM354.828 278.519C357.653 278.749 360.584 278.562 363.433 278.536L389.691 278.536C392.368 278.553 395.511 278.738 398.127 278.519L398.131 213.293C398.13 202.895 397.847 191.275 398.127 181.008C396.183 184.804 394.065 190.097 392.296 194.135L381.391 219.172C372.795 239.033 363.854 258.847 354.828 278.519ZM447.421 278.519L446.62 277.2C441.139 268.194 435.83 254.585 431.318 244.887L414.755 208.75C411.252 201.067 407.575 193.515 404.347 185.69C404.114 187.816 404.32 192.575 404.328 194.962L404.347 278.519C418.277 278.512 433.641 277.877 447.421 278.519Z"/><path fill="#FEE26D" transform="scale(2 2)" d="M444.312 295.538C446.489 295.542 453.352 295.306 454.797 296.091L454.63 296.561C453.525 299.725 453.115 302.748 451.633 305.934C435.852 339.851 390.421 351.458 363.683 325.355C358.678 321.297 347.023 304.282 347.58 297.085L348.447 296.156C379.068 295.215 413.413 295.312 444.312 296.091L444.312 295.538Z"/><path fill="#FECA3F" transform="scale(2 2)" d="M444.312 295.538C446.489 295.542 453.352 295.306 454.797 296.091L454.63 296.561C453.525 299.725 453.115 302.748 451.633 305.934C435.852 339.851 390.421 351.458 363.683 325.355C365.954 324.554 369.941 327.071 372.243 327.912C395.655 336.458 423.743 327.908 437.884 307.198C440.183 303.831 441.793 299.957 444.041 296.503L444.312 296.091L444.312 295.538Z"/><path fill="#BDBFD6" transform="scale(2 2)" d="M393.992 174.474C395.278 175.241 396.737 176.164 398.127 176.679C400.121 176.837 402.331 176.728 404.347 176.679C405.094 176.105 405.746 175.966 406.597 175.227C407.782 178.489 409.463 181.687 410.934 184.856L439.938 247.692C443.37 255.149 449.234 272.308 453.894 278.519L453.038 278.519C450.562 278.932 449.767 278.992 447.421 278.519L446.62 277.2C441.139 268.194 435.83 254.585 431.318 244.887L414.755 208.75C411.252 201.067 407.575 193.515 404.347 185.69C404.114 187.816 404.32 192.575 404.328 194.962L404.347 278.519L398.127 278.519L398.131 213.293C398.13 202.895 397.847 191.275 398.127 181.008C396.183 184.804 394.065 190.097 392.296 194.135L381.391 219.172C372.795 239.033 363.854 258.847 354.828 278.519C352.952 278.324 349.735 278.585 347.58 278.519C352.038 270.069 355.727 260.327 359.712 251.483L386.756 191.377C389.064 186.257 391.589 179.187 393.992 174.474Z"/><path fill="#858DC3" transform="scale(2 2)" d="M398.127 176.679C400.121 176.837 402.331 176.728 404.347 176.679L404.192 177.805C404.116 177.758 404.041 177.711 403.965 177.665L403.616 177.458C400.712 175.67 399.485 178.782 398.127 181.008C398.076 179.995 397.583 177.376 397.838 176.839L398.127 176.679Z"/><path fill="#FECA3F" transform="scale(2 2)" d="M453.894 278.519C460.704 278.558 461.572 285.495 461.141 290.808C460.066 293.571 457.559 295.225 454.797 296.091C453.352 295.306 446.489 295.542 444.312 295.538C446.723 293.096 446.737 292.781 448.234 289.761C448.297 287.94 447.572 281.691 447.421 279.273C448.853 279.31 451.838 279.272 453.038 278.519L453.894 278.519Z"/><path fill="#FDB130" transform="scale(2 2)" d="M448.234 289.761C452.044 290.4 456.669 288.989 461.141 290.808C460.066 293.571 457.559 295.225 454.797 296.091C453.352 295.306 446.489 295.542 444.312 295.538C446.723 293.096 446.737 292.781 448.234 289.761Z"/><path fill="#FECA3F" transform="scale(2 2)" d="M246.92 365.256C252.846 365.242 259.085 365.137 264.985 365.256L280.99 365.256C306.823 365.167 299.816 362.489 308.433 383.847C309.431 388.432 311.165 392.526 312.18 396.982C315.035 398.839 334.757 394.521 339.072 413.751L341.258 413.751C352.79 414.773 350.472 425.793 343.949 426.247C340.029 426.521 335.828 426.293 331.877 426.281L307.194 426.274L184.397 426.28C176.125 426.301 164.718 429.208 162.122 420.079C163.346 414.282 166.278 413.508 171.645 413.751C173.285 401.861 189.317 396.472 199.854 396.982C201.309 392.496 202.573 388.392 203.84 383.847C210.094 366.511 204.973 365.23 225.298 365.242L246.92 365.256Z"/><path fill="#B26435" transform="scale(2 2)" d="M246.92 365.256C252.846 365.242 259.085 365.137 264.985 365.256L280.99 365.256C306.823 365.167 299.816 362.489 308.433 383.847C309.431 388.432 311.165 392.526 312.18 396.982L308.433 396.982C305.128 397.147 300.074 396.988 296.611 396.987L199.854 396.982C201.309 392.496 202.573 388.392 203.84 383.847C210.094 366.511 204.973 365.23 225.298 365.242L246.92 365.256Z"/><path fill="#CE813C" transform="scale(2 2)" d="M246.92 365.256C252.846 365.242 259.085 365.137 264.985 365.256L280.99 365.256C279.661 371.562 284.397 377.746 285.154 383.847L203.84 383.847C210.094 366.511 204.973 365.23 225.298 365.242L246.92 365.256Z"/><path fill="#9A482F" transform="scale(2 2)" d="M285.154 383.847C292.005 383.838 301.889 383.513 308.433 383.847C309.431 388.432 311.165 392.526 312.18 396.982L308.433 396.982C307.853 396.6 290.987 396.983 288.974 396.982C287.533 392.881 286.396 388.1 285.154 383.847Z"/><path fill="#CE813C" transform="scale(2 2)" d="M162.122 420.079C163.346 414.282 166.278 413.508 171.645 413.751L339.072 413.751L341.258 413.751C352.79 414.773 350.472 425.793 343.949 426.247C340.029 426.521 335.828 426.293 331.877 426.281L307.194 426.274L184.397 426.28C176.125 426.301 164.718 429.208 162.122 420.079Z"/><path fill="#B26435" transform="scale(2 2)" d="M341.258 413.751C352.79 414.773 350.472 425.793 343.949 426.247C340.029 426.521 335.828 426.293 331.877 426.281L307.194 426.274C304.994 421.602 303.993 418.685 302.767 413.751C304.122 413.907 308.509 413.768 310.068 413.764L325.482 413.751C328.945 413.752 338.519 414.28 341.258 413.751Z"/><path fill="#FED661" transform="scale(2 2)" d="M246.92 188.984L264.985 188.984L264.985 365.256C259.085 365.137 252.846 365.242 246.92 365.256C246.715 363.097 246.896 358.798 246.9 356.442L246.92 338.519C246.727 336.966 246.901 329.004 246.904 326.95L246.92 212.703C246.93 204.85 246.786 196.805 246.92 188.984Z"/><path fill="#FECA3F" transform="scale(2 2)" d="M246.92 188.984L264.985 188.984L264.985 365.256C259.085 365.137 252.846 365.242 246.92 365.256C246.715 363.097 246.896 358.798 246.9 356.442L246.92 338.519C258.553 342.698 260.41 328.825 260.418 320.734L260.331 233.517C260.329 219.569 263.67 208.509 246.92 212.703C246.93 204.85 246.786 196.805 246.92 188.984Z"/><defs><linearGradient id="gradient_0" gradientUnits="userSpaceOnUse" x1="249.01787" y1="140.80467" x2="270.88525" y2="170.92584"><stop offset="0" stop-color="#FFE231"/><stop offset="1" stop-color="#FBC44B"/></linearGradient></defs><path fill="url(#gradient_0)" transform="scale(2 2)" d="M248 125.967L248.438 126.332C257.357 123.484 256.921 125.519 264.238 125.967C265.092 126.137 266.4 126.758 267.08 127.267C275.928 132.426 275.973 136.334 280.99 143.405C280.484 147.585 281.488 154.984 280.99 158.255C276.189 166.215 275.049 171.126 264.985 175.227C264.754 179.466 265.008 184.639 264.985 188.984L246.92 188.984L246.92 174.474C238.431 171.253 235.704 165.419 231.84 158.255L231.84 154.295C230.421 149.976 231.062 147.716 231.84 143.405C234.805 135.148 239.481 129.609 247.777 126.512L248 125.967Z"/><path fill="#FEE26D" transform="scale(2 2)" d="M248 125.967L248.438 126.332C257.357 123.484 256.921 125.519 264.238 125.967C265.092 126.137 266.4 126.758 267.08 127.267C265.829 129.477 267.514 135.699 267.265 138.668C265.948 154.366 249.11 163.045 235.264 155.98C234.491 155.585 232.49 154.415 231.84 154.295C230.421 149.976 231.062 147.716 231.84 143.405C234.805 135.148 239.481 129.609 247.777 126.512L248 125.967Z"/><path fill="#FEF38D" transform="scale(2 2)" d="M245.022 135.045C248.206 134.611 251.152 136.801 251.654 139.974C252.156 143.147 250.029 146.14 246.867 146.709C244.015 147.223 241.211 145.591 240.249 142.857C239.66 141.182 239.855 139.332 240.781 137.818C241.706 136.303 243.264 135.285 245.022 135.045Z"/><path fill="#CE813C" transform="scale(2 2)" d="M246.92 174.474C252.55 177.399 259.14 177.887 264.985 175.227C264.754 179.466 265.008 184.639 264.985 188.984L246.92 188.984L246.92 174.474Z"/><path fill="#FECA3F" transform="scale(2 2)" d="M280.99 143.405C283.919 142.67 285.989 142.534 288.974 142.316C303.832 143.681 331.85 155.315 346.96 161.015C360.06 165.958 375.223 174.427 387.19 162.294C390.234 153.497 395.389 146.605 405.832 150.128C415.976 155.002 418.702 168.692 408.344 174.351C407.848 174.622 406.956 174.929 406.597 175.227C405.746 175.966 405.094 176.105 404.347 176.679C402.331 176.728 400.121 176.837 398.127 176.679C396.737 176.164 395.278 175.241 393.992 174.474C391.692 173.288 390.697 171.888 388.971 169.955C373.346 177.875 366.184 175.674 349.463 171.91C331.336 167.83 306.923 159.887 288.974 158.255C286.267 158.213 283.701 158.181 280.99 158.255C281.488 154.984 280.484 147.585 280.99 143.405Z"/><path fill="#FEE26D" transform="scale(2 2)" d="M387.19 162.294C390.234 153.497 395.389 146.605 405.832 150.128L405.85 150.43C406.22 155.854 408.013 159.399 404.003 164.285C399.694 169.534 389.953 169.142 387.19 162.294Z"/><path fill="#FEF38D" transform="scale(2 2)" d="M396.371 153.51C402.494 153.313 403.109 160.678 397.312 162.294C392.295 162.119 390.309 156.075 396.371 153.51Z"/><path fill="#CE813C" transform="scale(2 2)" d="M280.99 143.405C283.919 142.67 285.989 142.534 288.974 142.316L288.974 158.255C286.267 158.213 283.701 158.181 280.99 158.255C281.488 154.984 280.484 147.585 280.99 143.405Z"/><path fill="#FECA3F" transform="scale(2 2)" d="M127.944 163.929C141.096 170.397 149.006 165.867 162.434 160.985C177.027 155.68 209.278 142.288 224.503 142.316C226.97 142.601 229.391 143.01 231.84 143.405C231.062 147.716 230.421 149.976 231.84 154.295L231.84 158.255C229.311 158.084 227.039 158.078 224.503 158.255C219.4 159.549 213.634 160.53 208.417 161.558L157.068 171.713C146.228 173.958 137.321 176.506 126.375 172.793C127.026 169.574 127.397 167.016 127.944 163.929Z"/><path fill="#CE813C" transform="scale(2 2)" d="M224.503 142.316C226.97 142.601 229.391 143.01 231.84 143.405C231.062 147.716 230.421 149.976 231.84 154.295L231.84 158.255C229.311 158.084 227.039 158.078 224.503 158.255L224.503 142.316Z"/><path fill="#FECA3F" transform="scale(2 2)" d="M240.267 101.99C239.497 88.6035 251.018 79.2495 263.298 84.7592C284.588 96.2148 264.377 113.927 264.238 115.256C264.504 118.348 264.185 122.681 264.238 125.967C256.921 125.519 257.357 123.484 248.438 126.332L248 125.967C247.808 123.135 247.986 118.241 248 115.256C247.812 112.104 242.243 108.645 240.267 101.99Z"/><path fill="#FEE26D" transform="scale(2 2)" d="M240.267 101.99C239.497 88.6035 251.018 79.2495 263.298 84.7592C262.901 89.0681 264.427 93.3061 262.268 97.4445C256.413 108.665 249.001 102.928 240.267 101.99Z"/><path fill="#FEF38D" transform="scale(2 2)" d="M251.774 87.7816C254.191 87.5817 255.187 89.4987 256.222 91.3147C256.33 92.7494 256.287 93.657 256.222 95.0715C254.719 96.4434 253.795 97.3924 251.774 97.9353C245.296 97.091 243.515 90.0436 251.774 87.7816Z"/><path fill="#FDB130" transform="scale(2 2)" d="M248 115.256L248.144 113.396C249.502 113.196 253.336 115.203 256.478 115.355C258.517 115.453 263.589 113.467 264.238 115.256C264.504 118.348 264.185 122.681 264.238 125.967C256.921 125.519 257.357 123.484 248.438 126.332L248 125.967C247.808 123.135 247.986 118.241 248 115.256Z"/><path fill="#FED661" transform="scale(2 2)" d="M98.615 167.006C93.1441 152.533 111.535 141.46 121.446 152.514C125.263 154.445 125.802 159.036 126.375 162.818L127.944 163.929C127.397 167.016 127.026 169.574 126.375 172.793C124.88 172.29 124.005 172.027 122.61 171.285C120.948 172.59 119.407 173.861 117.795 175.227C116.581 175.775 115.345 176.419 114.055 176.679C110.871 176.908 109.961 176.431 107.129 175.227L107.129 175.227C102.569 173.442 100.504 171.559 98.615 167.006Z"/><path fill="#FECA3F" transform="scale(2 2)" d="M110.321 168.324C119.576 160.341 116.299 163.608 119.889 151.751C120.759 152.524 120.267 152.263 121.446 152.514C125.263 154.445 125.802 159.036 126.375 162.818L127.944 163.929C127.397 167.016 127.026 169.574 126.375 172.793C124.88 172.29 124.005 172.027 122.61 171.285C120.948 172.59 119.407 173.861 117.795 175.227C116.581 175.775 115.345 176.419 114.055 176.679C110.871 176.908 109.961 176.431 107.129 175.227L107.129 175.227C102.569 173.442 100.504 171.559 98.615 167.006C103.966 168.648 104.792 168.997 110.321 168.324Z"/><path fill="#FDB130" transform="scale(2 2)" d="M126.375 162.818L127.944 163.929C127.397 167.016 127.026 169.574 126.375 172.793C124.88 172.29 124.005 172.027 122.61 171.285C126.15 166.944 124.51 165.41 126.375 162.818Z"/><path fill="#FEF38D" transform="scale(2 2)" d="M107.765 152.514C112.209 152.396 112.472 156.613 111.896 159.946C110.34 161.683 110.014 161.755 107.765 162.294C101.573 162.07 100.326 154.64 107.765 152.514Z"/></svg>