<?xml version="1.0" encoding="utf-8" ?><svg xmlns="http://www.w3.org/2000/svg" xmlns:xlink="http://www.w3.org/1999/xlink" width="1024" height="1024" viewBox="0 0 1024 1024"><path fill="#FECB33" d="M580.56 143.168C584.632 147.698 592.58 160.14 597.268 166.202C614.795 187.47 628.264 200.852 653.228 213.78C642.251 214.111 622.594 213.864 614.673 222.157C614.33 222.517 613.993 222.884 613.662 223.255C604.709 222.522 587.897 241.455 581.139 244.583C579.415 247.234 577.562 250.234 575.784 252.81C577.844 256.904 580.723 262.67 583.259 266.411C596.322 270.781 612.614 284.354 622.378 286.941C632.238 298.366 642.088 309.994 652.191 321.187C656.687 326.167 662.076 332.182 667.366 336.212C687.69 347.678 705.543 361.992 720.115 380.241C723.142 384.032 728.214 390.299 730.363 394.532C735.107 400.859 739.402 401.538 744.013 405.639C757.378 414.253 791.605 435.63 807.03 432.091C818.263 423.369 820.822 412.22 822.993 398.946C823.08 399.536 823.172 400.123 823.217 400.716C822.798 401.159 824.281 395.263 824.78 395.193C824.315 395.258 825.746 392.953 825.819 392.843C825.433 389.733 823.553 386.711 825.184 384.397C837.627 410.108 853.899 424.622 878.35 438.725C883.646 441.78 888.85 444.867 894.48 447.297C894.161 448.896 893.07 448.25 891.359 448.322C892.749 448.981 893.264 449.237 894.583 450.094C848.575 456.437 807.061 481.042 779.409 518.356C777.71 520.615 776.066 522.915 774.479 525.255C774.332 522.612 774.184 520.371 774.295 517.709C773.099 499.133 765.318 486.442 751.914 474.288C761.455 473.406 767.635 470.897 776.801 468.722C762.35 456.825 747.368 445.588 731.901 435.046C718.558 433.966 714.035 433.324 700.559 434.734C676.615 424.1 629.597 380.904 610.417 361.133C607.477 358.102 602.128 351.039 599.141 347.356C597.576 362.539 594.19 369.221 583.97 380.889C584.157 391.29 583.972 398.633 582.293 408.94C578.298 429.784 573.778 445.617 562.314 464.069C559.312 468.495 556.891 473.245 553.839 477.743C550.283 474.85 547.581 471.52 544.484 468.16C544.036 467.742 541.997 465.284 541.493 464.698C535.805 458.49 530.817 450.334 524.133 443.307C525.941 439.975 527.783 436.662 529.659 433.369C541.388 405.28 535.28 389.843 526.328 361.983L525.792 359.053L528.401 359.416C538.885 369.266 556.564 363.889 565.471 354.407C574.352 344.951 579.901 334.863 580.056 321.733C580.159 310.655 574.477 304.604 567.474 296.684C553.533 282.56 533.075 272.877 513.303 271.912C512.302 271.64 511.852 271.482 510.889 271.094L514.184 269.324L519.38 266.582C526.302 262.143 532.835 257.125 538.908 251.581C563.347 229.532 575.84 202.357 579.56 169.688C580.53 161.17 580.124 151.885 580.56 143.168Z"/><path fill="#CE9836" d="M567.474 296.684C572.038 297.252 594.21 306.762 600.68 309.099C608.556 318.783 615.74 329.231 623.639 338.861C650.204 371.251 681.176 399.62 715.803 423.183C720.538 426.405 727.72 431.313 731.901 435.046C718.558 433.966 714.035 433.324 700.559 434.734C676.615 424.1 629.597 380.904 610.417 361.133C607.477 358.102 602.128 351.039 599.141 347.356C597.576 362.539 594.19 369.221 583.97 380.889C584.157 391.29 583.972 398.633 582.293 408.94C578.298 429.784 573.778 445.617 562.314 464.069C559.312 468.495 556.891 473.245 553.839 477.743C550.283 474.85 547.581 471.52 544.484 468.16C544.036 467.742 541.997 465.284 541.493 464.698C535.805 458.49 530.817 450.334 524.133 443.307C525.941 439.975 527.783 436.662 529.659 433.369C541.388 405.28 535.28 389.843 526.328 361.983L525.792 359.053L528.401 359.416C538.885 369.266 556.564 363.889 565.471 354.407C574.352 344.951 579.901 334.863 580.056 321.733C580.159 310.655 574.477 304.604 567.474 296.684Z"/><path fill="#F0AC33" d="M580.056 321.733L580.759 319.994C581.777 320.661 585.032 333.339 585.471 335.587C588.792 352.584 587.596 378.719 565.856 382.066C557.746 383.314 552.15 382.632 545.452 377.783C539.891 374.286 530.796 363.91 526.328 361.983L525.792 359.053L528.401 359.416C538.885 369.266 556.564 363.889 565.471 354.407C574.352 344.951 579.901 334.863 580.056 321.733Z"/><path fill="#F0AC33" d="M557.316 425.09C562.428 422.595 567.471 419.104 572.2 415.939C575.229 413.912 578.023 410.351 581.414 409.252L582.293 408.94C578.298 429.784 573.778 445.617 562.314 464.069C559.312 468.495 556.891 473.245 553.839 477.743C550.283 474.85 547.581 471.52 544.484 468.16C544.036 467.742 541.997 465.284 541.493 464.698C549.226 453.624 554.367 438.164 557.316 425.09Z"/><path fill="#FDBD2D" d="M544.484 468.16C548.74 466.009 557.475 463.831 562.314 464.069C559.312 468.495 556.891 473.245 553.839 477.743C550.283 474.85 547.581 471.52 544.484 468.16Z"/><path fill="#A87C2D" d="M559.099 411.135C558.739 415.906 558.108 420.385 557.316 425.09C554.367 438.164 549.226 453.624 541.493 464.698C535.805 458.49 530.817 450.334 524.133 443.307C525.941 439.975 527.783 436.662 529.659 433.369C532.056 433.23 556.15 414.185 559.099 411.135Z"/><path fill="#FECB33" d="M553.121 383.027C555.825 383.963 558.19 384.837 561.003 385.479C568.054 387.088 575.283 385.743 581.487 382.088C582.57 381.449 582.79 381.249 583.97 380.889C584.157 391.29 583.972 398.633 582.293 408.94L581.414 409.252C578.023 410.351 575.229 413.912 572.2 415.939C567.471 419.104 562.428 422.595 557.316 425.09C558.108 420.385 558.739 415.906 559.099 411.135C559.539 397.864 558.711 394.687 553.121 383.027Z"/><path fill="#A87C2D" d="M583.259 266.411C596.322 270.781 612.614 284.354 622.378 286.941C632.238 298.366 642.088 309.994 652.191 321.187C656.687 326.167 662.076 332.182 667.366 336.212C687.69 347.678 705.543 361.992 720.115 380.241C723.142 384.032 728.214 390.299 730.363 394.532C735.107 400.859 739.402 401.538 744.013 405.639C757.378 414.253 791.605 435.63 807.03 432.091C805.874 435.907 790.706 453.455 787.28 456.996L785.873 455.424C776.24 448.609 766.959 441.083 757.066 434.232C733.996 417.556 708.436 400.961 687.24 381.927C650.359 348.807 608.595 309.018 583.259 266.411Z"/><path fill="#8A6325" d="M744.013 405.639C757.378 414.253 791.605 435.63 807.03 432.091C805.874 435.907 790.706 453.455 787.28 456.996L785.873 455.424C783.23 446.527 744.027 412.058 744.013 405.639Z"/><path fill="#8A6325" d="M667.366 336.212C687.69 347.678 705.543 361.992 720.115 380.241C723.142 384.032 728.214 390.299 730.363 394.532C723.922 394.244 669.922 343.263 667.366 336.212Z"/><path fill="#A87C2D" d="M787.181 478.009C812.26 451.34 837.089 437.632 873.938 444.618C878.155 445.214 888.878 448.311 891.359 448.322C892.749 448.981 893.264 449.237 894.583 450.094C848.575 456.437 807.061 481.042 779.409 518.356C777.71 520.615 776.066 522.915 774.479 525.255C774.332 522.612 774.184 520.371 774.295 517.709C773.099 499.133 765.318 486.442 751.914 474.288C761.455 473.406 767.635 470.897 776.801 468.722C780.582 471.896 783.693 474.481 787.181 478.009Z"/><path fill="#8A6325" d="M787.181 478.009C812.26 451.34 837.089 437.632 873.938 444.618C872.576 446.828 867.796 446.027 864.99 446.272C859.517 446.737 854.074 447.51 848.687 448.584C820.525 454.415 792.74 478.381 779.706 504.188C777.658 508.243 777.016 513.867 774.295 517.709C773.099 499.133 765.318 486.442 751.914 474.288C761.455 473.406 767.635 470.897 776.801 468.722C780.582 471.896 783.693 474.481 787.181 478.009Z"/><path fill="#A87C2D" d="M597.268 166.202C614.795 187.47 628.264 200.852 653.228 213.78C642.251 214.111 622.594 213.864 614.673 222.157C614.33 222.517 613.993 222.884 613.662 223.255C604.709 222.522 587.897 241.455 581.139 244.583C583.804 239.154 587.269 231.392 590.184 226.373C594.927 214.973 597.88 203.751 598.655 191.379C598.398 188.714 598.545 183.915 598.406 180.924C598.169 175.865 597.756 171.242 597.268 166.202Z"/><path fill="#8A6325" d="M599.038 183.872C603.641 187.629 606.033 190.927 610.271 194.954C613.65 198.166 617.412 201.187 620.788 204.45C614.509 205.556 611.867 205.936 606.582 210.279C600.991 214.873 595.778 220.181 591.482 226.005C591.228 226.354 590.626 226.328 590.184 226.373C594.927 214.973 597.88 203.751 598.655 191.379C599.448 190.166 599.049 185.641 599.038 183.872Z"/><path fill="#F0AC33" d="M519.38 266.582C520.137 267.633 520.109 268.126 521.492 268.163C536.295 268.549 556.63 266.846 569.261 259.384C574.01 268.267 577.94 275.56 583.436 283.935C586.723 288.945 598.837 304.391 600.68 309.099C594.21 306.762 572.038 297.252 567.474 296.684C553.533 282.56 533.075 272.877 513.303 271.912C512.302 271.64 511.852 271.482 510.889 271.094L514.184 269.324L519.38 266.582Z"/><path fill="#A87C2D" d="M822.993 398.946C823.08 399.536 823.172 400.123 823.217 400.716C822.798 401.159 824.281 395.263 824.78 395.193C824.315 395.258 825.746 392.953 825.819 392.843C830.236 413.538 832.519 422.994 849.19 437.287C823.963 441.777 813.56 446.857 792.21 460.716C791.402 460.083 787.949 457.284 787.28 456.996C790.706 453.455 805.874 435.907 807.03 432.091C818.263 423.369 820.822 412.22 822.993 398.946Z"/><path fill="#F0AC33" d="M585.204 171.912C587.066 173.51 586.961 181.588 587.272 184.258C591.435 219.973 582.956 245.657 546.623 259.139L544.908 259.336L544.707 258.933C548.417 255.957 552.33 253.674 555.79 250.27C578.593 227.834 583.757 202.016 585.204 171.912Z"/><path fill="#A87C2D" d="M652.013 661.475C653.852 662.379 656.753 663.476 658.14 664.764C670.249 670.238 682.35 676.717 695.448 679.613C707.466 682.27 722.838 684.054 735.078 682.987C735.862 682.934 736.616 682.778 737.392 682.682C737.644 683.094 735.655 691.144 735.391 692.491C732.644 706.505 734.694 718.358 738.281 731.924C741.588 740.121 743.752 744.821 748.061 752.716C729.46 745.982 715.277 738.044 693.867 739.129C687.449 739.454 683.492 740.264 677.441 740.95C678.069 729.051 674.58 708.335 669.802 697.296C665.533 685.583 658.327 672.136 652.013 661.475Z"/><path fill="#FECB33" d="M652.013 661.475C653.852 662.379 656.753 663.476 658.14 664.764C670.249 670.238 682.35 676.717 695.448 679.613C707.466 682.27 722.838 684.054 735.078 682.987C732.522 686.828 713.101 695.423 708.226 698.418C706.835 699.273 703.861 700.004 702.423 701.23C701.685 700.835 701.105 700.526 700.394 700.074C693.309 699.641 675.342 696.281 669.802 697.296C665.533 685.583 658.327 672.136 652.013 661.475Z"/><path fill="#A87C2D" d="M652.013 661.475C653.852 662.379 656.753 663.476 658.14 664.764C658.337 666.682 667.548 673.691 669.638 675.35C677.927 681.931 685.996 688.876 694.419 695.277L698.894 698.791C699.437 699.21 699.884 699.62 700.394 700.074C693.309 699.641 675.342 696.281 669.802 697.296C665.533 685.583 658.327 672.136 652.013 661.475Z"/><path fill="#FDC741" d="M735.078 682.987C735.862 682.934 736.616 682.778 737.392 682.682C737.644 683.094 735.655 691.144 735.391 692.491C732.644 706.505 734.694 718.358 738.281 731.924C738.075 732.012 737.87 732.101 737.664 732.189C725.925 722.843 714.342 710.622 702.456 701.566L702.423 701.23C703.861 700.004 706.835 699.273 708.226 698.418C713.101 695.423 732.522 686.828 735.078 682.987Z"/><path fill="#8A6325" d="M669.802 697.296C675.342 696.281 693.309 699.641 700.394 700.074C701.105 700.526 701.685 700.835 702.423 701.23L702.456 701.566C700.695 703.998 699.014 707.094 697.441 709.699C691.085 720.225 683.801 730.483 677.441 740.95C678.069 729.051 674.58 708.335 669.802 697.296Z"/><path fill="#FDBD2D" d="M427.836 417.647C428.4 420.862 429.584 424.207 430.611 427.303C433.224 435.174 435.96 443.043 439.084 450.729C440.751 454.831 443.451 458.991 444.84 463.199C444.845 463.216 444.783 463.312 444.738 463.308C444.061 463.251 442.899 462.57 442.346 462.263C438.024 460.72 434.282 458.696 430.209 457.121C419.728 453.07 407.533 448.023 396.785 445.086C398.466 441.545 404.165 423.523 405.766 422.739L405.713 422.2C407.497 421.749 409.172 421.351 411.003 421.097L414.254 420.62C418.189 420.045 424.242 419.112 427.836 417.647Z"/><path fill="#A87C2D" d="M427.836 417.647C428.4 420.862 429.584 424.207 430.611 427.303C433.224 435.174 435.96 443.043 439.084 450.729C440.751 454.831 443.451 458.991 444.84 463.199C444.845 463.216 444.783 463.312 444.738 463.308C444.061 463.251 442.899 462.57 442.346 462.263C442.064 459.129 410.173 427.652 405.766 422.739L405.713 422.2C407.497 421.749 409.172 421.351 411.003 421.097L414.254 420.62C418.189 420.045 424.242 419.112 427.836 417.647Z"/><path fill="#F0AC33" d="M390.868 407.088C394.264 410.579 401.748 418.147 404.623 421.537L405.004 421.589L405.713 422.2L405.766 422.739C404.165 423.523 398.466 441.545 396.785 445.086C395.775 444.741 394.755 444.428 393.725 444.147C385.045 441.842 375.761 438.792 366.995 437.107L364.257 436.578C363.99 436.529 353.121 435.568 357.544 433.876C360.556 430.848 367.234 426.426 370.972 423.419C377.587 418.098 384.305 412.426 390.868 407.088Z"/><path fill="#FECB33" d="M390.868 407.088C394.264 410.579 401.748 418.147 404.623 421.537C402.713 422.874 399.789 423.264 397.495 423.846L396.511 424.091C386.174 426.742 375.79 429.118 365.497 431.889C364.642 432.119 360.933 433.836 360.819 433.834C358.855 432.634 360.583 433.768 357.544 433.876C360.556 430.848 367.234 426.426 370.972 423.419C377.587 418.098 384.305 412.426 390.868 407.088Z"/><path fill="#8A6325" d="M390.868 407.088C400.631 398.955 409.611 388.645 418.63 379.66C419.045 379.247 419.486 380.897 419.524 381.074L419.935 383.025C420.128 387.181 422.589 397.141 423.597 401.493L424.548 405.744C424.874 407.137 425.273 408.582 425.616 409.995L426.115 411.996C426.589 413.888 427.232 415.788 427.836 417.647C424.242 419.112 418.189 420.045 414.254 420.62L411.003 421.097C409.172 421.351 407.497 421.749 405.713 422.2L405.004 421.589L404.623 421.537C401.748 418.147 394.264 410.579 390.868 407.088Z"/><path fill="#A87C2D" d="M390.868 407.088C400.631 398.955 409.611 388.645 418.63 379.66C419.045 379.247 419.486 380.897 419.524 381.074L419.935 383.025C419.435 383.719 419.527 383.734 418.759 384.048C416.737 384.873 415.709 389.742 415.159 391.507C412.032 401.62 408.646 411.65 405.004 421.589L404.623 421.537C401.748 418.147 394.264 410.579 390.868 407.088Z"/><path fill="#FECB33" d="M443.643 147.358C444.347 147.098 444.727 146.971 445.436 146.745C445.324 151.262 445.612 157.378 445.417 161.508C448.985 207.675 469.232 245.993 510.289 269.19C511.101 269.648 513.22 269.238 514.184 269.324L510.889 271.094C511.852 271.482 512.302 271.64 513.303 271.912C502.865 271.793 489.038 276.374 479.5 280.451C466.132 287.867 454.428 298.646 447.341 312.358L445.696 316.431C441.67 320.994 428.574 341.886 425.765 347.691C423.549 350.274 411.473 364.434 409.367 366.086C387.094 390.028 355.156 418.891 326.597 435.119C338.514 439.651 346.91 442.976 357.199 451.076C354.026 451.44 346.875 449.42 343.642 448.46C314.628 439.851 289.403 456.271 263.327 466.097C259.865 467.402 252.69 470.404 249.121 470.577C247.756 476.417 246.64 484.367 245.63 490.428C220.903 462.242 193.865 443.315 154.475 443.542C150.304 443.566 136.731 446.768 134.099 445.814C152.963 436.575 169.91 425.988 183.829 410.027C185.958 414.181 184.842 427.719 184.286 432.5C189.5 431.413 201.791 423.68 208.515 421.6C210.922 425.223 213.133 430.024 217.433 431.788C240.789 434.141 266.416 414.703 285.338 402.844C286.603 402.051 292.223 397.969 293.049 396.797C303.376 382.135 313.403 370.618 326.631 358.488C333.3 352.398 340.461 346.868 348.039 341.954C350.251 340.522 359.554 335.02 360.909 333.749C371.812 323.937 379.035 313.316 389.048 302.538C410.971 278.937 434.428 254.798 411.64 222.225C405.304 213.169 384.144 214.574 373.524 213.648C396.967 200.387 413.078 185.32 429.843 164.293C434.52 158.427 438.467 151.843 443.252 145.845L443.643 147.358Z"/><path fill="#F0AC33" d="M256.936 445.52C266.563 439.765 277.105 432.253 286.386 425.762C331.101 394.49 372.003 358.093 408.259 317.314C413.514 311.519 418.577 305.553 423.442 299.427C428.247 293.314 434.363 284.996 439.494 279.363L439.78 279.053L440.182 280.234C443.825 279.85 447.349 281.668 451.285 281.637C460.337 281.566 470.54 280.362 479.5 280.451C466.132 287.867 454.428 298.646 447.341 312.358L445.696 316.431C441.67 320.994 428.574 341.886 425.765 347.691C423.549 350.274 411.473 364.434 409.367 366.086C387.094 390.028 355.156 418.891 326.597 435.119C338.514 439.651 346.91 442.976 357.199 451.076C354.026 451.44 346.875 449.42 343.642 448.46C314.628 439.851 289.403 456.271 263.327 466.097C259.865 467.402 252.69 470.404 249.121 470.577C249.641 468.75 250.25 466.926 250.829 465.116C252.302 458.339 254.637 452.041 256.936 445.52Z"/><path fill="#A87C2D" d="M349.606 389.892C355.593 390.225 403.617 365.371 409.367 366.086C387.094 390.028 355.156 418.891 326.597 435.119C338.514 439.651 346.91 442.976 357.199 451.076C354.026 451.44 346.875 449.42 343.642 448.46C314.628 439.851 289.403 456.271 263.327 466.097C259.865 467.402 252.69 470.404 249.121 470.577C249.641 468.75 250.25 466.926 250.829 465.116C284.386 440.882 317.323 415.799 349.606 389.892Z"/><path fill="#8A6325" d="M404.151 332.501C406.758 332.061 411.051 330.014 413.566 328.896C420.07 326.003 426.482 322.912 432.795 319.624C437.047 317.407 443.135 313.944 447.341 312.358L445.696 316.431C441.67 320.994 428.574 341.886 425.765 347.691C423.549 350.274 411.473 364.434 409.367 366.086C403.617 365.371 355.593 390.225 349.606 389.892C372.197 369.608 385.194 356.353 404.151 332.501Z"/><path fill="#A87C2D" d="M440.182 280.234C443.825 279.85 447.349 281.668 451.285 281.637C460.337 281.566 470.54 280.362 479.5 280.451C466.132 287.867 454.428 298.646 447.341 312.358C443.135 313.944 437.047 317.407 432.795 319.624C426.482 322.912 420.07 326.003 413.566 328.896C411.051 330.014 406.758 332.061 404.151 332.501C415.99 315.591 430.277 299.107 440.182 280.234Z"/><path fill="#CE9836" d="M441.646 169.001C443.559 166.662 442.034 162.736 445.417 161.508C448.985 207.675 469.232 245.993 510.289 269.19C511.101 269.648 513.22 269.238 514.184 269.324L510.889 271.094C511.852 271.482 512.302 271.64 513.303 271.912C502.865 271.793 489.038 276.374 479.5 280.451C470.54 280.362 460.337 281.566 451.285 281.637C447.349 281.668 443.825 279.85 440.182 280.234L439.78 279.053C446.511 271.334 454.361 265.186 462.743 259.338C457.217 253.46 447.48 243.313 444.215 236.335C438.313 227.419 435.279 213.735 434.275 203.226C434.363 201.854 435.066 199.577 435.251 198.011C435.855 192.885 436.861 170.61 441.646 169.001Z"/><path fill="#8A6325" d="M434.275 203.226C434.363 201.854 435.066 199.577 435.251 198.011C435.855 192.885 436.861 170.61 441.646 169.001C438.098 197.311 450.147 233.313 471.751 252.213C476.435 256.311 483.103 260.889 488.521 264.076L488.441 264.482C475.306 259.029 462.293 252.413 451.807 242.638C449.535 240.52 446.849 237.915 444.215 236.335C438.313 227.419 435.279 213.735 434.275 203.226Z"/><path fill="#B7852B" d="M488.521 264.076C489.089 264.148 489.618 264.095 489.826 264.669C489.538 265.144 488.705 264.599 488.441 264.482L488.521 264.076Z"/><path fill="#FDC741" d="M208.515 421.6C210.922 425.223 213.133 430.024 217.433 431.788C216.779 434.772 217.272 433.467 218.676 436.191C222.374 443.366 227.022 450.916 230.746 457.967C229.687 457.41 228.837 456.913 227.82 456.3C213.838 447.873 197.886 441.613 181.777 439.197C182.192 437.847 183.49 433.152 184.286 432.5C189.5 431.413 201.791 423.68 208.515 421.6Z"/><path fill="#A87C2D" d="M443.643 147.358C444.347 147.098 444.727 146.971 445.436 146.745C445.324 151.262 445.612 157.378 445.417 161.508C442.034 162.736 443.559 166.662 441.646 169.001C436.861 170.61 435.855 192.885 435.251 198.011C435.066 199.577 434.363 201.854 434.275 203.226C429.981 179.942 432.798 168.353 443.643 147.358Z"/><path fill="#F0AC33" d="M426.324 184.366C427.445 185.461 427.005 189.186 426.912 190.66C426.173 202.357 428.401 212.541 431.743 223.685L432.393 225.803C428.934 221.655 425.914 217.882 421.953 214.166C415.829 208.664 411.516 206.913 403.783 204.119C412.931 197.998 419.716 193.478 426.324 184.366Z"/><path fill="#FECB33" d="M366.646 461.77C384.9 462.782 417.127 470.845 432.842 480.345C469.282 502.374 502.371 536.332 533.533 565.15C561.84 591.328 590.216 615.898 615.782 644.649C642.967 675.823 654.171 701.852 653.631 742.915C643.187 741.064 630.23 742.629 620.084 745.362C624.12 728.644 623.543 714.887 618.43 698.359C605.994 698.63 603.16 700.84 592.267 702.906C580.013 673.125 555.297 648.592 532.809 626.012C512.675 605.608 491.835 585.912 470.328 566.961C460.046 557.178 449.622 548.903 438.576 540.06C425.801 529.831 413.322 522.973 398.346 516.489C397.189 507.719 396.417 499.98 394.935 491.185C389.061 488.929 372.574 487.531 365.851 487.53C367.852 482.837 368.958 476.483 368.952 471.413L366.646 461.77Z"/><path fill="#CE9836" d="M470.328 566.961C472.163 547.739 471.076 551.917 467.665 534.423L467.589 534.02C482.823 546.18 500.783 562.282 515.192 575.721C553.626 611.564 598.9 648.368 618.43 698.359C605.994 698.63 603.16 700.84 592.267 702.906C580.013 673.125 555.297 648.592 532.809 626.012C512.675 605.608 491.835 585.912 470.328 566.961Z"/><path fill="#FDBD2D" d="M394.935 491.185C416.604 498.568 437.284 510.872 455.484 524.473C458.177 526.486 465.792 531.578 467.589 534.02L467.665 534.423C471.076 551.917 472.163 547.739 470.328 566.961C460.046 557.178 449.622 548.903 438.576 540.06C425.801 529.831 413.322 522.973 398.346 516.489C397.189 507.719 396.417 499.98 394.935 491.185Z"/><path fill="#FECB33" d="M234.748 670.573C245.7 672.393 253.143 671.819 263.721 668.993C267.477 677.231 268.087 682.56 269.293 691.262C274.551 729.195 258.873 761.746 237.114 791.596C235.784 793.421 234.554 795.506 233.5 797.576C257.888 779.402 285.593 761.231 317.42 760.917C318.187 760.922 321.316 760.953 321.876 761.214C328.19 764.165 337.023 771.797 341.679 776.517C345.673 780.619 349.246 785.11 352.345 789.924C358.163 795.393 377.504 817.212 378.16 823.317C348.247 812.604 327.864 812.221 296.662 817.935C288.071 819.879 276.35 822.235 268.374 825.183C234.55 835.006 216.034 845.194 185.574 860.849C183.988 862.299 177.199 865.667 174.98 866.937C163.01 873.788 151.755 881.497 140.373 889.257C144.799 882.304 150.259 875.284 154.967 868.232C183.718 825.168 217.46 764.751 218.032 711.257C221.905 710.269 242.004 702.528 243.84 699.623C241.482 687.85 239.424 681.686 234.748 670.573Z"/><path fill="#FDBD2D" d="M243.84 699.623C248.163 735.082 240.176 764.816 223.297 796.149C217.539 806.838 209.604 817.099 203.851 827.207C212.851 822.229 221.988 817.503 231.251 813.033C233.234 812.064 238.825 809.201 240.56 808.714C245.475 810.055 252.109 809.724 256.097 810.433C263.24 811.704 292.539 814.432 296.662 817.935C288.071 819.879 276.35 822.235 268.374 825.183C234.55 835.006 216.034 845.194 185.574 860.849C183.988 862.299 177.199 865.667 174.98 866.937C163.01 873.788 151.755 881.497 140.373 889.257C144.799 882.304 150.259 875.284 154.967 868.232C183.718 825.168 217.46 764.751 218.032 711.257C221.905 710.269 242.004 702.528 243.84 699.623Z"/><path fill="#A87C2D" d="M185.574 860.849C187.144 856.772 192.971 850.776 196.295 847.864C216.697 829.993 241.729 823.663 268.374 825.183C234.55 835.006 216.034 845.194 185.574 860.849Z"/><path fill="#CE9836" d="M240.56 808.714C248.62 805.815 256.955 802.101 265.259 799.134C295.296 788.402 320.816 785.444 352.345 789.924C358.163 795.393 377.504 817.212 378.16 823.317C348.247 812.604 327.864 812.221 296.662 817.935C292.539 814.432 263.24 811.704 256.097 810.433C252.109 809.724 245.475 810.055 240.56 808.714Z"/><path fill="#FECB33" d="M760.582 668.337C771.38 671.863 779.329 672.528 790.758 670.61C788.223 676.539 784.874 683.872 783.352 690.036C789.59 696.772 796.227 709.246 801.694 717.013C803.962 720.235 805.858 723.824 808.646 726.687C809.713 730.181 810.462 736.158 811.182 739.974C812.471 746.757 814.005 753.492 815.781 760.165C819.783 772.57 822.496 780.602 827.75 792.649C835.464 809.419 843.032 825.186 853.002 840.812C860.474 852.522 867.467 865.126 875.773 876.261L874.903 878.738C877.331 881.272 878.168 881.64 878.796 884.934C846.911 864.594 814.772 845.623 779.131 832.611C773.533 830.568 767.412 828.548 762.026 826.142L761.429 825.87C759.055 822.257 754.14 818.457 750.649 815.909C731.168 801.685 712.944 796.023 690.22 789.894L690.018 789.395L691.763 788.459C686.187 788.241 675.59 790.033 669.791 790.959C671.213 780.261 671.641 774.945 670.24 764.056C712.792 756.508 738.392 760.537 775.262 785.788C778.305 787.873 782.557 791.095 785.719 792.877L787.35 791.657C787.262 790.973 772.859 769.32 770.993 765.737C752.66 730.525 750.011 706.125 760.582 668.337Z"/><path fill="#A87C2D" d="M691.763 788.459C699.304 788.426 707.611 788.289 715.075 788.907C751.781 791.945 787.455 805.828 819.821 822.816C823.521 825.679 827.634 830.289 830.908 833.733C845.4 848.977 860.449 863.446 874.903 878.738C877.331 881.272 878.168 881.64 878.796 884.934C846.911 864.594 814.772 845.623 779.131 832.611C773.533 830.568 767.412 828.548 762.026 826.142L761.429 825.87C759.055 822.257 754.14 818.457 750.649 815.909C731.168 801.685 712.944 796.023 690.22 789.894L690.018 789.395L691.763 788.459Z"/><path fill="#CE9836" d="M782.173 739.881C784.107 739.409 785.235 740.256 786.87 741.267C791.113 743.891 812.777 760.889 815.487 760.307C815.594 760.284 815.683 760.212 815.781 760.165C819.783 772.57 822.496 780.602 827.75 792.649C835.464 809.419 843.032 825.186 853.002 840.812C860.474 852.522 867.467 865.126 875.773 876.261L874.903 878.738C860.449 863.446 845.4 848.977 830.908 833.733C827.634 830.289 823.521 825.679 819.821 822.816C819.629 821.155 811.258 809.467 809.574 806.942C800.938 793.993 794.842 780.416 789.183 765.993C786.829 756.792 784.072 749.693 782.173 739.881Z"/><path fill="#8A6325" d="M782.173 739.881C784.107 739.409 785.235 740.256 786.87 741.267C791.113 743.891 812.777 760.889 815.487 760.307C815.594 760.284 815.683 760.212 815.781 760.165C819.783 772.57 822.496 780.602 827.75 792.649C818.565 788.16 808.652 779.196 800.099 773.276C796.653 770.892 792.985 767.753 789.183 765.993C786.829 756.792 784.072 749.693 782.173 739.881Z"/><path fill="#A87C2D" d="M783.352 690.036C789.59 696.772 796.227 709.246 801.694 717.013C803.962 720.235 805.858 723.824 808.646 726.687C809.713 730.181 810.462 736.158 811.182 739.974C812.471 746.757 814.005 753.492 815.781 760.165C815.683 760.212 815.594 760.284 815.487 760.307C812.777 760.889 791.113 743.891 786.87 741.267C785.235 740.256 784.107 739.409 782.173 739.881C778.746 723.153 780.238 706.618 783.352 690.036Z"/><path fill="#FEFEFE" d="M787.35 791.657C789.236 791.815 793.674 798.934 794.865 800.764C793.557 799.761 785.762 793.873 785.719 792.877L787.35 791.657Z"/><path fill="#FDBD2D" d="M783.969 134.298C789.753 131.175 795.463 129.903 802 129.862C809.734 129.814 811.828 129.941 817.099 135.7C824.439 143.566 825.652 145.875 829.363 156.164C829.798 157.572 830.258 158.884 830.493 160.34C838.124 161.516 844.175 162.79 850.863 166.916C851.687 167.794 853.06 168.226 854.346 167.877C856.157 167.385 854.41 168.983 855.748 170.391C858.342 173.004 859.816 174.363 861.846 177.438C864.687 182.946 867.292 188.187 869.172 194.109C875.892 196.936 875.863 199.069 876.05 205.955C885.726 206.602 890.574 208.375 897.85 215.614C898.649 226.313 898.11 231.025 894.524 241.253C889.064 256.829 864.23 272.962 847.899 267.056L847.366 266.775C841.38 263.551 839.234 260.395 837.361 254.062C817.669 254.448 803.582 250.578 788.611 237.284C785.53 234.073 783.286 231.485 780.455 228.039C774.987 219.413 771.774 211.022 770.894 200.764C770.37 199.254 771.802 188.667 770.786 188.306C760.269 184.571 757.229 178.193 758.363 167.116C759.814 162.298 761.986 155.49 765.086 151.411C769.495 143.31 776.235 138.762 783.969 134.298Z"/><path fill="#CE9836" d="M861.846 177.438C864.687 182.946 867.292 188.187 869.172 194.109C875.892 196.936 875.863 199.069 876.05 205.955C885.726 206.602 890.574 208.375 897.85 215.614C898.649 226.313 898.11 231.025 894.524 241.253C889.064 256.829 864.23 272.962 847.899 267.056L847.366 266.775C841.38 263.551 839.234 260.395 837.361 254.062C817.669 254.448 803.582 250.578 788.611 237.284C797.19 236.905 807.289 238.439 816.316 238.29C819.543 234.877 825.475 226.241 828.583 222.01C832.788 214.922 836.614 209.861 843.527 205.485L844.817 205.483C846.143 198.5 856.731 182.822 861.846 177.438Z"/><path fill="#A87C2D" d="M843.527 205.485L844.817 205.483C843.204 218.495 841.661 230.891 846.842 243.549C859.111 242.11 866.937 238.665 876.149 229.608C877.254 228.522 882.647 219.768 883.846 217.853L884.408 217.991C886.877 234.743 874.242 254.855 859.447 261.958C855.721 263.747 851.724 265.451 847.899 267.056L847.366 266.775C841.38 263.551 839.234 260.395 837.361 254.062C817.669 254.448 803.582 250.578 788.611 237.284C797.19 236.905 807.289 238.439 816.316 238.29C819.543 234.877 825.475 226.241 828.583 222.01C832.788 214.922 836.614 209.861 843.527 205.485Z"/><path fill="#CE9836" d="M774.727 170.086C781.921 162.352 792.589 156.335 803.248 155.922C804.078 155.887 804.91 155.876 805.741 155.888C795.774 166.967 791.592 180.787 792.436 195.541C793.097 207.105 796.6 209.122 807.209 212.014C812.362 213.418 818.171 215.221 822.954 217.611C825.584 218.947 826.48 220.479 828.583 222.01C825.475 226.241 819.543 234.877 816.316 238.29C807.289 238.439 797.19 236.905 788.611 237.284C785.53 234.073 783.286 231.485 780.455 228.039C774.987 219.413 771.774 211.022 770.894 200.764C770.37 199.254 771.802 188.667 770.786 188.306C760.269 184.571 757.229 178.193 758.363 167.116C762.202 167.837 767.302 168.925 770.759 170.681C770.386 171.634 770.102 172.509 769.78 173.476L770.21 173.792C771.818 172.601 773.215 171.381 774.727 170.086Z"/><path fill="#A87C2D" d="M758.363 167.116C762.202 167.837 767.302 168.925 770.759 170.681C770.386 171.634 770.102 172.509 769.78 173.476L770.21 173.792C771.818 172.601 773.215 171.381 774.727 170.086C782.036 169.594 787.298 169.353 794.684 170.123C781.083 195.451 784.956 202.426 780.455 228.039C774.987 219.413 771.774 211.022 770.894 200.764C770.37 199.254 771.802 188.667 770.786 188.306C760.269 184.571 757.229 178.193 758.363 167.116Z"/><path fill="#FECB33" d="M843.527 205.485C842.064 205.149 837.565 204.617 836.149 204.549C807.211 203.178 800.717 177.763 813.752 155.804C814.496 154.551 825.979 156.858 829.363 156.164C829.798 157.572 830.258 158.884 830.493 160.34C838.124 161.516 844.175 162.79 850.863 166.916C851.687 167.794 853.06 168.226 854.346 167.877C856.157 167.385 854.41 168.983 855.748 170.391C858.342 173.004 859.816 174.363 861.846 177.438C856.731 182.822 846.143 198.5 844.817 205.483L843.527 205.485Z"/><path fill="#F0AC33" d="M783.969 134.298C789.753 131.175 795.463 129.903 802 129.862C809.734 129.814 811.828 129.941 817.099 135.7C815.854 137.254 815.808 137.957 813.754 138.411C806.233 140.075 799.566 143.795 792.713 147.099C789.775 143.688 785.559 138.538 783.969 134.298Z"/><path fill="#CE9836" d="M765.086 151.411C767.305 151.464 768.764 150.981 770.992 150.412C777.12 148.847 781.763 149.027 787.915 149.931C783.475 154.055 779.856 156.905 776.268 162.016C774.378 164.707 772.598 168.289 770.759 170.681C767.302 168.925 762.202 167.837 758.363 167.116C759.814 162.298 761.986 155.49 765.086 151.411Z"/><path fill="#A87C2D" d="M195.526 158.241C197.508 148.4 204.186 139.663 211.369 132.737C215.764 128.499 224.803 129.664 230.771 130.336C239.636 133.597 245.459 135.233 252.854 141.959C261.338 150.596 267.141 160.386 267.206 172.738C267.25 180.93 261.946 186.813 254.276 188.645C253.924 191.062 255.181 194.804 255.151 197.91C254.975 209.828 250.9 221.361 243.549 230.744C239.674 235.396 235.321 240.126 230.06 243.229C228.196 242.389 209.496 245.121 204.495 245.184C195.674 245.294 188.862 245.678 179.814 244.047C165.574 241.387 153.284 236.36 145.908 222.927C143.476 218.498 141.855 210.679 143.41 205.758L149.621 206.436C151.62 196.983 152.014 200 157.427 192.608C159.893 189.239 161.888 182.395 164.642 178.284C169.83 170.104 176.793 164.594 186.238 162.128C190.157 161.105 193.883 161.855 195.526 158.241Z"/><path fill="#FECB33" d="M195.526 158.241C199.849 156.774 207.944 156.077 212.662 155.654C222.928 183.956 216.369 205.728 182.379 205.029C185.3 219.256 184.167 230.339 179.814 244.047C165.574 241.387 153.284 236.36 145.908 222.927C143.476 218.498 141.855 210.679 143.41 205.758L149.621 206.436C151.62 196.983 152.014 200 157.427 192.608C159.893 189.239 161.888 182.395 164.642 178.284C169.83 170.104 176.793 164.594 186.238 162.128C190.157 161.105 193.883 161.855 195.526 158.241Z"/><path fill="#CE9836" d="M195.526 158.241C197.508 148.4 204.186 139.663 211.369 132.737C215.764 128.499 224.803 129.664 230.771 130.336C239.636 133.597 245.459 135.233 252.854 141.959C261.338 150.596 267.141 160.386 267.206 172.738C267.25 180.93 261.946 186.813 254.276 188.645C253.924 191.062 255.181 194.804 255.151 197.91C254.975 209.828 250.9 221.361 243.549 230.744C229.495 230.082 219.036 228.717 205.185 226.698C219.965 219.652 236.816 211.088 240.301 192.994C241.948 184.447 239.14 179.219 234.286 172.538C241.104 172.095 245.106 171.965 251.862 172.763C253.252 174.012 254.075 174.929 255.8 175.68C256.251 174.364 255.792 174.174 255.104 172.466C253.06 171.408 248.102 167.38 246.397 165.719C234.503 158.313 226.773 155.59 212.662 155.654C207.944 156.077 199.849 156.774 195.526 158.241Z"/><path fill="#FDBD2D" d="M230.771 130.336C239.636 133.597 245.459 135.233 252.854 141.959C250.904 143.798 247.447 147.955 245.805 150.164L242.468 154.708C235.592 148.057 231.568 145.434 222.848 141.082C225.302 138.361 228.879 134.415 230.381 131.146L230.771 130.336Z"/><path fill="#B7852B" d="M246.397 165.719C249.299 166.807 249.27 166.902 251.292 168.751C251.364 168.276 251.694 167.148 252.091 166.866C252.764 166.827 254.731 171.64 255.104 172.466C253.06 171.408 248.102 167.38 246.397 165.719Z"/><path fill="#FECB33" d="M570.031 519.174C580.276 528.419 590.029 538.32 600.247 547.604C645.743 588.94 714.69 628.127 775.862 595.585L776.012 597.777C767.724 603.379 760.811 610.784 755.79 619.436C755.291 620.295 750.912 628.489 750.781 628.659C747.121 640.309 746.963 650.923 752.797 661.877C745.279 662.143 739.273 663.603 730.555 663.661C709.55 663.802 686.611 658.983 667.44 650.257C658.586 646.227 643.899 637.167 635.357 631.784C634.136 619.952 633.257 616.369 633.021 603.562C623.793 596.374 610.756 585.818 602.473 577.873C600.281 573.983 593.497 566.866 590.574 562.778C583.296 552.601 578.006 541.685 573.786 529.925C572.711 526.929 569.924 521.877 570.031 519.174Z"/><path fill="#CE9836" d="M633.021 603.562C640.324 609.192 649.633 616.896 657.572 621.258C683.654 635.59 722.906 638.692 750.781 628.659C747.121 640.309 746.963 650.923 752.797 661.877C745.279 662.143 739.273 663.603 730.555 663.661C709.55 663.802 686.611 658.983 667.44 650.257C658.586 646.227 643.899 637.167 635.357 631.784C634.136 619.952 633.257 616.369 633.021 603.562Z"/><path fill="#FECB33" d="M374.947 705.85C377.102 698.429 380.619 687.542 384.422 680.793C400.149 652.884 423.819 628.332 447.22 606.754C452.729 601.673 464.886 589.648 470.032 585.961C475.438 590.494 481.694 596.613 486.799 601.566C492.613 606.76 497.232 611.851 502.743 617.26C498.916 621.319 494.532 624.938 490.474 628.82C482.598 636.241 475.063 644.018 467.894 652.125C445.469 677.695 425.461 703.605 427.6 740.125C428.26 751.391 431.968 762.06 436.651 772.283C438.544 776.415 441.14 780.586 442.867 784.766C435.49 780.05 430.03 776.319 421.485 773.779C416.219 760.152 405.737 744.851 403.768 730.059C403.199 725.78 404.024 718.98 404.009 714.383C393.562 710.271 385.79 708.315 374.947 705.85Z"/><path fill="#CE9836" d="M404.009 714.383C409.387 684.096 425.956 662.119 446.572 640.606C454.951 644.481 460.047 647.081 467.894 652.125C445.469 677.695 425.461 703.605 427.6 740.125C428.26 751.391 431.968 762.06 436.651 772.283C438.544 776.415 441.14 780.586 442.867 784.766C435.49 780.05 430.03 776.319 421.485 773.779C416.219 760.152 405.737 744.851 403.768 730.059C403.199 725.78 404.024 718.98 404.009 714.383Z"/><path fill="#A87C2D" d="M486.799 601.566C492.613 606.76 497.232 611.851 502.743 617.26C498.916 621.319 494.532 624.938 490.474 628.82C482.598 636.241 475.063 644.018 467.894 652.125C460.047 647.081 454.951 644.481 446.572 640.606C460.935 626.483 471.004 615.4 486.799 601.566Z"/><path fill="#FECB33" d="M420.984 549.961C424.975 552.508 431.186 557.563 435.206 560.65C432.748 563.481 416.305 580.838 415.867 581.908L416.012 582.345C416.737 584.485 417.515 586.597 418.244 588.754C420.306 594.854 420.596 601.08 421.977 607.297C398.856 627.248 368.534 646.857 339.468 656.384C319.796 662.745 307.096 664.539 286.366 663.703C281.564 663.497 277.358 662.958 272.629 662.19C278.313 655.075 280.811 645.352 281.106 636.381C281.206 623.905 275.121 614.448 267.873 604.797C267.924 604.418 267.974 604.04 268.024 603.661C274.509 605.552 285.617 607.176 292.507 607.393C333.097 608.668 370.911 590.995 402.217 566.402C408.859 561.184 414.78 555.521 420.984 549.961Z"/><path fill="#FDC741" d="M337.205 631.53C369.993 621.426 391.52 605.847 415.867 581.908L416.012 582.345C416.737 584.485 417.515 586.597 418.244 588.754C420.306 594.854 420.596 601.08 421.977 607.297C398.856 627.248 368.534 646.857 339.468 656.384C338.913 654.814 339.089 644.363 338.811 641.419C338.403 637.11 338.375 635.986 337.205 631.53Z"/><path fill="#F0AC33" d="M294.564 635.507C311.275 635.545 320.321 635.77 337.205 631.53C338.375 635.986 338.403 637.11 338.811 641.419C339.089 644.363 338.913 654.814 339.468 656.384C319.796 662.745 307.096 664.539 286.366 663.703C291.276 650.931 292.329 649.357 294.564 635.507Z"/><path fill="#A87C2D" d="M470.636 426.803C482.512 428.709 488.318 432.057 498.587 434.711C509 455.418 531.471 480.149 547.628 496.919C554.587 504.11 563.628 512.13 570.031 519.174C569.924 521.877 572.711 526.929 573.786 529.925C578.006 541.685 583.296 552.601 590.574 562.778C593.497 566.866 600.281 573.983 602.473 577.873C610.756 585.818 623.793 596.374 633.021 603.562C633.257 616.369 634.136 619.952 635.357 631.784C609.993 615.107 580.779 589.544 558.35 568.306C553.027 564.529 542.042 553.611 537.204 548.893C514.754 526.998 492.102 502.893 473.547 477.614C479.825 476.299 490.124 475.192 496.899 474.133C494.098 470.486 490.174 465.151 488.141 461.124C483.773 458.066 472.295 432.979 470.636 426.803Z"/><path fill="#FDBD2D" d="M470.636 426.803C482.512 428.709 488.318 432.057 498.587 434.711C509 455.418 531.471 480.149 547.628 496.919C542.882 505.561 541.349 509.162 537.439 517.902C528.856 507.227 516.938 495.634 507.88 484.58C504.085 479.949 491.662 464.535 488.141 461.124C483.773 458.066 472.295 432.979 470.636 426.803Z"/><path fill="#F0AC33" d="M496.899 474.133C503.173 482.39 508.751 491.344 514.952 499.477C530.07 519.305 542.185 540.559 554.841 561.971C555.895 563.755 558.086 566.38 558.35 568.306C553.027 564.529 542.042 553.611 537.204 548.893C514.754 526.998 492.102 502.893 473.547 477.614C479.825 476.299 490.124 475.192 496.899 474.133Z"/><path fill="#CE9836" d="M547.628 496.919C554.587 504.11 563.628 512.13 570.031 519.174C569.924 521.877 572.711 526.929 573.786 529.925C578.006 541.685 583.296 552.601 590.574 562.778C593.497 566.866 600.281 573.983 602.473 577.873C599.571 576.623 593.052 570.836 590.396 568.613C572.3 553.469 553.023 535.652 537.439 517.902C541.349 509.162 542.882 505.561 547.628 496.919Z"/><path fill="#CE9836" d="M700.559 434.734C714.035 433.324 718.558 433.966 731.901 435.046C747.368 445.588 762.35 456.825 776.801 468.722C767.635 470.897 761.455 473.406 751.914 474.288C744.102 468.32 739.651 465.001 729.785 464.019C710.442 464.198 695.06 471.2 684.383 487.598C680.131 496.544 678.905 502.04 684.259 511.064L685.962 512.754L684.484 514.751C654.318 504.312 632.217 513.87 605.616 526.354C598.318 519.145 591.659 513.549 583.815 506.993C578.396 502.139 574.539 499.129 569.399 493.657C575.049 490.341 581.305 486.523 586.94 483.348C614.415 469.693 628.627 465.996 659.074 461.328C670.704 449.072 683.562 438.687 700.559 434.734Z"/><path fill="#A87C2D" d="M700.559 434.734C714.035 433.324 718.558 433.966 731.901 435.046C747.368 445.588 762.35 456.825 776.801 468.722C767.635 470.897 761.455 473.406 751.914 474.288C744.102 468.32 739.651 465.001 729.785 464.019C727.887 462.064 720.212 459.606 717.627 458.652C701.117 452.557 687.297 453.118 670.737 458.92C667.889 459.917 662.158 461.798 659.074 461.328C670.704 449.072 683.562 438.687 700.559 434.734Z"/><path fill="#CE9836" d="M659.074 461.328C662.158 461.798 667.889 459.917 670.737 458.92C687.297 453.118 701.117 452.557 717.627 458.652C720.212 459.606 727.887 462.064 729.785 464.019C710.442 464.198 695.06 471.2 684.383 487.598C677.873 483.014 670.527 479.008 662.966 476.605C644.182 470.638 620.523 475.679 601.799 480.465C598.758 481.242 591.283 482.546 588.845 483.776C588.046 483.651 587.722 483.573 586.94 483.348C614.415 469.693 628.627 465.996 659.074 461.328Z"/><path fill="#A87C2D" d="M588.845 483.776C591.283 482.546 598.758 481.242 601.799 480.465C620.523 475.679 644.182 470.638 662.966 476.605C670.527 479.008 677.873 483.014 684.383 487.598C680.131 496.544 678.905 502.04 684.259 511.064C680.516 510.395 673.923 505.778 670.535 503.453C657.944 494.811 644.083 492.346 629.006 493.178C624.351 493.435 619.663 494.321 615.017 494.573L614.54 494.595C607.222 489.811 597.604 486.687 589.308 483.932L588.845 483.776Z"/><path fill="#FDC741" d="M586.94 483.348C587.722 483.573 588.046 483.651 588.845 483.776L589.308 483.932C597.604 486.687 607.222 489.811 614.54 494.595C607.356 497.122 589.625 502.779 583.815 506.993C578.396 502.139 574.539 499.129 569.399 493.657C575.049 490.341 581.305 486.523 586.94 483.348Z"/><path fill="#F0AC33" d="M618.43 698.359C623.543 714.887 624.12 728.644 620.084 745.362C630.23 742.629 643.187 741.064 653.631 742.915C653.835 756.435 652.938 765.98 670.24 764.056C671.641 774.945 671.213 780.261 669.791 790.959C675.59 790.033 686.187 788.241 691.763 788.459L690.018 789.395L690.22 789.894C712.944 796.023 731.168 801.685 750.649 815.909C754.14 818.457 759.055 822.257 761.429 825.87C708.434 811.398 677.204 807.463 627.036 833.06C636.668 817.437 655.362 783.225 626.539 772.919C611.495 767.541 596.281 777.418 583.26 783.927C598.296 755.379 604.562 734.149 592.267 702.906C603.16 700.84 605.994 698.63 618.43 698.359Z"/><path fill="#CE9836" d="M425.765 347.691C428.574 341.886 441.67 320.994 445.696 316.431C444.743 330.797 447.926 340.42 457.155 351.751C466.65 363.41 486.874 370.678 498.548 357.958C499.531 359.658 498.844 359.914 499.693 361.418C490.039 390.377 485.394 405.476 498.587 434.711C488.318 432.057 482.512 428.709 470.636 426.803C472.295 432.979 483.773 458.066 488.141 461.124C490.174 465.151 494.098 470.486 496.899 474.133C490.124 475.192 479.825 476.299 473.547 477.614C461.536 460.652 455.568 451.411 448.645 431.918C448.17 428.887 446.847 425.345 446.166 422.216C443.337 409.223 442.116 394.724 442.597 381.473C442.063 380.151 438.722 377.2 437.543 375.748C430.516 367.095 427.177 358.53 425.765 347.691Z"/><path fill="#FDC741" d="M466.851 410.095C467.781 416.501 468.585 420.652 470.636 426.803C472.295 432.979 483.773 458.066 488.141 461.124C490.174 465.151 494.098 470.486 496.899 474.133C490.124 475.192 479.825 476.299 473.547 477.614C461.536 460.652 455.568 451.411 448.645 431.918C452.508 427.375 455.703 425.689 458.244 419.828C458.803 418.538 465.545 411.125 466.851 410.095Z"/><path fill="#FECB33" d="M442.597 381.473C444.15 381.607 446.787 383.386 448.366 384.179L449.003 384.506C459.412 389.793 462.764 389.363 473.706 385.797C466.76 397.215 467.737 397.406 466.851 410.095C465.545 411.125 458.803 418.538 458.244 419.828C455.703 425.689 452.508 427.375 448.645 431.918C448.17 428.887 446.847 425.345 446.166 422.216C443.337 409.223 442.116 394.724 442.597 381.473Z"/><path fill="#CE9836" d="M134.099 445.814C136.731 446.768 150.304 443.566 154.475 443.542C193.865 443.315 220.903 462.242 245.63 490.428C246.64 484.367 247.756 476.417 249.121 470.577C252.69 470.404 259.865 467.402 263.327 466.097C289.403 456.271 314.628 439.851 343.642 448.46C346.875 449.42 354.026 451.44 357.199 451.076C361.106 454.67 363.995 457.13 366.646 461.77L368.952 471.413C367.12 472.124 360.307 475.983 357.69 477.337C352.441 480.053 345.523 482.057 340.931 484.345L340.134 484.737C330.735 471.265 317.072 465.569 300.883 464.099C289.018 463.021 280.299 468.233 271.72 475.918C261.703 484.89 254.488 497.279 252.456 510.671C251.836 514.853 251.842 520.782 251.645 525.234C245.073 516.076 236.196 505.31 228.091 497.422C200.615 470.502 164.835 453.677 126.577 449.688C129.451 448.01 131.047 447.151 134.099 445.814Z"/><path fill="#A87C2D" d="M374.947 705.85C385.79 708.315 393.562 710.271 404.009 714.383C404.024 718.98 403.199 725.78 403.768 730.059C405.737 744.851 416.219 760.152 421.485 773.779C408.123 769.607 389.304 770.978 384.832 787.387C380.896 801.825 388.936 817.538 396.779 829.366L394.696 830.988C389.316 828.301 383.646 825.812 378.16 823.317C377.504 817.212 358.163 795.393 352.345 789.924C349.246 785.11 345.673 780.619 341.679 776.517C337.023 771.797 328.19 764.165 321.876 761.214C321.316 760.953 318.187 760.922 317.42 760.917C329.972 758.937 346.984 763.414 359.39 764.233C374.325 765.218 371.125 747.884 371.088 738.428C371.046 727.902 372.578 716.473 374.947 705.85Z"/><path fill="#A87C2D" d="M364.557 666.151C367.08 664.657 369.226 663.422 371.844 662.077C356.062 691.378 349.448 704.943 347.889 739.411L347.905 740.61C346.602 742.337 340.619 740.138 338.315 739.858C315.157 737.037 297.545 744.911 276.794 752.922C281.137 745.132 283.549 740.273 286.741 732.002C287.558 729.53 288.27 727.024 288.874 724.492C289.097 723.581 289.302 722.666 289.491 721.748C291.279 712.61 291.423 704.688 290.102 695.498C289.489 691.23 288.354 687.619 287.671 683.385C290.535 683.491 292.669 683.495 295.538 683.857C321.083 684.178 342.018 677.431 364.557 666.151Z"/><path fill="#F0AC33" d="M364.557 666.151C367.08 664.657 369.226 663.422 371.844 662.077C356.062 691.378 349.448 704.943 347.889 739.411C345.38 738.531 327.684 706.493 322.518 701.879L322.479 701.632C314.333 696.968 305.979 692.931 297.626 688.662C295.019 687.33 288.68 684.871 294.558 684.005L295.538 683.857C321.083 684.178 342.018 677.431 364.557 666.151Z"/><path fill="#FECB33" d="M364.557 666.151L364.787 667.302C361.961 670.239 325.44 700.132 322.479 701.632C314.333 696.968 305.979 692.931 297.626 688.662C295.019 687.33 288.68 684.871 294.558 684.005L295.538 683.857C321.083 684.178 342.018 677.431 364.557 666.151Z"/><path fill="#FDC741" d="M287.671 683.385C290.535 683.491 292.669 683.495 295.538 683.857L294.558 684.005C288.68 684.871 295.019 687.33 297.626 688.662C305.979 692.931 314.333 696.968 322.479 701.632L322.518 701.879C318.778 705.349 314.929 708.7 310.976 711.926C308.002 714.362 291.663 728.513 287.541 732.209C287.519 732.23 286.766 732.008 286.741 732.002C287.558 729.53 288.27 727.024 288.874 724.492C289.097 723.581 289.302 722.666 289.491 721.748C291.279 712.61 291.423 704.688 290.102 695.498C289.489 691.23 288.354 687.619 287.671 683.385Z"/><path fill="#F0AC33" d="M246.527 593.599C254.447 597.893 259.441 600.472 268.024 603.661C267.974 604.04 267.924 604.418 267.873 604.797C275.121 614.448 281.206 623.905 281.106 636.381C280.811 645.352 278.313 655.075 272.629 662.19C269.871 664.267 266.462 667.462 263.721 668.993C253.143 671.819 245.7 672.393 234.748 670.573C239.424 681.686 241.482 687.85 243.84 699.623C242.004 702.528 221.905 710.269 218.032 711.257C219.625 679.497 209.301 655.467 192.172 629.73C209.046 640.99 246.087 652.724 253.163 624.158C255.519 614.643 250.734 604.68 245.761 596.937C245.543 595.771 244.915 594.895 245.888 594.137L246.527 593.599Z"/><path fill="#F0AC33" d="M776.012 597.777C778.308 596.487 778.969 596.091 781.375 595.584C762.754 621.934 772.959 648.811 808.65 640.414C817.946 638.227 824.198 634.64 832.687 630.855C809.24 669.113 805.98 681.015 808.646 726.687C805.858 723.824 803.962 720.235 801.694 717.013C796.227 709.246 789.59 696.772 783.352 690.036C784.874 683.872 788.223 676.539 790.758 670.61C779.329 672.528 771.38 671.863 760.582 668.337C758.194 667.693 754.587 663.735 752.797 661.877C746.963 650.923 747.121 640.309 750.781 628.659C750.912 628.489 755.291 620.295 755.79 619.436C760.811 610.784 767.724 603.379 776.012 597.777Z"/><path fill="#FDBD2D" d="M882.328 133.836C880.733 131.636 879.598 130.36 880.577 127.577C885.128 122.918 894.765 129.564 898.274 133.129L898.771 133.858C901.357 137.495 903.405 143.307 898.876 146.364C896.608 147.895 894.748 146.574 892.546 145.813C887.555 154.283 886.428 159.483 886.101 169.314C886.159 171.61 886.465 185.39 890.727 183.832C893.776 182.717 896.326 185.934 896.462 188.747C896.739 194.47 888.146 197.177 883.562 198.648C882.696 197.246 881.943 195.903 881.03 194.519C878.102 192.999 876.61 192.535 873.539 191.424C872.069 188.627 870.876 185.508 869.614 182.577C867.314 178.003 861.384 171.379 856.991 168.255C856.058 167.591 856.197 169.473 855.748 170.391C854.41 168.983 856.157 167.385 854.346 167.877C853.06 168.226 851.687 167.794 850.863 166.916C851.69 166.333 852.381 165.806 853.172 165.186C852.082 164.614 849.617 162.699 848.103 161.834C844.068 159.528 840.244 157.794 836.039 155.865L836.057 150.221C832.696 147.043 832.002 146.778 827.566 145.722C829.091 139.867 833.75 126.405 841.856 132.234C843.04 133.931 842.899 134.792 843.057 136.902L843.109 137.671C845.868 141.59 858.754 141.925 863.376 141.445C870.763 140.677 876.287 137.851 882.328 133.836Z"/><path fill="#A87C2D" d="M877.555 162.535C880.455 164.738 883.425 166.836 886.101 169.314C886.159 171.61 886.465 185.39 890.727 183.832C893.776 182.717 896.326 185.934 896.462 188.747C896.739 194.47 888.146 197.177 883.562 198.648C882.696 197.246 881.943 195.903 881.03 194.519C878.102 192.999 876.61 192.535 873.539 191.424C872.069 188.627 870.876 185.508 869.614 182.577C872.95 181.62 874.272 182.121 877.486 181.667C878.135 181.575 878.422 177.612 877.575 176.703C877.301 171.901 877.489 167.334 877.555 162.535Z"/><path fill="#CE9836" d="M898.274 133.129L898.771 133.858C901.357 137.495 903.405 143.307 898.876 146.364C896.608 147.895 894.748 146.574 892.546 145.813C887.555 154.283 886.428 159.483 886.101 169.314C883.425 166.836 880.455 164.738 877.555 162.535C877.514 159.316 877.566 156.095 877.711 152.878C878.124 146.305 879.702 147.779 885.591 143.291L887.572 141.782C891.294 138.95 894.663 136.028 898.274 133.129Z"/><path fill="#B7852B" d="M865.52 157.605C873.49 165.006 873.411 171.099 877.575 176.703C878.422 177.612 878.135 181.575 877.486 181.667C874.272 182.121 872.95 181.62 869.614 182.577C867.314 178.003 861.384 171.379 856.991 168.255C856.058 167.591 856.197 169.473 855.748 170.391C854.41 168.983 856.157 167.385 854.346 167.877C853.06 168.226 851.687 167.794 850.863 166.916C851.69 166.333 852.381 165.806 853.172 165.186C853.531 165.413 855.486 166.871 855.583 166.8C858.77 164.486 862.213 160.021 865.52 157.605Z"/><path fill="#FECB33" d="M851.608 149.45C859.201 149.592 867.364 149.573 875.005 149.416C875.856 149.399 876.272 149.18 877.335 149.221C877.712 149.581 877.665 152.212 877.711 152.878C877.566 156.095 877.514 159.316 877.555 162.535C877.489 167.334 877.301 171.901 877.575 176.703C873.411 171.099 873.49 165.006 865.52 157.605C864.072 155.776 859.326 153.426 857.051 152.263L851.608 149.45Z"/><path fill="#FDBD2D" d="M129.013 131.532C133.038 128.289 135.947 125.65 141.508 125.994C142.866 126.085 144.13 126.715 145.02 127.745C146.988 129.998 145.022 132.122 144.052 134.46C151.672 139.106 155.039 139.6 163.587 140.994C168.816 141.045 172.245 140.91 178.255 139.993C186.705 138.704 180.845 134.515 182.75 132.754C192.724 123.53 197.081 144.317 197.471 145.851C189.395 149.156 189.615 148.788 189.338 156.531C176.247 160.321 174.937 161.923 165.223 171.58C158.39 179.003 156.538 182.41 153.748 191.89L145.576 193.393C144.578 195.191 143.522 196.999 142.5 198.789C138.118 197.254 124.431 192.817 130.404 185.759C131.799 184.111 133.999 184.194 136.017 184.146L136.952 184.13C144.189 174.282 139.022 155.681 133.69 145.732C121.253 150.892 124.22 137.789 129.013 131.532Z"/><path fill="#A87C2D" d="M163.587 140.994C168.816 141.045 172.245 140.91 178.255 139.993C186.705 138.704 180.845 134.515 182.75 132.754C192.724 123.53 197.081 144.317 197.471 145.851C189.395 149.156 189.615 148.788 189.338 156.531C176.247 160.321 174.937 161.923 165.223 171.58C162.078 168.478 159.491 165.144 157.326 161.287C162.574 156.385 167.013 153.023 173.43 149.671C170.965 148.244 163.069 151.064 158.938 149.733L159.282 149.44C158.285 146.95 162.271 143.576 163.587 140.994Z"/><path fill="#FDC741" d="M159.282 149.44C161.413 149.394 174.66 147.987 175.35 148.175L175.471 148.295C175.403 148.996 173.957 149.454 173.43 149.671C170.965 148.244 163.069 151.064 158.938 149.733L159.282 149.44Z"/><path fill="#CE9836" d="M129.013 131.532C133.038 128.289 135.947 125.65 141.508 125.994C142.866 126.085 144.13 126.715 145.02 127.745C146.988 129.998 145.022 132.122 144.052 134.46C151.672 139.106 155.039 139.6 163.587 140.994C162.271 143.576 158.285 146.95 159.282 149.44L158.938 149.733C155.301 149.231 152.049 149.397 147.633 148.769C141.224 143.337 135.588 136.989 129.013 131.532Z"/><path fill="#CE9836" d="M128.03 215.185C130.62 212.298 139.308 204.817 143.41 205.758C141.855 210.679 143.476 218.498 145.908 222.927C153.284 236.36 165.574 241.387 179.814 244.047C188.862 245.678 195.674 245.294 204.495 245.184C209.496 245.121 228.196 242.389 230.06 243.229C219.874 250.34 207.672 253.985 195.255 253.629C193.823 253.598 188.993 252.99 188.454 254.042C183.98 271.104 170.427 269.265 156.82 264.949C136.455 255.966 123.754 237.915 128.03 215.185Z"/><path fill="#FDBD2D" d="M173.788 251.01C176.629 251.621 187.569 253.017 188.454 254.042C183.98 271.104 170.427 269.265 156.82 264.949C164.564 259.661 167.134 257.672 173.788 251.01Z"/><path fill="#A87C2D" d="M759.824 197.905C766.356 231.335 783.162 251.896 816.893 261.976C819.799 262.844 826.4 263.331 828.608 264.467C827.181 270.473 796.348 272.698 791.08 272.905C787.184 272.786 781.14 272.452 777.554 272.513C775.525 272.29 773.052 272.071 771.071 271.734L770.174 271.592L766.429 270.227C765.734 268.359 763.82 264.883 762.755 263.077C762.554 263.182 762.328 263.553 762.219 263.702C762.254 261.02 758.198 251.757 757.08 248.421C756.521 245.149 755.287 241.833 754.714 238.502C754.992 236.243 754.136 231.893 753.815 229.522C754.263 217.957 754.206 208.165 759.824 197.905Z"/><path fill="#8A6325" d="M760.862 230.94C768.316 239.98 773.204 249.773 783.806 256.426C789.894 260.247 797.28 265.278 804.18 267.415L804.024 268.147C792.249 267.103 777.527 270.98 766.682 269.277L766.429 270.227C765.734 268.359 763.82 264.883 762.755 263.077C762.554 263.182 762.328 263.553 762.219 263.702C762.254 261.02 758.198 251.757 757.08 248.421C758.965 247.033 763.835 247.057 766.058 247.269C765.784 242.591 763.496 236.783 761.573 232.545L760.862 230.94Z"/><path fill="#FECB33" d="M757.08 248.421C758.965 247.033 763.835 247.057 766.058 247.269C772.753 260.078 774.174 256.128 766.682 269.277L766.429 270.227C765.734 268.359 763.82 264.883 762.755 263.077C762.554 263.182 762.328 263.553 762.219 263.702C762.254 261.02 758.198 251.757 757.08 248.421Z"/><path fill="#A87C2D" d="M804.18 267.415C804.948 267.489 806.325 267.407 806.721 268.2C806.444 268.968 804.484 268.294 804.024 268.147L804.18 267.415Z"/><path fill="#F0AC33" d="M641.09 294.22C643.01 294.711 645.046 295.137 646.989 295.577C676.542 302.746 684.884 305.878 709.988 321.833C710.708 322.597 711.164 322.782 712.086 323.373C712.594 323.705 713.098 324.044 713.596 324.391C714.052 324.844 714.045 324.841 714.611 325.146C715.801 326.351 716.487 326.979 717.886 327.931L717.91 328.547C718.454 336.975 719.283 352.965 723.45 360.327L723.549 360.506L722.829 360.985C723.115 361.646 724.506 363.991 724.543 364.098C724.401 366.239 724.374 366.327 725.6 368.05L728.184 367.039C729.021 368.756 729.401 369.407 729.685 371.227C728.622 371.674 727.612 372.062 726.535 372.47L726.008 372.92C725.145 372.356 725.283 372.544 724.708 371.868C714.783 360.192 702.63 349.13 691.105 339.007C688.918 337.268 685.872 334.311 683.954 332.275C672.102 319.693 657.475 309.555 645.075 297.797L641.09 294.22Z"/><defs><linearGradient id="gradient_0" gradientUnits="userSpaceOnUse" x1="713.77509" y1="327.3309" x2="696.06201" y2="342.56119"><stop offset="0" stop-color="#7C5621"/><stop offset="1" stop-color="#AA7B29"/></linearGradient></defs><path fill="url(#gradient_0)" d="M671.642 309.818C684.13 316.022 692.92 322.063 703.431 331.09C708.748 330.343 712.635 329.73 717.91 328.547C718.454 336.975 719.283 352.965 723.45 360.327L723.549 360.506L722.829 360.985C723.115 361.646 724.506 363.991 724.543 364.098C724.401 366.239 724.374 366.327 725.6 368.05L728.184 367.039C729.021 368.756 729.401 369.407 729.685 371.227C728.622 371.674 727.612 372.062 726.535 372.47L726.008 372.92C725.145 372.356 725.283 372.544 724.708 371.868C714.783 360.192 702.63 349.13 691.105 339.007C694.68 337.626 697.049 336.36 699.988 333.978C692.735 325.282 680.843 316.572 671.303 310.265L671.642 309.818Z"/><path fill="#FEFEFE" d="M728.184 367.039C729.021 368.756 729.401 369.407 729.685 371.227C728.622 371.674 727.612 372.062 726.535 372.47C726.104 371.586 724.31 368.508 725.6 368.05L728.184 367.039Z"/><path fill="#FEFEFE" d="M762.219 263.702C762.328 263.553 762.554 263.182 762.755 263.077C763.82 264.883 765.734 268.359 766.429 270.227L770.174 271.592C767.954 272.688 764.048 273.602 768.843 275.633C773.023 276.478 777.467 276.143 782.03 277.04L782.803 277.187C785.888 275.927 789.382 273.586 791.831 276.351L792.307 276.225C793.831 277.214 791.376 279.631 790.405 280.692C783.633 288.09 780.536 291.977 770.339 290.915C765.802 298.079 764.184 300.16 757.957 306.011C758.516 300.876 759.212 296.265 760.553 291.253C760.848 290.152 762.909 283.703 762.706 283.22C761.525 282.52 761.233 282.32 760.106 281.485L759.32 281.426C753.917 283.147 753.47 307.455 752.098 309.241C748.01 309.266 734.334 311.197 732.82 315.06C731.541 314.211 730.59 315.042 729.607 315.983L727.717 316.556C726.207 317.131 723.847 318.269 722.494 319.176C721.575 319.53 720.695 319.853 719.799 320.259C719.036 320.556 718.275 320.862 717.519 321.176C716.391 320.95 716.384 321.009 715.42 320.393C715.44 319.309 715.475 318.393 715.408 317.314C716.119 315.127 717.298 316.608 718.896 314.636L719.469 313.957L719.492 313.584C720.372 311.572 721.18 309.556 721.699 307.415C723.789 300.977 725.108 297.069 724.035 290.078C724.057 289.196 724.07 288.411 724.045 287.524L724.363 286.786C724.182 285.853 724.014 284.917 723.858 283.979C721.871 277.944 728.345 279.576 732.493 279.541L733.498 279.453C735.345 279.261 737.21 279.261 738.983 279.903C740.678 280.639 742.749 281.06 743.868 279.416C745.591 276.885 746.699 277.974 748.151 276.928C756.443 275.35 750.983 273.631 755.686 269.357C756.87 267.671 754.636 265.288 753.71 263.09C757.78 264.06 759.118 265.473 762.219 263.702Z"/><path fill="#CE9836" d="M756.557 278.092C762.166 275.765 757.056 279.554 759.32 281.426C753.917 283.147 753.47 307.455 752.098 309.241C748.01 309.266 734.334 311.197 732.82 315.06C731.541 314.211 730.59 315.042 729.607 315.983L727.717 316.556C726.207 317.131 723.847 318.269 722.494 319.176C721.575 319.53 720.695 319.853 719.799 320.259C719.036 320.556 718.275 320.862 717.519 321.176C716.391 320.95 716.384 321.009 715.42 320.393C715.44 319.309 715.475 318.393 715.408 317.314C716.119 315.127 717.298 316.608 718.896 314.636L719.469 313.957L719.492 313.584C720.372 311.572 721.18 309.556 721.699 307.415C723.789 300.977 725.108 297.069 724.035 290.078C724.057 289.196 724.07 288.411 724.045 287.524L724.363 286.786C724.182 285.853 724.014 284.917 723.858 283.979C725.207 283.914 726.404 283.86 727.756 283.726C729.929 289.523 733.993 292.386 738.431 296.809C744.21 291.106 752.041 284.822 756.557 278.092Z"/><path fill="#FDBD2D" d="M723.858 283.979C725.207 283.914 726.404 283.86 727.756 283.726C729.929 289.523 733.993 292.386 738.431 296.809C732.558 302.909 727.145 309.461 721.711 315.946C720.245 317.696 720.253 318.153 719.799 320.259C719.036 320.556 718.275 320.862 717.519 321.176C716.391 320.95 716.384 321.009 715.42 320.393C715.44 319.309 715.475 318.393 715.408 317.314C716.119 315.127 717.298 316.608 718.896 314.636L719.469 313.957L719.492 313.584C720.372 311.572 721.18 309.556 721.699 307.415C723.789 300.977 725.108 297.069 724.035 290.078C724.057 289.196 724.07 288.411 724.045 287.524L724.363 286.786C724.182 285.853 724.014 284.917 723.858 283.979Z"/><path fill="#FEFEFE" d="M719.469 313.957C718.956 317.065 717.596 318.258 717.519 321.176C716.391 320.95 716.384 321.009 715.42 320.393C715.44 319.309 715.475 318.393 715.408 317.314C716.119 315.127 717.298 316.608 718.896 314.636L719.469 313.957Z"/><path fill="#A87C2D" d="M792.307 276.225C793.831 277.214 791.376 279.631 790.405 280.692C783.633 288.09 780.536 291.977 770.339 290.915C765.802 298.079 764.184 300.16 757.957 306.011C758.516 300.876 759.212 296.265 760.553 291.253C760.848 290.152 762.909 283.703 762.706 283.22C761.525 282.52 761.233 282.32 760.106 281.485L760.341 281.553L761.286 281.836C764.592 282.735 763.936 281.281 765.802 278.218C773.64 278.907 784.36 278.911 791.831 276.351L792.307 276.225Z"/><path fill="#FECB33" d="M727.756 283.726C738.742 282.66 746.013 281.211 756.557 278.092C752.041 284.822 744.21 291.106 738.431 296.809C733.993 292.386 729.929 289.523 727.756 283.726Z"/><path fill="#A87C2D" d="M308.154 328.479C310.193 324.229 330.556 312.681 335.831 309.906C348.883 303.042 368.023 297.256 382.789 295.372C377.778 300.615 372.358 304.85 367.055 309.646C354.069 321.391 338.251 333.318 325.953 345.496C317.372 354.383 308.18 363.045 299.928 372.392C300.264 371.182 300.583 369.968 300.885 368.749C301.622 365.644 302.535 362.581 303.337 359.493L303.852 357.493C305.08 352.573 306.674 347.217 307.485 342.251C308.186 337.963 307.955 332.891 308.154 328.479Z"/><path fill="#FDBD2D" d="M308.154 328.479C313.935 329.071 321.062 331.212 326.187 333.89L326.118 334.376C325.341 339.563 325.306 340.128 325.953 345.496C317.372 354.383 308.18 363.045 299.928 372.392C300.264 371.182 300.583 369.968 300.885 368.749C301.622 365.644 302.535 362.581 303.337 359.493L303.852 357.493C305.08 352.573 306.674 347.217 307.485 342.251C308.186 337.963 307.955 332.891 308.154 328.479Z"/><path fill="#F0AC33" d="M340.134 484.737L340.931 484.345C345.523 482.057 352.441 480.053 357.69 477.337C360.307 475.983 367.12 472.124 368.952 471.413C368.958 476.483 367.852 482.837 365.851 487.53C372.574 487.531 389.061 488.929 394.935 491.185C396.417 499.98 397.189 507.719 398.346 516.489C380.73 510.1 361.516 507.708 343.475 514.034C342.725 513.227 342.037 512.501 341.324 511.657L342.864 510.639C346.957 499.393 345.801 495.139 340.134 484.737Z"/><path fill="#A87C2D" d="M340.134 484.737L340.931 484.345C345.523 482.057 352.441 480.053 357.69 477.337C360.307 475.983 367.12 472.124 368.952 471.413C368.958 476.483 367.852 482.837 365.851 487.53C362.519 497.867 351.997 505.709 342.864 510.639C346.957 499.393 345.801 495.139 340.134 484.737Z"/><path fill="#8A6325" d="M581.139 244.583C587.897 241.455 604.709 222.522 613.662 223.255C597.069 247.088 605.818 266.667 622.378 286.941C612.614 284.354 596.322 270.781 583.259 266.411C580.723 262.67 577.844 256.904 575.784 252.81C577.562 250.234 579.415 247.234 581.139 244.583Z"/><path fill="#CE9836" d="M597.78 418.184C601.827 418.408 617.96 421.056 620.227 420.651L620.913 421.133L620.884 421.359L620.167 422.063C620.945 426.338 623.407 433.93 624.69 438.451L626.792 445.696C616.458 448.589 594.101 457.538 584.741 462.261C584.736 460.974 584.724 459.914 584.802 458.619C583.286 459.756 584.096 459.7 582.086 459.951C587.002 445.692 593.937 434.586 597.78 418.184Z"/><path fill="#FDBD2D" d="M597.78 418.184C601.827 418.408 617.96 421.056 620.227 420.651L620.913 421.133L620.884 421.359L620.167 422.063C609.139 432.965 595.323 447.224 584.802 458.619C583.286 459.756 584.096 459.7 582.086 459.951C587.002 445.692 593.937 434.586 597.78 418.184Z"/><path fill="#A87C2D" d="M750.694 315.402C753.569 315.183 757.217 314.162 759.916 313.113C755.734 320.123 743.922 331.02 741.267 338.136C737.415 348.458 740.268 368.384 742.721 379.255C743.862 384.14 745.167 388.986 746.633 393.784C745.377 392.12 729.831 371.313 729.685 371.227C729.401 369.407 729.021 368.756 728.184 367.039C727.043 363.673 727.582 362.49 724.543 364.098C724.506 363.991 723.115 361.646 722.829 360.985L723.549 360.506C727.373 358.209 726.139 358.355 725.846 352.779C725.369 343.696 727.363 335.073 729.711 326.376C730.373 324.446 731.096 322.481 731.653 320.526C730.721 318.725 730.737 317.893 729.607 315.983C730.59 315.042 731.541 314.211 732.82 315.06C736.802 317.3 745.392 315.05 750.694 315.402Z"/><path fill="#FEFEFE" d="M729.607 315.983C730.59 315.042 731.541 314.211 732.82 315.06C736.802 317.3 745.392 315.05 750.694 315.402L750.191 315.546C746.771 316.544 733.852 319.458 731.653 320.526C730.721 318.725 730.737 317.893 729.607 315.983Z"/><path fill="#A87C2D" d="M239.318 246.205C250.351 236.347 259.401 224.395 263.832 209.881C264.405 208.007 265.645 200.452 266.489 199.57C269.06 201.447 269.899 207.246 270.371 210.292C273.724 231.918 269.646 247.887 261.313 267.423L260.107 269.675C259.388 268.652 256.216 263.709 255.76 262.634C252.801 258.462 250.991 256.871 247.294 253.484L246.81 253.457C244.177 250.977 241.59 249.688 239.318 246.205Z"/><path fill="#8A6325" d="M265.069 230.658C262.867 239.279 259.938 254.859 255.969 262.239L255.76 262.634C252.801 258.462 250.991 256.871 247.294 253.484C248.567 251.242 256.956 242.309 259.762 238.502L260.373 237.684C262.001 235.459 263.585 232.987 265.069 230.658Z"/><path fill="#A87C2D" d="M635.014 407.221C638.457 409.99 641.44 412.638 645.058 415.405L646.866 416.792C652.545 421.16 662.037 428.442 667.04 433.319C667.517 433.629 668.659 434.247 668.835 434.794C668.714 435.321 666.936 435.488 666.513 435.559C654.72 437.556 643.294 441.028 631.775 444.15C630.094 444.599 628.432 445.115 626.792 445.696L624.69 438.451C623.407 433.93 620.945 426.338 620.167 422.063L620.884 421.359L620.913 421.133C625.013 417.502 631.065 411.321 635.014 407.221Z"/><path fill="#F0AC33" d="M635.014 407.221C638.457 409.99 641.44 412.638 645.058 415.405L646.866 416.792C652.545 421.16 662.037 428.442 667.04 433.319C664.877 433.437 646.3 428.088 642.711 427.164L636.99 425.653L636.009 425.405C634.925 425.113 633.835 424.841 632.741 424.589L629.508 423.863C626.68 423.2 623.538 422.516 620.884 421.359L620.913 421.133C625.013 417.502 631.065 411.321 635.014 407.221Z"/><path fill="#FDBD2D" d="M266.759 277.196C268.788 277.643 269.269 277.822 271.128 278.746C275.699 280.013 279.789 281.229 284.493 282.09L287.243 282.583C288.936 282.87 291.962 283.653 293.705 283.279C293.826 283.254 293.889 281.839 293.953 281.535L294.523 281.946C297.43 284.08 295.221 283.658 300.582 284.074C301.086 284.027 301.866 283.819 302.332 284.134C302.248 283.964 302.187 304.736 304.115 306.996C303.969 306.825 305.504 311.612 305.625 312.042C305.94 312.819 308.616 319.717 308.35 320.293C308.013 320.359 306.723 319.436 306.532 319.31C298.61 315.852 290.684 312.262 282.504 309.452C280.605 308.8 272.452 309.096 271.888 307.308C271.082 303.387 273.913 303.104 273.331 299.001C272.309 291.793 271.668 286.529 267.744 280.091C267.41 279.128 267.081 278.163 266.759 277.196Z"/><path fill="#8A6325" d="M300.582 284.074C301.086 284.027 301.866 283.819 302.332 284.134C302.248 283.964 302.187 304.736 304.115 306.996C303.969 306.825 305.504 311.612 305.625 312.042C304.609 313.129 304.903 313.31 304.239 314.054C303.97 314.052 302.568 313.369 302.137 313.204C297.4 307.179 292.365 301.595 287.474 295.759C290.346 292.773 297.139 286.555 300.582 284.074Z"/><path fill="#B7852B" d="M271.128 278.746C275.699 280.013 279.789 281.229 284.493 282.09L287.243 282.583C288.936 282.87 291.962 283.653 293.705 283.279C293.826 283.254 293.889 281.839 293.953 281.535L294.523 281.946C297.43 284.08 295.221 283.658 300.582 284.074C297.139 286.555 290.346 292.773 287.474 295.759C282.119 289.877 276.307 284.946 270.824 279.282C270.737 279.192 271.151 278.716 271.128 278.746Z"/><path fill="#A87C2D" d="M302.137 313.204C302.568 313.369 303.97 314.052 304.239 314.054C304.903 313.31 304.609 313.129 305.625 312.042C305.94 312.819 308.616 319.717 308.35 320.293C308.013 320.359 306.723 319.436 306.532 319.31C305.214 316.727 303.996 315.433 302.137 313.204Z"/><path fill="#FDBD2D" d="M282.533 382.398C285.841 369.103 288.339 352.491 284.737 339.02C282.307 329.931 270.36 321.622 267.755 313.882C271.062 315.216 272.177 315.728 275.672 315.252C277.727 317.052 290.338 319.255 294.152 320.457C298.722 330.143 300.808 344.749 300.163 355.422C299.411 367.884 291.134 379.309 283.186 388.351C282.344 389.54 280.858 391.316 279.914 392.474C280.771 388.252 281.203 386.573 282.533 382.398Z"/><path fill="#FDBD2D" d="M282.533 382.398L282.619 384.416C282.706 386.81 282.237 385.991 283.186 388.351C282.344 389.54 280.858 391.316 279.914 392.474C280.771 388.252 281.203 386.573 282.533 382.398Z"/><path fill="#FDBD2D" d="M435.206 560.65C441.698 564.969 448.039 570.195 454.486 574.63C443.483 588.79 436.004 596.13 421.977 607.297C420.596 601.08 420.306 594.854 418.244 588.754C417.515 586.597 416.737 584.485 416.012 582.345L415.867 581.908C416.305 580.838 432.748 563.481 435.206 560.65Z"/><path fill="#FECB33" d="M239.318 246.205C241.59 249.688 244.177 250.977 246.81 253.457L247.294 253.484C250.991 256.871 252.801 258.462 255.76 262.634C256.216 263.709 259.388 268.652 260.107 269.675C258.294 270.246 253.507 271.196 252.185 271.837C238.502 273.476 227.228 273.52 213.691 270.555C209.765 270.135 199.878 268.451 197.448 264.984C196.537 263.685 201.917 263.459 202.492 263.378C216.199 261.45 228.385 254.69 239.318 246.205Z"/><path fill="#F0AC33" d="M239.318 246.205C241.59 249.688 244.177 250.977 246.81 253.457C245.296 254.48 244.047 255.92 242.52 257.073C237.685 260.724 232.043 263.674 226.374 265.815C221.882 267.512 217.994 268.102 213.691 270.555C209.765 270.135 199.878 268.451 197.448 264.984C196.537 263.685 201.917 263.459 202.492 263.378C216.199 261.45 228.385 254.69 239.318 246.205Z"/><path fill="#F0AC33" d="M606.189 383.467C606.241 383.185 606.898 378.802 607.695 379.52C612.727 384.056 617.048 389.527 621.77 394.412C626.229 399.145 630.406 402.87 635.014 407.221C631.065 411.321 625.013 417.502 620.913 421.133L620.227 420.651C617.96 421.056 601.827 418.408 597.78 418.184C598.709 415.14 599.57 412.075 600.361 408.992L600.597 408.008C601.832 403.043 603.532 397.231 604.511 392.314L604.892 390.495C605.359 388.157 605.83 385.824 606.189 383.467Z"/><path fill="#FECB33" d="M606.189 383.467C606.241 383.185 606.898 378.802 607.695 379.52C612.727 384.056 617.048 389.527 621.77 394.412C626.229 399.145 630.406 402.87 635.014 407.221C631.065 411.321 625.013 417.502 620.913 421.133L620.227 420.651C615.674 410.355 613.211 396.021 608.697 385.317C607.854 383.32 607.991 383.728 606.189 383.467Z"/><path fill="#FDBD2D" d="M737.897 259.071C737.17 255.681 736.49 253.573 737.012 249.981C737.729 245.057 745.847 233.976 749.672 231.359C749.357 233.698 749.044 236.024 748.729 238.363C748.745 239.671 748.832 240.729 748.946 242.032C749.579 247.51 749.339 250.124 751.06 255.697C751.241 256.456 751.43 257.215 751.563 257.984C752.098 259.216 753.269 261.875 753.71 263.09C754.636 265.288 756.87 267.671 755.686 269.357C752.962 270.464 750.413 271.992 747.541 273.167C745.128 274.162 742.732 275.178 740.278 276.072L739.144 276.488C737.487 276.943 735.729 277.185 734.141 277.842C728.804 277.791 726.394 276.583 721.736 274.24C719.747 273.11 718.507 272.322 716.389 271.303C723.292 266.98 730.711 262.935 737.897 259.071Z"/><path fill="#A87C2D" d="M276.428 230.968C277.92 232.632 279.577 234.313 280.889 236.085C288.945 246.968 289.582 246.952 288.208 259.997C295.205 262.732 302.161 266.774 308.784 270.388L308.211 271.033C307.81 271.457 307.582 271.834 307.439 272.396C295.772 281.303 286.337 277.293 274.294 271.841C271.535 270.592 271.507 271.131 268.587 271.632C270.164 270.021 271.341 269.664 268.618 268.628C270.023 268.312 271.495 264.139 272.292 262.688C278.153 252.015 278.29 242.704 276.428 230.968Z"/><path fill="#A87C2D" d="M183.829 410.027C191.852 399.251 195.334 395.472 201.15 382.662L202.464 383.952L202.439 384.453C201.567 399.858 201.746 407.576 208.515 421.6C201.791 423.68 189.5 431.413 184.286 432.5C184.842 427.719 185.958 414.181 183.829 410.027Z"/><path fill="#FDBD2D" d="M716.389 271.303C718.507 272.322 719.747 273.11 721.736 274.24C721.327 274.659 721.309 274.671 720.829 275.009L720.147 275.472C717.306 277.308 717.476 279.313 715.321 282.066C714.995 283.276 714.821 284.718 714.57 285.993L714.368 287.792C714.236 288.531 714.147 289.137 714.05 289.881C712.621 295.042 711.761 300.555 710.14 305.686C710.047 306.177 709.954 306.668 709.861 307.159L709.642 307.936L708.887 308.078C696.78 303.821 686.542 299.153 673.93 295.954C680.325 293.114 686.711 290.668 693.59 289.217C696.278 288.65 698.475 289.73 700.968 290.59C705.177 284.573 710.777 277.613 715.649 272.073C715.897 271.818 716.144 271.561 716.389 271.303Z"/><path fill="#FEFEFE" d="M716.389 271.303C718.507 272.322 719.747 273.11 721.736 274.24C721.327 274.659 721.309 274.671 720.829 275.009L720.147 275.472C717.306 277.308 717.476 279.313 715.321 282.066C715.627 278.21 716.334 275.84 715.649 272.073C715.897 271.818 716.144 271.561 716.389 271.303Z"/><path fill="#A87C2D" d="M309.676 271.848C312.436 274.751 315.107 278.041 317.556 281.214C319.917 284.298 322.317 287.352 324.754 290.376C332.467 288.524 332.741 288.411 340.954 291.661C344.69 293.139 347.87 294.215 351.588 296.115C339.147 299.1 328.449 303.816 316.741 308.56L316.497 307.717C316.407 307.421 316.317 307.126 316.226 306.83C314.905 302.422 313.717 297.974 312.665 293.494C311.463 288.288 310.358 281.704 309.792 276.416C309.75 274.593 309.588 273.696 309.676 271.848Z"/><path fill="#FDBD2D" d="M261.525 280.251C262.378 282.765 263.576 285.203 264.336 287.793C264.887 289.67 269.619 305.75 267.697 306.413C267.437 306.246 267.398 306.162 267.214 305.904C263.936 301.289 259.43 297.539 255.976 293.002C255.589 292.495 255.892 291.251 255.796 290.993C255.363 289.826 251.981 291.039 250.999 290.765C248.531 290.649 245.08 289.467 242.926 287.601C239.467 284.402 234.811 280.643 232.629 276.485C232.421 276.089 233.539 276.2 233.648 276.246C235.011 276.821 236.419 276.063 237.711 276.295C238.365 276.412 239.14 277.443 240.005 277.474C242.613 277.961 245.262 278.37 247.88 278.79C253.181 279.81 257.978 277.912 261.525 280.251Z"/><path fill="#FEFEFE" fill-opacity="0.0078431377" d="M714.05 289.881C714.556 291.704 715.062 294.814 716.81 296.071C718.379 297.199 720.792 290.618 722.912 290.494C721.384 290.583 724.966 289.917 724.035 290.078C725.108 297.069 723.789 300.977 721.699 307.415C721.139 306.33 719.892 303.637 718.487 303.493C716.173 303.257 712.173 304.496 710.14 305.686C711.761 300.555 712.621 295.042 714.05 289.881Z"/><path fill="#FEFEFE" fill-opacity="0.76078433" d="M260.107 269.675L261.313 267.423L262.136 267.904C264.332 269.202 263.604 268.902 266.401 269.557C262.718 270.234 262.552 277.108 266.759 277.196C267.081 278.163 267.41 279.128 267.744 280.091C263.58 278.566 264.933 277.858 261.525 280.251C257.978 277.912 253.181 279.81 247.88 278.79C249.612 276.64 254.525 275.689 252.778 272.691C252.861 272.55 253.045 272.415 253.006 272.255C252.97 272.106 252.745 272.037 252.631 271.994C252.589 271.978 252.543 271.974 252.501 271.958C252.394 271.921 252.29 271.877 252.185 271.837C253.507 271.196 258.294 270.246 260.107 269.675Z"/><path fill="#FEFEFE" fill-opacity="0.36078432" d="M732.82 315.06C734.334 311.197 748.01 309.266 752.098 309.241C751.676 310.232 752.024 310.262 752.157 311.499C752.695 316.505 756.312 311.551 759.916 313.113C757.217 314.162 753.569 315.183 750.694 315.402C745.392 315.05 736.802 317.3 732.82 315.06Z"/><path fill="#FEFEFE" fill-opacity="0.98823529" d="M268.618 268.628C271.341 269.664 270.164 270.021 268.587 271.632C268.492 272.233 268.189 273.596 268.658 273.985C270.176 275.246 278.309 280.017 279.74 280.018C285.964 280.023 288.158 280.087 293.953 281.535C293.889 281.839 293.826 283.254 293.705 283.279C291.962 283.653 288.936 282.87 287.243 282.583L284.493 282.09C279.789 281.229 275.699 280.013 271.128 278.746C269.269 277.822 268.788 277.643 266.759 277.196C262.552 277.108 262.718 270.234 266.401 269.557L268.618 268.628Z"/><path fill="#FEFEFE" fill-opacity="0.63921571" d="M715.321 282.066C717.476 279.313 717.306 277.308 720.147 275.472L720.829 275.009C721.153 275.913 721.933 279.368 722.775 279.152C725.737 278.389 729.239 279.418 732.523 278.991L732.493 279.541C728.345 279.576 721.871 277.944 723.858 283.979C724.014 284.917 724.182 285.853 724.363 286.786C722.171 283.145 721.702 284.316 718.187 286.69C717.184 287.367 715.883 286.27 714.57 285.993C714.821 284.718 714.995 283.276 715.321 282.066Z"/><path fill="#FEFEFE" fill-opacity="0.15686275" d="M708.887 308.078L709.642 307.936C710.158 310.398 710.814 310.257 709.967 313.005C708.978 316.213 713.535 316.785 715.258 316.959L715.408 317.314C715.475 318.393 715.44 319.309 715.42 320.393C714.209 322.047 713.463 322.181 713.596 324.391C713.098 324.044 712.594 323.705 712.086 323.373C711.164 322.782 710.708 322.597 709.988 321.833C711.68 318.079 705.116 317.383 705.642 313.455C706.028 310.575 709.525 311.7 708.887 308.078Z"/><path fill="#FEFEFE" fill-opacity="0.18039216" d="M710.14 305.686C712.173 304.496 716.173 303.257 718.487 303.493C719.892 303.637 721.139 306.33 721.699 307.415C721.18 309.556 720.372 311.572 719.492 313.584C714.641 311.442 717.582 308.449 713.798 307.161C713.502 307.06 710.313 307.041 709.861 307.159C709.954 306.668 710.047 306.177 710.14 305.686Z"/><path fill="#FEFEFE" fill-opacity="0.40000001" d="M777.554 272.513C781.14 272.452 787.184 272.786 791.08 272.905C791.412 274.804 791.29 274.653 792.307 276.225L791.831 276.351C789.382 273.586 785.888 275.927 782.803 277.187L782.03 277.04C777.467 276.143 773.023 276.478 768.843 275.633C776.781 275.547 771.705 275.576 777.554 272.513Z"/><path fill="#FEFEFE" fill-opacity="0.3019608" d="M709.861 307.159C710.313 307.041 713.502 307.06 713.798 307.161C717.582 308.449 714.641 311.442 719.492 313.584L719.469 313.957L718.896 314.636C718.463 314.695 716.48 315.207 716.294 314.8C713.165 307.955 711.505 311.634 715.258 316.959C713.535 316.785 708.978 316.213 709.967 313.005C710.814 310.257 710.158 310.398 709.642 307.936L709.861 307.159Z"/><path fill="#FEFEFE" fill-opacity="0.26274511" d="M714.57 285.993C715.883 286.27 717.184 287.367 718.187 286.69C721.702 284.316 722.171 283.145 724.363 286.786L724.045 287.524C722.502 286.803 719.016 290.29 718.251 291.652C716.607 294.578 714.682 288.48 714.368 287.792L714.57 285.993Z"/><path fill="#FEFEFE" fill-opacity="0.17254902" d="M721.015 321.432C721.573 321.108 722.103 320.804 722.65 320.46L722.91 320.882C724.614 323.683 725.085 327.456 729.498 325.536C729.569 325.816 729.64 326.096 729.711 326.376C725.8 328.969 725.345 325.886 721.97 328.477C720.636 329.502 719.203 328.971 717.91 328.547L717.886 327.931C719.58 326.07 719.827 328.116 721.258 326.844C721.245 326.855 720.943 322.242 721.015 321.432Z"/><defs><linearGradient id="gradient_1" gradientUnits="userSpaceOnUse" x1="723.47253" y1="320.25168" x2="726.70929" y2="319.89398"><stop offset="0" stop-color="white" stop-opacity="0.20784314"/><stop offset="1" stop-color="white" stop-opacity="0.25098041"/></linearGradient></defs><path fill="url(#gradient_1)" d="M722.494 319.176C723.847 318.269 726.207 317.131 727.717 316.556L727.814 318.24C727.853 319.007 727.196 324.931 727.019 324.227C727.88 324.624 728.693 325.034 729.498 325.536C725.085 327.456 724.614 323.683 722.91 320.882L722.65 320.46C722.783 319.822 722.725 319.829 722.494 319.176Z"/><path fill="#FEFEFE" fill-opacity="0.15686275" d="M714.368 287.792C714.682 288.48 716.607 294.578 718.251 291.652C719.016 290.29 722.502 286.803 724.045 287.524C724.07 288.411 724.057 289.196 724.035 290.078C724.966 289.917 721.384 290.583 722.912 290.494C720.792 290.618 718.379 297.199 716.81 296.071C715.062 294.814 714.556 291.704 714.05 289.881C714.147 289.137 714.236 288.531 714.368 287.792Z"/><path fill="#B7852B" d="M822.207 376.653C823.042 378.832 824.59 382.259 825.184 384.397C823.553 386.711 825.433 389.733 825.819 392.843C825.746 392.953 824.315 395.258 824.78 395.193C824.281 395.263 822.798 401.159 823.217 400.716C823.172 400.123 823.08 399.536 822.993 398.946C823.166 389.054 822.975 386.576 822.207 376.653Z"/><path fill="#FEFEFE" fill-opacity="0.3137255" d="M719.799 320.259C720.695 319.853 721.575 319.53 722.494 319.176C722.725 319.829 722.783 319.822 722.65 320.46C722.103 320.804 721.573 321.108 721.015 321.432C720.809 321.706 717.361 326.837 717.683 326.577C717.15 326.658 716.77 325.304 714.611 325.146C714.045 324.841 714.052 324.844 713.596 324.391C713.463 322.181 714.209 322.047 715.42 320.393C716.384 321.009 716.391 320.95 717.519 321.176C718.275 320.862 719.036 320.556 719.799 320.259Z"/><defs><linearGradient id="gradient_2" gradientUnits="userSpaceOnUse" x1="751.29565" y1="254.8492" x2="756.71405" y2="251.53282"><stop offset="0" stop-color="white" stop-opacity="0.047058824"/><stop offset="1" stop-color="white" stop-opacity="0.10196079"/></linearGradient></defs><path fill="url(#gradient_2)" d="M751.06 255.697C751.276 255.047 752.029 251.054 752.565 251.132C755.277 251.522 757.564 250.087 757.828 253.732C757.862 254.203 755.355 257.064 754.75 256.966C752.87 256.662 752.264 255.108 751.563 257.984C751.43 257.215 751.241 256.456 751.06 255.697Z"/><path fill="#FEFEFE" fill-opacity="0.50980395" d="M721.736 274.24C726.394 276.583 728.804 277.791 734.141 277.842C734.393 277.969 734.645 278.096 734.897 278.223C734.896 278.483 734.781 278.534 734.501 278.858L732.523 278.991C729.239 279.418 725.737 278.389 722.775 279.152C721.933 279.368 721.153 275.913 720.829 275.009C721.309 274.671 721.327 274.659 721.736 274.24Z"/><path fill="#FEFEFE" fill-opacity="0.94117647" d="M740.278 276.072C742.732 275.178 745.128 274.162 747.541 273.167C748.084 274.789 747.998 275.153 748.151 276.928C746.699 277.974 745.591 276.885 743.868 279.416C742.749 281.06 740.678 280.639 738.983 279.903C742.815 277.887 740.674 280.802 742.568 277.287C742.401 277.023 740.892 276.509 740.278 276.072Z"/><path fill="#FEFEFE" fill-opacity="0.28627452" d="M770.174 271.592L771.071 271.734C773.052 272.071 775.525 272.29 777.554 272.513C771.705 275.576 776.781 275.547 768.843 275.633C764.048 273.602 767.954 272.688 770.174 271.592Z"/><path fill="#FEFEFE" fill-opacity="0.73333335" d="M751.379 230.59C751.829 230.108 752.288 229.958 752.919 229.786L753.815 229.522C754.136 231.893 754.992 236.243 754.714 238.502C754.404 238.242 754.552 238.322 754.3 238.214C754.248 238.231 754.197 238.249 754.145 238.267C753.999 238.533 753.991 238.85 753.713 239.009C751.913 238.901 750.611 236.844 749.587 239.995L748.946 242.032C748.832 240.729 748.745 239.671 748.729 238.363C751.266 235.568 754.187 234.879 751.379 230.59Z"/><path fill="#FEFEFE" fill-opacity="0.30588236" d="M727.717 316.556L729.607 315.983C730.737 317.893 730.721 318.725 731.653 320.526C731.096 322.481 730.373 324.446 729.711 326.376C729.64 326.096 729.569 325.816 729.498 325.536C728.693 325.034 727.88 324.624 727.019 324.227C727.196 324.931 727.853 319.007 727.814 318.24L727.717 316.556Z"/><path fill="#FEFEFE" fill-opacity="0.49019608" d="M755.686 269.357C750.983 273.631 756.443 275.35 748.151 276.928C747.998 275.153 748.084 274.789 747.541 273.167C750.413 271.992 752.962 270.464 755.686 269.357Z"/><path fill="#CE9836" fill-opacity="0.97647059" d="M874.903 878.738L875.773 876.261C878.736 880.084 882.166 885.006 884.859 889.04C883.537 888.144 879.646 885.694 878.796 884.934C878.168 881.64 877.331 881.272 874.903 878.738Z"/><path fill="#FDC741" d="M775.862 595.585C779.606 593.252 781.745 592.144 785.598 590.294C784.642 591.538 782.435 594.81 781.375 595.584C778.969 596.091 778.308 596.487 776.012 597.777L775.862 595.585Z"/><path fill="#FEFEFE" fill-opacity="0.98823529" d="M751.379 230.59C754.187 234.879 751.266 235.568 748.729 238.363C749.044 236.024 749.357 233.698 749.672 231.359C750.262 231.103 750.8 230.873 751.379 230.59Z"/><path fill="#FEFEFE" fill-opacity="0.21568628" d="M721.015 321.432C720.943 322.242 721.245 326.855 721.258 326.844C719.827 328.116 719.58 326.07 717.886 327.931C716.487 326.979 715.801 326.351 714.611 325.146C716.77 325.304 717.15 326.658 717.683 326.577C717.361 326.837 720.809 321.706 721.015 321.432Z"/><path fill="#FEFEFE" fill-opacity="0.88235295" d="M739.144 276.488L740.278 276.072C740.892 276.509 742.401 277.023 742.568 277.287C740.674 280.802 742.815 277.887 738.983 279.903C737.21 279.261 735.345 279.261 733.498 279.453L732.493 279.541L732.523 278.991L734.501 278.858C736.099 278.806 737.333 279.012 738.352 277.598L739.144 276.488Z"/><path fill="#FEFEFE" fill-opacity="0.98039216" d="M267.755 313.882C268.88 310.684 273.654 313.225 275.266 314.851L275.672 315.252C272.177 315.728 271.062 315.216 267.755 313.882Z"/><path fill="#FEFEFE" fill-opacity="0.58039218" d="M715.258 316.959C711.505 311.634 713.165 307.955 716.294 314.8C716.48 315.207 718.463 314.695 718.896 314.636C717.298 316.608 716.119 315.127 715.408 317.314L715.258 316.959Z"/><path fill="#FDBD2D" d="M582.086 459.951C584.096 459.7 583.286 459.756 584.802 458.619C584.724 459.914 584.736 460.974 584.741 462.261L579.675 464.76C580.383 463.354 581.321 461.157 582.086 459.951Z"/><path fill="#CE9836" fill-opacity="0.98431373" d="M239.897 589.961C242.384 591.227 244.177 591.939 246.527 593.599L245.888 594.137C244.915 594.895 245.543 595.771 245.761 596.937C243.79 594.67 241.822 592.271 239.897 589.961Z"/><path fill="#FEFEFE" fill-opacity="0.21176471" d="M724.543 364.098C727.582 362.49 727.043 363.673 728.184 367.039L725.6 368.05C724.374 366.327 724.401 366.239 724.543 364.098Z"/><path fill="#FDBD2D" d="M894.48 447.297C898.744 448.858 900.263 449.743 894.583 450.094C893.264 449.237 892.749 448.981 891.359 448.322C893.07 448.25 894.161 448.896 894.48 447.297Z"/><path fill="#FDC741" fill-opacity="0.98039216" d="M338.016 514.584C339.038 513.785 340.545 512.653 341.324 511.657C342.037 512.501 342.725 513.227 343.475 514.034C342.034 514.565 340.457 515.05 339.077 515.657L338.016 514.584Z"/><path fill="#F0AC33" fill-opacity="0.97647059" d="M501.201 353.476C500.851 356.934 500.815 358.099 499.693 361.418C498.844 359.914 499.531 359.658 498.548 357.958C499.246 356.518 500.357 354.886 501.201 353.476Z"/><path fill="#F0AC33" d="M685.962 512.754C688.006 514.642 689.428 515.811 691.49 517.821C689.075 516.69 686.947 515.779 684.484 514.751L685.962 512.754Z"/><path fill="#FEFEFE" fill-opacity="0.87843138" d="M307.439 272.396C307.582 271.834 307.81 271.457 308.211 271.033L308.784 270.388C309.161 270.966 309.321 271.227 309.676 271.848C309.588 273.696 309.75 274.593 309.792 276.416C307.824 274.039 308.754 274.702 307.439 272.396Z"/><path fill="#FEFEFE" fill-opacity="0.80784315" d="M734.141 277.842C735.729 277.185 737.487 276.943 739.144 276.488L738.352 277.598C737.333 279.012 736.099 278.806 734.501 278.858C734.781 278.534 734.896 278.483 734.897 278.223C734.645 278.096 734.393 277.969 734.141 277.842Z"/><path fill="#F0AC33" fill-opacity="0.95294118" d="M443.252 145.845C443.607 145.201 444.546 143.7 445.138 143.366C445.65 143.4 445.422 146.251 445.436 146.745C444.727 146.971 444.347 147.098 443.643 147.358L443.252 145.845Z"/><path fill="#B7852B" d="M394.696 830.988L396.779 829.366C397.203 829.94 399.147 832.058 398.663 832.719C398.243 832.816 395.357 831.276 394.696 830.988Z"/><path fill="#CE9836" fill-opacity="0.96078432" d="M525.792 359.053C525.706 358.485 525.126 355.927 525.823 355.702C526.271 355.952 527.99 358.778 528.401 359.416L525.792 359.053Z"/><path fill="#B7852B" fill-opacity="0.95294118" d="M201.15 382.662C201.439 381.915 202.268 379.232 202.771 378.85C203.524 378.999 202.557 383.316 202.464 383.952L201.15 382.662Z"/><path fill="#F0AC33" fill-opacity="0.86666667" d="M339.077 515.657C336.205 516.633 333.777 517.761 338.016 514.584L339.077 515.657Z"/></svg>