<?xml version="1.0" encoding="utf-8" ?><svg xmlns="http://www.w3.org/2000/svg" xmlns:xlink="http://www.w3.org/1999/xlink" width="1024" height="1024" viewBox="0 0 1024 1024"><path fill="#F6652F" transform="scale(2 2)" d="M231.897 161.277C244.694 166.366 252.264 181.168 254.539 194.075C256.681 205.403 254.114 212.839 265.372 219.975C268.865 212.008 267.087 204.48 265.372 196.409L265.572 196.769C268.212 201.439 269.368 207.416 271.437 212.367C281.63 236.216 285.929 246.638 274.104 271.688C274.935 270.649 275.463 270 276.425 269.044C278.166 266.564 285.951 261.882 288.934 260.585L292.981 258.211C292.194 259.743 291.585 261.076 290.366 262.322C289.325 264.346 284.014 272.838 282.373 275.053C278.761 287.15 286.332 295.92 295.539 302.586C296.556 297.965 298.381 293.432 300.476 289.199C304.05 294.882 304.211 299.446 302.7 305.957L302.61 306.335C313.042 299.151 310.545 297.246 309.985 286.692C309.715 281.606 309.137 269.427 309.78 264.477C310.468 266.61 312.191 272.997 312.867 274.399C324.745 299.002 322.58 292.064 320.322 317.209C321.997 316.307 323.98 315.116 325.55 314.041C327.022 312.976 327.965 312.11 329.313 310.88C329.021 329.726 316.206 335.877 316.009 338.193C317.772 338.377 318.663 338.093 320.322 337.637C324.803 335.879 325.79 334.956 329.313 331.607C328.04 343.323 325.913 347.949 320.322 358.008C317.858 361.332 316.338 363.354 312.754 365.469C307.894 366.845 305.541 367.702 300.476 368.288C298.545 368.379 298.254 368.223 297.105 366.653C296.655 366.201 294.001 365.78 292.981 365.469C290.67 366.082 289.135 366.593 286.716 366.653C286.482 366.582 286.248 366.51 286.014 366.439L285.832 366.622C286.133 367.239 286.354 367.694 286.716 368.288C288.25 373.159 299.17 371.885 303.122 372.099C305.845 372.246 309.242 374.125 311.277 374.327C314.342 382.071 294.256 377.166 291.718 376.62C281.515 385.869 276.364 380.686 263.687 380.384C260.616 380.311 256.694 382.474 253.623 382.704C250.774 382.918 232.812 381.781 229.704 381.271C225.265 380.543 226.845 375.848 221.776 375.399C216.175 374.903 194.786 381.589 200.433 372.142C195.01 372.422 191.255 371.577 185.921 371.274C187.854 368.907 198.349 365.7 201.69 365.469C203.306 364.814 204.453 364.594 205.178 363.033C204.826 360.202 204.516 358.966 201.69 358.008C198.44 356.009 195.347 355.581 191.752 354.24C201.169 350.87 196.164 346.987 192.112 341.173C187.734 334.891 186.445 327.319 185.921 319.749C189.426 324.571 193.083 330.053 199.408 331.231C210.123 333.228 193.795 305.08 193.772 296.716C202.885 315.692 200.754 311.167 217.581 320.909L217.95 320.693C221.242 315.258 210.189 307.283 208.459 301.951C205.667 293.346 209.515 287.875 209.449 279.124C209.413 274.23 208.059 271.584 207.481 267.225L207.448 266.958C212.516 273.595 212.151 281.978 216.54 288.625C233.083 279.367 220.138 259.852 218.529 249.823C216.842 239.308 221.256 226.567 227.286 218.055C226.984 225.91 231.685 238.006 235.935 244.912C243.425 238.941 237.238 226.359 235.109 219.429C229.254 200.368 253.825 186.384 231.897 161.277ZM292.981 313.022C293.347 310.659 293.558 308.646 294.217 306.335C292.321 305.346 290.146 304.275 288.35 303.158C289.803 307.474 290.132 316.891 292.981 313.022Z"/><path fill="#FDCA5A" transform="scale(2 2)" d="M226.438 269.044C228.735 270.576 236.853 276.755 238.342 278.402L238.591 278.211C244.289 273.721 247.415 285.82 244.994 269.861C245.527 270.592 246.029 271.901 245.936 272.81L245.982 272.74L245.743 272.573C245.783 272.107 245.821 272.097 246.037 271.688C247.233 274.687 245.904 278.04 246.037 280.89C246.504 280.208 246.999 279.159 247.387 278.402C249.027 281.884 247.113 301.648 260.773 301.775C262.222 300.874 261.237 300.13 262.431 299.617C263.597 298.316 264.508 296.738 265.372 295.216C269.357 297.811 272.874 299.283 274.104 304.397C272.14 312.79 263.404 319.366 263.823 324.959L264.183 325.536C266.104 325.585 269.975 319.82 271.725 318.297C272.313 318.159 272.166 318.215 272.811 318.297C273.284 320.042 274.196 321.429 275.143 322.966C276.258 324.804 277.702 326.543 279.037 328.24C279.711 329.538 281.043 331.691 281.147 332.958C281.439 337.078 281.836 341.616 282.373 345.705C282.252 346.807 282.081 347.028 281.147 347.7C279.372 342.44 275.541 335.37 275.27 330.432C274.697 319.962 267.613 327.405 267.909 330.199C269.261 342.981 283.841 353.261 274.34 366.957C273.361 368.368 270.586 370.717 270.276 372.142C270.826 373.126 271.552 373.336 270.276 373.847C267.904 372.586 266.918 371.184 265.601 370.32C260.593 367.035 256.192 377.429 249.753 377.292C244.512 377.182 236.058 374.821 231.897 371.274L231.897 371.274C230.53 368.798 229.549 368.282 227.286 366.653L227.535 366.152C228.326 365.558 228.609 365.836 229.553 365.601C226.576 360.748 218.068 357.323 212.3 350.358L212.3 349.47L212.3 349.47C218.981 349.01 216.203 336.856 214.393 332.958C217.52 335.296 221.781 339.286 224.773 341.036C224.236 337.257 225.153 329.894 224.773 325.202C224.248 324.286 224.167 321.49 224.773 320.533C226.695 323.809 228.123 325.392 230.587 328.24C234.164 325.398 229.715 318.022 229.197 314.041L229.197 314.041C228.439 310.188 227.776 307.087 227.286 303.158C227.684 301.562 227.395 300.856 229.197 300.874L229.197 300.874C230.841 299.928 231.791 296.343 232.488 294.381C235.42 286.125 230.255 276.457 226.438 269.044Z"/><path fill="#FEA60B" transform="scale(2 2)" d="M226.438 269.044C228.735 270.576 236.853 276.755 238.342 278.402L238.591 278.211C244.289 273.721 247.415 285.82 244.994 269.861C245.527 270.592 246.029 271.901 245.936 272.81L245.982 272.74L245.743 272.573C245.783 272.107 245.821 272.097 246.037 271.688C247.233 274.687 245.904 278.04 246.037 280.89L246.037 280.89C246.455 285.977 245.877 290.417 245.929 295.473C245.979 300.233 248.522 303.758 239.753 299.617C235.796 304.576 240.835 315.673 242.828 320.533C238.89 317.045 230.262 306.043 229.197 300.874L229.197 300.874C230.841 299.928 231.791 296.343 232.488 294.381C235.42 286.125 230.255 276.457 226.438 269.044Z"/><path fill="#FEC711" transform="scale(2 2)" d="M246.037 280.89C246.455 285.977 245.877 290.417 245.929 295.473C245.979 300.233 248.522 303.758 239.753 299.617C243.416 299.062 247.052 303.902 245.616 297.657L245.281 298.349C244.648 298.501 244.655 298.56 244.056 298.348L244.895 298.22C245.624 297.21 243.433 287.377 246.037 280.89Z"/><path fill="#FECB51" transform="scale(2 2)" d="M232.914 277.636C243.377 280.92 241.273 289.423 236.959 296.716C236.796 297.237 236.227 298.176 235.935 298.699C236.205 288.62 239.974 287.472 232.914 277.636Z"/><path fill="#FEB206" transform="scale(2 2)" d="M212.3 349.47L212.3 349.47C213.478 353.365 239.083 368.982 231.897 371.274L231.897 371.274C230.53 368.798 229.549 368.282 227.286 366.653L227.535 366.152C228.326 365.558 228.609 365.836 229.553 365.601C226.576 360.748 218.068 357.323 212.3 350.358L212.3 349.47Z"/><path fill="#FEB206" transform="scale(2 2)" d="M224.773 320.533C226.695 323.809 228.123 325.392 230.587 328.24C230.923 329.154 231.841 330.285 232.914 330.077L232.914 332.958C229.984 330.838 226.61 325.522 224.773 325.202C224.248 324.286 224.167 321.49 224.773 320.533Z"/><path fill="#FEA60B" transform="scale(2 2)" d="M229.197 314.041C232.02 318.008 233.204 325.107 232.914 330.077C231.841 330.285 230.923 329.154 230.587 328.24C234.164 325.398 229.715 318.022 229.197 314.041Z"/><path fill="#FEC711" transform="scale(2 2)" d="M271.725 318.297C272.313 318.159 272.166 318.215 272.811 318.297C273.284 320.042 274.196 321.429 275.143 322.966C271.047 323.013 272.541 320.59 271.725 318.297Z"/><path fill="#FDE98C" transform="scale(2 2)" d="M256.427 305.083C266.958 304.454 256.324 316.772 256.968 324.16C257.92 335.069 276.031 347.142 273.412 359.931C270.989 371.765 267.975 364.254 261.618 367.515C251.682 372.611 248.962 385.647 235.935 366.653C233.282 363.37 220.054 352.005 226.013 349.552C229.03 349.518 233.464 355.375 236.622 357.16C240.306 359.241 244.19 361.141 247.972 363.033C246.244 357.537 243.268 353.498 242.352 347.847C240.553 336.754 252.106 331.763 247.387 312.234C248.993 307.6 251.658 305.722 256.427 305.083Z"/><defs><linearGradient id="gradient_0" gradientUnits="userSpaceOnUse" x1="249.32509" y1="383.00488" x2="248.22108" y2="363.0784"><stop offset="0" stop-color="#F59247"/><stop offset="1" stop-color="#FEBE85"/></linearGradient></defs><path fill="url(#gradient_0)" transform="scale(2 2)" d="M185.921 371.274C187.854 368.907 198.349 365.7 201.69 365.469C204.444 367.294 210.887 367.125 213.843 367.869C217.052 368.676 219.355 371.401 223.535 371.703C226.667 371.929 228.876 371.239 231.897 371.274L231.897 371.274C236.058 374.821 244.512 377.182 249.753 377.292C256.192 377.429 260.593 367.035 265.601 370.32C266.918 371.184 267.904 372.586 270.276 373.847C279.745 376.006 282.588 367.181 286.716 368.288C288.25 373.159 299.17 371.885 303.122 372.099C305.845 372.246 309.242 374.125 311.277 374.327C314.342 382.071 294.256 377.166 291.718 376.62C281.515 385.869 276.364 380.686 263.687 380.384C260.616 380.311 256.694 382.474 253.623 382.704C250.774 382.918 232.812 381.781 229.704 381.271C225.265 380.543 226.845 375.848 221.776 375.399C216.175 374.903 194.786 381.589 200.433 372.142C195.01 372.422 191.255 371.577 185.921 371.274Z"/><path fill="#FDE98C" transform="scale(2 2)" d="M270.276 372.142C270.586 370.717 273.361 368.368 274.34 366.957C283.841 353.261 269.261 342.981 267.909 330.199C267.613 327.405 274.697 319.962 275.27 330.432C275.541 335.37 279.372 342.44 281.147 347.7C282.081 347.028 282.252 346.807 282.373 345.705C283.025 347.83 283.589 346.512 285.182 347.7C286.542 345.915 287.317 344.063 288.934 342.406C290.029 341.703 290.783 340.894 291.718 339.993C291.769 346.063 291.333 346.547 288.934 351.99C294.427 348.388 295.833 339.79 299.943 334.812C302.059 332.249 306.114 329.355 308.807 327.274C304.475 336.803 303.817 337.203 305.856 346.9C306.795 351.368 297.13 362.831 292.981 365.469C290.67 366.082 289.135 366.593 286.716 366.653C286.482 366.582 286.248 366.51 286.014 366.439L285.832 366.622C286.133 367.239 286.354 367.694 286.716 368.288C282.588 367.181 279.745 376.006 270.276 373.847C271.552 373.336 270.826 373.126 270.276 372.142Z"/><path fill="#FECB51" transform="scale(2 2)" d="M270.276 372.142C273.913 375.353 280.223 370.06 282.565 367.248C284.567 364.846 284.807 364.048 286.716 366.653C286.482 366.582 286.248 366.51 286.014 366.439L285.832 366.622C286.133 367.239 286.354 367.694 286.716 368.288C282.588 367.181 279.745 376.006 270.276 373.847C271.552 373.336 270.826 373.126 270.276 372.142Z"/><path fill="#FECB51" transform="scale(2 2)" d="M282.373 345.705C283.025 347.83 283.589 346.512 285.182 347.7C283.544 349.614 281.658 351.589 281.147 347.7C282.081 347.028 282.252 346.807 282.373 345.705Z"/><path fill="#FECB51" transform="scale(2 2)" d="M295.539 322.966C298.493 325.152 296.143 329.311 296.364 332.645L296.57 332.813C298.838 328.532 300.348 318.586 304.8 315.338C306.358 314.202 308.136 316.583 311.794 313.845C314.009 318.119 307.139 318.855 316.009 326.289C313.423 329.143 309.383 333.446 309.78 337.637C310.846 340.02 310.243 344.552 312.754 349.47L312.754 350.978C312.22 357.638 300.394 360.835 298.211 365.469L297.105 366.653C296.655 366.201 294.001 365.78 292.981 365.469C297.13 362.831 306.795 351.368 305.856 346.9C303.817 337.203 304.475 336.803 308.807 327.274C306.114 329.355 302.059 332.249 299.943 334.812C295.833 339.79 294.427 348.388 288.934 351.99C291.333 346.547 291.769 346.063 291.718 339.993C290.783 340.894 290.029 341.703 288.934 342.406L288.934 341.036C292.644 335.262 293.737 329.526 295.539 322.966Z"/><path fill="#FEC711" transform="scale(2 2)" d="M309.78 337.637C310.846 340.02 310.243 344.552 312.754 349.47L312.754 350.978C309.272 347.7 308.521 342.094 309.78 337.637Z"/><path fill="#FEB206" transform="scale(2 2)" d="M242.828 250.878C245.525 253.929 250.899 261.09 252.997 264.252C259.562 274.151 251.935 286.539 257.124 292.898C260.32 296.814 265.912 296.423 262.431 287.626C273.181 298.514 278.642 298.304 271.725 314.041C271.947 315.056 272.19 316.355 272.811 317.209L272.811 318.297C272.166 318.215 272.313 318.159 271.725 318.297C269.975 319.82 266.104 325.585 264.183 325.536L263.823 324.959C263.404 319.366 272.14 312.79 274.104 304.397C272.874 299.283 269.357 297.811 265.372 295.216C264.508 296.738 263.597 298.316 262.431 299.617C261.237 300.13 262.222 300.874 260.773 301.775C247.113 301.648 249.027 281.884 247.387 278.402C246.999 279.159 246.504 280.208 246.037 280.89C245.904 278.04 247.233 274.687 246.037 271.688C247.426 260.393 244.439 259.726 242.828 250.878Z"/><path fill="#FECB51" transform="scale(2 2)" d="M247.972 262.322C255.669 276.062 245.55 291.505 262.431 299.617C261.237 300.13 262.222 300.874 260.773 301.775C247.113 301.648 249.027 281.884 247.387 278.402C246.875 275.394 248.022 266.583 247.972 262.322Z"/><path fill="#F05231" transform="scale(2 2)" d="M320.322 337.637C324.803 335.879 325.79 334.956 329.313 331.607C328.04 343.323 325.913 347.949 320.322 358.008C317.858 361.332 316.338 363.354 312.754 365.469C307.894 366.845 305.541 367.702 300.476 368.288L300.476 368.288C301.381 365.114 308.066 362.119 310.551 358.69C313.883 354.093 315.591 351.067 317.529 345.705C319.029 343.651 318.563 340.089 320.322 337.637Z"/><path fill="#FEB206" transform="scale(2 2)" d="M305.446 312.234C319.111 312.517 313.057 304.766 317.587 302.322C318.514 304.715 314.706 315.952 314.166 318.643C314.007 319.431 316.945 323.08 317.529 324.257C317.189 325.426 317.309 325.936 316.009 326.289C307.139 318.855 314.009 318.119 311.794 313.845C308.136 316.583 306.358 314.202 304.8 315.338C300.348 318.586 298.838 328.532 296.57 332.813L296.364 332.645C296.143 329.311 298.493 325.152 295.539 322.966C294.978 321.879 295.106 321.221 294.217 319.749C294.442 318.254 294.985 316.226 295.564 314.835L295.886 314.815C296.935 316.622 297.281 320.644 298.22 323.005C300.383 320.387 300.2 314.355 305.446 312.234Z"/><path fill="#FE972E" transform="scale(2 2)" d="M227.286 366.653C224.647 366.193 212.176 356.605 210.136 354.766C205.758 350.818 205.315 349.177 203.228 343.65L203.468 343.363C205.16 343.63 206.745 345.497 208.475 345.705L208.684 345.82C210.881 347.057 210.824 348.044 212.965 347.7C212.737 348.388 212.593 348.791 212.3 349.47L212.3 350.358C218.068 357.323 226.576 360.748 229.553 365.601C228.609 365.836 228.326 365.558 227.535 366.152L227.286 366.653Z"/><path fill="#FEA60B" transform="scale(2 2)" d="M208.475 345.705L208.684 345.82C210.881 347.057 210.824 348.044 212.965 347.7C212.737 348.388 212.593 348.791 212.3 349.47L212.3 350.358C211.006 351.589 212.321 352.882 213.053 354.189C211.384 352.537 208.793 348.481 208.111 346.261L208.475 345.705Z"/><defs><linearGradient id="gradient_1" gradientUnits="userSpaceOnUse" x1="219.73343" y1="348.39359" x2="216.27206" y2="312.81403"><stop offset="0" stop-color="#FFC400"/><stop offset="1" stop-color="#FF8F0E"/></linearGradient></defs><path fill="url(#gradient_1)" transform="scale(2 2)" d="M223.53 337.637C223.372 330.442 222.062 323.496 220.419 316.51C220.145 315.341 218.694 313.038 219.197 312.224C220.973 313.36 223.725 318.563 224.773 320.533C224.167 321.49 224.248 324.286 224.773 325.202C225.153 329.894 224.236 337.257 224.773 341.036C221.781 339.286 217.52 335.296 214.393 332.958C216.203 336.856 218.981 349.01 212.3 349.47L212.3 349.47C212.593 348.791 212.737 348.388 212.965 347.7C216.228 341.376 214.534 333.721 210.408 328.24C214.067 330.07 220.063 335.211 223.53 337.637Z"/><path fill="#FEC711" transform="scale(2 2)" d="M294.217 319.749C295.106 321.221 294.978 321.879 295.539 322.966C293.737 329.526 292.644 335.262 288.934 341.036L288.934 342.406C287.317 344.063 286.542 345.915 285.182 347.7C283.589 346.512 283.025 347.83 282.373 345.705C281.836 341.616 281.439 337.078 281.147 332.958L281.147 331.607C282.796 334.936 281.481 335.191 283.568 337.637C283.526 339.22 283.315 341.314 283.857 342.74L283.638 343.328L283.374 343.235C283.087 341.571 283.362 337.954 282.568 337.038C282.006 338.072 280.279 354.51 288.35 339.993C291.868 331.725 292.18 328.36 294.217 319.749Z"/><path fill="#FEB206" transform="scale(2 2)" d="M288.934 260.585L292.981 258.211C292.194 259.743 291.585 261.076 290.366 262.322C289.325 264.346 284.014 272.838 282.373 275.053C281.438 273.906 284.715 270.119 285.31 268.933C285.435 268.683 285.917 264.178 285.789 263.596L285.187 263.464C282.917 264.096 278.699 267.677 276.789 269.286L276.425 269.044C278.166 266.564 285.951 261.882 288.934 260.585Z"/><path fill="#FEC711" transform="scale(2 2)" d="M288.934 260.585L292.981 258.211C292.194 259.743 291.585 261.076 290.366 262.322C290.379 261.463 290.701 261.409 290.352 260.668L288.934 260.585Z"/><path fill="#FEB206" transform="scale(2 2)" d="M312.754 349.47C315.889 354.003 301.92 362.875 299.44 366.485L299.573 366.764C308.945 362.442 313.396 354.713 317.257 345.744L317.529 345.705C315.591 351.067 313.883 354.093 310.551 358.69C308.066 362.119 301.381 365.114 300.476 368.288L300.476 368.288C298.545 368.379 298.254 368.223 297.105 366.653L298.211 365.469C300.394 360.835 312.22 357.638 312.754 350.978L312.754 349.47L312.754 349.47Z"/><path fill="#FEA60B" transform="scale(2 2)" d="M317.529 324.257C318.946 331.379 307.7 329.149 312.754 349.47L312.754 349.47C310.243 344.552 310.846 340.02 309.78 337.637C309.383 333.446 313.423 329.143 316.009 326.289C317.309 325.936 317.189 325.426 317.529 324.257Z"/><path fill="#FEA60B" transform="scale(2 2)" d="M272.811 317.209C274.78 318.691 278.419 324.033 278.507 324.081C278.959 321.558 277.696 320.546 279.037 318.297C279.09 320.76 279.768 326.386 279.037 328.24C277.702 326.543 276.258 324.804 275.143 322.966C274.196 321.429 273.284 320.042 272.811 318.297L272.811 317.209Z"/><defs><linearGradient id="gradient_2" gradientUnits="userSpaceOnUse" x1="280.80716" y1="317.65704" x2="279.28522" y2="330.32401"><stop offset="0" stop-color="#FFB000"/><stop offset="1" stop-color="#FFD720"/></linearGradient></defs><path fill="url(#gradient_2)" transform="scale(2 2)" d="M279.037 317.209C280.144 317.528 280.198 317.6 281.147 318.297C280.492 322.472 281.873 328.136 281.147 331.607L281.147 332.958C281.043 331.691 279.711 329.538 279.037 328.24C279.768 326.386 279.09 320.76 279.037 318.297L279.037 317.209Z"/><path fill="#FEB206" transform="scale(2 2)" d="M227.978 291.567C228.473 294.342 228.751 297.911 229.197 300.874L229.197 300.874C227.395 300.856 227.684 301.562 227.286 303.158C226.585 301.435 227.519 297.885 226.706 302.822L226.438 302.586C226.534 299.875 227.364 294.262 227.978 291.567Z"/><path fill="#FEA60B" transform="scale(2 2)" d="M226.438 302.586L226.706 302.822C227.519 297.885 226.585 301.435 227.286 303.158C227.776 307.087 228.439 310.188 229.197 314.041C227.179 311.585 225.649 305.729 226.438 302.586Z"/><path fill="#FE972E" transform="scale(2 2)" d="M279.037 317.209C279.742 315.56 280.474 313.893 281.147 312.234C281.201 314.178 281.32 316.386 281.147 318.297C280.198 317.6 280.144 317.528 279.037 317.209Z"/><path fill="#F05231" transform="scale(2 2)" d="M227.978 244.912C234.85 253.031 238.941 257.237 236.372 268.365C235.991 270.012 236.445 272.441 234.27 271.688C233.989 270.498 234.357 269.284 234.594 268.044L233.739 270.941C228.766 263.282 227.948 253.775 227.978 244.912Z"/><path fill="#FE972E" transform="scale(2 2)" d="M272.811 224.702L272.961 224.954C272.862 228.383 272.786 250.643 269.943 251.693L269.054 250.878C263.916 242.841 270.083 233.633 272.811 224.702Z"/><defs><linearGradient id="gradient_3" gradientUnits="userSpaceOnUse" x1="315.84811" y1="376.02728" x2="319.87347" y2="356.14325"><stop offset="0" stop-color="#FDB776"/><stop offset="1" stop-color="#FFEABF"/></linearGradient></defs><path fill="url(#gradient_3)" transform="scale(2 2)" d="M321.873 358.008C327.657 356.497 352.948 361.793 350.137 368.474C347.543 370.477 332.055 369.548 327.665 369.668L327.971 369.773C350.823 377.497 313.148 373.267 311.277 374.327C309.242 374.125 305.845 372.246 303.122 372.099C299.17 371.885 288.25 373.159 286.716 368.288C286.354 367.694 286.133 367.239 285.832 366.622L286.014 366.439C286.248 366.51 286.482 366.582 286.716 366.653C289.135 366.593 290.67 366.082 292.981 365.469C294.001 365.78 296.655 366.201 297.105 366.653C298.254 368.223 298.545 368.379 300.476 368.288C305.541 367.702 307.894 366.845 312.754 365.469C316.338 363.354 317.858 361.332 320.322 358.008C321.111 358.13 321.081 358.126 321.873 358.008Z"/><path fill="#FCDDBA" transform="scale(2 2)" d="M320.322 358.008C321.111 358.13 321.081 358.126 321.873 358.008C322.788 360.187 317.961 364.103 316.202 365.012C314.902 364.683 315.86 364.115 315.056 364.428L315.433 365.188C315.019 366.096 314.038 365.905 313.155 365.833L312.754 365.469C316.338 363.354 317.858 361.332 320.322 358.008Z"/><path fill="#FCDDBA" transform="scale(2 2)" d="M185.921 371.274C183.303 370.973 169.545 367.038 176.764 363.205C183.013 359.886 189.919 359.061 196.883 358.572L197.152 358.656C205.611 361.21 200.867 363.765 205.178 363.033C204.453 364.594 203.306 364.814 201.69 365.469C198.349 365.7 187.854 368.907 185.921 371.274Z"/><path fill="#FDCA5A" transform="scale(2 2)" d="M256.427 104.912C257.227 105.326 260.29 108.822 261.069 109.701C267.953 117.47 263.085 124.064 262.431 133.197C261.56 134.128 257.135 125.892 256.697 124.863C254.973 120.814 259.126 114.65 256.427 104.912Z"/><path fill="#FECB51" transform="scale(2 2)" d="M147.897 256.688C157.251 258.244 158.55 269.798 164.541 276.759C146.934 271.824 154.426 269.045 147.897 256.688Z"/><path fill="#FECB51" transform="scale(2 2)" d="M353.678 345.705C355.311 345.341 361.653 345.061 362.57 346.633C361.02 347.828 349.858 352.9 347.146 354.24C345.003 355.278 342.769 356.783 340.652 358.008C341.385 349.896 345.909 346.345 353.678 345.705Z"/><path fill="#FEB571" transform="scale(2 2)" d="M373.001 259.56C376.689 263.642 380.648 268.023 377.936 274.021C375.482 280.593 367.527 280.796 370.637 274.021C373.919 267.989 373.22 266.171 373.001 259.56Z"/><path fill="#F05231" transform="scale(2 2)" d="M370.637 274.021C372.158 274.064 377.051 273.536 377.712 273.748L377.936 274.021C375.482 280.593 367.527 280.796 370.637 274.021Z"/><path fill="#FEB571" transform="scale(2 2)" d="M214.393 133.197C217.92 137.079 218.859 143.865 215.448 148.053C209.779 155.192 203.948 151.492 208.475 147.375L208.694 147.05C212.809 140.993 215.346 142.056 214.393 133.197Z"/><path fill="#F05231" transform="scale(2 2)" d="M208.475 147.375C210.725 147.869 213.388 147.01 215.448 148.053C209.779 155.192 203.948 151.492 208.475 147.375Z"/><path fill="#FDCA5A" transform="scale(2 2)" d="M125.153 324.257C131.416 327.859 142.776 329.772 145.995 335.933C139.382 336.403 125.767 331.604 125.153 324.257Z"/><path fill="#FECB51" transform="scale(2 2)" d="M360.751 321.562L360.916 321.89C359.05 327.952 346.334 332.435 341.624 335.933L341.308 335.514C342.219 327.711 354.428 323.278 360.751 321.562Z"/><defs><linearGradient id="gradient_4" gradientUnits="userSpaceOnUse" x1="138.09225" y1="239.37355" x2="141.16534" y2="229.46422"><stop offset="0" stop-color="#FF9D54"/><stop offset="1" stop-color="#FFBC79"/></linearGradient></defs><path fill="url(#gradient_4)" transform="scale(2 2)" d="M135.9 227.38C141.32 231.016 143.795 233.757 143.188 240.687C140.385 249.605 134.653 246.632 136.836 240.687C139.748 235.054 138.612 232.658 135.9 227.38Z"/><path fill="#F05231" transform="scale(2 2)" d="M136.836 240.687C139.185 240.436 140.81 240.403 143.188 240.687C140.385 249.605 134.653 246.632 136.836 240.687Z"/><path fill="#FEB571" transform="scale(2 2)" d="M275.143 156.839C279.313 159.15 283.277 162.077 282.373 167.494C280.296 173.511 274 172.896 276.425 167.494C276.627 166.282 276.827 164.742 277.19 163.597C276.65 161.155 275.99 159.199 275.143 156.839Z"/><path fill="#F05231" transform="scale(2 2)" d="M276.425 167.494C277.95 166.885 281.272 165.676 282.373 167.494C280.296 173.511 274 172.896 276.425 167.494Z"/><path fill="#FEB571" transform="scale(2 2)" d="M317.529 214.735C314.905 211.699 315.236 204.993 316.009 201.305C317.846 206.668 318.767 210.091 323.796 213.083C328.145 218.725 320.503 219.54 317.529 214.735Z"/><path fill="#F05231" transform="scale(2 2)" d="M317.529 214.735C319.917 214.221 321.485 213.843 323.796 213.083C328.145 218.725 320.503 219.54 317.529 214.735Z"/><path fill="#FEC711" transform="scale(2 2)" d="M214.393 251.865C215.883 253.175 223.023 264.114 219.236 265.509C213.034 263.184 211.271 257.559 214.393 251.865Z"/><path fill="#FEB571" transform="scale(2 2)" d="M249.325 90.6221C250.813 84.7607 247.513 84.8135 244.714 80.9871L244.898 80.7181C249.484 81.0681 252.908 85.0398 254.494 89.0751C255.951 96.2371 248.548 95.8772 249.325 90.6221Z"/><path fill="#F05231" transform="scale(2 2)" d="M249.325 90.6221C251.779 89.7313 251.185 88.8275 254.494 89.0751C255.951 96.2371 248.548 95.8772 249.325 90.6221Z"/><path fill="#FEB206" transform="scale(2 2)" d="M288.35 273.092C289.037 273.441 289.108 274.382 289.156 275.111C289.5 280.246 296.167 283.626 291.718 288.625C287.758 287.533 284.834 277.711 288.35 273.092Z"/><path fill="#FECB51" transform="scale(2 2)" d="M374.994 330.077C377.817 325.032 381.757 323.248 386.724 320.533C383.234 324.57 383.051 324.962 381.465 330.077C379.884 333.377 374.946 334.312 374.994 330.077Z"/><path fill="#F6652F" transform="scale(2 2)" d="M374.994 330.077C376.449 329.992 380.326 329.578 381.465 330.077C379.884 333.377 374.946 334.312 374.994 330.077Z"/><path fill="#FEC711" transform="scale(2 2)" d="M178.722 339.993C182.06 341.04 181.221 349.176 177.282 349.47C172.244 347.619 175.692 342.101 178.722 339.993Z"/><path fill="#FECB51" transform="scale(2 2)" d="M205.178 180.408C208.151 180.642 205.016 187.445 203.324 188.843C200.17 186.483 202.599 182.276 205.178 180.408Z"/><path fill="#FECB51" transform="scale(2 2)" d="M162.911 330.077C166.148 331.284 164.04 336.082 162.321 337.637C157.939 335.359 160.482 332.636 162.911 330.077Z"/><path fill="#FDCA5A" transform="scale(2 2)" d="M324.797 287.626C327.498 288.911 328.935 293.761 327.665 296.716C324.076 298.262 324.983 289.539 324.797 287.626Z"/><path fill="#FECB51" transform="scale(2 2)" d="M183.227 297.352C186.084 298.608 185.948 302.501 183.227 304.397C179.219 303.164 181.784 299.48 183.227 297.352Z"/><path fill="#FDCA5A" transform="scale(2 2)" d="M347.992 221.771C350.7 222.285 354.775 223.99 353.678 227.38C350.331 228.222 348.605 224.647 347.992 221.771Z"/><path fill="#FEB206" transform="scale(2 2)" d="M318.471 145.706C320.537 147.633 321.829 150.782 320.997 153.569C317.545 154.473 318.113 147.543 318.471 145.706Z"/><path fill="#FECB51" transform="scale(2 2)" d="M195.861 262.322C199.172 263.095 200.424 265.869 200.433 269.044C197.299 269.003 196.497 264.728 195.861 262.322Z"/><path fill="#FECB51" transform="scale(2 2)" d="M161.17 310.096C164.216 310.616 162.442 314.457 161.17 315.887C157.4 315.4 159.789 311.944 161.17 310.096Z"/><path fill="#FECB51" transform="scale(2 2)" d="M166.403 202.613C168.76 203.696 170.186 205.869 169.462 208.459C166.527 207.909 165.373 205.299 166.403 202.613Z"/><path fill="#FEA60B" transform="scale(2 2)" d="M298.211 229.871C299.72 231.044 301.29 234.511 300.476 236.521C296.918 236.135 297.424 232.325 298.211 229.871Z"/><path fill="#FEB571" transform="scale(2 2)" d="M353.901 309.209C354.784 308.685 355.924 308.941 356.498 309.793C357.072 310.644 356.883 311.796 356.066 312.419C355.494 312.855 354.727 312.938 354.074 312.635C353.422 312.332 352.991 311.693 352.954 310.975C352.918 310.256 353.282 309.577 353.901 309.209Z"/><path fill="#FEB206" transform="scale(2 2)" d="M162.321 350.978C164.653 351.221 165.744 352.952 165.621 355.211C162.573 355.766 162.164 353.345 162.321 350.978Z"/><path fill="#FE972E" transform="scale(2 2)" d="M366.626 347.889C367.184 347.548 367.883 347.539 368.449 347.865C369.016 348.192 369.359 348.801 369.343 349.455C369.328 350.108 368.956 350.701 368.375 351C367.521 351.44 366.472 351.125 366.001 350.288C365.53 349.45 365.806 348.39 366.626 347.889Z"/><path fill="#FEA60B" transform="scale(2 2)" d="M283.568 208.459C286.1 208.759 285.573 210.419 284.113 211.965C281.496 211.868 281.567 209.777 283.568 208.459Z"/><path fill="#FE972E" transform="scale(2 2)" d="M352.902 287.852C353.726 287.687 354.531 288.213 354.71 289.035C354.889 289.857 354.376 290.67 353.557 290.863C353.015 290.99 352.447 290.815 352.07 290.406C351.693 289.996 351.567 289.415 351.739 288.886C351.912 288.356 352.356 287.961 352.902 287.852Z"/><path fill="#FEB206" transform="scale(2 2)" d="M321.873 270.941C324.143 271.263 324.271 271.883 323.796 274.021C321.952 273.554 321.218 272.733 321.873 270.941Z"/></svg>