<?xml version="1.0" encoding="utf-8" ?><svg xmlns="http://www.w3.org/2000/svg" xmlns:xlink="http://www.w3.org/1999/xlink" width="1024" height="1024" viewBox="0 0 1024 1024"><path fill="#2FBBE7" transform="scale(2 2)" d="M191.757 357.787C188.948 355.969 182.156 345.175 179.885 341.667C147.579 291.754 153.737 236.736 149.878 181.382C149.469 175.51 152.098 175.093 157.108 174.262C191.244 168.598 226.403 150.599 247.082 122.527C250.256 118.218 249.951 113.533 256.244 113.702C262.018 113.316 262.518 118.822 265.35 122.811C281.021 144.885 297.948 152.486 320.336 164.886C326.043 166.873 331.216 169.009 337.03 170.848C343.352 172.847 351.31 174.154 357.283 176.245C364.984 176.427 363.084 182.451 362.797 188.254L359.222 250.315C356.999 285.667 352.602 309.97 333.452 339.572C321.004 358.815 305.368 375.53 288.183 390.598C284.171 394.116 279.418 397.905 275.698 401.651C274.299 401.709 270.26 399.664 268.916 398.991C264.943 397.103 259.864 393.035 257.737 389.31L255.32 389.31L254.401 389.31C251.41 392.593 247.93 394.54 244.968 397.346C242.962 399.191 242.765 399.538 241.141 401.651C226.747 393.826 202.601 371.839 191.757 357.787ZM198.495 354.779C198.726 353.727 197.525 352.011 196.972 351.108C165.136 299.249 163.33 256.948 161.545 199.11C161.413 194.861 161.185 190.854 161.607 186.608C165.386 185.288 169.594 184.444 173.467 183.377C204.221 174.905 234.259 158.396 253.523 132.398C254.993 130.413 256.664 126.904 258.403 125.431C257.845 124.048 257.165 122.931 256.244 121.762C240.22 149.377 204.911 169.93 175.3 178.322C169.273 180.03 162.859 181.441 156.74 183.134C156.69 238.825 159.299 310.712 197.39 353.756C197.691 354.096 198.14 354.478 198.495 354.779Z"/><path fill="#FED576" transform="scale(2 2)" d="M191.757 357.787C188.948 355.969 182.156 345.175 179.885 341.667C147.579 291.754 153.737 236.736 149.878 181.382C149.469 175.51 152.098 175.093 157.108 174.262C191.244 168.598 226.403 150.599 247.082 122.527C250.256 118.218 249.951 113.533 256.244 113.702C262.018 113.316 262.518 118.822 265.35 122.811C281.021 144.885 297.948 152.486 320.336 164.886C319.974 167.543 319.51 170.346 319.187 172.972C318.531 181.666 318.178 187.966 316.819 196.497C311.474 193.131 304.938 190.769 299.245 187.93C288.204 182.423 277.621 176.447 267.979 168.686C264.592 165.959 258.056 159.133 253.1 162.461C238.371 174.72 222.87 186.116 204.622 192.573C185.089 199.485 183.244 196.743 183.26 218.633L183.275 265.191C183.068 302.641 196.08 317.634 221.672 341.177L241.807 359.614C245.857 363.261 251.634 369.403 256.244 371.764C254.085 372.873 255.45 385.858 255.32 389.31L254.401 389.31C251.41 392.593 247.93 394.54 244.968 397.346C242.962 399.191 242.765 399.538 241.141 401.651C226.747 393.826 202.601 371.839 191.757 357.787ZM198.495 354.779C198.726 353.727 197.525 352.011 196.972 351.108C165.136 299.249 163.33 256.948 161.545 199.11C161.413 194.861 161.185 190.854 161.607 186.608C165.386 185.288 169.594 184.444 173.467 183.377C204.221 174.905 234.259 158.396 253.523 132.398C254.993 130.413 256.664 126.904 258.403 125.431C257.845 124.048 257.165 122.931 256.244 121.762C240.22 149.377 204.911 169.93 175.3 178.322C169.273 180.03 162.859 181.441 156.74 183.134C156.69 238.825 159.299 310.712 197.39 353.756C197.691 354.096 198.14 354.478 198.495 354.779Z"/><path fill="#FEB370" transform="scale(2 2)" d="M191.757 357.787C188.948 355.969 182.156 345.175 179.885 341.667C147.579 291.754 153.737 236.736 149.878 181.382C149.469 175.51 152.098 175.093 157.108 174.262C191.244 168.598 226.403 150.599 247.082 122.527C250.256 118.218 249.951 113.533 256.244 113.702C254.119 116.741 254.355 118.537 256.244 121.762C240.22 149.377 204.911 169.93 175.3 178.322C169.273 180.03 162.859 181.441 156.74 183.134C156.69 238.825 159.299 310.712 197.39 353.756C197.691 354.096 198.14 354.478 198.495 354.779L198.495 354.779L198.271 355.061C198.77 355.809 201.371 359.084 201.383 359.25C199.93 359.784 197.711 362.335 196.252 361.638C194.534 360.816 193.988 358.219 191.757 357.787Z"/><path fill="#F39618" transform="scale(2 2)" d="M256.244 113.702C262.018 113.316 262.518 118.822 265.35 122.811C281.021 144.885 297.948 152.486 320.336 164.886C319.974 167.543 319.51 170.346 319.187 172.972C291.25 161.088 276.537 148.011 258.403 125.431C257.845 124.048 257.165 122.931 256.244 121.762C254.355 118.537 254.119 116.741 256.244 113.702Z"/><path fill="#F39618" transform="scale(2 2)" d="M191.757 357.787C193.988 358.219 194.534 360.816 196.252 361.638C197.711 362.335 199.93 359.784 201.383 359.25C201.371 359.084 198.77 355.809 198.271 355.061L198.495 354.779C213.545 373.831 227.245 383.04 244.968 397.346C242.962 399.191 242.765 399.538 241.141 401.651C226.747 393.826 202.601 371.839 191.757 357.787Z"/><path fill="#F39618" transform="scale(2 2)" d="M320.336 164.886C326.043 166.873 331.216 169.009 337.03 170.848C343.352 172.847 351.31 174.154 357.283 176.245C364.984 176.427 363.084 182.451 362.797 188.254L359.222 250.315C356.999 285.667 352.602 309.97 333.452 339.572C321.004 358.815 305.368 375.53 288.183 390.598C284.171 394.116 279.418 397.905 275.698 401.651C274.299 401.709 270.26 399.664 268.916 398.991C264.943 397.103 259.864 393.035 257.737 389.31L255.32 389.31C255.45 385.858 254.085 372.873 256.244 371.764C265.551 369.953 297.828 335.542 305.272 326.778C324.112 304.6 327.564 289.972 327.541 262.68L327.512 215.56C327.52 212.453 327.808 205.893 327.536 203.052C325.069 199.374 320.93 197.847 316.819 196.497C318.178 187.966 318.531 181.666 319.187 172.972C319.51 170.346 319.974 167.543 320.336 164.886Z"/><path fill="#FEB421" transform="scale(2 2)" d="M319.187 172.972C325.222 175.385 338.467 180.535 344.705 181.091C344.737 188.799 344.119 196.448 343.71 204.147L342.063 235.915C341.14 252 340.666 267.639 337.887 283.567C332.57 314.034 314.175 343.014 292.488 364.371C286.153 370.61 266.357 388.402 257.737 389.31L255.32 389.31C255.45 385.858 254.085 372.873 256.244 371.764C265.551 369.953 297.828 335.542 305.272 326.778C324.112 304.6 327.564 289.972 327.541 262.68L327.512 215.56C327.52 212.453 327.808 205.893 327.536 203.052C325.069 199.374 320.93 197.847 316.819 196.497C318.178 187.966 318.531 181.666 319.187 172.972Z"/><path fill="#E57C10" transform="scale(2 2)" d="M357.283 176.245C364.984 176.427 363.084 182.451 362.797 188.254L359.222 250.315C356.999 285.667 352.602 309.97 333.452 339.572C321.004 358.815 305.368 375.53 288.183 390.598C284.171 394.116 279.418 397.905 275.698 401.651C274.299 401.709 270.26 399.664 268.916 398.991C277.96 389.793 289.143 381.64 298.323 372.539C359.876 311.51 348.451 273.749 355.467 194.061C355.896 189.197 355.681 180.274 357.283 176.245Z"/><path fill="#69D6FB" transform="scale(2 2)" d="M256.244 166.95C259.54 167.757 265.984 173.416 269.201 175.553C283.938 185.483 300.137 194.824 316.819 200.889C317.078 212.23 315.84 223.642 315.796 234.796C315.684 263.786 314.113 291.709 295.752 315.634C282.401 333.032 274.132 341.39 257.882 356.777C253.598 360.834 254.406 361.136 254.333 366.922C253.914 362.548 252.754 363.154 253.141 366.466C246.221 356.181 225.005 342.914 214.969 331.649C211.518 327.775 206.79 323.866 203.81 319.631C190.756 301.08 187.537 285.81 187.527 264.125L187.526 224.558C187.536 205.49 183.85 204.032 203.556 197.954C217.869 193.367 230.469 186.309 242.356 177.196C245.928 174.458 252.532 168.509 256.244 166.95Z"/><path fill="#1297FD" transform="scale(2 2)" d="M281.883 196.497C281.736 197.596 281.853 199.705 281.883 200.889C280.911 203.938 279.255 210.546 278.333 212.534C278.335 213.501 278.367 214.621 278.333 215.573L278.333 215.573C280.16 214.582 282.029 213.661 284.034 213.095C284.091 214.828 284.117 216.175 284.034 217.905L284.034 217.905C288.414 220.296 295.79 226.79 298.295 231.193C313.993 256.996 312.094 290.744 283.752 306.896C271.463 313.9 262.056 314.283 248.508 313.709C245.297 314.164 236.549 326.401 234.146 330.48C234.458 328.956 234.785 326.82 235.185 325.411C234.209 325.654 233.638 325.924 232.796 325.636C234.969 320.144 236.518 315.56 238.438 309.969L238.438 309.163C238.075 309.108 237.593 308.992 237.262 308.829C198.5 289.74 198.706 232.245 238.873 214.876C246.621 211.525 263.169 209.166 271.031 212.534C275.095 208.18 278.75 201.537 281.883 196.497Z"/><path fill="#1297FD" transform="scale(2 2)" d="M284.034 217.905C288.414 220.296 295.79 226.79 298.295 231.193C313.993 256.996 312.094 290.744 283.752 306.896C271.463 313.9 262.056 314.283 248.508 313.709L248.508 313.709C247.707 313.724 244.766 312.95 243.809 312.72C246.682 308.087 251.899 301.945 255.352 297.04L268.558 278.399C270.877 275.091 273.962 270.235 276.504 267.293C277.27 266.238 279.781 263.428 279.947 262.397L279.549 262.044C278.464 261.874 274.151 262.024 272.869 262.044C275.776 248.689 279.801 231.001 284.034 217.905Z"/><path fill="#046BE1" transform="scale(2 2)" d="M250.413 311.437C250.744 311.43 250.939 311.438 251.273 311.374C284.431 304.98 311.741 272.926 300.872 238.202C300.236 236.171 298.417 233.045 298.295 231.193C313.993 256.996 312.094 290.744 283.752 306.896C271.463 313.9 262.056 314.283 248.508 313.709L248.508 313.709C249.02 312.972 249.809 312.131 250.413 311.437Z"/><path fill="#0356B7" transform="scale(2 2)" d="M276.504 267.293L284.034 267.293C277.641 276.326 271.731 284.654 264.804 293.302C260.608 298.539 253.747 306.013 250.413 311.437C249.809 312.131 249.02 312.972 248.508 313.709C247.707 313.724 244.766 312.95 243.809 312.72C246.682 308.087 251.899 301.945 255.352 297.04L268.558 278.399C270.877 275.091 273.962 270.235 276.504 267.293Z"/><path fill="#FED519" transform="scale(2 2)" d="M281.883 196.497C281.736 197.596 281.853 199.705 281.883 200.889C280.911 203.938 279.255 210.546 278.333 212.534C278.335 213.501 278.367 214.621 278.333 215.573L278.333 215.573C280.16 214.582 282.029 213.661 284.034 213.095C284.091 214.828 284.117 216.175 284.034 217.905L284.034 217.905C279.801 231.001 275.776 248.689 272.869 262.044C274.151 262.024 278.464 261.874 279.549 262.044L279.947 262.397C279.781 263.428 277.27 266.238 276.504 267.293C273.962 270.235 270.877 275.091 268.558 278.399L255.352 297.04C251.899 301.945 246.682 308.087 243.809 312.72C244.766 312.95 247.707 313.724 248.508 313.709L248.508 313.709C245.297 314.164 236.549 326.401 234.146 330.48C234.458 328.956 234.785 326.82 235.185 325.411C234.209 325.654 233.638 325.924 232.796 325.636C234.969 320.144 236.518 315.56 238.438 309.969L238.438 309.163C241.71 299.527 246.676 284.416 248.508 274.378C249.442 272.587 249.823 271.871 250.413 269.957L237.12 269.957C235.434 269.927 231.138 270.621 232.106 267.991C237.008 262.823 239.612 257.437 243.577 251.849C252.405 239.407 261.625 224.197 271.031 212.534C275.095 208.18 278.75 201.537 281.883 196.497Z"/><path fill="#FED576" transform="scale(2 2)" d="M281.883 196.497C281.736 197.596 281.853 199.705 281.883 200.889C278.17 205.004 277.479 208.959 274.769 213.082C267.104 224.744 247.755 261.165 238.438 267.991C236.702 267.921 233.713 267.691 232.106 267.991C237.008 262.823 239.612 257.437 243.577 251.849C252.405 239.407 261.625 224.197 271.031 212.534C275.095 208.18 278.75 201.537 281.883 196.497Z"/><path fill="#F39618" transform="scale(2 2)" d="M279.549 262.044L279.947 262.397C279.781 263.428 277.27 266.238 276.504 267.293C273.962 270.235 270.877 275.091 268.558 278.399L255.352 297.04C251.899 301.945 246.682 308.087 243.809 312.72C244.766 312.95 247.707 313.724 248.508 313.709L248.508 313.709C245.297 314.164 236.549 326.401 234.146 330.48C234.458 328.956 234.785 326.82 235.185 325.411C234.209 325.654 233.638 325.924 232.796 325.636C234.969 320.144 236.518 315.56 238.438 309.969C239.732 309.867 239.956 309.727 241.141 309.163L241.965 309.969C242.268 309.843 272.095 268.242 274.709 264.96C276.735 262.416 272.274 262.51 279.549 262.044Z"/><path fill="#2FBBE7" transform="scale(2 2)" d="M243.809 312.72C244.766 312.95 247.707 313.724 248.508 313.709L248.508 313.709C245.297 314.164 236.549 326.401 234.146 330.48C234.458 328.956 234.785 326.82 235.185 325.411C235.407 324.812 235.868 323.847 236.139 323.234C238.867 319.759 241.232 316.297 243.809 312.72Z"/><path fill="#FED519" transform="scale(2 2)" d="M238.438 309.969C239.732 309.867 239.956 309.727 241.141 309.163L241.965 309.969C240.755 311.704 234.223 321.936 236.139 323.234C235.868 323.847 235.407 324.812 235.185 325.411C234.209 325.654 233.638 325.924 232.796 325.636C234.969 320.144 236.518 315.56 238.438 309.969Z"/><path fill="#046BE1" transform="scale(2 2)" d="M284.034 213.095C284.091 214.828 284.117 216.175 284.034 217.905L284.034 217.905C279.801 231.001 275.776 248.689 272.869 262.044L272.869 262.044C271.456 261.924 268.62 262.029 267.133 262.044C267.682 255.412 270.815 245.248 272.455 238.484L275.439 225.759C276.241 222.304 276.864 218.788 278.333 215.573L278.333 215.573C280.16 214.582 282.029 213.661 284.034 213.095Z"/><path fill="#2FBBE7" transform="scale(2 2)" d="M284.034 213.095C284.091 214.828 284.117 216.175 284.034 217.905C281.778 216.849 280.738 216.407 278.333 215.573C280.16 214.582 282.029 213.661 284.034 213.095Z"/><path fill="#FED576" transform="scale(2 2)" d="M257.737 269.466C252.872 281.634 246.791 297.528 241.141 309.163C239.956 309.727 239.732 309.867 238.438 309.969L238.438 309.163C241.71 299.527 246.676 284.416 248.508 274.378C249.442 272.587 249.823 271.871 250.413 269.957C251.333 269.7 256.168 269.663 257.737 269.466Z"/><path fill="#F39618" transform="scale(2 2)" d="M272.869 262.044C271.259 262.279 263.983 263.014 263.053 262.249C263.224 254.877 271.897 230.599 274.431 222.429C274.693 221.584 277.668 213.374 278.038 212.51L278.333 212.534C278.335 213.501 278.367 214.621 278.333 215.573C276.864 218.788 276.241 222.304 275.439 225.759L272.455 238.484C270.815 245.248 267.682 255.412 267.133 262.044C268.62 262.029 271.456 261.924 272.869 262.044Z"/><path fill="#FEB421" transform="scale(2 2)" d="M232.106 267.991C233.713 267.691 236.702 267.921 238.438 267.991L238.751 268.013C241.204 268.161 257.942 266.532 257.737 269.466C256.168 269.663 251.333 269.7 250.413 269.957L237.12 269.957C235.434 269.927 231.138 270.621 232.106 267.991Z"/><path fill="#0356B7" transform="scale(2 2)" d="M237.12 269.957L250.413 269.957C249.823 271.871 249.442 272.587 248.508 274.378C244.37 274.575 238.462 274.383 234.146 274.378C235.058 272.931 236.153 271.384 237.12 269.957Z"/><path fill="#9EE6FC" transform="scale(2 2)" d="M197.102 205.708C215.008 194.399 228.593 225.509 200.496 228.02C199.955 227.92 200.127 227.868 199.666 228.02C199.89 229.925 197.87 236.985 197.831 239.911C197.647 253.56 197.102 267.565 198.566 281.148C198.983 285.009 205.417 311.06 205.303 311.551L204.927 311.64C187.293 297.542 192.537 244.852 194.295 224.79C194.61 221.198 193.665 217.686 193.893 214.179C194.158 210.122 195.796 207.321 195.654 203.052C196.197 203.858 196.657 204.834 197.102 205.708Z"/><path fill="#FEFEFE" transform="scale(2 2)" d="M197.667 214.167C206.507 193.612 221.775 223.562 203.317 224.276C201.42 222.935 199.959 221.832 198.495 220.027C198.02 218.199 197.778 216.057 197.667 214.167Z"/><path fill="#E4F8FB" transform="scale(2 2)" d="M195.654 224.276C196.666 222.4 197.158 221.646 198.495 220.027C199.959 221.832 201.42 222.935 203.317 224.276C202.213 225.521 201.447 226.659 200.496 228.02C199.955 227.92 200.127 227.868 199.666 228.02C199.076 227.75 196.389 224.973 195.654 224.276Z"/><path fill="#9EE6FC" transform="scale(2 2)" d="M254.401 176.245C255.058 176.234 255.83 176.24 256.333 176.663C264.944 183.963 232.283 200.701 223.312 201.693C220.26 201.822 220.322 201.372 218.692 199.006C221.053 197.447 224.68 196.033 227.314 194.646C235.339 190.42 249.436 177.968 254.401 176.245Z"/><defs><linearGradient id="gradient_0" gradientUnits="userSpaceOnUse" x1="258.57666" y1="432.08759" x2="255.9054" y2="389.70868"><stop offset="0" stop-color="#AC4B12"/><stop offset="1" stop-color="#C7895C"/></linearGradient></defs><path fill="url(#gradient_0)" transform="scale(2 2)" d="M255.32 389.31L257.737 389.31C259.864 393.035 264.943 397.103 268.916 398.991C270.26 399.664 274.299 401.709 275.698 401.651C283.921 405.743 295.125 400.253 301.574 395.288L300.677 402.748C298.137 411.765 292.33 419.387 282.251 418.854C271.159 418.268 262.567 424.946 256.244 433.674C235.399 408.416 229.102 425.456 218.6 414.972C213.597 409.978 213.238 402.985 213.122 396.381C220.005 405.925 231.196 406.468 241.141 401.651C242.765 399.538 242.962 399.191 244.968 397.346C247.93 394.54 251.41 392.593 254.401 389.31L255.32 389.31Z"/><path fill="#BE7443" transform="scale(2 2)" d="M255.32 389.31L257.737 389.31C259.864 393.035 264.943 397.103 268.916 398.991C270.26 399.664 274.299 401.709 275.698 401.651C283.921 405.743 295.125 400.253 301.574 395.288L300.677 402.748L299.625 402.311C298.063 402.413 293.85 407.78 291.152 409.459C281.244 415.626 269.728 411.656 258.783 411.978C256.075 412.058 252.422 415.137 251.077 415.044C243.761 414.538 234.812 413.761 227.469 412.539C225.237 412.168 232.848 413.144 233.59 413.208C239.09 413.682 244.624 414.198 250.111 414.739C251.997 414.926 255.8 412.147 257.789 411.859C260.283 411.497 263.21 411.699 265.75 411.75C266.002 399.764 259.682 398.179 257.38 390.732L257.121 389.905C256.178 389.203 255.346 389.956 254.401 389.31L255.32 389.31Z"/><path fill="#FEEEBE" transform="scale(2 2)" d="M370.636 311.437C370.472 311.376 392.369 327.963 393.633 328.997L406.519 339.677C411.034 343.492 413.636 346.475 419.072 349.164C412.251 349.37 402.58 348.408 396.065 349.275C395.773 351.622 438.138 396.086 445.847 406.739L446.078 407.061C440.118 402.748 436.409 398.839 431.242 393.695L419.072 381.526C410.354 372.765 401.401 363.268 392.548 354.779C390.741 361.867 389.625 368.393 387.428 375.704C383.045 362.795 370.157 348.271 363.522 335.332C371.445 341.065 378.926 349.912 384.575 357.787L384.616 356.574C384.759 352.43 384.175 346.541 383.912 342.229C387.615 342.369 392.517 342.285 396.235 342.229C389.052 333.448 376.189 320.804 370.636 311.437Z"/><path fill="#FEEEBE" transform="scale(2 2)" d="M95.8111 349.164C97.3479 347.676 99.1869 346.489 100.783 345.037C110.815 335.913 128.088 318.04 138.697 311.437C133.597 318.751 127.55 326.53 122.144 333.64C119.482 337.143 115.522 340.713 113.11 344.092C118.269 343.771 123.09 342.444 127.753 342.229C127.857 348.842 126.319 352.387 126.505 358.721C132.4 352.431 142.132 340.126 149.027 335.332C140.318 350.392 131.231 360.076 121.972 373.417C122.995 366.848 123.755 360.393 123.31 353.72C111.07 366.165 95.9179 379.024 83.0629 391.479C78.8614 395.55 72.8425 400.076 69.3545 404.497L69.3545 403.232C71.3205 399.104 92.2947 375.356 95.8941 371.324L110.366 354.89C112.219 352.816 114.552 350.761 116.248 348.642L115.989 348.29C111.132 347.817 101.93 349.094 95.8111 349.164Z"/><path fill="#FEEEBE" transform="scale(2 2)" d="M463.162 122.749L463.26 122.814C463.27 123.771 456.929 132.589 455.852 134.217L435.021 166.1C432.267 170.384 427.003 177.392 426.016 181.807C432.682 180.288 441.435 180.736 448.849 179.754C446.887 182.006 445.037 183.807 442.786 185.767C430.384 196.566 418.029 210.984 405.631 220.883C408.261 213.977 421.209 196.556 426.016 191.589C427.342 190.279 429.092 188.104 430.464 186.608C425.939 187.118 419.722 188.772 415.527 188.765C414.849 186.825 414.341 182.642 413.437 181.386C412.543 181.901 394.41 202.342 392.548 204.516C397.877 190.183 407.422 178.251 413.364 164.886C416.041 169.607 417.31 172.03 420.668 176.245C424.595 172.024 426.658 168.303 430.027 164.03L452.075 136.465C454.609 133.231 460.532 125.206 463.162 122.749Z"/><path fill="#FEEEBE" transform="scale(2 2)" d="M50.931 125.431C52.2091 126.585 54.0606 128.996 55.2422 130.446L63.8247 141.182C73.3377 152.993 82.54 163.936 91.4612 176.245C93.9413 171.68 96.0821 167.222 99.2049 163.063C104.744 175.672 113.859 188.552 118.988 201.693C113.312 195.692 102.043 185.349 99.2049 178.228C90.4335 195.198 97.6989 187.597 79.7994 185.765L79.3619 185.722C79.8155 186.294 80.3014 186.853 80.7734 187.411C90.6617 197.002 99.9548 208.337 105.826 220.883C91.6012 207.442 78.1795 193.089 63.8494 179.754C66.5725 180.129 82.8685 180.144 84.2116 179.243C83.8746 175.456 70.1009 155.733 66.4712 150.034L56.7455 134.545C55.4798 132.573 51.4967 127.147 50.931 125.431Z"/><path fill="#FEB421" transform="scale(2 2)" d="M171.493 70.9095C171.82 71.3614 172.462 73.3747 172.649 73.9507C177.236 88.1091 180.872 90.0837 194.287 95.7134C174.195 107.357 181.901 100.321 171.493 121.762C168.443 118.203 167.242 108.167 161.388 102.913C158.107 99.9689 152.974 98.6279 149.339 95.9461L149.027 95.7134C152.229 93.3982 157.028 92.0944 160.58 89.6675C166.974 85.2983 167.521 76.7609 171.279 71.2217L171.493 70.9095Z"/><path fill="#FED519" transform="scale(2 2)" d="M171.493 80.676C176.284 89.2326 171.135 91.0683 184.172 95.7134C173.134 101.941 175.487 101.5 171.493 112.381C167.857 102.063 167.639 101.355 158.423 95.7134C171.838 87.1471 164.814 91.743 171.493 80.676Z"/><path fill="#FEB421" transform="scale(2 2)" d="M361.349 396.381C362.627 397.012 364.383 402.291 364.962 403.83C369.233 415.194 374.456 416.413 384.575 420.869C364.978 427.041 369.958 427.904 361.349 445.602C360.706 444.833 359.457 440.7 358.972 439.5C354.52 428.489 350.187 423.498 338.205 420.869C358.635 410.94 351.831 413.873 361.179 396.688L361.349 396.381Z"/><path fill="#FED519" transform="scale(2 2)" d="M361.349 408.377C362.409 408.974 363.604 413.731 365.047 415.251C367.095 417.406 369.17 418.577 371.614 420.202C365.287 423.324 363.688 427.37 361.349 433.674L361.222 433.809L360.915 433.781C358.615 427.406 356.978 423.606 351.062 420.202C358.303 416.025 357.022 414.117 361.349 408.377Z"/><path fill="#FEB421" transform="scale(2 2)" d="M153.103 394.162C159.218 400.749 150.583 409.865 174.729 420.869C158.874 427.235 159.405 432.069 153.103 445.602C152.625 444.947 150.87 439.375 150.352 438.099C146.061 427.515 141.741 425.045 131.753 420.869C135.71 418.503 140.439 416.926 143.977 413.887C149.627 408.801 149.815 400.497 153.103 394.162Z"/><path fill="#FED519" transform="scale(2 2)" d="M152.23 405.095C153.339 405.665 158.044 416.352 162.205 420.202C156.825 426.752 157.019 428.826 153.444 434.587L153.103 434.605C149.404 428.724 148.142 424.011 142.297 420.202C148.394 416.117 150.479 412.382 152.23 405.095Z"/><path fill="#FEB421" transform="scale(2 2)" d="M329.663 64.3895C336.108 69.7501 327.58 79.2698 352.701 89.526C337.659 95.822 334.799 97.5348 330.523 113.702C329.038 115.37 325.034 101.92 323.423 99.4726C319.767 93.915 313.896 92.1848 308.254 89.526L312.466 87.584C324.399 81.9504 325.542 75.8449 329.663 64.3895Z"/><path fill="#FED519" transform="scale(2 2)" d="M329.663 75.581C332.214 76.9839 331.217 84.3969 341.797 89.526C335.322 92.457 333.885 93.8758 330.523 100.231C330.18 100.973 330.037 101.225 329.601 101.921C325.584 95.9031 328.989 94.8947 320.336 89.526C321.895 87.4669 324.012 86.336 325.177 84.7262C326.889 82.3608 328.179 78.4536 329.663 75.581Z"/><path fill="#4EBCFD" transform="scale(2 2)" d="M61.608 285.567C68.2379 284.562 74.4337 289.103 75.4718 295.728C76.5099 302.353 72 308.572 65.3805 309.643C58.7137 310.722 52.4411 306.173 51.3956 299.501C50.3501 292.829 54.9307 286.579 61.608 285.567Z"/><path fill="#4EBCFD" transform="scale(2 2)" d="M447.606 285.615C454.208 285.287 459.83 290.363 460.178 296.964C460.525 303.565 455.466 309.202 448.866 309.569C442.239 309.937 436.573 304.852 436.224 298.224C435.875 291.596 440.977 285.945 447.606 285.615Z"/><path fill="#4EBCFD" transform="scale(2 2)" d="M113.124 268.007C117.135 267.208 121.05 269.757 121.942 273.749C122.835 277.74 120.377 281.713 116.408 282.698C113.757 283.356 110.957 282.526 109.093 280.53C107.228 278.534 106.591 275.684 107.428 273.084C108.265 270.484 110.445 268.541 113.124 268.007Z"/><path fill="#4EBCFD" transform="scale(2 2)" d="M130.463 135.659C134.321 134.787 138.156 137.21 139.025 141.07C139.895 144.929 137.47 148.762 133.61 149.63C129.753 150.497 125.923 148.074 125.054 144.218C124.185 140.361 126.606 136.53 130.463 135.659Z"/><path fill="#4EBCFD" transform="scale(2 2)" d="M376.853 129.408C378.836 128.861 380.961 129.248 382.624 130.459C384.288 131.67 385.309 133.573 385.399 135.628C385.537 138.806 383.441 141.65 380.366 142.458C376.771 143.403 373.088 141.268 372.122 137.679C371.156 134.09 373.269 130.395 376.853 129.408Z"/><path fill="#4EBCFD" transform="scale(2 2)" d="M399.842 250.891C402.228 250.43 404.676 251.294 406.245 253.149C407.815 255.005 408.259 257.563 407.408 259.839C406.557 262.115 404.543 263.754 402.141 264.125C400.185 264.427 398.195 263.851 396.702 262.55C395.21 261.25 394.368 259.357 394.4 257.377C394.451 254.2 396.722 251.494 399.842 250.891Z"/><path fill="#FED576" transform="scale(2 2)" d="M69.3545 403.232L69.3545 404.497L66.3376 407.061C67.3256 405.611 68.2224 404.569 69.3545 403.232Z"/></svg>