<?xml version="1.0" encoding="utf-8" ?><svg xmlns="http://www.w3.org/2000/svg" xmlns:xlink="http://www.w3.org/1999/xlink" width="1024" height="1024" viewBox="0 0 1024 1024"><defs><linearGradient id="gradient_0" gradientUnits="userSpaceOnUse" x1="386.50131" y1="346.70837" x2="160.66811" y2="104.21921"><stop offset="0" stop-color="#A0E3FA"/><stop offset="1" stop-color="#E3F8F8"/></linearGradient></defs><path fill="url(#gradient_0)" transform="scale(2 2)" d="M255.89 73.4898C256.917 74.382 261.66 67.3298 264.905 65.1828C279.581 55.4709 305.99 65.6116 300.49 87.7061C312.195 77.7621 326.287 71.6861 341.275 68.8849C399.944 60.4078 434.817 120.877 408.883 168.24C406.82 172.06 402.606 177.298 401.318 180.689C400.72 185.664 400.409 188.577 399.08 193.447C403.387 193.829 409.849 197.973 411.087 202.515C412.479 204.32 413.024 205.907 413.813 208.008C413.845 208.898 413.885 209.581 413.813 210.467C414.29 217.898 412.518 222.08 408.953 228.644C405.917 232.183 399.374 234.874 394.739 234.792C394.74 237.877 394.872 241.962 394.739 244.959L394.749 365.601C394.75 369.518 394.947 377.625 394.25 381.165C401.285 386.48 404.238 403.225 401.318 411.173C400.626 413.902 397.383 421.166 395.763 423.252C388.569 430.645 380.951 438.654 370.959 442.209C355.846 450.181 341.203 451.339 329.639 438.231L329.396 437.959C299.718 437.958 282.753 436.898 255.89 450.225C232.863 437.262 207.2 438.956 181.873 436.611C179.366 457.438 144.551 445.568 134.254 437.959C132.358 437.209 127.195 432.762 125.641 431.271C113.561 419.681 104.973 397.747 118.123 383.995C116.509 377.199 117.313 335.603 117.564 326.678C118.098 306.941 117.034 285.949 117.564 266.205L117.552 245.348C117.544 242.431 117.305 237.43 117.564 234.792C105.642 232.873 101.256 227.398 98.8675 216.042C94.6361 200.592 113.413 193.91 113.667 193.447C113.144 189.457 111.964 184.669 111.082 180.689C104.239 167.104 94.0686 152.592 95.6225 135.939C95.359 135.156 95.0944 134.095 95.0963 133.291C95.3519 71.4697 169.527 49.1443 212.719 87.7061C204.72 64.1612 243.565 50.4002 255.89 73.4898Z"/><defs><linearGradient id="gradient_1" gradientUnits="userSpaceOnUse" x1="297.53024" y1="436.30331" x2="214.61885" y2="55.097431"><stop offset="0" stop-color="#CF6721"/><stop offset="1" stop-color="#FFE472"/></linearGradient></defs><path fill="url(#gradient_1)" transform="scale(2 2)" d="M255.89 73.4898C256.917 74.382 261.66 67.3298 264.905 65.1828C279.581 55.4709 305.99 65.6116 300.49 87.7061C312.195 77.7621 326.287 71.6861 341.275 68.8849C399.944 60.4078 434.817 120.877 408.883 168.24C406.82 172.06 402.606 177.298 401.318 180.689C400.72 185.664 400.409 188.577 399.08 193.447C403.387 193.829 409.849 197.973 411.087 202.515C412.479 204.32 413.024 205.907 413.813 208.008C413.845 208.898 413.885 209.581 413.813 210.467C414.29 217.898 412.518 222.08 408.953 228.644C405.917 232.183 399.374 234.874 394.739 234.792C394.74 237.877 394.872 241.962 394.739 244.959L394.749 365.601C394.75 369.518 394.947 377.625 394.25 381.165C401.285 386.48 404.238 403.225 401.318 411.173C400.626 413.902 397.383 421.166 395.763 423.252C388.569 430.645 380.951 438.654 370.959 442.209C355.846 450.181 341.203 451.339 329.639 438.231L329.396 437.959C299.718 437.958 282.753 436.898 255.89 450.225C232.863 437.262 207.2 438.956 181.873 436.611C179.366 457.438 144.551 445.568 134.254 437.959C132.358 437.209 127.195 432.762 125.641 431.271C113.561 419.681 104.973 397.747 118.123 383.995C116.509 377.199 117.313 335.603 117.564 326.678C118.098 306.941 117.034 285.949 117.564 266.205L117.552 245.348C117.544 242.431 117.305 237.43 117.564 234.792C105.642 232.873 101.256 227.398 98.8675 216.042C99.8805 215.843 100.336 215.946 101.383 216.042C106.201 220.683 110.04 226.717 117.352 226.258C129.363 225.503 132.08 221.81 135.214 211.049C135.953 211.482 135.907 211.469 136.455 212.14C137.27 211.039 137.82 209.844 138.655 211.407C140.13 211.085 140.152 208.936 143.221 207.348L143.337 205.815C144.066 212.527 143.778 219.593 143.777 226.34L143.73 268.655C143.725 269.699 143.639 272.758 143.763 273.623L143.763 289.969L144.207 289.784C145.431 290.421 155.142 307.947 158.312 311.012C162.861 315.411 167.833 322.966 173.354 327.002C178.845 331.721 202.84 347.489 204.56 349.974C208.565 349.003 220.54 348.609 222.466 347.855C225.278 349.373 227.968 352.081 230.529 354.051C237.013 359.037 246.338 363.99 251.748 368.807L252.049 369.071C254.354 369.771 256.86 371.257 259.09 370.234C266.767 366.71 276.623 359.365 283.721 354.419C286.596 352.38 289.329 349.511 292.435 347.855C312.597 350.251 333.525 351.357 353.084 357.154C354.519 357.58 359.878 359.765 360.818 359.835C364.572 360.58 364.979 363.49 365.368 366.637C365.665 366.383 368.063 364.132 368.083 363.875C368.819 354.42 367.291 324.878 368.78 318.607C369.146 306.732 368.776 292.741 368.775 280.653L368.795 129.392C368.898 111.665 367.719 114.199 351.511 114.195L259.137 114.201L194.179 114.201C193.629 113.666 180.261 114.203 178.622 114.201C186.841 108.63 183.425 105.506 187.635 99.5C191.588 99.455 198.457 100.007 201.703 99.5C200.219 99.4388 192.968 99.2464 192.076 98.8775C178.632 98.5788 165.211 99.979 151.793 99.386C136.277 98.7001 127.768 107.15 122.165 120.268C121.232 123.347 121.245 130.998 121.25 134.265C121.211 137.89 122.057 155.334 121.25 157.055C121.364 150.501 120.649 143.982 120.682 137.395C118.447 138.225 108.698 133.358 105.646 133.605C104.15 139.96 105.867 153.512 107.481 159.572L107.315 159.604C104.895 154.335 103.913 140.422 104.5 134.265C104.28 133.45 97.0009 125.648 95.9947 126.204C95.1707 128.744 96.2016 134.178 95.6225 135.939C95.359 135.156 95.0944 134.095 95.0963 133.291C95.3519 71.4697 169.527 49.1443 212.719 87.7061C204.72 64.1612 243.565 50.4002 255.89 73.4898Z"/><path fill="#EEA645" transform="scale(2 2)" d="M341.275 68.8849C399.944 60.4078 434.817 120.877 408.883 168.24C406.82 172.06 402.606 177.298 401.318 180.689C400.72 185.664 400.409 188.577 399.08 193.447C403.387 193.829 409.849 197.973 411.087 202.515C412.479 204.32 413.024 205.907 413.813 208.008C413.845 208.898 413.885 209.581 413.813 210.467C414.29 217.898 412.518 222.08 408.953 228.644C405.917 232.183 399.374 234.874 394.739 234.792C387.421 232.493 380.024 232.567 378.175 222.163C376.983 218.338 376.074 214.482 376.618 210.467C377.707 205.03 378.809 202.768 382.033 198.274C382.048 197.762 382.051 197.358 382.033 196.848C381.444 194.054 384.435 172.658 385.091 169.983C387.035 162.063 389.909 153.951 391.011 145.862C391.019 129.046 390.566 104.255 368.78 100.235C364.215 99.2034 352.254 99.476 346.998 99.4804L301.383 99.3077C296.072 99.2625 289.785 99.942 284.714 99.5C283.626 99.5435 282.415 99.5072 281.317 99.5C274.298 98.2456 269.398 93.5642 268.184 86.4842L268.184 86.4842C271.225 94.8576 276.509 99.9992 286.104 99.3855C286.967 99.3303 289.789 99.306 290.507 99.5C297.365 92.2546 282.574 102.155 276.814 94.3477L276.89 94.0018C278.057 94.1664 280.601 96.3442 281.627 96.5036C300.24 100.432 308.895 76.4683 337.133 76.9551C336.055 76.6212 335.408 76.8656 334.721 76.2447L334.98 75.927C337.702 75.7682 335.844 75.5514 336.78 74.2388C337.739 73.947 341.152 69.7463 341.275 68.8849Z"/><path fill="#FDD871" transform="scale(2 2)" d="M341.275 68.8849C399.944 60.4078 434.817 120.877 408.883 168.24C406.82 172.06 402.606 177.298 401.318 180.689C400.72 185.664 400.409 188.577 399.08 193.447C403.387 193.829 409.849 197.973 411.087 202.515C412.479 204.32 413.024 205.907 413.813 208.008C413.845 208.898 413.885 209.581 413.813 210.467C414.29 217.898 412.518 222.08 408.953 228.644C405.917 232.183 399.374 234.874 394.739 234.792C387.421 232.493 380.024 232.567 378.175 222.163C376.983 218.338 376.074 214.482 376.618 210.467C377.707 205.03 378.809 202.768 382.033 198.274C382.048 197.762 382.051 197.358 382.033 196.848C385.973 192.437 393.952 181.623 397.391 176.624C427.31 133.134 388.229 67.4127 337.133 76.9551C336.055 76.6212 335.408 76.8656 334.721 76.2447L334.98 75.927C337.702 75.7682 335.844 75.5514 336.78 74.2388C337.739 73.947 341.152 69.7463 341.275 68.8849Z"/><defs><linearGradient id="gradient_2" gradientUnits="userSpaceOnUse" x1="386.03745" y1="223.5459" x2="405.20105" y2="204.45271"><stop offset="0" stop-color="#FFD824"/><stop offset="1" stop-color="#FEFB71"/></linearGradient></defs><path fill="url(#gradient_2)" transform="scale(2 2)" d="M383.348 202.515C386.339 196.56 395.229 184.098 401.318 180.689C400.72 185.664 400.409 188.577 399.08 193.447C403.387 193.829 409.849 197.973 411.087 202.515C412.479 204.32 413.024 205.907 413.813 208.008C413.845 208.898 413.885 209.581 413.813 210.467C414.29 217.898 412.518 222.08 408.953 228.644C405.917 232.183 399.374 234.874 394.739 234.792C387.421 232.493 380.024 232.567 378.175 222.163C376.983 218.338 376.074 214.482 376.618 210.467C377.707 205.03 378.809 202.768 382.033 198.274C381.81 199.402 380.518 201.142 379.872 202.101C375.691 208.313 378.564 214.087 382.444 219.597L382.688 219.545C382.764 218.216 382.312 216.745 383.683 217.807L384.057 217.722L384.209 217.396C383.352 215.104 378.545 204.062 383.348 202.515Z"/><path fill="#E98A31" transform="scale(2 2)" d="M383.348 202.515C386.339 196.56 395.229 184.098 401.318 180.689C400.72 185.664 400.409 188.577 399.08 193.447C388.817 193.822 381.227 202.839 388.056 211.306C388.392 212.43 388.798 212.887 389.468 213.853C392.398 220.332 398.742 216.156 402.246 216.042C396.268 228.175 377.037 219.116 383.348 202.515Z"/><path fill="#FDBA41" transform="scale(2 2)" d="M399.08 193.447C403.387 193.829 409.849 197.973 411.087 202.515C411.361 204.144 412.751 205.772 412.366 207.185C408.615 210.657 407.086 205.474 405.989 204.334L405.655 204.225C397.289 194.722 389.91 200.802 388.056 211.306C381.227 202.839 388.817 193.822 399.08 193.447Z"/><path fill="#EEA645" transform="scale(2 2)" d="M378.175 222.163C386.249 225.488 389.083 228.619 398.14 226.727C399.134 226.519 402.937 227.458 404.429 227.187C406.173 227.283 407.508 227.627 408.953 228.644C405.917 232.183 399.374 234.874 394.739 234.792C387.421 232.493 380.024 232.567 378.175 222.163Z"/><path fill="#FDD871" transform="scale(2 2)" d="M411.087 202.515C412.479 204.32 413.024 205.907 413.813 208.008C413.845 208.898 413.885 209.581 413.813 210.467C414.29 217.898 412.518 222.08 408.953 228.644C407.508 227.627 406.173 227.283 404.429 227.187C403.768 226.614 398.652 226.296 397.174 225.939C397.914 225.722 399.318 225.446 399.8 224.883C409.023 218.806 410.325 213.956 405.655 204.225L405.989 204.334C407.086 205.474 408.615 210.657 412.366 207.185C412.751 205.772 411.361 204.144 411.087 202.515Z"/><path fill="#FCF6C9" transform="scale(2 2)" d="M413.813 208.008C413.845 208.898 413.885 209.581 413.813 210.467C408.009 213.876 406.986 207.663 413.813 208.008Z"/><path fill="#FDD871" transform="scale(2 2)" d="M396.73 206.32L399.8 206.32C402.355 208.342 405.086 213.359 402.246 216.042C398.742 216.156 392.398 220.332 389.468 213.853L390.193 213.343C391.668 213.66 392.707 214.752 394.052 214.73L394.34 214.399C392.796 210.557 392.372 208.213 396.73 206.32Z"/><path fill="#FDBA41" transform="scale(2 2)" d="M376.618 210.467L376.861 210.715C383.976 218.155 380.511 228.785 399.8 224.883C399.318 225.446 397.914 225.722 397.174 225.939C398.652 226.296 403.768 226.614 404.429 227.187C402.937 227.458 399.134 226.519 398.14 226.727C389.083 228.619 386.249 225.488 378.175 222.163C376.983 218.338 376.074 214.482 376.618 210.467Z"/><path fill="#FCE19E" transform="scale(2 2)" d="M384.5 81.5448C388.9 81.4253 404.408 100.784 405.68 106.218C403.337 105.041 406.443 101.524 401.318 104.509L400.208 104.916L400.247 105.328C400.79 105.905 402.094 107.16 401.841 107.992C395.494 97.6839 390.447 93.6302 383.266 85.1519C383.388 83.6649 383.636 83.5927 384.981 82.9516L385.266 82.8188L385.384 82.3558L384.5 81.5448Z"/><path fill="#CB6858" transform="scale(2 2)" d="M222.466 347.855C225.278 349.373 227.968 352.081 230.529 354.051C237.013 359.037 246.338 363.99 251.748 368.807L252.049 369.071C254.354 369.771 256.86 371.257 259.09 370.234C266.767 366.71 276.623 359.365 283.721 354.419C286.596 352.38 289.329 349.511 292.435 347.855C312.597 350.251 333.525 351.357 353.084 357.154C354.519 357.58 359.878 359.765 360.818 359.835L361.958 360.821L361.88 361.125L362.143 361.362C362.938 362.092 364.102 363.082 364.205 364.205C362.382 367.487 346.063 372.276 342.146 373.372C340.596 373.805 334.924 374.768 334.241 375.118L334.335 375.251C321.876 379.857 302.367 378.638 293.539 381.993C271.258 385.933 232.545 382.694 210.305 379.96C207.238 379.583 198.918 378.694 196.25 377.877C187.052 377.603 157.289 372.733 150.761 367.347L151.353 367.347C150.656 366.326 150.336 365.602 149.5 364.468C148.872 353.436 196.419 349.84 204.56 349.974C208.565 349.003 220.54 348.609 222.466 347.855Z"/><path fill="#F4937F" transform="scale(2 2)" d="M222.466 347.855C225.278 349.373 227.968 352.081 230.529 354.051C237.013 359.037 246.338 363.99 251.748 368.807L252.049 369.071L251.881 369.226L250.576 368.201C242.06 361.557 232.775 356.758 223.589 348.959C222.147 347.734 215.393 349.205 213.695 349.974C213.001 349.929 211.561 349.7 211.111 350.001L211.184 350.736C212.676 351.186 211.483 350.054 213.014 350.891L213.365 351.72L213.2 351.942L212.209 351.621C212.963 357.939 218.236 355.052 216.982 360.657C217.919 362.555 219.609 361.448 219.648 363.867C222.544 365.992 226.635 367.052 223.656 373.203C235.301 373.694 217.877 373.1 216.029 373.25C214.693 374.331 210.931 376.418 210.422 377.396C212.644 377.638 234.415 378.534 220.893 378.324C215.111 378.235 203.09 376.741 197.889 377.458L196.486 377.572L196.25 377.877C187.052 377.603 157.289 372.733 150.761 367.347L151.353 367.347C150.656 366.326 150.336 365.602 149.5 364.468C148.872 353.436 196.419 349.84 204.56 349.974C208.565 349.003 220.54 348.609 222.466 347.855Z"/><path fill="#BB4B1D" transform="scale(2 2)" d="M151.353 367.347C164.529 373.721 183.499 376.754 197.889 377.458L196.486 377.572L196.25 377.877C187.052 377.603 157.289 372.733 150.761 367.347L151.353 367.347Z"/><path fill="#EEA645" transform="scale(2 2)" d="M149.5 399.048C149.339 388.355 149.442 377.593 149.444 366.891L149.818 366.702L150.761 367.347C157.289 372.733 187.052 377.603 196.25 377.877C198.918 378.694 207.238 379.583 210.305 379.96C232.545 382.694 271.258 385.933 293.539 381.993L294.617 382.207C292.163 382.923 274.525 383.278 273.993 384.066C273.645 389.72 271.338 413.782 268.926 418.003C270.758 418.915 287.071 417.227 290.134 417.242C290.45 417.244 292.096 417.168 292.176 417.371C265.569 419.149 239.217 419.677 212.655 416.252C210.326 415.951 196.099 413.651 194.873 413.829C193.111 413.711 192.188 413.597 190.455 413.267C189.195 412.5 184.381 412.023 182.53 411.585C169.324 408.458 160.564 407.433 149.5 399.048Z"/><path fill="#FDD871" transform="scale(2 2)" d="M234.241 96.75C229.892 96.538 227.302 97.2589 222.963 96.1899C224.248 93.9207 224.411 95.296 227.5 95.0833C235.151 94.5565 241.41 86.5501 238.733 79.9973C238.678 80.0197 237.942 86.2245 237.491 87.5166C234.412 96.3451 216.957 97.2794 216.849 85.9633C216.576 57.4534 257.111 63.3929 252.984 88.4924C250.264 95.9377 247.349 102.07 238.995 104.509L239.329 104.71C240.159 104.413 245.882 101.259 242.98 104.443C239.348 108.475 240.678 109.424 235.314 111.628C228.21 114.548 219.538 114.743 212.006 113.782C220.15 116.612 249.664 111.994 259.137 114.201L194.179 114.201C193.629 113.666 180.261 114.203 178.622 114.201C186.841 108.63 183.425 105.506 187.635 99.5C191.588 99.455 198.457 100.007 201.703 99.5C200.219 99.4388 192.968 99.2464 192.076 98.8775C178.632 98.5788 165.211 99.979 151.793 99.386C136.277 98.7001 127.768 107.15 122.165 120.268C121.232 123.347 121.245 130.998 121.25 134.265C121.211 137.89 122.057 155.334 121.25 157.055C121.364 150.501 120.649 143.982 120.682 137.395C118.447 138.225 108.698 133.358 105.646 133.605C104.15 139.96 105.867 153.512 107.481 159.572L107.315 159.604C104.895 154.335 103.913 140.422 104.5 134.265C106.568 121.206 111.11 112.277 118.123 101.463C141.53 74.0525 179.508 69.0419 209.45 88.2368C218.722 94.1808 222.602 99.6025 234.241 96.75Z"/><path fill="#FCE19E" transform="scale(2 2)" d="M121.25 102.835C131.821 94.446 134.305 91.1867 147.722 87.586C164.387 82.92 181.102 86.2192 196.808 92.4985C198.531 93.1876 206.688 97.5219 207.543 97.5L208.315 98.6409C206.667 99.0864 194.467 98.9681 192.076 98.8775C178.632 98.5788 165.211 99.979 151.793 99.386C136.277 98.7001 127.768 107.15 122.165 120.268C121.232 123.347 121.245 130.998 121.25 134.265C121.211 137.89 122.057 155.334 121.25 157.055C121.364 150.501 120.649 143.982 120.682 137.395C118.447 138.225 108.698 133.358 105.646 133.605C104.15 139.96 105.867 153.512 107.481 159.572L107.315 159.604C104.895 154.335 103.913 140.422 104.5 134.265C106.568 121.206 111.11 112.277 118.123 101.463C119.251 102.22 119.893 101.584 121.25 102.835Z"/><path fill="#FCF6C9" transform="scale(2 2)" d="M228.048 75.4314C232.222 74.8796 232.372 81.2659 226.932 82.27C222.176 80.2607 222.902 76.6587 228.048 75.4314Z"/><path fill="#FDE65C" transform="scale(2 2)" d="M230.839 99.5C234.736 99.3153 237.331 98.6559 240.303 96.0431L241.492 95.003C236.234 101.258 235.815 100.378 228.048 102.835C227.625 102.15 226.245 100.871 225.61 100.235C227.426 100.2 229.056 99.8343 230.839 99.5Z"/><path fill="#FDBA41" transform="scale(2 2)" d="M384.147 381.165C388.786 379.571 389.923 380.053 394.25 381.165C401.285 386.48 404.238 403.225 401.318 411.173C400.626 413.902 397.383 421.166 395.763 423.252C388.569 430.645 380.951 438.654 370.959 442.209C355.846 450.181 341.203 451.339 329.639 438.231L329.396 437.959C328.411 433.364 327.819 431.39 329.396 426.867C333.464 418.527 343.077 418.432 348.87 425.532C361.069 422.242 373.398 410.883 379.129 399.856C370.241 392.183 382.714 384.491 384.147 381.993L384.147 381.165Z"/><path fill="#EEA645" transform="scale(2 2)" d="M384.147 381.993C398.004 382.861 390.614 403.874 386.808 411.173L386.652 411.325C370.488 427.294 370.328 429.497 345.875 436.611C341.141 437.509 337.699 437.354 337.133 431.753C337.563 429.141 338.289 428.796 340.465 427.531C341.253 428.421 341.871 429.443 342.525 430.44C341.685 431.467 341.636 431.271 340.31 431.099C336.817 432.687 340.134 436.841 345.875 434.974C348.298 431.946 349.03 429.282 348.87 425.532C361.069 422.242 373.398 410.883 379.129 399.856C370.241 392.183 382.714 384.491 384.147 381.993Z"/><path fill="#FDD871" transform="scale(2 2)" d="M384.147 385.459C390.941 386.443 391.656 397.831 385.63 400.884C375.651 401.534 379.822 388.113 384.147 385.459Z"/><path fill="#FDBA41" transform="scale(2 2)" d="M382.033 390.594C384.844 392.35 384.967 392.231 383.348 395.632L382.746 395.605C380.528 394.18 380.759 392.577 382.033 390.594Z"/><defs><linearGradient id="gradient_3" gradientUnits="userSpaceOnUse" x1="381.50021" y1="383.57803" x2="404.16635" y2="409.62433"><stop offset="0" stop-color="#FFD52A"/><stop offset="1" stop-color="#FFE980"/></linearGradient></defs><path fill="url(#gradient_3)" transform="scale(2 2)" d="M384.147 381.165C388.786 379.571 389.923 380.053 394.25 381.165C401.285 386.48 404.238 403.225 401.318 411.173C400.319 412.274 400.222 412.429 399.8 413.829C397.535 412.859 396.585 412.909 394.25 413.829C394.831 412.774 395.401 408.462 395.763 406.79C394.369 405.008 393.9 404.414 393.099 406.79C392.626 407.864 390.258 413.55 389.468 413.829C388.726 411.095 393.046 412.527 388.755 408.674C387.98 409.133 387.575 410.356 387.167 411.23L386.808 411.173C390.614 403.874 398.004 382.861 384.147 381.993L384.147 381.165Z"/><defs><linearGradient id="gradient_4" gradientUnits="userSpaceOnUse" x1="376.67908" y1="427.36328" x2="399.2702" y2="412.75787"><stop offset="0" stop-color="#FFDA56"/><stop offset="1" stop-color="#FFF7AB"/></linearGradient></defs><path fill="url(#gradient_4)" transform="scale(2 2)" d="M393.099 406.79C393.9 404.414 394.369 405.008 395.763 406.79C395.401 408.462 394.831 412.774 394.25 413.829C396.585 412.909 397.535 412.859 399.8 413.829C400.222 412.429 400.319 412.274 401.318 411.173C400.626 413.902 397.383 421.166 395.763 423.252C388.569 430.645 380.951 438.654 370.959 442.209C371.275 440.782 379.875 437.555 381.487 435.314C380.679 432.861 378.328 430.725 377.988 427.822C377.822 426.403 376.935 427.214 376.143 427.713L375.91 427.409C379.634 422.98 384.408 421.066 389.468 413.829C390.258 413.55 392.626 407.864 393.099 406.79Z"/><path fill="#FCE19E" transform="scale(2 2)" d="M393.099 406.79C393.9 404.414 394.369 405.008 395.763 406.79C395.401 408.462 394.831 412.774 394.25 413.829C393.036 414.384 392.418 418.252 390.673 415.425C388.977 412.677 397.678 411.056 394.314 405.484L394.021 405.494L393.099 406.79Z"/><path fill="#FCE19E" transform="scale(2 2)" d="M399.8 413.829C400.222 412.429 400.319 412.274 401.318 411.173C400.626 413.902 397.383 421.166 395.763 423.252C395.6 422.32 395.839 422.06 396.266 421.134L396.417 420.815C396.22 419.448 395.896 419.585 395.234 418.335L395.513 417.935C401.512 414.92 396.813 417.332 399.8 413.829Z"/><path fill="#FDD871" transform="scale(2 2)" d="M333.481 426.426L333.91 426.583C341.378 422.573 349.057 424.453 344.48 431.036L344.119 431.56L344.192 431.753L344.005 431.862C343.364 431.436 343.055 431.01 342.525 430.44C341.871 429.443 341.253 428.421 340.465 427.531C338.289 428.796 337.563 429.141 337.133 431.753C334.852 430.429 336.209 429.148 332.983 429.768C332.381 428.72 332.764 427.564 333.15 426.512L333.481 426.426Z"/><path fill="#FDE65C" transform="scale(2 2)" d="M333.481 426.426C339.219 417.994 353.313 426.172 344.192 431.753L344.119 431.56L344.48 431.036C349.057 424.453 341.378 422.573 333.91 426.583L333.481 426.426Z"/><path fill="#FDBA41" transform="scale(2 2)" d="M128.432 381.993C135.499 385.421 139.102 388.782 137.496 397.213C136.703 398.84 135.806 400.282 134.254 401.306C140.603 411.966 151.352 421.22 163.895 423.252C166.386 421.554 167.269 421.351 170.183 420.606C177.782 420.983 176.55 421.936 181.873 425.532C182.889 430.088 183.144 432.042 181.873 436.611C179.366 457.438 144.551 445.568 134.254 437.959C132.358 437.209 127.195 432.762 125.641 431.271C113.561 419.681 104.973 397.747 118.123 383.995C123.12 382.119 122.408 381.596 128.432 381.993Z"/><defs><linearGradient id="gradient_5" gradientUnits="userSpaceOnUse" x1="142.35533" y1="396.4093" x2="115.03661" y2="417.60184"><stop offset="0" stop-color="#FFBD0B"/><stop offset="1" stop-color="#FFD85C"/></linearGradient></defs><path fill="url(#gradient_5)" transform="scale(2 2)" d="M128.432 381.993C135.499 385.421 139.102 388.782 137.496 397.213C136.703 398.84 135.806 400.282 134.254 401.306C129.995 402.417 125.128 403.434 122.357 399.048C121.886 396.634 121.462 394.322 123.56 392.613C125.141 391.978 126.884 391.283 128.432 390.594C120.784 390.208 118.145 395.149 118.123 402.587C118.605 404.139 118.996 405.374 119.839 406.79C121.207 408.277 121.579 409.954 122.648 411.546C126.643 417.492 132.141 422.043 137.761 426.364C139.92 428.025 147.788 432.327 139.707 428.61C138.015 431.369 134.36 434.122 131.123 434.974C131.759 435.471 134.291 437.269 134.4 437.794L134.254 437.959C132.358 437.209 127.195 432.762 125.641 431.271C113.561 419.681 104.973 397.747 118.123 383.995C123.12 382.119 122.408 381.596 128.432 381.993Z"/><path fill="#FCE19E" transform="scale(2 2)" d="M117.564 397.213C118.189 399.334 117.729 400.874 118.123 402.587C118.605 404.139 118.996 405.374 119.839 406.79C121.449 411.148 124.052 415.018 127.618 418.034C128.525 420.181 129.486 420.545 131.123 422.147C129.443 423.58 126.724 426.711 125.595 427.531C125.007 426.845 124.339 425.913 123.56 425.532C117.709 421.217 115.106 404.254 117.564 397.213Z"/><path fill="#FDE65C" transform="scale(2 2)" d="M117.564 397.213C116.286 391.079 123.339 384.455 130.202 387.637C129.497 391.836 133.653 388.401 131.123 397.213C129.986 397.52 128.776 397.736 127.618 397.968C123.388 396.324 125.888 394.315 124.771 392.623L123.56 392.613C125.141 391.978 126.884 391.283 128.432 390.594C120.784 390.208 118.145 395.149 118.123 402.587C117.729 400.874 118.189 399.334 117.564 397.213Z"/><path fill="#FDE65C" transform="scale(2 2)" d="M127.618 418.034L127.947 418.408C130.156 420.893 132.753 422.896 135.215 425.135L134.927 425.208L133.707 424.405C131.76 426.609 128.934 428.28 126.744 430.44C125.946 429.255 124.13 426.699 123.56 425.532C124.339 425.913 125.007 426.845 125.595 427.531C126.724 426.711 129.443 423.58 131.123 422.147C129.486 420.545 128.525 420.181 127.618 418.034Z"/><path fill="#FDE65C" transform="scale(2 2)" d="M131.722 388.338C138.455 389.812 137.102 398.367 129.117 400.884C125.389 398.94 132.157 399.275 133.1 398.193C136.28 394.543 133.612 390.956 131.722 388.338Z"/><path fill="#E98A31" transform="scale(2 2)" d="M163.895 433.007C163.971 435.843 159.604 433.458 157.829 432.929C146.465 429.539 118.688 414.316 121.888 399.312L122.357 399.048C125.128 403.434 129.995 402.417 134.254 401.306C140.603 411.966 151.352 421.22 163.895 423.252C162.997 424.661 162.682 425.255 162.207 426.867C161.798 429.756 161.953 430.701 163.895 433.007Z"/><path fill="#FDE65C" transform="scale(2 2)" d="M164.677 426.867C170.099 423.316 177.709 422.731 178.622 431.219L177.636 431.219C174.55 423.592 167.384 423.469 164.677 431.753C163.701 430.444 164.267 428.296 164.677 426.867Z"/><path fill="#FDBA41" transform="scale(2 2)" d="M162.207 426.867L162.593 427.601C163.123 427.334 163.391 427.165 163.891 426.84L164.677 426.867C164.267 428.296 163.701 430.444 164.677 431.753C164.81 432.837 164.702 432.921 165.346 433.879L164.962 433.559C164.517 433.195 164.468 433.148 163.895 433.007C161.953 430.701 161.798 429.756 162.207 426.867Z"/><path fill="#FDD871" transform="scale(2 2)" d="M177.636 431.219L178.622 431.219C178.947 432.174 178.959 433.482 178.499 434.388L178.101 434.436C177.536 433.599 177.658 432.288 177.636 431.219Z"/><path fill="#97DFF8" transform="scale(2 2)" d="M143.763 289.969L144.207 289.784C145.431 290.421 155.142 307.947 158.312 311.012C162.861 315.411 167.833 322.966 173.354 327.002C178.845 331.721 202.84 347.489 204.56 349.974C196.419 349.84 148.872 353.436 149.5 364.468C149.507 365.955 149.547 367.601 149.5 369.071L149.5 377.458C147.578 377.621 145.688 377.755 143.763 377.877L143.763 346.341L143.763 289.969Z"/><defs><linearGradient id="gradient_6" gradientUnits="userSpaceOnUse" x1="254.93346" y1="421.50568" x2="256.64749" y2="449.22543"><stop offset="0" stop-color="#E3873C"/><stop offset="1" stop-color="#FFC94D"/></linearGradient></defs><path fill="url(#gradient_6)" transform="scale(2 2)" d="M181.873 425.532C209.522 427.989 231.271 424.348 255.89 441.225C272.595 427.838 289.824 426.854 310.116 426.861L329.396 426.867C327.819 431.39 328.411 433.364 329.396 437.959C299.718 437.958 282.753 436.898 255.89 450.225C232.863 437.262 207.2 438.956 181.873 436.611C183.144 432.042 182.889 430.088 181.873 425.532Z"/><path fill="#FDD871" transform="scale(2 2)" d="M117.564 266.205L117.585 266.489C118.128 274.551 116.778 294.86 118.267 299.422C120.867 299.026 121.131 298.585 123.474 299.767L124.634 299.448C130.47 303.008 127.709 292.751 128.311 290.676C128.818 299.843 128.423 312.033 128.424 321.447L128.432 375.251L128.432 381.993C122.408 381.596 123.12 382.119 118.123 383.995C116.509 377.199 117.313 335.603 117.564 326.678C118.098 306.941 117.034 285.949 117.564 266.205Z"/><path fill="#FCE19E" transform="scale(2 2)" d="M118.123 383.995C116.509 377.199 117.313 335.603 117.564 326.678C117.907 332.872 117.249 340.111 117.562 346.227C118.174 358.165 117.194 372.29 118.123 383.378C121.226 382.05 123.161 381.022 126.374 381.737C126.469 381.759 127.011 381.11 126.98 380.957C129.266 375.109 128.643 361.976 128.017 355.906L128.148 355.899C128.708 361.478 127.514 371.05 128.432 375.251L128.432 381.993C122.408 381.596 123.12 382.119 118.123 383.995Z"/><defs><linearGradient id="gradient_7" gradientUnits="userSpaceOnUse" x1="373.06909" y1="307.802" x2="407.92166" y2="372.34778"><stop offset="0" stop-color="#F5C269"/><stop offset="1" stop-color="#FFECAE"/></linearGradient></defs><path fill="url(#gradient_7)" transform="scale(2 2)" d="M384.147 381.165L384.148 276.826C384.143 273.826 382.927 252.762 384.332 251.405C384.43 251.079 384.512 267.31 384.492 267.065C384.837 271.23 383.912 302.907 384.848 304.209C387.428 301.65 393.202 300.432 393.791 297.208C394.528 293.172 394.195 288.609 394.169 284.491L394.253 258.228C394.254 256.034 394.087 246.873 394.337 245.088L394.739 244.959L394.749 365.601C394.75 369.518 394.947 377.625 394.25 381.165C389.923 380.053 388.786 379.571 384.147 381.165Z"/><path fill="#FDE65C" transform="scale(2 2)" d="M285.922 101.463C269.268 115.61 247.017 80.003 269.526 69.4241C282.801 63.381 303.511 70.8368 296.778 88.4924C293.368 97.0568 274.201 97.8792 274.522 81.6606L273.743 81.1082L273.688 80.7429L274.793 80.6919C277.686 76.7594 276.2 78.9326 275.657 74.8762L275.339 74.712C270.169 77.6685 267.593 79.4689 268.184 86.4842L268.184 86.4842C269.398 93.5642 274.298 98.2456 281.317 99.5C282.415 99.5072 283.626 99.5435 284.714 99.5C286.521 99.8533 287.333 99.8378 285.922 101.463Z"/><path fill="#FDD871" transform="scale(2 2)" d="M268.184 86.4842C263.723 78.5235 279.408 70.6224 283.321 74.7498L282.941 75.4314L281.317 75.4314C278.057 76.2906 276.896 78.7544 275.374 81.5448C275.161 93.3298 286.947 98.4288 294.495 90.4803C295.007 89.9402 296.172 88.8478 296.778 88.4924C293.368 97.0568 274.201 97.8792 274.522 81.6606L273.743 81.1082L273.688 80.7429L274.793 80.6919C277.686 76.7594 276.2 78.9326 275.657 74.8762L275.339 74.712C270.169 77.6685 267.593 79.4689 268.184 86.4842L268.184 86.4842Z"/><path fill="#FDD871" transform="scale(2 2)" d="M281.317 99.5C282.415 99.5072 283.626 99.5435 284.714 99.5C286.521 99.8533 287.333 99.8378 285.922 101.463C283.916 101.416 283.054 101.421 281.415 100.28L281.317 99.5Z"/><path fill="#FCF6C9" transform="scale(2 2)" d="M284.714 75.4314C286.032 75.4136 288.646 75.2209 289.709 75.7734C293.207 81.0193 288.219 82.0257 284.714 82.27L284.304 82.0133C283.434 80.5088 282.887 76.4011 284.714 75.4314Z"/><path fill="#FDD871" transform="scale(2 2)" d="M368.78 100.235C390.566 104.255 391.019 129.046 391.011 145.862C390.476 144.265 390.444 142.051 391.011 140.498C386.22 136.84 379.789 128.274 377.954 122.572L377.304 122.498C376.479 120.639 371.19 111.252 370.016 109.565C368.439 107.3 364.229 103.099 363.866 100.398C364.332 100.487 368.267 100.356 368.78 100.235Z"/><path fill="#BB4B1D" transform="scale(2 2)" d="M361.958 360.821C366.473 363.221 364.651 370.964 365.013 375.251C364.973 378.465 365.528 402.849 364.412 403.959C360.945 407.402 347.793 410.988 342.824 410.654L342.796 410.493L343.201 410.471C353.622 409.878 353.198 407.943 357.005 399.701C358.248 397.011 362.322 393.089 364.142 390.058L364.503 390.012L364.687 390.554C364.865 388.298 365.711 364.272 363.117 366.338C359.254 369.415 337.957 376.012 334.335 375.251L334.241 375.118C334.924 374.768 340.596 373.805 342.146 373.372C346.063 372.276 362.382 367.487 364.205 364.205C364.102 363.082 362.938 362.092 362.143 361.362L361.88 361.125L361.958 360.821Z"/><path fill="#97DFF8" transform="scale(2 2)" d="M360.818 359.835C364.572 360.58 364.979 363.49 365.368 366.637C365.665 366.383 368.063 364.132 368.083 363.875C368.819 354.42 367.291 324.878 368.78 318.607L368.777 356.323C368.768 362.706 368.603 368.852 368.78 375.251L365.013 375.251C364.651 370.964 366.473 363.221 361.958 360.821L360.818 359.835Z"/><path fill="#BB4B1D" transform="scale(2 2)" d="M147.875 397.968C163.023 410.112 168.88 407.121 185.393 413.091L185.872 413.267L185.872 413.829C174.422 410.169 154.437 409.631 147.875 397.968Z"/><path fill="#BB4B1D" transform="scale(2 2)" d="M137.496 397.213L137.787 397.367C136.993 399.794 134.523 401.191 135.034 401.988C137.519 405.865 141.212 410.329 144.622 413.303C151.217 414.773 154.116 420.963 162.471 422.756C164.174 423.161 168.422 419.528 170.183 420.606C167.269 421.351 166.386 421.554 163.895 423.252C151.352 421.22 140.603 411.966 134.254 401.306C135.806 400.282 136.703 398.84 137.496 397.213Z"/><path fill="#BB4B1D" transform="scale(2 2)" d="M185.872 413.267L190.455 413.267C192.188 413.597 193.111 413.711 194.873 413.829C193.333 414.627 188.238 413.745 185.872 413.829L185.872 413.267Z"/><path fill="#F81C2D" transform="scale(2 2)" d="M281.864 178.506C291.104 177.279 299.734 178.645 307.219 184.64C312.097 187.599 317.53 194.595 319.131 200.189C320.619 202.57 323.451 211.994 323.673 214.664C323.23 216.565 323.148 218.678 322.795 220.67C322.761 222.014 322.67 223.561 322.795 224.883C322.125 228.157 318.695 227.943 320.022 234.13C318.24 234.309 315.653 234.491 313.947 234.792C314.617 235.613 314.565 235.593 315.519 236.028L315.906 236.678C315.746 237.051 315.776 237.102 315.519 237.389C315.707 237.739 321.942 244.577 322.463 244.959C322.478 246.244 322.545 247.902 322.463 249.155L321.158 247.697C317.097 246.56 314.781 254.838 312.468 258.636C300.68 277.994 283.075 292.927 265.141 306.4C262.116 308.673 242.957 321.579 239.462 321.719C237.988 321.778 214.384 303.156 212.719 300.079L212.719 300.079C208.841 296.58 195.921 282.474 194.179 282.06L192.834 280.654C191.197 276.998 190.047 273.668 185.872 272.614L185.251 272.614C181.448 272.849 183.972 278.753 183.543 279.622C179.103 280.844 179.406 281.479 176.95 275.13C181.449 275.219 181.536 274.922 183.373 270.841C183.46 270.673 183.693 270.065 183.599 269.919C179.212 263.071 184.631 242.786 183.373 232.887C183.148 232.024 183.642 229.297 184.238 228.644C185.004 226.622 185.578 222.125 185.872 219.937C186.568 218.975 186.758 218.274 186.865 217.127C187.406 215.573 189.9 211.206 191.344 210.467C191.873 210.138 193.581 207.99 194.104 207.333C205.6 192.907 227.657 197.476 241.292 191.639C242.709 191.032 244.453 195.464 246.169 195.901C247.564 197.02 252.024 204.476 252.984 206.32C254.589 200.801 259.517 193.251 263.851 189.578C268.333 184.533 275.261 180.197 281.864 178.506Z"/><path fill="#FA5767" transform="scale(2 2)" d="M281.864 178.506C291.104 177.279 299.734 178.645 307.219 184.64C312.097 187.599 317.53 194.595 319.131 200.189C319.139 201.386 321.956 208.76 322.463 210.467L322.076 210.724C316.822 214.168 301.068 207.346 292.952 208.15C286.431 208.797 278.119 208.147 271.837 209.666C256.296 213.422 240.634 216.615 225.007 220.04C214.167 222.416 195.646 224.172 194.964 238.424C194.422 249.738 196.091 263.245 199.559 274.056C199.951 275.277 202.558 278.11 202.92 279.308C203.717 281.949 203.548 283.959 204.932 286.479C207.287 290.764 210.942 294.011 212.133 298.872C212.3 299.552 212.318 299.51 212.719 300.079C208.841 296.58 195.921 282.474 194.179 282.06L192.834 280.654C191.197 276.998 190.047 273.668 185.872 272.614L185.251 272.614C181.448 272.849 183.972 278.753 183.543 279.622C179.103 280.844 179.406 281.479 176.95 275.13C181.449 275.219 181.536 274.922 183.373 270.841C183.46 270.673 183.693 270.065 183.599 269.919C179.212 263.071 184.631 242.786 183.373 232.887C183.148 232.024 183.642 229.297 184.238 228.644C185.004 226.622 185.578 222.125 185.872 219.937C186.568 218.975 186.758 218.274 186.865 217.127C187.406 215.573 189.9 211.206 191.344 210.467C191.873 210.138 193.581 207.99 194.104 207.333C205.6 192.907 227.657 197.476 241.292 191.639C242.709 191.032 244.453 195.464 246.169 195.901C247.564 197.02 252.024 204.476 252.984 206.32C254.589 200.801 259.517 193.251 263.851 189.578C268.333 184.533 275.261 180.197 281.864 178.506Z"/><path fill="#F4937F" transform="scale(2 2)" d="M281.864 178.506C291.104 177.279 299.734 178.645 307.219 184.64C305.391 184.564 298.947 179.363 294.074 179.142C290.517 182.908 278.86 182.66 273.89 182.155C270.647 183.65 265.569 188.979 264.008 189.678L263.851 189.578C268.333 184.533 275.261 180.197 281.864 178.506Z"/><path fill="#FB7E91" transform="scale(2 2)" d="M183.373 232.887C183.148 232.024 183.642 229.297 184.238 228.644C184.458 229.584 183.907 231.71 183.643 232.695L183.373 232.887Z"/><path fill="#CB6858" transform="scale(2 2)" d="M319.131 200.189C320.619 202.57 323.451 211.994 323.673 214.664C323.23 216.565 323.148 218.678 322.795 220.67C322.761 222.014 322.67 223.561 322.795 224.883C322.125 228.157 318.695 227.943 320.022 234.13C318.24 234.309 315.653 234.491 313.947 234.792C313.35 234.696 312.756 234.766 312.141 234.792C313.986 233.66 312.119 229.77 313.289 227.869L314.088 227.745C314.186 227.881 314.284 228.017 314.382 228.153C317.03 222.688 315.506 222.047 322.674 220.267C323.121 218.587 322.966 211.944 322.463 210.467C321.956 208.76 319.139 201.386 319.131 200.189Z"/><path fill="#CB6858" transform="scale(2 2)" d="M312.141 236.889C313.616 236.964 314.08 236.959 315.519 237.389C315.707 237.739 321.942 244.577 322.463 244.959C322.478 246.244 322.545 247.902 322.463 249.155L321.158 247.697C321.071 246.494 318.394 246.756 317.603 245.928C314.742 242.935 316.441 239.93 312.141 236.889Z"/><defs><linearGradient id="gradient_8" gradientUnits="userSpaceOnUse" x1="312.33105" y1="233.63959" x2="307.74921" y2="237.57663"><stop offset="0" stop-color="#FFD100"/><stop offset="1" stop-color="#FFB510"/></linearGradient></defs><path fill="url(#gradient_8)" transform="scale(2 2)" d="M312.141 234.792C312.756 234.766 313.35 234.696 313.947 234.792C314.617 235.613 314.565 235.593 315.519 236.028L315.906 236.678C315.746 237.051 315.776 237.102 315.519 237.389C314.08 236.959 313.616 236.964 312.141 236.889C310.607 236.304 306.328 236.126 304.507 236.028L304.507 234.792C307.172 234.903 309.482 234.855 312.141 234.792Z"/><path fill="#F96B47" transform="scale(2 2)" d="M304.507 236.028C301.47 235.91 301.408 235.107 304.507 234.792L304.507 236.028Z"/><path fill="#D91122" transform="scale(2 2)" d="M269.606 173.4C307.671 148.601 361.475 174.391 363.22 222.184C364.092 246.08 357.958 264.903 346.812 285.785C344.948 289.279 341.886 293.243 340.465 296.748C324.291 317.289 312.98 330.87 292.435 347.855C289.329 349.511 286.596 352.38 283.721 354.419C276.623 359.365 266.767 366.71 259.09 370.234C256.86 371.257 254.354 369.771 252.049 369.071L251.748 368.807C246.338 363.99 237.013 359.037 230.529 354.051C227.968 352.081 225.278 349.373 222.466 347.855C217.131 342.457 199.498 327.24 196.25 321.283C194.912 318.638 191.058 315.463 189.488 313.051C187.62 310.183 184.15 292.761 186.09 290.212C187.565 290.262 188.89 292.254 190.273 293.4L190.455 293.549C190.302 292.249 183.303 285.699 182.067 283.978C177.229 277.241 170.739 268.421 167.591 260.861C171.007 264.593 172.442 270.468 176.95 275.13C179.406 281.479 179.103 280.844 183.543 279.622C183.972 278.753 181.448 272.849 185.251 272.614L185.872 272.614C190.047 273.668 191.197 276.998 192.834 280.654L194.179 282.06C195.921 282.474 208.841 296.58 212.719 300.079L212.719 300.079C214.384 303.156 237.988 321.778 239.462 321.719C242.957 321.579 262.116 308.673 265.141 306.4C283.075 292.927 300.68 277.994 312.468 258.636C314.781 254.838 317.097 246.56 321.158 247.697L322.463 249.155C322.545 247.902 322.478 246.244 322.463 244.959C321.942 244.577 315.707 237.739 315.519 237.389C315.776 237.102 315.746 237.051 315.906 236.678L315.519 236.028C314.565 235.593 314.617 235.613 313.947 234.792C315.653 234.491 318.24 234.309 320.022 234.13C318.695 227.943 322.125 228.157 322.795 224.883C322.67 223.561 322.761 222.014 322.795 220.67C323.148 218.678 323.23 216.565 323.673 214.664C323.451 211.994 320.619 202.57 319.131 200.189C317.53 194.595 312.097 187.599 307.219 184.64C299.734 178.645 291.104 177.279 281.864 178.506C278.753 178.013 273.308 181.613 270.689 183.072C270.124 183.387 268.676 182.752 267.989 183.123C264.158 185.195 261.174 187.446 262.334 180.365C262.891 176.962 267.556 175.245 270.16 173.573L270.427 173.4L269.606 173.4Z"/><defs><linearGradient id="gradient_9" gradientUnits="userSpaceOnUse" x1="205.79587" y1="291.38718" x2="183.13484" y2="295.55972"><stop offset="0" stop-color="#FD2642"/><stop offset="1" stop-color="#FF5488"/></linearGradient></defs><path fill="url(#gradient_9)" transform="scale(2 2)" d="M167.591 260.861C171.007 264.593 172.442 270.468 176.95 275.13C179.406 281.479 179.103 280.844 183.543 279.622C183.972 278.753 181.448 272.849 185.251 272.614L185.872 272.614C190.047 273.668 191.197 276.998 192.834 280.654L194.179 282.06C195.921 282.474 208.841 296.58 212.719 300.079L212.719 300.079C210.466 298.628 207.247 295.059 205.82 294.244L205.548 294.453C205.788 298.08 209.035 302.244 208.195 306.489C207.5 310.006 224.104 316.259 227.945 316.708L227.793 317.01C220.248 318.325 202.754 304.326 197.17 299.82C194.987 298.057 193.042 295.562 190.847 293.85L190.455 293.549C190.302 292.249 183.303 285.699 182.067 283.978C177.229 277.241 170.739 268.421 167.591 260.861Z"/><path fill="#FDC2D9" transform="scale(2 2)" d="M185.251 272.614L185.872 272.614C190.047 273.668 191.197 276.998 192.834 280.654C191.096 283.66 190.535 284.534 186.865 284.211C185.449 282.035 185.155 281.64 184.238 279.232C183.199 276.151 182.805 274.96 185.251 272.614Z"/><path fill="#FCDBDD" transform="scale(2 2)" d="M185.251 272.614L185.872 272.614C186.596 276.384 194.637 280.962 184.238 279.232C183.199 276.151 182.805 274.96 185.251 272.614Z"/><path fill="#FE84B2" transform="scale(2 2)" d="M192.834 280.654L194.179 282.06C194.717 286.126 197.12 290.125 191.344 289.068C189.061 287.236 188.417 286.719 186.865 284.211C190.535 284.534 191.096 283.66 192.834 280.654Z"/><path fill="#FCDBDD" transform="scale(2 2)" d="M322.795 224.883C323.55 225.176 324.277 225.399 324.928 225.872L324.928 225.872C327.501 226.768 330.494 231.533 331.19 234.13C332.201 234.338 333.346 234.545 334.335 234.792C333.845 235.468 333.423 235.985 332.509 236.028C328.155 238.934 332.005 240.875 328.832 243.724C327.583 244.846 326.175 245.42 324.928 246.752L324.928 246.752L323.673 247.697C322.284 248.536 322.488 248.347 322.463 250.244L322.463 249.155C322.545 247.902 322.478 246.244 322.463 244.959C321.942 244.577 315.707 237.739 315.519 237.389C315.776 237.102 315.746 237.051 315.906 236.678L315.519 236.028C314.565 235.593 314.617 235.613 313.947 234.792C315.653 234.491 318.24 234.309 320.022 234.13C318.695 227.943 322.125 228.157 322.795 224.883Z"/><path fill="#FDBA41" transform="scale(2 2)" d="M324.928 246.752C324.474 240.717 326.696 237.159 332.509 236.028C328.155 238.934 332.005 240.875 328.832 243.724C327.583 244.846 326.175 245.42 324.928 246.752L324.928 246.752Z"/><path fill="#FDBA41" transform="scale(2 2)" d="M315.519 236.028C316.768 236.355 317.865 236.619 319.131 236.889C322.788 240.913 321.805 246.868 323.673 247.697C322.284 248.536 322.488 248.347 322.463 250.244L322.463 249.155C322.545 247.902 322.478 246.244 322.463 244.959C321.942 244.577 315.707 237.739 315.519 237.389C315.776 237.102 315.746 237.051 315.906 236.678L315.519 236.028Z"/><path fill="#EEA645" transform="scale(2 2)" d="M324.928 225.872C327.501 226.768 330.494 231.533 331.19 234.13C327.121 233.736 325.525 229.525 324.928 225.872L324.928 225.872Z"/><path fill="#CB6858" transform="scale(2 2)" d="M269.606 173.4C307.671 148.601 361.475 174.391 363.22 222.184C364.092 246.08 357.958 264.903 346.812 285.785C344.948 289.279 341.886 293.243 340.465 296.748L340.327 296.217C341.273 292.005 347.273 286.163 348.239 281.519C353.597 272.246 356.174 262.571 358.94 252.298C359.621 249.746 360.903 247.918 361.351 245.273C365.593 220.265 361.804 194.579 340.576 177.866C339.056 176.67 335.009 174.089 333.124 173.882C335.032 175.476 337.815 177.431 338.711 179.722C336.723 178.435 335.217 176.149 333.319 174.764C327.62 170.606 318.483 167.014 311.182 166.803C316.747 165.815 323.901 170.24 325.029 169.573C317.206 160.385 285.652 166.475 276.007 170.707C275.14 171.087 270.793 173.379 270.427 173.4L269.606 173.4Z"/><path fill="#E98A31" transform="scale(2 2)" d="M324.928 220.67C327.52 223.667 330.412 226.111 332.749 229.061C333.466 229.966 334.427 233.203 335.385 234.792L334.335 234.792C333.346 234.545 332.201 234.338 331.19 234.13C330.494 231.533 327.501 226.768 324.928 225.872L324.928 225.872C324.277 225.399 323.55 225.176 322.795 224.883C322.67 223.561 322.761 222.014 322.795 220.67L324.928 220.67L324.928 220.67Z"/><path fill="#FDE65C" transform="scale(2 2)" d="M322.795 220.67L324.928 220.67C324.774 222.431 324.472 224.185 324.928 225.872L324.928 225.872C324.277 225.399 323.55 225.176 322.795 224.883C322.67 223.561 322.761 222.014 322.795 220.67Z"/><path fill="#FDD871" transform="scale(2 2)" d="M335.385 234.792C336.675 234.777 337.942 234.757 339.233 234.792L339.32 235.283L338.876 235.619L338.199 235.398L337.797 235.682L337.763 236.327C338.346 236.479 338.855 236.515 339.233 236.889C337.967 236.874 336.645 236.831 335.385 236.889C329.925 244.241 333.209 242.308 324.928 247.697L324.928 246.752C326.175 245.42 327.583 244.846 328.832 243.724C332.005 240.875 328.155 238.934 332.509 236.028C333.423 235.985 333.845 235.468 334.335 234.792L335.385 234.792Z"/><defs><linearGradient id="gradient_10" gradientUnits="userSpaceOnUse" x1="324.56" y1="259.24869" x2="322.67224" y2="249.4088"><stop offset="0" stop-color="#FFB306"/><stop offset="1" stop-color="#FFDF23"/></linearGradient></defs><path fill="url(#gradient_10)" transform="scale(2 2)" d="M323.673 247.697L324.928 246.752L324.928 246.752L324.928 247.697C325.379 251.353 323.643 259.124 322.795 262.727C322.66 258.352 322.752 254.721 322.463 250.244C322.488 248.347 322.284 248.536 323.673 247.697Z"/><path fill="#EEA645" transform="scale(2 2)" d="M339.233 234.792C342.112 235.115 345.089 235.37 347.902 236.028C344.919 236.075 342.142 236.736 339.233 236.889C338.855 236.515 338.346 236.479 337.763 236.327L337.797 235.682L338.199 235.398L338.876 235.619L339.32 235.283L339.233 234.792Z"/><path fill="#FDBA41" transform="scale(2 2)" d="M322.795 220.67C323.148 218.678 323.23 216.565 323.673 214.664C324.072 216.533 324.624 218.815 324.928 220.67L324.928 220.67L322.795 220.67Z"/><path fill="#FDD871" transform="scale(2 2)" d="M95.6225 135.939C96.2016 134.178 95.1707 128.744 95.9947 126.204C97.0009 125.648 104.28 133.45 104.5 134.265C103.913 140.422 104.895 154.335 107.315 159.604L107.481 159.572C105.867 153.512 104.15 139.96 105.646 133.605C108.698 133.358 118.447 138.225 120.682 137.395C120.649 143.982 121.364 150.501 121.25 157.055C122.057 155.334 121.211 137.89 121.25 134.265C121.364 134.138 138.072 132.279 142.924 129.928L143.316 129.402C144.559 132.554 142.665 158.126 143.763 164.219L143.774 261.302C143.775 265.155 143.899 269.821 143.763 273.623C143.639 272.758 143.725 269.699 143.73 268.655L143.777 226.34C143.778 219.593 144.066 212.527 143.337 205.815L143.221 207.348C140.152 208.936 140.13 211.085 138.655 211.407C137.82 209.844 137.27 211.039 136.455 212.14C135.907 211.469 135.953 211.482 135.214 211.049C132.08 221.81 129.363 225.503 117.352 226.258C110.04 226.717 106.201 220.683 101.383 216.042C100.336 215.946 99.8805 215.843 98.8675 216.042C94.6361 200.592 113.413 193.91 113.667 193.447C113.144 189.457 111.964 184.669 111.082 180.689C104.239 167.104 94.0686 152.592 95.6225 135.939Z"/><path fill="#FDBA41" transform="scale(2 2)" d="M107.481 159.572C105.867 153.512 104.15 139.96 105.646 133.605C108.698 133.358 118.447 138.225 120.682 137.395C120.649 143.982 121.364 150.501 121.25 157.055C125.779 171.046 133.946 180.934 130.09 196.204L129.818 196.507C127.951 194.872 114.071 174.026 112.635 171.65C110.299 167.784 109.321 163.47 107.481 159.572Z"/><path fill="#EEA645" transform="scale(2 2)" d="M111.082 180.689C123.463 184.211 143.086 217.186 121.691 221.931C115.855 223.228 108.718 217.449 111.082 211.306C115.702 212.188 117.4 211.631 118.291 207.136L118.425 207.163C118.042 214.307 112.263 210.457 110.514 213.177C112.734 219.517 128.109 219.728 126.124 205.785C125.154 198.974 121.211 195.208 113.948 194.016L113.667 193.447C113.144 189.457 111.964 184.669 111.082 180.689Z"/><path fill="#FCF6C9" transform="scale(2 2)" d="M109.381 207.037C101.918 202.728 108.96 197.782 115.922 200.189C122.859 203.586 115.151 210.342 109.381 207.037Z"/><path fill="#FCE19E" transform="scale(2 2)" d="M115.922 200.189C122.859 203.586 115.151 210.342 109.381 207.037L110.744 206.129C113.177 204.517 113.741 202.381 115.922 200.189Z"/><defs><linearGradient id="gradient_11" gradientUnits="userSpaceOnUse" x1="211.1577" y1="227.10649" x2="177.49225" y2="197.01971"><stop offset="0" stop-color="#FF526C"/><stop offset="1" stop-color="#FED4D7"/></linearGradient></defs><path fill="url(#gradient_11)" transform="scale(2 2)" d="M205.502 174.325C214.235 173.343 226.879 177.597 233.319 183.623C237.076 186.184 243.633 192.14 246.169 195.901C244.453 195.464 242.709 191.032 241.292 191.639C227.657 197.476 205.6 192.907 194.104 207.333C193.581 207.99 191.873 210.138 191.344 210.467C189.9 211.206 187.406 215.573 186.865 217.127C186.758 218.274 186.568 218.975 185.872 219.937C185.578 222.125 185.004 226.622 184.238 228.644C183.642 229.297 183.148 232.024 183.373 232.887C184.631 242.786 179.212 263.071 183.599 269.919C183.693 270.065 183.46 270.673 183.373 270.841C181.536 274.922 181.449 275.219 176.95 275.13C172.442 270.468 171.007 264.593 167.591 260.861C160.404 249.897 157.613 223.48 161.346 211.306L161.346 210.467C163.718 200.241 172.567 183.139 183.373 179.578C190.159 176.796 192.53 176.032 199.631 174.325C201.375 174.197 203.584 174.383 205.502 174.325Z"/><path fill="#FEFCFE" transform="scale(2 2)" d="M183.373 179.578C190.159 176.796 192.53 176.032 199.631 174.325L200.488 174.695C200.366 175.451 177.584 191 173.277 211.724C171.772 218.965 171.344 242.626 174.968 249.155C175.953 253.206 177.228 256.942 178.622 260.861C178.237 260.518 177.932 260.266 177.525 259.949L176.95 260.048L180.639 266.986L180.453 267.305C181.134 268.721 182.176 269.834 183.373 270.841C181.536 274.922 181.449 275.219 176.95 275.13C172.442 270.468 171.007 264.593 167.591 260.861C160.404 249.897 157.613 223.48 161.346 211.306L161.346 210.467C163.718 200.241 172.567 183.139 183.373 179.578Z"/><path fill="#FE84B2" transform="scale(2 2)" d="M161.346 210.467C161.595 212.198 165.009 214.976 166.746 214.664C165.6 230.811 169.126 245.897 176.95 260.048L180.639 266.986L180.453 267.305C181.134 268.721 182.176 269.834 183.373 270.841C181.536 274.922 181.449 275.219 176.95 275.13C172.442 270.468 171.007 264.593 167.591 260.861C160.404 249.897 157.613 223.48 161.346 211.306L161.346 210.467Z"/><path fill="#FDC2D9" transform="scale(2 2)" d="M161.346 210.467C163.718 200.241 172.567 183.139 183.373 179.578C183.686 179.598 183.85 179.652 184.147 179.534L184.485 179.831L184.741 179.735C176.459 190.789 170.468 193.035 167.618 209.496C167.382 210.858 167.152 213.473 166.746 214.664C165.009 214.976 161.595 212.198 161.346 210.467Z"/><path fill="#F4937F" transform="scale(2 2)" d="M233.319 183.623C237.076 186.184 243.633 192.14 246.169 195.901C244.453 195.464 242.709 191.032 241.292 191.639C227.657 197.476 205.6 192.907 194.104 207.333C193.581 207.99 191.873 210.138 191.344 210.467C197.582 193.405 237.04 194.289 240.551 190.416C240.125 189.505 234.334 184.87 233.31 183.964L233.319 183.623Z"/><path fill="#FB7E91" transform="scale(2 2)" d="M174.968 249.155C176.345 250.552 178.509 261.035 179.926 262.194C181.805 259.645 181.741 238.01 183.373 232.887C184.631 242.786 179.212 263.071 183.599 269.919C183.693 270.065 183.46 270.673 183.373 270.841C182.176 269.834 181.134 268.721 180.453 267.305L180.639 266.986L176.95 260.048L177.525 259.949C177.932 260.266 178.237 260.518 178.622 260.861C177.228 256.942 175.953 253.206 174.968 249.155Z"/><path fill="#FCDBDD" transform="scale(2 2)" d="M176.95 260.048L177.525 259.949C177.932 260.266 178.237 260.518 178.622 260.861C180.274 263.98 181.695 267.565 183.373 270.841C182.174 269.431 181.389 267.883 180.639 266.986L176.95 260.048Z"/><path fill="#F4937F" transform="scale(2 2)" d="M185.872 219.937C185.709 219.05 186.22 217.744 186.865 217.127C186.758 218.274 186.568 218.975 185.872 219.937Z"/><defs><linearGradient id="gradient_12" gradientUnits="userSpaceOnUse" x1="175.93684" y1="126.12638" x2="129.59709" y2="105.04694"><stop offset="0" stop-color="#FFDF83"/><stop offset="1" stop-color="#FEF6D2"/></linearGradient></defs><path fill="url(#gradient_12)" transform="scale(2 2)" d="M121.25 134.265C121.245 130.998 121.232 123.347 122.165 120.268C127.768 107.15 136.277 98.7001 151.793 99.386C165.211 99.979 178.632 98.5788 192.076 98.8775C192.968 99.2464 200.219 99.4388 201.703 99.5C198.457 100.007 191.588 99.455 187.635 99.5C183.425 105.506 186.841 108.63 178.622 114.201C180.261 114.203 193.629 113.666 194.179 114.201L164.566 114.194C141.135 114.165 144.342 116.043 143.753 136.167C143.668 145.484 143.906 154.92 143.763 164.219C142.665 158.126 144.559 132.554 143.316 129.402L142.924 129.928C138.072 132.279 121.364 134.138 121.25 134.265Z"/><path fill="#FA5767" transform="scale(2 2)" d="M159.454 195.901C159.832 195.381 159.743 195.552 160.414 195.228L160.99 195.281C167.689 204.293 159.313 204.937 161.047 211.228L161.346 211.306C157.613 223.48 160.404 249.897 167.591 260.861C170.739 268.421 177.229 277.241 182.067 283.978C183.303 285.699 190.302 292.249 190.455 293.549L190.273 293.4C188.89 292.254 187.565 290.262 186.09 290.212C184.15 292.761 187.62 310.183 189.488 313.051C191.058 315.463 194.912 318.638 196.25 321.283C193.032 318.584 189.302 313.839 186.643 310.523C165.535 284.192 142.21 244.457 153.177 209.338C154.486 207.68 156.514 200.304 159.454 195.901Z"/><defs><linearGradient id="gradient_13" gradientUnits="userSpaceOnUse" x1="254.8214" y1="161.6311" x2="208.22316" y2="194.88652"><stop offset="0" stop-color="#FA1739"/><stop offset="1" stop-color="#FD5D75"/></linearGradient></defs><path fill="url(#gradient_13)" transform="scale(2 2)" d="M188.74 166.842C208.727 159.924 246.258 167.669 253.575 189.578C257.372 182.091 261.74 177.057 269.606 173.4L270.427 173.4L270.16 173.573C267.556 175.245 262.891 176.962 262.334 180.365C261.174 187.446 264.158 185.195 267.989 183.123C268.676 182.752 270.124 183.387 270.689 183.072C273.308 181.613 278.753 178.013 281.864 178.506C275.261 180.197 268.333 184.533 263.851 189.578C259.517 193.251 254.589 200.801 252.984 206.32C252.024 204.476 247.564 197.02 246.169 195.901C243.633 192.14 237.076 186.184 233.319 183.623C226.879 177.597 214.235 173.343 205.502 174.325C203.217 170.888 192.766 168.896 188.776 167.456L188.74 166.842Z"/><path fill="#FB7E91" transform="scale(2 2)" d="M153.177 209.338C156.364 191.322 171.971 173.453 188.74 166.842L188.776 167.456C192.766 168.896 203.217 170.888 205.502 174.325C203.584 174.383 201.375 174.197 199.631 174.325C192.53 176.032 190.159 176.796 183.373 179.578C172.567 183.139 163.718 200.241 161.346 210.467L161.346 211.306L161.047 211.228C159.313 204.937 167.689 204.293 160.99 195.281L160.414 195.228C159.743 195.552 159.832 195.381 159.454 195.901C156.514 200.304 154.486 207.68 153.177 209.338Z"/></svg>