<?xml version="1.0" encoding="utf-8" ?><svg xmlns="http://www.w3.org/2000/svg" xmlns:xlink="http://www.w3.org/1999/xlink" width="1024" height="1024" viewBox="0 0 1024 1024"><path fill="#FEAD3F" transform="scale(2 2)" d="M436.479 83.5928L436.479 83.5928C420.292 97.052 359.988 151.156 351.733 169.76C366.09 165.544 386.901 155.872 400.862 149.93C397.089 153.125 392.633 155.72 388.506 158.432C381.533 163.013 353.036 182.113 349.169 187.897L349.19 188.393C351.871 190.245 365.721 187.221 369.198 186.258C358.75 193.83 350.103 198.049 340.013 207.339C353.338 207.056 358.074 218.132 357.751 230.235C357.735 234.998 356.646 238.967 355.398 243.553C355.484 243.605 355.57 243.657 355.656 243.709C370.346 245.784 373.325 261.637 368.338 273.422C367.126 276.284 365.285 278.194 363.559 280.767C371.555 295.075 359.331 314.595 343.738 314.153C344.546 318.663 344.97 322.276 343.738 326.782C338.699 339.285 330.539 344.105 317.453 341.916C308.866 361.377 287.462 363.275 273.189 347.938C271.512 349.912 269.776 351.614 267.656 353.113C266.419 354.049 265.194 355.389 264.012 356.454C254.446 365.082 244.349 363.386 236.016 354.972C231.011 360.698 227.946 365.712 220.182 367.803C204.89 371.921 193.615 358.508 189.808 345.127C174.035 356.439 157.973 345.009 153.475 328.026C144.587 330.678 138.882 329.402 135.036 320.218C133.466 315.855 134.058 310.968 135.036 306.559C118.603 309.511 109.729 295.952 111.262 280.767C107.836 261.511 125.847 251.403 143.379 260.216C145.316 248.412 145.452 250.386 152.269 241.864C152.454 238.218 151.653 234.552 152.231 230.752C154.824 213.707 168.282 205.214 184.869 207.339C187.837 192.912 197.812 180.293 213.733 181.261C214.303 179.301 214.839 177.032 215.346 174.999C221.576 150.004 254.608 140.235 267.656 163.408C272.893 166.11 278.17 169.702 279.712 175.785C288.237 175.282 294.864 174.95 301.457 181.261C303.579 175.294 307.099 168.023 310.01 162.252C309.836 166.689 309.824 175.965 310.01 180.419C314.56 177.672 338.05 137.393 341.968 130.802C340.801 135.677 328.791 166.245 330.625 168.306C332.088 168.228 362.37 142.057 366.41 138.765L403.98 108.354C411.199 102.501 428.64 87.4605 436.479 83.5928ZM305.608 235.606C306.93 233.226 305.427 231.604 303.133 233.632C300.004 237.794 297.639 242.702 294.647 247.029L294.694 247.159C298.104 243.356 302.598 239.11 305.608 235.606Z"/><path fill="#A8AFBF" transform="scale(2 2)" d="M213.733 181.261C214.303 179.301 214.839 177.032 215.346 174.999C221.576 150.004 254.608 140.235 267.656 163.408C252.241 160.781 239.622 168.782 236.016 184.483C229.563 188.543 227.413 191.096 224.593 198.235C223.991 200.895 223.904 203.651 223.724 206.378C211.946 203.483 204.195 203.872 196.988 214.242C196.336 215.547 195.95 216.196 195.586 217.625C192.935 225.653 193.863 229.506 196.988 237.236C174.38 241.333 171.542 268.137 191.174 278.878C189.389 282.258 186.004 288.853 185.759 292.619C189.337 293.914 190.809 295.796 193.419 298.456C197.239 287.391 210.122 275.036 222.866 277.103C231.143 278.446 234.749 283.072 239.464 289.43C240.361 291.793 241.266 293.955 242.259 296.273C245.867 292.899 250.466 289.446 255.293 288.25C254.802 289.988 253.78 292.055 253.598 293.725C265.928 281.984 276.004 282.298 287.46 295.095C288.153 296.734 289.631 298.557 290.729 299.942C291.862 293.998 293.591 287.228 297.059 282.17C297.836 281.164 298.69 279.921 299.446 278.878C313.551 261.307 327.566 274.067 327.975 292.619C328.323 314.499 311.87 320.517 293.942 321.917C293.589 323.416 292.619 324.508 291.945 325.997C291.708 328.297 291.76 329.025 290.729 331.097C285.653 336.743 279.15 341.989 271.03 339.955C269.276 336.947 270.024 343.824 269.947 344.793C269.739 347.425 267.797 351.129 267.656 353.113C266.419 354.049 265.194 355.389 264.012 356.454C254.446 365.082 244.349 363.386 236.016 354.972C231.011 360.698 227.946 365.712 220.182 367.803C204.89 371.921 193.615 358.508 189.808 345.127C174.035 356.439 157.973 345.009 153.475 328.026C144.587 330.678 138.882 329.402 135.036 320.218C133.466 315.855 134.058 310.968 135.036 306.559C118.603 309.511 109.729 295.952 111.262 280.767C107.836 261.511 125.847 251.403 143.379 260.216C145.316 248.412 145.452 250.386 152.269 241.864C152.454 238.218 151.653 234.552 152.231 230.752C154.824 213.707 168.282 205.214 184.869 207.339C187.837 192.912 197.812 180.293 213.733 181.261Z"/><path fill="#DDDDE1" transform="scale(2 2)" d="M213.733 181.261C214.303 179.301 214.839 177.032 215.346 174.999C221.576 150.004 254.608 140.235 267.656 163.408C252.241 160.781 239.622 168.782 236.016 184.483C229.563 188.543 227.413 191.096 224.593 198.235C223.991 200.895 223.904 203.651 223.724 206.378C211.946 203.483 204.195 203.872 196.988 214.242C196.336 215.547 195.95 216.196 195.586 217.625L195.293 217.579C190.21 216.751 184.336 214.287 179.647 217.585C169.345 224.831 183.375 234.772 184.968 239.14L184.869 239.527C184.037 239.449 181.847 238.323 180.995 237.904C174.325 234.625 162.815 236.725 161.978 245.434C161.31 252.381 167.904 255.896 171.626 260.216C168.074 257.735 161.152 254.004 158.15 258.957C154.495 264.987 163.813 275.111 166.327 279.897C160.248 274.128 154.397 268.436 145.291 268.695C128.274 269.178 129.938 286.857 141.164 296.273C130.143 291.706 123.803 283.263 123.722 271.462C116.466 272.168 114.669 275.173 111.262 280.767C107.836 261.511 125.847 251.403 143.379 260.216C145.316 248.412 145.452 250.386 152.269 241.864C152.454 238.218 151.653 234.552 152.231 230.752C154.824 213.707 168.282 205.214 184.869 207.339C187.837 192.912 197.812 180.293 213.733 181.261Z"/><path fill="#A8AFBF" transform="scale(2 2)" d="M196.988 214.242C192.297 196.953 209.855 188.302 224.593 198.235C223.991 200.895 223.904 203.651 223.724 206.378C211.946 203.483 204.195 203.872 196.988 214.242Z"/><path fill="#DDDDE1" transform="scale(2 2)" d="M299.446 278.878C313.551 261.307 327.566 274.067 327.975 292.619C327.529 290.193 325.094 285.851 322.273 286.79C316.301 288.78 315.182 298.573 311.997 303.267C303.755 315.411 294.713 303.928 285.491 318.924C284.701 316.134 283.946 312.824 282.456 310.397C273.583 295.948 254.678 302.571 251.426 318.924C242.732 315.575 236.36 318.639 231.283 325.997C226.429 314.872 220.857 303.709 206.929 304.109C197.903 304.369 191.962 307.79 185.759 314.153C180.126 303.5 171.212 294.661 160.224 306.559C164.362 296.352 174.332 287.298 185.759 292.619C189.337 293.914 190.809 295.796 193.419 298.456C197.239 287.391 210.122 275.036 222.866 277.103C231.143 278.446 234.749 283.072 239.464 289.43C240.361 291.793 241.266 293.955 242.259 296.273C245.867 292.899 250.466 289.446 255.293 288.25C254.802 289.988 253.78 292.055 253.598 293.725C265.928 281.984 276.004 282.298 287.46 295.095C288.153 296.734 289.631 298.557 290.729 299.942C291.862 293.998 293.591 287.228 297.059 282.17C297.836 281.164 298.69 279.921 299.446 278.878Z"/><path fill="#FEAD3F" transform="scale(2 2)" d="M242.259 296.273C245.867 292.899 250.466 289.446 255.293 288.25C254.802 289.988 253.78 292.055 253.598 293.725C248.696 299.698 249.206 300.64 246.001 306.559C244.836 303.1 243.681 299.634 242.259 296.273Z"/><path fill="#8F96AE" transform="scale(2 2)" d="M264.448 330.255C283.547 340.719 286.478 324.934 293.942 314.153C293.898 316.155 293.724 320.044 293.942 321.917C293.589 323.416 292.619 324.508 291.945 325.997C291.708 328.297 291.76 329.025 290.729 331.097C285.653 336.743 279.15 341.989 271.03 339.955C269.276 336.947 270.024 343.824 269.947 344.793C269.739 347.425 267.797 351.129 267.656 353.113C266.419 354.049 265.194 355.389 264.012 356.454C254.446 365.082 244.349 363.386 236.016 354.972C231.011 360.698 227.946 365.712 220.182 367.803C204.89 371.921 193.615 358.508 189.808 345.127C174.035 356.439 157.973 345.009 153.475 328.026C144.587 330.678 138.882 329.402 135.036 320.218C135.676 317.678 138.277 321.307 139.445 322.078C143.847 324.985 150.444 324.746 154.824 321.917C161.73 340.713 174.742 344.839 193.419 339.955C197.257 350.701 208.993 358.476 220.368 354.121C229.045 350.799 232.284 345.19 236.016 337.279C236.655 362.636 275.226 353.523 264.448 330.255Z"/><path fill="#FEF0D1" transform="scale(2 2)" d="M436.479 83.5928L436.479 83.5928C420.292 97.052 359.988 151.156 351.733 169.76C366.09 165.544 386.901 155.872 400.862 149.93C397.089 153.125 392.633 155.72 388.506 158.432C381.533 163.013 353.036 182.113 349.169 187.897L349.19 188.393C351.871 190.245 365.721 187.221 369.198 186.258C358.75 193.83 350.103 198.049 340.013 207.339L339.537 207.339C336.784 209.036 331.48 213.024 329.891 215.744C319.567 221.402 314.25 228.794 305.608 235.606C306.93 233.226 305.427 231.604 303.133 233.632C307.902 222.41 315.792 212.078 320.608 199.942C308.197 206.981 301.489 214.607 291.945 225.072C290.761 223.568 292.182 222.884 289.686 223.62C294.256 211.723 302.481 201.15 306.071 188.849C305.294 185.527 304.331 183.218 301.457 181.261C303.579 175.294 307.099 168.023 310.01 162.252C309.836 166.689 309.824 175.965 310.01 180.419C314.56 177.672 338.05 137.393 341.968 130.802C340.801 135.677 328.791 166.245 330.625 168.306C332.088 168.228 362.37 142.057 366.41 138.765L403.98 108.354C411.199 102.501 428.64 87.4605 436.479 83.5928Z"/><path fill="#E87726" transform="scale(2 2)" d="M247.842 241.864C251.13 245.77 256.491 252.218 260.45 255.223C266.692 259.961 269.097 241.049 271.03 237.938C271.223 243.158 273.57 252.521 275.189 257.654C278.735 254.379 285.735 248.871 289.686 245.891C285.749 252.49 283.342 255.991 279.712 263.165C287.158 261.101 297.915 258.939 305.608 257.654C298.797 261.277 284.958 269.398 280.638 274.565C285.201 276.234 294.27 278.014 299.446 278.878C298.69 279.921 297.836 281.164 297.059 282.17C293.591 287.228 291.862 293.998 290.729 299.942C289.631 298.557 288.153 296.734 287.46 295.095C276.004 282.298 265.928 281.984 253.598 293.725C253.78 292.055 254.802 289.988 255.293 288.25C250.466 289.446 245.867 292.899 242.259 296.273C241.266 293.955 240.361 291.793 239.464 289.43C256.302 275.678 246.292 271.225 230.243 264.965C259.056 265.271 256.8 265.339 247.842 241.864Z"/><path fill="#FEAD3F" transform="scale(2 2)" d="M283.845 282.17C288.261 282.313 292.687 281.865 297.059 282.17C293.591 287.228 291.862 293.998 290.729 299.942C289.631 298.557 288.153 296.734 287.46 295.095C287.474 291.585 284.592 286.251 283.845 282.17Z"/><path fill="#E87726" transform="scale(2 2)" d="M340.013 207.339C353.338 207.056 358.074 218.132 357.751 230.235C357.735 234.998 356.646 238.967 355.398 243.553C354.058 244.767 353.563 245.322 352.927 247.009C353.798 249.329 351.997 263.132 351.733 267.823C350.69 260.805 349.748 255.569 343.104 251.863C345.758 237.331 342.088 230.381 331.62 220.95C333.873 218.997 334.916 219.213 337.828 219.177C335.509 217.163 333.031 217.066 330.188 215.871L329.891 215.744C331.48 213.024 336.784 209.036 339.537 207.339L340.013 207.339Z"/><path fill="#FEAD3F" transform="scale(2 2)" d="M340.013 207.339C353.338 207.056 358.074 218.132 357.751 230.235C356.814 229.573 353.857 222.592 352.927 220.95C352.461 224.131 350.268 230.743 348.914 233.632C347.24 227.175 345.661 222.891 340.013 219.177C339.015 219.085 338.812 219.066 337.828 219.177C335.509 217.163 333.031 217.066 330.188 215.871L329.891 215.744C331.48 213.024 336.784 209.036 339.537 207.339L340.013 207.339Z"/><path fill="#FED575" transform="scale(2 2)" d="M329.891 215.744C331.48 213.024 336.784 209.036 339.537 207.339C345.778 212.573 347.134 214.428 346.974 222.808C344.59 220.453 343.545 218.999 340.013 219.177C339.015 219.085 338.812 219.066 337.828 219.177C335.509 217.163 333.031 217.066 330.188 215.871L329.891 215.744Z"/><path fill="#A8AFBF" transform="scale(2 2)" d="M236.016 184.483C239.622 168.782 252.241 160.781 267.656 163.408C272.893 166.11 278.17 169.702 279.712 175.785C269.005 179.147 267.817 179.823 261.576 188.849C251.421 181.267 247.909 180.554 236.016 184.483Z"/><path fill="#E87726" transform="scale(2 2)" d="M291.945 325.997C300.152 326.098 307.537 325.999 314.488 321.169C316.848 319.529 323.881 313.696 322.789 320.384C321.362 329.115 314.146 332.418 306.263 331.373L304.279 331.097C300.29 336.638 294.635 330.566 290.729 331.097C291.76 329.025 291.708 328.297 291.945 325.997Z"/><path fill="#E87726" transform="scale(2 2)" d="M290.729 331.097L290.984 331.391C293.765 334.546 294.124 333.572 295.669 338.352C291.922 351.583 275.062 348.061 271.03 339.955C279.15 341.989 285.653 336.743 290.729 331.097Z"/><path fill="#E87726" transform="scale(2 2)" d="M340.013 322.948C337.493 324.127 331.315 326.782 329.585 323.287C329.921 322.923 343.441 314.248 343.738 314.153C344.546 318.663 344.97 322.276 343.738 326.782C342.331 326.371 341.015 324.225 340.013 322.948Z"/><path fill="#DDDDE1" transform="scale(2 2)" d="M289.686 223.62C292.182 222.884 290.761 223.568 291.945 225.072C288.947 228.48 286.651 231.449 283.845 234.993C285.991 231.025 287.73 227.7 289.686 223.62Z"/><path fill="#E87726" transform="scale(2 2)" d="M350.395 271.937C354.921 276.531 352.806 289.388 346.573 293.103C345.143 293.956 341.294 294.682 339.537 295.095C337.454 305.434 335.386 310.309 324.8 314.153C324.206 314.315 324.128 314.31 323.512 314.384L323.244 314.023C324.318 308.801 335.809 302.892 333.285 288.25C342.507 284.209 345.986 280.495 350.395 271.937Z"/><path fill="#FED575" transform="scale(2 2)" d="M255.293 211.155C259.578 210.196 264.633 212.866 267.656 215.744C258.96 217.437 246.634 222.015 243.217 231.085C241.372 233.674 240.806 235.08 239.464 237.938C232.178 225.064 240.757 211.434 255.293 211.155Z"/><path fill="#FED575" transform="scale(2 2)" d="M191.174 243.553L192.357 243.55L192.695 243.931C192.73 245.025 192.377 245.468 192.01 246.481C186.989 260.324 192.319 271.824 204.268 278.878C201.385 278.751 199.803 278.696 196.988 278.057C180.661 271.901 173.845 250.45 191.174 243.553Z"/><path fill="#FED575" transform="scale(2 2)" d="M221.699 237.236L221.891 237.233C221.829 238.027 220.72 239.066 220.274 239.89C214.523 250.523 213.846 260.225 218.269 271.462C216.364 270.383 214.834 269.232 213.177 267.823C200.053 257.077 203.1 239.62 221.699 237.236Z"/><path fill="#FED575" transform="scale(2 2)" d="M243.217 187.296C248.129 186.848 252.878 189.27 256.569 192.316C248.309 194.302 243.951 197.421 237.391 202.793C234.876 204.611 233.054 206.422 230.243 208.291C226.51 198.484 233.777 189.646 243.217 187.296Z"/><path fill="#FED575" transform="scale(2 2)" d="M337.138 251.863C350.328 254.244 353.619 272.269 340.013 281.618C338.209 283.019 336.147 283.873 334.081 284.856C338.245 271.753 344.579 267.694 337.138 251.863Z"/><path fill="#FED575" transform="scale(2 2)" d="M307.97 339.955C309.831 340.16 310.322 340.732 311.738 341.916C316.362 348.107 301.429 354.931 293.942 353.113C291.174 352.388 289.462 351.17 287.46 349.238C295.82 346.89 303.517 340.846 307.97 339.955Z"/><path fill="#FED575" transform="scale(2 2)" d="M210.131 210.331C214.624 209.977 216.298 210.661 220.132 212.789C211.253 215.488 205.383 219.891 202.394 228.94C201.788 230.984 201.367 232.918 200.903 234.993C195.858 225.333 197.258 212.112 210.131 210.331Z"/><path fill="#FED575" transform="scale(2 2)" d="M276.742 182.076C286.918 182.265 289.424 188.52 291.945 196.865C289.85 195.876 287.561 194.606 285.491 193.517C278.423 190.071 274.848 189.834 266.999 191.118C268.311 185.681 271.13 182.705 276.742 182.076Z"/><path fill="#FED575" transform="scale(2 2)" d="M324.8 222.808C331.654 221.118 337.744 230.303 340.013 235.606C337.168 235.291 336.072 235.095 333.285 235.606C332.191 235.751 330.99 235.976 329.891 236.156C326.385 231.541 323.144 230.156 317.453 230.235C319.343 226.238 319.886 222.917 324.8 222.808Z"/><path fill="#FED575" transform="scale(2 2)" d="M356.935 252.474C369.228 255.466 368.414 266.66 363.559 275.838C361.993 277.054 361.475 277.346 360.178 278.878C357 271.326 359.871 268.88 359.429 261.24C359.252 258.176 357.11 254.767 356.935 252.474Z"/><path fill="#FED575" transform="scale(2 2)" d="M285.491 199.942C291.509 198.363 294.475 203.211 295.669 208.291C290.83 208.289 286.47 208.024 281.555 208.291C278.262 209.692 276.679 210.304 273.189 211.155C276.821 205.649 278.072 201.183 285.491 199.942Z"/><path fill="#E87726" transform="scale(2 2)" d="M258.229 201.843C262.007 201.542 265.145 202.509 268.45 204.274C268.026 206.635 267.532 208.822 266.999 211.155C263.119 209.449 260.78 208.677 256.569 208.291C251.97 208.183 248.699 208.732 244.443 210.331C247.713 204.662 251.911 202.668 258.229 201.843Z"/><path fill="#FED575" transform="scale(2 2)" d="M337.138 328.026C345.895 329.571 331.882 340.214 323.393 338.352C321.114 337.476 320.404 337.001 318.662 335.415C325.955 333.474 332.205 329.149 337.138 328.026Z"/><path fill="#FED575" transform="scale(2 2)" d="M356.935 299.942C357.593 300.214 358.917 300.883 358.88 301.651C358.47 310.133 348.7 311.798 343.104 312.696C338.824 313.38 346.013 309.376 347.268 308.467C350.865 305.863 353.752 303.005 356.935 299.942Z"/><path fill="#E87726" transform="scale(2 2)" d="M218.269 222.808C228.766 221.817 217.632 226.074 213.177 233.632C208.964 238.983 206.86 226.69 218.269 222.808Z"/><path fill="#FED575" transform="scale(2 2)" d="M126.451 361.714L126.657 362.018C123.951 367.36 108.79 383.658 104.03 389.417C100.996 393.088 97.4548 397.374 103.955 391.339L125.982 370.51C128.72 367.961 131.104 365.468 133.992 363.062C128.258 371.888 119.341 388.78 113.056 396.328C107.732 398.681 107.326 396.505 101.009 401.201C89.5256 409.55 77.6624 419.578 66.0266 427.398C73.9818 418.603 82.3135 409.379 90.8956 401.201C89.0069 399.777 86.7585 398.361 84.7674 397.045C91.8363 389.615 103.549 380.663 111.55 374.136C116.57 370.041 121.297 365.716 126.451 361.714Z"/><path fill="#FED575" transform="scale(2 2)" d="M444.219 220.95C439.45 224.345 434.655 225.892 429.688 228.94C430.164 230.479 430.539 232.068 430.931 233.632C419.106 236.408 406.73 238.477 394.861 241.298C392.991 241.586 391.576 241.728 389.685 241.864C399.068 238.666 410.113 233.805 419.81 230.235C412.758 230.166 407.178 231.82 400.862 231.902C406.77 228.208 417.862 223.571 424.334 220.95L424.987 221.043C425.698 221.675 426.141 222.748 426.588 223.62C432.407 222.641 438.429 222.093 444.219 220.95Z"/><path fill="#FED575" transform="scale(2 2)" d="M226.216 88.9209C229.266 95.3412 230.064 104.636 233.53 111.989C235.355 111.88 236.21 111.839 238.027 111.989C238.09 119.13 236.728 136.807 235.456 143.97L235.161 144.087C234.864 143.358 233.743 136.656 233.53 135.446C232.098 129.479 231.319 127.226 231.283 121.062C229.954 124.127 229.583 125.227 228.737 128.531C226.836 122.212 222.792 112.96 220.132 106.777C222.057 107.78 224.202 108.621 226.216 109.459C226.005 103.27 226.139 95.2146 226.216 88.9209Z"/><path fill="#FED575" transform="scale(2 2)" d="M237.391 383.192L237.687 383.522C237.821 388.174 233.268 402.632 232.116 408.231C233.994 406.731 235.315 405.841 237.391 404.675C237.435 408.297 237.399 411.982 237.391 415.608C235.478 417.093 230.331 419.472 229.349 420.886C226.348 425.206 224.657 437.365 221.699 441.333C222.522 437.124 222.278 433.615 223.724 429.52C223.647 427.523 223.539 425.737 223.724 423.736C222.079 424.549 220.161 425.565 218.456 426.155L218.169 425.952C218.06 424.65 227.302 400.559 228.737 398.461C227.808 403.319 228.119 407.478 227.116 412.449C230.484 402.766 235.042 393.18 237.391 383.192Z"/><path fill="#FED575" transform="scale(2 2)" d="M120.511 199.942C123.45 202.506 136.543 220.094 137.974 222.808C133.215 219.244 128.167 216.237 123.722 212.789C124.668 217.546 128.626 222.575 128.985 226.276L128.67 226.305C121.378 218.099 110.369 209.708 102.372 201.843C108.191 203.266 113.816 205.569 119.681 207.339C120.179 204.981 120.151 202.428 120.511 199.942Z"/><path fill="#FED575" transform="scale(2 2)" d="M329.891 357.853C331.498 358.598 339.96 368.085 341.968 370.125C342.335 368.867 342.651 367.946 343.104 366.732C346.494 371.616 350.489 376.102 353.608 381.518C341.042 376.143 352.864 389.306 355.274 395.979L355.398 396.328L355.572 396.685C355.169 396.681 351.063 391.327 350.353 390.472C348.242 387.929 346.303 386.076 343.738 384.013L343.738 386.938C342.504 385.031 332.192 371.192 332.089 370.387L332.51 370.185C334.01 370.359 335.696 371.17 337.138 371.766C334.98 366.236 332.383 362.905 329.891 357.853Z"/><path fill="#FEAD3F" transform="scale(2 2)" d="M399.672 192.316C408.943 193.581 410.453 205.376 400.862 207.339C393.397 208.876 388.661 195.972 399.672 192.316Z"/><path fill="#FEAD3F" transform="scale(2 2)" d="M89.3636 261.872C93.1957 261.019 97.0003 263.408 97.8977 267.23C98.7952 271.052 96.4515 274.884 92.6407 275.827C90.1351 276.446 87.4899 275.671 85.7152 273.797C83.9404 271.923 83.3103 269.24 84.0654 266.772C84.8204 264.303 86.8441 262.432 89.3636 261.872Z"/><path fill="#FEAD3F" transform="scale(2 2)" d="M173.993 371.877C177.401 371.395 180.548 373.784 180.998 377.196C181.449 380.608 179.031 383.733 175.615 384.152C172.244 384.566 169.168 382.186 168.723 378.818C168.278 375.451 170.63 372.353 173.993 371.877Z"/><path fill="#FEAD3F" transform="scale(2 2)" d="M97.9763 336.261C103.974 335.894 107.171 343.867 99.4127 346.87C91.9761 346.817 90.1038 338.774 97.9763 336.261Z"/><path fill="#FEAD3F" transform="scale(2 2)" d="M276.682 384.175C278.33 383.656 280.129 384.07 281.385 385.257C282.64 386.443 283.155 388.217 282.729 389.891C282.304 391.566 281.005 392.879 279.336 393.322C277.637 393.773 275.829 393.253 274.63 391.968C273.844 391.125 273.39 390.025 273.352 388.873C273.283 386.737 274.644 384.817 276.682 384.175Z"/><path fill="#FEAD3F" transform="scale(2 2)" d="M300.859 138.345C303.007 137.726 305.25 138.963 305.872 141.11C306.495 143.257 305.261 145.502 303.115 146.128C300.965 146.755 298.713 145.518 298.09 143.366C297.466 141.215 298.707 138.965 300.859 138.345Z"/><path fill="#FEAD3F" transform="scale(2 2)" d="M164.779 162.252C169.875 161.732 170.622 167.165 166.327 169.76C162.229 169.084 159.675 164.337 164.779 162.252Z"/><path fill="#E87726" transform="scale(2 2)" d="M404.324 289.394C405.485 288.881 406.833 289.034 407.851 289.793C408.868 290.552 409.398 291.801 409.237 293.06C409.076 294.32 408.25 295.395 407.074 295.874C405.292 296.6 403.258 295.76 402.506 293.989C401.754 292.218 402.564 290.172 404.324 289.394Z"/></svg>