<?xml version="1.0" encoding="utf-8" ?><svg xmlns="http://www.w3.org/2000/svg" xmlns:xlink="http://www.w3.org/1999/xlink" width="1024" height="1024" viewBox="0 0 1024 1024"><path fill="#F9CD45" transform="scale(2 2)" d="M272.766 109.777C278.554 109.542 279.163 104.34 286.899 110.816C293.023 115.942 298.841 121.536 304.848 126.874L419.675 229.643C427.726 236.92 436.046 244.057 444.052 251.381C449.847 256.684 441.293 262.669 437.685 265.81L313.71 374.966C304.286 383.283 294.908 391.613 285.757 400.219C280.082 405.557 275.133 402.243 271.436 397.253L271.436 397.253C265.317 403.799 251.603 389.992 261.886 380.98C307.49 341.01 352.985 300.916 398.202 260.496C400.48 258.459 402.398 256.29 404.812 254.352C377.541 232.709 349.778 206.169 323.841 182.805L261.774 127.563C258.849 125.185 258.482 119.864 260.176 116.658C262.376 112.493 268.607 111.11 272.766 109.777Z"/><path fill="#F9CD45" transform="scale(2 2)" d="M272.766 109.777C278.554 109.542 279.163 104.34 286.899 110.816C293.023 115.942 298.841 121.536 304.848 126.874L419.675 229.643C427.726 236.92 436.046 244.057 444.052 251.381C449.847 256.684 441.293 262.669 437.685 265.81L313.71 374.966C304.286 383.283 294.908 391.613 285.757 400.219C280.082 405.557 275.133 402.243 271.436 397.253L271.436 397.253C270.214 395.277 271.344 391.796 272.766 390.192L273.27 390.375C274.376 390.056 275.234 389.416 276.217 388.797C279.35 385.862 281.128 384.357 284.543 381.927C284.694 380.433 285.596 380.56 285.926 379.268L285.579 378.832C286.146 377.849 323.994 344.342 327.62 341.651C329.645 339.825 331.657 338.061 333.716 336.276C334.816 334.539 346.919 324.824 349.448 322.567C350.861 320.667 359.807 313.28 362.051 311.411L368.66 305.545C369.681 304.131 375.526 299.335 377.043 298.148L377.548 298.562C379.199 298.761 379.595 297.58 381.24 296.429L381.436 296.293C386.309 291.766 400.634 278.732 404.812 275.923C405.525 274.424 406.329 273.852 407.323 272.489L407.144 271.762C407.707 270.945 409.714 269.313 410.521 268.664L410.782 269.046L411.394 269.16C412.427 268.849 412.877 268.305 413.693 267.568L414.485 267.568C416.626 265.74 426.98 258.262 425.723 255.269C422.131 246.721 394.956 224.586 386.98 217.481L300.249 140.057C294.747 135.187 289.392 129.243 283.574 124.846C281.357 121.829 273.885 118.524 273.904 113.832C273.911 112.108 274.024 112.413 272.766 111.329C272.858 110.788 272.794 110.333 272.766 109.777Z"/><path fill="#FFFEBD" transform="scale(2 2)" d="M349.448 322.567C350.787 327.271 341.909 327.031 348.457 325.995L348.616 326.09C341.957 331.888 335.595 337.77 328.634 343.266C317.83 351.797 307.585 363.039 296.209 371.875C292.285 374.924 288.674 378.991 284.543 381.927C284.694 380.433 285.596 380.56 285.926 379.268L285.579 378.832C286.146 377.849 323.994 344.342 327.62 341.651C329.645 339.825 331.657 338.061 333.716 336.276C334.816 334.539 346.919 324.824 349.448 322.567Z"/><path fill="#FEFFE8" transform="scale(2 2)" d="M333.716 336.276L333.901 336.848C333.157 337.963 329.435 342.948 328.17 341.741L327.789 341.747L327.62 341.651C329.645 339.825 331.657 338.061 333.716 336.276Z"/><path fill="#FEEE97" transform="scale(2 2)" d="M377.043 298.148L377.548 298.562C379.199 298.761 379.595 297.58 381.24 296.429L381.436 296.293C377.02 301.4 367.262 310.539 362.051 314.682C357.311 317.866 352.331 323.925 348.616 326.09L348.457 325.995C341.909 327.031 350.787 327.271 349.448 322.567C350.861 320.667 359.807 313.28 362.051 311.411L368.66 305.545C369.681 304.131 375.526 299.335 377.043 298.148Z"/><path fill="#FFFEBD" transform="scale(2 2)" d="M368.66 305.545C367.899 307.92 365.128 309.38 363.528 311.411L362.648 311.79L362.051 311.411L368.66 305.545Z"/><path fill="#FEEE97" transform="scale(2 2)" d="M413.693 267.568L414.485 267.568C411.057 270.603 408.815 273.52 404.812 275.923C405.525 274.424 406.329 273.852 407.323 272.489L407.144 271.762C407.707 270.945 409.714 269.313 410.521 268.664L410.782 269.046L411.394 269.16C412.427 268.849 412.877 268.305 413.693 267.568Z"/><path fill="#FFFEBD" transform="scale(2 2)" d="M272.766 390.192L273.27 390.375C274.376 390.056 275.234 389.416 276.217 388.797C273.531 392.018 272.286 393.057 271.436 397.253L271.436 397.253C270.214 395.277 271.344 391.796 272.766 390.192Z"/><defs><linearGradient id="gradient_0" gradientUnits="userSpaceOnUse" x1="367.39044" y1="179.89125" x2="339.79144" y2="201.31386"><stop offset="0" stop-color="#FFFFA5"/><stop offset="1" stop-color="#FFFFD6"/></linearGradient></defs><path fill="url(#gradient_0)" transform="scale(2 2)" d="M283.574 128.36L283.654 127.953C282.672 126.542 279.932 125.88 281.39 123.819C282.037 123.821 282.825 124.697 283.442 125.22L283.574 124.846C289.392 129.243 294.747 135.187 300.249 140.057L386.98 217.481C394.956 224.586 422.131 246.721 425.723 255.269C426.98 258.262 416.626 265.74 414.485 267.568L413.693 267.568C414.911 266.168 418.859 262.66 418.912 261.337C419.301 260.856 423.732 256.922 424.776 255.847C412.897 243.066 397.018 230.041 383.974 218.341L296.257 139.824C293.598 137.503 285.518 130.681 283.574 128.36Z"/><path fill="#FEFFE8" transform="scale(2 2)" d="M377.043 298.148C381.013 295.023 385.838 290.543 389.655 287.145L407.144 271.762L407.323 272.489C406.329 273.852 405.525 274.424 404.812 275.923C400.634 278.732 386.309 291.766 381.436 296.293L381.24 296.429C379.595 297.58 379.199 298.761 377.548 298.562L377.043 298.148Z"/><path fill="#FFFFFC" transform="scale(2 2)" d="M272.766 111.329C274.024 112.413 273.911 112.108 273.904 113.832C273.885 118.524 281.357 121.829 283.574 124.846L283.442 125.22C282.825 124.697 282.037 123.821 281.39 123.819C279.932 125.88 282.672 126.542 283.654 127.953L283.574 128.36C276.092 122.647 270.931 120.324 272.766 111.329Z"/><path fill="#FFFFFC" transform="scale(2 2)" d="M285.579 378.832L285.926 379.268C285.596 380.56 284.694 380.433 284.543 381.927C281.128 384.357 279.35 385.862 276.217 388.797C275.234 389.416 274.376 390.056 273.27 390.375L272.766 390.192C275.417 387.29 282.363 381.583 285.579 378.832Z"/><path fill="#FFFEBD" transform="scale(2 2)" d="M418.912 261.337C418.859 262.66 414.911 266.168 413.693 267.568C412.877 268.305 412.427 268.849 411.394 269.16L410.782 269.046L410.521 268.664C412.839 266.45 416.388 263.578 418.912 261.337Z"/><path fill="#F9CD45" transform="scale(2 2)" d="M149.642 123.472C152.457 122.772 154.726 122.141 157.614 121.803C160.611 123.44 169.551 131.844 172.601 134.497L274.714 224.789C284.754 233.68 294.841 242.528 304.747 251.571C310.941 257.225 301.382 262.756 297.443 266.191L166.974 379.596C164.504 381.695 161.193 385.373 158.01 385.926C154.581 386.521 150.32 384.443 149.642 380.756L148.822 380.756C139.431 386.301 131.054 372.067 138.309 364.502C142.312 360.327 146.81 356.697 151.183 352.936L234.772 279.173C243.997 270.98 254.204 262.735 263.001 254.352C259.689 250.91 254.05 246.145 250.37 242.831L147.93 150.778C144.216 147.49 136.304 142.108 135.491 136.935C134.142 128.353 140.937 124.437 148.299 123.472L149.642 123.472ZM197.44 334.905C199.241 330.448 206.608 324.897 210.866 322.567C214.263 318.701 220.774 313.749 224.911 310.525C231.343 304.508 237.507 298.676 244.505 293.323L246.477 291.684C252.512 284.456 265.849 275.596 273.47 267.568C276.292 266.376 280.968 260.334 284.543 257.923L282.765 257.923C275.726 262.395 260.89 276.675 253.739 282.87L212.946 318.555C204.905 325.569 196.34 332.585 188.529 339.871C190.231 339.913 192.886 336.847 195.798 336.276L197.44 334.905Z"/><path fill="#F9CD45" transform="scale(2 2)" d="M149.642 123.472C152.457 122.772 154.726 122.141 157.614 121.803C160.611 123.44 169.551 131.844 172.601 134.497L274.714 224.789C284.754 233.68 294.841 242.528 304.747 251.571C310.941 257.225 301.382 262.756 297.443 266.191L166.974 379.596C164.504 381.695 161.193 385.373 158.01 385.926C154.581 386.521 150.32 384.443 149.642 380.756L148.822 380.756C148.485 379.489 148.176 377.504 148.299 376.21C149.091 376.063 150.218 375.064 151.123 374.588C154.312 370.307 161.698 366.213 166.26 361.613C167.368 360.034 172.502 354.503 172.627 353.605C173.707 352.036 180.902 346.284 182.657 345.004C183.221 344.272 187.682 340.525 188.529 339.871C190.231 339.913 192.886 336.847 195.798 336.276L197.44 334.905C199.241 330.448 206.608 324.897 210.866 322.567C214.263 318.701 220.774 313.749 224.911 310.525C231.343 304.508 237.507 298.676 244.505 293.323L246.477 291.684C252.512 284.456 265.849 275.596 273.47 267.568C276.292 266.376 280.968 260.334 284.543 257.923C288.905 256.236 288.292 254.008 285.346 251.239C275.591 241.414 261.905 230.526 251.232 221.078L197.063 172.883C185.817 162.998 174.721 152.67 163.224 143.037C161.08 141.241 157.061 137.172 155.259 135.919C153.058 133.489 150.774 132.939 149.642 129.662C149.821 128.167 149.85 124.935 149.642 123.472Z"/><defs><linearGradient id="gradient_1" gradientUnits="userSpaceOnUse" x1="175.7816" y1="357.86868" x2="174.35587" y2="348.11124"><stop offset="0" stop-color="#FFA"/><stop offset="1" stop-color="#FFFFE2"/></linearGradient></defs><path fill="url(#gradient_1)" transform="scale(2 2)" d="M172.627 353.605C173.707 352.036 180.902 346.284 182.657 345.004L181.898 346.617C182.17 347.227 182.239 347.277 182.657 347.811C179.096 350.918 170.065 361.791 166.26 361.613C167.368 360.034 172.502 354.503 172.627 353.605Z"/><path fill="#FFFEBD" transform="scale(2 2)" d="M246.477 291.684C252.512 284.456 265.849 275.596 273.47 267.568C272.443 269.889 268.843 272.631 271.215 272.037C271.164 272.153 256.866 287.25 262.613 279.128C259.83 278.992 249.8 290.111 246.477 291.684Z"/><path fill="#FEEE97" transform="scale(2 2)" d="M244.505 293.323C242.03 296.752 234.41 305.863 230.83 307.827L230.663 307.689C231.997 306.261 233.505 305.376 234.528 304.023L234.489 303.699C229.842 303.47 226.679 311.695 222.982 313.896C223.687 312.796 224.244 311.662 224.911 310.525C231.343 304.508 237.507 298.676 244.505 293.323Z"/><path fill="#FEEE97" transform="scale(2 2)" d="M197.44 334.905C199.241 330.448 206.608 324.897 210.866 322.567C210.595 323.418 210.32 324.106 210.257 324.997C205.061 329.083 203.267 331.387 197.44 334.905Z"/><path fill="#FFFEBD" transform="scale(2 2)" d="M210.866 322.567C214.263 318.701 220.774 313.749 224.911 310.525C224.244 311.662 223.687 312.796 222.982 313.896C218.782 318.116 215.23 321.725 210.257 324.997C210.32 324.106 210.595 323.418 210.866 322.567Z"/><path fill="#FEFFE8" transform="scale(2 2)" d="M188.529 339.871C190.231 339.913 192.886 336.847 195.798 336.276C193.19 338.27 184.271 345.556 182.657 347.811C182.239 347.277 182.17 347.227 181.898 346.617L182.657 345.004C183.221 344.272 187.682 340.525 188.529 339.871Z"/><path fill="#FEFFE8" transform="scale(2 2)" d="M148.299 376.21C149.091 376.063 150.218 375.064 151.123 374.588C149.002 377.712 150.166 378.148 149.642 380.756L148.822 380.756C148.485 379.489 148.176 377.504 148.299 376.21Z"/><defs><linearGradient id="gradient_2" gradientUnits="userSpaceOnUse" x1="228.04652" y1="185.61514" x2="209.01772" y2="202.11241"><stop offset="0" stop-color="#FFFFAB"/><stop offset="1" stop-color="#FEFBD7"/></linearGradient></defs><path fill="url(#gradient_2)" transform="scale(2 2)" d="M154.394 138.946C153.88 136.908 148.286 134.306 150.532 132.62C152.474 133.424 153.421 135.597 155.259 135.919C157.061 137.172 161.08 141.241 163.224 143.037C174.721 152.67 185.817 162.998 197.063 172.883L251.232 221.078C261.905 230.526 275.591 241.414 285.346 251.239C288.292 254.008 288.905 256.236 284.543 257.923L282.765 257.923C283.414 257.245 284.759 256.404 285.579 255.847C279.96 248.053 262.792 234.539 254.971 227.646L180.251 161.549C172.666 154.736 161.102 146.067 154.394 138.946Z"/><path fill="#FFFFFC" transform="scale(2 2)" d="M148.299 376.21C149.24 372.622 168.981 356.879 172.627 353.605C172.502 354.503 167.368 360.034 166.26 361.613C161.698 366.213 154.312 370.307 151.123 374.588C150.218 375.064 149.091 376.063 148.299 376.21Z"/><path fill="#FEFFE8" transform="scale(2 2)" d="M148.299 131.056C148.158 129.089 148.942 126.349 149.642 129.662C150.774 132.939 153.058 133.489 155.259 135.919C153.421 135.597 152.474 133.424 150.532 132.62C148.286 134.306 153.88 136.908 154.394 138.946C151.997 137.024 148.647 134.213 148.299 131.056Z"/><path fill="#FFFEBD" transform="scale(2 2)" d="M148.299 123.472L149.642 123.472C149.85 124.935 149.821 128.167 149.642 129.662C148.942 126.349 148.158 129.089 148.299 131.056C147.467 128.381 147.775 126.118 148.299 123.472Z"/><path fill="#FEEE97" transform="scale(2 2)" d="M165.219 219.065C171.616 221.622 191.593 235.185 197.44 239.368C203.385 243.073 208.945 246.087 213.452 251.52L210.257 251.52C210.642 252.941 211.707 256.049 210.889 257.128C208.193 260.685 196.455 268.335 192.682 270.403C187.048 274.664 172.493 283.75 166.26 286.966C168.36 280.843 181.054 268.269 185.179 261.337C182.355 261.619 181.19 261.587 178.357 261.337C175.118 260.628 167.648 260.858 164.023 260.877C165.799 258.405 166.956 247.092 166.13 246.615C168.789 246.597 173.947 246.852 176.317 246.271C178.599 246.166 183.058 246.654 184.999 245.936C185.27 244.597 167.339 223.246 165.385 219.396L165.219 219.065Z"/><defs><linearGradient id="gradient_3" gradientUnits="userSpaceOnUse" x1="197.07976" y1="253.51823" x2="212.0208" y2="255.14668"><stop offset="0" stop-color="#FEFCAB"/><stop offset="1" stop-color="#FFFFEA"/></linearGradient></defs><path fill="url(#gradient_3)" transform="scale(2 2)" d="M197.44 239.368C203.385 243.073 208.945 246.087 213.452 251.52L210.257 251.52C210.642 252.941 211.707 256.049 210.889 257.128C208.193 260.685 196.455 268.335 192.682 270.403C194.371 265.745 202.699 268.212 198.413 261.541C194.126 254.87 199.628 249.287 202.447 243.366C201.222 241.768 198.137 241.234 197.44 239.368Z"/><defs><linearGradient id="gradient_4" gradientUnits="userSpaceOnUse" x1="165.75926" y1="257.54376" x2="93.812973" y2="247.47662"><stop offset="0" stop-color="#FEF1B8"/><stop offset="1" stop-color="#FEFFFA"/></linearGradient></defs><path fill="url(#gradient_4)" transform="scale(2 2)" d="M178.357 261.337C165.941 261.985 153.325 261.148 140.904 260.912C127.883 260.666 114.894 260.761 101.878 259.784C86.7774 258.651 95.108 252.435 95.5804 247.92C98.34 245.899 165.057 245.573 176.317 246.271C173.947 246.852 168.789 246.597 166.13 246.615C166.956 247.092 165.799 258.405 164.023 260.877C167.648 260.858 175.118 260.628 178.357 261.337Z"/><defs><linearGradient id="gradient_5" gradientUnits="userSpaceOnUse" x1="112.50681" y1="277.87912" x2="90.12793" y2="327.27173"><stop offset="0" stop-color="#FFE082"/><stop offset="1" stop-color="#FFFFBD"/></linearGradient></defs><path fill="url(#gradient_5)" transform="scale(2 2)" d="M134.564 288.28C136.523 288.005 138.164 288.543 137.708 290.88C136.767 292.233 127.809 294.871 125.533 295.693L98.275 305.787C90.158 308.757 76.0274 314.904 67.807 316.476C66.5103 316.685 65.291 317.089 64.3479 315.934C65.699 314.178 128.051 290.504 134.564 288.28Z"/><path fill="#FEEE97" transform="scale(2 2)" d="M95.4163 207.129C93.6326 207.091 66.4402 197.241 66.1976 195.649L66.7185 195.283C69.1378 195.253 91.2416 202.179 94.2549 203.585C101.254 205.068 135.683 216.167 137.327 218.569C137.801 221.894 130.569 219.109 129.158 218.682C117.765 215.24 106.669 210.94 95.4163 207.129Z"/><path fill="#FFFEBD" transform="scale(2 2)" d="M95.4163 207.129C93.6326 207.091 66.4402 197.241 66.1976 195.649L66.7185 195.283C69.1378 195.253 91.2416 202.179 94.2549 203.585C90.4989 204.043 71.7848 195.567 66.9218 195.88L66.8786 196.146C71.0718 197.327 94.7564 206.498 95.4163 207.129Z"/></svg>