<?xml version="1.0" encoding="utf-8" ?><svg xmlns="http://www.w3.org/2000/svg" xmlns:xlink="http://www.w3.org/1999/xlink" width="1024" height="1024" viewBox="0 0 1024 1024"><path fill="#FDC634" transform="scale(2 2)" d="M340.464 31.2778C345.36 35.5638 349.927 39.691 354.935 43.8934C355.002 44.8593 354.819 45.1588 354.403 46.0606L299.296 164.099C297.867 167.158 286.391 191.818 286.412 193.011C287.169 193.576 287.644 193.344 288.819 193.367C290.087 192.484 305.669 190.562 308.219 190.266C319.543 187.81 335.803 186.1 347.412 184.624C348.683 185.587 363.906 200.698 363.927 200.729L363.927 200.729C363.911 201.401 297.314 276.449 289.079 285.954L206.425 381.959C193.174 397.276 169.991 428.024 155.075 439.243C153.673 440.417 152.099 441.351 150.55 442.327C152.69 437.195 155.139 431.734 157.351 426.56C157.731 424.651 161.418 416.81 162.485 414.443L226.614 271.216C227.639 268.901 229.156 265.301 230.388 263.171C231.101 262.078 231.5 261.536 232.345 260.543C227.924 260.384 224.598 260.837 220.233 261.446C206.816 263.318 190.436 266.316 176.988 266.9C171.828 264.904 160.527 259.459 165.918 252.868L320.207 57.4356C327.001 48.8087 334.06 40.1996 340.464 31.2778Z"/><path fill="#FEEB82" transform="scale(2 2)" d="M340.464 31.2778C345.36 35.5638 349.927 39.691 354.935 43.8934C352.368 45.8166 347.028 52.5678 344.899 55.2143L182.342 260.376C181.273 261.686 177.634 265.865 176.988 266.9C171.828 264.904 160.527 259.459 165.918 252.868L320.207 57.4356C327.001 48.8087 334.06 40.1996 340.464 31.2778Z"/><defs><linearGradient id="gradient_0" gradientUnits="userSpaceOnUse" x1="255.51694" y1="350.27075" x2="157.74455" y2="345.25549"><stop offset="0" stop-color="#F9BF35"/><stop offset="1" stop-color="#FFFDAA"/></linearGradient></defs><path fill="url(#gradient_0)" transform="scale(2 2)" d="M237.486 259.307C239.992 259.192 243.312 258.073 245.538 258.219L245.833 258.535C249.846 262.795 258.104 257.749 260.405 258.045C260.291 259.063 256.015 263.819 255.441 266.9C245.755 277.114 236.446 298.566 229.294 311.284L179.748 398.508C177.363 402.656 165.112 423.943 162.201 426.56C160.673 429.635 153.084 437.206 155.075 439.243C153.673 440.417 152.099 441.351 150.55 442.327C152.69 437.195 155.139 431.734 157.351 426.56C157.731 424.651 161.418 416.81 162.485 414.443L226.614 271.216C227.639 268.901 229.156 265.301 230.388 263.171C231.266 263.004 231.891 261.351 232.345 260.543C233.692 260.118 236.599 259.844 237.486 259.307Z"/><path fill="#FEEB82" transform="scale(2 2)" d="M157.351 426.56L157.538 426.989C156.619 429.618 153.942 435.405 153.443 437.647L153.702 437.673C155.278 435.724 161.043 427.245 162.201 426.56C160.673 429.635 153.084 437.206 155.075 439.243C153.673 440.417 152.099 441.351 150.55 442.327C152.69 437.195 155.139 431.734 157.351 426.56Z"/><path fill="#FDC634" transform="scale(2 2)" d="M347.412 184.624C348.683 185.587 363.906 200.698 363.927 200.729C356.915 197.365 362.491 195.915 349.803 197.57C340.954 198.725 320.581 203.478 312.826 203.167C313.023 203.055 314.895 202.72 315.333 202.623C313.284 184.416 315.266 192.656 308.219 190.266C319.543 187.81 335.803 186.1 347.412 184.624Z"/><path fill="#F9B343" transform="scale(2 2)" d="M308.219 190.266C315.266 192.656 313.284 184.416 315.333 202.623C314.895 202.72 313.023 203.055 312.826 203.167C309.328 203.9 294.665 207.069 291.418 206.974C290.039 206.368 282.344 208.133 279.654 208.407C279.459 207.303 285.023 196.387 285.895 194.624C286.374 193.654 287.64 194.016 288.819 193.367C290.087 192.484 305.669 190.562 308.219 190.266Z"/><path fill="#FEEB82" transform="scale(2 2)" d="M312.826 203.167C320.581 203.478 340.954 198.725 349.803 197.57C362.491 195.915 356.915 197.365 363.927 200.729L363.927 200.729C338.264 203.249 312.884 208.496 287.204 210.89C284.219 211.168 280.839 212.214 278.101 212.246C279.675 206.156 287.651 210.027 291.418 206.974C294.665 207.069 309.328 203.9 312.826 203.167Z"/><path fill="#F9B343" transform="scale(2 2)" d="M237.486 259.307C245.726 257.223 254.38 256.433 262.831 256.031C259.987 259.319 257.482 263.065 255.441 266.9C256.015 263.819 260.291 259.063 260.405 258.045C258.104 257.749 249.846 262.795 245.833 258.535L245.538 258.219C243.312 258.073 239.992 259.192 237.486 259.307Z"/><path fill="#FDF5EB" transform="scale(2 2)" d="M290.365 351.953L290.595 352.122C290.442 352.883 197.106 423.815 190.784 428.446L172.595 441.552C158.243 452.029 142.325 462.15 128.678 472.814L128.323 472.492C141.165 459.253 154.115 445.563 166.702 432.08C176.325 421.773 179.935 419.106 191.56 412.334L214.411 398.779L290.365 351.953Z"/><defs><linearGradient id="gradient_1" gradientUnits="userSpaceOnUse" x1="332.52536" y1="338.1976" x2="321.66977" y2="310.55466"><stop offset="0" stop-color="#B9E3F8"/><stop offset="1" stop-color="#E4FFFF"/></linearGradient></defs><path fill="url(#gradient_1)" transform="scale(2 2)" d="M346.107 300.995C346.249 304.02 321.312 339.277 317.998 345.891C315.061 342.956 312.507 340.986 309.108 338.519C306.889 336.783 303.932 335.071 301.523 333.399C307.227 328.6 344.328 303.612 346.107 300.995Z"/><path fill="#D4EAFA" transform="scale(2 2)" d="M186.787 153.432L186.99 153.512C186.957 154.144 184.564 157.231 184 158.142L166.232 186.408C164.806 188.658 163.595 191.281 162.201 193.367C158.947 191.872 154.755 189.081 151.611 187.126L144.842 182.916C153.672 175.09 167.048 166.911 176.867 160.053C180.095 157.799 183.991 156.255 186.787 153.432Z"/><path fill="#FEEB82" transform="scale(2 2)" d="M127.374 345.891C132.728 354.443 126.338 357.652 143.191 362.474C127.294 369.569 134.515 364.704 127.374 378.576C123.199 367.684 124.532 365.784 111.071 362.474C123.086 359.684 124.275 357.052 127.374 345.891Z"/><path fill="#FEEB82" transform="scale(2 2)" d="M373.595 106.209C375.31 113.187 376.447 117.873 383.976 119.777C385.305 120.144 386.257 120.305 387.403 121.071L387.62 121.51C386.608 122.976 378.603 124.541 377.546 126.14C375.519 129.208 374.577 133.496 372.782 137.005C372.098 134.989 371.46 133.008 370.823 130.976C367.853 124.146 364.64 124.991 357.956 121.737C373.406 112.421 363.94 122.959 373.374 106.589L373.595 106.209Z"/><path fill="#F9B343" transform="scale(2 2)" d="M373.595 123.826C377.02 122.647 380.633 121.193 383.976 119.777C385.305 120.144 386.257 120.305 387.403 121.071L387.62 121.51C386.608 122.976 378.603 124.541 377.546 126.14C375.519 129.208 374.577 133.496 372.782 137.005C372.098 134.989 371.46 133.008 370.823 130.976C372.368 129.724 373.032 125.876 373.595 123.826Z"/><path fill="#FEEB82" transform="scale(2 2)" d="M216.83 82.9847C220.65 91.2577 225.929 89.4494 226.362 91.3257L225.952 91.8347C221.224 95.885 220.736 94.554 216.83 100.355C216.058 99.2987 215.657 98.696 215.017 97.557C212.565 93.6253 211.819 93.3666 207.47 91.8347C213.969 87.7182 213.067 90.4416 216.83 82.9847Z"/><path fill="#FDC634" transform="scale(2 2)" d="M215.017 97.557C216.941 93.9997 221.977 89.2739 225.952 91.8347C221.224 95.885 220.736 94.554 216.83 100.355C216.058 99.2987 215.657 98.696 215.017 97.557Z"/><path fill="#FEEB82" transform="scale(2 2)" d="M392.977 256.031C395.666 260.086 395.056 262.01 399.751 264.875C403.651 266.548 395.994 265.898 392.977 273.337L391.489 270.065C389.722 267.753 386.548 266.109 383.976 264.875C389.245 260.879 389.446 263.63 392.977 256.031Z"/><path fill="#F9B343" transform="scale(2 2)" d="M399.751 264.875C403.651 266.548 395.994 265.898 392.977 273.337L391.489 270.065C393.19 265.701 395.718 266.271 399.751 264.875Z"/></svg>