<?xml version="1.0" encoding="utf-8" ?><svg xmlns="http://www.w3.org/2000/svg" xmlns:xlink="http://www.w3.org/1999/xlink" width="1024" height="1024" viewBox="0 0 1024 1024"><path fill="#A68572" transform="scale(2 2)" d="M276.989 165.567C287.656 155.526 300.166 161.506 304.408 158.817C310.416 155.008 318.136 144.143 322.528 142.024C335.363 146.842 352.975 159.214 365.894 165.864C367.894 166.894 371.063 169.238 372.901 169.992C374.435 171.392 387.256 204.16 389.61 211.431C385.956 211.331 382.104 211.628 378.626 211.431C377.562 211.589 376.578 211.71 375.533 211.975C377.149 217.989 379.532 225.995 381.677 231.976L381.042 231.976C384.754 242.268 384.022 244.206 377.173 252.064C376.5 252.837 375.736 256.962 374.669 257.95C377.265 259.319 382.273 264.37 384.395 266.772C387.054 269.482 391.928 274.828 395.036 276.439L395.036 276.439L395.036 284.785C395.919 286.194 396.283 287.521 397.253 288.935C401.104 290.408 405.734 292.743 409.738 293.123C412.277 293.411 414.778 292.734 414.949 295.583L415.386 295.964C413.213 296.59 411.326 313.201 407.694 318.281C406.552 318.648 395.728 320.968 395.036 320.901C392.296 319.632 382.963 319.987 379.446 319.999C376.905 317.289 375.501 315.739 373.789 312.487C359.64 323.911 353.356 330.01 332.815 326.023C331.023 325.402 330.131 325.327 328.252 325.084C327.002 324.027 327.169 321.042 327.133 319.484L324.34 319.484C320.113 322.39 316.21 324.922 312.677 328.694C312.712 329.248 312.74 329.106 312.677 329.279C312.841 331.94 313.628 333.927 313.477 336.682C313.332 339.337 310.758 344.485 311.339 346.7C305.878 346.009 301.792 343.961 296.214 343.423C293.007 343.861 288.474 343.484 286.155 340.918C284.697 340.057 282.502 342.701 281.172 343.423C275.498 343.987 265.508 343.523 262.214 337.822L260.878 336.493C259.675 333.519 257.274 329.928 256.682 326.985C244.355 329.219 232.905 331.355 220.206 331.26C211.682 331.316 206.392 327.616 198.884 325.084C192.215 326.771 190.029 327.06 183.471 325.084C166.037 315.199 174.503 313.306 171.968 308.677C172.457 307.967 174.017 299.92 174.542 298.118C175.101 297.705 176.863 293.236 177.421 292.05C178.503 288.373 180.732 285.393 181.609 282.342L183.471 280.163C181.697 279.491 180.033 278.93 178.4 277.96C177.529 276.041 177.557 274.847 177.421 272.766C179.352 271.551 182.573 270.861 185.013 269.658C186.291 268.932 186.909 268.369 188.41 268.197C192.514 258.433 202.634 251.368 211.532 245.813C212.43 245.85 214.775 243.586 215.613 242.858C217.795 239.992 223.76 233.099 226.264 230.612C227.113 231.905 227.857 232.828 228.822 234.033C232.72 229.161 233.126 223.699 238.925 224.246C240.252 227.422 241.147 231.271 242.387 234.033C244.003 234.939 245.41 235.047 247.171 235.974C245.902 228.117 247.44 226.384 250.848 219.431C252.3 217.89 254.881 216.314 256.682 215.216C257.874 215.756 259.624 216.95 260.878 217.653C262.726 212.722 264.232 208.282 265.856 203.288C264.933 200.988 264.016 198.72 263.045 196.438C266.586 189.572 274.318 184.712 277.674 178.018C277.732 177.902 276.764 167.851 276.989 165.567ZM252.963 242.858C254.023 242.162 254.473 241.97 255.649 241.47C257.573 240.574 257.848 240.361 258.623 238.525L258.966 238.631L259.068 239.248C259.749 239.573 259.957 239.363 260.878 239.205C257.647 235.193 255.874 234.046 250.848 235.425C250.621 237.687 250.55 238.436 250.848 240.745L252.963 242.858Z"/><path fill="#CDC8C8" transform="scale(2 2)" d="M276.989 165.567C287.656 155.526 300.166 161.506 304.408 158.817C310.416 155.008 318.136 144.143 322.528 142.024C335.363 146.842 352.975 159.214 365.894 165.864C367.894 166.894 371.063 169.238 372.901 169.992C374.435 171.392 387.256 204.16 389.61 211.431C385.956 211.331 382.104 211.628 378.626 211.431C377.562 211.589 376.578 211.71 375.533 211.975C377.149 217.989 379.532 225.995 381.677 231.976L381.042 231.976C378.406 228.681 373.587 229.433 369.803 229.632L367.958 229.632C349.297 224.788 328.044 215.068 309.163 213.678C297.95 215.221 285.143 219.106 274.237 222.151C271.081 216.022 269.025 209.383 265.856 203.288C264.933 200.988 264.016 198.72 263.045 196.438C266.586 189.572 274.318 184.712 277.674 178.018C277.732 177.902 276.764 167.851 276.989 165.567Z"/><path fill="#B6AFB0" transform="scale(2 2)" d="M362.649 190.83C363.884 184.162 367.953 174.752 372.901 169.992C374.435 171.392 387.256 204.16 389.61 211.431C385.956 211.331 382.104 211.628 378.626 211.431C377.562 211.589 376.578 211.71 375.533 211.975C377.149 217.989 379.532 225.995 381.677 231.976L381.042 231.976C378.406 228.681 373.587 229.433 369.803 229.632L367.958 229.632C349.297 224.788 328.044 215.068 309.163 213.678C312.096 203.575 320.189 196.546 328.772 191.064C334.378 187.485 342.685 189.766 349.116 188.549C364.215 185.691 358.306 189.761 362.649 190.83Z"/><path fill="#686464" transform="scale(2 2)" d="M362.649 190.83C363.884 184.162 367.953 174.752 372.901 169.992C374.435 171.392 387.256 204.16 389.61 211.431C385.956 211.331 382.104 211.628 378.626 211.431C377.562 211.589 376.578 211.71 375.533 211.975C377.149 217.989 379.532 225.995 381.677 231.976L381.042 231.976C378.406 228.681 373.587 229.433 369.803 229.632C369.715 218.611 363.044 203.348 362.649 190.83Z"/><path fill="#8B8788" transform="scale(2 2)" d="M329.954 198.743C340.941 199.075 352.915 206.907 349.537 219.431C346.174 219.931 345.536 209.286 343.859 206.826C342.271 204.495 332.842 200.323 329.954 198.743Z"/><path fill="#8B8788" transform="scale(2 2)" d="M360.773 194.265L360.729 194.56C357.891 196.936 351.414 204.732 348.537 204.928C346.626 200.975 353.124 199.775 356.397 197.47C357.79 196.488 359.297 194.898 360.773 194.265Z"/><path fill="#B6AFB0" transform="scale(2 2)" d="M303.137 162.241C309.062 161.619 312.412 174.544 307.255 172.472C302.507 169.488 296.15 167.177 303.137 162.241Z"/><path fill="#6E5040" transform="scale(2 2)" d="M328.252 251.011C335.425 251.055 339.734 251.094 344.615 257.085L346.427 259.019C348.465 257.462 351.461 254.701 353.408 253.515C358.203 253.845 370.048 256.491 374.669 257.95C377.265 259.319 382.273 264.37 384.395 266.772C387.054 269.482 391.928 274.828 395.036 276.439L395.036 276.439L395.036 284.785C395.919 286.194 396.283 287.521 397.253 288.935C401.104 290.408 405.734 292.743 409.738 293.123C412.277 293.411 414.778 292.734 414.949 295.583L415.386 295.964C413.213 296.59 411.326 313.201 407.694 318.281C406.552 318.648 395.728 320.968 395.036 320.901C392.296 319.632 382.963 319.987 379.446 319.999C376.905 317.289 375.501 315.739 373.789 312.487C359.64 323.911 353.356 330.01 332.815 326.023C331.023 325.402 330.131 325.327 328.252 325.084C327.002 324.027 327.169 321.042 327.133 319.484L324.34 319.484L327.133 316.315C324.15 312.303 321.398 308.617 318.656 304.426C317.514 303.177 316.685 302.412 315.188 301.612C307.484 303.972 299.763 309.047 292.353 312.487C301.568 290.549 292.013 292.542 315.188 281.574C320.624 270.676 318.982 263.332 328.252 251.011Z"/><path fill="#503727" transform="scale(2 2)" d="M384.395 266.772C387.054 269.482 391.928 274.828 395.036 276.439L395.036 276.439L395.036 284.785C395.919 286.194 396.283 287.521 397.253 288.935C401.104 290.408 405.734 292.743 409.738 293.123C412.277 293.411 414.778 292.734 414.949 295.583L415.386 295.964C413.213 296.59 411.326 313.201 407.694 318.281C406.552 318.648 395.728 320.968 395.036 320.901C392.296 319.632 382.963 319.987 379.446 319.999C376.905 317.289 375.501 315.739 373.789 312.487C359.64 323.911 353.356 330.01 332.815 326.023C331.023 325.402 330.131 325.327 328.252 325.084C327.002 324.027 327.169 321.042 327.133 319.484C333.251 319.605 338.61 318.375 344.485 318.109C348.073 317.946 354.625 319.088 358.656 319.484L354.999 307.446C357.7 300.438 356.987 298.451 356.688 291.073C357.248 287.042 357.923 286.027 359.608 282.342C360.461 283.413 360.838 283.866 361.841 284.785C362.042 283.286 362.262 282.471 362.649 281.04C364.659 278.303 367.618 276.954 370.909 276.439C372.139 276.917 373.482 277.403 374.669 277.96C376.571 277.315 379.089 276.297 381.042 276.439C382.032 272.653 382.766 270.296 384.395 266.772Z"/><path fill="#CDC8C8" transform="scale(2 2)" d="M397.253 288.935C401.104 290.408 405.734 292.743 409.738 293.123C412.277 293.411 414.778 292.734 414.949 295.583L415.386 295.964C413.213 296.59 411.326 313.201 407.694 318.281C406.552 318.648 395.728 320.968 395.036 320.901C392.296 319.632 382.963 319.987 379.446 319.999C376.905 317.289 375.501 315.739 373.789 312.487C373.281 309.855 373.315 308.982 373.789 306.376C374.399 303.413 374.742 303.053 376.522 300.589C382.319 291.259 397.05 293.986 397.253 288.935Z"/><path fill="#8B8788" transform="scale(2 2)" d="M409.738 293.123C412.277 293.411 414.778 292.734 414.949 295.583L415.386 295.964C413.213 296.59 411.326 313.201 407.694 318.281C406.552 318.648 395.728 320.968 395.036 320.901C395.192 319.333 396.799 313.161 397.253 311.365C398.484 305.757 409.465 295.573 409.738 293.123Z"/><path fill="#B6AFB0" transform="scale(2 2)" d="M373.789 312.487C373.281 309.855 373.315 308.982 373.789 306.376C379.849 306.563 392.229 308.089 397.253 311.365C396.799 313.161 395.192 319.333 395.036 320.901C392.296 319.632 382.963 319.987 379.446 319.999C376.905 317.289 375.501 315.739 373.789 312.487Z"/><path fill="#917466" transform="scale(2 2)" d="M384.395 266.772C387.054 269.482 391.928 274.828 395.036 276.439L395.036 276.439L395.036 284.785C395.919 286.194 396.283 287.521 397.253 288.935C397.05 293.986 382.319 291.259 376.522 300.589L375.533 299.318C373.593 298.383 370.954 296.637 369.803 294.785C370.08 294.059 371.213 292.651 371.707 292.05C372.215 290.568 371.279 278.453 370.909 276.439C372.139 276.917 373.482 277.403 374.669 277.96C376.571 277.315 379.089 276.297 381.042 276.439C382.032 272.653 382.766 270.296 384.395 266.772Z"/><path fill="#503727" transform="scale(2 2)" d="M384.395 266.772C387.054 269.482 391.928 274.828 395.036 276.439L395.036 276.439L395.036 284.785C389.387 284.252 388.123 282.879 385.789 277.96C384.549 277.427 382.395 276.845 381.042 276.439C382.032 272.653 382.766 270.296 384.395 266.772Z"/><path fill="#7F5D4A" transform="scale(2 2)" d="M371.707 292.05C372.116 292.601 375.466 298.942 375.533 299.318C373.593 298.383 370.954 296.637 369.803 294.785C370.08 294.059 371.213 292.651 371.707 292.05Z"/><path fill="#A68572" transform="scale(2 2)" d="M362.649 281.04C364.659 278.303 367.618 276.954 370.909 276.439C371.279 278.453 372.215 290.568 371.707 292.05C371.213 292.651 370.08 294.059 369.803 294.785C358.704 300.007 361.051 295.981 362.649 287.022L361.841 284.785C362.042 283.286 362.262 282.471 362.649 281.04Z"/><path fill="#917466" transform="scale(2 2)" d="M328.252 251.011C335.425 251.055 339.734 251.094 344.615 257.085C346.095 264.894 353.221 271.812 352.927 273.7C350.996 275.741 344.457 275.755 341.994 277.313C339.162 279.103 338.943 282.699 335.49 284.178C326.782 287.908 321.96 282.877 315.188 281.574C320.624 270.676 318.982 263.332 328.252 251.011Z"/><path fill="#A68572" transform="scale(2 2)" d="M215.613 242.858C217.646 243.244 218.982 244.061 220.206 244.299C222.668 245.736 225.126 249.1 227.68 251.011C228.621 253.12 238.531 266.817 239.973 268.197C243.959 269.865 249.333 276.706 252.963 278.7C254.822 279.924 255.585 280.335 256.682 282.342C258.204 284.539 259.042 287.333 259.54 289.945L259.54 289.945C260.245 291.99 261.814 296.248 262.214 298.118C263.667 305.33 260.184 309.675 260.878 318.281C259.952 319.109 259.464 319.365 258.405 319.999L256.682 326.985C244.355 329.219 232.905 331.355 220.206 331.26C211.682 331.316 206.392 327.616 198.884 325.084C192.215 326.771 190.029 327.06 183.471 325.084C166.037 315.199 174.503 313.306 171.968 308.677C172.457 307.967 174.017 299.92 174.542 298.118C175.101 297.705 176.863 293.236 177.421 292.05C178.503 288.373 180.732 285.393 181.609 282.342L183.471 280.163C181.697 279.491 180.033 278.93 178.4 277.96C177.529 276.041 177.557 274.847 177.421 272.766C179.352 271.551 182.573 270.861 185.013 269.658C186.291 268.932 186.909 268.369 188.41 268.197C192.514 258.433 202.634 251.368 211.532 245.813C212.43 245.85 214.775 243.586 215.613 242.858Z"/><path fill="#7F5D4A" transform="scale(2 2)" d="M234.716 270.382C237.638 272.134 242.14 276.176 244.412 277.265C248.374 279.163 252.316 280.205 256.682 282.342C258.204 284.539 259.042 287.333 259.54 289.945L259.54 289.945C260.245 291.99 261.814 296.248 262.214 298.118C263.667 305.33 260.184 309.675 260.878 318.281C259.952 319.109 259.464 319.365 258.405 319.999L256.682 326.985C244.355 329.219 232.905 331.355 220.206 331.26C211.682 331.316 206.392 327.616 198.884 325.084C192.215 326.771 190.029 327.06 183.471 325.084C184.818 321.387 191.687 317.495 194.438 314.635C198.208 310.362 203.561 310.216 207.968 308.197C212.814 305.978 210.137 294.247 214.687 290.302C220.464 285.293 227.967 283.924 234.367 280.36L234.716 280.163C234.87 277.081 234.619 273.638 234.716 270.382Z"/><path fill="#503727" transform="scale(2 2)" d="M220.206 331.26C222.616 328.408 238.427 317.01 241.6 314.91C245.266 312.249 245.256 306.283 246.565 302.192C247.471 299.362 256.163 291.238 258.914 289.741L259.54 289.945C260.245 291.99 261.814 296.248 262.214 298.118C263.667 305.33 260.184 309.675 260.878 318.281C259.952 319.109 259.464 319.365 258.405 319.999L256.682 326.985C244.355 329.219 232.905 331.355 220.206 331.26Z"/><path fill="#AF9181" transform="scale(2 2)" d="M215.613 242.858C217.646 243.244 218.982 244.061 220.206 244.299C219.018 245.475 217.181 246.468 216.247 247.618C214.19 250.15 213.708 254.114 211.183 256.327C206.369 260.403 201.778 260.894 197.392 266.024C192.269 272.016 192.522 280.979 187.729 286.684C187.568 286.876 179.062 291.239 177.421 292.05C178.503 288.373 180.732 285.393 181.609 282.342L183.471 280.163C181.697 279.491 180.033 278.93 178.4 277.96C177.529 276.041 177.557 274.847 177.421 272.766C179.352 271.551 182.573 270.861 185.013 269.658C186.291 268.932 186.909 268.369 188.41 268.197C192.514 258.433 202.634 251.368 211.532 245.813C212.43 245.85 214.775 243.586 215.613 242.858Z"/><path fill="#503727" transform="scale(2 2)" d="M185.013 269.658C186.291 268.932 186.909 268.369 188.41 268.197C186.367 272.495 184.46 275.488 183.471 280.163C181.697 279.491 180.033 278.93 178.4 277.96C177.529 276.041 177.557 274.847 177.421 272.766C179.352 271.551 182.573 270.861 185.013 269.658Z"/><path fill="#686464" transform="scale(2 2)" d="M256.682 215.216C257.874 215.756 259.624 216.95 260.878 217.653C269.683 220.096 283.675 230.684 289.583 237.5C290.469 239.962 291.305 241.926 292.353 244.299C293.42 245.779 294.402 247.411 295.408 248.942C292.135 249.036 288.57 249.566 285.353 250.215C285.613 251.266 285.944 252.468 286.155 253.515C286.464 254.784 286.752 255.838 287.125 257.085C289.914 256.488 290.75 256.596 293.58 257.085L293.915 257.316L293.829 257.568C293.566 258.35 293.499 258.254 293.58 259.019C293.095 260.484 291.419 262.9 291.887 264.146L292.353 264.251L292.952 264.447C292.044 266.883 291.383 267.23 292.353 269.658C291.838 271.524 291.092 272.069 289.583 273.309C288.241 276.981 286.836 278.018 285.353 281.04C283.907 284.845 284.236 287.092 284.435 291.073C281.676 289.463 277.327 288.099 274.237 287.022L273.301 287.022C268.591 290.65 266.009 293.658 262.214 298.118C261.814 296.248 260.245 291.99 259.54 289.945L259.54 289.945C259.042 287.333 258.204 284.539 256.682 282.342C255.585 280.335 254.822 279.924 252.963 278.7C249.333 276.706 243.959 269.865 239.973 268.197C238.531 266.817 228.621 253.12 227.68 251.011C225.126 249.1 222.668 245.736 220.206 244.299C218.982 244.061 217.646 243.244 215.613 242.858C217.795 239.992 223.76 233.099 226.264 230.612C227.113 231.905 227.857 232.828 228.822 234.033C232.72 229.161 233.126 223.699 238.925 224.246C240.252 227.422 241.147 231.271 242.387 234.033C244.003 234.939 245.41 235.047 247.171 235.974C245.902 228.117 247.44 226.384 250.848 219.431C252.3 217.89 254.881 216.314 256.682 215.216ZM252.963 242.858C254.023 242.162 254.473 241.97 255.649 241.47C257.573 240.574 257.848 240.361 258.623 238.525L258.966 238.631L259.068 239.248C259.749 239.573 259.957 239.363 260.878 239.205C257.647 235.193 255.874 234.046 250.848 235.425C250.621 237.687 250.55 238.436 250.848 240.745L252.963 242.858Z"/><path fill="#B6AFB0" transform="scale(2 2)" d="M238.925 224.246C240.252 227.422 241.147 231.271 242.387 234.033C244.003 234.939 245.41 235.047 247.171 235.974C247.983 236.327 249.903 235.672 250.848 235.425C250.621 237.687 250.55 238.436 250.848 240.745L252.963 242.858C253.228 244.689 255.378 246.868 256.682 248.151L256.682 248.942L256.827 249.217C253.64 254.283 244.398 262.837 239.973 268.197C238.531 266.817 228.621 253.12 227.68 251.011C225.126 249.1 222.668 245.736 220.206 244.299C218.982 244.061 217.646 243.244 215.613 242.858C217.795 239.992 223.76 233.099 226.264 230.612C227.113 231.905 227.857 232.828 228.822 234.033C232.72 229.161 233.126 223.699 238.925 224.246Z"/><path fill="#686464" transform="scale(2 2)" d="M256.682 248.942L256.827 249.217C253.64 254.283 244.398 262.837 239.973 268.197C238.531 266.817 228.621 253.12 227.68 251.011C232.15 252.214 240.638 254.306 245.119 254.268C252.701 254.173 251.502 253.321 256.682 248.942Z"/><path fill="#CDC8C8" transform="scale(2 2)" d="M242.387 234.033C244.003 234.939 245.41 235.047 247.171 235.974C247.983 236.327 249.903 235.672 250.848 235.425C250.621 237.687 250.55 238.436 250.848 240.745L252.963 242.858C253.228 244.689 255.378 246.868 256.682 248.151L256.682 248.942C251.502 253.321 252.701 254.173 245.119 254.268C246.007 242.262 242.758 241.428 242.387 234.033Z"/><path fill="#B6AFB0" transform="scale(2 2)" d="M255.649 241.47C257.573 240.574 257.848 240.361 258.623 238.525L258.966 238.631L259.068 239.248C259.749 239.573 259.957 239.363 260.878 239.205C270 248.198 279.118 242.322 282.26 245.167C285.036 251.408 257.481 274.855 252.963 278.7C249.333 276.706 243.959 269.865 239.973 268.197C244.398 262.837 253.64 254.283 256.827 249.217L256.682 248.942L256.682 248.151C255.378 246.868 253.228 244.689 252.963 242.858C254.023 242.162 254.473 241.97 255.649 241.47Z"/><path fill="#8B8788" transform="scale(2 2)" d="M256.682 215.216C257.874 215.756 259.624 216.95 260.878 217.653C269.683 220.096 283.675 230.684 289.583 237.5C290.469 239.962 291.305 241.926 292.353 244.299C287.444 243.603 273.556 240.117 270.799 237.155C260.923 226.546 264.322 230.442 253.502 224.246C252.371 222.636 251.797 221.136 250.848 219.431C252.3 217.89 254.881 216.314 256.682 215.216Z"/><path fill="#B6AFB0" transform="scale(2 2)" d="M259.54 289.945C261.114 288.316 274.602 276.549 275.882 276.439C277.6 277.704 283.385 280.243 285.353 281.04C283.907 284.845 284.236 287.092 284.435 291.073C281.676 289.463 277.327 288.099 274.237 287.022L273.301 287.022C268.591 290.65 266.009 293.658 262.214 298.118C261.814 296.248 260.245 291.99 259.54 289.945L259.54 289.945Z"/><path fill="#8B8788" transform="scale(2 2)" d="M275.882 276.439C277.6 277.704 283.385 280.243 285.353 281.04C283.907 284.845 284.236 287.092 284.435 291.073C281.676 289.463 277.327 288.099 274.237 287.022L273.301 287.022C273.82 284.666 276.131 278.036 275.882 276.439Z"/><path fill="#917466" transform="scale(2 2)" d="M287.125 257.085C289.914 256.488 290.75 256.596 293.58 257.085L293.915 257.316L293.829 257.568C293.566 258.35 293.499 258.254 293.58 259.019C293.095 260.484 291.419 262.9 291.887 264.146L292.353 264.251C290.833 264.978 290.26 264.745 288.609 264.251C288.092 261.854 287.5 259.511 287.125 257.085Z"/><path fill="#B6AFB0" transform="scale(2 2)" d="M292.353 264.251L292.952 264.447C292.044 266.883 291.383 267.23 292.353 269.658C291.838 271.524 291.092 272.069 289.583 273.309C289.838 269.754 289.653 267.693 288.609 264.251C290.26 264.745 290.833 264.978 292.353 264.251Z"/><path fill="#686464" transform="scale(2 2)" d="M265.856 203.288C269.025 209.383 271.081 216.022 274.237 222.151C285.143 219.106 297.95 215.221 309.163 213.678C328.044 215.068 349.297 224.788 367.958 229.632C368.055 229.487 350.556 238.05 348.537 239.205C345.932 240.111 336.668 237.267 332.815 236.85C324.885 233.83 311.69 245.635 312.677 256.13C311.325 258.1 306.099 261.189 304.128 259.019C303.039 256.588 301.202 256.566 298.855 256.13C297.405 255.636 295.962 255.433 294.453 255.162L293.58 257.085C290.75 256.596 289.914 256.488 287.125 257.085C286.752 255.838 286.464 254.784 286.155 253.515C285.944 252.468 285.613 251.266 285.353 250.215C288.57 249.566 292.135 249.036 295.408 248.942C294.402 247.411 293.42 245.779 292.353 244.299C291.305 241.926 290.469 239.962 289.583 237.5C283.675 230.684 269.683 220.096 260.878 217.653C262.726 212.722 264.232 208.282 265.856 203.288Z"/><path fill="#524F55" transform="scale(2 2)" d="M289.583 237.5C291.042 237.779 311.003 254.095 312.677 256.13C311.325 258.1 306.099 261.189 304.128 259.019C303.039 256.588 301.202 256.566 298.855 256.13C297.405 255.636 295.962 255.433 294.453 255.162L293.58 257.085C290.75 256.596 289.914 256.488 287.125 257.085C286.752 255.838 286.464 254.784 286.155 253.515C285.944 252.468 285.613 251.266 285.353 250.215C288.57 249.566 292.135 249.036 295.408 248.942C294.402 247.411 293.42 245.779 292.353 244.299C291.305 241.926 290.469 239.962 289.583 237.5Z"/><path fill="#AF9181" transform="scale(2 2)" d="M286.155 253.515C289.119 254.008 291.509 254.457 294.453 255.162L293.58 257.085C290.75 256.596 289.914 256.488 287.125 257.085C286.752 255.838 286.464 254.784 286.155 253.515Z"/><path fill="#917466" transform="scale(2 2)" d="M273.301 287.022L274.237 287.022C277.327 288.099 281.676 289.463 284.435 291.073C286.383 299.658 285.026 304.004 289.583 313.738C277.13 320.333 275.362 320.557 290.497 323.711C292.989 322.166 294.448 320.652 296.214 318.281C299.037 321.467 302.517 326.844 305.053 329.279C307.697 329.408 310.486 329.161 312.677 329.279C312.841 331.94 313.628 333.927 313.477 336.682C313.332 339.337 310.758 344.485 311.339 346.7C305.878 346.009 301.792 343.961 296.214 343.423C293.007 343.861 288.474 343.484 286.155 340.918C284.697 340.057 282.502 342.701 281.172 343.423C275.498 343.987 265.508 343.523 262.214 337.822L260.878 336.493C259.675 333.519 257.274 329.928 256.682 326.985L258.405 319.999C259.464 319.365 259.952 319.109 260.878 318.281C260.184 309.675 263.667 305.33 262.214 298.118C266.009 293.658 268.591 290.65 273.301 287.022Z"/><path fill="#B6AFB0" transform="scale(2 2)" d="M263.045 316.315C265.882 317.338 268.018 318.084 270.702 319.484C272.786 319.901 273.944 320.077 275.882 320.901C279.625 322.521 280.718 323.11 283.563 326.023C284.261 327.156 284.845 328.035 285.353 329.279C288.775 328.938 286.944 330.745 286.63 333.149C286.312 335.58 286.527 338.61 286.155 340.918C284.697 340.057 282.502 342.701 281.172 343.423C275.498 343.987 265.508 343.523 262.214 337.822L260.878 336.493C259.675 333.519 257.274 329.928 256.682 326.985L258.405 319.999C259.464 319.365 259.952 319.109 260.878 318.281L263.045 316.315Z"/><path fill="#8B8788" transform="scale(2 2)" d="M285.353 329.279C288.775 328.938 286.944 330.745 286.63 333.149C286.312 335.58 286.527 338.61 286.155 340.918C284.697 340.057 282.502 342.701 281.172 343.423C275.498 343.987 265.508 343.523 262.214 337.822C263.737 334.658 272.999 337.341 275.882 337.822C278.108 335.514 282.772 330.849 285.353 329.279Z"/><path fill="#B6AFB0" transform="scale(2 2)" d="M263.045 316.315C265.882 317.338 268.018 318.084 270.702 319.484C270.479 321.594 262.999 333.997 260.878 336.493C259.675 333.519 257.274 329.928 256.682 326.985L258.405 319.999C259.464 319.365 259.952 319.109 260.878 318.281L263.045 316.315Z"/><path fill="#8B8788" transform="scale(2 2)" d="M273.301 287.022L274.237 287.022L274.249 287.261C275.111 301.923 278.426 302.658 275.882 320.901C273.944 320.077 272.786 319.901 270.702 319.484C268.018 318.084 265.882 317.338 263.045 316.315L260.878 318.281C260.184 309.675 263.667 305.33 262.214 298.118C266.009 293.658 268.591 290.65 273.301 287.022Z"/><path fill="#686464" transform="scale(2 2)" d="M283.563 326.023C284.668 325.952 293.692 329.843 296.214 330.613C296.19 333.933 296.459 340.597 296.214 343.423C293.007 343.861 288.474 343.484 286.155 340.918C286.527 338.61 286.312 335.58 286.63 333.149C286.944 330.745 288.775 328.938 285.353 329.279C284.845 328.035 284.261 327.156 283.563 326.023Z"/><path fill="#7F5D4A" transform="scale(2 2)" d="M318.656 304.426C321.398 308.617 324.15 312.303 327.133 316.315L324.34 319.484C320.113 322.39 316.21 324.922 312.677 328.694C312.712 329.248 312.74 329.106 312.677 329.279C310.486 329.161 307.697 329.408 305.053 329.279C302.517 326.844 299.037 321.467 296.214 318.281C302.991 313.242 312.615 309.853 318.656 304.426Z"/><defs><linearGradient id="gradient_0" gradientUnits="userSpaceOnUse" x1="300.3584" y1="266.30505" x2="291.37711" y2="259.83499"><stop offset="0" stop-color="#7E5C4C"/><stop offset="1" stop-color="#9E7865"/></linearGradient></defs><path fill="url(#gradient_0)" transform="scale(2 2)" d="M294.453 255.162C295.962 255.433 297.405 255.636 298.855 256.13C301.202 256.566 303.039 256.588 304.128 259.019L304.128 259.603C305.894 263.529 293.518 269.549 292.353 269.658C291.383 267.23 292.044 266.883 292.952 264.447L292.353 264.251L291.887 264.146C291.419 262.9 293.095 260.484 293.58 259.019C293.499 258.254 293.566 258.35 293.829 257.568L293.915 257.316L293.58 257.085L294.453 255.162Z"/><path fill="#AF9181" transform="scale(2 2)" d="M298.855 256.13C301.202 256.566 303.039 256.588 304.128 259.019L304.128 259.603C301.189 261.217 298.45 263.783 295.408 265.745C297.997 261.524 297.235 259.335 298.855 256.13Z"/><path fill="#6E5040" transform="scale(2 2)" d="M293.58 259.019C297.169 261.934 294.352 261.51 292.353 264.251L291.887 264.146C291.419 262.9 293.095 260.484 293.58 259.019Z"/><path fill="#917466" transform="scale(2 2)" d="M332.815 236.85C336.668 237.267 345.932 240.111 348.537 239.205C348.675 240.931 348.809 245.339 348.079 246.792C342.064 248.903 335.496 241.077 332.815 236.85Z"/><path fill="#686464" transform="scale(2 2)" d="M208.497 196.438C213.037 197.906 232.406 205.635 234.221 209.802C235.962 213.8 237.803 219.991 238.925 224.246C233.126 223.699 232.72 229.161 228.822 234.033C227.857 232.828 227.113 231.905 226.264 230.612C223.76 233.099 217.795 239.992 215.613 242.858C214.775 243.586 212.43 245.85 211.532 245.813C202.634 251.368 192.514 258.433 188.41 268.197C186.909 268.369 186.291 268.932 185.013 269.658C178.859 268.999 169.105 267.96 163.933 264.899C160.561 256.723 158.644 244.217 156.102 235.425L155.878 234.303C156.46 232.815 173.511 223.688 176.279 221.824C180.455 219.011 184.466 215.955 188.41 212.752C192.417 208.983 204.41 198.942 208.497 196.438Z"/><path fill="#CDC8C8" transform="scale(2 2)" d="M208.497 196.438C213.037 197.906 232.406 205.635 234.221 209.802C235.962 213.8 237.803 219.991 238.925 224.246C233.126 223.699 232.72 229.161 228.822 234.033C227.857 232.828 227.113 231.905 226.264 230.612C223.76 233.099 217.795 239.992 215.613 242.858C214.775 243.586 212.43 245.85 211.532 245.813C206.872 243.118 202.049 239.855 197.555 236.85C194.297 228.221 191.39 221.606 188.41 212.752C192.417 208.983 204.41 198.942 208.497 196.438Z"/><path fill="#B6AFB0" transform="scale(2 2)" d="M188.41 212.752C191.39 221.606 194.297 228.221 197.555 236.85C193.744 236.711 168.86 241.181 165.535 242.858C164.265 241.404 157.876 234.851 156.102 235.425L155.878 234.303C156.46 232.815 173.511 223.688 176.279 221.824C180.455 219.011 184.466 215.955 188.41 212.752Z"/><path fill="#B6AFB0" transform="scale(2 2)" d="M117.117 287.022C118.479 282.984 127.954 257.019 131.681 257.085C145.183 259.149 146.684 257.367 158.307 265.523C164.089 269.58 177.944 276.786 181.609 282.342C180.732 285.393 178.503 288.373 177.421 292.05C176.863 293.236 175.101 297.705 174.542 298.118C174.017 299.92 172.457 307.967 171.968 308.677C163.001 309.564 152.552 313.841 143.75 313.738C140.561 312.593 137.227 310.668 134.144 310.089C131.73 308.351 130.289 307.662 127.595 306.376C127.104 305.678 124.724 304.773 123.83 304.426L123.83 303.847C111.735 296.177 112.202 300.393 117.117 287.022Z"/><path fill="#8B8788" transform="scale(2 2)" d="M117.117 287.022C118.479 282.984 127.954 257.019 131.681 257.085C133.333 261.215 137.578 266.644 139.385 271.175L140.497 273.309C144.11 279.76 149.193 288.224 152.115 294.785C150.535 300.037 144.843 307.539 143.75 313.738C140.561 312.593 137.227 310.668 134.144 310.089C131.73 308.351 130.289 307.662 127.595 306.376C127.104 305.678 124.724 304.773 123.83 304.426L123.83 303.847C111.735 296.177 112.202 300.393 117.117 287.022Z"/><path fill="#686464" transform="scale(2 2)" d="M117.117 287.022C121.474 287.522 134.198 304.884 134.144 310.089C131.73 308.351 130.289 307.662 127.595 306.376C127.104 305.678 124.724 304.773 123.83 304.426L123.83 303.847C111.735 296.177 112.202 300.393 117.117 287.022Z"/><path fill="#686464" transform="scale(2 2)" d="M139.385 271.175L140.497 273.309C140.024 275.01 135.455 292.781 132.385 291.927C128.219 290.768 137.437 273.52 139.385 271.175Z"/><path fill="#686464" transform="scale(2 2)" d="M152.115 294.785C158.822 294.912 168.01 296.248 174.542 298.118C174.017 299.92 172.457 307.967 171.968 308.677C163.001 309.564 152.552 313.841 143.75 313.738C144.843 307.539 150.535 300.037 152.115 294.785Z"/><path fill="#CDC8C8" transform="scale(2 2)" d="M389.61 211.431C394.826 210.402 409.726 209.376 415.386 209.458C417.38 212.337 424.958 226.945 424.87 229.632C423.404 235.229 421.33 244.479 421.384 250.215C418.104 254.099 415.707 259.425 412.041 261.852C408.904 262.656 408.118 263.01 405.21 264.251L405.21 264.899C407.85 266.457 408.441 267.701 409.738 270.382C409.256 270.734 404.35 272.165 402.95 272.766L400.858 273.309C399.607 273.9 398.571 274.407 397.253 274.862C395.951 274.835 395.378 275.024 395.036 276.439C391.928 274.828 387.054 269.482 384.395 266.772C382.273 264.37 377.265 259.319 374.669 257.95C375.736 256.962 376.5 252.837 377.173 252.064C384.022 244.206 384.754 242.268 381.042 231.976L381.677 231.976C379.532 225.995 377.149 217.989 375.533 211.975C376.578 211.71 377.562 211.589 378.626 211.431C382.104 211.628 385.956 211.331 389.61 211.431Z"/><path fill="#917466" transform="scale(2 2)" d="M381.677 231.976C382.988 234.388 385.355 238.547 386.888 240.745C392.948 242.572 399.141 243.889 405.21 245.813L406.463 245.813C407.599 251.686 411.87 258.254 412.041 261.852C408.904 262.656 408.118 263.01 405.21 264.251L405.21 264.899C407.85 266.457 408.441 267.701 409.738 270.382C409.256 270.734 404.35 272.165 402.95 272.766L400.858 273.309C399.607 273.9 398.571 274.407 397.253 274.862C395.951 274.835 395.378 275.024 395.036 276.439C391.928 274.828 387.054 269.482 384.395 266.772C382.273 264.37 377.265 259.319 374.669 257.95C375.736 256.962 376.5 252.837 377.173 252.064C384.022 244.206 384.754 242.268 381.042 231.976L381.677 231.976Z"/><path fill="#524F55" transform="scale(2 2)" d="M386.888 240.745C392.948 242.572 399.141 243.889 405.21 245.813L406.463 245.813C407.599 251.686 411.87 258.254 412.041 261.852C408.904 262.656 408.118 263.01 405.21 264.251C402.741 263.722 400.916 263.398 398.429 262.72C396.874 259.607 396.165 255.91 394.601 252.691C392.605 248.584 389.268 244.805 386.997 240.934L386.888 240.745Z"/><path fill="#AF9181" transform="scale(2 2)" d="M398.429 262.72C400.916 263.398 402.741 263.722 405.21 264.251L405.21 264.899C407.85 266.457 408.441 267.701 409.738 270.382C409.256 270.734 404.35 272.165 402.95 272.766L400.858 273.309C400.115 270.232 399.414 267.911 398.429 264.899C398.32 263.862 398.328 263.764 398.429 262.72Z"/><path fill="#7F5D4A" transform="scale(2 2)" d="M405.21 264.899C407.85 266.457 408.441 267.701 409.738 270.382C409.256 270.734 404.35 272.165 402.95 272.766C402.57 271.629 404.697 266.182 405.21 264.899Z"/><path fill="#7F5D4A" transform="scale(2 2)" d="M397.253 274.862C397.134 274.691 397.947 265.547 398.429 264.899C399.414 267.911 400.115 270.232 400.858 273.309C399.607 273.9 398.571 274.407 397.253 274.862Z"/><path fill="#B6AFB0" transform="scale(2 2)" d="M375.533 211.975C376.578 211.71 377.562 211.589 378.626 211.431C384.502 222.114 402.923 236.013 405.21 245.813C399.141 243.889 392.948 242.572 386.888 240.745C385.355 238.547 382.988 234.388 381.677 231.976C379.532 225.995 377.149 217.989 375.533 211.975Z"/><path fill="#686464" transform="scale(2 2)" d="M423.604 229.632C424.311 229.536 424.324 229.416 424.87 229.632C423.404 235.229 421.33 244.479 421.384 250.215C418.104 254.099 415.707 259.425 412.041 261.852C411.87 258.254 407.599 251.686 406.463 245.813C408.435 244.149 410.331 238.347 412.399 236.523C415.713 233.601 419.483 232.763 423.338 229.838L423.604 229.632Z"/><path fill="#B6AFB0" transform="scale(2 2)" d="M415.386 209.458C417.38 212.337 424.958 226.945 424.87 229.632C424.324 229.416 424.311 229.536 423.604 229.632C417.291 224.575 413.926 217.552 415.386 209.458Z"/><defs><linearGradient id="gradient_1" gradientUnits="userSpaceOnUse" x1="412.22852" y1="372.35693" x2="361.36523" y2="349.74176"><stop offset="0" stop-color="#745950"/><stop offset="1" stop-color="#9E7F6E"/></linearGradient></defs><path fill="url(#gradient_1)" transform="scale(2 2)" d="M358.656 348.64C363.227 340.379 383.175 330.827 391.02 332.296C393.739 332.805 396.871 335.611 398.429 337.822C401.888 341.063 408.026 346.193 409.738 350.298C409.769 352.278 409.644 354.565 409.738 356.444C412.31 358.852 419.931 361.316 416.11 365.161C413.345 367.943 386.065 374.891 381.8 374.709C376.854 374.497 374.761 372.002 370.267 370.658C365.578 369.553 359.565 369.904 354.999 367.755C352.53 363.768 359.302 358.963 361.841 356.444C361.252 355.016 360.311 353.241 359.608 351.824C359.199 350.984 358.898 349.586 358.656 348.64Z"/><path fill="#AF9181" transform="scale(2 2)" d="M358.656 348.64C363.227 340.379 383.175 330.827 391.02 332.296C393.739 332.805 396.871 335.611 398.429 337.822C401.888 341.063 408.026 346.193 409.738 350.298C406.181 349.974 396.474 350.417 393.955 348.64C391.22 347.69 389.717 347.277 386.888 346.7C383.739 350.538 381.503 353.303 378.626 357.403C375.551 356.458 361.614 351.311 359.608 351.824C359.199 350.984 358.898 349.586 358.656 348.64Z"/><path fill="#917466" transform="scale(2 2)" d="M398.429 337.822C401.888 341.063 408.026 346.193 409.738 350.298C406.181 349.974 396.474 350.417 393.955 348.64C395.133 348.761 397.194 349.232 398.429 349.479C398.339 347.884 398.19 339.019 398.429 337.822Z"/><path fill="#AF9181" transform="scale(2 2)" d="M361.841 356.444C365.214 361.679 356.951 365.057 354.999 367.755C352.53 363.768 359.302 358.963 361.841 356.444Z"/><path fill="#917466" transform="scale(2 2)" d="M442.335 259.019C446.459 256.757 456.894 251.662 460.998 251.011C463.754 257.585 462.258 257.124 468.81 261.852C471.697 267.835 472.482 269.361 476.147 274.862L475.885 274.924C465.03 277.375 467.962 275.099 458.355 281.04C451.18 279.458 444.556 278.19 437.33 276.439C438.07 273.726 441.607 260.602 442.335 259.019Z"/><path fill="#7F5D4A" transform="scale(2 2)" d="M468.81 261.852C471.697 267.835 472.482 269.361 476.147 274.862L475.885 274.924C465.03 277.375 467.962 275.099 458.355 281.04C458.045 274.211 457.358 269.292 455.516 262.72C459.007 262.652 466.059 263.379 468.81 261.852Z"/><path fill="#B6AFB0" transform="scale(2 2)" d="M417.072 268.197C420.319 273.71 429.139 283.958 434.787 286.305C435.84 291.973 419.24 294.621 415.386 295.964L414.949 295.583C414.778 292.734 412.277 293.411 409.738 293.123C405.734 292.743 401.104 290.408 397.253 288.935C396.283 287.521 395.919 286.194 395.036 284.785L395.036 276.439L395.036 276.439C395.378 275.024 395.951 274.835 397.253 274.862C398.571 274.407 399.607 273.9 400.858 273.309L402.95 272.766C404.35 272.165 409.256 270.734 409.738 270.382C410.727 270.821 415.559 268.653 417.072 268.197Z"/><path fill="#686464" transform="scale(2 2)" d="M395.036 276.439C396.918 277.748 399.433 281.096 401.148 282.851C412.517 294.485 423.127 286.839 434.787 286.305C435.84 291.973 419.24 294.621 415.386 295.964L414.949 295.583C414.778 292.734 412.277 293.411 409.738 293.123C405.734 292.743 401.104 290.408 397.253 288.935C396.283 287.521 395.919 286.194 395.036 284.785L395.036 276.439Z"/><path fill="#B6AFB0" transform="scale(2 2)" d="M73.0276 283.143C87.8195 282.9 92.0277 275.119 107.674 286.305C103.998 287.612 99.491 292.429 94.2603 294.785C93.1979 298.063 92.2354 304.003 91.6189 307.446C85.3784 307.351 72.6474 300.078 63.3631 299.318C65.5236 296.439 72.0908 283.749 73.0276 283.143Z"/><path fill="#CDC8C8" transform="scale(2 2)" d="M73.0276 283.143C87.8195 282.9 92.0277 275.119 107.674 286.305C103.998 287.612 99.491 292.429 94.2603 294.785C88.6596 294.429 75.9395 287.898 73.0276 283.143Z"/><path fill="#917466" transform="scale(2 2)" d="M34.1803 323.711C40.6957 316.8 57.0034 312.641 66.2922 312.107C68.8544 311.96 76.1825 315.24 76.0895 318.281C75.8579 321.435 75.7842 323.077 74.773 326.023C68.6663 330.171 42.5943 330.67 35.8143 326.985C35.1015 326.034 34.6584 324.818 34.1803 323.711Z"/><path fill="#686464" transform="scale(2 2)" d="M35.8143 326.985C37.1913 324.597 40.1574 326.057 42.4856 326.065C61.2305 326.146 61.1034 324.959 76.0895 318.281C75.8579 321.435 75.7842 323.077 74.773 326.023C68.6663 330.171 42.5943 330.67 35.8143 326.985Z"/><path fill="#AF9181" transform="scale(2 2)" d="M230.234 136.986C231.578 138.011 235.398 140.885 236.541 142.024C241.222 145.076 242.694 148.74 245.119 153.732C241.579 156.437 234.781 157.689 230.234 159.473L227.68 159.473C224.285 158.986 222.551 157.642 219.45 156.882C216.424 156.14 210.103 157.03 211.532 153.732C212.702 150.949 214.382 145.455 215.613 143.337C218.231 142.206 220.214 143.32 221.597 140.863C223.702 139.575 227.924 137.706 230.234 136.986Z"/><path fill="#6E5040" transform="scale(2 2)" d="M231.316 146.993C236.47 144.234 233.774 146.692 236.541 142.024C241.222 145.076 242.694 148.74 245.119 153.732C241.579 156.437 234.781 157.689 230.234 159.473C230.109 154.387 231.014 151.685 231.316 146.993Z"/><path fill="#917466" transform="scale(2 2)" d="M231.316 146.993C231.014 151.685 230.109 154.387 230.234 159.473L227.68 159.473C224.285 158.986 222.551 157.642 219.45 156.882C216.424 156.14 210.103 157.03 211.532 153.732C216.502 151.918 218.946 152.564 223.898 153.732C227.39 151.868 227.303 149.614 231.316 146.993Z"/><path fill="#686464" transform="scale(2 2)" d="M324.34 319.484L327.133 319.484C327.169 321.042 327.002 324.027 328.252 325.084C330.131 325.327 331.023 325.402 332.815 326.023C332.747 326.263 337.211 337.329 337.817 339.79C331.809 341.816 316.972 346.952 311.339 346.7C310.758 344.485 313.332 339.337 313.477 336.682C313.628 333.927 312.841 331.94 312.677 329.279C312.74 329.106 312.712 329.248 312.677 328.694C316.21 324.922 320.113 322.39 324.34 319.484Z"/><path fill="#503727" transform="scale(2 2)" d="M324.34 319.484L327.133 319.484C327.169 321.042 327.002 324.027 328.252 325.084C327.254 325.635 326.771 327.215 325.603 327.945C321.767 330.342 316.885 328.836 312.677 328.694C316.21 324.922 320.113 322.39 324.34 319.484Z"/><defs><linearGradient id="gradient_2" gradientUnits="userSpaceOnUse" x1="126.32407" y1="320.97324" x2="107.57925" y2="309.90103"><stop offset="0" stop-color="#575756"/><stop offset="1" stop-color="#6E666C"/></linearGradient></defs><path fill="url(#gradient_2)" transform="scale(2 2)" d="M123.83 303.847L123.83 304.426C124.724 304.773 127.104 305.678 127.595 306.376C128.353 307.547 129.259 308.821 129.794 310.089C131.301 313.686 131.698 315.909 127.268 316.919C121.417 318.254 105.615 324.058 101.549 318.281C100.998 317.741 100.841 317.081 100.521 316.315C103.054 310.36 117.921 305.286 123.83 303.847Z"/><path fill="#B6AFB0" transform="scale(2 2)" d="M123.83 303.847L123.83 304.426C122.83 306.242 115.651 314.148 113.724 316.315C107.663 318.996 103.286 317.54 101.549 318.281C100.998 317.741 100.841 317.081 100.521 316.315C103.054 310.36 117.921 305.286 123.83 303.847Z"/><path fill="#8B8788" transform="scale(2 2)" d="M123.83 304.426C124.724 304.773 127.104 305.678 127.595 306.376C128.353 307.547 129.259 308.821 129.794 310.089C124.719 311.38 118.103 315.583 113.724 316.315C115.651 314.148 122.83 306.242 123.83 304.426Z"/><path fill="#A68572" transform="scale(2 2)" d="M241.621 335.532C245.59 335.813 255.035 335.633 255.649 340.918C256.751 343.463 255.905 345.913 255.649 348.64C250.177 351.434 233.499 352.125 233.86 344.987C234.682 340.728 238.256 337.995 241.621 335.532Z"/><path fill="#503727" transform="scale(2 2)" d="M247.171 344.987C250.61 342.713 251.233 341.069 255.649 340.918C256.751 343.463 255.905 345.913 255.649 348.64C250.177 351.434 233.499 352.125 233.86 344.987L247.171 344.987Z"/><path fill="#A68572" transform="scale(2 2)" d="M239.973 191.971C242.501 188.579 248.998 186.61 252.963 185.903C253.51 186.952 254.049 187.975 254.623 189.011C256.468 191.95 261.051 195.442 260.878 197.755C260.019 199.159 259.159 200.523 258.405 201.987C256.127 202.126 236.957 202.144 237.874 198.743C238.315 196.265 238.432 193.958 239.973 191.971Z"/><path fill="#7F5D4A" transform="scale(2 2)" d="M237.874 198.743C240.698 197.32 259.085 197.137 260.878 197.755C260.019 199.159 259.159 200.523 258.405 201.987C256.127 202.126 236.957 202.144 237.874 198.743Z"/><path fill="#AF9181" transform="scale(2 2)" d="M239.973 191.971C242.501 188.579 248.998 186.61 252.963 185.903C253.51 186.952 254.049 187.975 254.623 189.011C251.751 190.154 242.785 193.261 239.973 191.971Z"/><path fill="#8B8788" transform="scale(2 2)" d="M94.2603 294.785C99.491 292.429 103.998 287.612 107.674 286.305L107.674 287.022C108.813 289.015 113.098 294.978 112.229 296.978C108.544 301.966 97.6605 305.219 91.6189 307.446C92.2354 304.003 93.1979 298.063 94.2603 294.785Z"/><path fill="#B6AFB0" transform="scale(2 2)" d="M107.674 287.022C108.813 289.015 113.098 294.978 112.229 296.978C111.775 296.197 109.983 295.805 108.665 294.785C108.02 292.64 107.052 289.196 107.674 287.022Z"/><path fill="#A68572" transform="scale(2 2)" d="M420.285 303.847L420.14 303.725C418.048 298.143 435.539 287.29 440.616 300.589C444.087 310.91 424.463 310.439 420.285 303.847Z"/><path fill="#503727" transform="scale(2 2)" d="M434.787 304.798C436.309 302.43 437.884 301.258 440.616 300.589C444.087 310.91 424.463 310.439 420.285 303.847C420.958 303.57 432.728 304.746 434.787 304.798Z"/><path fill="#7F5D4A" transform="scale(2 2)" d="M350.836 328.694C354.815 328.07 356.916 329.664 359.608 332.4L360.773 335.532C358.822 335.892 356.961 336.2 354.999 336.493C352.727 336.714 347.492 336.57 345.125 336.493C346.34 333.053 346.914 329.623 350.836 328.694Z"/><path fill="#A68572" transform="scale(2 2)" d="M420.285 307.446C426.759 309.576 430.414 308.282 431.062 316.315L427.748 316.315C419.065 316.496 414.15 319.667 420.285 307.446Z"/><path fill="#AF9181" transform="scale(2 2)" d="M328.252 349.479L328.351 349.485C331.547 349.649 340.114 353.548 332.815 354.989C327.318 355.008 321.389 354.33 328.252 349.479Z"/><path fill="#AF9181" transform="scale(2 2)" d="M340.455 346.7C337.241 344.692 343.068 342.36 344.615 341.544C345.905 343.044 346.945 343.871 348.537 344.987C351.854 347.818 342.493 347.498 340.85 346.853L340.455 346.7Z"/><path fill="#A68572" transform="scale(2 2)" d="M340.455 346.7C342.116 344.292 345.614 345.196 348.234 345.01L348.537 344.987C351.854 347.818 342.493 347.498 340.85 346.853L340.455 346.7Z"/><path fill="#7F5D4A" transform="scale(2 2)" d="M140.497 325.084C142.887 325.001 147.695 329.632 143.75 330.613C140.755 330.19 134.898 327.781 140.497 325.084Z"/><path fill="#7F5D4A" transform="scale(2 2)" d="M194.768 335.532C197.884 335.278 201.158 337.748 197.555 339.79C194.253 340.333 191.331 337.629 194.768 335.532Z"/></svg>